<svg xmlns="http://www.w3.org/2000/svg" viewBox="0 0 31.68 31.68"><defs><style>.cls-1{fill:#1f313f;}.cls-2{fill:none;stroke:#3a404c;stroke-miterlimit:10;}</style></defs><g id="Layer_2" data-name="Layer 2"><g id="content"><circle class="cls-1" cx="15.84" cy="15.84" r="15.84"/><path class="cls-2" d="M11.68,7.53l2,3a1.61,1.61,0,0,1,0,1.73l-.62,1a1.58,1.58,0,0,0,.19,1.89L16,18.07a1.59,1.59,0,0,0,1.66.45l2.29-.72a1.58,1.58,0,0,1,1.34.18L24,19.75a1.59,1.59,0,0,1,.33,2.38l-2,2.26s-1.14,1.59-5.45-.91c-3.82-2.2-8.33-8.66-9.34-10.14a1.58,1.58,0,0,1-.26-.68c-.13-1-.41-3.49.05-3.95A24.67,24.67,0,0,1,9.45,7.13,1.6,1.6,0,0,1,11.68,7.53Z"/></g></g></svg>