<svg xmlns="http://www.w3.org/2000/svg" viewBox="0 0 31.68 31.68"><defs><style>.cls-1{fill:#3a404c;}.cls-2{fill:#1f313f;}</style></defs><g id="Layer_2" data-name="Layer 2"><g id="content"><circle class="cls-1" cx="15.84" cy="15.84" r="15.84"/><path class="cls-2" d="M16.67,8.84V8h2.39a.83.83,0,0,0,0-1.66H12.73a.83.83,0,0,0,0,1.66H15v.88a8.85,8.85,0,1,0,1.66,0Zm-.83,16A7.2,7.2,0,1,1,23,17.64,7.2,7.2,0,0,1,15.84,24.84Z"/><path class="cls-2" d="M16.67,17.8V12.91a.83.83,0,0,0-1.66,0v5.28a.83.83,0,0,0,.3.64l2.84,2.35a.8.8,0,0,0,.53.19.83.83,0,0,0,.53-1.47Z"/></g></g></svg>