<svg xmlns="http://www.w3.org/2000/svg" viewBox="0 0 40 40"><defs><style>.cls-1{fill:#fff;}.cls-2{fill:#1f313f;}.cls-3{fill:#29abe2;}</style></defs><g id="Layer_2" data-name="Layer 2"><g id="top_layer" data-name="top layer"><path class="cls-1" d="M31.2,22.94A11.68,11.68,0,0,0,31.58,20a12,12,0,0,0-.29-2.6l6.24-6.24a19.63,19.63,0,0,1-.15,18Z"/><path class="cls-2" d="M37.42,11.8a19.28,19.28,0,0,1-.14,16.69l-5.66-5.66a12,12,0,0,0,.08-5.31l5.72-5.72m.2-1.26-6.75,6.75a11,11,0,0,1-.09,5.76l6.69,6.69a20,20,0,0,0,.15-19.2Z"/><path class="cls-1" d="M22.94,8.8a11.56,11.56,0,0,0-5.88,0L10.88,2.62a19.69,19.69,0,0,1,18.24,0Z"/><path class="cls-2" d="M20,.75a19.3,19.3,0,0,1,8.49,2L22.83,8.38a11.95,11.95,0,0,0-5.66,0L11.51,2.72A19.3,19.3,0,0,1,20,.75M20,0a19.9,19.9,0,0,0-9.74,2.53L17,9.22a11,11,0,0,1,6.1,0l6.69-6.69A19.9,19.9,0,0,0,20,0Z"/><path class="cls-1" d="M20,39.63a19.76,19.76,0,0,1-8.84-2.1l6.24-6.24a11.8,11.8,0,0,0,5.2,0l6.24,6.24A19.76,19.76,0,0,1,20,39.63Z"/><path class="cls-2" d="M17.52,31.7a12,12,0,0,0,5,0l5.72,5.72a19.29,19.29,0,0,1-16.4,0l5.72-5.72m5.19-.83a11,11,0,0,1-5.42,0l-6.75,6.75a20,20,0,0,0,18.92,0l-6.75-6.75Z"/><path class="cls-1" d="M2.62,29.12a19.71,19.71,0,0,1-.15-18L8.71,17.4A12,12,0,0,0,8.42,20a11.68,11.68,0,0,0,.38,2.94Z"/><path class="cls-2" d="M2.58,11.8,8.3,17.52a12,12,0,0,0,.08,5.31L2.72,28.49A19.28,19.28,0,0,1,2.58,11.8m-.2-1.26a20,20,0,0,0,.15,19.2l6.69-6.69a11,11,0,0,1-.09-5.76L2.38,10.54Z"/><path class="cls-3" d="M37.47,29.74l-6.69-6.69a11.18,11.18,0,0,1-8.07,7.82l6.75,6.75A20.11,20.11,0,0,0,37.47,29.74Z"/><path class="cls-3" d="M17,9.22,10.26,2.53a20.11,20.11,0,0,0-7.88,8l6.75,6.75A11.18,11.18,0,0,1,17,9.22Z"/><path class="cls-3" d="M9.22,23.05,2.53,29.74a20.11,20.11,0,0,0,8,7.88l6.75-6.75A11.18,11.18,0,0,1,9.22,23.05Z"/><path class="cls-3" d="M30.87,17.29l6.75-6.75a20.11,20.11,0,0,0-7.88-8L23.05,9.22A11.18,11.18,0,0,1,30.87,17.29Z"/></g></g></svg>