<svg xmlns="http://www.w3.org/2000/svg" viewBox="0 0 31.68 31.68"><defs><style>.cls-1{fill:#a5b7d9;}.cls-2{fill:#1f313f;}</style></defs><g id="Layer_2" data-name="Layer 2"><g id="content"><circle class="cls-1" cx="15.84" cy="15.84" r="15.84"/><path class="cls-2" d="M15.84,24.6a.88.88,0,0,1-.63-.26l-1.56-1.56H9.33a.91.91,0,0,1-.78-.46.93.93,0,0,1,0-.9l1-1.61V14.35a6.23,6.23,0,0,1,3.72-5.72l.83-.84a2.45,2.45,0,0,1,3.44,0l.83.84a6.23,6.23,0,0,1,3.72,5.72v5.46l1,1.61a.88.88,0,0,1-.75,1.36H18l-1.56,1.56A.88.88,0,0,1,15.84,24.6ZM10.93,21H14a.89.89,0,0,1,.63.26l1.19,1.19L17,21.26a.89.89,0,0,1,.63-.26h3.09l-.29-.47a1,1,0,0,1-.13-.47V14.35a4.48,4.48,0,0,0-2.78-4.15.81.81,0,0,1-.29-.19l-1-1a.68.68,0,0,0-.92,0l-1,1a.81.81,0,0,1-.29.19,4.48,4.48,0,0,0-2.78,4.15v5.71a1,1,0,0,1-.13.47Z"/></g></g></svg>