<svg xmlns="http://www.w3.org/2000/svg" viewBox="0 0 16.85 16.85"><defs><style>.cls-1,.cls-2{fill:#cd3143;}.cls-2{stroke:#cd3143;stroke-miterlimit:10;stroke-width:0.81px;}</style></defs><g id="Layer_2" data-name="Layer 2"><g id="top_layer" data-name="top layer"><path class="cls-1" d="M8.42,16.85a8.43,8.43,0,1,1,8.43-8.43A8.44,8.44,0,0,1,8.42,16.85Zm0-15.23a6.81,6.81,0,1,0,6.81,6.8A6.81,6.81,0,0,0,8.42,1.62Z"/><path class="cls-2" d="M8.24,11.62h.28a.72.72,0,0,1,.52.21.71.71,0,0,1,.22.53.73.73,0,0,1-.22.52.73.73,0,0,1-.52.21H8.24a.72.72,0,0,1-.52-.21.74.74,0,0,1-.22-.52.73.73,0,0,1,.74-.74Zm.71-7L8.68,9.39a.61.61,0,0,1-.09.32.29.29,0,0,1-.42,0,.61.61,0,0,1-.09-.32L7.82,4.57c0-.11,0-.2,0-.25A.54.54,0,0,1,8,3.92a.57.57,0,0,1,.41-.17.57.57,0,0,1,.42.17A.58.58,0,0,1,9,4.33S9,4.46,9,4.57Z"/></g></g></svg>