<svg xmlns="http://www.w3.org/2000/svg" viewBox="0 0 380.19 30.25"><defs><style>.cls-1{fill:#3a404c;}.cls-2{fill:#6b7079;}.cls-3{font-size:15.71px;fill:#a5b7d9;font-family:ArialMT, Arial;letter-spacing:0.01em;}</style></defs><g id="Layer_2" data-name="Layer 2"><g id="content"><rect class="cls-1" width="85.19" height="30.25" rx="15.13"/><path class="cls-2" d="M16.38,6.58a8.55,8.55,0,1,0,8.55,8.55A8.55,8.55,0,0,0,16.38,6.58Zm4.29,9.34H17.18v3.49H15.59V15.92h-3.5V14.33h3.5V10.84h1.59v3.49h3.49Z"/><rect class="cls-1" x="94.96" width="85.19" height="30.25" rx="15.13"/><path class="cls-2" d="M110.91,6.58a8.55,8.55,0,1,0,8.55,8.55A8.55,8.55,0,0,0,110.91,6.58Zm4.29,9.34h-3.5v3.49h-1.58V15.92h-3.5V14.33h3.5V10.84h1.58v3.49h3.5Z"/><rect class="cls-1" x="189.93" width="85.19" height="30.25" rx="15.13"/><path class="cls-2" d="M207.14,6.58a8.55,8.55,0,1,0,8.55,8.55A8.55,8.55,0,0,0,207.14,6.58Zm4.28,9.34h-3.49v3.49h-1.59V15.92h-3.49V14.33h3.49V10.84h1.59v3.49h3.49Z"/><text class="cls-3" transform="translate(35.88 21.07)">617</text><text class="cls-3" transform="translate(128.68 21.07)">781</text><text class="cls-3" transform="translate(226.71 21.07)">508</text><path class="cls-2" d="M371.64,6.58a8.55,8.55,0,1,0,8.55,8.55A8.55,8.55,0,0,0,371.64,6.58Zm4.29,9.34h-3.5v3.49h-1.58V15.92h-3.5V14.33h3.5V10.84h1.58v3.49h3.5Z"/></g></g></svg>