<svg xmlns="http://www.w3.org/2000/svg" viewBox="0 0 31.68 31.68"><defs><style>.cls-1{fill:#a5b7d9;}.cls-2{fill:#3a404c;}</style></defs><g id="Layer_2" data-name="Layer 2"><g id="content"><circle class="cls-1" cx="15.84" cy="15.84" r="15.84"/><path class="cls-2" d="M23.38,20.58H8.3a1,1,0,0,1-.38-.08l-.5.64a1.65,1.65,0,0,0,.88.27H23.38A1.71,1.71,0,0,0,24.49,21L24,20.37A1.14,1.14,0,0,1,23.38,20.58Z"/><path class="cls-2" d="M24.79,12v7.4a1.4,1.4,0,0,1-.28.83l.45.45a2,2,0,0,0,.47-1.28V12a2.1,2.1,0,0,0-.33-1.11l-.47.47A1.35,1.35,0,0,1,24.79,12Z"/><path class="cls-2" d="M6.89,19.36V12a1.37,1.37,0,0,1,.22-.75l-.46-.46A2,2,0,0,0,6.25,12v7.4a2.06,2.06,0,0,0,.64,1.48l.45-.46A1.37,1.37,0,0,1,6.89,19.36Z"/><path class="cls-2" d="M23.38,10.54a1.4,1.4,0,0,1,.84.29l.45-.45a2,2,0,0,0-1.29-.47H8.3a2.07,2.07,0,0,0-1.2.39l.46.46a1.43,1.43,0,0,1,.74-.22Z"/><path class="cls-2" d="M12.26,15.46l-4.7-4.7a1.49,1.49,0,0,0-.45.45l4.7,4.7Z"/><path class="cls-2" d="M20.13,15.81l4.5-4.49a1.4,1.4,0,0,0-.41-.49l-4.54,4.53Z"/><path class="cls-2" d="M17.93,17.12a2.87,2.87,0,0,1-4,0l-1.2-1.21-.45.46,1.2,1.2a3.5,3.5,0,0,0,4.92,0l1.3-1.3-.45-.46Z"/><path class="cls-2" d="M24.67,10.38l-.45.45a1.4,1.4,0,0,1,.41.49l.47-.47A2.15,2.15,0,0,0,24.67,10.38Z"/><path class="cls-2" d="M7.56,10.76,7.1,10.3a2.4,2.4,0,0,0-.45.45l.46.46A1.49,1.49,0,0,1,7.56,10.76Z"/><path class="cls-2" d="M19.68,16.27,24,20.61a1.41,1.41,0,0,0,.49-.42l-4.38-4.38Z"/><path class="cls-2" d="M11.81,15.91,7.34,20.38a1.29,1.29,0,0,0,.58.33l4.34-4.34Z"/><path class="cls-2" d="M24,20.61l.47.47a2,2,0,0,0,.47-.44l-.45-.45A1.41,1.41,0,0,1,24,20.61Z"/><path class="cls-2" d="M7.92,20.71a1.29,1.29,0,0,1-.58-.33l-.45.46a1.91,1.91,0,0,0,.53.36Z"/><rect class="cls-2" x="19.36" y="15.5" width="0.64" height="0.64" transform="translate(-5.42 18.55) rotate(-45)"/><rect class="cls-2" x="11.94" y="15.59" width="0.64" height="0.64" transform="translate(-7.66 13.33) rotate(-45)"/></g></g></svg>