<svg xmlns="http://www.w3.org/2000/svg" viewBox="0 0 33.56 40"><defs><style>.cls-1{fill:#61bbb6;}</style></defs><g id="Layer_2" data-name="Layer 2"><g id="top_layer" data-name="top layer"><path class="cls-1" d="M16.78,40l-.2,0C.19,36.84,0,23.09,0,23V4l1.21.2C12.57,6,15.88,1.35,15.91,1.31L16.79,0l.86,1.31S21,6,32.35,4.15L33.56,4V23c0,.13-.19,13.67-16.57,17ZM2.08,6.39V23c0,.49.23,12.07,14.69,14.93,14.48-3.05,14.7-14.45,14.71-14.94V6.39c-8.82,1.17-13-1.45-14.7-3C15.12,4.94,10.9,7.56,2.08,6.39Z"/><path class="cls-1" d="M16.78,6.59S14.22,10.56,5,9.05V22.3S5,32,16.78,34.23Z"/></g></g></svg>