<svg xmlns="http://www.w3.org/2000/svg" viewBox="0 0 31.68 31.68"><defs><style>.cls-1{fill:#3a404c;}.cls-2{fill:#1f313f;}</style></defs><g id="Layer_2" data-name="Layer 2"><g id="content"><circle class="cls-1" cx="15.84" cy="15.84" r="15.84"/><path class="cls-2" d="M15.82,26.29,15.4,26c-.37-.26-9-6.45-9-11.34a5.7,5.7,0,0,1,9.47-4.29,5.7,5.7,0,0,1,9.47,4.29c0,5.3-8.69,11.11-9.06,11.36ZM12.08,10.45a4.21,4.21,0,0,0-4.2,4.2c0,3.23,5.4,7.9,8,9.81,2.57-1.8,8-6.3,8-9.81a4.2,4.2,0,0,0-7.39-2.73l-.57.67-.57-.67A4.22,4.22,0,0,0,12.08,10.45Z"/></g></g></svg>