<svg xmlns="http://www.w3.org/2000/svg" viewBox="0 0 107.29 40"><defs><style>.cls-1{fill:#88a80d;}</style></defs><g id="Layer_2" data-name="Layer 2"><g id="content"><circle class="cls-1" cx="14.1" cy="25.9" r="4.28"/><path class="cls-1" d="M25.16,17.14V11.06a11.06,11.06,0,1,0-22.11,0v6.08a14.11,14.11,0,1,0,22.11,0ZM14.1,3.14A7.92,7.92,0,0,1,22,11.06v3.16a14.09,14.09,0,0,0-15.82,0V11.06A7.92,7.92,0,0,1,14.1,3.14Zm0,32.73a10,10,0,1,1,10-10A10,10,0,0,1,14.1,35.87Z"/><path class="cls-1" d="M43.25,27.69l3.52-.47a7.74,7.74,0,0,0,2.06,4.31,5.07,5.07,0,0,0,3.54,1.31,5.69,5.69,0,0,0,4.19-1.71,5.81,5.81,0,0,0,1.71-4.26,5.42,5.42,0,0,0-1.58-4,5.51,5.51,0,0,0-4-1.57,10,10,0,0,0-2.48.39l.39-3.08.56,0a7.2,7.2,0,0,0,4-1.18A4,4,0,0,0,57,13.86a4.23,4.23,0,0,0-1.31-3.2,4.63,4.63,0,0,0-3.38-1.27,4.78,4.78,0,0,0-3.41,1.29,6.48,6.48,0,0,0-1.76,3.86l-3.52-.62a9.06,9.06,0,0,1,2.93-5.48A8.47,8.47,0,0,1,52.22,6.5a9.33,9.33,0,0,1,4.31,1,7.27,7.27,0,0,1,3,2.75,7,7,0,0,1,1.05,3.69,6.09,6.09,0,0,1-1,3.38,6.84,6.84,0,0,1-3,2.42,6.67,6.67,0,0,1,4,2.43A7.44,7.44,0,0,1,62,26.79a8.47,8.47,0,0,1-2.73,6.36,9.63,9.63,0,0,1-6.92,2.61,9,9,0,0,1-6.26-2.25A8.72,8.72,0,0,1,43.25,27.69Z"/><path class="cls-1" d="M71.29,19.72a6.57,6.57,0,0,1-3.24-2.29A5.9,5.9,0,0,1,67,13.88a6.94,6.94,0,0,1,2.25-5.25,8.33,8.33,0,0,1,6-2.13,8.39,8.39,0,0,1,6,2.17A7.07,7.07,0,0,1,83.53,14a5.78,5.78,0,0,1-1,3.46,6.53,6.53,0,0,1-3.17,2.28,7.74,7.74,0,0,1,4,2.77,7.61,7.61,0,0,1,1.38,4.57,8.25,8.25,0,0,1-2.6,6.18,9.47,9.47,0,0,1-6.84,2.5,9.43,9.43,0,0,1-6.83-2.51A8.37,8.37,0,0,1,65.84,27a7.53,7.53,0,0,1,1.42-4.68A7.06,7.06,0,0,1,71.29,19.72ZM69.45,27a6.32,6.32,0,0,0,.72,2.91,5,5,0,0,0,2.11,2.17,6.15,6.15,0,0,0,3,.77,5.67,5.67,0,0,0,4.16-1.62,5.51,5.51,0,0,0,1.64-4.12,5.64,5.64,0,0,0-1.69-4.2,5.79,5.79,0,0,0-4.22-1.66A5.59,5.59,0,0,0,69.45,27Zm1.14-13.23a4.45,4.45,0,0,0,1.3,3.32,4.65,4.65,0,0,0,3.4,1.29,4.5,4.5,0,0,0,3.33-1.28A4.2,4.2,0,0,0,79.92,14a4.35,4.35,0,0,0-1.34-3.25,4.55,4.55,0,0,0-3.33-1.32,4.61,4.61,0,0,0-3.34,1.29A4.15,4.15,0,0,0,70.59,13.76Z"/><path class="cls-1" d="M88.54,27.69l3.52-.47a7.74,7.74,0,0,0,2.06,4.31,5.07,5.07,0,0,0,3.54,1.31,5.69,5.69,0,0,0,4.19-1.71,5.81,5.81,0,0,0,1.71-4.26,5.38,5.38,0,0,0-1.58-4,5.48,5.48,0,0,0-4-1.57,10.07,10.07,0,0,0-2.48.39l.39-3.08.56,0a7.2,7.2,0,0,0,4-1.18,4,4,0,0,0,1.79-3.61,4.26,4.26,0,0,0-1.3-3.2,4.65,4.65,0,0,0-3.38-1.27,4.78,4.78,0,0,0-3.42,1.29,6.48,6.48,0,0,0-1.76,3.86l-3.51-.62a9,9,0,0,1,2.92-5.48A8.47,8.47,0,0,1,97.51,6.5a9.33,9.33,0,0,1,4.31,1,7.21,7.21,0,0,1,3,2.75,7,7,0,0,1,1,3.69,6,6,0,0,1-1,3.38,6.84,6.84,0,0,1-3,2.42,6.67,6.67,0,0,1,4,2.43,7.44,7.44,0,0,1,1.4,4.62,8.47,8.47,0,0,1-2.73,6.36,9.61,9.61,0,0,1-6.91,2.61,9,9,0,0,1-6.26-2.25A8.73,8.73,0,0,1,88.54,27.69Z"/></g></g></svg>