<svg xmlns="http://www.w3.org/2000/svg" viewBox="0 0 93.67 36.86"><defs><style>.cls-1{fill:#fbb03b;}</style></defs><g id="Layer_2" data-name="Layer 2"><g id="content"><path class="cls-1" d="M36.45,36.86H3.55a3.55,3.55,0,0,1-3-5.42L17,1.66,17,1.59a3.55,3.55,0,0,1,5.92,0l.09.15,16.42,29.7a3.55,3.55,0,0,1-3,5.42ZM5.12,32.39H34.88L20,5.47Z"/><circle class="cls-1" cx="20" cy="28.95" r="1.63"/><path class="cls-1" d="M22.78,17.43C22.78,19,20,26.26,20,26.26S17.22,19,17.22,17.43a2.78,2.78,0,0,1,5.56,0Z"/><path class="cls-1" d="M52.26,20.67a26.4,26.4,0,0,1,1-8.17,10.14,10.14,0,0,1,3.11-4.78A7.92,7.92,0,0,1,61.59,6a8.47,8.47,0,0,1,4,.93,7.74,7.74,0,0,1,2.87,2.68,14.42,14.42,0,0,1,1.77,4.25,28.28,28.28,0,0,1,.65,6.77,26.32,26.32,0,0,1-1,8.14,10.21,10.21,0,0,1-3.09,4.78,7.94,7.94,0,0,1-5.21,1.69,7.84,7.84,0,0,1-6.5-3Q52.26,28.74,52.26,20.67Zm3.61,0q0,7,1.65,9.39a4.72,4.72,0,0,0,8.15,0c1.1-1.57,1.65-4.69,1.65-9.38s-.55-7.84-1.65-9.39A4.93,4.93,0,0,0,61.55,9,4.51,4.51,0,0,0,57.69,11Q55.88,13.63,55.87,20.67Z"/><path class="cls-1" d="M74.92,27.23l3.52-.47a7.71,7.71,0,0,0,2.06,4.31A5.08,5.08,0,0,0,84,32.39a5.66,5.66,0,0,0,4.19-1.72,5.78,5.78,0,0,0,1.71-4.26,5.37,5.37,0,0,0-1.58-4,5.44,5.44,0,0,0-4-1.57,10.07,10.07,0,0,0-2.48.39l.39-3.09a4.41,4.41,0,0,0,.56,0,7.27,7.27,0,0,0,4-1.17,4,4,0,0,0,1.79-3.61,4.3,4.3,0,0,0-1.3-3.21A4.69,4.69,0,0,0,84,8.93a4.78,4.78,0,0,0-3.42,1.29,6.49,6.49,0,0,0-1.76,3.87l-3.52-.63A9,9,0,0,1,78.2,8,8.47,8.47,0,0,1,83.89,6a9.34,9.34,0,0,1,4.31,1,7.19,7.19,0,0,1,3,2.74,7,7,0,0,1,1,3.69,6.06,6.06,0,0,1-1,3.38,6.7,6.7,0,0,1-3,2.42,6.68,6.68,0,0,1,4,2.44,7.43,7.43,0,0,1,1.4,4.61,8.47,8.47,0,0,1-2.73,6.36A9.62,9.62,0,0,1,84,35.3a9,9,0,0,1-6.25-2.25A8.64,8.64,0,0,1,74.92,27.23Z"/></g></g></svg>