<svg xmlns="http://www.w3.org/2000/svg" viewBox="0 0 110.54 40"><defs><style>.cls-1{fill:#61bbb6;}</style></defs><g id="Layer_2" data-name="Layer 2"><g id="content"><path class="cls-1" d="M16.78,40l-.2,0C.19,36.84,0,23.09,0,23V4l1.21.2C12.57,6,15.88,1.35,15.91,1.31L16.79,0l.86,1.31S21,6,32.35,4.15L33.56,4V23c0,.13-.19,13.67-16.57,17ZM2.08,6.39V23c0,.49.23,12.07,14.69,14.93,14.48-3.05,14.7-14.45,14.71-14.94V6.39c-8.82,1.17-13-1.45-14.7-3C15.12,4.94,10.9,7.56,2.08,6.39Z"/><path class="cls-1" d="M16.78,6.59S14.22,10.56,5,9.05V22.3S5,32,16.78,34.23Z"/><path class="cls-1" d="M59.72,35.61H56.21V13.21a18.43,18.43,0,0,1-3.33,2.42,24.43,24.43,0,0,1-3.7,1.82v-3.4a21.61,21.61,0,0,0,5.15-3.36,13.43,13.43,0,0,0,3.13-3.83h2.26Z"/><path class="cls-1" d="M69.13,28.11l3.69-.31a6.6,6.6,0,0,0,1.9,4.05,5.17,5.17,0,0,0,3.61,1.36,5.62,5.62,0,0,0,4.29-1.91,7.23,7.23,0,0,0,1.76-5.08,6.51,6.51,0,0,0-1.69-4.75,5.89,5.89,0,0,0-4.42-1.74,6.16,6.16,0,0,0-3.07.77,6,6,0,0,0-2.15,2l-3.3-.43L72.52,7.37H86.76v3.36H75.34l-1.55,7.69a9.39,9.39,0,0,1,5.41-1.79,8.58,8.58,0,0,1,6.33,2.59,9.09,9.09,0,0,1,2.58,6.68,10.35,10.35,0,0,1-2.27,6.72,9.06,9.06,0,0,1-7.51,3.48A9.26,9.26,0,0,1,72,33.91,8.5,8.5,0,0,1,69.13,28.11Z"/><path class="cls-1" d="M91.79,28.05l3.52-.47a7.71,7.71,0,0,0,2.06,4.31,5.08,5.08,0,0,0,3.54,1.32,5.66,5.66,0,0,0,4.19-1.72,5.81,5.81,0,0,0,1.71-4.26,5.41,5.41,0,0,0-1.58-4,5.47,5.47,0,0,0-4-1.57,10.14,10.14,0,0,0-2.49.39l.4-3.09a4.41,4.41,0,0,0,.56,0,7.21,7.21,0,0,0,4-1.17,4,4,0,0,0,1.8-3.62,4.26,4.26,0,0,0-1.31-3.2,4.63,4.63,0,0,0-3.38-1.27A4.78,4.78,0,0,0,97.42,11a6.49,6.49,0,0,0-1.76,3.87l-3.52-.63A9.09,9.09,0,0,1,95.07,8.8a8.52,8.52,0,0,1,5.69-1.94,9.34,9.34,0,0,1,4.31,1,7.25,7.25,0,0,1,3,2.74,7,7,0,0,1,1,3.69,6.05,6.05,0,0,1-1,3.38,6.82,6.82,0,0,1-3,2.42,6.58,6.58,0,0,1,3.94,2.44,7.38,7.38,0,0,1,1.41,4.61,8.47,8.47,0,0,1-2.73,6.36,9.63,9.63,0,0,1-6.92,2.61,9,9,0,0,1-6.26-2.25A8.68,8.68,0,0,1,91.79,28.05Z"/></g></g></svg>