<svg xmlns="http://www.w3.org/2000/svg" viewBox="0 0 17.31 16.06"><defs><style>.cls-1{fill:#e6e6e6;}</style></defs><g id="Layer_2" data-name="Layer 2"><g id="top_layer" data-name="top layer"><circle class="cls-1" cx="8.67" cy="14.13" r="1.94"/><path class="cls-1" d="M5.56,11a.7.7,0,0,1-.5-1.2,5.09,5.09,0,0,1,7.18-.09.71.71,0,0,1,0,1,.72.72,0,0,1-1,0,3.68,3.68,0,0,0-5.2.06A.7.7,0,0,1,5.56,11Z"/><path class="cls-1" d="M3.5,7.84A.71.71,0,0,1,3,6.65a8,8,0,0,1,11.3-.14.7.7,0,1,1-1,1,6.54,6.54,0,0,0-4.6-1.87H8.64A6.53,6.53,0,0,0,4,7.63.71.71,0,0,1,3.5,7.84Z"/><path class="cls-1" d="M.7,4.8a.71.71,0,0,1-.49-.2.7.7,0,0,1,0-1A11.94,11.94,0,0,1,17.1,3.4a.7.7,0,0,1,0,1,.71.71,0,0,1-1,0A10.54,10.54,0,0,0,1.2,4.59.69.69,0,0,1,.7,4.8Z"/></g></g></svg>