<svg xmlns="http://www.w3.org/2000/svg" viewBox="0 0 92.96 33.89"><defs><style>.cls-1{fill:#cd3143;}</style></defs><g id="Layer_2" data-name="Layer 2"><g id="content"><path class="cls-1" d="M20,8.51A9.78,9.78,0,0,0,27.7,4.25,9.79,9.79,0,0,0,20,0a9.79,9.79,0,0,0-7.67,4.25A9.77,9.77,0,0,0,20,8.51Z"/><path class="cls-1" d="M36.24,25.7a17.37,17.37,0,0,0-4.14-3.27,19.4,19.4,0,0,0,.64-4.09,13,13,0,0,1,1.22.78,9,9,0,0,1,3,3.31,1.57,1.57,0,0,0,2.92-1.15c-.09-.24-1.65-4-7.31-6.53-.09-.66-.21-1.32-.36-1.95h0a18,18,0,0,0,4-3.21A16.51,16.51,0,0,0,40,3.35a1.58,1.58,0,0,0-3-.83,13.7,13.7,0,0,1-5.72,7.23,16.17,16.17,0,0,0-2.49-4A11.47,11.47,0,0,1,20,10a11.5,11.5,0,0,1-8.68-4.26A16.12,16.12,0,0,0,9.09,9.26a18.58,18.58,0,0,1-2.28-1.8A16.2,16.2,0,0,1,3,2.36,1.57,1.57,0,0,0,.11,3.52,19.1,19.1,0,0,0,4.55,9.65,20.47,20.47,0,0,0,8,12.26c0,.18-.1.36-.14.54a18.8,18.8,0,0,0-.42,2.42C2.26,17.62.33,20.85.21,21.06a1.58,1.58,0,0,0,.57,2.15,1.51,1.51,0,0,0,.79.21,1.57,1.57,0,0,0,1.36-.78A12.08,12.08,0,0,1,6.67,19.2l.67-.41A19.25,19.25,0,0,0,8.09,23a20.53,20.53,0,0,0-3.54,2.68,19.05,19.05,0,0,0-4.44,6.1,1.57,1.57,0,0,0,.88,2,1.51,1.51,0,0,0,.58.12A1.57,1.57,0,0,0,3,32.9a17,17,0,0,1,6.26-7c2.26,4.4,6.22,7.32,10.73,7.32,4.68,0,8.77-3.14,11-7.82a13.74,13.74,0,0,1,5.91,7.32,1.57,1.57,0,0,0,3-.82A16.36,16.36,0,0,0,36.24,25.7Z"/><path class="cls-1" d="M51.48,18.43a26.06,26.06,0,0,1,1.05-8.17,10.25,10.25,0,0,1,3.1-4.78A8,8,0,0,1,60.82,3.8a8.42,8.42,0,0,1,4,.93,7.66,7.66,0,0,1,2.87,2.68,14.12,14.12,0,0,1,1.78,4.26,28.13,28.13,0,0,1,.65,6.76,26.32,26.32,0,0,1-1,8.14A10.16,10.16,0,0,1,66,31.35,7.94,7.94,0,0,1,60.82,33a7.84,7.84,0,0,1-6.5-3Q51.49,26.5,51.48,18.43Zm3.62,0q0,7,1.65,9.39a4.71,4.71,0,0,0,8.14,0q1.65-2.34,1.65-9.38T64.89,9a4.9,4.9,0,0,0-4.11-2.33,4.53,4.53,0,0,0-3.87,2.06Q55.1,11.38,55.1,18.43Z"/><path class="cls-1" d="M79.54,17a6.63,6.63,0,0,1-3.24-2.29,6,6,0,0,1-1.06-3.55,7,7,0,0,1,2.25-5.26A9.44,9.44,0,0,1,89.5,6a7,7,0,0,1,2.29,5.31,5.81,5.81,0,0,1-1.05,3.46A6.54,6.54,0,0,1,87.57,17,7.3,7.3,0,0,1,93,24.37a8.22,8.22,0,0,1-2.6,6.17A9.42,9.42,0,0,1,83.53,33a9.39,9.39,0,0,1-6.84-2.51,8.35,8.35,0,0,1-2.6-6.26,7.5,7.5,0,0,1,1.42-4.67A7,7,0,0,1,79.54,17Zm-1.83,7.26a6.25,6.25,0,0,0,.71,2.91,5,5,0,0,0,2.12,2.18,6.09,6.09,0,0,0,3,.77,5.67,5.67,0,0,0,4.16-1.62,5.52,5.52,0,0,0,1.65-4.12,5.67,5.67,0,0,0-1.69-4.2,5.79,5.79,0,0,0-4.23-1.66,5.59,5.59,0,0,0-5.74,5.74Zm1.13-13.22a4.44,4.44,0,0,0,1.31,3.32,4.62,4.62,0,0,0,3.4,1.29,4.57,4.57,0,0,0,3.33-1.28,4.24,4.24,0,0,0,1.29-3.13A4.4,4.4,0,0,0,86.84,8,4.57,4.57,0,0,0,83.51,6.7,4.63,4.63,0,0,0,80.17,8,4.14,4.14,0,0,0,78.84,11.07Z"/></g></g></svg>