<svg xmlns="http://www.w3.org/2000/svg" viewBox="0 0 389.96 125.68"><defs><style>.cls-1{fill:none;stroke:#6b7079;stroke-miterlimit:10;}.cls-2{fill:#cd3143;}.cls-2,.cls-3,.cls-4,.cls-5{opacity:0.5;}.cls-3{fill:#fbae17;}.cls-4{fill:#61bbb6;}.cls-5{fill:#88a80d;}</style></defs><g id="Layer_2" data-name="Layer 2"><g id="content"><line class="cls-1" x1="389.96" y1="12.55" y2="12.55"/><line class="cls-1" x1="389.96" y1="45.78" y2="45.78"/><line class="cls-1" x1="389.96" y1="80.18" y2="80.18"/><line class="cls-1" x1="389.96" y1="113.41" y2="113.41"/><circle class="cls-2" cx="74.25" cy="12.55" r="12.55"/><circle class="cls-2" cx="85.42" cy="12.55" r="12.55"/><circle class="cls-2" cx="31.35" cy="12.55" r="12.55"/><circle class="cls-2" cx="229.89" cy="12.55" r="12.55"/><circle class="cls-2" cx="246.47" cy="12.55" r="12.55"/><circle class="cls-2" cx="275.74" cy="12.55" r="12.55"/><circle class="cls-2" cx="345.89" cy="12.55" r="12.55"/><circle class="cls-2" cx="333.34" cy="12.55" r="12.55"/><circle class="cls-2" cx="373.92" cy="12.55" r="12.55"/><circle class="cls-2" cx="304.29" cy="12.55" r="12.55"/><circle class="cls-2" cx="269.26" cy="12.55" r="12.55"/><circle class="cls-2" cx="309.03" cy="12.55" r="12.55"/><circle class="cls-2" cx="346.69" cy="12.55" r="12.55"/><circle class="cls-2" cx="326.28" cy="12.55" r="12.55"/><circle class="cls-3" cx="20.18" cy="45.38" r="12.55"/><circle class="cls-3" cx="31.35" cy="45.38" r="12.55"/><circle class="cls-3" cx="67.18" cy="45.38" r="12.55"/><circle class="cls-3" cx="36.58" cy="45.38" r="12.55"/><circle class="cls-3" cx="53.89" cy="45.38" r="12.55"/><circle class="cls-3" cx="316.1" cy="45.38" r="12.55"/><circle class="cls-3" cx="66.09" cy="45.38" r="12.55"/><circle class="cls-3" cx="328.65" cy="45.38" r="12.55"/><circle class="cls-3" cx="233.92" cy="45.38" r="12.55"/><circle class="cls-3" cx="32.2" cy="45.38" r="12.55"/><circle class="cls-3" cx="226.08" cy="45.38" r="12.55"/><circle class="cls-3" cx="77.26" cy="45.38" r="12.55"/><circle class="cls-3" cx="124.71" cy="45.38" r="12.55"/><circle class="cls-3" cx="99.71" cy="45.38" r="12.55"/><circle class="cls-3" cx="351.66" cy="45.38" r="12.55"/><circle class="cls-4" cx="20.18" cy="80.14" r="12.55"/><circle class="cls-4" cx="257.68" cy="80.14" r="12.55"/><circle class="cls-4" cx="47.29" cy="80.14" r="12.55"/><circle class="cls-4" cx="219.35" cy="80.14" r="12.55"/><circle class="cls-4" cx="173.81" cy="80.14" r="12.55"/><circle class="cls-4" cx="317.34" cy="80.14" r="12.55"/><circle class="cls-4" cx="358.78" cy="80.14" r="12.55"/><circle class="cls-4" cx="295.26" cy="80.14" r="12.55"/><circle class="cls-4" cx="133.4" cy="80.14" r="12.55"/><circle class="cls-5" cx="339.1" cy="113.12" r="12.55"/><circle class="cls-5" cx="268.46" cy="113.12" r="12.55"/><circle class="cls-5" cx="288.29" cy="113.12" r="12.55"/><circle class="cls-5" cx="31.35" cy="113.12" r="12.55"/><circle class="cls-5" cx="334.83" cy="113.12" r="12.55"/><circle class="cls-5" cx="289.3" cy="113.12" r="12.55"/><circle class="cls-5" cx="173.81" cy="113.12" r="12.55"/><circle class="cls-5" cx="362.05" cy="113.12" r="12.55"/><circle class="cls-5" cx="164.73" cy="113.12" r="12.55"/><circle class="cls-5" cx="48.1" cy="113.12" r="12.55"/><circle class="cls-5" cx="239.64" cy="113.12" r="12.55"/></g></g></svg>