<svg xmlns="http://www.w3.org/2000/svg" viewBox="0 0 16.23 16.23"><defs><style>.cls-1{fill:#a5b7d9;}</style></defs><g id="Layer_2" data-name="Layer 2"><g id="content"><path class="cls-1" d="M13.69,0H2.54A2.54,2.54,0,0,0,0,2.54V13.69a2.54,2.54,0,0,0,2.54,2.54H13.69a2.54,2.54,0,0,0,2.54-2.54V2.54ZM10.91,12.12a.51.51,0,0,1-.5.5H2.94a.5.5,0,0,1-.5-.5v-.55a.5.5,0,0,1,.5-.5h7.47a.5.5,0,0,1,.5.5Zm2.84-2.76a.58.58,0,0,1-.58.58H3a.58.58,0,0,1-.57-.58V9A.58.58,0,0,1,3,8.39H13.17a.58.58,0,0,1,.58.57Zm0-2.57a.58.58,0,0,1-.58.57H3a.58.58,0,0,1-.57-.57v-.4A.58.58,0,0,1,3,5.81H13.17a.58.58,0,0,1,.58.58Zm0-2.68a.58.58,0,0,1-.58.58H3a.58.58,0,0,1-.57-.58v-.4A.58.58,0,0,1,3,3.13H13.17a.58.58,0,0,1,.58.58Z"/></g></g></svg>