<svg xmlns="http://www.w3.org/2000/svg" viewBox="0 0 28.21 40"><defs><style>.cls-1{fill:#88a80d;}</style></defs><g id="Layer_2" data-name="Layer 2"><g id="top_layer" data-name="top layer"><circle class="cls-1" cx="14.1" cy="25.9" r="4.28"/><path class="cls-1" d="M25.16,17.14V11.06a11.06,11.06,0,1,0-22.11,0v6.08a14.11,14.11,0,1,0,22.11,0ZM14.1,3.14A7.92,7.92,0,0,1,22,11.06v3.16a14.09,14.09,0,0,0-15.82,0V11.06A7.92,7.92,0,0,1,14.1,3.14Zm0,32.73a10,10,0,1,1,10-10A10,10,0,0,1,14.1,35.87Z"/></g></g></svg>