<svg xmlns="http://www.w3.org/2000/svg" viewBox="0 0 40 33.89"><defs><style>.cls-1{fill:#cd3143;}</style></defs><g id="Layer_2" data-name="Layer 2"><g id="top_layer" data-name="top layer"><path class="cls-1" d="M20,8.51A9.78,9.78,0,0,0,27.7,4.25,9.79,9.79,0,0,0,20,0a9.79,9.79,0,0,0-7.67,4.25A9.77,9.77,0,0,0,20,8.51Z"/><path class="cls-1" d="M36.24,25.7a17.37,17.37,0,0,0-4.14-3.27,19.4,19.4,0,0,0,.64-4.09,13,13,0,0,1,1.22.78,9,9,0,0,1,3,3.31,1.57,1.57,0,0,0,2.92-1.15c-.09-.24-1.65-4-7.31-6.53-.09-.66-.21-1.32-.36-1.95h0a18,18,0,0,0,4-3.21A16.51,16.51,0,0,0,40,3.35a1.58,1.58,0,0,0-3-.83,13.7,13.7,0,0,1-5.72,7.23,16.17,16.17,0,0,0-2.49-4A11.47,11.47,0,0,1,20,10a11.5,11.5,0,0,1-8.68-4.26A16.12,16.12,0,0,0,9.09,9.26a18.58,18.58,0,0,1-2.28-1.8A16.2,16.2,0,0,1,3,2.36,1.57,1.57,0,0,0,.11,3.52,19.1,19.1,0,0,0,4.55,9.65,20.47,20.47,0,0,0,8,12.26c0,.18-.1.36-.14.54a18.8,18.8,0,0,0-.42,2.42C2.26,17.62.33,20.85.21,21.06a1.58,1.58,0,0,0,.57,2.15,1.51,1.51,0,0,0,.79.21,1.57,1.57,0,0,0,1.36-.78A12.08,12.08,0,0,1,6.67,19.2l.67-.41A19.25,19.25,0,0,0,8.09,23a20.53,20.53,0,0,0-3.54,2.68,19.05,19.05,0,0,0-4.44,6.1,1.57,1.57,0,0,0,.88,2,1.51,1.51,0,0,0,.58.12A1.57,1.57,0,0,0,3,32.9a17,17,0,0,1,6.26-7c2.26,4.4,6.22,7.32,10.73,7.32,4.68,0,8.77-3.14,11-7.82a13.74,13.74,0,0,1,5.91,7.32,1.57,1.57,0,0,0,3-.82A16.36,16.36,0,0,0,36.24,25.7Z"/></g></g></svg>