<svg xmlns="http://www.w3.org/2000/svg" viewBox="0 0 917.8 924.67"><defs><style>.cls-1{opacity:0.15;}.cls-2,.cls-3{fill:#29abe2;}.cls-2{opacity:0.25;}.cls-3{opacity:0.75;}</style></defs><g id="Layer_2" data-name="Layer 2"><g id="top_layer" data-name="top layer"><g class="cls-1"><polygon class="cls-2" points="335.78 753.37 335.67 779.14 335.77 804.9 313.4 817.69 291.14 830.67 268.88 817.69 246.51 804.9 246.62 779.13 246.52 753.36 268.88 740.57 291.14 727.6 313.41 740.58 335.78 753.37"/><polygon class="cls-3" points="240.26 753.37 240.16 779.14 240.26 804.9 217.89 817.69 195.63 830.67 173.37 817.69 151 804.9 151.11 779.13 151.01 753.36 173.37 740.57 195.63 727.6 217.9 740.58 240.26 753.37"/><polygon class="cls-2" points="190.1 665.24 190 691.01 190.09 716.78 167.73 729.57 145.47 742.54 123.21 729.57 100.84 716.77 100.94 691 100.84 665.24 123.21 652.44 145.47 639.47 167.73 652.45 190.1 665.24"/><polygon class="cls-3" points="144.75 753.37 144.65 779.14 144.75 804.9 122.38 817.69 100.12 830.67 77.85 817.69 55.48 804.9 55.59 779.13 55.5 753.36 77.86 740.57 100.12 727.6 122.38 740.58 144.75 753.37"/><polygon class="cls-2" points="89.27 496.38 89.16 522.15 89.26 547.91 66.89 560.7 44.63 573.68 22.37 560.7 0 547.91 0.11 522.14 0.01 496.37 22.37 483.58 44.63 470.61 66.89 483.59 89.27 496.38"/><polygon class="cls-3" points="140.63 579.35 140.52 605.12 140.62 630.89 118.25 643.68 96 656.65 73.73 643.67 51.36 630.88 51.47 605.11 51.37 579.34 73.73 566.55 96 553.58 118.26 566.56 140.63 579.35"/><polygon class="cls-3" points="238.2 577.98 238.1 603.74 238.19 629.51 215.83 642.3 193.57 655.28 171.3 642.3 148.94 629.5 149.04 603.74 148.94 577.97 171.31 565.18 193.57 552.21 215.83 565.18 238.2 577.98"/><polygon class="cls-3" points="286.99 665.42 286.88 691.18 286.98 716.95 264.62 729.74 242.35 742.72 220.09 729.74 197.72 716.94 197.83 691.18 197.73 665.41 220.09 652.62 242.36 639.64 264.62 652.62 286.99 665.42"/></g><g class="cls-1"><polygon class="cls-2" points="350.13 919.66 327.8 906.81 305.37 894.13 305.33 868.37 305.08 842.6 327.38 829.69 349.57 816.59 371.91 829.45 394.34 842.12 394.38 867.88 394.63 893.65 372.32 906.56 350.13 919.66"/><polygon class="cls-3" points="397.44 836.68 375.1 823.83 352.67 811.16 352.63 785.39 352.38 759.63 374.68 746.71 396.88 733.62 419.21 746.47 441.64 759.14 441.68 784.91 441.93 810.67 419.63 823.59 397.44 836.68"/><polygon class="cls-2" points="498.84 836.75 476.5 823.9 454.07 811.22 454.03 785.46 453.79 759.69 476.08 746.78 498.28 733.68 520.61 746.53 543.04 759.21 543.08 784.97 543.33 810.74 521.03 823.65 498.84 836.75"/><polygon class="cls-3" points="444.74 753.71 422.4 740.85 399.97 728.18 399.93 702.42 399.68 676.65 421.99 663.73 444.18 650.64 466.51 663.49 488.95 676.17 488.98 701.93 489.23 727.7 466.93 740.61 444.74 753.71"/><polygon class="cls-3" points="597.96 836.31 575.62 823.45 553.19 810.78 553.15 785.01 552.9 759.25 575.21 746.33 597.4 733.24 619.73 746.09 642.17 758.77 642.2 784.53 642.45 810.29 620.15 823.21 597.96 836.31"/><polygon class="cls-3" points="550.83 921.75 528.5 908.9 506.06 896.23 506.03 870.46 505.78 844.7 528.08 831.78 550.27 818.68 572.61 831.54 595.04 844.21 595.08 869.98 595.32 895.74 573.02 908.65 550.83 921.75"/><polygon class="cls-3" points="450.7 920.84 428.37 907.98 405.94 895.31 405.9 869.54 405.65 843.78 427.95 830.86 450.15 817.77 472.48 830.62 494.92 843.29 494.95 869.06 495.2 894.82 472.9 907.74 450.7 920.84"/></g><g class="cls-1"><polygon class="cls-2" points="907.86 847.37 907.75 873.14 907.85 898.91 885.49 911.7 863.22 924.67 840.96 911.7 818.59 898.9 818.7 873.13 818.6 847.36 840.96 834.57 863.23 821.6 885.49 834.58 907.86 847.37"/><polygon class="cls-3" points="812.35 847.37 812.24 873.14 812.34 898.91 789.98 911.7 767.71 924.67 745.45 911.7 723.08 898.9 723.19 873.13 723.09 847.36 745.45 834.57 767.72 821.6 789.98 834.58 812.35 847.37"/><polygon class="cls-2" points="762.18 759.25 762.08 785.01 762.17 810.78 739.81 823.57 717.55 836.55 695.29 823.57 672.92 810.77 673.02 785.01 672.93 759.24 695.29 746.45 717.55 733.48 739.82 746.45 762.18 759.25"/><polygon class="cls-3" points="716.83 847.37 716.73 873.14 716.83 898.91 694.46 911.7 672.2 924.67 649.93 911.7 627.57 898.9 627.67 873.13 627.58 847.36 649.94 834.57 672.2 821.6 694.47 834.58 716.83 847.37"/><polygon class="cls-2" points="661.35 590.38 661.24 616.15 661.34 641.92 638.97 654.71 616.71 667.68 594.45 654.71 572.08 641.91 572.19 616.14 572.09 590.38 594.45 577.58 616.71 564.61 638.98 577.59 661.35 590.38"/><polygon class="cls-3" points="712.71 673.35 712.6 699.12 712.7 724.89 690.34 737.68 668.08 750.65 645.81 737.68 623.45 724.88 623.55 699.11 623.45 673.35 645.82 660.55 668.08 647.58 690.34 660.56 712.71 673.35"/><polygon class="cls-3" points="810.29 671.98 810.18 697.75 810.27 723.51 787.91 736.3 765.65 749.28 743.38 736.3 721.02 723.5 721.13 697.74 721.03 671.97 743.39 659.18 765.65 646.21 787.91 659.19 810.29 671.98"/><polygon class="cls-3" points="859.07 759.42 858.96 785.18 859.06 810.95 836.7 823.74 814.44 836.72 792.17 823.74 769.81 810.94 769.91 785.18 769.81 759.41 792.18 746.62 814.44 733.65 836.7 746.63 859.07 759.42"/></g><g class="cls-1"><polygon class="cls-2" points="914.05 416.83 904.45 433.52 894.97 450.29 875.72 450.32 856.46 450.5 846.81 433.84 837.02 417.25 846.63 400.56 856.1 383.79 875.36 383.76 894.61 383.58 904.26 400.25 914.05 416.83"/><polygon class="cls-3" points="852.04 367.36 842.43 384.05 832.96 400.81 813.7 400.84 794.45 401.03 784.79 384.36 775 367.77 784.61 351.08 794.09 334.31 813.34 334.29 832.6 334.11 842.25 350.77 852.04 367.36"/><polygon class="cls-2" points="852.09 290.86 842.48 307.55 833 324.32 813.75 324.35 794.49 324.53 784.84 307.87 775.05 291.28 784.66 274.58 794.13 257.82 813.39 257.79 832.65 257.61 842.3 274.27 852.09 290.86"/><polygon class="cls-3" points="790.02 332 780.41 348.7 770.94 365.46 751.69 365.49 732.43 365.68 722.78 349.01 712.99 332.42 722.6 315.73 732.07 298.96 751.33 298.94 770.58 298.75 780.23 315.42 790.02 332"/><polygon class="cls-3" points="851.75 217.49 842.15 234.18 832.67 250.95 813.42 250.97 794.16 251.16 784.51 234.49 774.72 217.91 784.33 201.22 793.8 184.45 813.06 184.42 832.31 184.24 841.97 200.91 851.75 217.49"/><polygon class="cls-3" points="915.62 252.71 906.01 269.4 896.54 286.17 877.28 286.2 858.02 286.38 848.37 269.71 838.58 253.13 848.19 236.44 857.66 219.67 876.92 219.64 896.18 219.46 905.83 236.13 915.62 252.71"/><polygon class="cls-3" points="914.93 327.55 905.32 344.24 895.85 361 876.59 361.03 857.34 361.21 847.69 344.55 837.9 327.96 847.5 311.27 856.98 294.5 876.23 294.48 895.49 294.29 905.14 310.96 914.93 327.55"/><polygon class="cls-3" points="789.05 254.42 779.44 271.11 769.97 287.87 750.71 287.9 731.45 288.09 721.8 271.42 712.01 254.83 721.62 238.14 731.09 221.37 750.35 221.35 769.6 221.16 779.25 237.83 789.05 254.42"/></g><g class="cls-1"><polygon class="cls-2" points="860.02 0 879.28 0.08 898.54 0.01 908.1 16.72 917.8 33.36 908.1 50 898.53 66.72 879.28 66.64 860.02 66.71 850.46 50 840.76 33.36 850.46 16.72 860.02 0"/><polygon class="cls-3" points="860.02 71.39 879.28 71.46 898.54 71.39 908.1 88.1 917.8 104.74 908.1 121.38 898.53 138.1 879.28 138.02 860.02 138.09 850.46 121.38 840.76 104.74 850.46 88.1 860.02 71.39"/><polygon class="cls-3" points="860.02 145.77 879.28 145.85 898.54 145.78 908.1 162.49 917.8 179.13 908.1 195.77 898.53 212.49 879.28 212.41 860.02 212.48 850.46 195.76 840.76 179.13 850.46 162.49 860.02 145.77"/><polygon class="cls-2" points="794.16 108.87 813.42 108.95 832.68 108.88 842.24 125.6 851.93 142.23 842.24 158.87 832.67 175.59 813.41 175.51 794.16 175.58 784.6 158.87 774.9 142.23 784.6 125.59 794.16 108.87"/><polygon class="cls-2" points="667.96 184.24 687.22 184.32 706.47 184.24 716.03 200.96 725.73 217.6 716.03 234.24 706.47 250.95 687.21 250.87 667.95 250.95 658.39 234.23 648.69 217.6 658.39 200.96 667.96 184.24"/><polygon class="cls-3" points="729.97 145.85 749.23 145.93 768.48 145.85 778.04 162.57 787.74 179.21 778.04 195.85 768.48 212.56 749.22 212.49 729.96 212.56 720.4 195.85 710.71 179.21 720.41 162.57 729.97 145.85"/><polygon class="cls-3" points="728.94 72.92 748.2 73 767.46 72.93 777.01 89.65 786.71 106.28 777.01 122.93 767.45 139.64 748.19 139.56 728.93 139.63 719.37 122.92 709.68 106.28 719.38 89.64 728.94 72.92"/><polygon class="cls-3" points="794.29 36.46 813.55 36.54 832.81 36.47 842.37 53.18 852.06 69.82 842.36 86.46 832.8 103.18 813.54 103.1 794.28 103.17 784.72 86.46 775.03 69.82 784.73 53.18 794.29 36.46"/></g></g></g></svg>