<svg xmlns="http://www.w3.org/2000/svg" viewBox="0 0 524.95 472.45"><defs><style>.cls-1{fill:#01e2c1;}.cls-1,.cls-4{stroke:#282c3d;}.cls-1,.cls-2,.cls-3,.cls-4,.cls-5{stroke-miterlimit:10;}.cls-1,.cls-5{stroke-width:6.38px;}.cls-2,.cls-5{fill:#282c3d;}.cls-2,.cls-3,.cls-5{stroke:#01e2c1;}.cls-2,.cls-3{stroke-linecap:round;stroke-width:12.75px;}.cls-3{fill:none;}.cls-4,.cls-6{fill:#fff;}.cls-4{stroke-width:3.74px;}</style></defs><title>Asset 2fulafun-url</title><g id="Layer_2" data-name="Layer 2"><g id="Layer_1-2" data-name="Layer 1"><path class="cls-1" d="M254.35,289.7a12.21,12.21,0,0,0-15.78,3.37c-37.08,48.59-35.55,105.49.73,148.41-16,1.13-35.91,7.54-34.2,19.25,2.62,18,56.85,2,56.85,2s4.3-4.08,3.6-9.33S261,443.8,261,443.8c-37.92-43.19-39.39-102.49-3.24-136.51C262.94,302.44,260.64,293.43,254.35,289.7Z"/><path class="cls-1" d="M176,280.85a12.22,12.22,0,0,0-15.78,3.36c-37.07,48.59-35.55,105.49.74,148.42-16.05,1.13-35.91,7.54-34.21,19.24,2.63,18,56.86,2,56.86,2s4.3-4.08,3.6-9.33-4.54-9.57-4.54-9.57c-37.91-43.18-39.38-102.48-3.23-136.5C184.58,293.58,182.28,284.58,176,280.85Z"/><path class="cls-1" d="M77.92,340.82a20,20,0,0,0-16,7.68,64.41,64.41,0,0,1,11.87-74.9,7.19,7.19,0,0,0-10.15-10.18,78.75,78.75,0,0,0-.15,111.37,7.25,7.25,0,0,0,1.89,1.36,19.85,19.85,0,1,0,12.55-35.33Z"/><path class="cls-2" d="M44.27,276.41c3.94,23.7,24.12,41,47,39.33a42,42,0,0,0,23.28-9.17,58.45,58.45,0,0,0,69.61-.5,59.15,59.15,0,0,0,41,12.8c20.63-1.49,38.09-13.66,48.05-31.1a59.4,59.4,0,0,0,43.52,14.91c22-1.59,40.4-15.32,49.94-34.65a42,42,0,0,0,23.71,5.36c24.41-1.76,42.67-24.32,40.79-50.4a48.59,48.59,0,0,0-18-34.69,49.62,49.62,0,0,0,4.7-25.07c-1.86-25.66-22.52-45.14-46.43-44.08a50.24,50.24,0,0,0,.52-11.74c-1.88-26.07-23.19-45.79-47.6-44a41.75,41.75,0,0,0-15.15,4.05C306.74,42,285.76,23,261.78,24.75a41.54,41.54,0,0,0-14.09,3.57c-12.27-14.56-30.43-23.21-50-21.79C177,8,159.49,20.34,149.67,38a41.76,41.76,0,0,0-20.32-3.65c-20,1.44-35.93,16.92-39.94,36.85a41.85,41.85,0,0,0-20.5-3.73c-24.4,1.76-42.66,24.33-40.78,50.4.11,1.57.3,3.11.55,4.63A63.53,63.53,0,0,0,9.26,173.52a65.4,65.4,0,0,0,7.26,25.69,48.91,48.91,0,0,0-10,33.64C8.13,255.35,24.22,273.09,44.27,276.41Z"/><path class="cls-2" d="M131.52,294.09c3.94,23.7,24.12,41,47,39.33a42.05,42.05,0,0,0,23.28-9.17,58.45,58.45,0,0,0,69.61-.5,59.2,59.2,0,0,0,41,12.8c20.63-1.49,38.09-13.66,48.05-31.1A59.44,59.44,0,0,0,404,320.35c22-1.58,40.4-15.31,49.94-34.64a42,42,0,0,0,23.71,5.36c24.41-1.76,42.67-24.32,40.79-50.4a48.59,48.59,0,0,0-18-34.69,49.64,49.64,0,0,0,4.7-25.08c-1.86-25.65-22.52-45.13-46.43-44.08a50.15,50.15,0,0,0,.52-11.73c-1.88-26.08-23.19-45.79-47.6-44a41.74,41.74,0,0,0-15.15,4C394,59.71,373,40.7,349,42.43A41.54,41.54,0,0,0,334.94,46c-12.27-14.57-30.43-23.21-50-21.8-20.69,1.5-38.16,13.82-48,31.44A41.88,41.88,0,0,0,216.6,52c-20,1.45-35.93,16.93-39.94,36.86a41.74,41.74,0,0,0-20.5-3.73c-24.4,1.76-42.66,24.32-40.78,50.4.11,1.57.3,3.11.55,4.63A63.53,63.53,0,0,0,96.51,191.2a65.4,65.4,0,0,0,7.26,25.69,48.91,48.91,0,0,0-10,33.64C95.38,273,111.47,290.77,131.52,294.09Z"/><path class="cls-2" d="M427.07,176a49.61,49.61,0,0,0-48-42.51c0-.16,0-.32-.06-.49a49.58,49.58,0,0,0-56.15-42"/><path class="cls-3" d="M175.91,122.77a40.58,40.58,0,0,1,56.61,9.39"/><path class="cls-2" d="M426.57,227.72a40.58,40.58,0,0,1-17.72,54.58"/><path class="cls-4" d="M228.94,72.19c4.12,8.33-12.95,15.11-22.56,12.27S223.53,61.8,228.94,72.19Z"/><path class="cls-4" d="M265.6,306.49c4.12,8.33-13,15.11-22.57,12.27S260.19,296.1,265.6,306.49Z"/><path class="cls-4" d="M137.85,50c4.12,8.34-12.95,15.12-22.56,12.27S132.44,39.61,137.85,50Z"/><path class="cls-4" d="M136.43,124.42c4.92,2,.15,11.37-5.05,13.78S130.2,122,136.43,124.42Z"/><path class="cls-4" d="M408.21,179.46c-5.21,5.62-15.43-5.55-16-13.79S414.63,172.26,408.21,179.46Z"/><path class="cls-4" d="M485.67,182.44c7.62.79,4.84,15.66-1.37,21.12S476.05,181.65,485.67,182.44Z"/><path class="cls-4" d="M41.72,260.58c-4.22,3.23-9.88-5.6-9.34-11.3S47,256.42,41.72,260.58Z"/><path class="cls-4" d="M196.61,189.59a39.91,39.91,0,0,1,17.92,3.85,38.75,38.75,0,0,0,5.28-20.52c-.22-17.5-10.85-31.55-23.76-31.39s-23.19,14.47-23,32a38.86,38.86,0,0,0,5.77,20.35A39.88,39.88,0,0,1,196.61,189.59Z"/><path class="cls-4" d="M60.57,181.27a40,40,0,0,1,16.48,3.21,38.22,38.22,0,0,0,6-21.68c-.22-17.5-10.85-31.55-23.76-31.39s-23.19,14.47-23,32a38.09,38.09,0,0,0,6.87,22A39.91,39.91,0,0,1,60.57,181.27Z"/><path class="cls-5" d="M123.37,268.36C95.42,266,74.2,247.3,76,226.69s103-11.92,101.21,8.69S151.32,270.76,123.37,268.36Z"/><path class="cls-6" d="M89.36,219.63c8.74,6.81,20.76,11.36,34.24,12.09,13.3.72,25.6-2.41,35-8.1-10.92-3.38-22.42-5-34.92-5.81C112.29,217.11,98.12,217,89.36,219.63Z"/><path class="cls-3" d="M19.86,117.08a40.58,40.58,0,0,1,57.36,1.57"/><path class="cls-1" d="M306.46,356a20,20,0,0,1,16,7.67,64.41,64.41,0,0,0-11.87-74.9,7.19,7.19,0,0,1,10.15-10.18,78.75,78.75,0,0,1,.15,111.37,7.13,7.13,0,0,1-1.9,1.36A19.85,19.85,0,1,1,306.46,356Z"/></g></g></svg>