<svg xmlns="http://www.w3.org/2000/svg" viewBox="0 0 366.29 483.35"><defs><style>.cls-1{fill:#01e2c1;}.cls-2{fill:#ce5628;}.cls-3{fill:#363e5a;}</style></defs><title>Asset 2</title><g id="Layer_2" data-name="Layer 2"><g id="Layer_1-2" data-name="Layer 1"><path class="cls-1" d="M0,411.56,19.79,360h7.35l21.09,51.54H40.46l-6-15.61H12.9L7.24,411.56ZM14.87,390.4H32.34L27,376.13q-2.46-6.51-3.65-10.69a65.45,65.45,0,0,1-2.78,9.84Z"/><path class="cls-1" d="M72.09,405.9l.92,5.59a23.29,23.29,0,0,1-4.79.57A10.91,10.91,0,0,1,62.88,411a6.09,6.09,0,0,1-2.67-2.87c-.52-1.18-.77-3.67-.77-7.47V379.15H54.79v-4.92h4.65V365l6.29-3.79v13h6.36v4.92H65.73V401a11.1,11.1,0,0,0,.33,3.48,2.6,2.6,0,0,0,1.09,1.23,4.18,4.18,0,0,0,2.16.46A19.72,19.72,0,0,0,72.09,405.9Z"/><path class="cls-1" d="M97.5,405.9l.91,5.59a23.21,23.21,0,0,1-4.78.57A10.93,10.93,0,0,1,88.28,411a6.19,6.19,0,0,1-2.67-2.87q-.77-1.77-.77-7.47V379.15H80.2v-4.92h4.64V365l6.29-3.79v13H97.5v4.92H91.13V401a10.69,10.69,0,0,0,.34,3.48,2.55,2.55,0,0,0,1.09,1.23,4.13,4.13,0,0,0,2.16.46A19.84,19.84,0,0,0,97.5,405.9Z"/><path class="cls-1" d="M134.64,399.54l6.54.81a15.93,15.93,0,0,1-5.73,8.89,17.23,17.23,0,0,1-10.69,3.17q-8.19,0-13-5.05T107,393.21q0-9.42,4.86-14.62a16.4,16.4,0,0,1,12.58-5.21,16,16,0,0,1,12.24,5.1q4.74,5.1,4.74,14.35,0,.56,0,1.68H113.51q.36,6.15,3.48,9.43a10.4,10.4,0,0,0,7.81,3.26,9.67,9.67,0,0,0,5.94-1.82A12.16,12.16,0,0,0,134.64,399.54Zm-20.78-10.23h20.85q-.42-4.71-2.39-7.07a9.71,9.71,0,0,0-7.84-3.65,10,10,0,0,0-7.33,2.92A11.57,11.57,0,0,0,113.86,389.31Z"/><path class="cls-1" d="M154.53,411.56V374.23h5.66v5.24a13.38,13.38,0,0,1,4.67-4.42,13.19,13.19,0,0,1,6.65-1.67,12.27,12.27,0,0,1,6.8,1.73,9.18,9.18,0,0,1,3.74,4.81q4.44-6.54,11.53-6.54,5.56,0,8.55,3.08t3,9.48v25.62h-6.3V388a17.3,17.3,0,0,0-.61-5.46,5.3,5.3,0,0,0-2.23-2.69,7,7,0,0,0-3.8-1,8.81,8.81,0,0,0-6.54,2.62c-1.74,1.74-2.6,4.54-2.6,8.38v21.69h-6.33V387.31q0-4.23-1.55-6.33t-5.06-2.11a9.26,9.26,0,0,0-4.94,1.4,8,8,0,0,0-3.29,4.12,23.09,23.09,0,0,0-1,7.8v19.37Z"/><path class="cls-1" d="M219.9,425.87V374.23h5.77v4.85a14.2,14.2,0,0,1,4.6-4.27,12.67,12.67,0,0,1,6.23-1.43,14.74,14.74,0,0,1,8.43,2.47,15.05,15.05,0,0,1,5.52,6.94,26.8,26.8,0,0,1-.19,20.14A15.67,15.67,0,0,1,236,412.41a11.94,11.94,0,0,1-5.68-1.34,13,13,0,0,1-4.13-3.37v18.17Zm5.73-32.76q0,7.2,2.92,10.65a8.94,8.94,0,0,0,7.07,3.44,9.13,9.13,0,0,0,7.22-3.56q3-3.57,3-11.06,0-7.14-2.94-10.69a8.81,8.81,0,0,0-7-3.55c-2.7,0-5.08,1.26-7.16,3.78S225.63,388.3,225.63,393.11Z"/><path class="cls-1" d="M279.16,405.9l.92,5.59a23.21,23.21,0,0,1-4.78.57A10.93,10.93,0,0,1,270,411a6.19,6.19,0,0,1-2.67-2.87c-.52-1.18-.77-3.67-.77-7.47V379.15h-4.64v-4.92h4.64V365l6.29-3.79v13h6.36v4.92H272.8V401a11.1,11.1,0,0,0,.33,3.48,2.65,2.65,0,0,0,1.09,1.23,4.19,4.19,0,0,0,2.17.46A19.72,19.72,0,0,0,279.16,405.9Z"/><path class="cls-1" d="M316.31,399.54l6.54.81a15.93,15.93,0,0,1-5.73,8.89,17.23,17.23,0,0,1-10.69,3.17q-8.19,0-13-5.05t-4.8-14.15q0-9.42,4.85-14.62a16.43,16.43,0,0,1,12.59-5.21,16,16,0,0,1,12.23,5.1q4.76,5.1,4.75,14.35c0,.37,0,.93,0,1.68H295.18q.35,6.15,3.48,9.43a10.39,10.39,0,0,0,7.8,3.26,9.7,9.7,0,0,0,6-1.82A12.16,12.16,0,0,0,316.31,399.54Zm-20.78-10.23h20.85q-.42-4.71-2.39-7.07a9.72,9.72,0,0,0-7.84-3.65,10,10,0,0,0-7.33,2.92A11.52,11.52,0,0,0,295.53,389.31Z"/><path class="cls-1" d="M360.42,411.56v-4.71A11.61,11.61,0,0,1,350,412.41a14.62,14.62,0,0,1-8.2-2.46,16.2,16.2,0,0,1-5.81-6.88,23.76,23.76,0,0,1-2-10.14,26.54,26.54,0,0,1,1.86-10.14,14.7,14.7,0,0,1,5.59-7,14.93,14.93,0,0,1,8.33-2.43,12.48,12.48,0,0,1,10.3,5.14V360h6.3v51.54Zm-20-18.63q0,7.17,3,10.72a9.09,9.09,0,0,0,7.13,3.55,8.94,8.94,0,0,0,7.05-3.39q2.89-3.39,2.9-10.35,0-7.66-2.95-11.25a9.1,9.1,0,0,0-7.28-3.59,8.77,8.77,0,0,0-7.05,3.45Q340.41,385.52,340.41,392.93Z"/><path class="cls-2" d="M78.9,471.56V431.48H91l7.27,27.34,7.19-27.34h12.15v40.08H110.1V440l-8,31.55H94.35L86.42,440v31.55Z"/><path class="cls-2" d="M143.82,462.32l7.65,1.29a12.59,12.59,0,0,1-4.66,6.41,13.67,13.67,0,0,1-8,2.2q-7.58,0-11.21-5a16.58,16.58,0,0,1-2.87-10q0-7.22,3.77-11.3a12.42,12.42,0,0,1,9.54-4.09,12.91,12.91,0,0,1,10.23,4.28q3.75,4.28,3.58,13.11H132.63a7.83,7.83,0,0,0,1.86,5.32,5.85,5.85,0,0,0,4.43,1.9,4.71,4.71,0,0,0,3-1A6,6,0,0,0,143.82,462.32Zm.43-7.76a7.41,7.41,0,0,0-1.72-5.08,5.29,5.29,0,0,0-4-1.73,5.35,5.35,0,0,0-4.16,1.83,7.1,7.1,0,0,0-1.61,5Z"/><path class="cls-2" d="M159,442.52h7.08v4q3.81-4.62,9-4.62a9.68,9.68,0,0,1,4.84,1.15,8.81,8.81,0,0,1,3.37,3.47,13.22,13.22,0,0,1,4.13-3.47,10,10,0,0,1,4.73-1.15,10.5,10.5,0,0,1,5.41,1.3,7.94,7.94,0,0,1,3.31,3.81,16.56,16.56,0,0,1,.79,6v18.56H194V455q0-4.32-.8-5.58a3.62,3.62,0,0,0-3.28-1.64,5.28,5.28,0,0,0-3,1,5.47,5.47,0,0,0-2,2.89,20.65,20.65,0,0,0-.63,6v13.94h-7.69V455.65a21.73,21.73,0,0,0-.41-5.47,3.43,3.43,0,0,0-1.27-1.83,4,4,0,0,0-2.34-.6,5.62,5.62,0,0,0-3.19.95,5.24,5.24,0,0,0-2,2.77,20.46,20.46,0,0,0-.62,6v14.11H159Z"/><path class="cls-2" d="M209,456.63a15.7,15.7,0,0,1,1.89-7.41,12.91,12.91,0,0,1,5.34-5.46,15.86,15.86,0,0,1,7.73-1.89,14.52,14.52,0,0,1,10.8,4.28A14.81,14.81,0,0,1,238.93,457a15,15,0,0,1-4.25,10.93A14.39,14.39,0,0,1,224,472.22a16.87,16.87,0,0,1-7.61-1.8,12.34,12.34,0,0,1-5.51-5.3A17.58,17.58,0,0,1,209,456.63Zm7.88.41q0,4.32,2,6.62a6.69,6.69,0,0,0,10.1,0q2-2.3,2-6.67t-2-6.56a6.69,6.69,0,0,0-10.1,0Q216.84,452.73,216.84,457Z"/><path class="cls-2" d="M253.7,471.56H246v-29h7.13v4.13a12.31,12.31,0,0,1,3.3-3.85,6,6,0,0,1,3.32-.93,9.72,9.72,0,0,1,5.06,1.45l-2.38,6.7a6.76,6.76,0,0,0-3.61-1.26,4.24,4.24,0,0,0-2.73.89,6,6,0,0,0-1.77,3.21q-.65,2.33-.64,9.74Z"/><path class="cls-2" d="M265.9,442.52h8.18L281,463.14l6.78-20.62h8l-10.25,28-1.84,5.06a20.47,20.47,0,0,1-1.92,3.88,8.61,8.61,0,0,1-2.11,2.18,9.35,9.35,0,0,1-2.92,1.29,15.23,15.23,0,0,1-3.93.47,20.41,20.41,0,0,1-4.35-.47l-.68-6a16.71,16.71,0,0,0,3.25.35,4.83,4.83,0,0,0,4-1.57,10.93,10.93,0,0,0,2-4Z"/><path class="cls-3" d="M217.57,122v65.21H152.36V122h65.21m8-8H144.36v81.21h81.21V114Z"/><rect class="cls-3" x="144.36" y="227.57" width="81.21" height="81.21"/><rect class="cls-3" x="144.36" width="81.21" height="81.21"/><rect class="cls-3" x="31.27" y="114.02" width="81.21" height="81.21"/><path class="cls-3" d="M104.48,235.57v65.22H39.27V235.57h65.21m8-8H31.27v81.22h81.21V227.57Z"/><path class="cls-3" d="M104.48,8V73.21H39.27V8h65.21m8-8H31.27V81.21h81.21V0Z"/><path class="cls-3" d="M331.13,122v65.21H265.91V122h65.22m8-8H257.91v81.21h81.22V114Z"/><rect class="cls-3" x="257.91" y="227.57" width="81.21" height="81.21"/><path class="cls-3" d="M331.13,8V73.21H265.91V8h65.22m8-8H257.91V81.21h81.22V0Z"/><path class="cls-2" d="M77.51,56.29H71.35V39.45c0-.68,0-1.6,0-2.75s.07-2.17.12-3c-.13.16-.43.45-.87.87s-.87.8-1.25,1.13l-3.34,2.69-3-3.71,9.38-7.47h5.06Z"/><path class="cls-2" d="M307.88,50.23h-3.51v6h-6v-6H285.94V46l12.76-18.8h5.67V45.46h3.51Zm-9.51-4.77V40.53c0-.63,0-1.39,0-2.28s.07-1.74.11-2.51.07-1.29.1-1.53h-.16c-.25.54-.51,1.07-.8,1.59s-.6,1.05-1,1.59l-5.34,8.07Z"/><path class="cls-2" d="M81.2,260.8a6.46,6.46,0,0,1-1.81,4.81,9.43,9.43,0,0,1-4.47,2.45v.12a9.33,9.33,0,0,1,5.3,2.16,5.92,5.92,0,0,1,1.84,4.57,8.47,8.47,0,0,1-1.25,4.54A8.34,8.34,0,0,1,77,282.64a16.49,16.49,0,0,1-6.67,1.16,21,21,0,0,1-8.4-1.59V277a18.19,18.19,0,0,0,3.92,1.42,16.22,16.22,0,0,0,3.83.49c2.2,0,3.75-.38,4.63-1.14a4,4,0,0,0,1.32-3.22,3.4,3.4,0,0,0-.61-2,3.75,3.75,0,0,0-2.14-1.28,16.34,16.34,0,0,0-4.26-.43H66.4v-4.73h2.24a12.64,12.64,0,0,0,4.1-.51,3.45,3.45,0,0,0,1.92-1.39,3.94,3.94,0,0,0,.51-2,3.1,3.1,0,0,0-1-2.42,4.67,4.67,0,0,0-3.2-.88,8.37,8.37,0,0,0-3.63.73A23.85,23.85,0,0,0,64.81,261L62,256.72a15.79,15.79,0,0,1,4-2,16.57,16.57,0,0,1,5.48-.81,12.35,12.35,0,0,1,7.12,1.81A5.87,5.87,0,0,1,81.2,260.8Z"/><path class="cls-2" d="M308.83,170H288.49v-4.28l7.29-7.38c1.47-1.53,2.66-2.8,3.55-3.82a13.16,13.16,0,0,0,2-2.77,5.94,5.94,0,0,0,.61-2.67,3.32,3.32,0,0,0-1-2.61,3.75,3.75,0,0,0-2.59-.86,7.33,7.33,0,0,0-3.26.78,17.85,17.85,0,0,0-3.34,2.2l-3.35-3.95a27.54,27.54,0,0,1,2.65-2,12.81,12.81,0,0,1,3.29-1.55,14.56,14.56,0,0,1,4.46-.59,10.73,10.73,0,0,1,4.92,1,7.86,7.86,0,0,1,3.18,2.81,7.41,7.41,0,0,1,1.12,4,10,10,0,0,1-1,4.4,16.32,16.32,0,0,1-2.77,4q-1.82,2-4.39,4.32l-3.75,3.51v.28h12.68Z"/><path class="cls-2" d="M186.2,152.1a10.61,10.61,0,0,1,4.73,1,7.75,7.75,0,0,1,3.28,3,9.11,9.11,0,0,1,1.21,4.85,9.61,9.61,0,0,1-2.94,7.44c-2,1.81-4.85,2.71-8.69,2.71a21.88,21.88,0,0,1-4.3-.4,13.55,13.55,0,0,1-3.53-1.19v-5.3a17.87,17.87,0,0,0,3.63,1.33,15.86,15.86,0,0,0,4,.55,6.71,6.71,0,0,0,4.18-1.12,4.15,4.15,0,0,0,1.45-3.49c0-2.94-1.95-4.4-5.83-4.4a13.07,13.07,0,0,0-2.37.22c-.82.15-1.5.29-2,.43l-2.45-1.31,1.11-14.84h15.78v5.22H183l-.53,5.71,1.49-.27A13.93,13.93,0,0,1,186.2,152.1Z"/></g></g></svg>