<?xml version="1.0" encoding="UTF-8"?><svg id="Layer_2" xmlns="http://www.w3.org/2000/svg" viewBox="0 0 200.82 248.92"><defs><style>.cls-1{fill:#c0272d;opacity:.75;}</style></defs><g id="Layer_1-2"><path class="cls-1" d="m198.42,116.19v-3.98h-2.41v-5.31l-2.4-1.33v-1.33h-2.41v-1.33h-2.4v-1.33h-2.41v-1.33h-4.81v-1.33h-2.41v-1.33h-2.4v-1.33h-2.41v-1.33h-2.4v-1.33h-2.41v-1.33h-2.4v-1.33h-4.25v-25.53h-2.29l-2.29-8.18h-2.29l-2.29-8.18h-4.58l-2.29-8.18h-6.87v-16.36h-4.58v-8.18h-11.45v8.18h-2.29v8.18h-2.29v-8.18h-4.58v-8.18h-6.87v-8.18h-4.58V0h-11.45v8.18h-2.29v8.18h-2.29v8.18h-2.29v8.18h-4.58v-8.18h-9.16l-2.29,8.18-2.29,8.18h-2.29v8.18h-6.87v8.18h-6.87v31.05h-8.61v1.33h-4.81v1.33h-4.81v1.33h-2.41v1.33h-2.4v1.33h-4.81v1.33h-2.41v1.33h-2.4v1.33h-2.41v2.66h-2.41v1.33h-2.4v1.33h-2.4v1.33h-2.41v1.33h-2.41v6.64H1.2v2.66l-1.2-.66v17.26h2.41v5.31h2.4v3.98h2.41v3.98h2.4v3.98h2.41v1.33h2.4v2.66h1.96l-.14.29.58.27v.2l-.09.2.09.04v2.98h.87l-.03.05-.17.36-.17.36.65.31-.17.36-.17.36.65.31-.17.36-.17.36.65.31-.17.36.65.31-.17.36.65.31-.17.36.65.31-.17.36.65.31-.17.36.65.31.65.31-.17.36.65.31-.17.36.65.31.08.04-.39.54-1.08,1.5-1.08,1.5-1.35-.97-1.08,1.5-1.08,1.5,1.35.97-1.08,1.5-1.08,1.5-1.35-.97-1.08,1.5-1.35-.97-1.08,1.5-1.08,1.5-1.35-.97-1.08,1.5,1.35.97-1.08,1.5,1.35.97-1.08,1.5-1.08,1.5-1.08,1.5-1.08,1.5,1.35.97,1.08-1.5,1.08-1.5,1.35.97,1.35.97,1.08-1.5,1.35.97,1.08-1.5,1.35.97,1.35.97-1.08,1.5-1.08,1.5-1.08,1.5-1.08,1.5,1.35.97-1.08,1.5-1.08,1.5-1.08,1.5-1.08,1.5-1.08,1.5,1.35.97,1.35.97-1.08,1.5,1.35.97,1.35.97,1.08-1.5-1.35-.97,1.08-1.5,1.08-1.5,1.35.97,1.08-1.5,1.08-1.5,1.08-1.5,1.35.97,1.08-1.5,1.08-1.5,1.35.97-1.08,1.5,1.35.97-1.08,1.5-1.08,1.5-1.08,1.5-1.08,1.5,1.35.97,1.08-1.5,1.35.97,1.08-1.5,1.08-1.5,1.08-1.5,1.08-1.5,1.08-1.5,1.08-1.5,1.08-1.5,1.35.97,1.35.97,1.08-1.5,1.35.97-1.08,1.5,1.35.97,1.08-1.5,1.08-1.5,1.08-1.5,1.35.97,1.08-1.5,1.08-1.5-1.35-.97,1.08-1.5-1.35-.97,1.08-1.5-1.35-.97,1.08-1.5,1.35.97,1.08-1.5,1.35.97,1.08-1.5,1.08-1.5,1.35.97,1.08-1.5,1.08-1.5.75-1.05.06.03.15-.33.02-.03.65.3.17-.36.17-.36.65.31.17-.36.65.31.65.31.17-.36.65.31.17-.36.65.31.17-.36.65.31.17-.36.65.31-.17.36.65.31.17-.36.17-.36.17-.36.65.31.17-.36.17-.36.17-.36.65.31.17-.36.17-.36.65.31.17-.36.65.31.17-.36.17-.36.17-.36.65.31.17-.36.17-.36.17-.36.65.31.17-.36.17-.36.17-.36h.02v.44h1.42v.16s-.03.4-.03.4l-.02.4.72.04-.02.4-.02.4-.02.4-.02.4.72.04-.02.4-.02.4-.02.4-.02.4-.02.4-.02.4-.02.4-.02.4-.02.4.72.04-.02.4-.02.4.72.04-.02.4-.02.4.72.04-.02.4.72.04-.02.4-.02.4.72.04-.02.4.72.04-.02.4-.02.4-.02.4-.02.4-.02.4.72.04-.02.4-.02.4.72.04-.02.4-.02.4.61.03v3.02h2.29v5.09h2.29v2.55h2.29v2.55h-2.29v2.55h-2.29v2.55h-2.29v5.09h2.29v7.64h2.29v-2.55h2.29v2.55h4.57v17.83h2.29v2.55h2.29v-10.19h2.29v-2.55h2.29v5.09h2.29v7.64h2.29v5.09h-2.29v2.55h4.57v-2.55h4.57v-12.73h2.29v-10.19h4.57v2.55h2.29v2.55h4.57v5.09h2.29v-10.19h2.29v-2.55h2.29v-2.55h-2.29v-5.09h-2.29v-2.55h-2.29v-5.09h2.29v-5.09h-2.29v-7.64h2.29v-3.81l.5.03.02-.4.72.04.02-.4.02-.4.02-.4.72.04.02-.4.02-.4.02-.4.72.04.02-.4.02-.4.02-.4.72.04.02-.4.02-.4.02-.4.02-.4.72.04.02-.4.02-.4.02-.4.02-.4.02-.4.02-.4.02-.4.02-.4.02-.4.02-.4.02-.4.02-.4.02-.4-.39.19v-.21s.03-.4.03-.4v-.21h1.67v-.66h1.2v-.66h1.2v-.66h.44l.08.17.17.36.65-.31.17.36.17.36.17.36.65-.31.17.36.17.36.17.36.65-.31.17.36.17.36.17.36.65-.31.17.36.65-.31.17.36.17.36.65-.31.17.36.17.36.17.36.65-.31.17.36.17.36.17.36.65-.31-.17-.36.65-.31.17.36.65-.31.17.36.65-.31.17.36.65-.31.17.36.65-.31.15-.07.06.09,1.08,1.5,1.08,1.5,1.35-.97,1.08,1.5,1.08,1.5,1.35-.97,1.08,1.5,1.35-.97,1.08,1.5-1.35.97,1.08,1.5-1.35.97,1.08,1.5-1.35.97,1.08,1.5,1.08,1.5,1.35-.97,1.08,1.5,1.08,1.5,1.08,1.5,1.35-.97-1.08-1.5,1.35-.97,1.08,1.5,1.35-.97,1.35-.97,1.08,1.5,1.08,1.5,1.08,1.5,1.08,1.5,1.08,1.5,1.08,1.5,1.08,1.5,1.35-.97,1.08,1.5,1.35-.97-1.08-1.5-1.08-1.5-1.08-1.5-1.08-1.5,1.35-.97-1.08-1.5,1.35-.97,1.08,1.5,1.08,1.5,1.35-.97,1.08,1.5,1.08,1.5,1.08,1.5,1.35-.97,1.08,1.5,1.08,1.5-1.35.97,1.08,1.5,1.35-.97,1.35-.97-1.08-1.5,1.35-.97,1.35-.97-1.08-1.5-1.08-1.5-1.08-1.5-1.08-1.5-1.08-1.5,1.35-.97-1.08-1.5-1.08-1.5-1.08-1.5-1.08-1.5,1.35-.97,1.35-.97,1.08,1.5,1.35-.97,1.08,1.5,1.35-.97,1.35-.97,1.08,1.5,1.08,1.5,1.35-.97-1.08-1.5-1.08-1.5-1.08-1.5-1.08-1.5,1.35-.97-1.08-1.5,1.35-.97-1.08-1.5-1.35.97-1.08-1.5-1.08-1.5-1.35.97-1.08-1.5-1.35.97-1.08-1.5-1.08-1.5,1.35-.97-1.08-1.5-1.08-1.5-1.35.97-.44-.61.24-.11-.17-.36-.17-.36.65-.31.65-.31.65-.31-.17-.36.65-.31-.17-.36.65-.31.65-.31-.17-.36.65-.31-.17-.36.65-.31-.17-.36.65-.31-.17-.36.65-.31-.17-.36.65-.31-.17-.36-.17-.36.65-.31-.17-.36-.17-.36.65-.31-.17-.36-.17-.36-.17-.36-.17-.36-.17-.36.65-.31-.17-.36.65-.31-.17-.36-.17-.36.65-.31-.17-.36.65-.31-.17-.36-.17-.36.65-.31-.17-.36-.17-.36.65-.31-.17-.36-.17-.36-.17-.36-.17-.36-.17-.36-.17-.36-.17-.36-.17-.36h0s.03,0,.03,0v-.45l.45-.21h.76v-.66h1.2v-1.99h1.2v-.66h1.2v-.66h1.2v-.66h1.2v-1.99h1.2v-.66h1.2v-1.99h1.2v-.66h1.2v-11.29h1.2v-.66h1.2v-4.65h1.2v-.66h1.2v-5.31h-2.4Zm-16.73,35.15l.17.36-.27.38v-2.02h1.03l-.45.62-.48.67Zm-54.31,28.97v-.21s.39.02.39.02h0s-.39.19-.39.19Z"/></g></svg>