<?xml version="1.0" encoding="utf-8"?>
<!-- Generator: Adobe Illustrator 27.2.0, SVG Export Plug-In . SVG Version: 6.00 Build 0)  -->
<svg version="1.1" id="Layer_2_00000065761076967419981260000015556989520086784690_"
	 xmlns="http://www.w3.org/2000/svg" xmlns:xlink="http://www.w3.org/1999/xlink" x="0px" y="0px" viewBox="0 0 511.4 59.9"
	 style="enable-background:new 0 0 511.4 59.9;" xml:space="preserve">
<style type="text/css">
	.st0{fill:#90E372;}
	.st1{fill:none;stroke:#90E372;stroke-miterlimit:10;}
</style>
<g id="Layer_1-2">
	<rect x="199.6" y="0.5" class="st0" width="30.3" height="58.9"/>
	<rect x="240" y="0.5" class="st0" width="30.3" height="58.9"/>
	<rect x="280.4" y="0.5" class="st0" width="30.3" height="58.9"/>
	<rect x="320.7" y="0.5" class="st0" width="30.3" height="58.9"/>
	<rect x="359.4" y="0.5" class="st0" width="30.3" height="58.9"/>
	<rect x="399.8" y="0.5" class="st1" width="30.3" height="58.9"/>
	<rect x="440.2" y="0.5" class="st1" width="30.3" height="58.9"/>
	<rect x="480.6" y="0.5" class="st1" width="30.3" height="58.9"/>
</g>
<g>
	<path class="st0" d="M14.8,30.8v11.6c0,1.3-0.6,2-2,2c-1.4,0-2-0.7-2-2V15.3c0-1.3,0.6-2,2-2c1.4,0,2,0.7,2,2v11.6h11.8V15.3
		c0-1.3,0.6-2,2-2c1.4,0,2,0.7,2,2v27.1c0,1.3-0.6,2-2,2c-1.4,0-2-0.7-2-2V30.8H14.8z"/>
	<path class="st0" d="M47.1,44.4c-1.6,0-2.2,0-3.4-1l-1.6-1.4c-1.5-1.4-2-2.2-2-4.3v-7.4c0-2,0.3-3.2,1.9-4.6l1.4-1.2
		c1.8-1.6,2.7-1.6,4.2-1.6h3.5c1.9,0,2.8,0.2,4.2,1.4l1.6,1.2c1.8,1.4,2,2.9,2,5v3.1c0,2.2-0.4,2.8-2.6,2.8H43.9v1.3
		c0,0.4,0.3,0.8,0.6,1.1l1,1c0.5,0.6,1.3,0.7,2.6,0.7h8.2c1.3,0,2.6,0.3,2.6,1.9c0,1.7-1.5,1.9-2.6,1.9H47.1z M43.9,32.6h11.1v-2.3
		c0-0.7,0-1.3-0.5-1.8l-1.5-1.3c-0.5-0.4-1.2-0.5-1.8-0.5H48c-0.7,0-1.3,0-2,0.4l-1.3,1c-0.5,0.4-0.8,0.6-0.8,1.8V32.6z"/>
	<path class="st0" d="M75.3,26.7c-1.1,0-2.6-0.2-2.6-1.9c0-1.6,1.4-1.9,2.6-1.9h5.3c2,0,3.4,0.2,5,1.7c1.5,1.5,1.7,2.6,1.7,4.6
		l0.4,13c0,1.1-0.5,2.2-1.8,2.2c-1,0-2-0.8-2-1.9l-2.6,1.4c-1.1,0.6-1.1,0.6-2.4,0.6h-3.7c-1.7,0-3-0.2-4.4-1.4
		c-1.6-1.3-2-2.7-2-4.7v-1.7c0-1.8,0.4-3,1.9-4.3c1.3-1.2,2.8-1.4,4.5-1.4h8.2V30c0-2.9-0.6-3.4-3.4-3.4H75.3z M75.3,34.8
		c-1,0-2.6,0.3-2.6,1.7V39c0,1.3,1.6,1.6,2.5,1.6h4.2l4.2-2.2v-0.8c0-2.1-0.6-2.8-2.7-2.8H75.3z"/>
	<path class="st0" d="M109.1,40.6h2.9c1.3,0,2.6,0.3,2.6,1.9c0,1.7-1.5,1.9-2.6,1.9h-9.8c-1.1,0-2.6-0.2-2.6-1.9
		c0-1.6,1.4-1.9,2.6-1.9h3V18.8h-3c-1.1,0-2.6-0.2-2.6-1.9c0-1.6,1.4-1.9,2.6-1.9h4c2.2,0,2.8,0.4,2.8,2.7V40.6z"/>
	<path class="st0" d="M134.2,37.2c0,2.2-0.1,3.4,2.6,3.4h2c1.6,0,2.3-0.1,2.7-1.7c0.2-0.9,1-1.6,1.9-1.6c1.1,0,2,0.8,2,1.9
		c0,1.1-0.7,2.4-1.3,3.2c-1.4,1.7-3.2,2-5.3,2h-2c-1.9,0-3.6-0.4-5-1.9c-1.5-1.6-1.4-3.3-1.4-5.4V26.7h-1.2c-1.1,0-2.6-0.2-2.6-1.9
		c0-1.6,1.4-1.9,2.6-1.9h1.2v-3.9c0-1.3,0.3-2.6,1.9-2.6s1.9,1.3,1.9,2.6v3.9h6.4c1.3,0,2.6,0.3,2.6,1.9c0,1.7-1.5,1.9-2.6,1.9h-6.4
		V37.2z"/>
	<path class="st0" d="M166,26.7c-0.4,0-0.8,0.1-1.2,0.4l-5.7,3.6v11.2c0,1.3-0.3,2.6-1.9,2.6s-1.9-1.3-1.9-2.6V17.6
		c0-1.3,0.3-2.6,1.9-2.6s1.9,1.3,1.9,2.6v8.6l3.1-2c1-0.6,2.2-1.3,3.4-1.3h2.6c0.8,0,2.1,0,3.7,1.4c1.7,1.5,1.6,3.1,1.7,5.2
		l0.4,12.1c0,1.4-0.2,2.9-1.9,2.9c-1.6,0-1.9-1.3-1.9-2.6L169.9,30c-0.1-1.8,0-3.3-2.1-3.3H166z"/>
</g>
</svg>
