<?xml version="1.0" encoding="UTF-8"?><svg id="Layer_2" xmlns="http://www.w3.org/2000/svg" viewBox="0 0 350.56 318.71"><defs><style>.cls-1{fill:#a34116;}.cls-2{fill:#8b070a;}.cls-3{fill:#3b0203;}.cls-4{fill:#1d0e0e;}.cls-5{fill:#595858;}.cls-6{fill:#b0090d;}.cls-7{fill:#343434;}.cls-8{fill:#6c6c6c;}.cls-9{fill:#555;}.cls-10{fill:#474646;}.cls-11{fill:#918249;}.cls-12{fill:#130000;}.cls-13{fill:#5b5a5a;}.cls-14{fill:#030202;}.cls-15{fill:#3d3e3e;}.cls-16{fill:#585858;}.cls-17{fill:#363737;}.cls-18{fill:#3d3d3d;}.cls-19{fill:#6a1313;}.cls-20{fill:#4e0f12;}.cls-21{fill:#2a0708;}.cls-22{fill:#727272;}.cls-23{fill:#575757;}.cls-24{fill:#545353;}.cls-25{fill:#3a3b3a;}.cls-26{fill:#3f3f3f;}.cls-27{fill:#666566;}.cls-28{fill:#501013;}.cls-29{fill:#424342;}.cls-30{fill:#3b3c3b;}.cls-31{fill:#5e5d5d;}.cls-32{fill:#585758;}.cls-33{fill:#565656;}.cls-34{fill:#631513;}.cls-35{fill:#363636;}.cls-36{fill:#0c0c0c;}.cls-37{fill:#0a0000;}.cls-38{fill:#5f5e5e;}.cls-39{fill:#49403c;}.cls-40{fill:#404241;}.cls-41{fill:#250001;}.cls-42{fill:#bf5c1a;}.cls-43{fill:#5c5c5c;}.cls-44{fill:#4b4b4b;}.cls-45{fill:#222;}.cls-46{fill:#3e3f3f;}.cls-47{fill:#040404;}.cls-48{fill:#5f5f5f;}.cls-49{fill:#912e15;}.cls-50{fill:#404140;}.cls-51{fill:#1c0000;}.cls-52{fill:#5c5b5b;}.cls-53{fill:#4a4a4a;}.cls-54{fill:#771d12;}.cls-55{fill:#3e3e3e;}.cls-56{fill:#4d4d4d;}.cls-57{fill:#323232;}.cls-58{fill:#020202;}.cls-59{fill:#151515;}.cls-60{fill:#0d0000;}.cls-61{fill:#040000;}.cls-62{fill:#757474;}.cls-63{fill:#5f5e5f;}.cls-64{fill:#020000;}.cls-65{fill:#6c6645;}.cls-66{fill:#2b080a;}.cls-67{fill:#424343;}.cls-68{fill:#0a0a0a;}.cls-69{fill:#0d0202;}.cls-70{fill:#303030;}.cls-71{fill:#bc5b1c;}.cls-72{fill:#0d0203;}.cls-73{fill:#393939;}.cls-74{fill:#373837;}.cls-75{fill:#6e6d6d;}.cls-76{fill:#343534;}.cls-77{fill:#1f0102;}.cls-78{fill:#29080a;}.cls-79{fill:#656565;}.cls-80{fill:#5d5c5c;}.cls-81{fill:#0f0303;}.cls-82{fill:#383737;}.cls-83{fill:#6b6b6b;}.cls-84{fill:#5a595a;}.cls-85{fill:#696969;}.cls-86{fill:#fdec5e;}.cls-87{fill:#1b1b1b;}.cls-88{fill:#080000;}.cls-89{fill:#707070;}.cls-90{fill:#111;}.cls-91{fill:#333;}.cls-92{fill:#3b3c3c;}.cls-93{fill:#404141;}.cls-94{fill:#646464;}.cls-95{fill:#a64216;}.cls-96{fill:#621212;}.cls-97{fill:#410203;}.cls-98{fill:#2a2a2a;}.cls-99{fill:#383a39;}.cls-100{fill:#6b1113;}.cls-101{fill:#030303;}.cls-102{fill:#101010;}.cls-103{fill:#626262;}.cls-104{fill:#5d5c5d;}.cls-105{fill:#414241;}.cls-106{fill:#444;}.cls-107{fill:#f4b72a;}.cls-108{fill:#5a5a5a;}.cls-109{fill:#280709;}.cls-110{fill:#520f13;}.cls-111{fill:#0d0d0d;}.cls-112{fill:#080808;}.cls-113{fill:#df862b;}.cls-114{fill:#787878;}.cls-115{fill:#3d3c3c;}.cls-116{fill:#272727;}.cls-117{fill:#5c5b5c;}.cls-118{fill:#4f1013;}.cls-119{fill:#e59933;}.cls-120{fill:#5d1013;}.cls-121{fill:#410c0e;}.cls-122{fill:#993616;}.cls-123{fill:#424242;}.cls-124{fill:#414141;}.cls-125{fill:#2b2b2b;}.cls-126{fill:#676767;}.cls-127{fill:#3a3a3a;}.cls-128{fill:#363736;}.cls-129{fill:#3c3d3c;}.cls-130{fill:#414040;}.cls-131{fill:#220101;}.cls-132{fill:#6a6969;}.cls-133{fill:#490e11;}.cls-134{fill:#3e3e3d;}.cls-135{fill:#575656;}.cls-136{fill:#380b0d;}.cls-137{fill:#373636;}.cls-138{fill:#3b3b3b;}.cls-139{fill:#8f2e15;}.cls-140{fill:#150001;}.cls-141{fill:#0e0000;}.cls-142{fill:#605f5f;}.cls-143{fill:#464646;}.cls-144{fill:#212121;}.cls-145{fill:#4f0e11;}.cls-146{fill:#aa090d;}.cls-147{fill:#5d5d5d;}.cls-148{fill:#0e0e0e;}.cls-149{fill:#616161;}.cls-150{fill:#cc8b28;}.cls-151{fill:#555454;}.cls-152{fill:#1d1d1d;}.cls-153{fill:#403f40;}.cls-154{fill:#121212;}.cls-155{fill:#070000;}.cls-156{fill:#6e1413;}.cls-157{fill:#7c1a13;}.cls-158{fill:#535252;}.cls-159{fill:#670507;}.cls-160{fill:#2d090a;}.cls-161{fill:#636363;}.cls-162{fill:#8e080a;}.cls-163{fill:#050505;}.cls-164{fill:#640507;}.cls-165{fill:#161616;}.cls-166{fill:#0f0000;}.cls-167{fill:#6c1513;}.cls-168{fill:#2a2929;}.cls-169{fill:#2d2d2d;}.cls-170{fill:#383838;}.cls-171{fill:#090203;}.cls-172{fill:#7d0709;}.cls-173{fill:#292929;}.cls-174{fill:#0b0b0b;}.cls-175{fill:#0c0000;}.cls-176{fill:#767575;}.cls-177{fill:#030000;}.cls-178{fill:#252525;}.cls-179{fill:#5a5959;}.cls-180{fill:#595859;}.cls-181{fill:#414140;}.cls-182{fill:#220708;}.cls-183{fill:#902d15;}.cls-184{fill:#4d0f12;}.cls-185{fill:#3f3e3e;}.cls-186{fill:#191919;}.cls-187{fill:#4d0f11;}.cls-188{fill:#484747;}.cls-189{fill:#303230;}.cls-190{fill:#606060;}.cls-191{fill:#1a1a1a;}.cls-192{fill:#160000;}.cls-193{fill:#af090d;}.cls-194{fill:#515051;}.cls-195{fill:#484748;}.cls-196{fill:#565555;}.cls-197{fill:#2a0101;}.cls-198{fill:#070707;}.cls-199{fill:#180405;}.cls-200{fill:#1e0405;}.cls-201{fill:#484848;}.cls-202{fill:#8a8a8a;}.cls-203{fill:#6d6d6d;}.cls-204{fill:#3d3e3d;}.cls-205{fill:#650507;}.cls-206{fill:#595959;}.cls-207{fill:#30090b;}.cls-208{fill:#6e6e6e;}.cls-209{fill:#330a0c;}.cls-210{fill:#420d0f;}.cls-211{fill:#5b5b5b;}.cls-212{fill:#404040;}.cls-213{fill:#414242;}.cls-214{fill:#3a3b3b;}.cls-215{fill:#070101;}.cls-216{fill:#3c3d3d;}.cls-217{fill:#1e1e1e;}.cls-218{fill:#530405;}.cls-219{fill:#180000;}.cls-220{fill:#a9090d;}.cls-221{fill:#9c3916;}.cls-222{fill:#010101;}.cls-223{fill:#540405;}.cls-224{fill:#7c2a10;}.cls-225{fill:#3c3c3c;}.cls-226{fill:#440304;}.cls-227{fill:#3e3f3e;}.cls-228{fill:#5e5e5e;}.cls-229{fill:#6d6c6d;}.cls-230{fill:#390203;}.cls-231{fill:#656465;}</style></defs><g id="Layer_1-2"><g><rect x="147.7" y="314.55" width="4.85" height="4.16"/><rect class="cls-66" x="142.85" y="314.55" width="4.85" height="4.16"/><rect class="cls-215" x="137.99" y="314.55" width="4.85" height="4.16"/><rect class="cls-199" x="147.7" y="310.39" width="4.85" height="4.16"/><rect class="cls-96" x="142.85" y="310.39" width="4.85" height="4.16"/><rect class="cls-145" x="137.99" y="310.39" width="4.85" height="4.16"/><rect class="cls-121" x="133.14" y="310.39" width="4.85" height="4.16"/><rect class="cls-160" x="147.7" y="306.23" width="4.85" height="4.16"/><rect class="cls-139" x="142.85" y="306.23" width="4.85" height="4.16"/><rect class="cls-221" x="137.99" y="306.23" width="4.85" height="4.16"/><rect class="cls-19" x="133.14" y="306.23" width="4.85" height="4.16"/><rect x="147.7" y="302.07" width="4.85" height="4.16"/><rect class="cls-39" x="142.85" y="302.07" width="4.85" height="4.16"/><rect class="cls-35" x="137.99" y="302.07" width="4.85" height="4.16"/><rect class="cls-168" x="133.14" y="302.07" width="4.85" height="4.16"/><rect x="152.55" y="297.91" width="4.85" height="4.16"/><rect class="cls-163" x="147.7" y="297.91" width="4.85" height="4.16"/><rect class="cls-73" x="142.85" y="297.91" width="4.85" height="4.16"/><rect class="cls-35" x="137.99" y="297.91" width="4.85" height="4.16"/><rect class="cls-45" x="133.14" y="297.91" width="4.85" height="4.16"/><rect class="cls-217" x="128.28" y="297.91" width="4.85" height="4.16"/><rect class="cls-111" x="123.43" y="297.91" width="4.85" height="4.16"/><rect class="cls-47" x="43.69" y="239.2" width="4.85" height="4.16"/><rect x="157.41" y="293.75" width="4.85" height="4.16"/><rect class="cls-174" x="152.55" y="293.75" width="4.85" height="4.16"/><rect class="cls-26" x="147.7" y="293.75" width="4.85" height="4.16"/><rect class="cls-126" x="142.85" y="293.75" width="4.85" height="4.16"/><rect class="cls-142" x="137.99" y="293.75" width="4.85" height="4.16"/><rect class="cls-48" x="133.14" y="293.75" width="4.85" height="4.16"/><rect class="cls-194" x="128.28" y="293.75" width="4.85" height="4.16"/><rect class="cls-125" x="123.43" y="293.75" width="4.85" height="4.16"/><rect class="cls-57" x="43.69" y="235.04" width="4.85" height="4.16"/><rect class="cls-186" x="38.84" y="235.04" width="4.85" height="4.16"/><rect x="33.98" y="235.04" width="4.85" height="4.16"/><rect x="162.26" y="289.59" width="4.85" height="4.16"/><rect class="cls-75" x="157.41" y="289.59" width="4.85" height="4.16"/><rect class="cls-108" x="152.55" y="289.59" width="4.85" height="4.16"/><rect class="cls-80" x="147.7" y="289.59" width="4.85" height="4.16"/><rect class="cls-83" x="142.85" y="289.59" width="4.85" height="4.16"/><rect class="cls-38" x="137.99" y="289.59" width="4.85" height="4.16"/><rect class="cls-48" x="133.14" y="289.59" width="4.85" height="4.16"/><rect class="cls-211" x="128.28" y="289.59" width="4.85" height="4.16"/><rect class="cls-108" x="123.43" y="289.59" width="4.85" height="4.16"/><rect class="cls-117" x="43.69" y="230.88" width="4.85" height="4.16"/><rect class="cls-143" x="38.84" y="230.88" width="4.85" height="4.16"/><rect class="cls-18" x="33.98" y="230.88" width="4.85" height="4.16"/><rect class="cls-174" x="29.13" y="230.88" width="4.85" height="4.16"/><rect class="cls-153" x="162.26" y="285.43" width="4.85" height="4.16"/><rect class="cls-103" x="157.41" y="285.43" width="4.85" height="4.16"/><rect class="cls-31" x="152.55" y="285.43" width="4.85" height="4.16"/><rect class="cls-5" x="147.7" y="285.43" width="4.85" height="4.16"/><rect class="cls-179" x="142.85" y="285.43" width="4.85" height="4.16"/><rect class="cls-211" x="137.99" y="285.43" width="4.85" height="4.16"/><rect class="cls-43" x="133.14" y="285.43" width="4.85" height="4.16"/><rect class="cls-132" x="128.28" y="285.43" width="4.85" height="4.16"/><rect class="cls-206" x="123.43" y="285.43" width="4.85" height="4.16"/><rect class="cls-63" x="43.69" y="226.72" width="4.85" height="4.16"/><rect class="cls-206" x="38.84" y="226.72" width="4.85" height="4.16"/><rect class="cls-18" x="33.98" y="226.72" width="4.85" height="4.16"/><rect class="cls-225" x="29.13" y="226.72" width="4.85" height="4.16"/><rect class="cls-154" x="24.27" y="226.72" width="4.85" height="4.16"/><rect class="cls-62" x="167.12" y="281.27" width="4.85" height="4.16"/><rect class="cls-79" x="162.26" y="281.27" width="4.85" height="4.16"/><rect class="cls-147" x="157.41" y="281.27" width="4.85" height="4.16"/><rect class="cls-147" x="152.55" y="281.27" width="4.85" height="4.16"/><rect class="cls-31" x="147.7" y="281.27" width="4.85" height="4.16"/><rect class="cls-149" x="142.85" y="281.27" width="4.85" height="4.16"/><rect class="cls-149" x="137.99" y="281.27" width="4.85" height="4.16"/><rect class="cls-228" x="133.14" y="281.27" width="4.85" height="4.16"/><rect class="cls-48" x="128.28" y="281.27" width="4.85" height="4.16"/><rect class="cls-211" x="123.43" y="281.27" width="4.85" height="4.16"/><rect class="cls-202" x="43.69" y="222.56" width="4.85" height="4.16"/><rect class="cls-13" x="38.84" y="222.56" width="4.85" height="4.16"/><rect class="cls-73" x="33.98" y="222.56" width="4.85" height="4.16"/><rect class="cls-15" x="29.13" y="222.56" width="4.85" height="4.16"/><rect class="cls-144" x="24.27" y="222.56" width="4.85" height="4.16"/><rect class="cls-112" x="19.42" y="222.56" width="4.85" height="4.16"/><rect class="cls-87" x="171.97" y="277.11" width="4.85" height="4.16"/><rect class="cls-149" x="167.12" y="277.11" width="4.85" height="4.16"/><rect class="cls-196" x="162.26" y="277.11" width="4.85" height="4.16"/><rect class="cls-190" x="157.41" y="277.11" width="4.85" height="4.16"/><rect class="cls-5" x="152.55" y="277.11" width="4.85" height="4.16"/><rect class="cls-38" x="147.7" y="277.11" width="4.85" height="4.16"/><rect class="cls-161" x="142.85" y="277.11" width="4.85" height="4.16"/><rect class="cls-211" x="137.99" y="277.11" width="4.85" height="4.16"/><rect class="cls-16" x="133.14" y="277.11" width="4.85" height="4.16"/><rect class="cls-43" x="128.28" y="277.11" width="4.85" height="4.16"/><rect class="cls-103" x="123.43" y="277.11" width="4.85" height="4.16"/><rect class="cls-147" x="43.69" y="218.4" width="4.85" height="4.16"/><rect class="cls-26" x="38.84" y="218.4" width="4.85" height="4.16"/><rect class="cls-50" x="33.98" y="218.4" width="4.85" height="4.16"/><rect class="cls-171" x="29.13" y="218.4" width="4.85" height="4.16"/><rect class="cls-131" x="24.27" y="218.4" width="4.85" height="4.16"/><rect class="cls-223" x="19.42" y="218.4" width="4.85" height="4.16"/><rect class="cls-77" x="14.56" y="218.4" width="4.85" height="4.16"/><rect x="9.71" y="218.4" width="4.85" height="4.16"/><rect x="326.29" y="220.48" width="4.85" height="4.16"/><rect class="cls-231" x="321.44" y="220.48" width="4.85" height="4.16"/><rect class="cls-161" x="316.58" y="220.48" width="4.85" height="4.16"/><rect class="cls-31" x="311.73" y="220.48" width="4.85" height="4.16"/><rect class="cls-79" x="306.87" y="220.48" width="4.85" height="4.16"/><rect class="cls-31" x="302.02" y="220.48" width="4.85" height="4.16"/><rect class="cls-196" x="147.7" y="272.95" width="4.85" height="4.16"/><rect class="cls-161" x="142.85" y="272.95" width="4.85" height="4.16"/><rect class="cls-79" x="137.99" y="272.95" width="4.85" height="4.16"/><rect class="cls-32" x="133.14" y="272.95" width="4.85" height="4.16"/><rect class="cls-43" x="128.28" y="272.95" width="4.85" height="4.16"/><rect class="cls-56" x="123.43" y="272.95" width="4.85" height="4.16"/><rect class="cls-18" x="43.69" y="214.24" width="4.85" height="4.16"/><rect class="cls-29" x="38.84" y="214.24" width="4.85" height="4.16"/><rect class="cls-88" x="33.98" y="214.24" width="4.85" height="4.16"/><rect class="cls-230" x="29.13" y="214.24" width="4.85" height="4.16"/><rect class="cls-164" x="24.27" y="214.24" width="4.85" height="4.16"/><rect class="cls-220" x="19.42" y="214.24" width="4.85" height="4.16"/><rect class="cls-146" x="14.56" y="214.24" width="4.85" height="4.16"/><rect class="cls-2" x="9.71" y="214.24" width="4.85" height="4.16"/><rect class="cls-154" x="4.85" y="214.24" width="4.85" height="4.16"/><rect class="cls-58" x="331.15" y="216.32" width="4.85" height="4.16"/><rect class="cls-116" x="326.29" y="216.32" width="4.85" height="4.16"/><rect class="cls-225" x="321.44" y="216.32" width="4.85" height="4.16"/><rect class="cls-31" x="316.58" y="216.32" width="4.85" height="4.16"/><rect class="cls-180" x="311.73" y="216.32" width="4.85" height="4.16"/><rect class="cls-13" x="306.87" y="216.32" width="4.85" height="4.16"/><rect class="cls-147" x="302.02" y="216.32" width="4.85" height="4.16"/><rect class="cls-149" x="147.7" y="268.79" width="4.85" height="4.16"/><rect class="cls-190" x="142.85" y="268.79" width="4.85" height="4.16"/><rect class="cls-26" x="137.99" y="268.79" width="4.85" height="4.16"/><rect class="cls-225" x="133.14" y="268.79" width="4.85" height="4.16"/><rect class="cls-25" x="128.28" y="268.79" width="4.85" height="4.16"/><rect class="cls-50" x="123.43" y="268.79" width="4.85" height="4.16"/><rect class="cls-124" x="43.69" y="210.08" width="4.85" height="4.16"/><rect class="cls-93" x="38.84" y="210.08" width="4.85" height="4.16"/><rect class="cls-166" x="33.98" y="210.08" width="4.85" height="4.16"/><rect class="cls-3" x="29.13" y="210.08" width="4.85" height="4.16"/><rect class="cls-159" x="24.27" y="210.08" width="4.85" height="4.16"/><rect class="cls-193" x="19.42" y="210.08" width="4.85" height="4.16"/><rect class="cls-6" x="14.56" y="210.08" width="4.85" height="4.16"/><rect class="cls-162" x="9.71" y="210.08" width="4.85" height="4.16"/><rect class="cls-140" x="4.85" y="210.08" width="4.85" height="4.16"/><rect x="340.86" y="212.16" width="4.85" height="4.16"/><rect x="336" y="212.16" width="4.85" height="4.16"/><rect class="cls-137" x="331.15" y="212.16" width="4.85" height="4.16"/><rect class="cls-212" x="326.29" y="212.16" width="4.85" height="4.16"/><rect class="cls-15" x="321.44" y="212.16" width="4.85" height="4.16"/><rect class="cls-195" x="316.58" y="212.16" width="4.85" height="4.16"/><rect class="cls-147" x="311.73" y="212.16" width="4.85" height="4.16"/><rect class="cls-114" x="306.87" y="212.16" width="4.85" height="4.16"/><rect class="cls-126" x="302.02" y="212.16" width="4.85" height="4.16"/><rect class="cls-38" x="147.7" y="264.63" width="4.85" height="4.16"/><rect class="cls-18" x="142.85" y="264.63" width="4.85" height="4.16"/><rect class="cls-123" x="137.99" y="264.63" width="4.85" height="4.16"/><rect class="cls-26" x="133.14" y="264.63" width="4.85" height="4.16"/><rect class="cls-124" x="128.28" y="264.63" width="4.85" height="4.16"/><rect class="cls-29" x="123.43" y="264.63" width="4.85" height="4.16"/><rect class="cls-40" x="43.69" y="205.92" width="4.85" height="4.16"/><rect class="cls-91" x="38.84" y="205.92" width="4.85" height="4.16"/><rect class="cls-175" x="33.98" y="205.92" width="4.85" height="4.16"/><rect class="cls-41" x="29.13" y="205.92" width="4.85" height="4.16"/><rect class="cls-226" x="24.27" y="205.92" width="4.85" height="4.16"/><rect class="cls-172" x="19.42" y="205.92" width="4.85" height="4.16"/><rect class="cls-172" x="14.56" y="205.92" width="4.85" height="4.16"/><rect class="cls-205" x="9.71" y="205.92" width="4.85" height="4.16"/><rect class="cls-51" x="4.85" y="205.92" width="4.85" height="4.16"/><rect class="cls-57" y="205.92" width="4.85" height="4.16"/><rect x="340.86" y="208" width="4.85" height="4.16"/><rect class="cls-101" x="336" y="208" width="4.85" height="4.16"/><rect class="cls-69" x="331.15" y="208" width="4.85" height="4.16"/><rect class="cls-4" x="326.29" y="208" width="4.85" height="4.16"/><rect class="cls-105" x="321.44" y="208" width="4.85" height="4.16"/><rect class="cls-138" x="316.58" y="208" width="4.85" height="4.16"/><rect class="cls-23" x="311.73" y="208" width="4.85" height="4.16"/><rect class="cls-79" x="306.87" y="208" width="4.85" height="4.16"/><rect class="cls-16" x="302.02" y="208" width="4.85" height="4.16"/><rect class="cls-181" x="147.7" y="260.47" width="4.85" height="4.16"/><rect class="cls-55" x="142.85" y="260.47" width="4.85" height="4.16"/><rect class="cls-123" x="137.99" y="260.47" width="4.85" height="4.16"/><rect class="cls-76" x="133.14" y="260.47" width="4.85" height="4.16"/><rect class="cls-50" x="128.28" y="260.47" width="4.85" height="4.16"/><rect class="cls-123" x="123.43" y="260.47" width="4.85" height="4.16"/><rect class="cls-123" x="43.69" y="201.76" width="4.85" height="4.16"/><rect class="cls-129" x="38.84" y="201.76" width="4.85" height="4.16"/><rect class="cls-88" x="33.98" y="201.76" width="4.85" height="4.16"/><rect class="cls-219" x="29.13" y="201.76" width="4.85" height="4.16"/><rect class="cls-197" x="24.27" y="201.76" width="4.85" height="4.16"/><rect class="cls-218" x="19.42" y="201.76" width="4.85" height="4.16"/><rect class="cls-218" x="14.56" y="201.76" width="4.85" height="4.16"/><rect class="cls-97" x="9.71" y="201.76" width="4.85" height="4.16"/><rect class="cls-141" x="4.85" y="201.76" width="4.85" height="4.16"/><rect class="cls-128" y="201.76" width="4.85" height="4.16"/><rect x="345.71" y="203.84" width="4.85" height="4.16"/><rect class="cls-207" x="340.86" y="203.84" width="4.85" height="4.16"/><rect class="cls-187" x="336" y="203.84" width="4.85" height="4.16"/><rect class="cls-49" x="331.15" y="203.84" width="4.85" height="4.16"/><rect class="cls-1" x="326.29" y="203.84" width="4.85" height="4.16"/><rect class="cls-50" x="321.44" y="203.84" width="4.85" height="4.16"/><rect class="cls-123" x="316.58" y="203.84" width="4.85" height="4.16"/><rect class="cls-213" x="311.73" y="203.84" width="4.85" height="4.16"/><rect class="cls-29" x="306.87" y="203.84" width="4.85" height="4.16"/><rect class="cls-17" x="302.02" y="203.84" width="4.85" height="4.16"/><rect class="cls-123" x="147.7" y="256.31" width="4.85" height="4.16"/><rect class="cls-213" x="142.85" y="256.31" width="4.85" height="4.16"/><rect class="cls-92" x="137.99" y="256.31" width="4.85" height="4.16"/><rect class="cls-55" x="133.14" y="256.31" width="4.85" height="4.16"/><rect class="cls-214" x="128.28" y="256.31" width="4.85" height="4.16"/><rect class="cls-29" x="123.43" y="256.31" width="4.85" height="4.16"/><rect class="cls-123" x="43.69" y="197.6" width="4.85" height="4.16"/><rect class="cls-227" x="38.84" y="197.6" width="4.85" height="4.16"/><rect class="cls-222" x="33.98" y="197.6" width="4.85" height="4.16"/><rect class="cls-37" x="29.13" y="197.6" width="4.85" height="4.16"/><rect class="cls-166" x="24.27" y="197.6" width="4.85" height="4.16"/><rect class="cls-192" x="19.42" y="197.6" width="4.85" height="4.16"/><rect class="cls-192" x="14.56" y="197.6" width="4.85" height="4.16"/><rect class="cls-12" x="9.71" y="197.6" width="4.85" height="4.16"/><rect class="cls-178" x="4.85" y="197.6" width="4.85" height="4.16"/><rect class="cls-116" y="197.6" width="4.85" height="4.16"/><rect class="cls-215" x="345.71" y="199.68" width="4.85" height="4.16"/><rect class="cls-109" x="340.86" y="199.68" width="4.85" height="4.16"/><rect class="cls-120" x="336" y="199.68" width="4.85" height="4.16"/><rect class="cls-71" x="331.15" y="199.68" width="4.85" height="4.16"/><rect class="cls-107" x="326.29" y="199.68" width="4.85" height="4.16"/><rect class="cls-105" x="321.44" y="199.68" width="4.85" height="4.16"/><rect class="cls-123" x="316.58" y="199.68" width="4.85" height="4.16"/><rect class="cls-105" x="311.73" y="199.68" width="4.85" height="4.16"/><rect class="cls-213" x="306.87" y="199.68" width="4.85" height="4.16"/><rect class="cls-124" x="302.02" y="199.68" width="4.85" height="4.16"/><rect class="cls-216" x="147.7" y="252.15" width="4.85" height="4.16"/><rect class="cls-44" x="142.85" y="252.15" width="4.85" height="4.16"/><rect class="cls-63" x="137.99" y="252.15" width="4.85" height="4.16"/><rect class="cls-32" x="133.14" y="252.15" width="4.85" height="4.16"/><rect class="cls-151" x="128.28" y="252.15" width="4.85" height="4.16"/><rect class="cls-204" x="123.43" y="252.15" width="4.85" height="4.16"/><rect class="cls-213" x="43.69" y="193.44" width="4.85" height="4.16"/><rect class="cls-35" x="38.84" y="193.44" width="4.85" height="4.16"/><rect class="cls-125" x="33.98" y="193.44" width="4.85" height="4.16"/><rect class="cls-177" x="29.13" y="193.44" width="4.85" height="4.16"/><rect class="cls-155" x="24.27" y="193.44" width="4.85" height="4.16"/><rect class="cls-60" x="19.42" y="193.44" width="4.85" height="4.16"/><rect class="cls-175" x="14.56" y="193.44" width="4.85" height="4.16"/><rect class="cls-61" x="9.71" y="193.44" width="4.85" height="4.16"/><rect class="cls-76" x="4.85" y="193.44" width="4.85" height="4.16"/><rect class="cls-90" y="193.44" width="4.85" height="4.16"/><rect class="cls-209" x="345.71" y="195.52" width="4.85" height="4.16"/><rect class="cls-118" x="340.86" y="195.52" width="4.85" height="4.16"/><rect class="cls-100" x="336" y="195.52" width="4.85" height="4.16"/><rect class="cls-113" x="331.15" y="195.52" width="4.85" height="4.16"/><rect class="cls-86" x="326.29" y="195.52" width="4.85" height="4.16"/><rect class="cls-123" x="321.44" y="195.52" width="4.85" height="4.16"/><rect class="cls-123" x="316.58" y="195.52" width="4.85" height="4.16"/><rect class="cls-67" x="311.73" y="195.52" width="4.85" height="4.16"/><rect class="cls-123" x="306.87" y="195.52" width="4.85" height="4.16"/><rect class="cls-10" x="302.02" y="195.52" width="4.85" height="4.16"/><rect class="cls-16" x="147.7" y="247.99" width="4.85" height="4.16"/><rect class="cls-228" x="142.85" y="247.99" width="4.85" height="4.16"/><rect class="cls-52" x="137.99" y="247.99" width="4.85" height="4.16"/><rect class="cls-228" x="133.14" y="247.99" width="4.85" height="4.16"/><rect class="cls-104" x="128.28" y="247.99" width="4.85" height="4.16"/><rect class="cls-9" x="123.43" y="247.99" width="4.85" height="4.16"/><rect class="cls-46" x="43.69" y="189.28" width="4.85" height="4.16"/><rect class="cls-123" x="38.84" y="189.28" width="4.85" height="4.16"/><rect class="cls-123" x="33.98" y="189.28" width="4.85" height="4.16"/><rect class="cls-165" x="29.13" y="189.28" width="4.85" height="4.16"/><rect class="cls-14" x="24.27" y="189.28" width="4.85" height="4.16"/><rect class="cls-64" x="19.42" y="189.28" width="4.85" height="4.16"/><rect class="cls-102" x="14.56" y="189.28" width="4.85" height="4.16"/><rect class="cls-70" x="9.71" y="189.28" width="4.85" height="4.16"/><rect class="cls-124" x="4.85" y="189.28" width="4.85" height="4.16"/><rect y="189.28" width="4.85" height="4.16"/><rect x="345.71" y="191.36" width="4.85" height="4.16"/><rect class="cls-177" x="340.86" y="191.36" width="4.85" height="4.16"/><rect class="cls-34" x="336" y="191.36" width="4.85" height="4.16"/><rect class="cls-42" x="331.15" y="191.36" width="4.85" height="4.16"/><rect class="cls-119" x="326.29" y="191.36" width="4.85" height="4.16"/><rect class="cls-123" x="321.44" y="191.36" width="4.85" height="4.16"/><rect class="cls-29" x="316.58" y="191.36" width="4.85" height="4.16"/><rect class="cls-26" x="311.73" y="191.36" width="4.85" height="4.16"/><rect class="cls-206" x="306.87" y="191.36" width="4.85" height="4.16"/><rect class="cls-190" x="302.02" y="191.36" width="4.85" height="4.16"/><rect class="cls-5" x="147.7" y="243.83" width="4.85" height="4.16"/><rect class="cls-229" x="142.85" y="243.83" width="4.85" height="4.16"/><rect class="cls-114" x="137.99" y="243.83" width="4.85" height="4.16"/><rect class="cls-89" x="133.14" y="243.83" width="4.85" height="4.16"/><rect class="cls-94" x="128.28" y="243.83" width="4.85" height="4.16"/><rect class="cls-38" x="123.43" y="243.83" width="4.85" height="4.16"/><rect class="cls-13" x="43.69" y="185.12" width="4.85" height="4.16"/><rect class="cls-106" x="38.84" y="185.12" width="4.85" height="4.16"/><rect class="cls-123" x="33.98" y="185.12" width="4.85" height="4.16"/><rect class="cls-29" x="29.13" y="185.12" width="4.85" height="4.16"/><rect class="cls-99" x="24.27" y="185.12" width="4.85" height="4.16"/><rect class="cls-7" x="19.42" y="185.12" width="4.85" height="4.16"/><rect class="cls-40" x="14.56" y="185.12" width="4.85" height="4.16"/><rect class="cls-214" x="9.71" y="185.12" width="4.85" height="4.16"/><rect x="345.71" y="187.2" width="4.85" height="4.16"/><rect class="cls-182" x="340.86" y="187.2" width="4.85" height="4.16"/><rect class="cls-110" x="336" y="187.2" width="4.85" height="4.16"/><rect class="cls-54" x="331.15" y="187.2" width="4.85" height="4.16"/><rect class="cls-224" x="326.29" y="187.2" width="4.85" height="4.16"/><rect class="cls-7" x="321.44" y="187.2" width="4.85" height="4.16"/><rect class="cls-225" x="316.58" y="187.2" width="4.85" height="4.16"/><rect class="cls-32" x="311.73" y="187.2" width="4.85" height="4.16"/><rect class="cls-52" x="306.87" y="187.2" width="4.85" height="4.16"/><rect class="cls-24" x="302.02" y="187.2" width="4.85" height="4.16"/><rect class="cls-161" x="147.7" y="239.67" width="4.85" height="4.16"/><rect class="cls-5" x="142.85" y="239.67" width="4.85" height="4.16"/><rect class="cls-228" x="137.99" y="239.67" width="4.85" height="4.16"/><rect class="cls-80" x="133.14" y="239.67" width="4.85" height="4.16"/><rect class="cls-158" x="128.28" y="239.67" width="4.85" height="4.16"/><rect class="cls-43" x="123.43" y="239.67" width="4.85" height="4.16"/><rect class="cls-190" x="43.69" y="180.96" width="4.85" height="4.16"/><rect class="cls-13" x="38.84" y="180.96" width="4.85" height="4.16"/><rect class="cls-188" x="33.98" y="180.96" width="4.85" height="4.16"/><rect class="cls-73" x="29.13" y="180.96" width="4.85" height="4.16"/><rect class="cls-74" x="24.27" y="180.96" width="4.85" height="4.16"/><rect class="cls-138" x="19.42" y="180.96" width="4.85" height="4.16"/><rect class="cls-191" x="14.56" y="180.96" width="4.85" height="4.16"/><rect class="cls-36" x="9.71" y="180.96" width="4.85" height="4.16"/><rect x="259.35" y="120.64" width="4.85" height="4.16"/><rect class="cls-82" x="254.5" y="120.64" width="4.85" height="4.16"/><rect class="cls-134" x="249.64" y="120.64" width="4.85" height="4.16"/><rect class="cls-30" x="244.79" y="120.64" width="4.85" height="4.16"/><rect class="cls-206" x="239.94" y="120.64" width="4.85" height="4.16"/><rect class="cls-103" x="235.08" y="120.64" width="4.85" height="4.16"/><rect class="cls-149" x="230.23" y="120.64" width="4.85" height="4.16"/><rect class="cls-27" x="225.37" y="120.64" width="4.85" height="4.16"/><rect class="cls-135" x="220.52" y="120.64" width="4.85" height="4.16"/><rect class="cls-142" x="58.25" y="70.72" width="4.85" height="4.16"/><rect class="cls-228" x="53.4" y="70.72" width="4.85" height="4.16"/><rect class="cls-180" x="48.55" y="70.72" width="4.85" height="4.16"/><rect class="cls-176" x="43.69" y="70.72" width="4.85" height="4.16"/><rect class="cls-33" x="38.84" y="70.72" width="4.85" height="4.16"/><rect class="cls-13" x="33.98" y="70.72" width="4.85" height="4.16"/><rect class="cls-8" x="29.13" y="70.72" width="4.85" height="4.16"/><rect class="cls-33" x="24.27" y="70.72" width="4.85" height="4.16"/><rect class="cls-55" x="19.42" y="70.72" width="4.85" height="4.16"/><rect class="cls-55" x="14.56" y="70.72" width="4.85" height="4.16"/><rect class="cls-18" x="9.71" y="70.72" width="4.85" height="4.16"/><rect class="cls-68" x="4.85" y="70.72" width="4.85" height="4.16"/><rect x="259.35" y="116.48" width="4.85" height="4.16"/><rect class="cls-189" x="254.5" y="116.48" width="4.85" height="4.16"/><rect class="cls-124" x="249.64" y="116.48" width="4.85" height="4.16"/><rect class="cls-170" x="244.79" y="116.48" width="4.85" height="4.16"/><rect class="cls-179" x="239.94" y="116.48" width="4.85" height="4.16"/><rect class="cls-228" x="235.08" y="116.48" width="4.85" height="4.16"/><rect class="cls-147" x="230.23" y="116.48" width="4.85" height="4.16"/><rect class="cls-24" x="225.37" y="116.48" width="4.85" height="4.16"/><rect class="cls-190" x="220.52" y="116.48" width="4.85" height="4.16"/><rect class="cls-208" x="58.25" y="66.56" width="4.85" height="4.16"/><rect class="cls-203" x="53.4" y="66.56" width="4.85" height="4.16"/><rect class="cls-31" x="48.55" y="66.56" width="4.85" height="4.16"/><rect class="cls-85" x="43.69" y="66.56" width="4.85" height="4.16"/><rect class="cls-179" x="38.84" y="66.56" width="4.85" height="4.16"/><rect class="cls-48" x="33.98" y="66.56" width="4.85" height="4.16"/><rect class="cls-190" x="29.13" y="66.56" width="4.85" height="4.16"/><rect class="cls-55" x="24.27" y="66.56" width="4.85" height="4.16"/><rect class="cls-18" x="19.42" y="66.56" width="4.85" height="4.16"/><rect class="cls-26" x="14.56" y="66.56" width="4.85" height="4.16"/><rect class="cls-73" x="9.71" y="66.56" width="4.85" height="4.16"/><rect class="cls-36" x="4.85" y="66.56" width="4.85" height="4.16"/><rect x="254.5" y="112.32" width="4.85" height="4.16"/><rect x="249.64" y="112.32" width="4.85" height="4.16"/><rect class="cls-212" x="244.79" y="112.32" width="4.85" height="4.16"/><rect class="cls-26" x="239.94" y="112.32" width="4.85" height="4.16"/><rect class="cls-53" x="235.08" y="112.32" width="4.85" height="4.16"/><rect class="cls-84" x="230.23" y="112.32" width="4.85" height="4.16"/><rect class="cls-22" x="225.37" y="112.32" width="4.85" height="4.16"/><rect class="cls-22" x="220.52" y="112.32" width="4.85" height="4.16"/><rect class="cls-228" x="58.25" y="62.4" width="4.85" height="4.16"/><rect class="cls-142" x="53.4" y="62.4" width="4.85" height="4.16"/><rect class="cls-228" x="48.55" y="62.4" width="4.85" height="4.16"/><rect class="cls-43" x="43.69" y="62.4" width="4.85" height="4.16"/><rect class="cls-108" x="38.84" y="62.4" width="4.85" height="4.16"/><rect class="cls-179" x="33.98" y="62.4" width="4.85" height="4.16"/><rect class="cls-124" x="29.13" y="62.4" width="4.85" height="4.16"/><rect class="cls-18" x="24.27" y="62.4" width="4.85" height="4.16"/><rect class="cls-106" x="19.42" y="62.4" width="4.85" height="4.16"/><rect class="cls-26" x="14.56" y="62.4" width="4.85" height="4.16"/><rect class="cls-68" x="9.71" y="62.4" width="4.85" height="4.16"/><rect x="237.51" y="47.84" width="4.85" height="4.16"/><rect class="cls-152" x="232.65" y="47.84" width="4.85" height="4.16"/><rect class="cls-18" x="227.8" y="47.84" width="4.85" height="4.16"/><rect class="cls-225" x="222.94" y="47.84" width="4.85" height="4.16"/><rect class="cls-158" x="218.09" y="47.84" width="4.85" height="4.16"/><rect class="cls-196" x="213.24" y="47.84" width="4.85" height="4.16"/><rect class="cls-48" x="208.38" y="47.84" width="4.85" height="4.16"/><rect class="cls-147" x="203.53" y="47.84" width="4.85" height="4.16"/><rect class="cls-228" x="53.4" y="58.24" width="4.85" height="4.16"/><rect class="cls-5" x="48.55" y="58.24" width="4.85" height="4.16"/><rect class="cls-31" x="43.69" y="58.24" width="4.85" height="4.16"/><rect class="cls-23" x="38.84" y="58.24" width="4.85" height="4.16"/><rect class="cls-10" x="33.98" y="58.24" width="4.85" height="4.16"/><rect class="cls-138" x="29.13" y="58.24" width="4.85" height="4.16"/><rect class="cls-56" x="24.27" y="58.24" width="4.85" height="4.16"/><rect class="cls-123" x="19.42" y="58.24" width="4.85" height="4.16"/><rect class="cls-170" x="14.56" y="58.24" width="4.85" height="4.16"/><rect class="cls-174" x="9.71" y="58.24" width="4.85" height="4.16"/><rect x="237.51" y="43.68" width="4.85" height="4.16"/><rect x="232.65" y="43.68" width="4.85" height="4.16"/><rect class="cls-173" x="227.8" y="43.68" width="4.85" height="4.16"/><rect class="cls-225" x="222.94" y="43.68" width="4.85" height="4.16"/><rect class="cls-18" x="218.09" y="43.68" width="4.85" height="4.16"/><rect class="cls-35" x="213.24" y="43.68" width="4.85" height="4.16"/><rect class="cls-127" x="208.38" y="43.68" width="4.85" height="4.16"/><rect class="cls-212" x="203.53" y="43.68" width="4.85" height="4.16"/><rect class="cls-130" x="53.4" y="54.08" width="4.85" height="4.16"/><rect class="cls-185" x="48.55" y="54.08" width="4.85" height="4.16"/><rect class="cls-70" x="43.69" y="54.08" width="4.85" height="4.16"/><rect class="cls-18" x="38.84" y="54.08" width="4.85" height="4.16"/><rect class="cls-225" x="33.98" y="54.08" width="4.85" height="4.16"/><rect class="cls-124" x="29.13" y="54.08" width="4.85" height="4.16"/><rect class="cls-115" x="24.27" y="54.08" width="4.85" height="4.16"/><rect class="cls-154" x="19.42" y="54.08" width="4.85" height="4.16"/><rect class="cls-68" x="14.56" y="54.08" width="4.85" height="4.16"/><rect x="232.65" y="39.52" width="4.85" height="4.16"/><rect class="cls-58" x="227.8" y="39.52" width="4.85" height="4.16"/><rect class="cls-191" x="222.94" y="39.52" width="4.85" height="4.16"/><rect class="cls-18" x="218.09" y="39.52" width="4.85" height="4.16"/><rect class="cls-98" x="213.24" y="39.52" width="4.85" height="4.16"/><rect class="cls-55" x="208.38" y="39.52" width="4.85" height="4.16"/><rect class="cls-18" x="203.53" y="39.52" width="4.85" height="4.16"/><rect class="cls-115" x="53.4" y="49.92" width="4.85" height="4.16"/><rect class="cls-18" x="48.55" y="49.92" width="4.85" height="4.16"/><rect class="cls-217" x="43.69" y="49.92" width="4.85" height="4.16"/><rect class="cls-26" x="38.84" y="49.92" width="4.85" height="4.16"/><rect class="cls-18" x="33.98" y="49.92" width="4.85" height="4.16"/><rect class="cls-55" x="29.13" y="49.92" width="4.85" height="4.16"/><rect class="cls-169" x="24.27" y="49.92" width="4.85" height="4.16"/><rect class="cls-68" x="19.42" y="49.92" width="4.85" height="4.16"/><rect x="227.8" y="35.36" width="4.85" height="4.16"/><rect x="222.94" y="35.36" width="4.85" height="4.16"/><rect class="cls-116" x="218.09" y="35.36" width="4.85" height="4.16"/><rect class="cls-18" x="213.24" y="35.36" width="4.85" height="4.16"/><rect class="cls-18" x="208.38" y="35.36" width="4.85" height="4.16"/><rect class="cls-55" x="203.53" y="35.36" width="4.85" height="4.16"/><rect class="cls-225" x="53.4" y="45.76" width="4.85" height="4.16"/><rect class="cls-18" x="48.55" y="45.76" width="4.85" height="4.16"/><rect class="cls-170" x="43.69" y="45.76" width="4.85" height="4.16"/><rect class="cls-18" x="38.84" y="45.76" width="4.85" height="4.16"/><rect class="cls-18" x="33.98" y="45.76" width="4.85" height="4.16"/><rect class="cls-7" x="29.13" y="45.76" width="4.85" height="4.16"/><rect class="cls-102" x="24.27" y="45.76" width="4.85" height="4.16"/><rect class="cls-112" x="19.42" y="45.76" width="4.85" height="4.16"/><rect x="222.94" y="31.2" width="4.85" height="4.16"/><rect x="218.09" y="31.2" width="4.85" height="4.16"/><rect class="cls-198" x="213.24" y="31.2" width="4.85" height="4.16"/><rect class="cls-174" x="208.38" y="31.2" width="4.85" height="4.16"/><rect class="cls-144" x="203.53" y="31.2" width="4.85" height="4.16"/><rect class="cls-7" x="53.4" y="41.6" width="4.85" height="4.16"/><rect class="cls-201" x="48.55" y="41.6" width="4.85" height="4.16"/><rect class="cls-53" x="43.69" y="41.6" width="4.85" height="4.16"/><rect class="cls-212" x="38.84" y="41.6" width="4.85" height="4.16"/><rect class="cls-44" x="33.98" y="41.6" width="4.85" height="4.16"/><rect class="cls-56" x="29.13" y="41.6" width="4.85" height="4.16"/><rect class="cls-148" x="24.27" y="41.6" width="4.85" height="4.16"/><rect x="208.38" y="27.04" width="4.85" height="4.16"/><rect class="cls-59" x="203.53" y="27.04" width="4.85" height="4.16"/><rect class="cls-58" x="53.4" y="37.44" width="4.85" height="4.16"/><rect class="cls-87" x="48.55" y="37.44" width="4.85" height="4.16"/><rect class="cls-56" x="43.69" y="37.44" width="4.85" height="4.16"/><rect class="cls-56" x="38.84" y="37.44" width="4.85" height="4.16"/><rect class="cls-56" x="33.98" y="37.44" width="4.85" height="4.16"/><rect class="cls-56" x="29.13" y="37.44" width="4.85" height="4.16"/><rect x="203.53" y="22.88" width="4.85" height="4.16"/><rect class="cls-45" x="53.4" y="33.28" width="4.85" height="4.16"/><rect class="cls-169" x="48.55" y="33.28" width="4.85" height="4.16"/><rect class="cls-18" x="43.69" y="33.28" width="4.85" height="4.16"/><rect class="cls-116" x="38.84" y="33.28" width="4.85" height="4.16"/><rect class="cls-191" x="33.98" y="33.28" width="4.85" height="4.16"/><rect class="cls-163" x="29.13" y="33.28" width="4.85" height="4.16"/><rect x="53.4" y="29.12" width="4.85" height="4.16"/><rect class="cls-198" x="48.55" y="29.12" width="4.85" height="4.16"/><rect class="cls-11" x="43.69" y="29.12" width="4.85" height="4.16"/><rect class="cls-65" x="38.84" y="29.12" width="4.85" height="4.16"/><rect class="cls-150" x="33.98" y="29.12" width="4.85" height="4.16"/><rect class="cls-200" x="29.13" y="29.12" width="4.85" height="4.16"/><rect x="53.4" y="24.96" width="4.85" height="4.16"/><rect class="cls-21" x="48.55" y="24.96" width="4.85" height="4.16"/><rect class="cls-122" x="43.69" y="24.96" width="4.85" height="4.16"/><rect class="cls-95" x="38.84" y="24.96" width="4.85" height="4.16"/><rect class="cls-183" x="33.98" y="24.96" width="4.85" height="4.16"/><rect class="cls-28" x="29.13" y="24.96" width="4.85" height="4.16"/><rect class="cls-136" x="48.55" y="20.8" width="4.85" height="4.16"/><rect class="cls-167" x="43.69" y="20.8" width="4.85" height="4.16"/><rect class="cls-157" x="38.84" y="20.8" width="4.85" height="4.16"/><rect class="cls-156" x="33.98" y="20.8" width="4.85" height="4.16"/><rect class="cls-133" x="29.13" y="20.8" width="4.85" height="4.16"/><rect class="cls-78" x="43.69" y="16.64" width="4.85" height="4.16"/><rect class="cls-210" x="38.84" y="16.64" width="4.85" height="4.16"/><rect class="cls-184" x="33.98" y="16.64" width="4.85" height="4.16"/><rect class="cls-81" x="43.69" y="12.48" width="4.85" height="4.16"/><rect class="cls-72" x="38.84" y="12.48" width="4.85" height="4.16"/><rect class="cls-20" x="33.98" y="12.48" width="4.85" height="4.16"/><rect x="43.69" y="8.32" width="4.85" height="4.16"/><rect class="cls-215" x="38.84" y="8.32" width="4.85" height="4.16"/><rect x="43.69" y="4.16" width="4.85" height="4.16"/><rect x="38.84" y="4.16" width="4.85" height="4.16"/><rect x="43.69" width="4.85" height="4.16"/></g></g></svg>