<?xml version="1.0" encoding="UTF-8"?><svg id="Layer_2" xmlns="http://www.w3.org/2000/svg" viewBox="0 0 183.12 223.31"><defs><style>.cls-1{fill:#a34116;}.cls-2{fill:#8b070a;}.cls-3{fill:#3b0203;}.cls-4{fill:#1d0e0e;}.cls-5{fill:#595858;}.cls-6{fill:#b0090d;}.cls-7{fill:#343434;}.cls-8{fill:#6c6c6c;}.cls-9{fill:#555;}.cls-10{fill:#474646;}.cls-11{fill:#918249;}.cls-12{fill:#130000;}.cls-13{fill:#5b5a5a;}.cls-14{fill:#030202;}.cls-15{fill:#3d3e3e;}.cls-16{fill:#585858;}.cls-17{fill:#363737;}.cls-18{fill:#3d3d3d;}.cls-19{fill:#6a1313;}.cls-20{fill:#4e0f12;}.cls-21{fill:#2a0708;}.cls-22{fill:#727272;}.cls-23{fill:#575757;}.cls-24{fill:#545353;}.cls-25{fill:#3a3b3a;}.cls-26{fill:#3f3f3f;}.cls-27{fill:#666566;}.cls-28{fill:#501013;}.cls-29{fill:#424342;}.cls-30{fill:#3b3c3b;}.cls-31{fill:#5e5d5d;}.cls-32{fill:#585758;}.cls-33{fill:#565656;}.cls-34{fill:#631513;}.cls-35{fill:#363636;}.cls-36{fill:#0c0c0c;}.cls-37{fill:#0a0000;}.cls-38{fill:#5f5e5e;}.cls-39{fill:#49403c;}.cls-40{fill:#404241;}.cls-41{fill:#250001;}.cls-42{fill:#bf5c1a;}.cls-43{fill:#5c5c5c;}.cls-44{fill:#4b4b4b;}.cls-45{fill:#222;}.cls-46{fill:#3e3f3f;}.cls-47{fill:#040404;}.cls-48{fill:#5f5f5f;}.cls-49{fill:#912e15;}.cls-50{fill:#404140;}.cls-51{fill:#1c0000;}.cls-52{fill:#5c5b5b;}.cls-53{fill:#4a4a4a;}.cls-54{fill:#771d12;}.cls-55{fill:#3e3e3e;}.cls-56{fill:#4d4d4d;}.cls-57{fill:#323232;}.cls-58{fill:#020202;}.cls-59{fill:#151515;}.cls-60{fill:#0d0000;}.cls-61{fill:#040000;}.cls-62{fill:#757474;}.cls-63{fill:#5f5e5f;}.cls-64{fill:#020000;}.cls-65{fill:#6c6645;}.cls-66{fill:#2b080a;}.cls-67{fill:#424343;}.cls-68{fill:#0a0a0a;}.cls-69{fill:#0d0202;}.cls-70{fill:#303030;}.cls-71{fill:#bc5b1c;}.cls-72{fill:#0d0203;}.cls-73{fill:#393939;}.cls-74{fill:#373837;}.cls-75{fill:#6e6d6d;}.cls-76{fill:#343534;}.cls-77{fill:#1f0102;}.cls-78{fill:#29080a;}.cls-79{fill:#656565;}.cls-80{fill:#5d5c5c;}.cls-81{fill:#0f0303;}.cls-82{fill:#383737;}.cls-83{fill:#6b6b6b;}.cls-84{fill:#5a595a;}.cls-85{fill:#696969;}.cls-86{fill:#fdec5e;}.cls-87{fill:#1b1b1b;}.cls-88{fill:#080000;}.cls-89{fill:#707070;}.cls-90{fill:#111;}.cls-91{fill:#333;}.cls-92{fill:#3b3c3c;}.cls-93{fill:#404141;}.cls-94{fill:#646464;}.cls-95{fill:#a64216;}.cls-96{fill:#621212;}.cls-97{fill:#410203;}.cls-98{fill:#2a2a2a;}.cls-99{fill:#383a39;}.cls-100{fill:#6b1113;}.cls-101{fill:#030303;}.cls-102{fill:#101010;}.cls-103{fill:#626262;}.cls-104{fill:#5d5c5d;}.cls-105{fill:#414241;}.cls-106{fill:#444;}.cls-107{fill:#f4b72a;}.cls-108{fill:#5a5a5a;}.cls-109{fill:#280709;}.cls-110{fill:#520f13;}.cls-111{fill:#0d0d0d;}.cls-112{fill:#080808;}.cls-113{fill:#df862b;}.cls-114{fill:#787878;}.cls-115{fill:#3d3c3c;}.cls-116{fill:#272727;}.cls-117{fill:#5c5b5c;}.cls-118{fill:#4f1013;}.cls-119{fill:#e59933;}.cls-120{fill:#5d1013;}.cls-121{fill:#410c0e;}.cls-122{fill:#993616;}.cls-123{fill:#424242;}.cls-124{fill:#414141;}.cls-125{fill:#2b2b2b;}.cls-126{fill:#676767;}.cls-127{fill:#3a3a3a;}.cls-128{fill:#363736;}.cls-129{fill:#3c3d3c;}.cls-130{fill:#414040;}.cls-131{fill:#220101;}.cls-132{fill:#6a6969;}.cls-133{fill:#490e11;}.cls-134{fill:#3e3e3d;}.cls-135{fill:#575656;}.cls-136{fill:#380b0d;}.cls-137{fill:#373636;}.cls-138{fill:#3b3b3b;}.cls-139{fill:#8f2e15;}.cls-140{fill:#150001;}.cls-141{fill:#0e0000;}.cls-142{fill:#605f5f;}.cls-143{fill:#464646;}.cls-144{fill:#212121;}.cls-145{fill:#4f0e11;}.cls-146{fill:#aa090d;}.cls-147{fill:#5d5d5d;}.cls-148{fill:#0e0e0e;}.cls-149{fill:#616161;}.cls-150{fill:#cc8b28;}.cls-151{fill:#555454;}.cls-152{fill:#1d1d1d;}.cls-153{fill:#403f40;}.cls-154{fill:#121212;}.cls-155{fill:#070000;}.cls-156{fill:#6e1413;}.cls-157{fill:#7c1a13;}.cls-158{fill:#535252;}.cls-159{fill:#670507;}.cls-160{fill:#2d090a;}.cls-161{fill:#636363;}.cls-162{fill:#8e080a;}.cls-163{fill:#050505;}.cls-164{fill:#640507;}.cls-165{fill:#161616;}.cls-166{fill:#0f0000;}.cls-167{fill:#6c1513;}.cls-168{fill:#2a2929;}.cls-169{fill:#2d2d2d;}.cls-170{fill:#383838;}.cls-171{fill:#090203;}.cls-172{fill:#7d0709;}.cls-173{fill:#292929;}.cls-174{fill:#0b0b0b;}.cls-175{fill:#0c0000;}.cls-176{fill:#767575;}.cls-177{fill:#030000;}.cls-178{fill:#252525;}.cls-179{fill:#5a5959;}.cls-180{fill:#595859;}.cls-181{fill:#414140;}.cls-182{fill:#220708;}.cls-183{fill:#902d15;}.cls-184{fill:#4d0f12;}.cls-185{fill:#3f3e3e;}.cls-186{fill:#191919;}.cls-187{fill:#4d0f11;}.cls-188{fill:#484747;}.cls-189{fill:#303230;}.cls-190{fill:#606060;}.cls-191{fill:#1a1a1a;}.cls-192{fill:#160000;}.cls-193{fill:#af090d;}.cls-194{fill:#515051;}.cls-195{fill:#484748;}.cls-196{fill:#565555;}.cls-197{fill:#2a0101;}.cls-198{fill:#070707;}.cls-199{fill:#180405;}.cls-200{fill:#1e0405;}.cls-201{fill:#484848;}.cls-202{fill:#8a8a8a;}.cls-203{fill:#6d6d6d;}.cls-204{fill:#3d3e3d;}.cls-205{fill:#650507;}.cls-206{fill:#595959;}.cls-207{fill:#30090b;}.cls-208{fill:#6e6e6e;}.cls-209{fill:#330a0c;}.cls-210{fill:#420d0f;}.cls-211{fill:#5b5b5b;}.cls-212{fill:#404040;}.cls-213{fill:#414242;}.cls-214{fill:#3a3b3b;}.cls-215{fill:#070101;}.cls-216{fill:#3c3d3d;}.cls-217{fill:#1e1e1e;}.cls-218{fill:#530405;}.cls-219{fill:#180000;}.cls-220{fill:#a9090d;}.cls-221{fill:#9c3916;}.cls-222{fill:#010101;}.cls-223{fill:#540405;}.cls-224{fill:#7c2a10;}.cls-225{fill:#3c3c3c;}.cls-226{fill:#440304;}.cls-227{fill:#3e3f3e;}.cls-228{fill:#5e5e5e;}.cls-229{fill:#6d6c6d;}.cls-230{fill:#390203;}.cls-231{fill:#656465;}</style></defs><g id="Layer_1-2"><g><rect x="105.64" y="217.27" width="7.04" height="6.04"/><rect class="cls-66" x="98.6" y="217.27" width="7.04" height="6.04"/><rect class="cls-215" x="91.56" y="217.27" width="7.04" height="6.04"/><rect class="cls-199" x="105.64" y="211.24" width="7.04" height="6.04"/><rect class="cls-96" x="98.6" y="211.24" width="7.04" height="6.04"/><rect class="cls-145" x="91.56" y="211.24" width="7.04" height="6.04"/><rect class="cls-121" x="84.52" y="211.24" width="7.04" height="6.04"/><rect class="cls-160" x="105.64" y="205.2" width="7.04" height="6.04"/><rect class="cls-139" x="98.6" y="205.2" width="7.04" height="6.04"/><rect class="cls-221" x="91.56" y="205.2" width="7.04" height="6.04"/><rect class="cls-19" x="84.52" y="205.2" width="7.04" height="6.04"/><rect x="105.64" y="199.17" width="7.04" height="6.04"/><rect class="cls-39" x="98.6" y="199.17" width="7.04" height="6.04"/><rect class="cls-35" x="91.56" y="199.17" width="7.04" height="6.04"/><rect class="cls-168" x="84.52" y="199.17" width="7.04" height="6.04"/><rect x="112.69" y="193.13" width="7.04" height="6.04"/><rect class="cls-163" x="105.64" y="193.13" width="7.04" height="6.04"/><rect class="cls-73" x="98.6" y="193.13" width="7.04" height="6.04"/><rect class="cls-35" x="91.56" y="193.13" width="7.04" height="6.04"/><rect class="cls-45" x="84.52" y="193.13" width="7.04" height="6.04"/><rect class="cls-217" x="77.47" y="193.13" width="7.04" height="6.04"/><rect class="cls-111" x="70.43" y="193.13" width="7.04" height="6.04"/><rect class="cls-47" x="63.39" y="193.13" width="7.04" height="6.04"/><rect x="119.73" y="187.1" width="7.04" height="6.04"/><rect class="cls-174" x="112.69" y="187.1" width="7.04" height="6.04"/><rect class="cls-26" x="105.64" y="187.1" width="7.04" height="6.04"/><rect class="cls-126" x="98.6" y="187.1" width="7.04" height="6.04"/><rect class="cls-142" x="91.56" y="187.1" width="7.04" height="6.04"/><rect class="cls-48" x="84.52" y="187.1" width="7.04" height="6.04"/><rect class="cls-194" x="77.47" y="187.1" width="7.04" height="6.04"/><rect class="cls-125" x="70.43" y="187.1" width="7.04" height="6.04"/><rect class="cls-57" x="63.39" y="187.1" width="7.04" height="6.04"/><rect class="cls-186" x="56.34" y="187.1" width="7.04" height="6.04"/><rect x="49.3" y="187.1" width="7.04" height="6.04"/><rect x="126.77" y="181.06" width="7.04" height="6.04"/><rect class="cls-75" x="119.73" y="181.06" width="7.04" height="6.04"/><rect class="cls-108" x="112.69" y="181.06" width="7.04" height="6.04"/><rect class="cls-80" x="105.64" y="181.06" width="7.04" height="6.04"/><rect class="cls-83" x="98.6" y="181.06" width="7.04" height="6.04"/><rect class="cls-38" x="91.56" y="181.06" width="7.04" height="6.04"/><rect class="cls-48" x="84.52" y="181.06" width="7.04" height="6.04"/><rect class="cls-211" x="77.47" y="181.06" width="7.04" height="6.04"/><rect class="cls-108" x="70.43" y="181.06" width="7.04" height="6.04"/><rect class="cls-117" x="63.39" y="181.06" width="7.04" height="6.04"/><rect class="cls-143" x="56.34" y="181.06" width="7.04" height="6.04"/><rect class="cls-18" x="49.3" y="181.06" width="7.04" height="6.04"/><rect class="cls-174" x="42.26" y="181.06" width="7.04" height="6.04"/><rect class="cls-153" x="126.77" y="175.02" width="7.04" height="6.04"/><rect class="cls-103" x="119.73" y="175.02" width="7.04" height="6.04"/><rect class="cls-31" x="112.69" y="175.02" width="7.04" height="6.04"/><rect class="cls-5" x="105.64" y="175.02" width="7.04" height="6.04"/><rect class="cls-179" x="98.6" y="175.02" width="7.04" height="6.04"/><rect class="cls-211" x="91.56" y="175.02" width="7.04" height="6.04"/><rect class="cls-43" x="84.52" y="175.02" width="7.04" height="6.04"/><rect class="cls-132" x="77.47" y="175.02" width="7.04" height="6.04"/><rect class="cls-206" x="70.43" y="175.02" width="7.04" height="6.04"/><rect class="cls-63" x="63.39" y="175.02" width="7.04" height="6.04"/><rect class="cls-206" x="56.34" y="175.02" width="7.04" height="6.04"/><rect class="cls-18" x="49.3" y="175.02" width="7.04" height="6.04"/><rect class="cls-225" x="42.26" y="175.02" width="7.04" height="6.04"/><rect class="cls-154" x="35.21" y="175.02" width="7.04" height="6.04"/><rect class="cls-62" x="133.82" y="168.99" width="7.04" height="6.04"/><rect class="cls-79" x="126.77" y="168.99" width="7.04" height="6.04"/><rect class="cls-147" x="119.73" y="168.99" width="7.04" height="6.04"/><rect class="cls-147" x="112.69" y="168.99" width="7.04" height="6.04"/><rect class="cls-31" x="105.64" y="168.99" width="7.04" height="6.04"/><rect class="cls-149" x="98.6" y="168.99" width="7.04" height="6.04"/><rect class="cls-149" x="91.56" y="168.99" width="7.04" height="6.04"/><rect class="cls-228" x="84.52" y="168.99" width="7.04" height="6.04"/><rect class="cls-48" x="77.47" y="168.99" width="7.04" height="6.04"/><rect class="cls-211" x="70.43" y="168.99" width="7.04" height="6.04"/><rect class="cls-202" x="63.39" y="168.99" width="7.04" height="6.04"/><rect class="cls-13" x="56.34" y="168.99" width="7.04" height="6.04"/><rect class="cls-73" x="49.3" y="168.99" width="7.04" height="6.04"/><rect class="cls-15" x="42.26" y="168.99" width="7.04" height="6.04"/><rect class="cls-144" x="35.21" y="168.99" width="7.04" height="6.04"/><rect class="cls-112" x="28.17" y="168.99" width="7.04" height="6.04"/><rect class="cls-87" x="140.86" y="162.95" width="7.04" height="6.04"/><rect class="cls-149" x="133.82" y="162.95" width="7.04" height="6.04"/><rect class="cls-196" x="126.77" y="162.95" width="7.04" height="6.04"/><rect class="cls-190" x="119.73" y="162.95" width="7.04" height="6.04"/><rect class="cls-5" x="112.69" y="162.95" width="7.04" height="6.04"/><rect class="cls-38" x="105.64" y="162.95" width="7.04" height="6.04"/><rect class="cls-161" x="98.6" y="162.95" width="7.04" height="6.04"/><rect class="cls-211" x="91.56" y="162.95" width="7.04" height="6.04"/><rect class="cls-16" x="84.52" y="162.95" width="7.04" height="6.04"/><rect class="cls-43" x="77.47" y="162.95" width="7.04" height="6.04"/><rect class="cls-103" x="70.43" y="162.95" width="7.04" height="6.04"/><rect class="cls-147" x="63.39" y="162.95" width="7.04" height="6.04"/><rect class="cls-26" x="56.34" y="162.95" width="7.04" height="6.04"/><rect class="cls-50" x="49.3" y="162.95" width="7.04" height="6.04"/><rect class="cls-171" x="42.26" y="162.95" width="7.04" height="6.04"/><rect class="cls-131" x="35.21" y="162.95" width="7.04" height="6.04"/><rect class="cls-223" x="28.17" y="162.95" width="7.04" height="6.04"/><rect class="cls-77" x="21.13" y="162.95" width="7.04" height="6.04"/><rect x="14.09" y="162.95" width="7.04" height="6.04"/><rect x="147.9" y="156.92" width="7.04" height="6.04"/><rect class="cls-231" x="140.86" y="156.92" width="7.04" height="6.04"/><rect class="cls-161" x="133.82" y="156.92" width="7.04" height="6.04"/><rect class="cls-31" x="126.77" y="156.92" width="7.04" height="6.04"/><rect class="cls-79" x="119.73" y="156.92" width="7.04" height="6.04"/><rect class="cls-31" x="112.69" y="156.92" width="7.04" height="6.04"/><rect class="cls-196" x="105.64" y="156.92" width="7.04" height="6.04"/><rect class="cls-161" x="98.6" y="156.92" width="7.04" height="6.04"/><rect class="cls-79" x="91.56" y="156.92" width="7.04" height="6.04"/><rect class="cls-32" x="84.52" y="156.92" width="7.04" height="6.04"/><rect class="cls-43" x="77.47" y="156.92" width="7.04" height="6.04"/><rect class="cls-56" x="70.43" y="156.92" width="7.04" height="6.04"/><rect class="cls-18" x="63.39" y="156.92" width="7.04" height="6.04"/><rect class="cls-29" x="56.34" y="156.92" width="7.04" height="6.04"/><rect class="cls-88" x="49.3" y="156.92" width="7.04" height="6.04"/><rect class="cls-230" x="42.26" y="156.92" width="7.04" height="6.04"/><rect class="cls-164" x="35.21" y="156.92" width="7.04" height="6.04"/><rect class="cls-220" x="28.17" y="156.92" width="7.04" height="6.04"/><rect class="cls-146" x="21.13" y="156.92" width="7.04" height="6.04"/><rect class="cls-2" x="14.09" y="156.92" width="7.04" height="6.04"/><rect class="cls-154" x="7.04" y="156.92" width="7.04" height="6.04"/><rect class="cls-58" x="154.94" y="150.88" width="7.04" height="6.04"/><rect class="cls-116" x="147.9" y="150.88" width="7.04" height="6.04"/><rect class="cls-225" x="140.86" y="150.88" width="7.04" height="6.04"/><rect class="cls-31" x="133.82" y="150.88" width="7.04" height="6.04"/><rect class="cls-180" x="126.77" y="150.88" width="7.04" height="6.04"/><rect class="cls-13" x="119.73" y="150.88" width="7.04" height="6.04"/><rect class="cls-147" x="112.69" y="150.88" width="7.04" height="6.04"/><rect class="cls-149" x="105.64" y="150.88" width="7.04" height="6.04"/><rect class="cls-190" x="98.6" y="150.88" width="7.04" height="6.04"/><rect class="cls-26" x="91.56" y="150.88" width="7.04" height="6.04"/><rect class="cls-225" x="84.52" y="150.88" width="7.04" height="6.04"/><rect class="cls-25" x="77.47" y="150.88" width="7.04" height="6.04"/><rect class="cls-50" x="70.43" y="150.88" width="7.04" height="6.04"/><rect class="cls-124" x="63.39" y="150.88" width="7.04" height="6.04"/><rect class="cls-93" x="56.34" y="150.88" width="7.04" height="6.04"/><rect class="cls-166" x="49.3" y="150.88" width="7.04" height="6.04"/><rect class="cls-3" x="42.26" y="150.88" width="7.04" height="6.04"/><rect class="cls-159" x="35.21" y="150.88" width="7.04" height="6.04"/><rect class="cls-193" x="28.17" y="150.88" width="7.04" height="6.04"/><rect class="cls-6" x="21.13" y="150.88" width="7.04" height="6.04"/><rect class="cls-162" x="14.09" y="150.88" width="7.04" height="6.04"/><rect class="cls-140" x="7.04" y="150.88" width="7.04" height="6.04"/><rect x="169.03" y="144.85" width="7.04" height="6.04"/><rect x="161.99" y="144.85" width="7.04" height="6.04"/><rect class="cls-137" x="154.94" y="144.85" width="7.04" height="6.04"/><rect class="cls-212" x="147.9" y="144.85" width="7.04" height="6.04"/><rect class="cls-15" x="140.86" y="144.85" width="7.04" height="6.04"/><rect class="cls-195" x="133.82" y="144.85" width="7.04" height="6.04"/><rect class="cls-147" x="126.77" y="144.85" width="7.04" height="6.04"/><rect class="cls-114" x="119.73" y="144.85" width="7.04" height="6.04"/><rect class="cls-126" x="112.69" y="144.85" width="7.04" height="6.04"/><rect class="cls-38" x="105.64" y="144.85" width="7.04" height="6.04"/><rect class="cls-18" x="98.6" y="144.85" width="7.04" height="6.04"/><rect class="cls-123" x="91.56" y="144.85" width="7.04" height="6.04"/><rect class="cls-26" x="84.52" y="144.85" width="7.04" height="6.04"/><rect class="cls-124" x="77.47" y="144.85" width="7.04" height="6.04"/><rect class="cls-29" x="70.43" y="144.85" width="7.04" height="6.04"/><rect class="cls-40" x="63.39" y="144.85" width="7.04" height="6.04"/><rect class="cls-91" x="56.34" y="144.85" width="7.04" height="6.04"/><rect class="cls-175" x="49.3" y="144.85" width="7.04" height="6.04"/><rect class="cls-41" x="42.26" y="144.85" width="7.04" height="6.04"/><rect class="cls-226" x="35.21" y="144.85" width="7.04" height="6.04"/><rect class="cls-172" x="28.17" y="144.85" width="7.04" height="6.04"/><rect class="cls-172" x="21.13" y="144.85" width="7.04" height="6.04"/><rect class="cls-205" x="14.09" y="144.85" width="7.04" height="6.04"/><rect class="cls-51" x="7.04" y="144.85" width="7.04" height="6.04"/><rect class="cls-57" y="144.85" width="7.04" height="6.04"/><rect x="169.03" y="138.81" width="7.04" height="6.04"/><rect class="cls-101" x="161.99" y="138.81" width="7.04" height="6.04"/><rect class="cls-69" x="154.94" y="138.81" width="7.04" height="6.04"/><rect class="cls-4" x="147.9" y="138.81" width="7.04" height="6.04"/><rect class="cls-105" x="140.86" y="138.81" width="7.04" height="6.04"/><rect class="cls-138" x="133.82" y="138.81" width="7.04" height="6.04"/><rect class="cls-23" x="126.77" y="138.81" width="7.04" height="6.04"/><rect class="cls-79" x="119.73" y="138.81" width="7.04" height="6.04"/><rect class="cls-16" x="112.69" y="138.81" width="7.04" height="6.04"/><rect class="cls-181" x="105.64" y="138.81" width="7.04" height="6.04"/><rect class="cls-55" x="98.6" y="138.81" width="7.04" height="6.04"/><rect class="cls-123" x="91.56" y="138.81" width="7.04" height="6.04"/><rect class="cls-76" x="84.52" y="138.81" width="7.04" height="6.04"/><rect class="cls-50" x="77.47" y="138.81" width="7.04" height="6.04"/><rect class="cls-123" x="70.43" y="138.81" width="7.04" height="6.04"/><rect class="cls-123" x="63.39" y="138.81" width="7.04" height="6.04"/><rect class="cls-129" x="56.34" y="138.81" width="7.04" height="6.04"/><rect class="cls-88" x="49.3" y="138.81" width="7.04" height="6.04"/><rect class="cls-219" x="42.26" y="138.81" width="7.04" height="6.04"/><rect class="cls-197" x="35.21" y="138.81" width="7.04" height="6.04"/><rect class="cls-218" x="28.17" y="138.81" width="7.04" height="6.04"/><rect class="cls-218" x="21.13" y="138.81" width="7.04" height="6.04"/><rect class="cls-97" x="14.09" y="138.81" width="7.04" height="6.04"/><rect class="cls-141" x="7.04" y="138.81" width="7.04" height="6.04"/><rect class="cls-128" y="138.81" width="7.04" height="6.04"/><rect x="176.07" y="132.78" width="7.04" height="6.04"/><rect class="cls-207" x="169.03" y="132.78" width="7.04" height="6.04"/><rect class="cls-187" x="161.99" y="132.78" width="7.04" height="6.04"/><rect class="cls-49" x="154.94" y="132.78" width="7.04" height="6.04"/><rect class="cls-1" x="147.9" y="132.78" width="7.04" height="6.04"/><rect class="cls-50" x="140.86" y="132.78" width="7.04" height="6.04"/><rect class="cls-123" x="133.82" y="132.78" width="7.04" height="6.04"/><rect class="cls-213" x="126.77" y="132.78" width="7.04" height="6.04"/><rect class="cls-29" x="119.73" y="132.78" width="7.04" height="6.04"/><rect class="cls-17" x="112.69" y="132.78" width="7.04" height="6.04"/><rect class="cls-123" x="105.64" y="132.78" width="7.04" height="6.04"/><rect class="cls-213" x="98.6" y="132.78" width="7.04" height="6.04"/><rect class="cls-92" x="91.56" y="132.78" width="7.04" height="6.04"/><rect class="cls-55" x="84.52" y="132.78" width="7.04" height="6.04"/><rect class="cls-214" x="77.47" y="132.78" width="7.04" height="6.04"/><rect class="cls-29" x="70.43" y="132.78" width="7.04" height="6.04"/><rect class="cls-123" x="63.39" y="132.78" width="7.04" height="6.04"/><rect class="cls-227" x="56.34" y="132.78" width="7.04" height="6.04"/><rect class="cls-222" x="49.3" y="132.78" width="7.04" height="6.04"/><rect class="cls-37" x="42.26" y="132.78" width="7.04" height="6.04"/><rect class="cls-166" x="35.21" y="132.78" width="7.04" height="6.04"/><rect class="cls-192" x="28.17" y="132.78" width="7.04" height="6.04"/><rect class="cls-192" x="21.13" y="132.78" width="7.04" height="6.04"/><rect class="cls-12" x="14.09" y="132.78" width="7.04" height="6.04"/><rect class="cls-178" x="7.04" y="132.78" width="7.04" height="6.04"/><rect class="cls-116" y="132.78" width="7.04" height="6.04"/><rect class="cls-215" x="176.07" y="126.74" width="7.04" height="6.04"/><rect class="cls-109" x="169.03" y="126.74" width="7.04" height="6.04"/><rect class="cls-120" x="161.99" y="126.74" width="7.04" height="6.04"/><rect class="cls-71" x="154.94" y="126.74" width="7.04" height="6.04"/><rect class="cls-107" x="147.9" y="126.74" width="7.04" height="6.04"/><rect class="cls-105" x="140.86" y="126.74" width="7.04" height="6.04"/><rect class="cls-123" x="133.82" y="126.74" width="7.04" height="6.04"/><rect class="cls-105" x="126.77" y="126.74" width="7.04" height="6.04"/><rect class="cls-213" x="119.73" y="126.74" width="7.04" height="6.04"/><rect class="cls-124" x="112.69" y="126.74" width="7.04" height="6.04"/><rect class="cls-216" x="105.64" y="126.74" width="7.04" height="6.04"/><rect class="cls-44" x="98.6" y="126.74" width="7.04" height="6.04"/><rect class="cls-63" x="91.56" y="126.74" width="7.04" height="6.04"/><rect class="cls-32" x="84.52" y="126.74" width="7.04" height="6.04"/><rect class="cls-151" x="77.47" y="126.74" width="7.04" height="6.04"/><rect class="cls-204" x="70.43" y="126.74" width="7.04" height="6.04"/><rect class="cls-213" x="63.39" y="126.74" width="7.04" height="6.04"/><rect class="cls-35" x="56.34" y="126.74" width="7.04" height="6.04"/><rect class="cls-125" x="49.3" y="126.74" width="7.04" height="6.04"/><rect class="cls-177" x="42.26" y="126.74" width="7.04" height="6.04"/><rect class="cls-155" x="35.21" y="126.74" width="7.04" height="6.04"/><rect class="cls-60" x="28.17" y="126.74" width="7.04" height="6.04"/><rect class="cls-175" x="21.13" y="126.74" width="7.04" height="6.04"/><rect class="cls-61" x="14.09" y="126.74" width="7.04" height="6.04"/><rect class="cls-76" x="7.04" y="126.74" width="7.04" height="6.04"/><rect class="cls-90" y="126.74" width="7.04" height="6.04"/><rect class="cls-209" x="176.07" y="120.71" width="7.04" height="6.04"/><rect class="cls-118" x="169.03" y="120.71" width="7.04" height="6.04"/><rect class="cls-100" x="161.99" y="120.71" width="7.04" height="6.04"/><rect class="cls-113" x="154.94" y="120.71" width="7.04" height="6.04"/><rect class="cls-86" x="147.9" y="120.71" width="7.04" height="6.04"/><rect class="cls-123" x="140.86" y="120.71" width="7.04" height="6.04"/><rect class="cls-123" x="133.82" y="120.71" width="7.04" height="6.04"/><rect class="cls-67" x="126.77" y="120.71" width="7.04" height="6.04"/><rect class="cls-123" x="119.73" y="120.71" width="7.04" height="6.04"/><rect class="cls-10" x="112.69" y="120.71" width="7.04" height="6.04"/><rect class="cls-16" x="105.64" y="120.71" width="7.04" height="6.04"/><rect class="cls-228" x="98.6" y="120.71" width="7.04" height="6.04"/><rect class="cls-52" x="91.56" y="120.71" width="7.04" height="6.04"/><rect class="cls-228" x="84.52" y="120.71" width="7.04" height="6.04"/><rect class="cls-104" x="77.47" y="120.71" width="7.04" height="6.04"/><rect class="cls-9" x="70.43" y="120.71" width="7.04" height="6.04"/><rect class="cls-46" x="63.39" y="120.71" width="7.04" height="6.04"/><rect class="cls-123" x="56.34" y="120.71" width="7.04" height="6.04"/><rect class="cls-123" x="49.3" y="120.71" width="7.04" height="6.04"/><rect class="cls-165" x="42.26" y="120.71" width="7.04" height="6.04"/><rect class="cls-14" x="35.21" y="120.71" width="7.04" height="6.04"/><rect class="cls-64" x="28.17" y="120.71" width="7.04" height="6.04"/><rect class="cls-102" x="21.13" y="120.71" width="7.04" height="6.04"/><rect class="cls-70" x="14.09" y="120.71" width="7.04" height="6.04"/><rect class="cls-124" x="7.04" y="120.71" width="7.04" height="6.04"/><rect y="120.71" width="7.04" height="6.04"/><rect x="176.07" y="114.67" width="7.04" height="6.04"/><rect class="cls-177" x="169.03" y="114.67" width="7.04" height="6.04"/><rect class="cls-34" x="161.99" y="114.67" width="7.04" height="6.04"/><rect class="cls-42" x="154.94" y="114.67" width="7.04" height="6.04"/><rect class="cls-119" x="147.9" y="114.67" width="7.04" height="6.04"/><rect class="cls-123" x="140.86" y="114.67" width="7.04" height="6.04"/><rect class="cls-29" x="133.82" y="114.67" width="7.04" height="6.04"/><rect class="cls-26" x="126.77" y="114.67" width="7.04" height="6.04"/><rect class="cls-206" x="119.73" y="114.67" width="7.04" height="6.04"/><rect class="cls-190" x="112.69" y="114.67" width="7.04" height="6.04"/><rect class="cls-5" x="105.64" y="114.67" width="7.04" height="6.04"/><rect class="cls-229" x="98.6" y="114.67" width="7.04" height="6.04"/><rect class="cls-114" x="91.56" y="114.67" width="7.04" height="6.04"/><rect class="cls-89" x="84.52" y="114.67" width="7.04" height="6.04"/><rect class="cls-94" x="77.47" y="114.67" width="7.04" height="6.04"/><rect class="cls-38" x="70.43" y="114.67" width="7.04" height="6.04"/><rect class="cls-13" x="63.39" y="114.67" width="7.04" height="6.04"/><rect class="cls-106" x="56.34" y="114.67" width="7.04" height="6.04"/><rect class="cls-123" x="49.3" y="114.67" width="7.04" height="6.04"/><rect class="cls-29" x="42.26" y="114.67" width="7.04" height="6.04"/><rect class="cls-99" x="35.21" y="114.67" width="7.04" height="6.04"/><rect class="cls-7" x="28.17" y="114.67" width="7.04" height="6.04"/><rect class="cls-40" x="21.13" y="114.67" width="7.04" height="6.04"/><rect class="cls-214" x="14.09" y="114.67" width="7.04" height="6.04"/><rect x="176.07" y="108.64" width="7.04" height="6.04"/><rect class="cls-182" x="169.03" y="108.64" width="7.04" height="6.04"/><rect class="cls-110" x="161.99" y="108.64" width="7.04" height="6.04"/><rect class="cls-54" x="154.94" y="108.64" width="7.04" height="6.04"/><rect class="cls-224" x="147.9" y="108.64" width="7.04" height="6.04"/><rect class="cls-7" x="140.86" y="108.64" width="7.04" height="6.04"/><rect class="cls-225" x="133.82" y="108.64" width="7.04" height="6.04"/><rect class="cls-32" x="126.77" y="108.64" width="7.04" height="6.04"/><rect class="cls-52" x="119.73" y="108.64" width="7.04" height="6.04"/><rect class="cls-24" x="112.69" y="108.64" width="7.04" height="6.04"/><rect class="cls-161" x="105.64" y="108.64" width="7.04" height="6.04"/><rect class="cls-5" x="98.6" y="108.64" width="7.04" height="6.04"/><rect class="cls-228" x="91.56" y="108.64" width="7.04" height="6.04"/><rect class="cls-80" x="84.52" y="108.64" width="7.04" height="6.04"/><rect class="cls-158" x="77.47" y="108.64" width="7.04" height="6.04"/><rect class="cls-43" x="70.43" y="108.64" width="7.04" height="6.04"/><rect class="cls-190" x="63.39" y="108.64" width="7.04" height="6.04"/><rect class="cls-13" x="56.34" y="108.64" width="7.04" height="6.04"/><rect class="cls-188" x="49.3" y="108.64" width="7.04" height="6.04"/><rect class="cls-73" x="42.26" y="108.64" width="7.04" height="6.04"/><rect class="cls-74" x="35.21" y="108.64" width="7.04" height="6.04"/><rect class="cls-138" x="28.17" y="108.64" width="7.04" height="6.04"/><rect class="cls-191" x="21.13" y="108.64" width="7.04" height="6.04"/><rect class="cls-36" x="14.09" y="108.64" width="7.04" height="6.04"/><rect x="161.99" y="102.6" width="7.04" height="6.04"/><rect class="cls-82" x="154.94" y="102.6" width="7.04" height="6.04"/><rect class="cls-134" x="147.9" y="102.6" width="7.04" height="6.04"/><rect class="cls-30" x="140.86" y="102.6" width="7.04" height="6.04"/><rect class="cls-206" x="133.82" y="102.6" width="7.04" height="6.04"/><rect class="cls-103" x="126.77" y="102.6" width="7.04" height="6.04"/><rect class="cls-149" x="119.73" y="102.6" width="7.04" height="6.04"/><rect class="cls-27" x="112.69" y="102.6" width="7.04" height="6.04"/><rect class="cls-135" x="105.64" y="102.6" width="7.04" height="6.04"/><rect class="cls-142" x="98.6" y="102.6" width="7.04" height="6.04"/><rect class="cls-228" x="91.56" y="102.6" width="7.04" height="6.04"/><rect class="cls-180" x="84.52" y="102.6" width="7.04" height="6.04"/><rect class="cls-176" x="77.47" y="102.6" width="7.04" height="6.04"/><rect class="cls-33" x="70.43" y="102.6" width="7.04" height="6.04"/><rect class="cls-13" x="63.39" y="102.6" width="7.04" height="6.04"/><rect class="cls-8" x="56.34" y="102.6" width="7.04" height="6.04"/><rect class="cls-33" x="49.3" y="102.6" width="7.04" height="6.04"/><rect class="cls-55" x="42.26" y="102.6" width="7.04" height="6.04"/><rect class="cls-55" x="35.21" y="102.6" width="7.04" height="6.04"/><rect class="cls-18" x="28.17" y="102.6" width="7.04" height="6.04"/><rect class="cls-68" x="21.13" y="102.6" width="7.04" height="6.04"/><rect x="161.99" y="96.57" width="7.04" height="6.04"/><rect class="cls-189" x="154.94" y="96.57" width="7.04" height="6.04"/><rect class="cls-124" x="147.9" y="96.57" width="7.04" height="6.04"/><rect class="cls-170" x="140.86" y="96.57" width="7.04" height="6.04"/><rect class="cls-179" x="133.82" y="96.57" width="7.04" height="6.04"/><rect class="cls-228" x="126.77" y="96.57" width="7.04" height="6.04"/><rect class="cls-147" x="119.73" y="96.57" width="7.04" height="6.04"/><rect class="cls-24" x="112.69" y="96.57" width="7.04" height="6.04"/><rect class="cls-190" x="105.64" y="96.57" width="7.04" height="6.04"/><rect class="cls-208" x="98.6" y="96.57" width="7.04" height="6.04"/><rect class="cls-203" x="91.56" y="96.57" width="7.04" height="6.04"/><rect class="cls-31" x="84.52" y="96.57" width="7.04" height="6.04"/><rect class="cls-85" x="77.47" y="96.57" width="7.04" height="6.04"/><rect class="cls-179" x="70.43" y="96.57" width="7.04" height="6.04"/><rect class="cls-48" x="63.39" y="96.57" width="7.04" height="6.04"/><rect class="cls-190" x="56.34" y="96.57" width="7.04" height="6.04"/><rect class="cls-55" x="49.3" y="96.57" width="7.04" height="6.04"/><rect class="cls-18" x="42.26" y="96.57" width="7.04" height="6.04"/><rect class="cls-26" x="35.21" y="96.57" width="7.04" height="6.04"/><rect class="cls-73" x="28.17" y="96.57" width="7.04" height="6.04"/><rect class="cls-36" x="21.13" y="96.57" width="7.04" height="6.04"/><rect x="154.94" y="90.53" width="7.04" height="6.04"/><rect x="147.9" y="90.53" width="7.04" height="6.04"/><rect class="cls-212" x="140.86" y="90.53" width="7.04" height="6.04"/><rect class="cls-26" x="133.82" y="90.53" width="7.04" height="6.04"/><rect class="cls-53" x="126.77" y="90.53" width="7.04" height="6.04"/><rect class="cls-84" x="119.73" y="90.53" width="7.04" height="6.04"/><rect class="cls-22" x="112.69" y="90.53" width="7.04" height="6.04"/><rect class="cls-22" x="105.64" y="90.53" width="7.04" height="6.04"/><rect class="cls-228" x="98.6" y="90.53" width="7.04" height="6.04"/><rect class="cls-142" x="91.56" y="90.53" width="7.04" height="6.04"/><rect class="cls-228" x="84.52" y="90.53" width="7.04" height="6.04"/><rect class="cls-43" x="77.47" y="90.53" width="7.04" height="6.04"/><rect class="cls-108" x="70.43" y="90.53" width="7.04" height="6.04"/><rect class="cls-179" x="63.39" y="90.53" width="7.04" height="6.04"/><rect class="cls-124" x="56.34" y="90.53" width="7.04" height="6.04"/><rect class="cls-18" x="49.3" y="90.53" width="7.04" height="6.04"/><rect class="cls-106" x="42.26" y="90.53" width="7.04" height="6.04"/><rect class="cls-26" x="35.21" y="90.53" width="7.04" height="6.04"/><rect class="cls-68" x="28.17" y="90.53" width="7.04" height="6.04"/><rect x="147.9" y="84.49" width="7.04" height="6.04"/><rect class="cls-152" x="140.86" y="84.49" width="7.04" height="6.04"/><rect class="cls-18" x="133.82" y="84.49" width="7.04" height="6.04"/><rect class="cls-225" x="126.77" y="84.49" width="7.04" height="6.04"/><rect class="cls-158" x="119.73" y="84.49" width="7.04" height="6.04"/><rect class="cls-196" x="112.69" y="84.49" width="7.04" height="6.04"/><rect class="cls-48" x="105.64" y="84.49" width="7.04" height="6.04"/><rect class="cls-147" x="98.6" y="84.49" width="7.04" height="6.04"/><rect class="cls-228" x="91.56" y="84.49" width="7.04" height="6.04"/><rect class="cls-5" x="84.52" y="84.49" width="7.04" height="6.04"/><rect class="cls-31" x="77.47" y="84.49" width="7.04" height="6.04"/><rect class="cls-23" x="70.43" y="84.49" width="7.04" height="6.04"/><rect class="cls-10" x="63.39" y="84.49" width="7.04" height="6.04"/><rect class="cls-138" x="56.34" y="84.49" width="7.04" height="6.04"/><rect class="cls-56" x="49.3" y="84.49" width="7.04" height="6.04"/><rect class="cls-123" x="42.26" y="84.49" width="7.04" height="6.04"/><rect class="cls-170" x="35.21" y="84.49" width="7.04" height="6.04"/><rect class="cls-174" x="28.17" y="84.49" width="7.04" height="6.04"/><rect x="147.9" y="78.46" width="7.04" height="6.04"/><rect x="140.86" y="78.46" width="7.04" height="6.04"/><rect class="cls-173" x="133.82" y="78.46" width="7.04" height="6.04"/><rect class="cls-225" x="126.77" y="78.46" width="7.04" height="6.04"/><rect class="cls-18" x="119.73" y="78.46" width="7.04" height="6.04"/><rect class="cls-35" x="112.69" y="78.46" width="7.04" height="6.04"/><rect class="cls-127" x="105.64" y="78.46" width="7.04" height="6.04"/><rect class="cls-212" x="98.6" y="78.46" width="7.04" height="6.04"/><rect class="cls-130" x="91.56" y="78.46" width="7.04" height="6.04"/><rect class="cls-185" x="84.52" y="78.46" width="7.04" height="6.04"/><rect class="cls-70" x="77.47" y="78.46" width="7.04" height="6.04"/><rect class="cls-18" x="70.43" y="78.46" width="7.04" height="6.04"/><rect class="cls-225" x="63.39" y="78.46" width="7.04" height="6.04"/><rect class="cls-124" x="56.34" y="78.46" width="7.04" height="6.04"/><rect class="cls-115" x="49.3" y="78.46" width="7.04" height="6.04"/><rect class="cls-154" x="42.26" y="78.46" width="7.04" height="6.04"/><rect class="cls-68" x="35.21" y="78.46" width="7.04" height="6.04"/><rect x="140.86" y="72.42" width="7.04" height="6.04"/><rect class="cls-58" x="133.82" y="72.42" width="7.04" height="6.04"/><rect class="cls-191" x="126.77" y="72.42" width="7.04" height="6.04"/><rect class="cls-18" x="119.73" y="72.42" width="7.04" height="6.04"/><rect class="cls-98" x="112.69" y="72.42" width="7.04" height="6.04"/><rect class="cls-55" x="105.64" y="72.42" width="7.04" height="6.04"/><rect class="cls-18" x="98.6" y="72.42" width="7.04" height="6.04"/><rect class="cls-115" x="91.56" y="72.42" width="7.04" height="6.04"/><rect class="cls-18" x="84.52" y="72.42" width="7.04" height="6.04"/><rect class="cls-217" x="77.47" y="72.42" width="7.04" height="6.04"/><rect class="cls-26" x="70.43" y="72.42" width="7.04" height="6.04"/><rect class="cls-18" x="63.39" y="72.42" width="7.04" height="6.04"/><rect class="cls-55" x="56.34" y="72.42" width="7.04" height="6.04"/><rect class="cls-169" x="49.3" y="72.42" width="7.04" height="6.04"/><rect class="cls-68" x="42.26" y="72.42" width="7.04" height="6.04"/><rect x="133.82" y="66.39" width="7.04" height="6.04"/><rect x="126.77" y="66.39" width="7.04" height="6.04"/><rect class="cls-116" x="119.73" y="66.39" width="7.04" height="6.04"/><rect class="cls-18" x="112.69" y="66.39" width="7.04" height="6.04"/><rect class="cls-18" x="105.64" y="66.39" width="7.04" height="6.04"/><rect class="cls-55" x="98.6" y="66.39" width="7.04" height="6.04"/><rect class="cls-225" x="91.56" y="66.39" width="7.04" height="6.04"/><rect class="cls-18" x="84.52" y="66.39" width="7.04" height="6.04"/><rect class="cls-170" x="77.47" y="66.39" width="7.04" height="6.04"/><rect class="cls-18" x="70.43" y="66.39" width="7.04" height="6.04"/><rect class="cls-18" x="63.39" y="66.39" width="7.04" height="6.04"/><rect class="cls-7" x="56.34" y="66.39" width="7.04" height="6.04"/><rect class="cls-102" x="49.3" y="66.39" width="7.04" height="6.04"/><rect class="cls-112" x="42.26" y="66.39" width="7.04" height="6.04"/><rect x="126.77" y="60.35" width="7.04" height="6.04"/><rect x="119.73" y="60.35" width="7.04" height="6.04"/><rect class="cls-198" x="112.69" y="60.35" width="7.04" height="6.04"/><rect class="cls-174" x="105.64" y="60.35" width="7.04" height="6.04"/><rect class="cls-144" x="98.6" y="60.35" width="7.04" height="6.04"/><rect class="cls-7" x="91.56" y="60.35" width="7.04" height="6.04"/><rect class="cls-201" x="84.52" y="60.35" width="7.04" height="6.04"/><rect class="cls-53" x="77.47" y="60.35" width="7.04" height="6.04"/><rect class="cls-212" x="70.43" y="60.35" width="7.04" height="6.04"/><rect class="cls-44" x="63.39" y="60.35" width="7.04" height="6.04"/><rect class="cls-56" x="56.34" y="60.35" width="7.04" height="6.04"/><rect class="cls-148" x="49.3" y="60.35" width="7.04" height="6.04"/><rect x="105.64" y="54.32" width="7.04" height="6.04"/><rect class="cls-59" x="98.6" y="54.32" width="7.04" height="6.04"/><rect class="cls-58" x="91.56" y="54.32" width="7.04" height="6.04"/><rect class="cls-87" x="84.52" y="54.32" width="7.04" height="6.04"/><rect class="cls-56" x="77.47" y="54.32" width="7.04" height="6.04"/><rect class="cls-56" x="70.43" y="54.32" width="7.04" height="6.04"/><rect class="cls-56" x="63.39" y="54.32" width="7.04" height="6.04"/><rect class="cls-56" x="56.34" y="54.32" width="7.04" height="6.04"/><rect x="98.6" y="48.28" width="7.04" height="6.04"/><rect class="cls-45" x="91.56" y="48.28" width="7.04" height="6.04"/><rect class="cls-169" x="84.52" y="48.28" width="7.04" height="6.04"/><rect class="cls-18" x="77.47" y="48.28" width="7.04" height="6.04"/><rect class="cls-116" x="70.43" y="48.28" width="7.04" height="6.04"/><rect class="cls-191" x="63.39" y="48.28" width="7.04" height="6.04"/><rect class="cls-163" x="56.34" y="48.28" width="7.04" height="6.04"/><rect x="91.56" y="42.25" width="7.04" height="6.04"/><rect class="cls-198" x="84.52" y="42.25" width="7.04" height="6.04"/><rect class="cls-11" x="77.47" y="42.25" width="7.04" height="6.04"/><rect class="cls-65" x="70.43" y="42.25" width="7.04" height="6.04"/><rect class="cls-150" x="63.39" y="42.25" width="7.04" height="6.04"/><rect class="cls-200" x="56.34" y="42.25" width="7.04" height="6.04"/><rect x="91.56" y="36.21" width="7.04" height="6.04"/><rect class="cls-21" x="84.52" y="36.21" width="7.04" height="6.04"/><rect class="cls-122" x="77.47" y="36.21" width="7.04" height="6.04"/><rect class="cls-95" x="70.43" y="36.21" width="7.04" height="6.04"/><rect class="cls-183" x="63.39" y="36.21" width="7.04" height="6.04"/><rect class="cls-28" x="56.34" y="36.21" width="7.04" height="6.04"/><rect class="cls-136" x="84.52" y="30.18" width="7.04" height="6.04"/><rect class="cls-167" x="77.47" y="30.18" width="7.04" height="6.04"/><rect class="cls-157" x="70.43" y="30.18" width="7.04" height="6.04"/><rect class="cls-156" x="63.39" y="30.18" width="7.04" height="6.04"/><rect class="cls-133" x="56.34" y="30.18" width="7.04" height="6.04"/><rect class="cls-78" x="77.47" y="24.14" width="7.04" height="6.04"/><rect class="cls-210" x="70.43" y="24.14" width="7.04" height="6.04"/><rect class="cls-184" x="63.39" y="24.14" width="7.04" height="6.04"/><rect class="cls-81" x="77.47" y="18.11" width="7.04" height="6.04"/><rect class="cls-72" x="70.43" y="18.11" width="7.04" height="6.04"/><rect class="cls-20" x="63.39" y="18.11" width="7.04" height="6.04"/><rect x="77.47" y="12.07" width="7.04" height="6.04"/><rect class="cls-215" x="70.43" y="12.07" width="7.04" height="6.04"/><rect x="77.47" y="6.04" width="7.04" height="6.04"/><rect x="70.43" y="6.04" width="7.04" height="6.04"/><rect x="77.47" width="7.04" height="6.04"/></g></g></svg>