<?xml version="1.0" encoding="utf-8"?>
<!-- Generator: Adobe Illustrator 27.1.1, SVG Export Plug-In . SVG Version: 6.00 Build 0)  -->
<svg version="1.1" id="Layer_2_00000155125060289130668550000013856756852627064500_"
	 xmlns="http://www.w3.org/2000/svg" xmlns:xlink="http://www.w3.org/1999/xlink" x="0px" y="0px" viewBox="0 0 162 162.1"
	 style="enable-background:new 0 0 162 162.1;" xml:space="preserve">
<style type="text/css">
	.st0{fill:#0A1A1D;}
</style>
<g id="Layer_1-2">
	<g>
		<path class="st0" d="M162,30c-0.1-2.6-0.1-4.9-0.1-7c-0.1-10.9-0.2-16.3-3.6-19.7c-3.4-3.4-8.8-3.3-19.7-3.2c-2,0-4.2,0-6.6,0
			h-20.4c-5.8,0-10.5,4.7-10.5,10.5s4.7,10.5,10.5,10.5H132c5,0,9,4,9,9v20.4c0,5.8,4.7,10.5,10.5,10.5S162,56.3,162,50.5
			C162,50.5,162,30,162,30z"/>
		<path class="st0" d="M79.4,78.7c1.9,1.9,4.5,3.1,7.3,3.1c2.6,0,5.4-1.1,7.9-3.5l33.9-33.9c2-2,3.1-4.6,3.1-7.4s-1.1-5.4-3.1-7.4
			c-2-2-4.6-3.1-7.4-3.1s-5.4,1.1-7.4,3.1L79.9,63.4C74.7,68.5,75.8,75,79.4,78.7L79.4,78.7z"/>
		<path class="st0" d="M144.6,76.9c-5.8,0-10.5,4.7-10.5,10.5v44.7c0,5-4,9-9,9H30c-5,0-9-4-9-9V37c0-5,4-9,9-9h44.7
			c5.8,0,10.5-4.7,10.5-10.5S80.5,7,74.7,7H30C13.5,7,0,20.5,0,37v95.1c0,16.5,13.5,30,30,30h95.1c16.5,0,30-13.5,30-30V87.4
			C155.1,81.6,150.4,76.9,144.6,76.9z"/>
	</g>
</g>
</svg>
