<svg xmlns="http://www.w3.org/2000/svg" viewBox="0 0 63.89 63.89"><defs><style>.cls-1{fill:#fe706a;}</style></defs><title>portfolio</title><g id="Layer_1" data-name="Layer 1"><path class="cls-1" d="M39.07,17.81a7.13,7.13,0,1,0-8,7.08V37.05a.81.81,0,0,0,.81.81H32a.8.8,0,0,0,.8-.81V24.89A7.13,7.13,0,0,0,39.07,17.81Z"/><path class="cls-1" d="M34.6,28.37v7.38s0,0,0,0a2.43,2.43,0,0,1,1.6,2c0,1.43-1.9,2.6-4.25,2.6s-4.25-1.17-4.25-2.6a2.43,2.43,0,0,1,1.61-2s0,0,0,0V29.08l-17.51,8V41A2.34,2.34,0,0,0,13,43.06l17.82,9.85a2.35,2.35,0,0,0,2.27,0l17.81-9.85A2.34,2.34,0,0,0,52.11,41V37.09Zm-14,10.29c-1.46,0-2.65-.7-2.65-1.57s1.19-1.57,2.65-1.57,2.65.71,2.65,1.57S22.09,38.66,20.62,38.66Z"/></g></svg>