<svg xmlns="http://www.w3.org/2000/svg" viewBox="0 0 63.89 63.89"><defs><style>.cls-1{fill:#fe706a;}</style></defs><title>portfolio</title><g id="Layer_1" data-name="Layer 1"><path class="cls-1" d="M48.19,23.07l2.51-3.63a1.17,1.17,0,0,0-.29-1.61l-5.64-4a1.18,1.18,0,0,0-1.62.29l-2.54,3.68Z"/><polygon class="cls-1" points="38.63 20.7 46.2 25.95 47.38 24.25 39.8 19 38.63 20.7"/><path class="cls-1" d="M37.82,21.87,23.06,43.24a1.16,1.16,0,0,0,.3,1.61l5.64,4a1.17,1.17,0,0,0,1.61-.29L45.39,27.12Z"/><path class="cls-1" d="M28.85,49.66l-6.11-4.24a.74.74,0,0,0-1.16.56l-.25,3.38a.72.72,0,0,0,.32.66l3.25,2.26a.74.74,0,0,0,.72.07L28.73,51A.75.75,0,0,0,28.85,49.66Z"/><path class="cls-1" d="M20.77,53a1,1,0,0,0,1.47,1l.48-.22a1.36,1.36,0,0,0,.22-2.36h0a1.37,1.37,0,0,0-2.14,1Z"/><path class="cls-1" d="M24.58,19.33,12.31,15.6l0,0L16,27.91s3.58.57,5.44,2.06l-1,1,.64.64,1-1,1.51,1.51,5.22-5.21-1.51-1.51,1-1-.65-.65-1,1C25.15,22.92,24.58,19.33,24.58,19.33Zm-11-1.94,4.85,4.88a1.65,1.65,0,1,0,.49-.49L14,16.86l10,3a14.34,14.34,0,0,0,2,5.21l-4.25,4.25a14.33,14.33,0,0,0-5.21-2Z"/><path class="cls-1" d="M46.94,52.3l-1,1-9.85-9.85,3.38-5.06,7.49,7.35A4.65,4.65,0,0,1,46.94,52.3Z"/><polygon class="cls-1" points="30.56 29.64 28.9 27.91 24.62 32.2 27 34.65 30.56 29.64"/><path class="cls-1" d="M34.48,41.84l-.11.12.25.25,1-1A4.64,4.64,0,0,0,37,38.36Z"/></g></svg>