<?xml version="1.0" encoding="utf-8"?>
<!-- Generator: Adobe Illustrator 24.1.2, SVG Export Plug-In . SVG Version: 6.00 Build 0)  -->
<svg version="1.1" xmlns="http://www.w3.org/2000/svg" xmlns:xlink="http://www.w3.org/1999/xlink" x="0px" y="0px"
	 viewBox="0 0 63.9 63.9" style="enable-background:new 0 0 63.9 63.9;" xml:space="preserve">
<style type="text/css">
	.st0{fill:#F1F3F6;}
	.st1{fill:#FED8D8;}
	.st2{fill:#8CA2AE;}
	.st3{fill:#7080B3;}
	.st4{fill:#2D415D;}
	.st5{fill:#2C3550;}
	.st6{fill:#EFEFEF;}
	.st7{fill:#0B1824;}
	.st8{fill:#333333;}
	.st9{fill:#FE706A;}
	.st10{fill:#395275;}
	.st11{fill:#5176A8;}
	.st12{fill:#5E87C2;}
	.st13{fill:#45648F;}
	.st14{fill:#E1E7EA;}
	.st15{fill:#CCCCCC;}
	.st16{opacity:0.85;}
	.st17{opacity:0.2;}
	.st18{fill:#597280;}
</style>
<g id="bkgrd">
</g>
<g id="Layer_1">
	<g>
	</g>
	<g>
		<path class="st18" d="M36.1,34.9v11.4c0,0.6,0.4,1,1,1l0.7,0c0.8,0,1.3,1,0.8,1.6l-5.8,7.3c-0.4,0.5-1.2,0.5-1.6,0L25.3,49
			c-0.5-0.7-0.1-1.6,0.8-1.6l0.6,0c0.6,0,1-0.4,1-1V34.9c0-0.6,0.4-1,1-1h6.4C35.6,33.9,36.1,34.4,36.1,34.9z"/>
	</g>
	<g>
		<path class="st18" d="M48.7,30.1c0-0.2,0-0.4,0-0.6c0-7.9-6.4-14.3-14.3-14.3c-5.7,0-10.6,3.3-12.9,8.1c-1.9-0.5-4.1-0.5-6.3,0.4
			c-4.6,1.7-7.7,6-7.6,10.9c0.1,6.1,5.2,11.1,11.3,11.1H25c0.6,0,1-0.4,1-1V33.5c0-0.6,0.4-1,1-1h9.8c0.6,0,1,0.4,1,1v11.1
			c0,0.6,0.4,1,1,1h10v0c4.2-0.1,7.6-3.5,7.6-7.8C56.3,33.6,52.9,30.2,48.7,30.1z"/>
	</g>
</g>
</svg>
