<?xml version="1.0" encoding="utf-8"?>
<!-- Generator: Adobe Illustrator 25.2.0, SVG Export Plug-In . SVG Version: 6.00 Build 0)  -->
<svg version="1.1" id="Layer_1" xmlns="http://www.w3.org/2000/svg" xmlns:xlink="http://www.w3.org/1999/xlink" x="0px" y="0px"
	 viewBox="0 0 63.9 63.9" style="enable-background:new 0 0 63.9 63.9;" xml:space="preserve">
<style type="text/css">
	.st0{fill:#597280;}
</style>
<g>
	<polygon class="st0" points="28.2,24.2 24.1,28.4 27.7,32 32.7,37 36.9,41.2 41,37 36.9,32.8 31.9,27.8 	"/>
	<path class="st0" d="M18.2,22.6l4.2-4.2l-1.6-1.6c-1.1-1.1-3.1-1.1-4.2,0c-1.1,1.1-1.1,3,0,4.2L18.2,22.6z"/>
	<path class="st0" d="M46.9,42.8L42.7,47l1,1c1.1,1.1,3.1,1.1,4.2,0c0.6-0.6,0.9-1.3,0.9-2.1s-0.3-1.5-0.9-2.1L46.9,42.8z"/>
	<path class="st0" d="M36.7,51.5l-2.8-2.9l-8.8-8.8l-2.5-2.5l-4.4-4.4L14,28.6l-2.4-2.4c-0.6-0.6-1.3-0.9-2.1-0.9S8,25.6,7.4,26.2
		l0,0c-0.6,0.5-0.9,1.3-0.9,2.1s0.3,1.5,0.9,2.1l2.4,2.4l3.9,3.9l7.2,7.2l2.5,2.5l2.5,2.5L31,54l1.6,1.6l1.8,1.8
		c1.1,1.1,3.1,1.1,4.2,0c0.6-0.6,0.9-1.3,0.9-2.1s-0.3-1.5-0.9-2.1L36.7,51.5z"/>
	<path class="st0" d="M16.2,43.5c-1.4,1.4-1.4,3.6,0,5c1.4,1.4,3.6,1.4,5,0l1.2-1.2l-5-5L16.2,43.5z"/>
	<rect x="25.1" y="33.7" transform="matrix(0.7071 -0.7071 0.7071 0.7071 -18.2029 30.3862)" class="st0" width="5" height="7"/>
	<path class="st0" d="M26.4,53.5c-1.1,1.1-1.1,3,0,4.2c1.1,1.1,3.1,1.1,4.2,0l1.2-1.2l-4.2-4.2L26.4,53.5z"/>
	<path class="st0" d="M57.5,34.3L54,30.9l-2.6-2.6L37,13.8l-4.2-4.2l-2.4-2.3c-1.1-1.1-3.1-1.1-4.2,0s-1.1,3,0,4.2l2.4,2.4l4.2,4.2
		l3.1,3.1l3.7,3.7l2.6,2.6l0,0l6.3,6.3l3,3l1.8,1.8c1.1,1.1,3,1.1,4.2,0C58.5,37.3,58.5,35.5,57.5,34.3z"/>
	<path class="st0" d="M48.2,21.4c1.4-1.4,1.4-3.6,0-5l0,0c-1.4-1.4-3.6-1.4-5,0l-1,1l5,5L48.2,21.4z"/>
	<rect x="34.4" y="24.2" transform="matrix(0.7071 -0.7071 0.7071 0.7071 -8.7386 34.2759)" class="st0" width="5.3" height="7"/>
	<path class="st0" d="M57.5,30.6c1.1-1.1,1.1-3,0-4.2s-3-1.1-4.2,0l-1,1l4.2,4.2L57.5,30.6z"/>
	<polygon class="st0" points="41.9,38 41.9,38 39.7,40.1 33.4,46.5 37.5,50.6 41.9,46.2 41.9,46.2 46,42 46,42 50.7,37.5 46.5,33.3 
			"/>
	<polygon class="st0" points="25.4,25.5 27.5,23.4 32.1,18.8 27.9,14.7 23.2,19.2 21.2,21.3 14.8,27.8 19,32 	"/>
	<path class="st0" d="M38.9,12c0.6-0.6,0.9-1.3,0.9-2.1s-0.3-1.5-0.9-2.1c-0.6-0.6-1.3-0.9-2.1-0.9s-1.5,0.3-2.1,0.9l-1,1l4.2,4.2
		L38.9,12z"/>
	<path class="st0" d="M7.8,34.8c-0.6,0.6-0.9,1.3-0.9,2.1s0.3,1.5,0.9,2.1l0,0c1.1,1.1,3.1,1.1,4.2,0l1.2-1.2L9,33.6L7.8,34.8z"/>
</g>
</svg>
