<svg xmlns="http://www.w3.org/2000/svg" viewBox="0 0 63.89 63.89"><defs><style>.cls-1{fill:#597280;}</style></defs><g id="Layer_1" data-name="Layer 1"><path class="cls-1" d="M32.49,26.13a1.75,1.75,0,1,1-1.74,1.75,1.75,1.75,0,0,1,1.74-1.75m0-2.05a3.8,3.8,0,1,0,3.8,3.8,3.8,3.8,0,0,0-3.8-3.8Z"/><path class="cls-1" d="M25,26.13v3.5h-3.5v-3.5H25M27,24.08h-7.6v7.6H27v-7.6Z"/><path class="cls-1" d="M41.1,28.69l.47.94h-.93l.46-.94m0-4.61-3.75,7.61h7.55l-3.8-7.6Z"/><path class="cls-1" d="M36.05,35V46.38a1,1,0,0,0,1,1h.72A1,1,0,0,1,38.57,49l-5.82,7.3a1,1,0,0,1-1.56,0L25.33,49a1,1,0,0,1,.78-1.62h.59a1,1,0,0,0,1-1V35a1,1,0,0,1,1-1h6.35A1,1,0,0,1,36.05,35Z"/><path class="cls-1" d="M49.16,15.1H14.73a3.08,3.08,0,0,0-3.08,3.08V37.57a3.08,3.08,0,0,0,3.08,3.08h9.72V42h1.23V37.84H15.76a1,1,0,0,1-1-1V18.94a1,1,0,0,1,1-1H48.14a1,1,0,0,1,1,1V36.81a1,1,0,0,1-1,1H38.21V42h1.23v-1.3h9.72a3.08,3.08,0,0,0,3.08-3.08V18.18A3.08,3.08,0,0,0,49.16,15.1Z"/></g></svg>