<svg xmlns="http://www.w3.org/2000/svg" xmlns:xlink="http://www.w3.org/1999/xlink" viewBox="0 0 63.89 63.89"><defs><style>.cls-1{fill:none;}.cls-2{clip-path:url(#clip-path);}.cls-3{fill:#597280;}</style><clipPath id="clip-path"><rect class="cls-1" x="8.65" y="6.84" width="49.26" height="30.81" rx="6.6"/></clipPath></defs><g id="Layer_1" data-name="Layer 1"><g class="cls-2"><path class="cls-3" d="M47.34,22.24l2.51-3.63A1.17,1.17,0,0,0,49.56,17l-5.64-4a1.18,1.18,0,0,0-1.62.29L39.76,17Z"/><polygon class="cls-3" points="37.78 19.87 45.35 25.12 46.53 23.42 38.95 18.17 37.78 19.87"/><path class="cls-3" d="M37,21,22.21,42.41a1.16,1.16,0,0,0,.3,1.61l5.64,4a1.16,1.16,0,0,0,1.61-.29L44.54,26.3Z"/><path class="cls-3" d="M28,48.83l-6.11-4.24a.74.74,0,0,0-1.16.56l-.25,3.38a.75.75,0,0,0,.32.67l3.25,2.25a.76.76,0,0,0,.73.07l3.1-1.4A.75.75,0,0,0,28,48.83Z"/><path class="cls-3" d="M19.92,52.19a1,1,0,0,0,1.47,1l.48-.22a1.36,1.36,0,0,0,.22-2.36h0a1.37,1.37,0,0,0-2.14,1Z"/><path class="cls-3" d="M23.73,18.5,11.46,14.77l0,0,3.71,12.29s3.58.57,5.44,2.06l-1,1,.64.64,1-1,1.51,1.51L28,26.09l-1.51-1.51,1-1-.65-.65-1,1C24.3,22.09,23.73,18.5,23.73,18.5Zm-11-1.94,4.86,4.88a1.65,1.65,0,1,0,2.55-.27A1.67,1.67,0,0,0,18.06,21L13.17,16l10,3a14.21,14.21,0,0,0,2,5.21L20.89,28.5a14.1,14.1,0,0,0-5.21-2Z"/><path class="cls-3" d="M46.09,51.47l-1,1-9.86-9.85L38.49,39l7.6,5.92A4.63,4.63,0,0,1,46.09,51.47Z"/><polygon class="cls-3" points="29.71 28.81 28.05 27.08 23.77 31.37 26.15 33.82 29.71 28.81"/><path class="cls-3" d="M33.63,41l-.11.12.25.25,1-1a4.64,4.64,0,0,0,1.31-2.84Z"/></g><path class="cls-3" d="M36.7,34.87V46.34c0,.55.6,1,1.34,1h1c1.13,0,1.75,1,1.05,1.63l-7.8,7.33a1.64,1.64,0,0,1-2.09,0L22.32,49c-.7-.65-.08-1.63,1-1.63h.8c.74,0,1.34-.45,1.34-1V37.64l9.86-3.77C36.1,33.87,36.7,34.31,36.7,34.87Z"/></g></svg>