<?xml version="1.0" encoding="utf-8"?>
<!-- Generator: Adobe Illustrator 24.3.0, SVG Export Plug-In . SVG Version: 6.00 Build 0)  -->
<svg version="1.1" xmlns="http://www.w3.org/2000/svg" xmlns:xlink="http://www.w3.org/1999/xlink" x="0px" y="0px"
	 viewBox="0 0 63.9 63.9" style="enable-background:new 0 0 63.9 63.9;" xml:space="preserve">
<style type="text/css">
	.st0{fill:#F1F3F6;}
	.st1{fill:#FED8D8;}
	.st2{fill:#8CA2AE;}
	.st3{fill:#7080B3;}
	.st4{fill:#2D415D;}
	.st5{fill:#2C3550;}
	.st6{fill:#EFEFEF;}
	.st7{fill:#0B1824;}
	.st8{fill:#333333;}
	.st9{fill:#FE706A;}
	.st10{fill:#395275;}
	.st11{fill:#5176A8;}
	.st12{fill:#5E87C2;}
	.st13{fill:#45648F;}
	.st14{fill:#E1E7EA;}
	.st15{fill:#CCCCCC;}
	.st16{opacity:0.85;}
	.st17{opacity:0.2;}
	.st18{fill:#597280;}
	.st19{fill:#CFDDE6;}
	.st20{clip-path:url(#SVGID_2_);}
	.st21{fill:url(#SVGID_3_);stroke:#8A8A8A;stroke-width:5.558914e-02;stroke-miterlimit:10;}
	.st22{fill:url(#SVGID_4_);stroke:#8A8A8A;stroke-width:5.728751e-02;stroke-miterlimit:10;}
	.st23{fill:url(#SVGID_5_);stroke:#8A8A8A;stroke-width:5.728751e-02;stroke-miterlimit:10;}
	.st24{fill:url(#SVGID_6_);stroke:#444444;stroke-width:0.2288;stroke-miterlimit:10;}
	.st25{opacity:0.25;}
	.st26{fill:none;stroke:#000000;stroke-width:0.2263;stroke-miterlimit:10;}
	.st27{fill:url(#SVGID_7_);}
	.st28{fill:none;stroke:#232323;stroke-width:0.2263;stroke-miterlimit:10;}
	.st29{fill:#FFFFFF;stroke:#8A8A8A;stroke-width:0.2292;stroke-miterlimit:10;}
	.st30{stroke:#8A8A8A;stroke-width:0.2302;stroke-miterlimit:10;}
	.st31{opacity:0.35;fill:#C0C1C3;}
	.st32{fill:none;stroke:#8A8A8A;stroke-width:0.2305;stroke-miterlimit:10;}
	.st33{fill:url(#SVGID_8_);stroke:#696969;stroke-width:5.229970e-02;stroke-miterlimit:10;}
	.st34{fill:#F1F2F4;stroke:#BABABA;stroke-width:0.1146;stroke-miterlimit:10;}
	.st35{fill:url(#SVGID_9_);}
	.st36{fill:url(#);}
	.st37{fill:#B5B5B5;}
	.st38{fill:#585858;}
	.st39{fill:url(#SVGID_10_);}
	.st40{fill:#8A8A8A;}
	.st41{opacity:0.5;}
	.st42{fill:url(#SVGID_11_);}
	.st43{fill:#0F0F0F;}
	.st44{fill:#212121;}
	.st45{fill:url(#SVGID_12_);}
	.st46{fill:url(#SVGID_13_);}
	.st47{fill:none;stroke:#444444;stroke-width:3.437250e-02;stroke-miterlimit:10;}
	.st48{fill:none;stroke:#444444;stroke-width:5.728751e-02;stroke-miterlimit:10;}
	.st49{opacity:0.75;fill:url(#SVGID_14_);}
	.st50{fill:none;}
	.st51{clip-path:url(#SVGID_16_);}
	.st52{opacity:0.25;fill:#0F0F0F;}
	.st53{fill:#009DDD;}
	.st54{fill:#2E3191;}
	.st55{fill:#FFFFFF;}
	.st56{fill:#BFBFBF;}
	.st57{fill:#3C3C3C;}
	.st58{opacity:0.75;fill:url(#SVGID_17_);}
	.st59{fill:#151515;}
	.st60{opacity:0.5;fill:none;stroke:#BFBFBF;stroke-width:0.5364;stroke-miterlimit:10;}
	.st61{fill:#D6D6D6;}
	.st62{fill:#E6A300;}
	.st63{fill:#1E2D5C;}
</style>
<g id="bkgrd">
</g>
<g id="Layer_1">
	<g>
		<g>
			<path class="st18" d="M31.2,55.7c-0.7,0-1.3-0.6-1.3-1.3L30.8,34c0-0.2,0.2-3.9-1.7-5.2c-1.5-1.1-2.3-1.7-2.4-2.8
				c0-0.1,0-0.2,0-0.2V9.3c0-0.1,0.1-0.3,0.3-0.3s0.3,0.1,0.3,0.3v11.6c0,0.7,0.5,1.2,1.2,1.2c0.7,0,1.2-0.5,1.2-1.2l0-11.6
				c0-0.1,0.1-0.3,0.3-0.3s0.3,0.1,0.3,0.3v11.6c0,0.7,0.5,1.2,1.2,1.2s1.2-0.5,1.2-1.2l0-11.6c0-0.1,0.1-0.3,0.3-0.3
				c0.1,0,0.3,0.1,0.3,0.3v11.6c0,0.6,0.5,1,1,1c0.6,0,1-0.5,1-1l0-11.6c0-0.1,0.1-0.3,0.3-0.3s0.3,0.1,0.3,0.3v16.4
				c0,0,0,0.1,0,0.1c-0.2,1.2-0.9,1.8-2.4,2.9c-1.9,1.4-1.7,5.1-1.7,5.2l0.9,20.2c0,0.1,0,0.1,0,0.2C32.5,55.1,31.9,55.7,31.2,55.7z
				"/>
			<path class="st18" d="M32.9,21.8c0.3,0.3,0.7,0.6,1.2,0.6c0.4,0,0.8-0.2,1.1-0.5v0l0,3.8l0,0.1l0,0.1c-0.1,0.9-0.8,1.4-2.2,2.5
				c-1.2,0.9-1.7,2.6-1.8,3.9c-0.1-1.3-0.6-3-1.8-3.9c-1.4-1.1-2.1-1.6-2.2-2.5l0-0.1l0-0.1v-0.3V22c0.3,0.4,0.8,0.6,1.3,0.6
				c0.6,0,1.1-0.3,1.4-0.7H30c0.3,0.4,0.8,0.7,1.4,0.7s1.1-0.3,1.4-0.7H32.9 M31.2,35.1l0.8,19l0,0l0,0c0,0,0,0.1,0,0.1
				c0,0.5-0.4,0.9-0.9,0.9s-0.9-0.4-0.9-0.8l0,0l0,0l0-0.1L31.2,35.1 M35.4,8.6c-0.4,0-0.7,0.3-0.7,0.7v11.6h0
				c0,0.3-0.3,0.6-0.6,0.6c-0.3,0-0.6-0.3-0.6-0.6h0V9.3c0-0.4-0.3-0.7-0.7-0.7s-0.7,0.3-0.7,0.7v11.6h0c0,0.4-0.3,0.7-0.7,0.7
				s-0.7-0.3-0.7-0.7V9.3c0-0.4-0.3-0.7-0.7-0.7c-0.4,0-0.7,0.3-0.7,0.7v11.6h0c0,0.4-0.3,0.7-0.7,0.7s-0.7-0.3-0.7-0.7V9.3
				c0-0.4-0.3-0.7-0.7-0.7s-0.7,0.3-0.7,0.7v16.1c0,0,0,0,0,0v0.3c0,0.1,0,0.2,0,0.3c0.2,1.3,1.1,2,2.6,3.1c1.7,1.2,1.5,4.8,1.5,4.8
				l-0.9,20.3h0c0,0,0,0,0,0c0,1,0.8,1.8,1.8,1.8c1,0,1.8-0.8,1.8-1.8c0-0.1,0-0.1,0-0.2l-0.9-20.2c0,0-0.2-3.6,1.5-4.8
				c1.5-1.1,2.4-1.8,2.6-3.1c0-0.1,0-0.2,0-0.3V22v0V9.3C36.2,8.9,35.8,8.6,35.4,8.6L35.4,8.6z"/>
		</g>
	</g>
</g>
</svg>
