<?xml version="1.0" encoding="utf-8"?>
<!-- Generator: Adobe Illustrator 24.1.2, SVG Export Plug-In . SVG Version: 6.00 Build 0)  -->
<svg version="1.1" xmlns="http://www.w3.org/2000/svg" xmlns:xlink="http://www.w3.org/1999/xlink" x="0px" y="0px"
	 viewBox="0 0 63.9 63.9" style="enable-background:new 0 0 63.9 63.9;" xml:space="preserve">
<style type="text/css">
	.st0{fill:#F1F3F6;}
	.st1{fill:#FED8D8;}
	.st2{fill:#8CA2AE;}
	.st3{fill:#7080B3;}
	.st4{fill:#2D415D;}
	.st5{fill:#2C3550;}
	.st6{fill:#EFEFEF;}
	.st7{fill:#0B1824;}
	.st8{fill:#333333;}
	.st9{fill:#FE706A;}
	.st10{fill:#395275;}
	.st11{fill:#5176A8;}
	.st12{fill:#5E87C2;}
	.st13{fill:#45648F;}
	.st14{fill:#E1E7EA;}
	.st15{fill:#CCCCCC;}
	.st16{opacity:0.85;}
	.st17{opacity:0.2;}
	.st18{fill:#597280;}
</style>
<g id="bkgrd">
</g>
<g id="Layer_1">
	<g>
	</g>
	<g>
		<path class="st9" d="M48.3,24.3V13.9c0-0.6-0.4-1-1-1h-6.4c-0.6,0-1,0.4-1,1V14c0,0.9-1.1,1.3-1.7,0.7l-5.6-5.6
			c-0.4-0.4-1-0.4-1.4,0L10.5,29.8c-0.3,0.3-0.4,0.7-0.2,1l0.7,2.3c0.2,0.7,1.1,0.9,1.7,0.4l0.3-0.3c0.6-0.6,1.7-0.2,1.7,0.7v14.8
			c0,0.6,0.4,1,1,1h10.7c0.6,0,1-0.4,1-1V37.3c0-0.6-0.4-1-1-1l-0.7,0c-0.8,0-1.3-1-0.8-1.6l5.8-7.3c0.4-0.5,1.2-0.5,1.6,0l5.9,7.3
			c0.5,0.7,0.1,1.6-0.8,1.6l-0.6,0c-0.6,0-1,0.4-1,1v11.4c0,0.6,0.4,1,1,1h10.8c0.6,0,1-0.4,1-1V33.3c0-0.9,1.1-1.3,1.7-0.7l1,1
			c0.5,0.5,1.4,0.3,1.7-0.4l0.7-2.3c0.1-0.4,0-0.7-0.2-1l-4.8-4.8C48.4,24.9,48.3,24.6,48.3,24.3z"/>
	</g>
</g>
</svg>
