<svg xmlns="http://www.w3.org/2000/svg" viewBox="0 0 63.89 63.89"><defs><style>.cls-1{fill:#fe706a;}</style></defs><title>portfolio</title><g id="Layer_1" data-name="Layer 1"><path class="cls-1" d="M44.25,15.38H19.64a4.25,4.25,0,0,0-4.26,4.25V44.25a4.26,4.26,0,0,0,4.26,4.26H44.25a4.26,4.26,0,0,0,4.26-4.26V19.63A4.25,4.25,0,0,0,44.25,15.38ZM41.13,32.33l-1.59,1.16a2.67,2.67,0,0,0-1,3l.61,1.88a2.65,2.65,0,0,1-4.08,3l-1.6-1.16a2.67,2.67,0,0,0-3.12,0L28.79,41.3a2.66,2.66,0,0,1-4.09-3l.61-1.88a2.65,2.65,0,0,0-1-3l-1.6-1.16a2.65,2.65,0,0,1,1.56-4.8h2a2.67,2.67,0,0,0,2.53-1.83l.61-1.88a2.66,2.66,0,0,1,5,0l.61,1.88a2.64,2.64,0,0,0,2.52,1.83h2A2.65,2.65,0,0,1,41.13,32.33Z"/></g></svg>