<?xml version="1.0" encoding="utf-8"?>
<!-- Generator: Adobe Illustrator 25.2.0, SVG Export Plug-In . SVG Version: 6.00 Build 0)  -->
<svg version="1.1" id="Layer_1" xmlns="http://www.w3.org/2000/svg" xmlns:xlink="http://www.w3.org/1999/xlink" x="0px" y="0px"
	 viewBox="0 0 63.9 63.9" style="enable-background:new 0 0 63.9 63.9;" xml:space="preserve">
<style type="text/css">
	.st0{fill:#597280;}
</style>
<g>
	<path class="st0" d="M32,25c3,0,5.7-1.6,7.7-4.3c-2-2.6-4.7-4.3-7.7-4.3s-5.7,1.6-7.7,4.3C26.3,23.4,29,25,32,25z"/>
	<path class="st0" d="M48.2,42.2c-1-1.1-2.4-2.3-4.1-3.3c0.3-1.3,0.6-2.7,0.6-4.1c0.5,0.3,0.9,0.5,1.2,0.8c2.3,1.6,3,3.3,3,3.3
		c0.3,0.8,1.2,1.2,2,0.9c0.8-0.3,1.2-1.2,0.9-2c-0.1-0.2-1.6-4-7.3-6.5c-0.1-0.7-0.2-1.3-0.4-2c0,0,0,0,0,0c1.7-1,3-2.1,4-3.2
		c2.8-3,3.7-6.1,3.7-6.2c0.2-0.8-0.3-1.7-1.1-1.9c-0.8-0.2-1.7,0.3-1.9,1.1c-0.1,0.3-1.3,4.4-5.7,7.2c-0.7-1.5-1.5-2.8-2.5-4
		c-2.3,2.6-5.3,4.3-8.7,4.3c-3.4,0-6.4-1.6-8.7-4.3c-0.9,1-1.6,2.2-2.3,3.5c-0.8-0.5-1.6-1.1-2.3-1.8c-2.7-2.5-3.8-5.1-3.8-5.1
		c-0.3-0.8-1.2-1.2-2-0.9c-0.8,0.3-1.2,1.2-0.9,2c0.1,0.1,1.3,3.1,4.4,6.1c0.9,0.9,2,1.8,3.4,2.6c0,0.2-0.1,0.4-0.1,0.5
		c-0.2,0.8-0.3,1.6-0.4,2.4c-5.1,2.4-7.1,5.6-7.2,5.8c-0.4,0.8-0.2,1.7,0.6,2.2c0.2,0.1,0.5,0.2,0.8,0.2c0.5,0,1.1-0.3,1.4-0.8
		c0,0,1.1-1.7,3.7-3.4c0.2-0.1,0.4-0.3,0.7-0.4c0.1,1.4,0.4,2.8,0.8,4.2c-1.4,0.9-2.6,1.8-3.5,2.7c-3.2,3-4.4,6-4.4,6.1
		c-0.3,0.8,0.1,1.7,0.9,2c0.2,0.1,0.4,0.1,0.6,0.1c0.6,0,1.2-0.4,1.5-1c0-0.1,1.7-4,6.3-7c2.3,4.4,6.2,7.3,10.7,7.3
		c4.7,0,8.8-3.1,11-7.8c4.6,2.8,5.8,7,5.9,7.3c0.2,0.8,1.1,1.3,1.9,1.1c0.8-0.2,1.3-1.1,1.1-1.9C51.9,48.3,51,45.2,48.2,42.2z"/>
</g>
</svg>
