<?xml version="1.0" encoding="utf-8"?>
<!-- Generator: Adobe Illustrator 25.2.0, SVG Export Plug-In . SVG Version: 6.00 Build 0)  -->
<svg version="1.1" id="Layer_1" xmlns="http://www.w3.org/2000/svg" xmlns:xlink="http://www.w3.org/1999/xlink" x="0px" y="0px"
	 viewBox="0 0 122.4 56.1" style="enable-background:new 0 0 122.4 56.1;" xml:space="preserve">
<style type="text/css">
	.st0{fill:#FE706A;}
	.st1{fill:#8CA2AE;}
</style>
<g id="bkgrd">
</g>
<g>
	<g>
		<path class="st0" d="M15.9,25.6c0-1-0.3-1.7-1-2.3c-0.7-0.6-1.9-1.1-3.8-1.6c-1.8-0.5-3.2-1.1-4-1.7c-1.2-0.9-1.8-2-1.8-3.4
			c0-1.3,0.6-2.4,1.7-3.3c1.1-0.8,2.5-1.3,4.3-1.3c1.2,0,2.2,0.2,3.1,0.7c0.9,0.5,1.6,1.1,2.1,1.9c0.5,0.8,0.8,1.7,0.8,2.7h-1.5
			c0-1.2-0.4-2.2-1.2-2.9c-0.8-0.7-1.9-1.1-3.3-1.1c-1.3,0-2.4,0.3-3.2,0.9c-0.8,0.6-1.2,1.4-1.2,2.4c0,0.9,0.4,1.6,1.1,2.2
			c0.7,0.6,1.9,1.1,3.5,1.5c1.6,0.4,2.8,0.9,3.6,1.3c0.8,0.5,1.4,1,1.8,1.7c0.4,0.6,0.6,1.4,0.6,2.3c0,1.4-0.6,2.5-1.7,3.3
			c-1.1,0.8-2.6,1.3-4.4,1.3C10.1,30.2,9,30,8,29.6c-1-0.4-1.8-1.1-2.4-1.9c-0.5-0.8-0.8-1.7-0.8-2.7h1.5c0,1.2,0.5,2.2,1.4,2.9
			c0.9,0.7,2.2,1.1,3.7,1.1c1.4,0,2.5-0.3,3.3-0.9C15.5,27.4,15.9,26.6,15.9,25.6z"/>
		<path class="st0" d="M23.4,27l0.2,1.1l0.3-1.2l3.1-10h1.2l3.1,9.9l0.3,1.4l0.3-1.3l2.7-10.1h1.5L32.4,30h-1.2l-3.4-10.4l-0.2-0.7
			l-0.2,0.7L24.2,30H23l-3.8-13.1h1.5L23.4,27z"/>
		<path class="st0" d="M38.9,13.1c0-0.3,0.1-0.5,0.3-0.7c0.2-0.2,0.4-0.3,0.7-0.3c0.3,0,0.6,0.1,0.7,0.3s0.3,0.4,0.3,0.7
			s-0.1,0.5-0.3,0.7c-0.2,0.2-0.4,0.3-0.7,0.3c-0.3,0-0.5-0.1-0.7-0.3C39,13.6,38.9,13.4,38.9,13.1z M40.6,30h-1.5V16.9h1.5V30z"/>
		<path class="st0" d="M55.1,23.6c0,2-0.5,3.7-1.4,4.9c-0.9,1.2-2.1,1.8-3.6,1.8c-1.8,0-3.2-0.6-4.1-1.9V35h-1.4V16.9h1.3l0.1,1.9
			c0.9-1.4,2.3-2.1,4.1-2.1c1.6,0,2.8,0.6,3.7,1.8c0.9,1.2,1.3,2.8,1.3,4.9V23.6z M53.6,23.3c0-1.7-0.3-3-1-4
			c-0.7-1-1.6-1.5-2.9-1.5c-0.9,0-1.7,0.2-2.3,0.6c-0.6,0.4-1.1,1-1.5,1.9v6.3c0.3,0.8,0.8,1.3,1.5,1.7c0.6,0.4,1.4,0.6,2.3,0.6
			c1.2,0,2.2-0.5,2.9-1.5C53.3,26.6,53.6,25.2,53.6,23.3z"/>
		<path class="st0" d="M63.4,30.2c-1.1,0-2.1-0.3-3-0.8c-0.9-0.5-1.6-1.3-2.1-2.3c-0.5-1-0.8-2.1-0.8-3.3v-0.5
			c0-1.3,0.2-2.4,0.7-3.4c0.5-1,1.2-1.8,2-2.4c0.9-0.6,1.8-0.9,2.8-0.9c1.6,0,2.9,0.5,3.8,1.6s1.4,2.6,1.4,4.5v0.8h-9.3v0.3
			c0,1.5,0.4,2.7,1.3,3.7c0.9,1,1.9,1.5,3.2,1.5c0.8,0,1.5-0.1,2.1-0.4c0.6-0.3,1.1-0.7,1.6-1.4l0.9,0.7
			C67,29.4,65.4,30.2,63.4,30.2z M63.1,17.9c-1.1,0-2,0.4-2.8,1.2c-0.7,0.8-1.2,1.9-1.4,3.2h7.9v-0.2c0-1.3-0.4-2.3-1.1-3.1
			S64.2,17.9,63.1,17.9z"/>
		<path class="st1" d="M90.6,30h-1.5L79,14.9V30h-1.5V12.3H79l10.1,15.1V12.3h1.5V30z"/>
		<path class="st1" d="M103,30c-0.1-0.4-0.2-1-0.3-1.8c-0.5,0.7-1.2,1.2-1.9,1.5c-0.8,0.4-1.6,0.5-2.5,0.5c-1.3,0-2.3-0.4-3.1-1.1
			c-0.8-0.7-1.2-1.6-1.2-2.7c0-1.3,0.5-2.3,1.6-3c1.1-0.7,2.5-1.1,4.4-1.1h2.6v-1.5c0-0.9-0.3-1.7-0.9-2.2c-0.6-0.5-1.4-0.8-2.5-0.8
			c-1,0-1.8,0.3-2.5,0.8c-0.7,0.5-1,1.1-1,1.9l-1.5,0c0-1,0.5-1.9,1.5-2.7c1-0.8,2.2-1.1,3.6-1.1c1.5,0,2.6,0.4,3.5,1.1
			c0.8,0.7,1.3,1.7,1.3,3.1V27c0,1.3,0.1,2.2,0.4,2.8V30H103z M98.5,28.9c1,0,1.8-0.2,2.6-0.7c0.8-0.5,1.3-1.1,1.7-1.9v-2.9h-2.6
			c-1.4,0-2.6,0.3-3.4,0.8c-0.8,0.5-1.2,1.2-1.2,2.1c0,0.7,0.3,1.3,0.8,1.8S97.6,28.9,98.5,28.9z"/>
		<path class="st1" d="M111.9,28l4-11.1h1.5L112.5,30h-1.2l-4.9-13.1h1.5L111.9,28z"/>
	</g>
	<path class="st0" d="M85.5,36.2V35h20.9v1.2H85.5z"/>
	<path class="st0" d="M95.9,48.4l5.5-8.6h2.2l-6.9,10.2h-1.8l-6.9-10.2h2.3L95.9,48.4z"/>
</g>
</svg>
