<?xml version="1.0" encoding="utf-8"?>
<!-- Generator: Adobe Illustrator 25.2.0, SVG Export Plug-In . SVG Version: 6.00 Build 0)  -->
<svg version="1.1" id="Layer_1" xmlns="http://www.w3.org/2000/svg" xmlns:xlink="http://www.w3.org/1999/xlink" x="0px" y="0px"
	 viewBox="0 0 177.2 63.9" style="enable-background:new 0 0 177.2 63.9;" xml:space="preserve">
<style type="text/css">
	.st0{fill:#FE706A;}
	.st1{fill:#8CA2AE;}
</style>
<g id="bkgrd">
</g>
<g>
	<path class="st0" d="M37.2,22.9c0-1.3-0.5-2.4-1.4-3.2c-0.9-0.8-2.7-1.5-5.2-2.2C28,16.7,26.2,16,25,15.1c-1.6-1.2-2.5-2.7-2.5-4.6
		c0-1.9,0.8-3.4,2.3-4.5c1.5-1.2,3.5-1.7,5.9-1.7c1.6,0,3.1,0.3,4.3,0.9c1.3,0.6,2.3,1.5,3,2.6s1.1,2.4,1.1,3.7H37
		c0-1.7-0.6-3-1.7-4c-1.1-1-2.7-1.5-4.6-1.5c-1.9,0-3.3,0.4-4.4,1.2c-1.1,0.8-1.7,1.9-1.7,3.3c0,1.2,0.5,2.2,1.5,3
		c1,0.8,2.6,1.5,4.8,2.1c2.2,0.6,3.8,1.2,5,1.9c1.1,0.6,2,1.4,2.5,2.3c0.6,0.9,0.9,1.9,0.9,3.2c0,1.9-0.8,3.5-2.3,4.6
		c-1.5,1.2-3.6,1.7-6.1,1.7c-1.7,0-3.3-0.3-4.7-0.9c-1.4-0.6-2.5-1.5-3.3-2.6c-0.7-1.1-1.1-2.4-1.1-3.8h2.1c0,1.7,0.6,3.1,1.9,4.1
		c1.3,1,3,1.5,5.1,1.5c1.9,0,3.4-0.4,4.6-1.3C36.6,25.4,37.2,24.3,37.2,22.9z"/>
	<path class="st0" d="M50.2,29.2c-1.5,0-2.9-0.4-4.2-1.1c-1.2-0.8-2.2-1.8-2.9-3.2c-0.7-1.4-1-2.9-1-4.6v-0.7c0-1.7,0.3-3.3,1-4.7
		c0.7-1.4,1.6-2.5,2.8-3.3s2.5-1.2,3.9-1.2c2.2,0,3.9,0.7,5.2,2.2s1.9,3.5,1.9,6.1V20H44.1v0.4c0,2,0.6,3.8,1.8,5.1
		c1.2,1.4,2.7,2,4.4,2c1.1,0,2-0.2,2.8-0.6c0.8-0.4,1.6-1,2.2-1.9l1.3,1C55.1,28.1,53,29.2,50.2,29.2z M49.8,12.2
		c-1.5,0-2.8,0.6-3.8,1.7c-1,1.1-1.7,2.6-1.9,4.4H55V18c-0.1-1.7-0.6-3.2-1.5-4.2S51.4,12.2,49.8,12.2z"/>
	<path class="st0" d="M67.6,27.5c1.4,0,2.6-0.4,3.5-1.2c0.9-0.8,1.5-1.8,1.5-3h1.9c-0.1,1.1-0.4,2.1-1,3S72,27.9,71,28.4
		c-1.1,0.5-2.2,0.8-3.4,0.8c-2.4,0-4.3-0.8-5.6-2.5c-1.4-1.6-2.1-3.9-2.1-6.7v-0.6c0-1.8,0.3-3.4,0.9-4.7c0.6-1.4,1.5-2.4,2.7-3.2
		c1.2-0.7,2.5-1.1,4.1-1.1c2,0,3.6,0.6,4.9,1.8s2,2.7,2.1,4.7h-1.9c-0.1-1.4-0.6-2.6-1.5-3.4c-0.9-0.9-2.1-1.3-3.5-1.3
		c-1.8,0-3.2,0.7-4.2,2c-1,1.3-1.5,3.1-1.5,5.5v0.6c0,2.3,0.5,4.1,1.5,5.4C64.3,26.9,65.8,27.5,67.6,27.5z"/>
	<path class="st0" d="M81.6,6.2v4.6h3.7v1.6h-3.7v12.1c0,1,0.2,1.8,0.5,2.2c0.4,0.5,1,0.7,1.8,0.7c0.3,0,0.9-0.1,1.6-0.2l0.1,1.6
		c-0.5,0.2-1.2,0.3-2.1,0.3c-1.4,0-2.4-0.4-3-1.2c-0.6-0.8-0.9-2-0.9-3.5V12.4h-3.3v-1.6h3.3V6.2H81.6z"/>
	<path class="st0" d="M89.4,5.6c0-0.4,0.1-0.7,0.4-1c0.2-0.3,0.6-0.4,1-0.4c0.4,0,0.8,0.1,1,0.4s0.4,0.6,0.4,1S92,6.3,91.8,6.5
		c-0.3,0.3-0.6,0.4-1,0.4c-0.4,0-0.8-0.1-1-0.4C89.5,6.3,89.4,5.9,89.4,5.6z M91.7,28.9h-2V10.8h2V28.9z"/>
	<path class="st0" d="M96.1,19.6c0-1.7,0.3-3.3,1-4.7c0.7-1.4,1.6-2.5,2.9-3.2c1.2-0.8,2.6-1.2,4.2-1.2c2.4,0,4.4,0.8,5.8,2.5
		c1.5,1.7,2.2,3.9,2.2,6.7v0.4c0,1.7-0.3,3.3-1,4.7c-0.7,1.4-1.6,2.5-2.8,3.2c-1.2,0.8-2.6,1.1-4.2,1.1c-2.4,0-4.3-0.8-5.8-2.5
		c-1.5-1.7-2.2-3.9-2.2-6.7V19.6z M98.1,20.1c0,2.2,0.6,3.9,1.7,5.3c1.1,1.4,2.6,2.1,4.4,2.1c1.8,0,3.3-0.7,4.4-2.1
		c1.1-1.4,1.7-3.2,1.7-5.5v-0.4c0-1.4-0.3-2.6-0.8-3.8c-0.5-1.1-1.2-2-2.2-2.7c-0.9-0.6-2-0.9-3.2-0.9c-1.8,0-3.2,0.7-4.4,2.1
		c-1.1,1.4-1.7,3.2-1.7,5.5V20.1z"/>
	<path class="st0" d="M118.2,10.8l0.1,3.1c0.7-1.1,1.5-2,2.5-2.5c1-0.6,2.1-0.9,3.4-0.9c1.9,0,3.4,0.5,4.3,1.6
		c0.9,1.1,1.4,2.7,1.4,4.9v11.9h-2V17c0-1.6-0.4-2.8-1-3.6c-0.7-0.8-1.8-1.2-3.2-1.2c-1.2,0-2.3,0.4-3.3,1.2c-1,0.8-1.7,1.8-2.1,3.1
		v12.4h-2V10.8H118.2z"/>
	<path class="st1" d="M24.3,37l8.4,20l8.4-20h2.6v22.7h-1.9v-9.9l0.2-10.1l-8.5,20H32l-8.4-19.9l0.2,10v10h-1.9V37H24.3z"/>
	<path class="st1" d="M59.7,59.7c-0.2-0.5-0.3-1.3-0.4-2.4c-0.7,0.9-1.5,1.5-2.5,2c-1,0.5-2.1,0.7-3.2,0.7c-1.6,0-2.9-0.5-3.9-1.4
		c-1-0.9-1.5-2-1.5-3.4c0-1.6,0.7-2.9,2.1-3.9c1.4-1,3.3-1.4,5.7-1.4h3.4V48c0-1.2-0.4-2.2-1.1-2.8c-0.7-0.7-1.8-1-3.3-1
		c-1.3,0-2.4,0.3-3.2,1c-0.9,0.7-1.3,1.5-1.3,2.4l-1.9,0c0-1.3,0.6-2.5,1.9-3.5c1.2-1,2.8-1.5,4.6-1.5c1.9,0,3.4,0.5,4.5,1.4
		c1.1,0.9,1.6,2.3,1.7,3.9v8c0,1.6,0.2,2.9,0.5,3.7v0.2H59.7z M53.8,58.4c1.2,0,2.4-0.3,3.3-0.9c1-0.6,1.7-1.4,2.1-2.4v-3.7h-3.3
		c-1.9,0-3.3,0.4-4.4,1C50.5,53,50,53.9,50,55.1c0,0.9,0.4,1.7,1.1,2.4C51.8,58.1,52.7,58.4,53.8,58.4z"/>
	<path class="st1" d="M69,38.5v4.3h3.5v1.5H69v11.3c0,0.9,0.2,1.6,0.5,2.1c0.3,0.5,0.9,0.7,1.7,0.7c0.3,0,0.8-0.1,1.5-0.2l0.1,1.5
		c-0.5,0.2-1.2,0.3-2,0.3c-1.3,0-2.2-0.4-2.8-1.1s-0.9-1.8-0.9-3.3V44.4H64v-1.5h3.1v-4.3H69z"/>
	<path class="st1" d="M82.9,60c-1.4,0-2.7-0.4-3.9-1.1c-1.2-0.7-2.1-1.7-2.7-3s-1-2.7-1-4.2v-0.7c0-1.6,0.3-3.1,0.9-4.4
		c0.6-1.3,1.5-2.3,2.6-3.1c1.1-0.7,2.3-1.1,3.6-1.1c2,0,3.7,0.7,4.9,2.1c1.2,1.4,1.8,3.3,1.8,5.7v1h-12v0.4c0,1.9,0.5,3.5,1.6,4.8
		c1.1,1.3,2.5,1.9,4.1,1.9c1,0,1.9-0.2,2.6-0.5c0.8-0.4,1.5-0.9,2.1-1.7l1.2,0.9C87.5,59,85.5,60,82.9,60z M82.6,44.1
		c-1.4,0-2.6,0.5-3.5,1.5c-1,1-1.5,2.4-1.8,4.1h10.1v-0.2c-0.1-1.6-0.5-2.9-1.4-4C85.1,44.6,84,44.1,82.6,44.1z"/>
	<path class="st1" d="M100.7,44.4c-0.4-0.1-0.8-0.1-1.3-0.1c-1.2,0-2.1,0.3-3,1c-0.8,0.6-1.4,1.6-1.7,2.8v11.6h-1.9V42.8h1.8l0,2.7
		c1-2,2.6-3,4.8-3c0.5,0,0.9,0.1,1.2,0.2L100.7,44.4z"/>
	<path class="st1" d="M103.5,38c0-0.4,0.1-0.6,0.3-0.9s0.5-0.4,0.9-0.4s0.7,0.1,0.9,0.4c0.2,0.2,0.4,0.5,0.4,0.9
		c0,0.4-0.1,0.6-0.4,0.9c-0.2,0.2-0.5,0.4-0.9,0.4s-0.7-0.1-0.9-0.4C103.6,38.6,103.5,38.3,103.5,38z M105.7,59.7h-1.9V42.8h1.9
		V59.7z"/>
	<path class="st1" d="M121.4,59.7c-0.2-0.5-0.3-1.3-0.4-2.4c-0.7,0.9-1.5,1.5-2.5,2c-1,0.5-2.1,0.7-3.2,0.7c-1.6,0-2.9-0.5-3.9-1.4
		c-1-0.9-1.5-2-1.5-3.4c0-1.6,0.7-2.9,2.1-3.9c1.4-1,3.3-1.4,5.7-1.4h3.4V48c0-1.2-0.4-2.2-1.1-2.8c-0.7-0.7-1.8-1-3.3-1
		c-1.3,0-2.4,0.3-3.2,1c-0.9,0.7-1.3,1.5-1.3,2.4l-1.9,0c0-1.3,0.6-2.5,1.9-3.5c1.2-1,2.8-1.5,4.6-1.5c1.9,0,3.4,0.5,4.5,1.4
		c1.1,0.9,1.6,2.3,1.7,3.9v8c0,1.6,0.2,2.9,0.5,3.7v0.2H121.4z M115.6,58.4c1.2,0,2.4-0.3,3.3-0.9s1.7-1.4,2.1-2.4v-3.7h-3.3
		c-1.9,0-3.3,0.4-4.4,1c-1.1,0.7-1.6,1.6-1.6,2.7c0,0.9,0.4,1.7,1.1,2.4C113.5,58.1,114.4,58.4,115.6,58.4z"/>
	<path class="st1" d="M130,59.7h-1.9v-24h1.9V59.7z"/>
</g>
<path class="st0" d="M146,44.9h-1.4V21h1.4V44.9z"/>
<path class="st0" d="M160,33l-9.8-6.3v-2.6l11.7,7.8v2l-11.7,7.9v-2.6L160,33z"/>
</svg>
