<svg xmlns="http://www.w3.org/2000/svg" viewBox="0 0 63.89 63.89"><defs><style>.cls-1{fill:#fe706a;}</style></defs><title>portfolio</title><g id="Layer_1" data-name="Layer 1"><path class="cls-1" d="M43.23,21.71a12.28,12.28,0,0,0-22.58-.91,7.55,7.55,0,0,0-1.06.07A8.74,8.74,0,0,0,13,25.38a8.65,8.65,0,0,0,1.41,10.2,9.82,9.82,0,0,0,7.18,2.71h2.76a.42.42,0,0,0,.3-.13.43.43,0,0,0,.13-.3V35.32a.43.43,0,0,0-.43-.43H21.45c-3.47,0-5.93-2-6.13-5a5.34,5.34,0,0,1,6.18-5.64,1.7,1.7,0,0,0,1.86-1.1,8.86,8.86,0,0,1,17,.83,1.76,1.76,0,0,0,.78,1.07,1.73,1.73,0,0,0,1.3.19,5.16,5.16,0,0,1,1.21-.16,4.92,4.92,0,0,1,0,9.84H40.85a.33.33,0,0,0-.3.12.42.42,0,0,0-.12.3v2.55a.42.42,0,0,0,.42.43h2.81a8.33,8.33,0,1,0-.43-16.64Z"/><path class="cls-1" d="M27.58,31.82A1.13,1.13,0,0,0,26.45,33v9.61l-1.2,1.16a3.14,3.14,0,0,0-1.56-.21,3.34,3.34,0,0,0,.37,6.67,2.55,2.55,0,0,0,.39,0,3.36,3.36,0,0,0,2.95-3.7A3.58,3.58,0,0,0,27,45.19l1.72-1.67V33A1.13,1.13,0,0,0,27.58,31.82ZM24.19,47.91a1.1,1.1,0,0,1-.8-.23A1.14,1.14,0,0,1,23,47a1.09,1.09,0,0,1,1-1.2h.12a1.08,1.08,0,0,1,.12,2.16Z"/><path class="cls-1" d="M37.34,45.09a3.34,3.34,0,0,0,1.13-6.48v-8a1.13,1.13,0,1,0-2.26,0v8a3.34,3.34,0,0,0,1.13,6.48Zm0-2.26a1.09,1.09,0,1,1,1.08-1.09A1.08,1.08,0,0,1,37.34,42.83Z"/><path class="cls-1" d="M38.7,49.09a3.35,3.35,0,0,0-4.12-1.21l-1.79-1.79V27.24a1.14,1.14,0,0,0-2.27,0V47l2.42,2.42a3.08,3.08,0,0,0-.31.83,3.36,3.36,0,0,0,2.62,3.95,3.88,3.88,0,0,0,.67.06,3.34,3.34,0,0,0,2.78-5.2ZM37,51.16a1.11,1.11,0,0,1-.47.69,1.09,1.09,0,0,1-.81.16,1.11,1.11,0,0,1-.69-.47,1.1,1.1,0,0,1-.16-.81,1.11,1.11,0,0,1,.47-.69,1.07,1.07,0,0,1,.59-.18,1.09,1.09,0,0,1,.91.49A1.1,1.1,0,0,1,37,51.16Z"/></g></svg>