<?xml version="1.0" encoding="utf-8"?>
<!-- Generator: Adobe Illustrator 25.2.0, SVG Export Plug-In . SVG Version: 6.00 Build 0)  -->
<svg version="1.1" id="Layer_1" xmlns="http://www.w3.org/2000/svg" xmlns:xlink="http://www.w3.org/1999/xlink" x="0px" y="0px"
	 viewBox="0 0 63.9 63.9" style="enable-background:new 0 0 63.9 63.9;" xml:space="preserve">
<style type="text/css">
	.st0{fill:#FE706A;}
</style>
<g id="Layer_1_1_">
	<polygon class="st0" points="40,48.2 40,46.5 24.3,46.5 24.3,48.2 19.7,48.2 19.7,49.9 44.6,49.9 44.6,48.2 	"/>
	<path class="st0" d="M49.8,17H14.1c-1.8,0-3.2,1.4-3.2,3.2v20.2c0,1.8,1.4,3.2,3.2,3.2h10.1v1.3h15.6v-1.3h10.1
		c1.8,0,3.2-1.4,3.2-3.2V20.2C53,18.5,51.6,17,49.8,17C49.8,17,49.8,17,49.8,17z M49.8,39.5c0,0.6-0.5,1.1-1.1,1.1H15.1
		c-0.6,0-1.1-0.5-1.1-1.1c0,0,0,0,0,0V21c0-0.6,0.5-1,1.1-1h33.6c0.6,0,1,0.4,1.1,1V39.5z"/>
	<path class="st0" d="M32.5,28.5c1,0,1.8,0.8,1.8,1.8s-0.8,1.8-1.8,1.8c-1,0-1.8-0.8-1.8-1.8l0,0C30.7,29.3,31.5,28.5,32.5,28.5
		 M32.5,26.4c-2.2,0-3.9,1.8-3.9,3.9c0,2.2,1.8,3.9,3.9,3.9s3.9-1.8,3.9-3.9c0,0,0,0,0,0C36.5,28.1,34.7,26.4,32.5,26.4
		C32.5,26.4,32.5,26.4,32.5,26.4z"/>
	<path class="st0" d="M24.7,28.5v3.6h-3.6v-3.6H24.7 M26.8,26.4h-7.9v7.9h7.9C26.8,34.2,26.8,26.4,26.8,26.4z"/>
	<path class="st0" d="M41.5,31.2l0.5,1H41L41.5,31.2 M41.5,26.4l-3.9,7.9h7.8L41.5,26.4L41.5,26.4z"/>
</g>
</svg>
