<?xml version="1.0" encoding="utf-8"?>
<!-- Generator: Adobe Illustrator 27.2.0, SVG Export Plug-In . SVG Version: 6.00 Build 0)  -->
<svg version="1.1" id="Layer_2_00000053542395982953221570000015468615075628171956_"
	 xmlns="http://www.w3.org/2000/svg" xmlns:xlink="http://www.w3.org/1999/xlink" x="0px" y="0px" viewBox="0 0 31.5 31.2"
	 style="enable-background:new 0 0 31.5 31.2;" xml:space="preserve">
<style type="text/css">
	.st0{fill:#FFFFFF;}
</style>
<g id="Layer_1-2">
	<g>
		<path class="st0" d="M30.9,14.8L4,0.1C3.6-0.1,3.1,0,2.7,0.3C2.3,0.6,2.2,1.1,2.3,1.5l3.3,9.4l-5.1,3.8C0.2,14.9,0,15.2,0,15.6
			s0.2,0.7,0.5,0.9l5.1,3.9l-3.4,9.3c-0.2,0.4,0,0.9,0.3,1.3c0.2,0.2,0.5,0.3,0.7,0.3c0.2,0,0.4,0,0.5-0.1l27.1-14.3
			c0.4-0.2,0.6-0.6,0.6-1C31.5,15.4,31.3,15,30.9,14.8z M6.2,13.3l1,2.4l-1,2.4l-3.1-2.4L6.2,13.3L6.2,13.3z M5.3,27.7l4.2-11.6
			c0,0,0,0,0,0c0.1-0.2,0.1-0.5,0-0.7c0,0,0,0,0,0L5.5,3.6l22.4,12.2C27.9,15.8,5.3,27.7,5.3,27.7z"/>
		<path class="st0" d="M17.9,16.9l4.3,0c0.6,0,1.2-0.5,1.2-1.2c0-0.6-0.5-1.2-1.2-1.2l-4.3,0c-0.6,0-1.2,0.5-1.2,1.1
			C16.7,16.4,17.2,16.9,17.9,16.9z"/>
		<path class="st0" d="M12.4,16.8h1.1c0.6,0,1.2-0.5,1.2-1.1c0-0.6-0.5-1.2-1.1-1.2h-1.1c-0.6,0-1.2,0.5-1.2,1.1
			C11.3,16.3,11.8,16.8,12.4,16.8z"/>
	</g>
</g>
</svg>
