<?xml version="1.0" encoding="utf-8"?>
<!-- Generator: Adobe Illustrator 27.2.0, SVG Export Plug-In . SVG Version: 6.00 Build 0)  -->
<svg version="1.1" id="Layer_2_00000165216797813015109380000011644009185334266788_"
	 xmlns="http://www.w3.org/2000/svg" xmlns:xlink="http://www.w3.org/1999/xlink" x="0px" y="0px" viewBox="0 0 1734.8 1139.4"
	 style="enable-background:new 0 0 1734.8 1139.4;" xml:space="preserve">
<style type="text/css">
	.st0{clip-path:url(#SVGID_00000180361357935175730730000001336291767673865142_);}
	.st1{opacity:5.000000e-02;}
	.st2{fill:#F7FBFF;stroke:#C4C8CC;stroke-width:2.06;}
	.st3{fill:#EBF3FB;}
	.st4{opacity:0.1;}
	.st5{fill:#DEEBF7;}
	.st6{opacity:0.3;}
	.st7{fill:#D2E3F3;}
	.st8{fill:#C3DBEE;}
	.st9{fill:#B1D2E8;stroke:#81A1B6;stroke-width:2.06;}
	.st10{fill:#9CC8E2;}
	.st11{opacity:0.5;}
	.st12{fill:#84BCDB;}
	.st13{fill:#6DAED5;}
	.st14{fill:#57A0CE;}
	.st15{opacity:0.75;}
	.st16{fill:#4391C6;stroke:#006395;stroke-width:2.06;}
	.st17{fill:#3281BD;}
	.st18{fill:#2271B4;}
	.st19{fill:#1561A8;}
	.st20{fill:#0C5198;}
	.st21{fill:#094083;stroke:#001A56;stroke-width:2.06;}
	.st22{fill:#08306B;}
	.st23{enable-background:new    ;}
	.st24{fill:#FFFFFF;}
	.st25{opacity:0.25;}
</style>
<g>
	<g>
		<defs>
			<rect id="SVGID_1_" x="172" y="70.6" width="1450.8" height="1029"/>
		</defs>
		<clipPath id="SVGID_00000037652126539840356900000001332742274274777751_">
			<use xlink:href="#SVGID_1_"  style="overflow:visible;"/>
		</clipPath>
		<g style="clip-path:url(#SVGID_00000037652126539840356900000001332742274274777751_);">
			<g id="viz">
				<g class="st1">
					<path class="st2" d="M210.1,856.7l7.2-3.3l8.2-4.8l0.7-0.2l7.5-1.8l8.2-0.7l8.2,0.5l8.2,1.5l1.9,0.5l6.3,1.8l8.2,1.1l8.2,0.7
						l8.2,0.3l8.2,0.1l8.2-0.2l8.2-0.3l8.2-1.1l8.2-1.9l1.6-0.5l6.6-1.9l8.2-3.5l4.7-2.8l3.5-2l8.2-3.5l7.4-2.7l0.8-0.3l8.2-1.8
						l8.2-0.7l8.2,0.4l8.2-0.2l8.2-0.2l8.2-0.3l8.2-0.3l8.2-0.3l8.2-0.2l8.2-1.2l8.2-1.9l3.6-1.2l4.6-1.4l8.2-3.6l5.4-3.3l2.9-1.7
						l8.2-3.6l8.2-3h0.1l8.1-1.8l8.2-0.8l8.2,0.2l8.2-0.3l8.2-0.3l8.2-0.3l8.2-0.3l8.2-0.3h8.2l8.2-0.8l8.2-1.3l8.2-2l1.2-0.4l7-2.1
						l8.2-3.6l8-2.6l0.2-0.1l8.2-1.7l8.2-1h8.2l8.2,0.8l8.2,0.2l8.2,0.1h8.2l8.2-0.2l8.2-0.3h8.2l8.2-0.7l8.2-1.2l8.2-1.8l8.2-2.5
						l0,0l8.2-2.7l8.2-1.5l8.2-0.7l8.2,0.2l8.2,0.9l8.2,1.5l8.2,0.7l8.2,0.4l8.2,0.2h8.2l8.2-0.2l8.2-0.1l8.2-0.6l8.2-1l8.2-1.5
						l8.2-2.1l5.5-2l2.7-0.9l8.2-1.6l8.2-0.9l8.2-0.1l8.2,0.7l8.2,1.3l8.2,0.8l8.2,0.5l6.1,0.2l2.2,0.1l8.2,0.2h8.2l8.2,0.4l8.2,0.1
						h8.2l8.2-0.2l8.2-0.3l3.5-0.2l4.8-0.2l2.8,0.2l5.5,0.5l8.2,1.7l8.2,2.3l8.2,2.8l2.5,1l5.7,2.5l8.2,2.3l8.2,1.6l8.2,1l8.2,0.5
						h8.2l8.2-0.1l8.2-0.5l8.2-1l8.2-1.5l8.2-2.2l7.2-2.7l1-0.3l8.2-1.8l8.2-1.1l8.2-0.2l8.2,0.6l8.2,1.4l8.2,0.8l8.2,0.5h0.7
						l7.5,0.4l8.2,0.1l8.2-0.2l8.2,0.1l8.2-0.3h0.4l7.8-0.5l8.2-0.8l8.2-1.2l8.2-1.7l8.2-0.6l8.2,0.3l8.2,1.2l8.2,1.9l5.1,1.5
						l3.2,1.1l8.2,1.8l8.2,1.2l8.2,0.8l8.2,0.3h8.2l8.2,0.3l8.2,0.2l8.2,0.2l8.2,0.1l8.2,0.1h8.2l8.2,1.2l3,0.8l5.2,1.5l8.2,3
						l8.2,3.2l1.3,0.6l6.9,3.3l8.2,2.4l8.2,1.6l8.1,1h0.2l8.2,0.6h8.2l8.2,0.4l8.2,0.3l8.2,0.2l8.2,0.2l8.2,0.2l8.2,0.1l8.2,1.6
						l8.2,2.6l5.1,2.1l3.1,1.5l8.2,4.7l3.3,2l4.9,3.4l8.2,3.8l3.4,1.1l4.9,1.8l8.2,2l8.2,1l8.2,0.1l8.2-0.8l8.2-2l5.3-2.2l2.9-1
						l8.2-4.6l3.2-2.6l5-3.7l4.1-4.5l4.1-4.5l3.4-3.8l4.8-5.5l2.2-2.7l6-8.2l0,0l5.6-8.2l2.6-4.4l3.1-3.8l5.1-7.5l0.4-0.7l4.4-8.2
						l3.4-7.8l0.2-0.4l3.1-8.2l2.6-8.2l2.1-8.2l0.2-1.1l1.6-7.2l1.6-8.2l1.4-8.2l1.1-8.2l0.9-8.2l0.8-8.2l0.7-8.2l0.2-2.7l0.4-5.5
						l0.5-8.2l0.4-8.2l0.3-8.2l0.2-8.2l0.1-8.2v-8.2l-0.1-8.2l-0.2-8.2l-0.3-8.2l-0.3-8.2l-0.4-8.2l-0.5-8v-0.2l-0.5-8.2l-0.6-8.2
						l-0.7-8.2l-0.7-8.2l-0.8-8.2l-0.9-8.2l-0.9-8.2l-1.1-8.2l-1.3-8.2l-0.7-4.2l-0.7-4l-1.6-8.2l-1.7-8.2l-1.9-8.2l-2.2-8.2l-0.3-1
						l-2.1-7.2l-2.5-8.2l-2.6-8.2l-1-3.1l-1.8-5.1l-2.7-8.2l-2.7-8.2l-1.1-3.6l-0.9-4.6l-1.5-8.2l-1.6-8.2l-1.4-8.2l-1.1-8.2
						l-0.8-8.2l-0.8-7.1l-0.1-1.1l-0.7-8.2l-0.9-8.2l-1-8.2l-1.1-8.2l-1.3-8.2l-1.6-8.2l-1.6-7.8l-0.1-0.5l-1.8-8.2l-2.3-8.2
						l-3.2-8.2l-0.9-2.2l-2.3-6l-3.8-8.2l-2.1-4.3l-2.6-3.9l-5.6-7.2l-1.1-1l-7.1-6.2l-3.6-2l-4.7-2.6l-8.2-2.7l-8.2-0.9l-8.2-0.1
						l-8.2,0.6l-8.2,1.4l-8.2,2.2l-5.7,2.2l-2.5,0.9l-8.2,4.8l-6.5,2.5l-1.8,0.6l-8.2,1.2l-8.2-0.6l-5-1.3l-3.3-0.9l-8.2-4.1
						l-8.2-2.9l-1.3-0.3l-6.9-1.8l-8.2-1.4l-8.2-0.7h-8.2l-8.2-0.1l-8.2,0.5l-8.2,1.2l-8.2,1.9l-1,0.3l-7.2,2.2l-8.2,4.1l-5.2,1.9
						l-3,1l-8.2,1.4l-8.2-0.1l-8.2-1.6l-1.8-0.7l-6.5-2.8l-8.2-2.5l-8.2-1.8l-8.2-1.1l-0.6-0.1l-7.6-0.5h-8.2l-8.2,0.1l-4.9,0.5
						l-3.3,0.3l-8.2,1.7l-8.2,2.7l-7.4,3.5l-0.8,0.4l-8.2,5.8l-3.3,2.1l-4.9,3.2l-8.2,4.2l-2.7,0.8l-5.6,1.7l-8.2,0.8l-8.2-1.3
						l-8.2-0.9l-5.2-0.3l-3-0.2l-8.2-0.3h-8.2l-8.2,0.3h-8.2l-1.9,0.2l-6.3,0.5l-8.2,1.4l-8.2,2.2l-8.2,3.2l-1.3,0.8l-6.9,4.4
						l-7.4,3.9l-0.8,0.4l-8.2,3l-8.2,1.4l-8.2-0.1l-8.2-2l-8.2-1.3l-8.2-0.9l-8.2-0.5l-2.3-0.1l-5.9-0.1l-6.7,0.1h-1.6h-8.2
						l-8.2,0.6l-8.2,1.2l-8.2,1.9l-8.2,2.7l-3.7,1.9l-4.5,2.3l-8.2,3.3l-8.2,2.2l-4.3,0.4l-4,0.4l-6.5-0.4l-1.7-0.1l-8.2-2l-8.2-1.4
						l-8.2-1l-8.2-0.6l-8.2-0.3l-8.2,0.3l-8.2-0.1l-8.2,0.1l-8.2,0.4l-8.2,0.7l-8.2,1.1l-8.2,2l-7.9,0.8h-0.4h-0.6l-7.6-0.5
						l-8.2-2.2l-8.2-3.7l-2.5-1.8l-5.8-4.2l-7.5-4.1l-0.7-0.4l-8.2-3.2l-8.2-2.2l-8.2-1.4l-8.2-0.4l-8.2-0.2l-8.2,0.4l-8.2,1
						l-8.2,1.6l-8.2,2.4l-4.5,2.4l-3.7,2.1l-8.2,3.6l-8.2,2.4l-1.2,0.1l-7.1,0.8l-8.2-0.6l-0.5-0.2l-7.7-2.6l-8.2-2l-8.2-1.4
						l-8.2-0.9l-8.2-0.5l-8.2,0.3l-8.2-0.4l-8.2-0.4l-8.2-0.3l-3.4-0.1l-4.8-0.2l-8.2-0.3l-7.2,0.5l-1,0.1l-0.6-0.1l-7.7-1l-8.2-2.8
						l-8.2-4.4l0,0l-8.2-5.9l-2.3-2.3l-5.9-5.7l-3.5-2.6l-4.7-3.5l-8.2-4.4l-1-0.4l-7.2-2.8l-8.2-1.9l-8.2-0.4l-8.2-0.4l-8.2-0.2
						l-8.2,0.1l-8.2,0.4l-8.2,0.7l-8.2,2.3l-8.2,0.7l-8.2-1.5l-8.2-4l-1.4-1.1l-6.9-6.2l-1.4-2.1l-5.8-8.2l-1-1.4l-6-6.8l-2.2-2.5
						l-6.7-5.7l-1.6-1.3l-8.2-4.9l-5.4-2l-2.9-1.2l-8.2-1.3l-8.2-0.3l-8.2,1.3l-3.9,1.4l-4.3,1.4l-8.2,4.6l-2.7,2.2l-5.6,4.9
						l-0.8,2.4l-5.3,8.2l-0.6,1l-5.3,7.3l-2.9,4.1l-3.6,4.1l-4.6,4.4l-5.8,3.8l-2.5,1.3l-8.2,2.1l-8.2-1.1l-8.2-0.7l-8.2-0.4
						l-8.2-0.1l-8.4,0l-8.2,0.7l-8.2-0.4l-8.2-0.1l-8.2,0.1l-8.2,0.4l-8.2,0.8l-8.2,2.4l-8.2,0.9l-8.2-1.2l-8.2-3.9l-0.8-0.6
						l-7.4-6.4l-1.4-1.9l-5.7-8.2l-1.2-1.7l-6-6.6l-2.2-2.2l-8.2-5.9l-0.4-0.2l-7.9-3.5l-8.2-2.1l-8.2-0.9h-8.2l-8.2,1.6l-8.2,3.5
						l-2.1,1.4l-6.1,4.7l-3.2,3.6l-5,6.6l-0.8,1.6l-3.6,8.2l-3.2,8.2l-0.6,2l-2,6.3l-2.3,8.2l-2,8.2l-1.7,8.2l-0.2,1.4l-1.2,6.8
						l-1.4,8.2l-1.3,8.2l-1.4,8.2l-1.5,8.2l-1.3,6.9l-0.3,1.3l-1.8,8.2l-2,8.2l-2.1,8.2l-2.1,8.2l0,0l-2.2,8.2l-2.2,8.2l-2,8.2
						l-1.8,7.3l-0.3,0.9l-2.9,8.2l-2.7,8.2l-2.4,8.2l0,0l-2.1,8.2l-1.8,8.2l-1.6,8.2L79,428l-1.3,7.3l-0.2,0.9l-1.4,8.2l-1.3,8.2
						l-1.2,8.2l-1,8.2l-0.9,8.2l-0.8,8.2l-0.7,8.2L69,502l-0.1,0.8l-0.6,8.2l-0.5,8.2l-0.4,8.2l-0.3,8.2l-0.3,8.2l-0.2,8.2l-0.2,8.2
						l-0.2,8.2l-0.2,8.2l-0.2,8.2l-0.2,8.2l-0.1,8.2l-0.2,8.2L65,618l-0.1,8.2v8.2l0.1,8.2l0.2,8.2l0.3,8.2l0.4,8.2l0.6,8.2l0.7,8.2
						l0.7,8.4l1.1,8.1v0.1l1.3,8.2l1.5,8.2l1.8,8.2l2.1,8.2l1.6,5.8l0.7,2.4l2.6,8.2l3,8.2l1.9,4.6l1.6,3.6l4.1,8.2l2.5,4.5l1.5,3.8
						l3.5,8.2l3.3,6.9l0.6,1.3l3.9,8.2l3.7,6.6l0.9,1.6l4.8,8.2l2.5,3.9l2.9,4.3l5.3,7.4l0.7,0.9l6.3,8.2l1.3,2l8.2,6.3l0.6,0.3
						l7.6,4.2l8.2,2.7l8.2,1.2h8.2l8.2-0.6l8.2-1.4l8.2-2.3l8.2-3.2l1-0.5H210.1z"/>
				</g>
				<g class="st1">
					<path class="st3" d="M326.6,823.8l5.9-1.5l8.2-3l7.1-3.7l1.2-0.6l8.2-5.6l4.3-2.1l3.9-1.8l8.2-2.7l8.2-1.4l8.2,0.1l8.2,1.4
						l8.2,0.4l8.2,0.2h8.2l8.2-0.2l8.2-0.4l8.2-0.2l8.2-1.3l8.2-2.2l0,0l8.2-2.9l8.2-4.1l1.8-1.2l6.4-4.2l8.2-3.6l1.6-0.5l6.7-1.7
						l8.2-0.8l8.2,0.4l8.2,1.4l8.2,0.5l8.2,0.2l8.2,0.1l8.2-0.1l8.2-0.3l8.2-0.1l8.2-0.9l8.2-1.5l8.2-2.3l7.1-2.9l1.2-0.4l8.2-4.2
						l8.2-3l2.2-0.6l6-1.4l8.2-0.9l8.2,0.2l8.2,1.2l8.2,0.4l8.2,0.2h8.2l8.2-0.1l8.2-0.3h8.2l8.2-0.7l8.2-1.1l8.2-1.7l8.2-2.3
						l4.8-1.8l3.5-1.2l8.2-1.3l8.2-0.3l8.2,0.7l8.2,1.5l2.1,0.6l6.1,1.8l8.2,1.2l8.2,0.8l8.2,0.4l8.2,0.1l8.2-0.2l8.2-0.2l8.2-0.8
						l8.2-1.3l8-1.9h0.2l8.2-2.3l8.2-3.3l8.2-2l3.4-0.5l4.8-0.5h8.2l5,0.5l3.2,0.4l8.2,2l8.2,1.2l8.2,0.8l8.2,0.5l8.2,0.2h8.2
						l8.2,0.3l8.2-0.1l8.2-0.3l8.2-0.5l8.2-0.8l8.2-1.2l8.2,0.2l8.2,1.2l8.2,2.2l6.3,2.2l1.9,0.8l8.2,3.7l8.2,2.3l7.1,1.4l1.1,0.2
						l8.2,1.2l8.2,0.6h8.2l8.2-0.1l8.2-0.7l7.4-1.1l0.9-0.1l8.2-1.7l8.2-2.4l8.2-3.3l3.1-0.8l5.2-1.2l8.2-1h8.2l8.2,0.9l6.1,1.3
						l2.1,0.5l8.2,1.2l8.2,0.8l8.2,0.4l8.2,0.1l8.2-0.2l8.2,0.1l8.2-0.4l8.2-0.8l8.2-1.2l2.9-0.6l5.3-0.9l8.2-2l8.2-0.9l8.2,0.1
						l8.2,1.1l8.2,2l2.3,0.7l6,2.2l8.2,1.9l8.2,1.3l8.2,0.8l8.2,0.3l8.2-0.1l8.2,0.3l8.2,0.1h8.2l8.2-0.2l8.2-0.3l8.2-0.5l8.2,1
						l6.3,1.6l1.9,0.5l8.2,3.3l8.2,3.8l1.1,0.6l7.2,3.9l8.2,2.8l6.3,1.5l2,0.5l8.2,1.3l8.2,0.7h8.2l8.2,0.2h8.2l8.2-0.2l8.2-0.5
						l8.2-0.7l8.2-1l8.2,0.6l8.2,1.9l8.2,3l5.4,2.5l2.8,1.4l8.2,4.8l5.4,2l2.8,1.2l8.2,2.4l8.2,1.5l8.2,0.7h8.2l8.2-0.7l8.2-1.8
						l8.2-3.1l0.4-0.2l7.8-4.2l5-4l3.2-2.6l4.9-5.7l3.3-4.2l3.2-4l5-7.4l0.6-0.9l4.7-8.2l3-6.2l1-2l3.6-8.2l3-8.2l0.7-2.2l2.8-6
						l3.2-8.2l2.2-6.5l0.6-1.7l2.4-8.2l2-8.2l1.7-8.2l1.4-8.2l0.3-1.7l1-6.6l1-8.2l0.8-8.2l0.6-8.2l0.5-8.2l0.3-8.2l0.1-8.2
						l-0.1-8.2l-0.2-8.2l-0.3-8.2l-0.4-8.2l-0.6-8.2l-0.7-8.2l-0.8-8.2l-1-8.2l-0.4-3.1l-0.7-5.1l-1.2-8.2l-1.2-8.2l-1.4-8.2
						l-1.6-8.2l-1.7-8.2l-0.5-2.1l-1.5-6.2l-2.2-8.2l-2.6-8.2l-2-5.7l-0.6-2.5l-1.9-8.2l-2.2-8.2l-2.5-8.2l-1.1-3.3l-1.6-4.9
						l-2.7-8.2l-2.8-8.2l-1.2-3.5l-1.6-4.8l-2.7-8.2l-2.6-8.2l-1.3-4.3l-1.1-4l-2-8.2l-2.2-8.2l-1.9-8.2l-1.1-5.9l-0.5-2.3l-1.4-8.2
						l-1.5-8.2l-1.4-8.2l-1.7-8.2l-1.7-7.9l-0.1-0.3l-2.6-8.2l-3-8.2l-2.6-5.9l-1.4-2.3l-5.3-8.2l-1.5-2.1l-7.4-6.2l-0.8-0.6
						l-8.2-1.9l-8.2-0.6l-8.2,0.5l-8.2,1.7l-2.3,0.8l-5.9,2.4l-8.2,4.6l-1.3,1.2l-6.9,6.5l-4.9,1.8l-3.3,1.2l-5.7-1.2l-2.5-0.5
						l-8.2-5.3l-2.4-2.5l-5.8-5l-2.5-3.2l-5.8-6l-3-2.3l-5.2-3.5l-8.2-3.8l-3.5-1l-4.8-1.4l-8.2-1.3l-8.2-0.2l-8.2-0.1l-8.2,0.8
						l-8.2,1.7l-1.6,0.5l-6.6,2.3l-8.2,4.2l-2.2,1.8l-6,5.4l-4.2,2.9l-4,3l-8.2,3.7l-8.2,0.7l-8.2-2.3l-7.3-5.2l-0.9-0.6l-8.2-4.3
						l-8.2-3l-1.3-0.3l-6.9-1.7l-8.2-1l-8.2,0.1l-8.2-0.1l-8.2,1.2l-4.5,1.4l-3.8,1.2l-8.2,4.1l-4.1,2.9l-4.2,3l-4.7,5.2l-3.5,4.4
						l-3.9,3.8l-4.3,4.6l-5.2,3.6l-3.1,2.4l-8.2,2.4l-8.2-1.5l-4.4-3.3l-3.8-2.5l-8.2-3.9l-5.8-1.9l-2.4-0.7l-8.2-1.5l-8.2-0.7
						l-8.2,0.3l-8.2-0.2l-8.2,1l-6.9,1.8l-1.3,0.4l-8.2,3.6l-7,4.3l-1.3,0.8l-7.5,7.4l-0.7,0.7l-8.2,5.5l-7.1,2l-1.1,0.3l-2.8-0.3
						l-5.5-0.6l-8.2-3.5l-5.4-4.2l-2.8-2l-8.2-4.2l-6-2.1l-2.2-0.7l-8.2-1.7l-8.2-0.9h-8.2l-8.2-0.1l-8.2,0.8l-8.2,1.7l-3.1,1
						l-5.2,1.7l-8.2,3.8l-3.8,2.7l-4.5,3.3l-8.2,4.3l-2.5,0.6l-5.8,1.5l-8.2-0.2l-4.5-1.3l-3.7-1l-8.2-4.6l-6.9-2.7l-1.3-0.5
						l-8.2-2.2l-8.2-1.4l-8.2-0.7l-8.2,0.3h-8.2l-8.2,0.6l-8.2,1.3l-8.2,2.1l-1.7,0.6l-6.5,2.5l-8.2,5.3l-1.1,0.5l-7.1,3.8l-8.2,2.4
						l-8.2-0.2l-8.2-3.1l-2.9-2.8l-5.4-5l-4.4-3.3l-3.8-2.6l-8.2-4.3l-3.4-1.3l-4.8-1.8l-8.2-2l-8.2-0.4l-8.2-0.5l-8.2,0.5l-8.2,1.4
						l-8.2,2.4l-0.9,0.4l-7.3,3.1l-6.5,5.1l-1.7,1.5l-8.2,4.9l-7.3,1.9l-0.9,0.2l-2.4-0.2l-5.8-0.5l-8.2-3.4l-4.9-4.3l-3.4-2.6
						l-8.2-4.6l-2.7-1.1l-5.5-2l-8.2-2l-8.2-1.1l-8.2,0.1l-8.2-0.5h-8.2l-8.2,0.5l-8.2,1l-8.2,1.7l-4.7,2.2l-3.6,2l-8.2,2.8
						l-8.2,0.3l-8.2-2.9l-2.9-2.2l-5.3-3.8l-3.2-4.4l-5-6.3l-1.9-1.9l-6.4-6.1l-2.9-2.1l-5.3-3.6l-8.2-4l-2.1-0.6l-6.1-1.7l-8.2-0.5
						l-8.2-0.5l-8.2,0.3l-8.2,1.1l-5.1,1.3l-3.1,0.9l-8.2,3.6l-4.4,3.8l-3.9,4l-5.4,4.2l-2.9,2.6l-8.2,4.4l-8.2,0.6l-8.2-4l-2.4-3.5
						l-5.8-8.2v-0.1l-7.1-8.2l-1.2-1.2l-8.2-6.5l-1-0.6l-7.2-3.8l-8.2-2.7l-8.2-0.5l-8.2-0.5l-8.2,1.2l-8.2,2.9l-6,3.4l-2.2,1.4
						l-8,6.9l-0.2,0.2l-5,8l-3.2,5.2l-2.8,3l-5.5,5.8l-4.5,2.4l-3.7,1.9H364l-4-1.9l-4.2-1.7l-6.6-6.5l-1.6-1.4l-8.2-5.1l-4.4-1.8
						l-3.9-1.5l-8.2-2.1l-8.2-1.1l-8.2,0.2l-8.2-0.4l-8.2,0.5l-8.2,1.5l-8.2,2.8l-0.3,0.2l-7.9,4.2l-4,4l-4.3,5l-3.4,3.2l-4.9,5.5
						l-3.4,2.8l-4.8,4.6l-7.3,3.6l-0.9,0.5l-8.2-0.4l-0.1-0.1l-8.1-8.1l-0.1-0.1l-8.1-6.8l-2.2-1.4l-6-4.4l-7.2-3.9l-1-0.6l-8.2-3
						l-8.2-0.9h-8.2l-6.9,4.6l-1.3,0.8l-6.2,7.5l-2.1,2.3l-2.5,4.3l-4.8,8.1l-0.1,0.1l-3.7,8.2l-4.2,8.2l-0.2,0.4l-3,7.9l-3.1,8.2
						l-2.1,5.9l-0.9,2.3l-3.1,8.2l-2.9,8.2l-1.3,3.8l-1.6,4.5l-2.9,8.2l-2.7,8.2l-1.1,3.6l-1.5,4.7l-2.3,8.2l-1.9,8.2l-1.7,8.2
						l-0.9,4.4l-0.8,3.8l-1.8,8.2l-1.7,8.2l-1.6,8.2l-1.4,8.2l-1,7.3l-0.2,0.9l-1.6,8.2l-1.5,8.2l-1.4,8.2l-1.3,8.2l-1.1,8.2
						l-0.9,8.2l-0.3,3l-0.5,5.3l-0.6,8.2l-0.5,8.2l-0.4,8.2l-0.4,8.2l-0.4,8.2l-0.4,8.2l-0.4,8.2l-0.3,8.2l-0.3,8.2l-0.3,8.2
						l-0.3,8.2l-0.2,8.2l-0.1,8.2l0.1,8.2l0.3,8.2l0.5,8.2l0.8,8.2l1,8.2l1.2,8.2l0.9,5l0.6,3.2l1.9,8.2l2.3,8.2l2.8,8.2l0.8,2
						l1.6,6.2l2.4,8.2l2.8,8.2l1.5,4.1l1.5,4.1l3.3,8.2l3.5,7.6l0.3,0.6l4.1,8.2l3.8,6.6l1,1.7l5,8.2l2.3,3.6l3,4.6l5.2,7.4l0.9,0.8
						l7.3,6.2l3.6,2l4.7,2.8l8.2,3l8.2,1.4h8.2l8.2-0.2l8.2-0.9l8.2-1.5l8.2-2.2l6.5-2.3l1.7-0.5l8.2-3.3l8.2-0.6l8.2,1l8.2,2.2
						l3.2,1.3l5.1,2.1l8.2,4l8.2,2.1h0.2l8.1,1.5l8.2,0.8l8.2,0.3l8.2-0.2l8.2-0.4l8.2-1.4l2.3-0.6L326.6,823.8z"/>
				</g>
				<g class="st4">
					<path class="st5" d="M340.4,799.1l0.3-0.2l8.2-4.8l4.1-3.2l4.2-3.5l8.2-4.5l0.9-0.3l7.4-2.6l8.2-1.1l8.2,0.8l8.2,2.4l4.6,0.5
						l3.6,0.4l8.2,0.5l8.2,0.2l8.2-0.1l8.2-0.5l8.2-0.2l1.9-0.3l6.3-1.1l8.2-2.3l8.2-3.4l2.6-1.4l5.7-3l7.7-5.3l0.5-0.3l8.2-2.9
						l8.2-1.4l8.2,0.1l8.2,1.4l8.2,2.3l6.9,0.8l1.3,0.2l8.2,0.7l8.2,0.3h8.2l8.2-0.3l8.2-0.2l5.3-0.7l2.9-0.4l8.2-1.7l8.2-2.5
						l8.2-3.6h0.1l8.2-4.7l8.2-3.2l1-0.3l7.2-1.7l8.2-0.8l8.2,0.5l8.2,1.6l6.5,0.5l1.8,0.1l8.2,0.4l8.2,0.1l8.2-0.1l8.2-0.3l8.2,0.1
						l3-0.3l5.3-0.4l8.2-1.1l8.2-1.7l8.2-2.4l6.5-2.6l1.7-0.7l8.2-1.3l8.2-0.1l8.2,1l4.5,1.1l3.7,0.9l8.2,2.9l8.2,1.5l8.2,1l8.2,0.5
						l8.2,0.2l8.2-0.2l8.2-0.2l8.2-0.9l8.2-1.4l8.2-2.1l6.1-2.2l2.1-0.7l8.2-3.7l8.2-2.1l8.2-1l8.2,0.2l8.2,1.3l8.2,2.2l8.2,1.3
						l8.2,0.9l8.2,0.6l8.2,0.3h8.2l8.2,0.3l8.2-0.2l8.2-0.5l8.2-0.8l8.2-1.1l8.2-1.6l8.2-0.2l8.2,1l8.2,2l4.8,1.7l3.4,1.3l8.2,3.9
						l8.2,2.5l2.6,0.5l5.6,1.3l8.2,1.2l8.2,0.6h8.2l8.2-0.1l8.2-0.7l8.2-1.3l3.7-0.9l4.5-1l8.2-2.5l8.2-3.4l5.3-1.3l2.9-0.7l8.2-0.8
						l8.2,0.3l8.2,1.3h0.1l8.2,2.4l8.2,1.4l8.2,0.9l8.2,0.5l8.2,0.2l8.2-0.1h8.2l8.2-0.5l8.2-0.9l8.2-1.3l8.2-2l2.1-0.7l6.2-1.9
						l8.2-1.3l8.2-0.2l8.2,1l8.2,2l0.7,0.3l7.5,2.9l8.2,2l8.2,1.4l8.2,0.8l8.2,0.4l8.2-0.1l8.2,0.3h8.2l8.2-0.3l8.2-0.5l8.2-0.8
						l8.2-1.1l8.2,0.5l8.2,1.9l2.5,1l5.7,2.3l8.2,4.2l2.9,1.7l5.3,3.2l8.2,3.2l7.1,1.9l1.1,0.3l8.2,1.5l8.2,0.7h8.2l8.2,0.2l8.2-0.2
						l8.2-0.5l8.2-0.9l7.7-1.2l0.6-0.1l8.2-1.7h8.2l8.2,1.5l0.6,0.2l7.6,2.8l8.2,4.2l2,1.2l6.3,3.8l8.2,3.2l4.9,1.3l3.4,1l8.2,1.5
						l8.2,0.7h8.2l8.2-0.7l8.2-2l1.2-0.5l7-2.7l8.2-5l0.5-0.5l7.7-7.3l0.7-0.9l5.3-8.2l2.3-4l2.5-4.2l4.3-8.2l1.4-3.1l2.4-5.1
						l3.2-8.2l2.6-8.2l0,0l2.6-8.2l2.2-8.2l1.8-8.2l1.5-8.2l0.2-1.2l1.7-7.1l1.8-8.2l1.4-8.2l1.1-8.2l0.9-8.2l0.7-8.2l0.5-8.2
						l0.1-7.1v-1.2v-2.2l-0.1-6l-0.2-8.2l-0.5-8.2l-0.6-8.2l-0.8-8.2l-0.9-8.2l-1.1-8.2l-1.3-8.2l-1.5-8.2l-1.2-5.5l-0.4-2.7
						l-1.1-8.2l-1.3-8.2l-1.4-8.2l-1.5-8.2l-1.8-8.2l-0.7-3l-1.2-5.2l-2.1-8.2l-2.4-8.2l-2.5-8.2l0,0l-2.6-8.2l-3-8.2l-2.7-6.6
						l-0.6-1.6l-3-8.2l-3.2-8.2l-1.4-3.5l-2.5-4.7l-4.2-8.2l-1.6-3.3l-3.2-4.9l-4.9-8.2l-0.1-0.2l-6.2-8l-2-2.5l-7.5-5.7l-0.7-0.6
						l-8.2-2.6l-8.2-0.7l-8.2,1.2l-6.7,2.7l-1.6,0.5l-8.2,5l-2.9,2.7l-5.3,5.5l-1.6,2.8l-5.4,8.2l-1.2,1.7l-6.2,6.5l-2.1,2l-8.2,4.9
						l-8,1.4h-0.2h-0.1l-8.1-2.8l-5.1-5.4l-3.1-4.7l-2.8-3.5l-3.4-8.2l-0.4-8.2l-0.2-8.2l0.3-8.2l0.8-8.2l0.6-8.2l-0.1-8.2l-0.9-8.2
						l-1.2-8.2l-1-3.8l-1.5-4.5l-4.7-8.2l-2-2.4l-7-5.8l-1.2-0.7l-8.2-2.7l-8.2-0.5l-8.2-0.2l-8.2,1.4l-7.3,2.8l-1,0.5l-8.2,7
						l-0.6,0.7l-5.2,8.2l-2.4,6.1l-0.6,2.2l-1.5,8.2l-1.2,8.2l-0.3,8.2l0.4,8.2l0.9,8.2l0.8,8.2l0.5,8.2l0.4,8.2l-2,8.2l-4.1,8.2
						l-1.3,1.7l-8.2,6.1l-3.2,0.4l-5.1,0.5l-1.2-0.5l-7.1-3.8l-3.8-4.4l-4.4-7.5l-0.2-0.7l-1.8-8.2l-0.9-8.2l-0.7-8.2l-0.5-8.2
						l-0.9-8.2l-1.5-8.2l-1.7-5.6l-1-2.6l-4.6-8.2l-2.6-3.6l-4.7-4.6l-3.5-3.1l-8.2-4.7l-1.6-0.5l-6.6-1.6l-8.2,0.2l-8.2-0.2
						l-6.9,1.6l-1.3,0.4l-8.2,5l-3.1,2.9l-5.2,5l-2.5,3.3l-5.3,8.2l-0.5,0.9l-2.8,7.4l-2.4,8.2l-2.1,8.2l-1,5.1l-0.9,3.1l-2.7,8.2
						l-3.2,8.2l-1.4,2.9l-6.2,5.3l-2.1,1.6l-6.7-1.6l-1.5-0.4l-6.5-7.9l-1.8-2.2l-2.4-6.1l-3.4-8.2l-2.4-4.9l-2.1-3.3l-6.1-7.9
						l-0.3-0.3l-7.9-6.6l-3.2-1.6l-5.1-2.4l-8.2-2l-8.2,0.4l-8.2-0.6l-8.2,1.2l-8.2,3.1l-0.3,0.2l-7.9,5.1l-3.4,3.1l-4.8,4.6
						l-2.5,3.7l-4.9,8.2l-0.8,1.6l-5.5,6.7l-2.7,3.5l-8.2,3l-8.2-6l-0.2-0.5l-4.7-8.2l-3.3-4.1l-1.9-4.1l-4.9-8.2l-1.4-2l-5.5-6.2
						l-2.7-2.9l-6.8-5.3l-1.4-1l-8.2-3.9l-8.2-2.1l-8.2-0.1l-8.2-0.4l-8.2,1.1l-8.2,2.6l-7.2,3.7l-1,0.5l-8.2,6.4l-1.1,1.3l-6.7,8.2
						l-0.5,0.6l-8.2,7.6l0,0l-8.2,3.8l-8.2-2l-2-1.8l-6.2-4.8l-2.3-3.5l-5.9-7.4l-0.9-0.9l-7.3-6.1l-3.5-2.1l-4.7-2.5l-8.2-2.8
						l-8.2-1.5l-8.2,0.3h-8.2l-8.2,1.3l-8.2,2.7l-4.9,2.5l-3.3,1.9l-7.5,6.3l-0.7,0.7l-5.2,7.5l-3,5.3l-2.3,2.9l-5.7,8.2l-0.3,0.6
						l-7.3,7.6l-0.9,1.2l-8.2,1.9l-3.6-3.1l-4.6-3l-2.7-5.3l-5.3-8.2l-0.2-0.3l-7.1-7.9l-1.1-1.1l-8.2-6.5l-1.1-0.6l-7.2-3.9
						l-8.2-2.8l-8.2-0.2l-8.2-0.9l-8.2,0.6l-8.2,2.3l-8.2,4l-1.2,0.9l-7,5.2l-2.2,3l-5.4,8.2l-0.7,1.2l-5.8,7L775,376l-6.3,4.7
						l-1.9,1.8l-8.2-1.3l-0.4-0.5l-7.1-8.2l-0.8-0.8l-3-7.5l-4.2-8.2l-1.1-1.9l-4.7-6.4l-3.5-4.1l-4.7-4.1l-3.5-2.7l-8.2-4.4
						l-3.6-1.1l-4.7-1.4l-8.2-0.1l-8.2-0.7l-8.2,0.5l-7.1,1.6l-1.2,0.3l-8.2,3.8l-5.7,4.1l-2.5,2.1l-3.8,6.1l-4.2,8.2l-0.2,0.5
						l-4.5,7.7l-3.6,8.2l-0.1,0.2l-5.4,8l-2.8,4.7l-8.2,2.4l-7.4-7.1l-0.8-0.7l-2.7-7.5l-3.2-8.2l-2.4-6l-1.1-2.3l-3.5-8.2l-3.4-8.2
						l-0.2-0.5l-4.6-7.7l-3.7-5.5l-2.5-2.8l-5.7-4.9l-6.2-3.3l-2.1-1l-8.2-0.5l-8.2-1l-8.2,1.3l-2.8,1.3l-5.4,2.8l-6.4,5.5l-1.9,2.2
						l-3.6,6l-4.1,8.2l-0.5,1.3l-1.7,6.9l-2.2,8.2l-2.7,8.2l-1.7,4.9l-1.7,3.4l-4.1,8.2l-2.4,4.7l-3.7,3.5l-4.6,3.8l-8.2-0.3l-4-3.5
						l-4.3-4.2l-1.6-4l-3.3-8.2l-3.4-7.8l-0.3-0.5l-5-8.2l-2.9-5l-2.5-3.2l-5.7-7.6l-0.7-0.6l-7.5-7l-2.3-1.2l-6-3.1l-8.2,0.4
						l-8.2-1.6l-6.4,0.1l-5.7,3l-2.5,1.3l-7.5,6.9l-0.8,0.6l-6.1,7.6l-2.1,2.4l-2.9,5.9l-4.6,8.2l-0.8,1.4l-5.9,6.9l-2.3,2.5l-8.2,3
						l-8.2-2.3l-3.9-3.2l-4.3-3.5l-2.7-4.7l-4.8-8.2l-0.7-1.4l-4.4-6.9l-3.8-6.9l-1-1.3l-5.4-8.2l-1.9-2.9l-4.9-5.3l-3.4-2.9
						l-8.2-4.2l-8.2-0.4l-5.3-0.7l-2.9-0.3l-1.5,0.3l-6.8,1.6l-8.2,5.1l-1.5,1.5l-6.7,8l-0.1,0.2l-5.5,8.2l-2.6,3.4l-2.3,4.9
						l-4.6,8.2l-1.3,2l-5.8,6.2l-2.4,2.3l-8.2,4.2l-8.2,0.4l-8.2-3.1L222,363l-4.6-4.8l-4.5-3.5l-3.8-2.9l-8.2-4.5l-2.4-0.8
						l-5.9-2.2l-8.2-1.7l-8.2-0.5H168l-8.2,2.7l-2.4,1.6l-5.8,3.8l-4.3,4.5l-3.9,4.1l-2.8,4.2l-5.4,8.1l-0.1,0.1l-3.6,8.2l-3.3,8.2
						l-1.3,3.6l-1.8,4.7l-2.8,8.2l-2.3,8.2l-1.4,5.3l-0.8,2.9l-2.1,8.2l-2.1,8.2l-2,8.2l-1.3,5.6l-0.6,2.7l-1.8,8.2l-1.6,8.2
						l-1.4,8.2l-1.2,8.2l-1.1,8.2l-0.7,3.6l-0.7,4.9l-1,8.2l-0.9,8.2l-0.7,8.2l-0.5,8.2l-0.4,8.2l-0.4,8.2l-0.4,8.2l-0.4,8.2
						l-0.4,8.2l-0.4,8.2l-0.2,8.2l-0.2,8.2l-0.3,8.2l-0.2,8.2l-0.1,8.2v8.2l0.1,8.2l0.3,8.2l0.5,8.2l0.7,8.2l1,8.2l1.1,8.2l1.3,8.2
						l1.8,8.2l0.6,2.3l1.4,5.9l2.3,8.2l2.7,8.2l1.8,4.9l1.2,3.4l3.2,8.2l3.8,8.2v0.1l4,8.2l4.2,7.6l0.4,0.6l5.1,8.2l2.8,4l4.8,4.2
						l3.5,3.2l8.2,5l0.2,0.1l8,3.2l8.2,1.5h8.2l8.2-0.1l8.2-0.7l8.2-1.3l8.2-2l1.9-0.6l6.3-1.9l8.2-3.3l8.2-0.2l8.2,1.8l8.2,3.4
						l0.5,0.3l7.8,4.4l5.8,3.8l2.4,1.5l8.2,2.9l8.2,1.9l8.2,1.1l8.2,0.4l8.2-0.2l8.2-0.4l8.2-1.5l8.2-2.4l7.9-3.4L340.4,799.1z"/>
				</g>
				<g class="st6">
					<path class="st7" d="M337.7,782.6l3.1-1.6l8.2-5.9l0.8-0.7l7.5-7.4l1.4-0.8l6.9-4.1l8.2-2.8l8.2-0.5l8.2,1.7l8.2,3.3l8.2,1.4
						l8.2,0.8l3.5,0.2l4.8,0.2h8.2l3.1-0.2l5.2-0.3l8.2-0.1l8.2-1.4l8.2-2.3l8.2-3.3l1.6-0.9l6.6-3.3l7.6-4.9l0.6-0.4l8.2-2.5
						l8.2-0.8l8.2,0.8l8.2,2.2l1.8,0.7l6.4,2.5l8.2,1.5l8.2,1l8.2,0.5l8.2,0.1l8.2-0.3l8.2-0.2l8.2-1.2l8.2-2l5.6-2l2.6-0.9l8.2-4
						l5.2-3.4l3.1-2.1l8.2-3.4l8.2-2.1l8.2-0.5l8.2,1l8.2,2.2l8.2,0.9l8.2,0.6l8.2,0.2h8.2l8.2-0.3l8.2,0.1l8.2-0.8l8.2-1.3l8.2-2
						l2-0.7l6.2-1.9l8.2-3.5l8.2-1.4h8.2l8.2,1.3l8.2,2.4l7.9,3.1l0.3,0.1l8.2,1.8l8.2,1.2l8.2,0.7l8.2,0.2l8.2-0.2l8.2-0.2l8.2-1
						l8.2-1.6l3.2-0.9l5-1.4l8.2-3.1l7.4-3.8l0.8-0.4l8.2-2.1l8.2-0.9l8.2,0.4l8.2,1.6l4.3,1.4l3.9,1.3l8.2,1.7l8.2,1.1l8.2,0.7
						l8.2,0.3h8.2l8.2,0.3l8.2-0.3l8.2-0.6l8.2-1l8.2-1.5l7.5-1.9l0.7-0.2l8.2-0.5l7,0.6l1.2,0.1l8.2,2.1l8.2,3.1l6.1,2.8l2.2,1.1
						l8.2,2.7l8.2,1.8l8.2,1.2l8.2,0.5h8.2l8.2-0.1l8.2-0.7l8.2-1.3l8.2-1.9l8.2-2.8l1.2-0.5l7.1-3l8.2-2.1l8.2-0.8l8.2,0.5l8.2,1.7
						l8.2,2.6l6,1.1l2.2,0.5l8.2,1.2l8.2,0.7l8.2,0.2l8.2-0.2h8.2l8.2-0.6l8.2-1.1l3.8-0.8l4.4-0.8l8.2-2.2l8.2-3.1l8.2-1.7l6.6-0.3
						l1.7-0.1l0.8,0.1l7.5,0.9l8.2,2.3l8.2,3.3l6.8,1.7l1.4,0.4l8.2,1.5l8.2,1l8.2,0.4l8.2-0.1l8.2,0.2l8.2-0.2l8.2-0.5l8.2-0.9
						l8.2-1.3l2.1-0.5l6.2-1.4l8.2,0.1l6.5,1.3l1.8,0.4l8.2,3.3l8.2,4.5l0.1,0.1l8.2,5.4l6.8,2.8l1.5,0.6l8.2,2.5l8.2,1.6l8.2,0.8
						h8.2l8.2,0.2l8.2-0.3l8.2-0.8l8.2-1.3l8.2-1.9l4.4-1.4l3.8-1.2l8.2-0.6l8.2,1.2l1.9,0.7l6.3,2.3l8.2,4.5l2,1.4l6.2,4.3l8.2,3.7
						l0.5,0.2l7.8,2.5l8.2,1.6l8.2,0.8h8.2l8.2-0.8l8.2-2.3l3.6-1.7l4.6-2.3l7.5-5.9l0.7-0.6l6.6-7.6l1.7-2.1l3.5-6.1l4-8.2l0.8-1.8
						l3-6.4l3.2-8.2l2.1-6.2l0.7-2l2.6-8.2l2.1-8.2l1.8-8.2l1.1-6l0.4-2.3l1.5-8.2l1.2-8.2l0.9-8.2l0.7-8.2l0.6-8.2l0.4-8.2l0.1-8.2
						l-0.1-8.2l-0.2-8.2l-0.4-8.2l-0.5-8.2l-0.7-8.2l-0.8-8.2l-0.9-8.2l-1.1-8.2l-1.2-8.1v-0.2l-1.3-8.2l-1.3-8.2l-1.5-8.2l-1.7-8.2
						l-1.8-8.2l-0.6-2.5l-1.3-5.7l-2.2-8.2l-2.5-8.2l-2.1-6.3l-0.6-2l-2.5-8.2l-2.9-8.2l-2.2-5.5l-1.4-2.8l-4.7-8.2l-2.1-3.7
						l-3.5-4.5l-4.7-6l-2.5-2.2l-5.7-5l-6.2-3.2l-2-1.2l-8.2-1.7l-8.2-0.2l-8.2,1.3l-5.1,1.8l-3.1,1l-8.2,4.2l-4.2,3.1l-4,2.9
						l-4.8,5.3l-3.4,3.7l-5.5,4.5l-2.8,2.1l-8.2,3.9l-8.2,1.1l-8.2-1.6l-8.2-4.9l-1.4-0.6l-6.8-3.5l-8.2-3l-7.9-1.8l-0.3-0.1
						l-8.2-1.2l-8.2,0.4l-8.2-0.5l-8.2,0.8l-2.4,0.6l-5.8,1.2l-8.2,2.8l-8.2,4.2l0,0l-8.2,5.8l-5.1,2.4l-3.1,1.2l-8.2,1.1l-8.2-1.3
						l-2.2-1l-6-3.3l-5.1-5l-3.2-3.7l-5.1-4.6l-3.2-3.4l-6.1-4.9l-2.1-2.1l-8.2-5.5l-1.8-0.7l-6.4-2.7l-8.2-0.4l-8.2-0.5l-8.2,1.8
						l-3.6,1.9l-4.6,2.1l-7.8,6.1l-0.4,0.3l-8.2,7.8l-0.1,0.2l-6.4,8.2l-1.7,1.9l-7.5,6.3l-0.7,0.5l-8.2,3.8l-8.2,0.9l-8.2-2.5
						l-3-2.6l-5.2-5.2l-3.8-3l-4.4-4.5l-4.9-3.7l-3.3-3.5l-6.6-4.7l-1.7-1.7l-8.2-4.6l-8.2,0.2l-8.2-1.1l-8.2,2.8l-5.4,4.5l-2.9,1.8
						l-6.1,6.5l-2.1,1.7l-5.6,6.6l-2.7,2.6l-3.6,5.6l-4.7,6.8l-1.4,1.5l-6.8,6.3l-3.6,1.9l-4.7,2l-8.2,0.5l-8.1-2.5h-0.1l-7.6-8.2
						l-0.7-1l-5.6-7.2l-2.6-5.4l-1.8-2.8l-3.3-8.2l-2.4-8.2l-0.8-3.3l-1.6-4.9l-2.3-8.2l-3.7-8.2l-0.7-1.1l-7.6-7.1l-0.7-0.5
						l-8.2-0.5l-8.2-1.3l-5.8,2.3l-2.4,1.1l-6.3,7.1l-1.9,3.2l-1.9,5l-1.7,8.2l-2,8.2l-2.4,8.2l-0.2,0.6l-2.2,7.7l-3.5,8.2l-2.5,3.4
						l-2.4,4.9l-5.8,7.8l-0.5,0.4l-7.8,4.9l-8.2,2.2l-8.2-1.1l-8.2-4.4l-1.5-1.5l-5.7-8.2l-1-1.9l-4.2-6.3l-3.3-8.2l-0.7-2.6l-2-5.6
						l-1.6-8.2l-0.9-8.2l-0.9-8.2l-1.3-8.2l-1.5-4.2l-2-4l-6.2-7.9l-0.5-0.4l-7.7-3.7l-8.2,0.5l-8.2,0.1l-7.5,3.1l-0.7,0.4l-6.8,7.8
						l-1.5,2.7l-2.1,5.6l0.2,6.7l-1.2,8.2l-1.4,8.2l-2,7.5l-0.1,0.7l-3,8.2l-4.4,8.2l-0.7,0.9l-4.2,7.4l-4.1,5.6l-3,2.6l-5.3,3.5
						l-8.2,2.1l-8.2-1.6l-6.5-4l-1.7-1.4l-4.1-6.9l-4.1-8.1l-0.1-0.2l-4.5-8.2l-3.6-7.3l-0.6-1l-4.8-8.2l-2.8-4.5l-3.4-3.7l-4.8-5.8
						l-3.4-2.4l-4.8-3.6l-8.2-0.7l-8.2-1.8l-8.2,1.7l-6.6,4.3l-1.7,1l-6.8,7.2l-1.4,1.3l-5.2,6.9l-3,4.1l-1.7,4.1l-4,8.2l-2.5,4.5
						l-3.1,3.7l-5.1,5.1l-7,3.1l-1.2,0.4l-3.7-0.4l-4.5-0.6l-8.2-5.2l-1.7-2.4l-5.1-8.2l-1.4-2.5l-4.1-5.7l-4.1-6.5l-1.5-1.7
						l-6.4-8.2l-0.3-0.5l-7.5-7.8l-0.7-1l-8.2-6.7l-8.2-0.1l-1.6-0.4l-6.6-2.3l-5.8,2.3l-2.4,0.7l-8.2,6.8l-0.5,0.7l-7.7,8.1
						l-0.1,0.1l-6.6,8.2l-1.6,1.7l-3.3,6.5l-4.8,8.2l-0.1,0.2l-7.5,8l-0.7,0.7l-9,4.7l-8.2,0.2l-8.2-4l-0.8-1L614,437l-1.8-2.8
						l-4.5-5.4L604,424l-3.6-3.4l-4.7-4.8l-4.8-3.4l-3.4-3l-8.2-4.1l-8.2,0.1l-7.2-1.4l-1-0.2l-1.1,0.2l-7.1,1.1l-8.2,4.1l-3.5,3
						l-4.7,3.2l-5.1,5l-3.1,2.8l-3.4,5.4l-4.9,7.5l-0.9,0.9l-7.5,7.3l-2,0.9l-6.2,2.6L497,447l-3-1.8l-5.2-3.3l-3.2-4.9l-5-7.7
						l-0.4-0.5l-6.7-8.2l-1.1-1.4l-7.2-6.9l-1-1.1L456,405l-2-0.9l-6.3-3l-8.2,0.3l-8.2-1.6l-8.4,0.2l-8.2,2.1l-4.1,1.9l-4.1,1.6
						l-8.2,4.6l-1.8,2l-6.4,5.9l-6.1,2.3l-2.1,0.7l-5.2-0.7l-3-0.4l-8.2-4.6l-3.5-3.2l-4.7-4.1l-2.8-4.1l-5.4-7.3l-1-1l-7.3-7.3
						l-1.3-0.9l-6.9-5.5l-5.4-2.8l-2.9-1.7l-8.2-2.8l-8.2-0.2l-8.2-0.8l-8.2,0.8l-8.2,2.4l-4.7,2.3l-3.6,1.5l-8.2,5.1l-1.5,1.6
						l-6.8,6.9l-1.8,1.3l-6.5,4.7l-8.2,3.4l-3.1,0.1l-5.2,0.2l-0.5-0.2l-7.7-2.9l-5.1-5.3l-3.2-3.3l-6.3-5l-2-1.3l-8.2-4.8l-5.1-2
						l-3.1-1.2l-8.2-1.9l-8.2-0.6h-8.2l-8.2,2.5l-1.9,1.2l-6.3,4l-4.2,4.2l-4,4.3l-2.6,3.9l-4.8,8.2l-0.8,1.6l-2.3,6.6l-2.6,8.2
						l-2.3,8.2l-1.1,3.8l-1.3,4.4l-2.4,8.2l-2.2,8.2l-2,8.2l-0.3,1.6l-1.5,6.7l-1.6,8.2l-1.5,8.2l-1.3,8.2l-1.3,8.2l-1,7.3l-0.1,0.9
						l-1,8.2l-0.8,8.2l-0.6,8.2l-0.5,8.2l-0.4,8.2l-0.5,8.2l-0.4,8.2l-0.5,8.2l-0.4,8.2l-0.3,8.2l-0.3,8.2l-0.3,8.2l-0.3,8.2
						l-0.2,8.2l-0.1,8.2l0.1,8.2l0.3,8.2l0.6,8.2l0.8,8.2l1.1,8.2l1.3,8.2l1.6,8.2l0.8,3.4l1.1,4.9l2.3,8.2l2.8,8.2l2,5.4l1.1,2.8
						l3.4,8.2l3.8,7.9l0.2,0.3l4.2,8.2l3.9,6.8l1.4,1.5l6.9,7.1l1.6,1.1l6.6,4.4l8.2,3.3l2.8,0.5l5.5,1.1h8.2l8.2-0.1l8.2-0.7
						l1.3-0.2l6.9-1.1l8.2-2.1l8.2-3l4.3-2.1l3.9-2l8.2-0.4l8.2,1.9l0.9,0.5l7.3,3.6l6.5,4.6l1.7,1.2l8.2,6.7l0.7,0.3l7.5,3.3
						l8.2,2.4l8.2,1.4l8.2,0.5l8.2-0.3l8.2-0.4l8.2-1.7l8.2-2.8l5.1-2.5L337.7,782.6z"/>
				</g>
				<g class="st6">
					<path class="st8" d="M302.8,774.4l5-0.2l8.2-0.5l8.2-2l8.2-3.3l3.7-2.2l4.5-2.8l6.6-5.5l1.6-1.4l6.3-6.9l2-2.3l8.2-4.9l3.8-1
						l4.4-1.1l8.2,0.5l1.6,0.6l6.6,2.2l8.2,4.4l7.2,1.7l1,0.2l8.2,1.2l8.2,0.6l8.2,0.1l8.2-0.5h8.2l8.2-1.4l0.8-0.2l7.4-2l8.2-3.2
						l5.7-3l2.6-1.3l8.2-5.5l4.6-1.4l3.6-1l8.2-0.4l8,1.4h0.3l8.2,3l8.2,4l4.7,1.2l3.5,0.8l8.2,1.3l8.2,0.7l8.2,0.2l8.2-0.3l8.2-0.2
						l8.2-1.3l4.5-1.2l3.8-1l8.2-3.2l7.5-4.1l0.7-0.4l8.2-5.9l4.5-1.9l3.7-1.6l8.2-1.9l8.2-0.2l8.2,1.4l7,2.3l1.2,0.4l8.2,1.2
						l8.2,0.8l8.2,0.4h8.2l8.2-0.4l8.2,0.1l8.2-0.8l8.2-1.5l0.4-0.1l7.8-1.9l8.2-2.9l7.3-3.5l1-0.5l8.2-1.4h8.2l8.2,1.5l1.1,0.4
						l7.1,2.5l8.2,3.8l8.2,1.9l0.4,0.1l7.8,1.3l8.2,0.8l8.2,0.3l8.2-0.3l8.2-0.2l8.2-1.1l3.6-0.8l4.6-1l8.2-2.4l8.2-3.4l2.7-1.4
						l5.6-3l8.2-2.3l8.2-0.8l8.2,0.7l8.2,2.1l8.2,3.1l1.4,0.3l6.8,1.6l8.2,1.3l8.2,0.8l8.2,0.4h8.2l8.2,0.3l8.2-0.4l8.2-0.8l8.2-1.2
						l8.2-1.8l0.5-0.2l7.7-2.3l8.2-0.8l8.2,0.6l8.2,2l1.1,0.5l7.1,2.9l8.2,4.2l3.3,1.1l4.9,1.7l8.2,2l8.2,1.2l8.2,0.6h8.2l8.2-0.1
						l8.2-0.8l8.2-1.4l8.2-2.1l3-1l5.2-1.8l8.2-3.8l8.2-2.2l4-0.4l4.2-0.4l4.9,0.4l3.3,0.3l8.2,2l8.2,3l8.2,1.8l7.9,1.2h0.3l8.2,0.8
						l8.2,0.3l8.2-0.2h8.2l8.2-0.7l2.1-0.3l6.1-0.8l8.2-1.8l8.2-2.6l6.9-3l1.3-0.6l8.2-2l8.2-0.7l8.2,0.8l8.2,2.2l0.7,0.3l7.6,3.4
						l8.2,2.3l8.2,1.6l8.1,1h0.1l8.2,0.5l8.2-0.2l8.2,0.2l8.2-0.3l2.1-0.2l6.1-0.5l8.2-1.2l8.2-1.8l8.2-2.7l8.2-0.5l8.2,1.4l8.2,3.3
						l3.3,2l4.9,2.9l7.3,5.3l0.9,0.7l8.2,3.9l8.2,2.7l4.6,1l3.6,0.8l8.2,0.8h8.2l8.2,0.1l8.2-0.5l8.2-1.1l0.7-0.1l7.6-1.5l8.2-2.5
						l8.2-3.5l4.5-0.7l3.7-0.6l5.5,0.6l2.7,0.3l8.2,3l8.2,4.8l0.3,0.2l8,6l4.5,2.2l3.7,1.8l8.2,2.9l8.2,1.8l8.2,0.8l8.2-0.1l8.2-1
						l8.2-2.8l6.1-3.5l2.1-1.2l7.7-7l0.5-0.5l5.7-7.7l2.5-3.9l2.1-4.3l3.3-8.2l2.8-8.1l0.1-0.1l2.9-8.2l2.3-8.2l2-8.2l1-4.7l0.8-3.6
						l1.7-8.2l1.3-8.2l1-8.2l0.8-8.2l0.6-8.2l0.4-8.2l0.1-8.2l-0.1-8.2l-0.2-8.2l-0.4-8.2l-0.6-8.2l-0.8-8.2l-0.9-8.2l-1-8.2
						l-1.2-8.2l-1.4-8.2l-0.3-1.4l-1.2-6.8l-1.5-8.2l-1.7-8.2l-1.9-8.2l-2-8.1V504l-2-8.2l-2.3-8.2l-2.7-8.2l-1.2-3.4l-2.2-4.9
						l-3.9-8.2l-2.1-4l-3-4.3l-5.2-6.8l-1.6-1.4l-6.6-5.6l-5.4-2.7l-2.9-1.5l-8.2-1.6l-8.2-0.2l-8.2,1.2l-6.2,2l-2.1,0.6l-8.2,3.9
						l-5.4,3.7l-2.8,1.9l-6.2,6.3l-2,2.1l-8.2,6l-0.3,0.1l-7.9,2.9l-8.2,0.2l-8.2-2.2l-1.5-0.9l-6.8-4.2l-8.2-3.5l-1.6-0.5l-6.6-2.1
						l-8.2-1.7l-8.2-0.8l-8.2,0.2l-8.2-0.3l-8.2,0.6l-8.2,1.5l-8.2,2.5l-0.5,0.2l-7.7,3l-7.8,5.2l-0.4,0.2l-8.2,3.4l-8.2,1.4
						l-8.2-0.9l-8.2-3.1l-1.3-1l-6.9-5.4l-4.8-2.8l-3.4-2.3l-8.2-4.1l-5.6-1.9l-2.6-1l-8.2-1.8l-8.2-0.1l-8.2-0.2l-8.2,1.1l-6.3,2
						l-1.9,0.5l-8.2,3.7l-6,4l-2.2,1.4l-7.2,6.9l-1,0.9l-8.2,5.8l-3.2,1.5l-5.1,2.2l-8.2,1.3l-8.2-1.2l-4.2-2.4l-4.1-2.6l-8.2-4.1
						l-4-1.5l-4.2-1.9l-8.2-2.5l-8.2-1.3l-8.2,0.2l-8.2-0.3l-8.2,1.3l-8.2,2.9l-2.5,1.4l-5.7,2.8l-7.8,5.5l-0.4,0.2l-8.2,7.7
						l-0.4,0.3l-7.8,4.8l-8.2,2.9l-8.2,0.4l-8.2-2.2l-8.2-5.1l-1.7-0.8l-6.6-3.5l-8.2-3.1l-6.4-1.6l-1.8-0.6l-8.2-1.3l-8.2,0.2
						l-8.2-0.4l-8.2,0.9l-4.1,1.1l-4.1,0.9l-8.2,2.9l-8.2,4.3l-0.1,0.1l-8.1,5.6l-5.4,2.6l-2.8,1.2l-8.2,1.4l-8.2-0.7l-5.5-1.8
						l-2.7-1l-8.2-6l-2.3-1.2l-6-3.9l-8.2-3.8l-2-0.6l-6.2-2.5l-8.2-1.8l-8.2,0.4h-8.2l-8.2,1.2l-8.2,2.6l-0.3,0.2l-7.9,2.9
						l-8.2,4.5l-1,0.9l-7.2,5.1l-6.4,3.1l-1.8,0.8l-8.2,1.4l-8.2-0.8l-3.8-1.4l-4.5-1.9l-6.9-6.3l-1.3-1.4l-8.2-6.7l-0.3-0.2
						l-7.9-6.1l-4.1-2.2l-4.1-2.7l-8.2-3.3l-8.2-0.5l-8.2-0.9l-8.2,0.7l-8.2,2.3l-8.2,3.9l-0.8,0.6l-7.4,4.1l-4.1,4.2l-4.2,3.4
						l-8.2,4.4l-1.9,0.4l-6.4,1.1l-8.2-1h-0.1l-8.1-3.8l-4.7-4.5l-3.5-3.8l-5.5-4.4l-2.8-2.5l-8.2-5.4l-0.8-0.4l-7.4-3.9l-8.2-2.5
						l-8.2-0.1l-8.2-0.7l-8.2,0.8l-8.2,2.3l-8.2,4.1l-0.1,0.1l-8.1,4.9l-3,3.3l-5.2,5.3l-3.9,3l-4.3,2.9l-8.2,3.2l-8.2,0.6l-8.2-2.4
						l-4.8-4.2l-3.4-3.3l-6.5-4.9l-1.8-1.5l-8.2-5.4l-2.9-1.3l-5.4-2.9l-8.2-2.6l-8.2,0.1l-8.2-0.9l-8.2,0.7l-8.2,2.4l-6.1,3.1
						l-2.1,0.9l-8.2,5.2l-1.9,2.1l-6.4,6.6l-2.3,1.6l-6,4l-8.2,2.6l-8.2-0.7l-8.2-3.9l-1.8-2l-6.4-7.3l-1.1-0.9l-7.1-6.6l-2.4-1.6
						l-5.9-4.7l-6.6-3.5l-1.6-1l-8.2-2.9l-8.2,0.2l-8.2-1.2l-8.2-0.2l-8.2,0.9l-8.2,1.9l-6,2.2L397,447l-8.2,6.9l-1.5,0.5l-6.7,2.2
						l-8.2-1.6l-0.8-0.6l-7.5-6l-1.6-2.2l-6.6-8l-0.1-0.2l-4.5-8.2l-3.6-5.6l-2.2-2.6l-6-6.4l-2.4-1.8l-5.9-4.4l-7.7-3.8l-0.5-0.3
						l-8.2-2.5l-8.2-0.4l-8.2-0.6l-8.2,0.6l-8.2,1.8l-2.1,0.2l-5.1,2l-8.2,4.8l-1.4,1.5l-6.8,7.5l-0.9,0.7l-7.4,6.9l-2.2,1.3l-6,3.8
						l-8.2,1.5l-8.2-2.6l-2.3-2.6l-5.9-6.8l-1.6-1.5l-6.6-5.9l-3.5-2.4l-4.7-3.1l-8.2-3.8l-4.8-1.3l-3.6-0.9l-8.2-0.7h-8.2l-4.5,1.6
						l-3.7,1.4l-8.2,6.7l-0.1,0.1l-6.1,8.2l-2,2.9l-2.7,5.4l-4.1,8.2l-1.5,3l-1.7,5.3l-2.5,8.2l-2.3,8.2l-1.7,7.3l-0.2,0.9l-1.9,8.2
						l-1.7,8.2l-1.5,8.2l-1.5,8.2l-1.2,8.2l-0.3,2l-0.9,6.2l-0.9,8.2l-0.7,8.2l-0.5,8.2l-0.5,8.2l-0.5,8.2l-0.5,8.2l-0.5,8.2
						l-0.5,8.2l-0.3,8.2l-0.3,8.2l-0.3,8.2l-0.3,8.2l-0.2,8.2l-0.1,8.2l0.1,8.2l0.4,8.2l0.6,8.2l0.9,8.2l1.3,8.2l1.5,8.2l1.8,8.2
						l0.5,1.8l1.7,6.4l2.6,8.2l3.1,8.2l0.8,2l2.5,6.2l3.9,8.2l1.8,3.4l3.9,4.8l4.3,5l4.2,3.3l4,3l8.2,3.8l6.3,1.4l2,0.4h8.2l8.2-0.2
						l2.3-0.3l6-0.7l8.2-1.7l8.2-2.6l7.2-3.3l1.1-0.5l8.2-5.3l8.2-1.1l8.2,1.8l8.2,4.7l0.4,0.3l7.9,6.6l1.5,1.6l6.7,6.7l2.8,1.6
						l5.4,2.9l8.2,3l8.2,1.8l6.6,0.5l1.7,0.1l3.2-0.1L302.8,774.4z"/>
				</g>
				<g class="st6">
					<path class="st9" d="M308.9,757.9l7.1-0.4l8.2-2.3l8.2-3.8l2.4-1.6l5.8-4.1l4.5-4.2l3.7-3.5l4-4.7l4.2-5.3l5.1-2.9l3.1-1.9
						l8.2-1.4l8.2,1.9l2.5,1.4l5.7,2.8l7.8,5.4l0.4,0.3l8.2,2.6l8.2,1.7l8.2,0.9l8.2,0.2l8.2-0.5h8.2l8.2-1.4l8.2-2.3l3.3-1.3
						l4.9-2.1l8.2-4.6l2.2-1.5l6.1-4.6l8.2-2.3l8.2,0.1l8.2,2.2l8.2,3.8l1.1,0.7l7.1,4.2l8.2,2.5l8.1,1.6h0.1l8.2,0.9l8.2,0.3
						l8.2-0.3l8.2-0.2l3.5-0.6l4.8-0.8l8.2-2.4l8.2-3.5l2.7-1.6l5.5-3.2l6.4-5l1.8-1.5l8.2-3.5l8.2-1.7l8.2,0.2l8.2,1.9l8.2,3.2
						l8.2,1.4l0,0l8.2,1l8.2,0.5h8.2l8.2-0.4l8.2,0.1l8.2-0.9l1.5-0.3l6.8-1.2l8.2-2.2l8.2-3.1l3.4-1.7l4.8-2.5l8.2-1.6l8.2,0.1
						l8.2,1.7l6.1,2.3l2.1,0.8l8.2,4.2l8.2,2.2l5.8,1l2.4,0.5l8.2,0.9l8.2,0.3l8.2-0.3l8.2-0.2l7.8-1.1l0.5-0.1l8.2-1.8l8.2-2.7
						l8.2-3.7h0.1l8.2-4.8l8.2-2.4l8.2-0.8l8.2,0.9l8.2,2.4l8.2,3.5l4.5,1.2l3.7,1l8.2,1.6l8.2,1l8.2,0.5h8.2l8.2,0.3l8.2-0.5l8.2-1
						l8.2-1.5l5-1.3l3.3-0.8l8.2-2.9l8.2-1.1l8.2,0.5l8.2,2.1l5.3,2.2l2.9,1.2l8.2,4.6l6.6,2.4l1.6,0.6l8.2,2.1l8.2,1.3l8.2,0.6
						l8.2-0.1l8.2-0.1l8.2-0.8l8.2-1.5l7.7-2.1l0.5-0.1l8.2-3l8.2-4.1l3.3-0.9l4.9-1.3l8.2-0.7l8.2,0.9l4,1.1l4.3,1.2l8.2,3.4l8.2,2
						l8.2,1.3l2.7,0.3l5.5,0.6l8.2,0.3l8.2-0.2h8.2l8.1-0.8h0.1l8.2-1.3l8.2-2l8.2-2.9l4.2-2l4.1-2.1l8.2-2.5l8.2-1l8.2,0.7l8.2,2.3
						l5.7,2.6l2.6,1.2l8.2,2.4l8.2,1.7l8.2,1l8.2,0.4l8.2-0.2l8.2,0.2l8.2-0.5l8.2-1l8.2-1.6l8.2-2.4l3.2-1.3l5.1-2.2l8.2-1.2l8.2,1
						l5.9,2.4l2.3,0.9l8.2,5.3l2.3,2l5.9,4.7l6.6,3.5l1.6,0.8l8.2,3l8.2,1.9l8.2,0.9h8.2l8.2,0.1l8.2-0.7l8.2-1.4l8.2-2.2l6.4-2.5
						l1.9-0.8l8.2-4.7l8.2-2l8.2,0.5l8.2,3.1l5.7,3.8l2.5,1.6l7.8,6.6l0.4,0.3l8.2,4.4l8.2,3l2,0.5l6.2,1.5l8.2,0.9l8.2-0.1l8.2-1.1
						l3.1-1.2l5.2-2l8.2-5.5l0.8-0.8l7.4-8.1l0.1-0.1l4.9-8.2l3.2-6.1l0.8-2.1l2.9-8.2l2.4-8.2l2-8.2l0.1-0.4l1.9-7.8l1.8-8.2
						l1.4-8.2l1.1-8.2l0.9-8.2l0.7-8.2l0.5-8.2v-0.9l0.1-7.3l-0.1-8.2l-0.1-2.1l-0.2-6.2l-0.5-8.2l-0.6-8.2l-0.8-8.2l-0.9-8.2
						l-1.1-8.2l-1.3-8.2l-1.5-8.2l-1.3-6.5l-0.3-1.8l-1.5-8.2l-1.7-8.2l-1.9-8.2l-2-8.2l-0.8-2.7l-2-5.6l-3.4-8.2l-2.8-5.9l-1.5-2.4
						l-5.6-8.2l-1.2-1.7l-6.4-6.5l-1.8-1.7l-8.2-4.7l-8.2-1.6l-7.7-0.2h-0.5h-0.1l-8.2,1.2l-8.2,2.6l-8.2,4.2l-0.4,0.2l-7.9,5.5
						l-2.6,2.7l-5.6,5.5l-4.1,2.7l-4.1,2.6l-8.2,2.2l-8.2-0.7l-8.2-3.2l-1.3-1l-7-4.9l-6.7-3.3l-1.5-0.8l-8.2-2.9l-8.2-1.8l-8.2-0.9
						l-8.2,0.1l-8.2-0.2l-8.2,0.6l-8.2,1.4l-8.2,2.4l-4.9,2.1l-3.3,1.4l-8.2,5.5l-3.1,1.4l-5.1,2.3l-8.2,1.5l-8.2-0.8l-8-3l-0.2-0.1
						l-8.2-6.1l-3.8-2.1l-4.4-2.5l-8.2-3.4l-8.2-2.2l-0.6-0.1l-7.6-1.3l-8.2-0.1l-8.2-0.1l-8.2,1l-1.8,0.5l-6.5,1.6l-8.2,3.3
						l-5.5,3.3l-2.7,1.6l-7.3,6.7l-0.9,0.9l-8.2,5.8l-3.2,1.5l-5,2.3l-8.2,1.4l-8.2-1.1l-5.2-2.6l-3.1-1.6l-8.2-3.4l-8.2-2.4
						l-4.2-0.8l-4.1-0.9l-8.2-0.9l-8.2,0.3l-8.2-0.2l-8.2,1l-2.4,0.7l-5.8,1.4l-8.2,3.2l-6.3,3.6l-1.9,1l-8.2,6.5l-1.2,0.7l-7,3.7
						l-8.2,2.4l-8.2,0.2l-8.2-2l-7.8-4.2l-0.5-0.3l-8.2-3.8l-8.2-2.6l-7.6-1.5l-0.6-0.1l-8.2-1l-8.2,0.1l-8.2-0.3l-8.2,0.7l-3,0.6
						l-5.3,0.9l-8.2,2.4l-8.2,3.5l-2.2,1.5l-6,3.5l-8.2,3.2l-8.2,1.3l-8.2-0.8l-8.2-2.8l-7.3-4.4l-0.9-0.6l-8.2-4.1l-6-3.5l-2.7-0.6
						l-5.6-1.6l-8.2-1.2l-8.2,0.2H958l-8.2,0.9l-7.7,1.7l-0.5,0.1l-8.2,2.4l-8.2,3.5l-3.4,2.3l-4.8,2.9l-8.2,3.6l-8.2,1.7l0,0h-0.1
						l-8.2-0.5l-8.2-2.8l-6.3-4.9l-1.9-1.6l-8.2-5.4l-2.6-1.3l-5.6-3l-8.2-3.1l-8.2-1.9l-6.5-0.2l-1.8-0.1l-8.2-0.7l-8.2,0.4
						l-1.8,0.3l-6.4,1l-8.2,2.2l-8.2,3.2l-2.6,1.9l-5.7,3.9l-8.2,3.8l-3.4,0.6l-4.9,0.8l-6-0.8l-2.2-0.3l-8.2-3.6l-4.9-4.4l-3.3-2.9
						l-8.1-5.3l-0.2-0.1l-8.2-4.4l-8.2-2.9L716,470l-4.5-1.1l-8.2-0.2l-8.2-0.6l-8.2,0.6l-5.3,1.2l-2.9,0.5l-8.2,2.7l-8.2,4.2
						l-0.9,0.8l-7.4,6.3l-2.9,1.9l-5.4,3.6l-8.2,3.5l-8.2,1l-8.2-1.8l-8.1-6.3l-0.2-0.1l-8.2-5.3l-5.8-2.8l-2.5-1.3l-8.2-3l-8.2-1.7
						l-8.2,0.1l-8.2-0.6l-8.2,0.5l-8.2,1.7l-8.2,3l-2.4,1.3l-5.8,3l-5.3,5.2l-2.9,2.8l-7.6,5.4l-0.6,0.4l-8.2,3l-8.2-0.1l-7.5-3.3
						l-0.7-0.3l-6.9-7.9l-1.4-1.6l-7.4-6.6l-0.8-0.7l-8.2-5.3l-5.1-2.2l-3.1-1.4l-8.2-2.2l-8.2,0.1l-8.2-0.9H424l-8.2,1l-8.2,2
						l-3.5,1.4l-4.7,1.9l-6.7,6.3l-1.6,1.8l-8.2,6l-2,0.4l-6.2,1.6l-3-1.6l-5.2-3.1l-3.1-5.1l-5.1-7.8l-0.1-0.4l-3.1-8.2l-3.4-8.2
						l-1.6-3.6l-2.6-4.6l-5.6-8.2l0,0l-8.2-7.9l-0.5-0.3l-7.7-4.6l-8.2-2.9l-8.2-0.5l-2.3-0.2l-5.9-0.4l-4.7,0.4l-3.5,0.3l-8.2,2.2
						l-8.2,3.8l-2.8,1.9L268,433l-3.1,4.1l-5.1,8l-0.2,0.2l-6.2,8.2l-1.8,2.8l-6.2,5.5l-2,2l-8.2,1.6l-6.8-3.7l-1.4-0.6l-5.3-7.6
						l-2.9-3.7l-4.8-4.5l-3.5-3.1l-7.7-5.1l-0.5-0.4l-8.2-3.8l-8.2-2.2l-8.2-0.6h-8.2l-8.2,3.4l-4.1,3.5l-4.1,3.5l-3.5,4.7l-4.7,6.6
						l-0.8,1.7l-3.9,8.2l-3.3,8.2l-0.2,0.5l-1.9,7.8l-1.8,8.2l-1.7,8.2l-1.6,8.2l-1.2,7.3l-0.2,0.9l-1.2,8.2l-1,8.2l-0.8,8.2
						l-2.4,8.4l-0.5,8.2l-0.6,8.2l-0.5,8.2l-0.5,8.2l-0.5,8.2l-0.4,8.2l-0.3,8.2l-0.4,8.2l-0.3,8.2l-0.2,8.2l-0.1,8.2l0.1,8.2
						l0.4,8.2l0.7,8.2l1,8.2l1.4,8.2l1.6,8.2l1.9,8.2l1,3.4l1.4,4.9l2.9,8.2l3.4,8.2l0.6,1.3l4.9,7l3.3,4.2l4.6,4l3.7,3.1l8.2,4.3
						l3.4,0.8l4.8,1.2h8.2l8.2-0.3l6.6-0.9l1.6-0.2l8.2-2.1l8.2-3.2l4.8-2.7l3.5-2l7.6-6.2l0.6-0.6l8.2-2.1l8.2,1.4l2.1,1.3l6.1,3.6
						l4.7,4.6l3.5,3.3l4,5l4.3,5l4.8,3.2l3.4,2.2l8.2,3.6l8.2,2.2l3,0.3l5.2,0.5l8.2-0.5L308.9,757.9L308.9,757.9z"/>
				</g>
				<g class="st6">
					<path class="st10" d="M332.9,733.2l7.8-6l2.2-2.2l6-6.6l1.2-1.6l5.8-8.2l1.2-1.8l8.2-4.4l8.2-0.1l8.2,3.4l3.8,2.9l4.4,3
						l5.6,5.2l2.6,2.2l8.2,3.6l8.2,2.3l0.9,0.1l7.4,1.1l8.2,0.3l8.2-0.5h8.2l4.8-0.9l3.5-0.7l8.2-2.6l8.2-3.8l2-1.2l6.3-3.8l5.7-4.4
						l2.6-2.1l8.2-2.2l8.2,0.5l8.2,3l1.1,0.7l7.1,4l5.7,4.2l2.5,1.7l8.2,3l8.2,1.9l8.2,1.1l8.2,0.3l8.2-0.4l8.2-0.3l8.2-1.6l8.2-2.6
						l7.2-3.3l1-0.5l8.2-5.1l3.2-2.6l5-4.3l8.2-3.6l1.7-0.3l6.6-1.2l8.2,0.7l1.5,0.5l6.7,2l8.2,3.8l8.2,1.8l4.8,0.7l3.4,0.5l8.2,0.6
						l8.2,0.1l8.2-0.4l8.2,0.1l7.3-0.9l0.9-0.1l8.2-1.6l8.2-2.4l8.2-3.4l1.3-0.7l6.9-3.9l8.2-1.8l8.2,0.1l8.2,1.9l8.2,3.4l0.4,0.2
						l7.9,4.4l8.2,2.4l6.9,1.4l1.3,0.3l8.2,1l8.2,0.3l8.2-0.3l8.2-0.2l6.6-1l1.6-0.2l8.2-2l8.2-2.9l6.5-3.1l1.7-0.9l8.2-5.3l6.5-2
						l1.8-0.5l8.2-0.7l8.2,1.1l0.4,0.1l7.9,2.7l8.2,4l4.8,1.5l3.4,1l8.2,1.8l8.2,1.1l8.2,0.5h8.2l8.2,0.3l8.2-0.5l8.2-1.1l8.2-1.7
						l4.2-1.2l4-1.2l8.2-3.4l8.2-1.4l8.2,0.4l8.2,2.2l7.6,3.5l0.7,0.3l8.2,4.9l8,3l0.2,0.1l8.2,2.3l8.2,1.4l8.2,0.6l8.2-0.1l8.2-0.1
						l8.2-0.9l8.2-1.6l6-1.8l2.3-0.7l8.2-3.2l8.1-4.3l0.2-0.1l8.2-2.4l8.2-0.7l8.2,1.1l6,2l2.2,0.7l8.2,3.9l8.2,2.3l7.2,1.4l1,0.2
						l8.2,1l8.2,0.4l8.2-0.2h8.2l8.2-0.8l2.8-0.5l5.4-1l8.2-2.3l8.2-3.3l2.9-1.6l5.3-3.2l8.2-3.1l8.2-1.5l8.2,0.5l8.2,2.5l8.2,4.2
						l1.4,0.5l6.8,2.2l8.2,1.8l8.2,1.1l8.2,0.4l8.2-0.2l8.2,0.2l8.2-0.6l8.2-1.3l8.2-2.1l3.9-1.4l4.3-1.7l8.2-4.7l7.2-1.8l1-0.3
						l5.3,0.3l2.9,0.2l8.2,3.2l6.7,4.8l1.5,1l7.6,7.2l0.6,0.5l8.2,4.8l7,2.9l1.2,0.5l8.2,2.1l8.2,1l8.2-0.1l8.2,0.1l8.2-0.9l8.2-1.7
						l3-1l5.2-1.8l8.2-4.1l3.3-2.3l4.9-3.8l8.2-2.8l8.2,0.2l8.2,3.4l4,3l4.3,3l5.3,5.2l3,2.8l8.2,5.1l1,0.4l7.3,3l8.2,2.1l8.2,1
						l8.2-0.2l8.2-1.3l8.2-3.7l1.4-1l6.9-5.6l2.2-2.6l6.1-8l0.1-0.2l4.2-8.2l3.4-8.2l0.5-1.4l1.9-6.9l2-8.2l1.8-8.2l1.4-8.2l1.1-8.2
						l0.1-0.7l0.9-7.5l0.8-8.2l0.6-8.2l0.2-8.2l-0.1-8.2l-0.2-8.2l-0.6-8.2l-0.7-8.2l-0.8-6.9l-0.1-1.3l-0.9-8.2l-1.1-8.2l-1.3-8.2
						l-1.5-8.2l-1.7-8.2l-1.7-7.9l-0.1-0.3l-2.4-8.2l-2.8-8.2l-2.9-8.2l0,0l-4.3-8.2l-3.9-6.5l-1.5-1.8l-6.7-7.1l-1.8-1.2l-6.4-3.9
						l-8.2-1.7l-8.2-0.3l-8.2,1.1l-8.2,2.5l-4.8,2.3l-3.5,1.7l-8.2,5.5l-1.1,1.1l-7.2,7.3l-1.4,0.9l-6.8,4.4l-8.2,1.6l-8.2-1.8
						l-7.7-4.2l-0.6-0.3l-8.2-7.1l-1.3-0.8l-6.9-4l-8.2-3.3l-3.7-0.9l-4.6-1.2l-8.2-1.1h-8.2l-8.2-0.2l-8.2,0.6l-8.2,1.6l-0.8,0.3
						l-7.4,2.2l-8.2,3.7l-3.2,2.3l-5,3.7l-8.2,4.2l-1.2,0.3l-7,1.6l-8.2-0.9l-1.6-0.7l-6.6-2.8l-6.9-5.5l-1.4-1l-8.2-4.7l-6.2-2.5
						l-2.1-0.9l-8.2-2.3l-8.2-1.3l-8.2-0.1l-8.2-0.1l-8.2,1l-8.2,2.2l-3.3,1.4l-4.9,2l-8.2,5l-1.4,1.3l-6.8,6.6l-2.1,1.6l-6.1,4.5
						l-7.9,3.7l-0.3,0.1l-8.2,1.1l-7.8-1.2l-0.4-0.1l-8.2-4.5l-8.2-3.2l-1.8-0.5l-6.4-1.9l-8.2-1.5l-8.2-0.8l-8.2,0.2l-8.2-0.2
						l-8.2,0.9l-8.2,2l-3.6,1.4l-4.7,1.6l-8.2,4l-3.5,2.6l-4.8,3.4l-8.2,4.3l-2,0.6l-6.2,1.6h-8.2l-6.9-1.7l-1.3-0.3l-8.2-4.7
						l-7.7-3.2l-0.5-0.2l-8.2-2.6l-8.2-1.7l-8.2-0.9l-8.2,0.1l-8.2-0.2l-8.2,0.6l-8.2,1.4l-8.2,2.3l-3.3,1.3l-4.9,1.8l-8.2,4.8
						l-4.3,1.6l-4,1.4l-8.2,1.1l-8.2-0.9l-5-1.6l-3.3-1.1l-8.2-5l-4.7-2.1l-3.5-1.7l-8.2-2.9l-8.2-1.9l-8.2-1l-8.2,0.2h-8.2
						l-8.2,0.7l-8.2,1.5l-8.2,2.4l-6.2,2.6l-2,0.8l-8.2,5.1l-5.3,2.4l-3,1.3l-8.2,1.8l-8.2-0.2l-8.2-2.4l-0.8-0.6l-7.5-5.6l-4.5-2.6
						l-3.8-2.3l-8.2-3.8l-6.7-2.1l-1.6-0.6l-8.2-1.9l-8.2-0.2l-8.2-0.5l-8.2,0.3l-8.2,1.2l-6.4,1.7l-1.8,0.4l-8.2,2.9l-7.1,4.9
						l-1.1,0.8l-8.2,3.7l-8.2,1.5l-8.2-1l-8.2-3.4l-1.8-1.6l-6.4-5.8l-3.6-2.5l-4.6-3.2l-8.2-4.1l-2.9-1l-5.4-1.9l-8.2-1.7l-8.2-0.2
						l-8.2-0.5l-8.2,0.6l-8.2,1.6l-6,2l-2.2,0.7l-8.2,4l-3.9,3.5l-4.4,4l-5.8,4.2l-2.4,1.8l-8.2,3.9l-8.2,1.3l-8.2-1.6l-7-5.4
						l-1.2-1l-8.2-4.9l-5.4-2.4l-2.9-1.3l-8.2-2.7l-8.2-1.5l-8.2,0.1l-8.2-0.6l-8.2,0.5l-8.2,1.7l-8.2,3l-1.3,0.7l-6.9,3.6l-4.7,4.6
						l-3.6,3.8l-5.6,4.4l-2.6,2.2l-8.2,3.9l-8.2,0.6l-8.2-3.2l-3-3.5l-5.3-6.2l-2.2-2.1l-6-5.5l-4-2.7l-4.2-2.9l-8.2-3.9l-5.2-1.4
						l-3.1-0.9h-8.2l-8.2-0.9l-8.2,0.3l-6.9,1.3l-1.3,0.3l-8.2,3.1l-7.6,4.9l-0.6,0.4l-5.6,7.8l-2.6,4.3l-2.7,4.1l-5,6.8l-1.7,1.4
						l-6.6,6.2l-6.6,2.1l-1.7,0.6l-1-0.6l-7.2-5.2l-1-3l-2.5-8.2l-2-8.2l-1.9-8.2l-0.8-3.9l-1-4.3l-2.3-8.2l-3-8.2l-1.8-4l-2.4-4.2
						l-5.5-8.2l-0.3-0.3l-8.2-7.5l-0.7-0.4l-7.5-3.5l-8.2-0.8l-8.2-0.8l-8.2,1.1l-8.2,3l-1.8,1.1l-6.4,4.6l-3.6,3.7l-4.7,5.7
						l-1.2,2.6l-3.3,8.2l-2.5,8.2l-1.3,6l-0.7,2.2l-2.1,8.2l-2.5,8.2l-2.3,8.2l-0.6,1.8l-5.9,6.4l-2.4,2.6l-3.1-2.6l-5.1-3.3
						l-2.5-4.9l-5.1-8.2l-0.7-0.9l-2.5-7.3l-3.1-8.2l-2.6-5.8l-1.4-2.5l-5.8-8.2l-1-1.2l-7.8-7l-0.4-0.3l-8.2-4.4l-8.2-2.4l-8.2-0.7
						h-8.5l-8.2,3.6l-4.4,4.1l-3.8,4l-2.6,4.2l-4.6,8.2l-1.1,2.1l-2.2,6.1l-2.8,8.2l-2.7,8.2l-0.5,1.7l-1.2,6.6l-1.3,8.2l-1,8.2
						l-0.8,8.2l-0.8,8.1l-0.6,8.2l-0.6,8.2l-0.6,8.2l-0.6,8.2l-0.6,8.2l-0.3,6.9l-0.1,1.3l-0.4,8.2l-0.4,8.2l-0.4,8.2l-0.2,8.2
						l-0.1,8.2l0.2,8.2l0.5,8.2l0.8,8.2l0.2,1.4l0.9,6.8l1.5,8.2l1.7,8.2l2.1,8.2l2.1,6.6l0.8,1.6l4.8,8.2l2.6,4l4.1,4.3l4.1,4
						l7.2,4.3l1.1,0.6l8.2,2.3h8.2l8.2-0.4l8.2-1.4l3.5-1.1l4.7-1.5l8.2-4.1l3.8-2.6l4.5-3.5l4.5-4.8l3.7-4.5l8.1-3.7l0.2-0.1
						l1.6,0.1l6.6,0.4l8.2,5.3l2.1,2.6l6.1,6.9l0.8,1.3l5.5,8.2l1.9,2.5l7.5,5.7l0.8,0.6l8.2,4.2l8.2,2.5l8.2,0.9l8.2-0.6l8.2-0.4
						l8.2-2.6l8.2-4.3L332.9,733.2L332.9,733.2z"/>
				</g>
				<g class="st11">
					<path class="st12" d="M1631.4,716.8l1.7-0.3l8.2-4.3l4.1-3.6l4.2-4l3-4.2l4.9-8.2l0.4-0.7l3-7.5l2.8-8.2l2.5-8.2v-0.1l1.6-8.2
						l1.2-8.2l1-8.2l0.7-8.2l0.5-8.2l0.2-8.2l-0.1-8.2l-0.2-8.2l-0.6-8.2l-0.7-8.2l-0.9-8.2l-1.1-8.2l-1.2-8.2l-0.5-2.8l-1.2-5.5
						l-2.1-8.2l-2.4-8.2l-2.4-8.2l-0.2-0.5l-3.3-7.7l-4-8.2l-1-2l-4.4-6.3l-3.8-4.8l-4.6-3.5l-3.6-2.5l-8.2-2l-8.2-0.4l-8.2,1.1
						l-8.2,2.6l-2.5,1.3l-5.7,2.9l-7.4,5.3l-0.8,0.6l-6.6,7.6l-1.6,1.8l-8.2,5.1l-8.2,0.8l-8.2-3l-6.3-4.7l-1.9-1.3l-6.1-6.9l-2.1-2
						l-8.2-5.9l-0.6-0.3l-7.7-3.6l-8.2-2.5l-8.2-1.3h-8.2l-8.2-0.3l-8.2,0.7l-8.2,1.7l-8.2,2.8l-4.9,2.4l-3.3,1.7l-7.8,6.5l-0.4,0.4
						l-8.2,4.8l-8.2,2l-8.2-1l-8.2-3.8l-2.7-2.4l-5.5-4.7l-5.5-3.5l-2.8-1.7l-8.2-3.7l-8.2-2.4l-2.2-0.4l-6.1-1l-8.2-0.1l-8.2-0.1
						l-8.2,1.1l-0.3,0.1l-7.9,2.2l-8.2,3.8l-3.4,2.2l-4.8,3.1l-5.1,5.1l-3.1,3l-7.2,5.2l-1,0.7l-8.2,3.5l-8.2,0.8l-8.2-1.8l-5.8-3.4
						l-2.5-1.4l-8.2-3.4l-8.2-2.3l-6.5-1.1l-1.7-0.3l-8.2-0.8l-8.2,0.2l-8.2-0.2l-8.2,0.8l-1.3,0.3l-6.9,1.4l-8.2,2.7l-8.2,4
						l-0.2,0.1l-8,6l-4.2,2.3l-4,2.2l-8.2,2.2l-8.2-0.2l-8.2-2.4l-3-1.8l-5.2-3.1l-8.2-3.6l-5.1-1.5l-3.2-1l-8.2-1.8l-8.2-0.9
						l-8.2,0.1l-8.2-0.2l-8.2,0.6l-8.2,1.4l-6.9,1.9l-1.4,0.4l-8.2,3l-8.2,4.8h-0.1l-8.1,3l-8.2,1.1l-8.2-1l-8.2-2.9l-0.2-0.1
						l-8.1-5.1l-6.9-3.1l-1.4-0.6l-8.2-2.8l-8.2-1.8l-8.2-1l-8.2,0.2h-8.2l-8.2,0.7l-8.2,1.5l-8.2,2.4l-5.4,0.9l-4.6,1.9l-8.2,5.4
						l-2.1,1l-6.2,3l-8.2,2.2h-8.2l-8.2-2.3l-4-2.9l-4.3-3.2l-8.2-4.7l-0.8-0.4l-7.4-3.4l-8.2-2.6l-8.2-1.6l-8.2-0.2l-7.4-0.4h-0.8
						h-1.4l-6.9,0.2l-8.2,1.1l-8.2,2l-8.2,3.1l-2.5,1.8l-5.7,4l-8.2,4.1l-0.5,0.1l-7.7,1.7l-8.2-0.7l-2.3-0.9l-6-2.5l-6.2-5.8
						l-2-1.8l-8.2-5.8l-1.3-0.6l-7-3.6l-8.2-2.9l-8.2-1.7h-0.1l-8.2-0.2l-8.2-0.5l-8.2,0.6h-0.2l-8,1.6l-8.2,2.9l-7,3.7l-1.3,0.7
						l-7.7,7.5l-0.5,0.5l-8.2,6.6l-2.2,1.1l-6.1,3.2l-8.2,1.6l-8.2-1.5l-4.2-3.3l-4-3.2l-8.2-5l0,0l-8.2-3.8l-8.2-2.6l-8.2-1.5
						l-8.2,0.2l-8.2-0.6l-8.2,0.6l-8.2,1.8l-8.2,3.2l-4.4,2.6l-3.8,2.3l-5.4,6l-2.8,3.3l-5.6,5l-2.6,2.4l-8.2,4.7l-7.8,1.1l-0.4,0.1
						l-0.2-0.1l-8-2.7l-4.8-5.5l-3.4-3.9l-4.9-4.4l-3.4-3.1l-7.4-5.1l-0.8-0.6l-8.2-4.1l-8.2-2.4h-8.2l-8.2-0.8l-8.2,0.7l-8.2,2.4
						l-8.2,4.5l-0.4,0.4l-7.8,6.7l-0.9,1.5l-4.8,8.2l-2.5,4.6l-2.5,3.6l-5,8.2l-0.7,1.5l-5,6.8l-3.3,5.1l-4.1,3.1l-4.1,3.1l-8.2-1.3
						l-1-1.8l-4.5-8.2l-2.7-5.3l-1.8-2.9l-4.5-8.2l-2-4.8l-1.8-3.5l-3.1-8.2l-2.6-8.2l-0.8-3.5l-1.4-4.7l-2.6-8.2l-2.1-8.2l-2.2-5.8
						l-1.4-2.4l-6.8-7.4l-4-0.8l-4.3-0.6l-8.2-1.5l-8.2,1.8L292,470l-7.8,6.8l-1,1.4l-3.5,8.2l-2.4,8.2l-1.4,4.3l-1,4l-1.7,8.2
						l-2.3,8.2l-2.4,8.2l-0.9,2.4l-1.2,5.8l-2.1,8.2l-2.4,8.2l-2.6,7.8l-0.2,0.5l-4.7,8.2l-3.3,6l-2.7,2.2l-5.5,5l-8.2-2.6l-1.4-2.5
						l-4.6-8.2l-2.2-4.6l-0.8-3.7l-1.6-8.2l-1.4-8.2l-1.4-8.2l-1.6-8.2l-1.5-6.5l-0.5-1.8l-3-8.2l-3.7-8.2l-1-1.9l-4.7-6.3l-3.5-4.5
						l-4.5-3.8l-3.8-2.9l-8.2-3.6l-8.2-1.1h-8.2l-8.2,4.8l-2.3,2.8l-5.9,7.6l-0.3,0.7l-4.1,8.2l-3.4,8.2l-0.3,0.8l-1.9,7.4l-1.7,8.2
						l-1.3,8.2l-1,8.2l-0.9,8.2l-1,8.2l-0.3,3l-0.4,5.2l-0.7,8.2l-0.7,8.2l-0.4,8.2l-0.4,8.2l-0.4,8.2l-0.4,8.2l-0.3,8.2l-0.1,8.2
						l0.2,8.2l0.5,8.2l0.8,8.2l1.2,8.2l1.1,5.3l0.9,3l2.8,8.2l3.4,8.2l1.2,2.4l4.2,5.8l4,4.6l5,3.6l3.2,2.2l8.2,2.6h8.2l8.2-0.5
						l8.2-1.8l6.2-2.4l2-0.9l8.2-5.3l2.2-2l6-6.6l1.1-1.7l4.6-8.2l2.5-5.3l3.4-2.9l4.8-4.5l8.2-0.5l5.7,5l2.6,2.1l3.8,6.2l4.5,6.5
						l0.8,1.7l4.1,8.2l3.4,5.8l2.4,2.4l5.8,5.4l4.4,2.9l3.8,2.4l8.2,3.1l8.2,1.1l8.2-0.8l8.2-0.3l8.2-3.1l3.8-2.3l4.4-2.8l6.1-5.4
						l2.2-2l5.1-6.2l3.1-3.9l2.8-4.3l5.4-8.2l0,0l8.2-3.4l8.2,1.8l2.1,1.6l6.2,4l4.3,4.3l4,3.5l4.1,4.8l4.1,4.2l7.5,4l0.8,0.4
						l8.2,2.8l8.2,1.5l8.2,0.5l8.2-0.6l8.2,0.1l8.2-1.6l8.2-2.7l0.9-0.4l7.4-3.5l7.4-4.7l0.9-0.6l8.2-7l2.5-0.7l5.7-1.6l8.2,0.9
						l1.4,0.7l6.9,3l7.2,5.2l1,0.7l8.2,7l1.3,0.6l6.9,2.9l8.2,2.3l8.2,1.3l8.2,0.4l8.2-0.4l8.2-0.3l8.2-1.7l8.2-2.8l3.8-1.8l4.4-2.2
						l8.2-5.6l0.5-0.4l7.8-7.1l2.5-1.1l5.8-2.6l8.2-1.2l8.2,1.3l6.2,2.5l2.1,0.8l8.2,4.5l8.2,2.1l5,0.8l3.2,0.5l8.2,0.7l8.2,0.2
						l8.2-0.4l8.2,0.1l8.2-1h0.2l8-1.7l8.2-2.6l8.2-3.7l0.2-0.1l8-5.1l8.2-2l8.2,0.1l8.2,2.2l8.2,3.9l1.3,0.9l6.9,4.3l8.2,2.7
						l5.8,1.3l2.4,0.5l8.2,1.1l8.2,0.3l8.2-0.3l8.2-0.2l8.2-1.3h0.1l8.2-2.1l8.2-3.1l5.7-3l2.5-1.3l8.2-5.8l3.2-1.1l5-1.6l8.2-0.6
						l8.2,1.4l2.2,0.9l6,2.3l8.2,4.5l4.1,1.4l4.2,1.4l8.2,2l8.2,1.2l8.2,0.6h8.2l8.2,0.3l8.2-0.6l8.2-1.2l8.2-2l4.6-1.6l3.6-1.2
						l8.2-3.9l8.2-1.7l8.2,0.2l8.2,2.2l8.2,4l0.6,0.4l7.7,5l7.8,3.2l0.4,0.2l8.2,2.4l8.2,1.5l8.2,0.7l8.2-0.1h8.2l8.2-0.9l8.2-1.7
						l6.1-1.9l2.1-0.7l8.2-3.6l6.8-4l1.5-0.9l8.2-2.6l8.2-0.6l8.2,1.4l7.2,2.8l1,0.4l8.2,4.4l8.2,2.7l3.5,0.8l4.8,1l8.2,1.1l8.2,0.4
						l8.2-0.2l8.2-0.1l8.2-0.9l6.6-1.4l1.6-0.3l8.2-2.7l8.2-3.9l2.1-1.3l6.1-4.3l8.2-3.8l0.5-0.1l7.7-1.8l8.2,0.4l4.2,1.4l4,1.3
						l8.2,4.7l6.1,2.2l2.1,0.7l8.2,2l8.2,1.2l8.2,0.5l8.2-0.3l8.2,0.2l8.2-0.8l8.2-1.7l5.6-1.8l2.7-0.9l8.2-4l4.7-3.3l3.5-2.7
						l8.2-3.1l8.2-0.2l8.2,3.1l3.7,2.9l4.6,3.4l4.6,4.9l3.7,3.7l6.6,4.5l1.6,1.1l8.2,3.9l8.2,2.5l6.2,0.9l2.1,0.3l8.2-0.1l8.2,0.1
						l1.6-0.2l6.6-1l8.2-2.3l8.2-3.6l2.3-1.4l5.9-4l4.6-4.2l3.6-3.6l8.2-3.9l8.2-0.2l8.2,3.9l4,3.8l4.2,3.7l3.7,4.6l4.5,4.9l4.7,3.3
						l3.5,2.3l8.2,3.8l7.2,2.1l1.1,0.3l8.2,1.1l8.2-0.2l6.5-1.2L1631.4,716.8z"/>
				</g>
				<g class="st11">
					<path class="st13" d="M197.3,692.1l3.6-2.4l5.9-5.9l2.3-2.7l3.5-5.5l4.6-8.2l0.1-0.3l2.7-8l2-8.2l1.2-8.2l0.4-8.2l-0.1-8.2
						l-0.6-8.2l-1-8.2l-1.2-8.2l-1.3-8.2l-1.4-8.2l-0.7-3.1l-1.4-5.2l-2.2-8.2l-2-8.2l-2-8.2l-0.6-2.8l-1.5-5.4l-2.4-8.2l-2.9-8.2
						l-1.5-3.5l-3-4.8l-5.2-6.5l-2.4-1.8l-5.8-3.6l-8.2-1.8h-8.3l-7.5,5.3l-0.8,0.6l-4.5,7.6l-3.7,8l-0.1,0.2l-2,8.2l-1.5,8.2
						l-1.4,8.2l-1.5,8.2l-1.4,8.2l-0.4,2.3l-0.8,5.9l-1.1,8.2l-0.7,8.2l-0.7,8.2l-0.7,8.2l-0.7,8.2l-0.4,8.2l-0.1,8.2l0.3,8.2
						l0.8,8.2l1.4,8.2l2,8.2l0.8,2.3l2.6,5.9l4.1,8.2l1.5,2.5l5.3,5.8l2.9,2.5l8.2,3.4h8.2l8.2-0.8l8.2-2.6L197.3,692.1L197.3,692.1
						z M1637.7,700.3l3.6-2.4l5.2-5.8l3-3.9l2.4-4.4l3.9-8.2l1.9-4.5l1.2-3.7l2.2-8.2l1.7-8.2l1.3-8.2l1-8.2l0.7-8.1v-0.2l0.2-8.2
						l-0.1-8.2l-0.1-3.1l-0.2-5.2l-0.8-8.2l-0.9-8.2l-1.3-8.2l-1.5-8.2l-1.7-8.2l-1.9-7.8l-0.1-0.4l-2.9-8.2l-3.3-8.2l-1.8-4.5
						l-2.2-3.7l-5.3-8.2l-0.7-1l-8.2-7l-0.8-0.2l-7.5-2.2l-8.2-0.6l-8.2,1.1l-5.1,1.8l-3.1,1l-8.2,4.3l-3.9,2.9l-4.3,3.3l-4.1,4.9
						l-4.2,5.4l-4.2,2.8l-4,2.9l-8.2,0.2l-4.8-3.2l-3.4-1.9l-6-6.3l-2.2-2l-4.4-6.3l-3.8-4.6l-4-3.6l-4.2-3.5l-8.2-4.7l0,0l-8.2-2.9
						l-8.2-1.6l-8.2-0.1l-8.2-0.3l-8.2,0.8l-8.2,1.9l-5.7,2.2l-2.6,1l-8.2,4.7l-2.8,2.5l-5.4,5.1l-5.1,3.2l-3.2,2.1l-8.2,2.2
						l-8.2-1.3l-5.5-3l-2.7-1.4l-7.3-6.9l-0.9-0.8l-8.2-5.5l-4.1-1.9l-4.2-2l-8.2-2.7l-8.2-1.4l-8.2-0.1l-8.2-0.1l-8.2,1.1l-8.2,2.5
						l-5.6,2.7l-2.7,1.2l-8.2,5.3l-1.8,1.7l-6.4,6.5l-2.3,1.7l-5.9,4.6l-8.2,3.6h-0.2l-8.1,0.6l-2.1-0.6l-6.2-1.7l-8.2-5.5l-2-1
						l-6.2-2.9l-8.2-2.7l-8.2-1.7l-8.2-0.8l-8.2,0.2l-8.2-0.2l-8.2,0.8l-8.2,1.8l-8.2,2.9l-5.2,2.6l-3,1.5l-8.2,6.6l-0.2,0.1
						l-8.1,4.5l-8.2,2.2l-8.2-0.4l-8.2-2.8l-5.1-3.5l-3.1-2l-8.2-3.9l-7.2-2.3l-1-0.3l-8.2-1.8l-8.2-1l-8.2,0.1l-8.2-0.2l-8.2,0.5
						l-8.2,1.4l-5,1.4l-3.2,0.8l-8.2,3.1l-7.1,4.3l-1.2,0.7l-8.2,3.2l-8.2,1.1l-8.2-1.2l-8.2-3.2l-1-0.7l-7.3-4.9l-6.8-3.3l-1.4-0.7
						l-8.2-2.9l-8.2-1.9l-8.2-1l-8.2,0.1h-8.2l-8.2,0.8l-8.2,1.6l-8.2,2.5l-3.4,1.5l-4.8,2.1l-8.2,5.8l-0.6,0.3l-7.7,4.1l-8.2,2.5
						l-8.2,0.2l-8.2-2.3l-6-4.6l-2.2-1.7l-8.2-4.8l-4.1-1.8l-4.1-1.9l-8.2-2.6l-8.2-1.6l-8.2-0.2l-8.2-0.5l-8.2,0.3l-8.2,1.2
						l-8.2,2.1l-7.8,3.1l-0.4,0.2l-8.2,6.1l-3.6,1.9l-4.6,2.5l-8.2,2.2l-8.2-0.5l-8.2-3.3l-0.8-0.8l-7.4-7l-1.7-1.2l-6.5-4.7
						l-6.6-3.5l-1.6-0.9l-8.2-3.1l-8.2-1.8l-8.2-0.2l-8.2-0.5l-8.2,0.7l-8.2,1.8l-8.2,3.2l-3.5,0.7l-7,4l-4.1,4.3l-4.1,4.4l-4.5,3.8
						l-3.8,3.4l-8.1,4.8l-0.2,0.1l-8.2,2l-8.2-1.5l-0.7-0.6l-7.6-6.4l-2.9-1.9l-5.3-3.4l-8.2-3.8l-3.4-1l-4.9-1.6l-8.2-1.5l-8.2,0.2
						l-8.2-0.6l-8.2,0.7l-8.2,2l-1.7,0.7l-6.5,2.8l-8.2,5.3l-0.2,0.2l-6.7,8.2l-1.4,1.9l-6.2,6.4l-2,2.5l-7.4,5.7l-0.9,0.8l-8.2,2.4
						l-7.9-3.2l-0.3-0.1l-5.8-8.1l-2.4-2.9l-5.7-5.3l-2.5-2.3l-8.2-5.5l-0.9-0.4l-7.4-3.5l-8.2-2.3l-8.2,0.1l-8.2-0.8l-8.2,1
						l-8.2,2.9l-4.3,2.7l-3.9,2.5l-6,5.8l-2.3,2.4l-3.1,5.8l-3.5,8.2l-1.6,4.5l-1.8,3.7l-3.6,8.2l-2.9,6.7l-1,1.5l-4.9,8.2l-2.4,4.8
						l-3.7,3.4l-4.5,5.1l-8.2-1.7l-1.4-3.4l-4.1-8.2l-2.8-4.7l-2.6-3.5l-5.6-7l-1.3-1.2l-6.9-6.8l-2.2-1.5l-6-4.6l-8.2-3.5l-8.2,1.3
						l-5.9-1.4l-2.3-0.7l-3.9,0.7l-4.3,0.6l-8.2,4.5l-3.1,3.1l-5.1,4.4l-2.9,3.8l-5.3,6.8l-0.6,1.4l-3.2,8.2l-2.4,8.2l-2,8.2v0.1
						l-2.1,8.2l-1.7,8.2l-0.9,8.2v8.2l0.7,8.2l1.8,8.2l2.1,5.8l0.6,2.5l2.6,8.2l3.2,8.2l1.8,4.2l3.1,4l5.1,6.1l2.6,2.1l5.7,4.6
						l7.5,3.6l0.7,0.3l8.2,1.2l8.2-1.1h8.2l1-0.4l7.3-3.3l6.7-5l1.5-1.1l7.2-7.2l1-1.1l5.4-7.2l2.9-4.1l2.3-4.1l4-8.2l2-5.1l7-3.1
						l1.2-0.8l0.7,0.8l7.6,5.6l1.5,2.7l6.4,8.2l0.4,0.4l5.2,7.8l3.1,3.6l3,4.6l5.3,6.6l2.4,1.6l5.9,3.7l8.2,3.3l5.7,1.3l2.5,0.6
						l8.2,0.6l8.2-0.6l8.2,0.1l3.4-0.7l4.8-0.9l8.2-2.8l8.2-4.1l0.6-0.4l7.7-5.5l3-2.8l5.2-5.6l8.2-2.6l0,0l0,0l8.2,1.3l8.2,4.9
						l2.1,2.1l6.1,5l2.9,3.2l5.3,5.2l5.9,3.1l2.4,1.2l8.2,2.7l8.2,1.5l8.2,0.5l8.2-0.4l8.2-0.3l8.2-1.8l8.2-3l0.7-0.4l7.5-4.1
						l5.6-4.1l2.6-2l6.2-6.2l2-2.3l8.2-3.9l8.2-0.8l8.2,2.1l8.2,4.3l0.8,0.7l7.4,4.9l8.2,2.6l3.6,0.8l4.6,0.9l8.2,0.9l8.2,0.2
						l8.2-0.4l8.2,0.1l8.2-1.1l2.2-0.5l6-1.5l8.2-3l7.4-3.8l0.9-0.5l8.2-5.9l7-1.9l1.2-0.3l8.2,0.2l0.3,0.1l7.9,2.4l8.2,4.4l1.9,1.4
						l6.3,4.3l8.2,3l3.8,0.9l4.4,1.1l8.2,1.2l8.2,0.4l8.2-0.4l8.2-0.2l8.2-1.5l1.9-0.5l6.3-1.8l8.2-3.4l5.4-3l2.8-1.6l8.2-6.2
						l1.1-0.4l7.2-2.5l8.2-0.6l8.2,1.7l2.9,1.3l5.3,2.3l8.2,5l2.5,1l5.7,2.1l8.2,2.1l8.2,1.3l8.2,0.6h8.2l8.2,0.3l8.2-0.7l8.2-1.4
						l8.2-2.2l5.8-2.2l2.5-1l8.2-4.4l8.2-2.1h8.2l8.2,2.2l8.2,4.3l1.2,0.9l7,4.9l7.4,3.3l0.8,0.4l8.2,2.6l8.2,1.6l8.2,0.7l8.2-0.1
						h8.2l8.2-1l8.2-1.8l6.6-2.2l1.7-0.6l8.2-3.9l5.8-3.7l2.5-1.7l8.2-2.9l8.2-0.6l8.2,1.6l8.1,3.6h0.1l8.2,5.1l8.2,3l0.3,0.1l7.9,2
						l8.2,1.2l8.2,0.5l8.2-0.2l8.2-0.1l8.2-1.1l8.2-2l1.1-0.4l7.1-2.7l8.2-4.5l1.4-1l6.8-5.5l5.2-2.7l3-1.8l8.2-2.5l8.2,0.2l8.2,3
						l1.3,0.9l6.9,4.2l8.2,3.1l3.2,0.8l5.1,1.3l8.2,1.3l8.2,0.5l8.2-0.3l8.2,0.1l8.2-1l7.6-1.9l0.7-0.2l8.2-3.3l8.1-4.8l0.2-0.1
						l8.2-7.9l0.4-0.2l7.8-4.7l8.2-1.3l8.2,3.1l3.1,2.9l5.2,4.5l2.8,3.8l5.4,6.4l2.3,1.8l5.9,4.3l7.7,4l0.5,0.2l8.2,2.7l8.2,1.2
						l8.2-0.2l8.2,0.1l8.2-1.4l7.6-2.5l0.7-0.2l8.2-4.4l4.7-3.6l3.5-3.2l4.2-5.1l4-5.6l4-2.6l4.2-3.2l8.2-0.6l6,3.9l2.3,1.3l6.1,7
						l2.1,2.2l3.9,6l4.3,5.8l2.8,2.5l5.5,4.5l6.6,3.8l1.7,0.8l8.2,2.7l8.2,1.2l8.2-0.2l8.2-1.7L1637.7,700.3L1637.7,700.3z"/>
				</g>
				<g class="st11">
					<path class="st14" d="M187.2,675.6l5.4-2.8l6.1-5.5l2.1-2.4l3.5-5.8l3.4-8.2l1.4-5.5l0.5-2.8l0.6-8.2l-0.2-8.2l-0.8-8.2v-0.2
						l-1.7-8l-1.9-8.2l-2-8.2l-2-8.2l-0.7-2L198,577l-3.8-8.2l-1.6-3.6l-3.2-4.6l-5.1-7.3l-1.7-0.9l-6.5-3.8h-8.2l-2.1,3.8l-4.9,8.2
						l-1.2,2.1l-1.7,6.1l-2.4,8.2l-2.4,8.2l-1.6,8.2l-0.2,1l-0.9,7.2l-1.1,8.2l-1,8.2l-0.6,8.2l-0.2,8.2l0.4,8.2l1.2,8.2l2,8.2
						l0.2,0.6l4.2,7.7l4.1,5.6l3.9,2.6l4.3,2.6h8.2l8.2-1.3L187.2,675.6L187.2,675.6z M300.2,675.6l7.7-1.5l8.2,0.6l8.2-3.8l4.3-3.4
						l3.9-3.6l3.5-4.6l4.7-7.6l0.3-0.6l2.6-8.2l1.4-8.2l0.6-8.2l-0.7-8.5l-2.1-8.2l-2.1-5.9l-1.1-2.4l-5.9-8.2l-1.2-1.3l-8.2-6.5
						l-1-0.4l-7.2-2.6l-8.2,1.1l-8.2-1.6l-8.2,1.3l-3.5,1.8l-4.8,3l-4.6,5.2l-3.6,5.1l-1.6,3.2l-2.7,8.2l-2.2,8.2l-1.1,8.2l0.1,8.2
						l0.9,8.2l2.3,8.2l3.8,8.2l0.5,0.8l6.3,7.4l2,2l8.2,4.8l7.6,1.5l0.6,0.1H300.2L300.2,675.6z M592.5,692.1l3.4-1.4l8.2-4.9
						l2.3-1.9l5.9-5.2l2.7-3l5.6-7l2.4-1.2l5.8-3.2l8.2-0.2l8,3.4l0.2,0.1l8.2,5.5l2.9,2.6l5.4,4.2l8.2,3.2l3.2,0.8l5,1.2l8.2,1.1
						l8.2,0.3l8.2-0.5l8.2,0.1l8.2-1.3l3.4-0.9l4.8-1.3l8.2-3.4l6.2-3.5l2.1-1.3l8.2-6.7l1-0.3l7.2-2.2l8.2,0.4l4.7,1.8l3.6,1.3
						l8.2,5.1l2.3,1.9l6,4.5l8.2,3.3l1.7,0.5l6.5,1.7l8.2,1.3l8.2,0.4l8.2-0.4l8.2-0.3l8.2-1.5l4-1.2l4.3-1.3l8.2-3.6l5.5-3.3
						l2.7-1.7l7.9-6.5l0.3-0.3l8.2-3.1l8.2-0.5l8.2,2.1l3.4,1.8l4.8,2.4l8.2,5.6l0.6,0.3l7.6,3.1l8.2,2.3l8.2,1.4l8.2,0.7h8.2
						l8.2,0.3l8.2-0.8l8.2-1.5l8.2-2.4l7.3-3.1l1-0.4l8.2-5l8.2-2.5l8.2-0.2l8.2,2.3l8.2,4.6l1.6,1.3l6.6,5l6.7,3.2l1.5,0.7l8.2,2.7
						l8.2,1.7l8.2,0.8l8.2-0.2h8.2l8.2-1.1l8.2-2l7.1-2.6l1.1-0.4l8.2-4.3l4.9-3.5l3.3-2.6l8.2-3.2l8.2-0.7l8.2,1.9l8.2,4.3l0.4,0.3
						l7.8,5.4l6.8,2.9l1.4,0.6l8.2,2.3l8.2,1.4l8.2,0.6l8.2-0.2l8.2-0.1l8.2-1.2l8.2-2.2l2.6-1l5.7-2.4l8.2-5.1l0.9-0.7l7.4-7.1
						l1.8-1.1l6.4-4.5l8.2-3.2l8.2,0.1l8.2,3.5l5.2,4.1l3,2.1l8.2,3.6l8.2,2.5h0.1l8.1,1.4l8.2,0.5l8.2-0.4l8.2,0.1l8.2-1.2l1.1-0.3
						l7.1-2.2l8.2-4.2l2.6-1.8l5.7-4.8l3-3.4l5.2-7.1l1.5-1.2l6.7-6l6.3-2.2l1.9-0.8l2.1,0.8l6.1,2.1l5.6,6.1l2.6,2.6l3.4,5.6l4.8,7
						l1.2,1.2l7,6.3l3,2l5.2,3.1l8.2,3.1l8.2,1.4l8.2-0.3l8.2,0.1l8.2-1.9l8.2-3.6l2.7-1.8l5.5-4.2l3.8-4l4.4-5.4l1.8-2.8l4.3-8.2
						l2.1-5l2.8-3.2l5.4-7.5l2.7-0.7l5.6-1.8l1.6,1.8l6.6,6.7l0.6,1.5l4.3,8.2l3.3,5.3l1.2,3l4.2,8.2l2.8,4.6l3.4,3.7l4.8,4.8
						l4.9,3.5l3.4,2.2l8.2,3.3l8.2,1.5l8.2-0.3l8.2-2.2l5.7-4.4l2.5-2.1l4.3-6.1l3.9-6l1-2.2l3.1-8.2l2.4-8.2l1.7-7.6l0.1-0.6
						l1.1-8.2l0.8-8.2l0.2-8.2l-0.1-8.2l-0.4-8.2l-0.8-8.2l-1-7.7l-0.1-0.6l-1.8-8.2l-2-8.2l-2.3-8.2l-2-5.8l-1.2-2.4l-4.4-8.2
						l-2.6-4.4l-3.8-3.8l-4.4-4.6l-8.2-2.8l-8.2-0.8h-0.1l0,0l-8.2,1l-8.2,3l-7.1,4.2l-1.1,0.7l-8.2,7l-0.4,0.6l-5.3,8.2l-2.5,4.6
						l-3.6,3.6l-4.7,6.2l-8.2,1.4l-6.6-7.6l-1.7-1.6l-3.4-6.7l-4.9-7.7l-0.2-0.5l-3.9-8.2l-4.1-6.7l-1.3-1.6l-6.9-7.2l-1.5-1.1
						l-6.8-4.5l-8.2-3.5l-1.3-0.3l-6.9-1.6l-8.2-0.1l-8.2-0.3l-8.2,0.9l-4.4,1.1l-3.8,1l-8.2,3.5l-6.1,3.7l-2.2,1.5l-6.6,6.8l-1.7,2
						l-8.2,6.2l-0.1,0.1l-8.2,2.7l-8.2-2.1l-0.9-0.7l-7.3-4.8l-2.9-3.4l-5.4-5.5l-3.5-2.7l-4.8-3.4l-8.2-4.2l-1.7-0.6l-6.5-2.2
						l-8.2-1.5l-8.2-0.1l-8.2-0.2l-8.2,1.1l-8.2,2.5l-0.6,0.3l-7.7,3.6l-6.8,4.6l-1.5,1l-6.7,7.2l-1.5,1.8l-7.7,6.5l-0.5,0.5
						l-8.2,3.8l-8.2,0.2l-8.2-3l-1.9-1.6l-6.4-4.9l-5.9-3.3l-2.3-1.2l-8.2-3.1l-8.2-1.9l-8.2-1l-8.2,0.2l-8.2-0.2l-8.2,0.8l-8.2,1.9
						l-8.2,3.1l-2.6,1.4l-5.7,3.1l-6.1,5.2l-2.1,1.9l-8.2,4.9l-5.3,1.5l-2.9,0.8l-8.2-0.7l-0.4-0.2l-7.9-3.2l-6.5-5.1l-1.7-1.2
						l-8.2-4.3l-7.4-2.7l-0.8-0.3l-8.2-2l-8.2-1l-8.2,0.1l-8.2-0.2l-8.2,0.6l-8.2,1.4l-5.4,1.5l-2.8,0.8l-8.2,3.3l-6.4,4.1l-1.8,1.3
						l-8.2,3.6l-8.2,1.2l-8.2-1.4l-8.2-3.7l-1.2-1l-7-5.1l-5.9-3.1l-2.3-1.2l-8.2-3.1l-8.2-2l-8.2-1.1l-8.2,0.1h-8.2l-8.2,0.8
						l-8.2,1.7l-8.2,2.7l-4.3,2l-4,1.9l-8.2,6.3l0,0l-8.2,5.1l-8.2,3l-3.2,0.1l-5,0.2l-0.7-0.2l-7.6-2.2l-7.4-6l-0.9-0.7l-8.2-5
						l-5.7-2.6l-2.5-1.1l-8.2-2.6l-8.2-1.6l-8.2-0.2l-8.2-0.5l-8.2,0.4l-8.2,1.3l-8.2,2.3l-5.1,2.1l-3.2,1.3l-8.2,6.7l-0.3,0.2
						l-7.9,4.8l-8.2,2.6l-8.2-0.3l-8.2-3.4l-3.6-3.7l-4.7-4.5l-4.9-3.7l-3.4-2.5l-8.2-4.5l-3.3-1.2l-5-1.9l-8.2-1.9l-8.2-0.2
						l-8.2-0.5l-8.2,0.7l-8.2,2l-4.2,1.7l-4,1.7l-8.2,5l-1.4,1.5l-6.8,7.9l-0.3,0.3l-7.9,7.9l-0.5,0.3l-7.7,5.7l-8.1,2.5h-0.1h-0.2
						l-8-1.5l-6.6-6.7l-1.6-1.5l-8.2-5.8l-2-1l-6.2-3.1l-8.2-2.8l-8.2-1.5l-8.2,0.2l-8.2-0.6l-8.2,0.8l-8.2,2.2l-8.2,3.9l-1.2,0.8
						l-7,5.2l-2.2,3l-5.2,8.2l-0.8,1.5l-4.7,6.7l-3.5,6l-2,2.2l-6.2,7.8l-0.9,0.4l-7.3,3.6l-7.5-3.6l-0.7-0.3l-4.2-7.9l-4-7
						l-0.9-1.2l-6.5-8.2l-0.8-0.9l-8.2-6.9l-0.8-0.4l-7.5-3.7l-8.2-2.3l-8.2,0.1l-8.2-0.8l-8.2,1.2l-8.2,3.5l-2.8,2l-5.4,4.8
						l-2.7,3.5l-5.4,8.2l-0.1,0.2l-2.9,8l-2.9,8.2l-2.5,7.9l-0.1,0.4l-3,8.2l-2.4,8.2l-1.6,8.2l-0.7,8.2l0.2,8.2l1.1,8.2l1.5,8.2
						l2.2,8.2l3,7.3l0.3,0.9l3.3,8.2l4.5,8.2l0.1,0.1l8.2,6.8l2.4,1.3l5.9,2.8l8.2,2.2l8.2,0.8l8.2-0.6l8.2,0.1l8.2-1.8l8.2-3.1
						l0.9-0.5l7.3-4.5l4.5-3.8l3.7-3.7l3.5-4.5l4.7-7.7l1.1-0.5l7.2-4.1l8.2,2.6l1.3,1.5l6.9,6.4l1.2,1.8l7,8.2l0.1,0.1l6.2,8.2
						l2,2.2l8.2,5l2.5,1l5.8,2.2l8.2,1.8l8.2,0.6l8.2-0.5l8.2-0.2l8.2-2L592.5,692.1L592.5,692.1z"/>
				</g>
				<g class="st15">
					<path class="st16" d="M179.1,642.7l5.2-8.2l-2.6-8.2l-5.5-5.6h-8.3l-1.4,5.6l-0.7,8.2l1.4,8.2l0.8,1.6h8.2L179.1,642.7
						L179.1,642.7z M1637.7,667.4l3.6-4l2.3-4.2l3.6-8.2l2.3-6.8l0.3-1.4l1.6-8.2l1.1-8.2l0.3-8.2l-0.2-8.2l-0.5-8.2l-1.2-8.2
						l-1.4-8.2l-0.1-0.4l-2.5-7.8l-3.1-8.2l-2.7-6.3l-1.3-2l-6.7-8.2l-0.2-0.2l-8.2-3.1l-8.2-1l-8.2,1.1l-7.9,3.2l-0.3,0.1l-8.2,6.2
						l-1.8,2l-6,8.2l-0.4,0.7l-2.9,7.5l-2.4,8.2l-1.6,8.2l-1.1,8.2l-0.1,8.2l0.4,8.2l1,8.2l1.8,8.2l2.3,8.2l2.4,6.7l0.8,1.5l5.3,8.2
						l2.2,2.8l6,5.5l2.2,1.7l8.2,3.9l8.2,1.7l8.2-0.5l8.2-2.6L1637.7,667.4L1637.7,667.4z M452,675.6l4-1.2l8.2-4.2l3.9-2.9l4.4-4.1
						l3.3-4.1l5-8.1l0.1-0.1l3-8.2l2.2-8.2l1.7-8.2l0.6-8.2l-0.5-8.2l-1.7-8.2l-2.8-8.2l-2.6-6.2l-1.1-2l-5.1-8.2l-2-2.9l-4.9-5.3
						l-3.3-3.4l-6.8-4.8l-1.5-1l-8.2-3.2l-8.2,0.2l-8.2-1.1l-8.2,2l-4.8,3l-3.4,2.3l-5.3,6l-2.9,3.3l-3,4.9l-4.6,8.2l-0.7,1.3
						l-2,6.9l-2,8.2l-1.3,8.2l-0.5,8.2l0.2,8.2l1,8.2l1.3,8.2l1.9,8.2l1.5,4.5l2.1,3.7l6.2,8.1l0.1,0.1l8.1,5.7l6.3,2.5l1.9,0.6
						l8.2,1l8.2-0.7l8.2,0.1L452,675.6L452,675.6z M587.6,683.8L587.6,683.8l8.3-4l6.2-4.2l2.1-1.6l6.5-6.6l1.7-2l4.2-6.2l4-6.8
						l2.6-1.5l5.6-3.4l8.2,1l3.2,2.4l5.1,3.1l4.9,5.1l3.3,2.7l4.9,5.5l3.3,3.1l8.2,4l3.9,1.2l4.3,1.2l8.2,1.3l8.2,0.4l8.2-0.5
						l8.2,0.1l8.2-1.4l3.6-1.1l4.6-1.5l8.2-3.8l4.6-3l3.6-2.5l6.2-5.7l2-2.2l8.2-2.9l8.2,0.7l8.2,4l0.6,0.5l7.7,5.6l2.7,2.6l5.5,4.7
						l8,3.6l0.3,0.1l8.2,2.4l8.2,1.4l8.2,0.5l8.2-0.4l8.2-0.3l8.2-1.6l6.2-2l2-0.7l8.2-3.9l5.6-3.6l2.7-1.9l6.8-6.3l1.4-1.5l8.2-3.5
						l8.2-0.3l8.2,2.7l4,2.6l4.2,2.4l7.6,5.8l0.7,0.5l8.2,3.8l8.2,2.6l7.3,1.4l0.9,0.2l8.2,0.8h8.2l8.2,0.3l8.2-0.9l1.5-0.3l6.7-1.4
						l8.2-2.7l8.2-4l0.2-0.1l8-5.7l6.9-2.5l1.3-0.5l8.2-0.6l3.6,1.1l4.6,1.3l8.2,5l2.1,1.9l6.2,5l6.1,3.2l2.1,1.1l8.2,2.9l8.2,1.8
						l8.2,0.8l8.2-0.2h8.2l8.2-1.2l8.2-2.2l7.6-3.1l0.6-0.3l8.2-4.8l3.9-3.1l4.3-3.9l8.2-3.8l4.5-0.5l3.7-0.4l1.3,0.4l6.9,2l8.2,5.1
						l1.3,1.2l7,5.5l5.5,2.7l2.7,1.2l8.2,2.6l8.2,1.5l8.2,0.6l8.2-0.2l8.2-0.1l8.2-1.4l8.2-2.5l3.8-1.7l4.5-2.3l8.1-5.9l0.1-0.1
						l7.1-8.1l1.1-1.5l7.8-6.7l0.4-0.4l8.2-4.3h8.2l8.2,4.4l0.3,0.3l8,7.2l2,1.1l6.3,3.2l8.2,2.9l8.2,1.7l6.7,0.5l1.6,0.1l1.8-0.1
						l6.4-0.4l8.2,0.1l8.2-1.7l8.2-3.3l4.7-2.9l3.5-2.4l5.9-5.8l2.3-2.7l3.6-5.5l4.4-8.2l0.2-0.5l6.1-7.7l2.1-3.5l6.9-4.8l1.3-1.2
						l3.1,1.2l5.1,1.6l4.8,6.6l3.5,4.3l1.8,3.9l4.1,8.2l2.3,4.2l3.3,4l4.9,5.3l3.7,2.9l4.6,3.3l8.2,3.7l6.1,1.2l2.1,0.4l6.4-0.4
						l1.8-0.1l8.2,0.1l8.2-2.5l8.2-4.9l0.9-0.8l7.4-7.6l0.5-0.7l4.9-8.2l2.9-5.8l0.9-2.4l2.7-8.2l2.2-8.2l1.6-8.2l0.8-6.5l0.4-1.7
						l0.2-8.2l-0.5-8.2v-0.1l-0.8-8.1l-1.3-8.2l-1.9-8.2l-2.5-8.2l-1.9-4.7l-1.8-3.5l-5.3-8.2l-1.2-1.4l-7.8-6.8l-0.4-0.3l-8.2-4.1
						l-8.2-2.2l-8.2-0.2l-8.2-0.4l-8.2,1l-8.2,2.4l-8.1,3.9l-0.1,0.1l-8.2,6.3l-1.6,1.8l-5.6,8.2l-1.1,2.1l-5.4,6.1l-2.9,4.3
						l-8.2,3.6l-8.2-4.6l-2.2-3.2l-6-6.1l-1.2-2.1l-5.8-8.2l-1.3-1.5l-7.5-6.7l-0.7-0.6l-8.2-4.7l-7.9-2.9l-0.3-0.1l-8.2-1.6
						l-8.2-0.1l-8.2-0.2l-8.2,1.2l-2.6,0.8l-5.6,1.8l-8.2,4.2l-3.1,2.2l-5.1,4l-3.7,4.3l-4.6,5.9l-2.6,2.3l-5.7,5.5l-5.8,2.7
						l-2.5,1.3l-8.2-0.5l-1.3-0.8l-6.9-3.3l-5.2-4.9l-3.1-2.6l-8.2-5.1l-1.2-0.5l-7.1-3l-8.2-2.2l-8.2-1.1l-8.2,0.1l-8.2-0.2
						l-8.2,0.9l-8.2,2l-8.2,3.3l-0.4,0.2l-7.8,4.4l-4.3,3.8l-3.9,3.7l-7,4.5l-1.3,0.9l-8.2,2.6l-8.2-0.8l-5.3-2.7l-2.9-1.3l-7.8-6.9
						l-0.5-0.4l-8.2-5l-7-2.9l-1.3-0.5l-8.2-2.1l-8.2-1.1h-8.2l-8.2-0.3l-8.2,0.6l-8.2,1.5l-6.5,1.9l-1.7,0.5l-8.2,3.7l-5.5,4
						l-2.7,2.2l-8.2,4.1l-8.2,1.3l-8.2-1.7l-8.2-4.3l-1.8-1.6l-6.5-5.4l-4.7-2.9l-3.5-2l-8.2-3.3l-8.2-2.1l-6-0.8l-2.2-0.3l-8.2,0.1
						h-8.2l-1.5,0.2l-6.7,0.7l-8.2,1.8l-8.2,2.9l-5.5,2.8l-2.8,1.5l-7.7,6.7l-0.5,0.5l-8.2,5.8l-4.7,1.9l-3.5,1.6l-8.2,0.5l-5.9-2
						l-2.3-0.8l-8.2-7.4l-0.2-0.1l-8-5.2l-6.4-3l-1.8-0.8l-8.2-2.7l-8.2-1.7l-8.2-0.2l-8.2-0.5l-8.2,0.4l-8.2,1.4l-8.2,2.5l-3.6,1.6
						l-4.6,2.1l-6.9,6.1l-1.3,1.3l-8.2,5.9l-2.7,1l-5.5,2.4H760l-5.2-2.4l-3-1.3l-6.1-6.9l-2.2-2.2l-7.5-6l-0.8-0.6l-8.2-4.8
						l-7.3-2.9l-0.9-0.4l-8.2-1.9l-7.7-1.1l-8.2-0.5l-8.2,0.8l-8.2,2.1h-0.1L670,531l-7,4.6l-1.2,0.9l-5.8,7.3l-2.4,3.5l-4.1,4.7
						l-4.1,5.5l-3.1,2.7l-5.1,5.7l-5.7,2.6l-2.6,1.4l-4.8-1.4l-3.5-0.8l-5.3-7.4l-2.9-3.4L607,552l-2.8-2.2l-8.3-4.8l-3-1.2
						l-5.3-1.9l-8.2-1.7l-8.2,0.3l-8.2-0.7l-8.2,0.9l-8.2,2.6l-1,0.5l-7.2,4.3l-4.5,4l-3.7,3.8l-2.4,4.4l-3.8,8.2l-2,5.2l-1.5,3
						l-3.6,8.2l-2.9,8.2l-0.2,0.8l-3.4,7.4l-2.3,8.2l-0.6,8.2l1,8.2l2.7,8.2l2.6,5.3l0.8,2.9l3.3,8.2l4.1,7.5l0.3,0.8l4,8.2l3.9,6
						l2.5,2.2l5.7,4.2l8.1,4h0.1l8.2,2.1l8.2,0.7l8.2-0.6l8.2-0.2L587.6,683.8L587.6,683.8z"/>
				</g>
				<g class="st15">
					<path class="st17" d="M1512.1,642.7l5.8-5.4l2-2.8l5.1-8.2l1.1-2l2.5-6.3l2.6-8.2l1.6-8.2l0.4-8.2l-0.1-8.2l-0.7-8.2l-1.5-8.2
						l-2.4-8.2l-2.4-6.2l-1-2l-5.6-8.2l-1.6-1.8l-8.2-6.3l-0.3-0.2l-7.9-2.7l-8.2-0.3l-8.2-0.5l-8.2,1.2l-6.6,2.3l-1.6,0.7l-8.2,5.7
						l-1.9,1.8l-6.3,7.8l-0.2,0.4l-3.3,8.2l-2.4,8.2l-1.4,8.2l-0.6,8.2l0.1,8.2l0.9,8.2l2,8.2l2.9,8.2l1.9,4.5l2.4,3.8l5.7,8.2v0.1
						l8.2,8l0.3,0.2l7.9,4.4l8.2,1.9l8.2-0.8l8.2,0.1l8.2-3.6L1512.1,642.7L1512.1,642.7z M1632.9,650.9l0.2-0.1l4.7-8.1l3.5-8
						l0.1-0.3l1.7-8.2l0.5-8.2l-0.3-8.2l-0.8-8.2l-1.2-6l-0.8-2.2l-3.4-8.2l-4.1-7.5l-1.2-0.7l-7-3.9l-8.2-1.3l-8.2,1.9l-5.2,3.4
						l-3,2.2l-4.7,6l-3.6,6.6l-0.6,1.6l-2.3,8.2l-0.7,8.2l0.2,8.2l1.2,8.2l2.1,6.5l0.8,1.7l4.8,8.2l2.7,3.7l5.2,4.5l3,2.1l8.2,2.5
						l8.2-0.7L1632.9,650.9L1632.9,650.9z M451.9,659.1l4-2l7.4-6.3l0.8-0.9l4.4-7.3l3.7-8.2l0.1-0.3l2.2-7.9l0.8-8.2l-0.8-8.2
						l-2.2-7.5l-0.3-0.7l-5-8.2l-3-4l-4.7-4.3l-3.5-2.8l-8.2-3.7l-8.2,0.3l-8.2-1.3L423,580l-6.8,5.1l-1.5,1.2l-5.1,7l-3.1,5.2
						l-1.3,3l-2.3,8.2l-0.9,8.2l0.5,8.2l1.9,8.2l2,6.6l0.7,1.6l4.7,8.2l2.8,3.4l6.8,4.8l1.5,0.8l8.2,1.7l8.2-1l8.2,0.2L451.9,659.1
						L451.9,659.1z M564.5,675.6l6.7-0.6l8.2-0.2l8.2-2.8l8.2-4.6l0.1-0.1l8.1-7.5l0.6-0.7l6-8.2l1.7-2.7l2.8-5.5l3.3-8.2l2.1-7
						l1.5-1.3l6.4-8.2l0.3-1.2l0.3,1.2l7.9,7.6l0.2,0.7l5.4,8.2l2.6,2.8l3.2,5.5l5,6.3l1.2,2l6,8.2l1.1,1.2l8.2,4.9l5.6,2.2l2.6,0.9
						l8.2,1.6l8.2,0.5l8.2-0.6l8.2,0.1l8.2-1.6l2.7-0.9l5.5-2l8.2-4.4l2.6-1.9l5.6-4.7l3.2-3.5l5-6.2l5-2l3.2-1.6l8.2,1.2l0.5,0.4
						l7.7,4.7l3.5,3.6l4.8,4.1l3.5,4.1l4.7,4.6l6.9,3.6l1.3,0.6l8.2,2.7l8.2,1.5l8.2,0.5l8.2-0.5l8.2-0.3l8.2-1.8l8.1-2.8l0.2-0.1
						l8.2-4.5l5.1-3.7l3.1-2.6l5.3-5.6l2.9-3.6l8.2-4l8.2-0.2l8.2,3.5l5.4,4.3l2.8,1.9l6.8,6.3l1.4,1.1l8.2,4.2l8.2,2.9h0.1l8.1,1.8
						l8.2,0.8h8.2l8.2,0.3l8.2-1l7.9-1.9l0.3-0.1l8.2-3.1l8.2-4.5l0.8-0.6l7.5-6.4l4-1.8l4.2-2.3l8.2-1l8.2,2.8l0.7,0.5l7.6,5.2l3,3
						l5.3,4.8l5.8,3.4l2.5,1.3l8.2,3.2l8.2,2l8.2,0.8l8.2-0.2h8.2l8.2-1.3l8.2-2.4l7.6-3.4l0.7-0.3l8.2-5.7l2.4-2.2l5.8-6.2l3.7-2
						l4.6-3l8.2-1.2l8.2,3.1l1.1,1l7.1,5.2l2.7,3l5.5,5.1l5.3,3.1l2.9,1.5l8.2,3l8.2,1.8l8.2,0.7l8.2-0.2l8.2-0.2l8.2-1.6l8.2-2.9
						l3.8-2l4.4-2.7l6.3-5.5l1.9-1.9l4.7-6.3l3.5-5.7l2.5-2.5l5.7-7l2-1.3l6.2-5l8.2,0.3l5.8,4.7l2.4,1.5l5.7,6.7l2.6,2.6l8.2,5.2
						l0.8,0.4l7.4,2.9l8.2,1.9l8.2,0.6l8.2-0.6h8.2l8.2-2.1l5.9-2.8l2.3-1.2l8.2-6.8l0.1-0.1l6.3-8.2l1.8-3l2.5-5.3l3.1-8.2l2.3-8.2
						l0.3-1.7l2.2-6.5l1.3-8.2l-0.3-8.2l-1.5-8.2l-1.7-5.4l-0.5-2.8l-2.4-8.2l-3.4-8.2l-2-3.5l-3.5-4.7l-4.7-5l-4.3-3.3l-3.9-2.6
						l-8.2-3.6l-8.2-1.9l-8.2-0.1l-2.9-0.1l-5.3-0.2l-1,0.2l-7.2,1.2l-8.2,2.9l-7.3,4.2l-0.9,0.5l-8.2,7.1l-0.5,0.6l-5.6,8.2
						l-2.1,3.9l-3.8,4.4l-4.5,6.2l-3.9,2.1l-4.3,2.7l-8.2-2.7l0,0l-8.2-6.8l-0.9-1.4l-7-8.2l-0.3-0.3l-8.2-5.9l-4.2-2l-4.1-1.9
						l-8.2-2.5l-8.2-1.2l-8.2,0.1l-8.2-0.3l-8.2,0.9l-8.2,2.1l-6.6,2.8l-1.6,0.7l-8.2,5l-2.7,2.5l-5.5,6l-3.1,2.2l-5.1,4.4l-8.2,3.1
						l-8.2-1.1l-8.2-5.1l-1.1-1.3l-7.2-7.3l-1.2-0.9l-7-4.8l-7-3.4l-1.2-0.5l-8.2-2.4l-8.2-1.3h-8.2l-8.2-0.3l-8.2,0.7l-8.2,1.6
						l-6.8,2.2l-1.5,0.5l-8.2,4.2l-4.3,3.5l-3.9,3.5l-8.2,4.7h-0.2l-8.1,1.5l-5.5-1.5l-2.7-0.6l-8.2-5l-2.4-2.6l-5.8-5.4l-4.1-2.8
						l-4.1-2.6l-8.2-3.7l-6.5-1.9l-1.8-0.5l-8.2-1.3l-8.2,0.1H957l-8.2,1l-2.6,0.6l-5.6,1.4l-8.2,3.3l-6.1,3.5l-2.2,1.3l-7.1,6.9
						l-1.1,1.2l-8.2,6.7l-0.6,0.3l-7.6,4.1l-8.2,0.6l-8.2-3.4l-1.2-1.4l-7.1-7.1l-1.5-1.1l-6.8-4.8l-6.6-3.4l-1.6-0.8l-8.2-2.9
						l-8.2-1.7l-8.2-0.2l-8.2-0.5l-8.2,0.5l-8.2,1.5l-8.2,2.7L798,544l-5.3,2.8l-5.5,5.4l-2.8,3.2l-6.1,5.1l-2.2,2.3l-8.2,4.9
						l-8.2,0.6l-8.2-4.4l-2.2-3.3l-6.1-7.6l-0.6-0.6l-7.6-6.8l-2.1-1.4l-6.1-3.8l-8.2-3.5l-3.9-1l-4.3-1l-8.2-0.2l-8.2-0.5l-8.2,0.9
						l-3.2,0.9l-5.1,1.5l-8.2,4.1l-3.7,2.7l-4.5,3.7l-3.2,4.5l-4.8,8.2l-0.2,0.5l-4.7,7.7l-3.5,7.6l-0.5,0.6l-4.8,8.2l-3,7.3l-1,0.9
						l-6.2,8.2l-1.1,3.4l-1.5-3.4l-6.7-5.8l-0.6-2.4l-2.8-8.2l-4-8.2l-0.8-1.4l-5.2-6.8l-3-3.2l-6.4-5l-1.2-1.7l-8.2-3.8l-8.2-2.1
						l-8.2,0.4l-8.2-0.9l-8.2,1.2l-8.2,3.4l-4.2,3l-4,3.3l-4.1,5l-4.1,6l-0.9,2.2l-2.8,8.2l-2.2,8.2l-1.7,8.2L522,607l-0.4,2.5
						l-0.3,8.2l0.7,8.2l0.1,0.4l1.2,7.9l1.9,8.2l2.6,8.2l2.6,6.1l1.6,2.2l6.6,7.4l1.1,0.8l7.2,4.4l8.2,2.9l7.1,0.9l1.1,0.1
						L564.5,675.6L564.5,675.6z"/>
				</g>
				<g class="st15">
					<path class="st18" d="M1510.1,618l5.9-8.2l1.8-3.7l1.5-4.5l1-8.2l0.2-8.2l-0.7-8.2l-1.9-8.2l-0.1-0.2l-4.3-8l-3.9-5.2l-4-3.1
						l-4.2-2.4l-8.2-0.5l-8.2-0.9l-8.2,1.8l-3.5,1.9l-4.7,3.5l-4,4.8l-4.2,6.9l-0.6,1.3l-2.1,8.2l-0.7,8.2l0.4,8.2l1.5,8.2l1.5,3.7
						l2.5,4.5l5.7,7.3l1.2,1l7,4.7l8.2,2.1l8.2-1.2h8.2l8.2-5.1L1510.1,618L1510.1,618z M450.8,626.2l2.5-8.2l-2.9-8.2l-2.7-2.6
						l-8.2,0.5l-8.2-2.6l-7.9,4.8l-0.3,0.5l-1.8,7.7l1.5,8.2l0.2,0.4l8.2,5.3l8.2-2.9l8.2,0.5L450.8,626.2L450.8,626.2z
						 M1372.6,642.7l5.4-1.8l8.2-5.2l1.3-1.2l6.9-7.8l0.3-0.4l4.2-8.2l3.1-8.2l0.7-2.8l1.1-5.5l0.8-8.2l-0.3-8.2l-1-8.2l-0.6-3.3
						l-1.2-4.9l-3.3-8.2l-3.8-6.7l-1.2-1.5l-7.1-6.8l-2.3-1.5l-5.9-3l-8.2-2.3l-8.2-0.1l-8.2-0.3l-8.2,1.5l-8.2,3.3l-1.7,1l-6.6,4.7
						l-3.5,3.5l-4.7,5.8l-1.3,2.4l-3.7,8.2l-2.7,8.2l-0.6,2.4l-2.5,5.9l-2.2,8.2l0.3,8.2l2.3,8.2l2.1,3.9l1.4,4.3l4,8.2l2.9,4.2
						l4.6,4.1l3.7,2.7l8.2,4.1l4.9,1.4l3.3,0.9l8.2,0.7l8.2-0.7h8.2L1372.6,642.7L1372.6,642.7z M583.8,659.2l3.9-1.8l8.2-6.2
						l0.2-0.2l6.5-8.2l1.6-2.6l2.7-5.7l2.9-8.2l1.5-8.2l0.2-8.2l-1.4-8.2l-2.8-8.2l-3.1-6.5l-1.1-1.7l-7.1-8.2l0,0l-8.2-5.4
						l-7.7-2.8l-0.5-0.2l-2.8,0.2l-5.4,0.3l-2.3-0.3l-5.9-0.7l-3.9,0.7l-4.3,0.9l-8.2,4.9l-2.4,2.4l-5.9,6.9l-0.8,1.3l-3.8,8.2
						l-2.9,8.2l-0.7,3.4l-0.6,4.8l-0.2,8.2l0.5,8.2l0.3,1.9l1.7,6.3l3.4,8.2l3.1,5.4l2.4,2.9l5.9,5.5l5.1,2.8l3.2,1.5l8.2,1.4l8.2-1
						l8.2-0.1L583.8,659.2L583.8,659.2z M1257.1,659.2l5.6-4.1l4.1-4.1l4.2-5.1l2-3.2l4.2-8.2l2-5.4l1.7-2.8l3.3-8.2l1.9-8.2
						l0.6-8.2l-0.8-8.2l-3.2-8.2l-3.5-5.5l-1-2.8l-4.1-8.2l-3.2-4.7l-3.2-3.5l-5-4.4l-6.5-3.9l-1.7-0.9l-8.2-2.8l-8.2-1.4l-8.2,0.1
						l-8.2-0.3l-8.2,0.9l-8.2,2.2l-4.9,2.2l-3.4,1.6l-8.2,5.8l-0.8,0.8l-6.4,8.2l-1.1,1.7l-6.2,6.5l-2,2.7l-8.2,4.7l-8.2-2l-5.3-5.4
						l-2.9-2.2l-3.9-6l-4.3-5.2l-3.3-3l-4.9-3.8l-7.9-4.4l-0.3-0.2l-8.2-2.8l-8.2-1.5h-8.2l-8.2-0.4l-8.2,0.7l-8.2,1.8l-5.9,2.2
						l-2.3,0.9l-8.2,4.8l-2.8,2.5l-5.5,5.8l-3.7,2.4l-4.6,3.6l-8.2,1.9l-8.2-2.9l-2.9-2.6l-5.3-3.9l-3.4-4.3l-4.8-5.1l-3.9-3.1
						l-4.3-3.1l-8.2-4.1l-3.1-1l-5.2-1.6l-8.2-1.4L967,541h-8.2l-8.2,1.1l-6.5,1.8l-1.7,0.5l-8.2,3.7l-6.4,4.1l-1.9,1.3l-6.2,6.9
						l-2,2.7l-5.7,5.5l-2.5,3.1l-7.4,5.1l-0.8,0.8l-8.2,1.1l-2.9-1.9l-5.4-2.7l-3.7-5.5l-4.5-5.4l-3-2.8l-5.2-4.1l-7.1-4.1l-1.1-0.6
						l-8.2-3.1l-8.2-1.9l-8.2-0.2l-8.2-0.6l-8.2,0.5L811,548l-8.2,3.1l-2,1.1l-6.3,3.8l-3.9,4.4l-4.3,6.1l-2,2.1l-6.1,8.2l-0.1,0.2
						l-7.7,8l-0.6,0.9l-8.2,2.8l-3.4-3.8l-4.8-3.6l-1.9-4.6l-4.3-8.2l-2-3.1l-4.2-5.2l-4-4l-5.7-4.2l-2.6-1.7l-8.2-3.9l-8.2-2.3
						l-8.2-0.1l-2.5-0.2l-5.8-0.4l-3.6,0.4l-4.6,0.6l-8.2,2.8l-8.2,4.7l-0.2,0.2l-8,7.6l-0.4,0.6l-4,8.2l-3,8.2l-0.9,3.2l-1.9,5
						l-2.2,8.2l-1.3,8.2l-0.4,8.2l0.9,8.2l2.2,8.2l2.8,6l0.7,2.2l3.8,8.2l3.7,5.9l2.7,2.3l5.6,4.2l8.2,4l0.2,0.1l8,1.9l8.2,0.6
						l8.2-0.6l8.2,0.1l8.2-1.8l0.5-0.2l7.7-3.3l7.7-4.9l0.5-0.4l8.2-7.9l0.1-0.1l5.3-8.2l2.9-5.9l3.7-2.3l4.5-4.3l8.2,2.7l1,1.6
						l7.2,7.3l0.5,0.9l6.3,8.2l1.4,1.4l4.9,6.8l3.4,3.9l6.9,4.4l1.3,0.7l8.2,3.1l8.2,1.8l8.2,0.6l8.2-0.5l8.2-0.3l8.2-2l8.2-3.3
						l0.2-0.1l8-5l3.9-3.2l4.4-4.2l3.2-4l5-7.8l0.8-0.5l7.5-5.6l8.2,0.1l7.7,5.6l0.6,0.3l7.7,7.9l0.5,0.4l6.8,7.8l1.4,1.3l8.2,5
						l4.6,1.9l3.6,1.4l8.2,2l8.2,0.9h8.2l8.2,0.3l8.2-1.1l8.2-2.2l3-1.2l5.2-2.4l8.2-5.4l0.5-0.5l7.7-8.2v-0.1l8.2-6l8.2-1.8
						l8.2,3.2l4.8,4.8l3.5,2.8l4.4,5.4l3.9,4l6.3,4.2l1.9,1.2l8.2,3.6l8.2,2.2l8.2,1l8.2-0.3h8.2l8.2-1.5l8.2-2.8l6.4-3.3l1.9-1.1
						l8.2-6.7l0.4-0.5l6.3-8.2l1.5-2.5l6.7-5.7l1.5-1.7l8.2-1.9l5.2,3.7l3,1.5l6,6.7l2.3,2l4.8,6.2l3.5,3.8l6.3,4.4l1.9,1.1l8.2,3.5
						l8.2,2.1l8.2,0.9l8.2-0.3l8.2-0.2l8.2-1.9l8.2-3.5L1257.1,659.2L1257.1,659.2z"/>
				</g>
				<path class="st19" d="M1377.8,626.2l0.2-0.1l8.2-7.9l0.2-0.2l4.3-8.2l2.9-8.2l0.9-5.3l0.4-3l-0.4-6.9l-0.1-1.4l-1.8-8.2
					l-2.8-8.2l-3.5-6.1l-1.8-2.1l-6.4-5.6l-5.6-2.6l-2.6-0.9l-8.2-0.2l-8.2-0.5l-7.7,1.6l-0.5,0.1l-8.2,4.9l-3.5,3.2l-4.7,5.4
					l-1.8,2.8l-3.7,8.2l-2.7,8l-0.1,0.3l-1,8.2l0.5,8.2l0.6,2.7l1.8,5.6l4.7,8.2l1.8,2.1l7.5,6.1l0.7,0.4l8.2,3l8.2,1l8.2-0.9
					l8.2-0.2L1377.8,626.2L1377.8,626.2z M565.4,642.7l5.8-1.5l8.2,0.2l8.2-5.9l0.9-1.1l4.8-8.2l2.3-8.2l-0.2-8.2l-3.2-8.2l-4.6-6.4
					l-2.4-1.8l-5.8-3.4l-8.2,0.8l-8.2-1.9l-8.2,2.8l-1.9,1.7l-6.4,7.5l-0.4,0.7l-2.5,8.2l-0.5,8.2l1.3,8.2l2,4.9l2.2,3.3l6,5.9
					l6.5,2.3l1.7,0.4L565.4,642.7L565.4,642.7z M713,650.9l6.4-1.8l8.2-4.1l3.2-2.3l5-4.5l3.2-3.8l5.1-8l0.1-0.2l2.7-8.2l1.3-8.2
					l-0.1-8.2l-1.2-8.2l-2.3-8.2l-0.6-1.4l-3.5-6.8l-4.7-7.1l-1-1.1l-7.3-6.8l-2.2-1.5l-6-3.2l-8.2-2.6l-8.2-0.1l-8.2-0.7l-8.2,1.2
					l-8.2,3.3l-3.2,2.1l-5,4.2l-3.3,4l-4.9,7.6l-0.2,0.7l-2.4,8.2l-1.7,8.2l-1,8.2l-0.2,8.2l0.8,8.2l1.8,8.2l3,8.1l0.1,0.2l7.2,8.2
					l0.9,0.8l8.2,4.9l7.3,2.5l0.9,0.3l8.2,0.8l8.2-0.7l8.2,0.1L713,650.9L713,650.9z M858.6,650.9l0.8-0.4l8.2-6.1l1.8-1.8l6.4-7.8
					l0.3-0.4l4.1-8.2l2.8-8.2l1-5.1l1.7-3.1l1-8.2l-2.7-7.3l-0.1-0.9l-2.6-8.2l-4.2-8.2l-1.3-1.9l-5.5-6.3l-2.8-2.6l-8.1-5.7
					l-0.2-0.1l-8.2-3.5l-8.2-2.1l-8.2-0.2l-8.2-0.6l-8.2,0.6l-8.2,2l-8.2,3.5l-0.6,0.4l-7.6,5.8l-1.8,2.5l-4.7,8.2l-1.8,4.3l-2.3,4
					l-3,8.2l-1.4,8.2v8.2l1.5,8.2l3.1,8.2l2.1,3.6l1.9,4.6l4.7,8.2l1.6,2.1l8,6.1l0.2,0.1l8.2,3.7l8.2,2.1l8.2,0.7l8.2-0.6l8.2-0.3
					l8.2-2.3L858.6,650.9L858.6,650.9z M1127,650.9l4-2.9l5.3-5.3l2.9-3.8l2.7-4.4l3.6-8.2l2-7l0.7-1.2l2-8.2l-0.4-8.2l-2.3-6.5
					l-0.3-1.8l-2.8-8.2l-4.3-8.2l-0.8-1.3l-6.1-7l-2.2-2l-8.2-5.5l-1.8-0.8l-6.4-2.5l-8.2-1.7h-8.2l-8.2-0.4l-8.2,0.8l-8.2,2.1
					l-4,1.7l-4.2,2l-8.5,5.6l-0.6,0.6l-6.3,8.2l-1.4,2.4l-5.5,5.8l-2.7,4.5l-7.4,3.7l-0.8,1l-0.5-1l-7.7-5.7l-1.2-2.5l-6.7-8.2
					l-0.3-0.3l-5-7.9l-3.3-4.1l-4.3-4.1l-3.9-3.2l-8.2-4.8l-0.7-0.3l-7.5-2.6l-8.2-1.6l-8.2,0.2h-8.2l-8.2,1.2l-8.2,2.5l-0.7,0.3
					l-7.5,3.8l-6,4.4l-2.3,2l-4.8,6.3l-3.5,5.8l-2,2.4l-4.9,8.2l-1.3,3.7l-3,4.6l-1.9,8.2l1.3,8.2l3.6,6.4l0.5,1.8l4.4,8.2l3.3,4.5
					l1.9,3.7l5.8,8.2l0.5,0.6l8.2,6.1l3,1.5l5.2,2.3l8.2,2.3l8.2,1.1h8.2l8.2,0.3l8.2-1.4l8.2-2.6l4.3-2.1l3.9-2.2l7.5-6l0.8-0.8
					l5.5-7.5l2.8-5.2l3-3l5.3-7.4l1.8-0.9l6.4-5.8l5.9,5.8l2.3,1.3l4.1,6.9l4.1,5.2l1.5,3l5.2,8.2l1.5,1.9l7.8,6.3l0.5,0.3l8.2,4
					l8.2,2.5l8.2,1.1l8.2-0.3h8.2l8.2-1.8l8.2-3.3L1127,650.9L1127,650.9z M1255.1,650.9l7.7-6.7l1.3-1.5l5.6-8.2l1.4-2.9l2-5.3
					l1.9-8.2l0.9-8.2l0.1-8.2l-0.7-8.2l-2.1-8.2l-2.1-5.3l-1.5-3l-5.8-8.2l-0.9-1l-8.2-6.4l-1.8-0.9l-6.5-2.7l-8.2-1.8h-8.2
					l-8.2-0.3l-8.2,1.1l-8.2,2.6l-2.2,1.1l-6,3.5l-5.6,4.7l-2.7,2.7l-3.5,5.5l-4,8.2l-0.7,2l-3.3,6.2l-2.1,8.2l-0.4,8.2l1.2,8.2
					l3,8.2l1.7,2.7l2.3,5.6l5,8.2l0.9,1.2l8.2,6.9l0.3,0.2l7.9,4l8.2,2.5l8.2,1l8.2-0.3l8.2-0.3l8.2-2.3l8.2-4.2L1255.1,650.9
					L1255.1,650.9z"/>
				<path class="st20" d="M1369.8,609.8l7.7-8.2l0.5-1l1.8-7.2l-1-8.2l-0.8-2.2l-3.8-6l-4.4-4.7l-8.2-0.6l-8.2-1.6l-8.2,4l-2.6,2.9
					l-5.4,8.2l-0.2,0.7l-1.4,7.5l1.4,6.2l0.8,2l7.4,8l0.7,0.3l7.5,1.9l8.2-1.4L1369.8,609.8L1369.8,609.8L1369.8,609.8z
					 M723.8,634.5l3.8-3.1l4.5-5.2l3.8-6.8l0.6-1.5l1.7-8.2l-0.1-8.2l-1.5-8.2l-0.6-1.8l-2.9-6.4l-5.3-7.9l-0.3-0.3l-7.9-6.4
					l-3.8-1.8l-4.5-1.7l-8.2-0.1l-8.2-1l-8.2,1.6l-2.3,1.2l-5.9,3.8l-4.1,4.4l-4.1,5.7l-1.3,2.5l-2.8,8.2l-1.6,8.2l-0.3,8.2l1.5,8.2
					l3.4,8.2l1.2,1.8l6.2,6.4l2,1.6l8.2,3.7l8.2,1.3l8.2-1l8.2,0.1l8.2-3L723.8,634.5L723.8,634.5z M855.8,642.7l3.5-2.3l6.5-6
					l1.8-2.1l3.9-6.1l3.5-8.2l0.8-3.5l0.9-4.8l0.2-8.2l-1.2-8.1v-0.2l-3.4-8.2l-4.8-7.2l-0.9-1l-7.3-6.4l-3-1.8l-5.2-2.6l-8.2-2.5
					l-8.2-0.3l-8.2-0.8l-8.2,0.8l-8.2,2.5l-5.5,2.9l-2.8,1.8l-6.7,6.4l-1.6,2l-2.8,6.2l-2.3,8.2l-1.1,8.2v8.2l1.1,8.2l2.3,8.2
					l2.7,6.1l1.7,2.1l6.6,6.4l2.8,1.9l5.4,2.9l8.2,2.6l8.2,0.9l8.2-0.7l8.2-0.4l8.2-2.7L855.8,642.7L855.8,642.7z M994.8,642.7
					l4.4-3.2l4.9-5l3.4-4.7l2-3.6l3.4-8.2l1.9-8.2l0.6-8.2l-0.8-8.2l-2.3-8.2l-3.8-8.2l-1-1.5l-5.6-6.7l-2.6-2.5l-8.2-5.7l0,0
					l-8.2-3.3l-8.2-1.8l-8.2,0.2h-8.2l-8.2,1.4l-8.2,2.8l-1.3,0.7l-6.9,4.2l-4.6,4l-3.7,4l-2.6,4.2l-3.6,8.2l-2,7.9l-0.1,0.3l-1,8.2
					l0.9,8.2l0.2,0.5l1.8,7.7l3.2,8.2l3.2,6.1l1.7,2.2l6.5,6l3.3,2.2l4.9,2.6l8.2,2.8l8.2,1.3h8.2l8.2,0.3l8.2-1.7l8.2-3.2
					L994.8,642.7L994.8,642.7z M1123.2,642.7l7.7-7.3l0.7-0.9l4.8-8.2l2.8-7.3l0.3-1l1.1-8.2l-0.2-8.2l-1.2-6.6l-0.4-1.6l-3.7-8.2
					l-4.1-6l-2.1-2.2l-6.2-5.2l-5.5-3l-2.7-1.2l-8.2-2h-8.2l-8.2-0.5l-8.2,1l-8.2,2.4l-0.7,0.3l-7.6,4.4l-4.5,3.8l-3.7,4.1l-2.5,4.2
					l-3.1,8.2l-1.4,8.2l0.2,8.2l1.5,8.2l3,8.2l2.2,4.5l2.8,3.7l5.4,5.6l3.5,2.6l4.7,2.8l8.2,3l8.2,1.3l8.2-0.4h8.2l8.2-2.2l8.2-4.1
					L1123.2,642.7L1123.2,642.7z M1251.2,642.7l3.3-2.4l5.4-5.8l2.8-4.5l1.8-3.8l2.3-8.2l1-8.2v-8.2l-1.2-8.2l-3-8.2l-0.9-1.7
					l-4.9-6.5l-3.3-3.3l-7.6-4.9l-0.6-0.3l-8.2-2.3h-8.2l-8.2-0.4l-8.2,1.3l-4.8,1.8l-3.4,1.5l-8.2,6l-0.7,0.7l-6.3,8.2l-1.2,2.3
					l-2.1,6l-1.4,8.2l-0.3,8.2l0.7,8.2l2,8.2l1.2,2.7l3.6,5.5l4.7,4.9l4.5,3.3l3.8,2.2l8.2,3l8.2,1.2l8.2-0.4l8.2-0.3l8.2-2.8
					L1251.2,642.7L1251.2,642.7z"/>
				<path class="st21" d="M695.9,626.2l7.1-1.7l8.2,0.2l8.2-5.9l0.7-0.9l3.3-8.2l-0.3-8.2l-2.9-8.2l-0.8-1.2l-7.8-7l-0.4-0.3
					l-8.2,0.1l-8.2-1.6l-5.6,1.8l-2.6,1.2l-5.6,7l-2.6,5.8l-0.7,2.4l-0.3,8.2l1,3.5l2.3,4.7l6,5.7l7.4,2.5l0.8,0.2L695.9,626.2
					L695.9,626.2z M850.8,634.5l0.3-0.2l8.2-7.1l0.8-1l4.6-8.2l2.4-8.2l0.2-8.2l-2-8.2l-4.6-8.2l-1.5-1.7L851,577l0,0l-8.2-3.2
					l-8.2-0.3l-8.2-0.9l-8.2,1.1l-8.2,3.2l-0.2,0.1l-8,6.9l-1.1,1.3l-4.2,8.2l-2,8.2v8.2l2,8.2l4.2,8.2l1,1.3l7.9,7l0.4,0.2l8.2,3.3
					l8.2,1.1l8.2-0.9l8.2-0.5L850.8,634.5L850.8,634.5z M992.5,634.5l6.8-6.8l1.1-1.5l4.6-8.2l2.6-8v-0.2l0.7-8.2l-0.8-8.2v-0.1
					l-3-8.2l-5-8.2l-0.3-0.3l-8.2-7.2l-1.2-0.7l-7-3.4l-8.2-2.2l-8.2,0.2h-8.2l-8.3,1.7l-8.2,3.4l-0.4,0.2l-7.8,6l-2,2.2l-5.4,8.2
					l-0.8,2l-1.7,6.2l-0.7,8.2l0.7,8.2l1.6,6.5l0.6,1.7l5,8.2l2.5,3.2l5.8,5.1l2.5,1.7l8.2,3.5l8.2,1.7h8.2l8.2,0.3l8.2-2.2l8.2-4.1
					L992.5,634.5L992.5,634.5z M1115.5,634.5l7.3-6.1l1.7-2.1l4.4-8.2l2-8.2l-0.2-8.2l-2.7-8.2l-5.2-8.2l0,0l-8.2-5.9l-5.9-2.3
					l-2.3-0.7h-8.2l-8.2-0.6l-8.2,1.2l-0.4,0.1l-7.9,3.6l-6,4.6l-2.2,2.5l-3.5,5.7l-2.4,8.2l0.1,8.2l2.3,8.2l3.5,6.3l1.4,1.9
					l6.8,6.5l2.9,1.7l5.3,2.5l8.2,1.6l8.2-0.6h8.2l8.2-2.9L1115.5,634.5L1115.5,634.5z M1244.9,634.5l1.3-0.8l6.9-7.4l1.3-2.5
					l2.1-5.7l1.2-8.2l-0.3-8.2l-1.9-8.2l-1.1-2.1l-4.9-6.2l-3.3-2.9l-8.2-3.8l-8.2-0.2l-8.2-0.7l-8.2,2l-8.2,4.8l-1,0.9l-6.3,8.2
					l-0.9,2.6l-1.5,5.7l-0.6,8.2l1.1,8.2l1,2.7l2.8,5.5l5.5,6l3.3,2.2l4.9,2.3l8.2,1.6l8.2-0.5l8.2-0.4L1244.9,634.5L1244.9,634.5z"
					/>
				<path class="st22" d="M1110.6,618l3.9-5.7l0.9-2.5l-0.3-8.2l-0.7-1.4l-6.1-6.9l-2.1-1.2h-8.2l-8.2-1.2l-8.2,2.3l-0.2,0.1l-6,8.2
					l-0.1,8.2l4.8,8.2l1.5,1.3l8.2,2.8l8.2-1.2h8.2L1110.6,618L1110.6,618z M1231.5,618l6.5-2.3l1.9-6l-1.4-8.2l-0.4-0.7l-8.2-1
					l-8.2-2.1l-5.3,3.7l-2.9,7.5l-0.1,0.7l0.1,0.4l5,7.8l3.2,1.7l8.2-1.5L1231.5,618L1231.5,618z M826.5,626.2l8.1-1.8l8.2-0.9
					l6.8-5.5l1.4-2.2l2.4-6l0.2-8.2l-2.6-6.9l-0.8-1.4l-7.4-5.7l-8.2-0.7l-8.1-1.8h-0.2h-0.1l-8.1,2.2l-7.5,6l-0.7,1.2l-2.5,7v8.2
					l2.5,6.8l0.9,1.5l7.3,5.9l8.2,2.3L826.5,626.2L826.5,626.2L826.5,626.2z M986.9,626.2l4.1-3.5l3.7-4.7l3.8-8.2l0.8-4.5l0.5-3.8
					l-0.5-4.3l-0.6-4l-4.1-8.2l-3.6-4.4l-4.7-3.9l-3.6-2.1l-8.2-2.7l-8.2,0.2l-8.2,0.1l-8.2,2.1l-4.8,2.5l-3.4,2.4l-5.3,5.8
					l-2.9,5.3l-1.2,2.9l-1,8.2l1.2,8.2l0.9,2.4l3,5.8l5.2,5.9l3.1,2.3l5.1,2.9l8.2,2.3h8.2l8.2,0.4l8.2-3L986.9,626.2L986.9,626.2z"
					/>
			</g>
		</g>
	</g>
</g>
<g class="st23">
	<path class="st24" d="M172.2,1132.7h-1.8v-11.5c-0.4,0.4-1,0.8-1.7,1.2c-0.7,0.4-1.3,0.7-1.9,0.9v-1.7c1-0.5,1.9-1.1,2.7-1.7
		c0.8-0.7,1.3-1.3,1.6-2h1.2L172.2,1132.7L172.2,1132.7z"/>
</g>
<g class="st23">
	<path class="st24" d="M306.6,1130.9v1.7h-9.7c0-0.4,0.1-0.9,0.2-1.3c0.2-0.7,0.6-1.3,1.2-2c0.5-0.6,1.3-1.4,2.4-2.2
		c1.6-1.3,2.7-2.4,3.2-3.1c0.6-0.8,0.8-1.5,0.8-2.2s-0.3-1.3-0.8-1.8s-1.2-0.7-2-0.7c-0.9,0-1.6,0.3-2.1,0.8s-0.8,1.2-0.8,2.2
		l-1.9-0.2c0.1-1.4,0.6-2.4,1.4-3.2c0.8-0.7,1.9-1.1,3.3-1.1s2.5,0.4,3.4,1.2c0.8,0.8,1.2,1.8,1.2,2.9c0,0.6-0.1,1.2-0.4,1.7
		s-0.6,1.2-1.2,1.8c-0.6,0.6-1.5,1.5-2.8,2.6c-1.1,0.9-1.8,1.5-2.1,1.9c-0.3,0.3-0.6,0.7-0.8,1L306.6,1130.9L306.6,1130.9z"/>
</g>
<g class="st23">
	<path class="st24" d="M428.8,1128.8l1.8-0.2c0.2,1,0.6,1.8,1.1,2.2s1.1,0.7,1.8,0.7c0.9,0,1.6-0.3,2.2-0.9s0.9-1.3,0.9-2.2
		c0-0.8-0.3-1.5-0.8-2.1c-0.5-0.5-1.2-0.8-2.1-0.8c-0.3,0-0.8,0.1-1.3,0.2l0.2-1.6c0.1,0,0.2,0,0.3,0c0.8,0,1.5-0.2,2.1-0.6
		s0.9-1,0.9-1.9c0-0.7-0.2-1.2-0.7-1.6c-0.4-0.4-1-0.7-1.7-0.7s-1.3,0.2-1.8,0.7c-0.5,0.4-0.8,1.1-0.9,2l-1.8-0.3
		c0.2-1.2,0.7-2.2,1.5-2.8c0.8-0.7,1.8-1,2.9-1c0.8,0,1.5,0.2,2.2,0.5s1.2,0.8,1.6,1.4s0.5,1.2,0.5,1.9c0,0.6-0.2,1.2-0.5,1.7
		s-0.8,0.9-1.5,1.2c0.9,0.2,1.5,0.6,2,1.3s0.7,1.4,0.7,2.4c0,1.3-0.5,2.4-1.4,3.3s-2.1,1.3-3.6,1.3c-1.3,0-2.4-0.4-3.2-1.2
		C429.4,1131,428.9,1130,428.8,1128.8z"/>
</g>
<g class="st23">
	<path class="st24" d="M566.3,1132.7v-3.5h-6.4v-1.7l6.7-9.5h1.5v9.5h2v1.7h-2v3.5H566.3z M566.3,1127.5v-6.6l-4.6,6.6H566.3z"/>
</g>
<g class="st23">
	<path class="st24" d="M692.2,1128.8l1.9-0.2c0.1,0.9,0.5,1.6,1,2.1s1.1,0.7,1.9,0.7c0.9,0,1.6-0.3,2.2-1s0.9-1.5,0.9-2.6
		c0-1-0.3-1.8-0.9-2.4c-0.6-0.6-1.3-0.9-2.3-0.9c-0.6,0-1.1,0.1-1.6,0.4s-0.8,0.6-1.1,1l-1.7-0.2l1.4-7.6h7.3v1.7h-5.9l-0.8,4
		c0.9-0.6,1.8-0.9,2.8-0.9c1.3,0,2.4,0.4,3.3,1.3c0.9,0.9,1.3,2,1.3,3.4c0,1.3-0.4,2.5-1.2,3.5c-0.9,1.2-2.2,1.8-3.9,1.8
		c-1.3,0-2.4-0.4-3.3-1.1S692.3,1130.1,692.2,1128.8z"/>
</g>
<g class="st23">
	<path class="st24" d="M833.3,1121.6l-1.8,0.1c-0.2-0.7-0.4-1.2-0.7-1.5c-0.5-0.5-1.1-0.8-1.8-0.8c-0.6,0-1.1,0.2-1.5,0.5
		c-0.6,0.4-1,1-1.3,1.8s-0.5,1.9-0.5,3.4c0.4-0.7,1-1.2,1.6-1.5s1.3-0.5,2-0.5c1.2,0,2.2,0.4,3.1,1.3c0.8,0.9,1.3,2,1.3,3.4
		c0,0.9-0.2,1.8-0.6,2.6c-0.4,0.8-0.9,1.4-1.6,1.8s-1.5,0.6-2.4,0.6c-1.5,0-2.7-0.6-3.7-1.7s-1.4-2.9-1.4-5.5c0-2.8,0.5-4.9,1.6-6.2
		c0.9-1.1,2.2-1.7,3.7-1.7c1.2,0,2.1,0.3,2.8,1C832.7,1119.5,833.1,1120.4,833.3,1121.6z M825.9,1127.9c0,0.6,0.1,1.2,0.4,1.8
		c0.3,0.6,0.6,1,1.1,1.3s1,0.4,1.5,0.4c0.8,0,1.4-0.3,2-0.9s0.8-1.5,0.8-2.5s-0.3-1.8-0.8-2.4s-1.2-0.9-2-0.9s-1.5,0.3-2.1,0.9
		C826.2,1126.2,825.9,1127,825.9,1127.9z"/>
</g>
<g class="st23">
	<path class="st24" d="M957.8,1119.9v-1.7h9.5v1.4c-0.9,1-1.9,2.3-2.8,4c-0.9,1.7-1.6,3.4-2.1,5.1c-0.4,1.2-0.6,2.6-0.7,4h-1.9
		c0-1.2,0.2-2.6,0.7-4.2s1.1-3.2,1.9-4.7c0.8-1.5,1.7-2.8,2.6-3.9L957.8,1119.9L957.8,1119.9z"/>
</g>
<g class="st23">
	<path class="st24" d="M1092.1,1124.7c-0.8-0.3-1.3-0.7-1.7-1.2c-0.4-0.5-0.5-1.1-0.5-1.8c0-1.1,0.4-2,1.2-2.7s1.8-1.1,3.1-1.1
		c1.3,0,2.3,0.4,3.1,1.1c0.8,0.7,1.2,1.7,1.2,2.7c0,0.7-0.2,1.3-0.5,1.8s-0.9,0.9-1.6,1.2c0.9,0.3,1.6,0.8,2.1,1.4
		c0.5,0.7,0.7,1.4,0.7,2.4c0,1.3-0.4,2.3-1.3,3.2c-0.9,0.9-2.1,1.3-3.5,1.3c-1.5,0-2.6-0.4-3.5-1.3s-1.3-1.9-1.3-3.2
		c0-1,0.2-1.8,0.7-2.4C1090.6,1125.4,1091.2,1124.9,1092.1,1124.7z M1091.2,1128.4c0,0.5,0.1,1,0.4,1.5c0.2,0.5,0.6,0.9,1.1,1.1
		c0.5,0.3,1,0.4,1.6,0.4c0.9,0,1.6-0.3,2.1-0.8c0.6-0.6,0.8-1.3,0.8-2.1c0-0.9-0.3-1.6-0.9-2.2s-1.3-0.9-2.2-0.9
		c-0.9,0-1.6,0.3-2.1,0.8C1091.5,1126.9,1091.2,1127.6,1091.2,1128.4z M1091.8,1121.6c0,0.7,0.2,1.3,0.7,1.7c0.4,0.4,1,0.7,1.7,0.7
		s1.3-0.2,1.7-0.7c0.4-0.4,0.7-1,0.7-1.6c0-0.7-0.2-1.2-0.7-1.7s-1-0.7-1.7-0.7s-1.3,0.2-1.7,0.7
		C1092,1120.5,1091.8,1121,1091.8,1121.6z"/>
</g>
<g class="st23">
	<path class="st24" d="M1221.3,1129.3l1.7-0.2c0.1,0.8,0.4,1.4,0.8,1.8s0.9,0.6,1.6,0.6c0.6,0,1-0.1,1.5-0.4c0.4-0.3,0.8-0.6,1-1
		c0.3-0.4,0.5-1,0.7-1.7s0.3-1.5,0.3-2.2c0-0.1,0-0.2,0-0.4c-0.4,0.6-0.9,1-1.5,1.4s-1.3,0.5-2,0.5c-1.2,0-2.3-0.4-3.1-1.3
		c-0.8-0.9-1.3-2.1-1.3-3.5c0-1.5,0.4-2.7,1.3-3.6s2-1.4,3.3-1.4c1,0,1.8,0.3,2.6,0.8c0.8,0.5,1.4,1.3,1.8,2.2
		c0.4,1,0.6,2.3,0.6,4.1c0,1.9-0.2,3.4-0.6,4.5s-1,2-1.8,2.5c-0.8,0.6-1.8,0.9-2.8,0.9c-1.2,0-2.1-0.3-2.8-1
		S1221.5,1130.4,1221.3,1129.3z M1228.8,1122.8c0-1-0.3-1.9-0.8-2.5s-1.2-0.9-2-0.9s-1.5,0.3-2.1,1s-0.9,1.5-0.9,2.6
		c0,0.9,0.3,1.7,0.8,2.3c0.6,0.6,1.3,0.9,2.1,0.9c0.8,0,1.5-0.3,2.1-0.9C1228.5,1124.6,1228.8,1123.8,1228.8,1122.8z"/>
</g>
<g class="st23">
	<path class="st24" d="M1353.9,1132.7h-1.8v-11.5c-0.4,0.4-1,0.8-1.7,1.2c-0.7,0.4-1.3,0.7-1.9,0.9v-1.7c1-0.5,1.9-1.1,2.7-1.7
		c0.8-0.7,1.3-1.3,1.6-2h1.2L1353.9,1132.7L1353.9,1132.7z"/>
	<path class="st24" d="M1358.5,1125.4c0-1.7,0.2-3.1,0.5-4.2s0.9-1.9,1.6-2.5s1.6-0.9,2.7-0.9c0.8,0,1.5,0.2,2.1,0.5
		s1.1,0.8,1.5,1.4s0.7,1.3,0.9,2.2c0.2,0.9,0.3,2,0.3,3.5c0,1.7-0.2,3.1-0.5,4.2c-0.4,1.1-0.9,1.9-1.6,2.5s-1.6,0.9-2.7,0.9
		c-1.4,0-2.5-0.5-3.3-1.5C1359,1130.2,1358.5,1128.2,1358.5,1125.4z M1360.4,1125.4c0,2.4,0.3,4,0.8,4.8c0.6,0.8,1.3,1.2,2.1,1.2
		s1.5-0.4,2.1-1.2c0.6-0.8,0.8-2.4,0.8-4.8s-0.3-4-0.8-4.8c-0.6-0.8-1.3-1.2-2.1-1.2c-0.8,0-1.5,0.4-2,1.1
		C1360.7,1121.3,1360.4,1123,1360.4,1125.4z"/>
</g>
<g class="st23">
	<path class="st24" d="M1486.3,1132.7h-1.8v-11.5c-0.4,0.4-1,0.8-1.7,1.2c-0.7,0.4-1.3,0.7-1.9,0.9v-1.7c1-0.5,1.9-1.1,2.7-1.7
		c0.8-0.7,1.3-1.3,1.6-2h1.2L1486.3,1132.7L1486.3,1132.7z"/>
</g>
<g class="st23">
	<path class="st24" d="M1496.3,1132.7h-1.8v-11.5c-0.4,0.4-1,0.8-1.7,1.2c-0.7,0.4-1.3,0.7-1.9,0.9v-1.7c1-0.5,1.9-1.1,2.7-1.7
		s1.3-1.3,1.6-2h1.2L1496.3,1132.7L1496.3,1132.7z"/>
</g>
<g class="st23">
	<path class="st24" d="M1617.3,1132.7h-1.8v-11.5c-0.4,0.4-1,0.8-1.7,1.2c-0.7,0.4-1.3,0.7-1.9,0.9v-1.7c1-0.5,1.9-1.1,2.7-1.7
		c0.8-0.7,1.3-1.3,1.6-2h1.2L1617.3,1132.7L1617.3,1132.7z"/>
	<path class="st24" d="M1631.4,1130.9v1.7h-9.7c0-0.4,0.1-0.9,0.2-1.3c0.2-0.7,0.6-1.3,1.2-2c0.5-0.6,1.3-1.4,2.4-2.2
		c1.6-1.3,2.7-2.4,3.2-3.1c0.6-0.8,0.8-1.5,0.8-2.2s-0.3-1.3-0.8-1.8s-1.2-0.7-2-0.7c-0.9,0-1.6,0.3-2.1,0.8s-0.8,1.2-0.8,2.2
		l-1.9-0.2c0.1-1.4,0.6-2.4,1.4-3.2c0.8-0.7,1.9-1.1,3.3-1.1s2.5,0.4,3.4,1.2s1.2,1.8,1.2,2.9c0,0.6-0.1,1.2-0.4,1.7
		c-0.2,0.6-0.6,1.2-1.2,1.8c-0.6,0.6-1.5,1.5-2.8,2.6c-1.1,0.9-1.8,1.5-2.1,1.9c-0.3,0.3-0.6,0.7-0.8,1L1631.4,1130.9L1631.4,1130.9
		z"/>
</g>
<g class="st23">
	<path class="st24" d="M120.9,1100.7h-9.7v-1.7h9.7V1100.7z"/>
	<path class="st24" d="M132.4,1105.4v1.7h-9.7c0-0.4,0.1-0.9,0.2-1.3c0.2-0.7,0.6-1.3,1.2-2c0.5-0.6,1.3-1.4,2.4-2.2
		c1.6-1.3,2.7-2.4,3.2-3.1c0.6-0.8,0.8-1.5,0.8-2.2s-0.3-1.3-0.8-1.8s-1.2-0.7-2-0.7c-0.9,0-1.6,0.3-2.1,0.8s-0.8,1.2-0.8,2.2
		l-1.9-0.2c0.1-1.4,0.6-2.4,1.4-3.2c0.8-0.7,1.9-1.1,3.3-1.1s2.5,0.4,3.4,1.2c0.8,0.8,1.2,1.8,1.2,2.9c0,0.6-0.1,1.2-0.4,1.7
		s-0.6,1.2-1.2,1.8c-0.6,0.6-1.5,1.5-2.8,2.6c-1.1,0.9-1.8,1.5-2.1,1.9c-0.3,0.3-0.6,0.7-0.8,1L132.4,1105.4L132.4,1105.4z"/>
	<path class="st24" d="M135.4,1107.2v-2.1h2.1v2.1H135.4z"/>
	<path class="st24" d="M140.1,1099.9c0-1.7,0.2-3.1,0.5-4.2s0.9-1.9,1.6-2.5s1.6-0.9,2.7-0.9c0.8,0,1.5,0.2,2.1,0.5
		c0.6,0.3,1.1,0.8,1.5,1.4c0.4,0.6,0.7,1.3,0.9,2.2c0.2,0.9,0.3,2,0.3,3.5c0,1.7-0.2,3.1-0.5,4.2s-0.9,1.9-1.6,2.5s-1.6,0.9-2.7,0.9
		c-1.4,0-2.5-0.5-3.3-1.5C140.6,1104.7,140.1,1102.7,140.1,1099.9z M141.9,1099.9c0,2.4,0.3,4,0.8,4.8c0.6,0.8,1.3,1.2,2.1,1.2
		c0.8,0,1.5-0.4,2.1-1.2c0.6-0.8,0.8-2.4,0.8-4.8s-0.3-4-0.8-4.8c-0.6-0.8-1.3-1.2-2.1-1.2s-1.5,0.4-2,1.1
		C142.3,1095.8,141.9,1097.5,141.9,1099.9z"/>
</g>
<g class="st23">
	<path class="st24" d="M120.9,973.1h-9.7v-1.7h9.7V973.1z"/>
	<path class="st24" d="M129.7,979.6h-1.8V968c-0.4,0.4-1,0.8-1.7,1.2c-0.7,0.4-1.3,0.7-1.9,0.9v-1.7c1-0.5,1.9-1.1,2.7-1.7
		c0.8-0.7,1.3-1.3,1.6-2h1.2L129.7,979.6L129.7,979.6z"/>
	<path class="st24" d="M135.4,979.6v-2.1h2.1v2.1H135.4z"/>
	<path class="st24" d="M140.1,975.7l1.9-0.2c0.1,0.9,0.5,1.6,1,2.1s1.1,0.7,1.9,0.7c0.9,0,1.6-0.3,2.2-1c0.6-0.7,0.9-1.5,0.9-2.6
		c0-1-0.3-1.8-0.9-2.4c-0.6-0.6-1.3-0.9-2.3-0.9c-0.6,0-1.1,0.1-1.6,0.4c-0.5,0.3-0.8,0.6-1.1,1l-1.7-0.2l1.4-7.6h7.3v1.7h-5.9
		l-0.8,4c0.9-0.6,1.8-0.9,2.8-0.9c1.3,0,2.4,0.4,3.3,1.3c0.9,0.9,1.3,2,1.3,3.4c0,1.3-0.4,2.5-1.2,3.5c-0.9,1.2-2.2,1.8-3.9,1.8
		c-1.3,0-2.4-0.4-3.3-1.1C140.5,978,140.2,977,140.1,975.7z"/>
</g>
<g class="st23">
	<path class="st24" d="M120.9,843.5h-9.7v-1.7h9.7V843.5z"/>
	<path class="st24" d="M129.7,849.9h-1.8v-11.5c-0.4,0.4-1,0.8-1.7,1.2c-0.7,0.4-1.3,0.7-1.9,0.9v-1.7c1-0.5,1.9-1.1,2.7-1.7
		c0.8-0.7,1.3-1.3,1.6-2h1.2L129.7,849.9L129.7,849.9z"/>
	<path class="st24" d="M135.4,849.9v-2.1h2.1v2.1H135.4z"/>
	<path class="st24" d="M140.1,842.7c0-1.7,0.2-3.1,0.5-4.2s0.9-1.9,1.6-2.5s1.6-0.9,2.7-0.9c0.8,0,1.5,0.2,2.1,0.5
		c0.6,0.3,1.1,0.8,1.5,1.4c0.4,0.6,0.7,1.3,0.9,2.2s0.3,2,0.3,3.5c0,1.7-0.2,3.1-0.5,4.2s-0.9,1.9-1.6,2.5s-1.6,0.9-2.7,0.9
		c-1.4,0-2.5-0.5-3.3-1.5C140.6,847.4,140.1,845.4,140.1,842.7z M141.9,842.7c0,2.4,0.3,4,0.8,4.8c0.6,0.8,1.3,1.2,2.1,1.2
		c0.8,0,1.5-0.4,2.1-1.2c0.6-0.8,0.8-2.4,0.8-4.8c0-2.4-0.3-4-0.8-4.8c-0.6-0.8-1.3-1.2-2.1-1.2s-1.5,0.4-2,1.1
		C142.3,838.6,141.9,840.2,141.9,842.7z"/>
</g>
<g class="st23">
	<path class="st24" d="M120.9,715.9h-9.7v-1.7h9.7V715.9z"/>
	<path class="st24" d="M122.9,715.1c0-1.7,0.2-3.1,0.5-4.2c0.3-1.1,0.9-1.9,1.6-2.5s1.6-0.9,2.7-0.9c0.8,0,1.5,0.2,2.1,0.5
		c0.6,0.3,1.1,0.8,1.5,1.4c0.4,0.6,0.7,1.3,0.9,2.2c0.2,0.9,0.3,2,0.3,3.5c0,1.7-0.2,3.1-0.5,4.2s-0.9,1.9-1.6,2.5s-1.6,0.9-2.7,0.9
		c-1.4,0-2.5-0.5-3.3-1.5C123.4,719.8,122.9,717.8,122.9,715.1z M124.8,715.1c0,2.4,0.3,4,0.8,4.8c0.6,0.8,1.3,1.2,2.1,1.2
		s1.5-0.4,2.1-1.2c0.6-0.8,0.8-2.4,0.8-4.8c0-2.4-0.3-4-0.8-4.8c-0.6-0.8-1.3-1.2-2.1-1.2c-0.8,0-1.5,0.4-2,1.1
		C125.1,711,124.8,712.6,124.8,715.1z"/>
	<path class="st24" d="M135.4,722.3v-2.1h2.1v2.1H135.4z"/>
	<path class="st24" d="M140.1,718.5l1.9-0.2c0.1,0.9,0.5,1.6,1,2.1s1.1,0.7,1.9,0.7c0.9,0,1.6-0.3,2.2-1c0.6-0.7,0.9-1.5,0.9-2.6
		c0-1-0.3-1.8-0.9-2.4c-0.6-0.6-1.3-0.9-2.3-0.9c-0.6,0-1.1,0.1-1.6,0.4c-0.5,0.3-0.8,0.6-1.1,1l-1.7-0.2l1.4-7.6h7.3v1.7h-5.9
		l-0.8,4c0.9-0.6,1.8-0.9,2.8-0.9c1.3,0,2.4,0.4,3.3,1.3c0.9,0.9,1.3,2,1.3,3.4c0,1.3-0.4,2.5-1.2,3.5c-0.9,1.2-2.2,1.8-3.9,1.8
		c-1.3,0-2.4-0.4-3.3-1.1C140.5,720.8,140.2,719.7,140.1,718.5z"/>
</g>
<g class="st23">
	<path class="st24" d="M122.9,585.4c0-1.7,0.2-3.1,0.5-4.2c0.3-1.1,0.9-1.9,1.6-2.5s1.6-0.9,2.7-0.9c0.8,0,1.5,0.2,2.1,0.5
		c0.6,0.3,1.1,0.8,1.5,1.4c0.4,0.6,0.7,1.3,0.9,2.2c0.2,0.9,0.3,2,0.3,3.5c0,1.7-0.2,3.1-0.5,4.2s-0.9,1.9-1.6,2.5s-1.6,0.9-2.7,0.9
		c-1.4,0-2.5-0.5-3.3-1.5C123.4,590.2,122.9,588.2,122.9,585.4z M124.8,585.4c0,2.4,0.3,4,0.8,4.8c0.6,0.8,1.3,1.2,2.1,1.2
		s1.5-0.4,2.1-1.2c0.6-0.8,0.8-2.4,0.8-4.8c0-2.4-0.3-4-0.8-4.8c-0.6-0.8-1.3-1.2-2.1-1.2c-0.8,0-1.5,0.4-2,1.1
		C125.1,581.3,124.8,583,124.8,585.4z"/>
	<path class="st24" d="M135.4,592.7v-2.1h2.1v2.1H135.4z"/>
	<path class="st24" d="M140.1,585.4c0-1.7,0.2-3.1,0.5-4.2s0.9-1.9,1.6-2.5s1.6-0.9,2.7-0.9c0.8,0,1.5,0.2,2.1,0.5
		c0.6,0.3,1.1,0.8,1.5,1.4c0.4,0.6,0.7,1.3,0.9,2.2s0.3,2,0.3,3.5c0,1.7-0.2,3.1-0.5,4.2s-0.9,1.9-1.6,2.5s-1.6,0.9-2.7,0.9
		c-1.4,0-2.5-0.5-3.3-1.5C140.6,590.2,140.1,588.2,140.1,585.4z M141.9,585.4c0,2.4,0.3,4,0.8,4.8c0.6,0.8,1.3,1.2,2.1,1.2
		c0.8,0,1.5-0.4,2.1-1.2c0.6-0.8,0.8-2.4,0.8-4.8c0-2.4-0.3-4-0.8-4.8c-0.6-0.8-1.3-1.2-2.1-1.2s-1.5,0.4-2,1.1
		C142.3,581.3,141.9,583,141.9,585.4z"/>
</g>
<g class="st23">
	<path class="st24" d="M122.9,457.8c0-1.7,0.2-3.1,0.5-4.2c0.3-1.1,0.9-1.9,1.6-2.5s1.6-0.9,2.7-0.9c0.8,0,1.5,0.2,2.1,0.5
		c0.6,0.3,1.1,0.8,1.5,1.4c0.4,0.6,0.7,1.3,0.9,2.2c0.2,0.9,0.3,2,0.3,3.5c0,1.7-0.2,3.1-0.5,4.2s-0.9,1.9-1.6,2.5s-1.6,0.9-2.7,0.9
		c-1.4,0-2.5-0.5-3.3-1.5C123.4,462.6,122.9,460.6,122.9,457.8z M124.8,457.8c0,2.4,0.3,4,0.8,4.8c0.6,0.8,1.3,1.2,2.1,1.2
		s1.5-0.4,2.1-1.2c0.6-0.8,0.8-2.4,0.8-4.8s-0.3-4-0.8-4.8c-0.6-0.8-1.3-1.2-2.1-1.2c-0.8,0-1.5,0.4-2,1.1
		C125.1,453.7,124.8,455.4,124.8,457.8z"/>
	<path class="st24" d="M135.4,465.1V463h2.1v2.1H135.4z"/>
	<path class="st24" d="M140.1,461.2l1.9-0.2c0.1,0.9,0.5,1.6,1,2.1s1.1,0.7,1.9,0.7c0.9,0,1.6-0.3,2.2-1c0.6-0.7,0.9-1.5,0.9-2.6
		c0-1-0.3-1.8-0.9-2.4c-0.6-0.6-1.3-0.9-2.3-0.9c-0.6,0-1.1,0.1-1.6,0.4s-0.8,0.6-1.1,1l-1.7-0.2l1.4-7.6h7.3v1.7h-5.9l-0.8,4
		c0.9-0.6,1.8-0.9,2.8-0.9c1.3,0,2.4,0.4,3.3,1.3c0.9,0.9,1.3,2,1.3,3.4c0,1.3-0.4,2.5-1.2,3.5c-0.9,1.2-2.2,1.8-3.9,1.8
		c-1.3,0-2.4-0.4-3.3-1.1C140.5,463.5,140.2,462.5,140.1,461.2z"/>
</g>
<g class="st23">
	<path class="st24" d="M129.7,335.4h-1.8v-11.5c-0.4,0.4-1,0.8-1.7,1.2c-0.7,0.4-1.3,0.7-1.9,0.9v-1.7c1-0.5,1.9-1.1,2.7-1.7
		c0.8-0.7,1.3-1.3,1.6-2h1.2L129.7,335.4L129.7,335.4z"/>
	<path class="st24" d="M135.4,335.4v-2.1h2.1v2.1H135.4z"/>
	<path class="st24" d="M140.1,328.2c0-1.7,0.2-3.1,0.5-4.2s0.9-1.9,1.6-2.5s1.6-0.9,2.7-0.9c0.8,0,1.5,0.2,2.1,0.5
		c0.6,0.3,1.1,0.8,1.5,1.4c0.4,0.6,0.7,1.3,0.9,2.2c0.2,0.9,0.3,2,0.3,3.5c0,1.7-0.2,3.1-0.5,4.2s-0.9,1.9-1.6,2.5s-1.6,0.9-2.7,0.9
		c-1.4,0-2.5-0.5-3.3-1.5C140.6,332.9,140.1,330.9,140.1,328.2z M141.9,328.2c0,2.4,0.3,4,0.8,4.8c0.6,0.8,1.3,1.2,2.1,1.2
		c0.8,0,1.5-0.4,2.1-1.2c0.6-0.8,0.8-2.4,0.8-4.8s-0.3-4-0.8-4.8c-0.6-0.8-1.3-1.2-2.1-1.2s-1.5,0.4-2,1.1
		C142.3,324.1,141.9,325.8,141.9,328.2z"/>
</g>
<g class="st23">
	<path class="st24" d="M129.7,207.9h-1.8v-11.5c-0.4,0.4-1,0.8-1.7,1.2c-0.7,0.4-1.3,0.7-1.9,0.9v-1.7c1-0.5,1.9-1.1,2.7-1.7
		c0.8-0.7,1.3-1.3,1.6-2h1.2L129.7,207.9L129.7,207.9z"/>
	<path class="st24" d="M135.4,207.9v-2.1h2.1v2.1H135.4z"/>
	<path class="st24" d="M140.1,204l1.9-0.2c0.1,0.9,0.5,1.6,1,2.1s1.1,0.7,1.9,0.7c0.9,0,1.6-0.3,2.2-1c0.6-0.7,0.9-1.5,0.9-2.6
		c0-1-0.3-1.8-0.9-2.4c-0.6-0.6-1.3-0.9-2.3-0.9c-0.6,0-1.1,0.1-1.6,0.4c-0.5,0.3-0.8,0.6-1.1,1l-1.7-0.2l1.4-7.6h7.3v1.7h-5.9
		l-0.8,4c0.9-0.6,1.8-0.9,2.8-0.9c1.3,0,2.4,0.4,3.3,1.3c0.9,0.9,1.3,2,1.3,3.4c0,1.3-0.4,2.5-1.2,3.5c-0.9,1.2-2.2,1.8-3.9,1.8
		c-1.3,0-2.4-0.4-3.3-1.1C140.5,206.3,140.2,205.2,140.1,204z"/>
</g>
<g class="st23">
	<path class="st24" d="M132.4,76.5v1.7h-9.7c0-0.4,0.1-0.9,0.2-1.3c0.2-0.7,0.6-1.3,1.2-2c0.5-0.6,1.3-1.4,2.4-2.2
		c1.6-1.3,2.7-2.4,3.2-3.1c0.6-0.8,0.8-1.5,0.8-2.2s-0.3-1.3-0.8-1.8s-1.2-0.7-2-0.7c-0.9,0-1.6,0.3-2.1,0.8s-0.7,1.2-0.7,2.2
		l-1.9-0.2c0.1-1.4,0.6-2.4,1.4-3.2c0.8-0.7,1.9-1.1,3.3-1.1c1.4,0,2.5,0.4,3.4,1.2c0.8,0.8,1.2,1.8,1.2,2.9c0,0.6-0.1,1.2-0.4,1.7
		s-0.6,1.2-1.2,1.8c-0.6,0.6-1.5,1.5-2.8,2.6c-1.1,0.9-1.8,1.5-2.1,1.9c-0.3,0.3-0.6,0.7-0.8,1C125,76.5,132.4,76.5,132.4,76.5z"/>
	<path class="st24" d="M135.4,78.2v-2.1h2.1v2.1H135.4z"/>
	<path class="st24" d="M140.1,70.9c0-1.7,0.2-3.1,0.5-4.2s0.9-1.9,1.6-2.5s1.6-0.9,2.7-0.9c0.8,0,1.5,0.2,2.1,0.5
		c0.6,0.3,1.1,0.8,1.5,1.4c0.4,0.6,0.7,1.3,0.9,2.2c0.2,0.9,0.3,2,0.3,3.5c0,1.7-0.2,3.1-0.5,4.2s-0.9,1.9-1.6,2.5s-1.6,0.9-2.7,0.9
		c-1.4,0-2.5-0.5-3.3-1.5C140.6,75.7,140.1,73.7,140.1,70.9z M141.9,70.9c0,2.4,0.3,4,0.8,4.8c0.6,0.8,1.3,1.2,2.1,1.2
		c0.8,0,1.5-0.4,2.1-1.2c0.6-0.8,0.8-2.4,0.8-4.8s-0.3-4-0.8-4.8c-0.6-0.8-1.3-1.2-2.1-1.2s-1.5,0.4-2,1.1
		C142.3,66.9,141.9,68.5,141.9,70.9z"/>
</g>
<g class="st25">
	<path class="st24" d="M4.5,906.8v23.9h64.7v5.9H4.5v23.8h-5l0-53.6H4.5z"/>
	<path class="st24" d="M35.8,847.3v32.6h28.4v-37.5h5v43.4H-0.5v-43.1h5v37.2h26.3v-32.6H35.8z"/>
	<path class="st24" d="M-0.5,812.4L61,786.7l-61.5-25.8v-7.8h69.7v5.9H38.9l-31.1-0.5l61.4,25.9v4.5L8,814.8l30.7-0.5h30.5v5.9H-0.5
		V812.4z"/>
	<path class="st24" d="M40.8,719.7h28.4v5.9H-0.5v-23.7c0-7.2,1.9-13,5.6-17.2c3.7-4.2,8.8-6.3,15.3-6.3c6.5,0,11.6,2,15.1,6.1
		c3.6,4,5.3,9.9,5.3,17.5V719.7z M35.8,719.7v-17.8c0-5.7-1.4-10.1-4.1-13.1c-2.7-3-6.5-4.5-11.4-4.5c-4.8,0-8.7,1.5-11.5,4.5
		c-2.9,3-4.3,7.2-4.4,12.7v18.2H35.8z"/>
	<path class="st24" d="M35.8,617v32.6h28.4v-37.5h5v43.4H-0.5v-43.1h5v37.2h26.3V617H35.8z"/>
	<path class="st24" d="M40.2,563.9v20.2h29v5.9H-0.5v-22.6c0-7.4,1.8-13.2,5.4-17.4c3.6-4.2,8.6-6.3,15.1-6.3
		c4.5,0,8.4,1.3,11.8,3.9c3.4,2.6,5.8,6.1,7.1,10.5l29.7-17.4h0.6v6.3L40.2,563.9z M35.2,584.1v-18c0-4.9-1.4-8.9-4.2-11.9
		c-2.8-3-6.5-4.5-10.9-4.5c-4.9,0-8.7,1.6-11.5,4.7c-2.7,3.1-4.1,7.5-4.1,13.2v16.6H35.2z"/>
	<path class="st24" d="M49.6,480.3v31.6l19.6,7.2v6.2l-69.7-26.4v-5.6L69.2,467v6.1L49.6,480.3z M44.6,510.1v-27.9l-37.9,14
		L44.6,510.1z"/>
	<path class="st24" d="M4.5,405.8v23.9h64.7v5.9H4.5v23.8h-5v-53.6H4.5z"/>
	<path class="st24" d="M-0.5,336.8h47.6c4.7,0,8.8,1.1,12.2,3.1c3.5,2,6.1,4.9,8,8.6c1.9,3.7,2.8,8,2.8,12.8c0,7.3-2,13.2-6,17.6
		c-4,4.4-9.5,6.7-16.6,6.9h-48V380h47.1c5.9,0,10.4-1.7,13.7-5c3.2-3.3,4.9-7.9,4.9-13.6s-1.6-10.3-4.9-13.6c-3.3-3.3-7.8-5-13.6-5
		H-0.5V336.8z"/>
	<path class="st24" d="M40.2,284.5v20.2h29v5.9H-0.5v-22.6c0-7.4,1.8-13.2,5.4-17.4c3.6-4.2,8.6-6.3,15.1-6.3
		c4.5,0,8.4,1.3,11.8,3.9c3.4,2.6,5.8,6.1,7.1,10.5l29.7-17.4h0.6v6.3L40.2,284.5z M35.2,304.8v-18c0-4.9-1.4-8.9-4.2-11.9
		c-2.8-3-6.5-4.5-10.9-4.5c-4.9,0-8.7,1.6-11.5,4.7c-2.7,3.1-4.1,7.5-4.1,13.2v16.6H35.2z"/>
	<path class="st24" d="M35.8,200.1v32.6h28.4v-37.5h5v43.4H-0.5v-43.1h5v37.2h26.3v-32.6H35.8z"/>
</g>
</svg>
