<?xml version="1.0" encoding="utf-8"?>
<!-- Generator: Adobe Illustrator 27.2.0, SVG Export Plug-In . SVG Version: 6.00 Build 0)  -->
<svg version="1.1" id="Layer_2_00000083788359589730909240000000002984538432814015_"
	 xmlns="http://www.w3.org/2000/svg" xmlns:xlink="http://www.w3.org/1999/xlink" x="0px" y="0px" viewBox="0 0 381.8 66.8"
	 style="enable-background:new 0 0 381.8 66.8;" xml:space="preserve">
<style type="text/css">
	.st0{fill:#10151A;}
	.st1{fill:#8A8ABF;}
	.st2{fill:#808080;}
	.st3{enable-background:new    ;}
	.st4{fill:#222133;}
</style>
<path class="st0" d="M374.4,0H191v66.8h183.4c4.1,0,7.4-3.3,7.4-7.3V7.3C381.8,3.3,378.5,0,374.4,0L374.4,0z"/>
<g id="Layer_1-2">
	<g>
		<g>
			<path class="st1" d="M7.6,66.5c-3.8,0-7-3.1-7-7V7.3c0-3.8,3.1-7,7-7h183.1v66.1L7.6,66.5L7.6,66.5z"/>
			<path class="st1" d="M190.3,0.7v65.4H7.6c-3.7,0-6.6-3-6.6-6.6V7.3c0-3.6,3-6.6,6.6-6.6H190.3 M191,0H7.6C3.5,0,0.2,3.3,0.2,7.3
				v52.2c0,4.1,3.3,7.3,7.3,7.3H191L191,0L191,0L191,0z"/>
		</g>
		<path class="st2" d="M374.4,0.7c3.6,0,6.6,3,6.6,6.6v52.2c0,3.7-3,6.6-6.6,6.6H191.7V0.7H374.4 M374.4,0H191v66.8h183.4
			c4.1,0,7.4-3.3,7.4-7.3V7.3C381.8,3.3,378.5,0,374.4,0L374.4,0z"/>
		<g class="st3">
			<path class="st2" d="M260.4,33l6.5-12.5h3.7l-8.6,15.6v9.3h-3.3v-9.3l-8.6-15.6h3.8L260.4,33z"/>
			<path class="st2" d="M281,45.8c-2.5,0-4.5-0.8-6.1-2.5c-1.6-1.6-2.4-3.8-2.4-6.6v-0.6c0-1.8,0.3-3.5,1.1-4.9
				c0.7-1.4,1.7-2.6,2.9-3.4c1.3-0.8,2.6-1.2,4.1-1.2c2.4,0,4.3,0.8,5.6,2.4c1.3,1.6,2,3.9,2,6.8v1.3h-12.5c0,1.8,0.6,3.3,1.6,4.4
				s2.3,1.7,3.9,1.7c1.1,0,2.1-0.2,2.8-0.7c0.8-0.5,1.5-1.1,2-1.8l1.9,1.5C286.5,44.6,284.1,45.8,281,45.8z M280.7,29.2
				c-1.3,0-2.3,0.5-3.2,1.4c-0.9,0.9-1.4,2.2-1.6,3.9h9.3v-0.2c-0.1-1.6-0.5-2.9-1.3-3.7C283,29.6,282,29.2,280.7,29.2z"/>
			<path class="st2" d="M303.3,45.4c-0.2-0.4-0.3-1-0.4-1.9c-1.5,1.5-3.2,2.3-5.3,2.3c-1.8,0-3.3-0.5-4.5-1.5
				c-1.2-1-1.8-2.3-1.8-3.9c0-1.9,0.7-3.4,2.2-4.5c1.5-1.1,3.5-1.6,6.2-1.6h3.1v-1.5c0-1.1-0.3-2-1-2.6s-1.6-1-2.9-1
				c-1.1,0-2.1,0.3-2.8,0.9c-0.8,0.6-1.1,1.3-1.1,2.1h-3.2c0-0.9,0.3-1.8,1-2.7c0.7-0.9,1.5-1.5,2.7-2c1.1-0.5,2.4-0.8,3.7-0.8
				c2.1,0,3.8,0.5,5,1.6c1.2,1.1,1.8,2.5,1.9,4.4v8.5c0,1.7,0.2,3,0.6,4.1v0.3H303.3z M298.1,43c1,0,1.9-0.3,2.8-0.8s1.5-1.2,1.9-2
				v-3.8h-2.5c-3.9,0-5.8,1.1-5.8,3.4c0,1,0.3,1.8,1,2.3C296.2,42.7,297,43,298.1,43z"/>
			<path class="st2" d="M319.9,29.8c-0.5-0.1-1-0.1-1.6-0.1c-2.1,0-3.5,0.9-4.2,2.6v13.1H311V26.9h3.1l0.1,2.1
				c1-1.7,2.5-2.5,4.4-2.5c0.6,0,1.1,0.1,1.4,0.2V29.8z"/>
		</g>
		<g class="st3">
			<path class="st4" d="M52.2,20l8.1,20.3L68.5,20h4.3v24.9h-3.3v-9.7l0.3-10.5l-8.2,20.1h-2.5L51,24.8l0.3,10.4v9.7H48V20H52.2z"/>
			<path class="st4" d="M77.2,35.5c0-1.8,0.4-3.4,1.1-4.9c0.7-1.4,1.7-2.6,3-3.3c1.3-0.8,2.7-1.2,4.3-1.2c2.5,0,4.6,0.9,6.1,2.6
				c1.6,1.7,2.3,4.1,2.3,7v0.2c0,1.8-0.3,3.4-1,4.8s-1.7,2.5-3,3.3c-1.3,0.8-2.8,1.2-4.4,1.2c-2.5,0-4.5-0.9-6.1-2.6
				c-1.6-1.7-2.3-4-2.3-6.9V35.5z M80.4,35.9c0,2.1,0.5,3.7,1.4,4.9c1,1.2,2.2,1.9,3.8,1.9c1.6,0,2.9-0.6,3.8-1.9
				c0.9-1.3,1.4-3,1.4-5.3c0-2-0.5-3.7-1.4-4.9c-1-1.3-2.2-1.9-3.8-1.9c-1.6,0-2.8,0.6-3.8,1.9C80.9,31.8,80.4,33.6,80.4,35.9z"/>
			<path class="st4" d="M101,26.4l0.1,2.3c1.4-1.8,3.3-2.7,5.5-2.7c3.9,0,5.9,2.2,5.9,6.6v12.2h-3.2V32.7c0-1.3-0.3-2.3-0.9-3
				c-0.6-0.6-1.5-1-2.8-1c-1,0-1.9,0.3-2.7,0.8c-0.8,0.5-1.4,1.3-1.8,2.2v13.2H98V26.4H101z"/>
			<path class="st4" d="M121.6,21.9v4.5h3.5v2.4h-3.5v11.5c0,0.7,0.2,1.3,0.5,1.7c0.3,0.4,0.8,0.6,1.6,0.6c0.4,0,0.9-0.1,1.5-0.2
				v2.5c-0.8,0.2-1.6,0.3-2.4,0.3c-1.4,0-2.5-0.4-3.2-1.3c-0.7-0.9-1.1-2.1-1.1-3.6V28.9h-3.4v-2.4h3.4v-4.5H121.6z"/>
			<path class="st4" d="M131.9,28.7c1.4-1.7,3.2-2.6,5.5-2.6c3.9,0,5.9,2.2,5.9,6.6v12.2h-3.2V32.7c0-1.3-0.3-2.3-0.9-3
				c-0.6-0.6-1.5-1-2.8-1c-1,0-1.9,0.3-2.7,0.8c-0.8,0.5-1.4,1.3-1.8,2.2v13.2h-3.2V18.7h3.2V28.7z"/>
		</g>
	</g>
</g>
</svg>
