<?xml version="1.0" encoding="utf-8"?>
<!-- Generator: Adobe Illustrator 27.2.0, SVG Export Plug-In . SVG Version: 6.00 Build 0)  -->
<svg version="1.1" id="Layer_2_00000156568492761820460920000003878655655971988896_"
	 xmlns="http://www.w3.org/2000/svg" xmlns:xlink="http://www.w3.org/1999/xlink" x="0px" y="0px" viewBox="0 0 232.8 226.1"
	 style="enable-background:new 0 0 232.8 226.1;" xml:space="preserve">
<style type="text/css">
	.st0{fill:#BDCCD4;}
</style>
<g id="Layer_1-2">
	<g>
		<g>
			<g>
				<path class="st0" d="M159.6,163.4v9.7H185v7.4H49.9V173h25.4v-9.7L159.6,163.4 M160.5,162.5H74.4v9.7H49v9.2h136.8v-9.2h-25.4
					L160.5,162.5L160.5,162.5L160.5,162.5z"/>
				<path class="st0" d="M214.8,1.3c9.2,0,16.7,7.5,16.7,16.7v110.9c0,9.2-7.5,16.7-16.7,16.7h-56.4v7.4H74.5v-7.4H18
					c-9.2,0-16.7-7.5-16.7-16.7V18C1.3,8.8,8.8,1.3,18,1.3H214.8 M16.5,135.8h199.9c4,0,7.2-3.2,7.2-7.2V18.3c0-4-3.2-7.2-7.2-7.2
					H16.5c-4,0-7.2,3.2-7.2,7.2v110.3C9.3,132.6,12.5,135.8,16.5,135.8 M214.8,0.4H18C8.3,0.4,0.4,8.3,0.4,18v110.9
					c0,9.7,7.9,17.6,17.6,17.6h55.6v7.4h85.7v-7.4h55.6c9.7,0,17.6-7.9,17.6-17.6V18C232.4,8.3,224.5,0.4,214.8,0.4L214.8,0.4z
					 M16.5,134.9c-3.5,0-6.3-2.8-6.3-6.3V18.3c0-3.5,2.8-6.3,6.3-6.3h199.9c3.5,0,6.3,2.8,6.3,6.3v110.3c0,3.5-2.8,6.3-6.3,6.3
					L16.5,134.9L16.5,134.9z"/>
			</g>
			<g>
				<path class="st0" d="M71.1,75.8l19.1,6.4c0.7,0.2,1.2,0.9,1.2,1.7v10.3c0,1.2-1.2,2.1-2.4,1.6L51.8,80.6
					c-0.7-0.3-1.1-0.9-1.1-1.6v-9.9c0-0.7,0.4-1.3,1.1-1.6L89,52.4c1.2-0.5,2.4,0.4,2.4,1.6v10.2c0,0.7-0.5,1.4-1.2,1.7l-19.1,6.6
					C69.5,73,69.5,75.3,71.1,75.8L71.1,75.8z"/>
				<path class="st0" d="M105,107.9h-7.3c-1.2,0-2-1.1-1.7-2.3l21.8-69.2c0.2-0.7,0.9-1.2,1.7-1.2h7.4c1.2,0,2,1.1,1.7,2.3
					l-21.8,69.2C106.4,107.4,105.8,107.9,105,107.9L105,107.9z"/>
				<path class="st0" d="M155,72.4l-19-6.5c-0.7-0.2-1.2-0.9-1.2-1.7V54c0-1.2,1.3-2.1,2.4-1.6l36.9,15.1c0.6,0.3,1.1,0.9,1.1,1.6
					V79c0,0.7-0.4,1.3-1.1,1.6l-36.9,15.1c-1.1,0.5-2.4-0.4-2.4-1.6V83.9c0-0.7,0.5-1.4,1.2-1.7l19.1-6.6
					C156.6,75.1,156.6,72.9,155,72.4L155,72.4z"/>
			</g>
		</g>
		<g>
			<path class="st0" d="M58.4,211l6.3-18.1h3.2l-8.1,21.9h-2.6L49,193h3.1L58.4,211z"/>
			<path class="st0" d="M70.3,194.3c0-0.5,0.1-0.8,0.4-1.1s0.7-0.5,1.2-0.5s0.9,0.2,1.2,0.5c0.3,0.3,0.4,0.7,0.4,1.1
				c0,0.5-0.1,0.8-0.4,1.1s-0.7,0.5-1.2,0.5s-0.9-0.2-1.2-0.5C70.5,195.1,70.3,194.7,70.3,194.3z M73.3,214.9h-2.8v-16.3h2.8V214.9z
				"/>
			<path class="st0" d="M84.6,215.2c-2.2,0-4-0.7-5.4-2.2c-1.4-1.4-2.1-3.4-2.1-5.8v-0.5c0-1.6,0.3-3.1,0.9-4.3
				c0.6-1.3,1.5-2.3,2.6-3s2.3-1.1,3.6-1.1c2.1,0,3.8,0.7,4.9,2.1c1.2,1.4,1.8,3.4,1.8,6v1.2h-11c0,1.6,0.5,2.9,1.4,3.9
				s2,1.5,3.4,1.5c1,0,1.8-0.2,2.5-0.6s1.3-0.9,1.8-1.6l1.7,1.3C89.3,214.1,87.3,215.2,84.6,215.2L84.6,215.2z M84.2,200.6
				c-1.1,0-2.1,0.4-2.8,1.2s-1.2,2-1.4,3.4h8.2V205c-0.1-1.4-0.5-2.5-1.1-3.3C86.3,201,85.4,200.6,84.2,200.6L84.2,200.6z"/>
			<path class="st0" d="M108.6,211l3.1-12.5h2.8l-4.7,16.3h-2.3l-4-12.3l-3.9,12.3h-2.3l-4.7-16.3h2.8l3.2,12.2l3.8-12.2h2.2
				L108.6,211L108.6,211z"/>
			<path class="st0" d="M125.4,214.9V193h6.2c1.9,0,3.6,0.4,5.1,1.3c1.5,0.8,2.6,2,3.4,3.6c0.8,1.6,1.2,3.3,1.2,5.4v1.4
				c0,2.1-0.4,3.9-1.2,5.4c-0.8,1.6-1.9,2.8-3.4,3.6s-3.2,1.3-5.2,1.3L125.4,214.9L125.4,214.9z M128.3,195.3v17.2h3
				c2.2,0,4-0.7,5.2-2.1c1.2-1.4,1.9-3.4,1.9-5.9v-1.3c0-2.5-0.6-4.4-1.8-5.8s-2.8-2.1-5-2.1L128.3,195.3L128.3,195.3z"/>
			<path class="st0" d="M155.2,214.9c-0.2-0.3-0.3-0.9-0.4-1.7c-1.3,1.3-2.8,2-4.6,2c-1.6,0-2.9-0.5-4-1.4s-1.5-2.1-1.5-3.5
				c0-1.7,0.6-3,1.9-4c1.3-0.9,3.1-1.4,5.4-1.4h2.7v-1.3c0-1-0.3-1.7-0.9-2.3c-0.6-0.6-1.4-0.9-2.6-0.9c-1,0-1.8,0.2-2.5,0.8
				c-0.7,0.5-1,1.1-1,1.8H145c0-0.8,0.3-1.6,0.9-2.4c0.6-0.8,1.4-1.4,2.3-1.8c1-0.4,2.1-0.7,3.3-0.7c1.9,0,3.3,0.5,4.4,1.4
				s1.6,2.2,1.7,3.9v7.5c0,1.5,0.2,2.7,0.6,3.6v0.2L155.2,214.9L155.2,214.9z M150.6,212.8c0.9,0,1.7-0.2,2.5-0.7s1.4-1,1.7-1.8V207
				h-2.2c-3.4,0-5.1,1-5.1,3c0,0.9,0.3,1.6,0.9,2.1C148.9,212.5,149.7,212.8,150.6,212.8L150.6,212.8z"/>
			<path class="st0" d="M165.7,194.6v3.9h3v2.2h-3v10.1c0,0.7,0.1,1.1,0.4,1.5s0.7,0.5,1.4,0.5c0.3,0,0.8-0.1,1.3-0.2v2.2
				c-0.7,0.2-1.4,0.3-2.1,0.3c-1.2,0-2.2-0.4-2.8-1.1c-0.6-0.7-0.9-1.8-0.9-3.2v-10.1h-3v-2.2h3v-3.9H165.7z"/>
			<path class="st0" d="M182.1,214.9c-0.2-0.3-0.3-0.9-0.4-1.7c-1.3,1.3-2.8,2-4.6,2c-1.6,0-2.9-0.5-4-1.4s-1.5-2.1-1.5-3.5
				c0-1.7,0.6-3,1.9-4c1.3-0.9,3.1-1.4,5.4-1.4h2.7v-1.3c0-1-0.3-1.7-0.9-2.3c-0.6-0.6-1.4-0.9-2.6-0.9c-1,0-1.8,0.2-2.5,0.8
				c-0.7,0.5-1,1.1-1,1.8h-2.8c0-0.8,0.3-1.6,0.9-2.4c0.6-0.8,1.4-1.4,2.3-1.8c1-0.4,2.1-0.7,3.3-0.7c1.9,0,3.3,0.5,4.4,1.4
				s1.6,2.2,1.7,3.9v7.5c0,1.5,0.2,2.7,0.6,3.6v0.2L182.1,214.9L182.1,214.9z M177.4,212.8c0.9,0,1.7-0.2,2.5-0.7s1.4-1,1.7-1.8V207
				h-2.2c-3.4,0-5.1,1-5.1,3c0,0.9,0.3,1.6,0.9,2.1C175.8,212.5,176.5,212.8,177.4,212.8L177.4,212.8z"/>
		</g>
	</g>
</g>
</svg>
