<?xml version="1.0" encoding="utf-8"?>
<!-- Generator: Adobe Illustrator 27.2.0, SVG Export Plug-In . SVG Version: 6.00 Build 0)  -->
<svg version="1.1" id="Layer_2_00000162310909676010607290000013067279697444931221_"
	 xmlns="http://www.w3.org/2000/svg" xmlns:xlink="http://www.w3.org/1999/xlink" x="0px" y="0px" viewBox="0 0 232.8 226.1"
	 style="enable-background:new 0 0 232.8 226.1;" xml:space="preserve">
<style type="text/css">
	.st0{fill:#BDCCD4;}
</style>
<g id="Layer_1-2">
	<g>
		<g>
			<g>
				<path class="st0" d="M159.6,163.4v9.7H185v7.4H49.9V173h25.4v-9.7L159.6,163.4 M160.5,162.5H74.4v9.7H49v9.2h136.8v-9.2h-25.4
					L160.5,162.5L160.5,162.5L160.5,162.5z"/>
				<path class="st0" d="M214.8,1.3c9.2,0,16.7,7.5,16.7,16.7v110.9c0,9.2-7.5,16.7-16.7,16.7h-56.4v7.4H74.5v-7.4H18
					c-9.2,0-16.7-7.5-16.7-16.7V18C1.3,8.8,8.8,1.3,18,1.3H214.8 M16.5,135.8h199.9c4,0,7.2-3.2,7.2-7.2V18.3c0-4-3.2-7.2-7.2-7.2
					H16.5c-4,0-7.2,3.2-7.2,7.2v110.3C9.3,132.6,12.5,135.8,16.5,135.8 M214.8,0.4H18C8.3,0.4,0.4,8.3,0.4,18v110.9
					c0,9.7,7.9,17.6,17.6,17.6h55.6v7.4h85.7v-7.4h55.6c9.7,0,17.6-7.9,17.6-17.6V18C232.4,8.3,224.5,0.4,214.8,0.4L214.8,0.4z
					 M16.5,134.9c-3.5,0-6.3-2.8-6.3-6.3V18.3c0-3.5,2.8-6.3,6.3-6.3h199.9c3.5,0,6.3,2.8,6.3,6.3v110.3c0,3.5-2.8,6.3-6.3,6.3
					L16.5,134.9L16.5,134.9z"/>
			</g>
			<g>
				<path class="st0" d="M104.9,98.5h24.7c0.8,0,1.5,0.7,1.5,1.5v5.4c0,0.8-0.7,1.5-1.5,1.5h-24.7c-0.8,0-1.5-0.7-1.5-1.5V100
					C103.4,99.2,104.1,98.5,104.9,98.5z"/>
				<path class="st0" d="M131.1,122.1v-11.9c0-0.8-0.7-1.5-1.5-1.5H105c-0.8,0-1.5,0.7-1.5,1.5v11.9H131.1L131.1,122.1z"/>
				<path class="st0" d="M154.4,35.4h6.7c0.8,0,1.4-0.6,1.4-1.4v-6.7c0-0.8-0.6-1.4-1.4-1.4h-6.7c-0.8,0-1.4,0.6-1.4,1.4V29h-31
					v-1.7c0-0.8-0.6-1.4-1.4-1.4h-6.7c-0.8,0-1.4,0.6-1.4,1.4V29h-31v-1.7c0-0.8-0.6-1.4-1.4-1.4h-6.7c-0.8,0-1.4,0.6-1.4,1.4V34
					c0,0.8,0.6,1.4,1.4,1.4h6.7c0.8,0,1.4-0.6,1.4-1.4v-1.7h18.3c-5.6,2-10.3,5-14.1,9c-8,8.5-10,19.4-10.5,25.6h-1.8
					c-0.8,0-1.4,0.6-1.4,1.4V75c0,0.8,0.6,1.4,1.4,1.4h6.7c0.8,0,1.4-0.6,1.4-1.4v-6.7c0-0.8-0.6-1.4-1.4-1.4h-1.6
					c0.5-5.8,2.4-15.8,9.6-23.4c5.8-6.2,14-9.7,24.4-10.5v1c0,0.8,0.6,1.4,1.4,1.4h6.7c0.8,0,1.4-0.6,1.4-1.4v-0.9
					c10.3,0.8,18.4,4.3,24.3,10.5c7.2,7.6,9.2,17.6,9.7,23.4h-1.5c-0.8,0-1.4,0.6-1.4,1.4V75c0,0.8,0.6,1.4,1.4,1.4h6.7
					c0.8,0,1.4-0.6,1.4-1.4v-6.7c0-0.8-0.6-1.4-1.4-1.4h-1.8c-0.5-6.2-2.6-17.1-10.6-25.6c-3.8-4.1-8.6-7.1-14.1-9H153V34
					C153,34.8,153.7,35.4,154.4,35.4L154.4,35.4z"/>
				<path class="st0" d="M119.2,41v28.3c2.3,0.8,3.9,3,3.9,5.6c0,3.3-2.7,5.9-5.9,5.9s-5.9-2.7-5.9-5.9c0-2.6,1.7-4.8,4-5.6V41h-2.1
					c0,0-13.7,32.6-13.7,39.6s6,16.4,6,16.4h23.1c0,0,6-9.5,6-16.4S121.2,41,121.2,41H119.2L119.2,41z"/>
			</g>
		</g>
		<g>
			<path class="st0" d="M55.1,208.3l5-14.4h2.5l-6.5,17.4h-2l-6.5-17.4h2.5L55.1,208.3z"/>
			<path class="st0" d="M64.6,194.9c0-0.4,0.1-0.7,0.3-0.9c0.2-0.2,0.5-0.4,1-0.4s0.8,0.1,1,0.4c0.2,0.2,0.3,0.6,0.3,0.9
				c0,0.4-0.1,0.7-0.3,0.9c-0.2,0.2-0.6,0.4-1,0.4s-0.8-0.1-1-0.4C64.7,195.6,64.6,195.3,64.6,194.9z M67,211.3h-2.2v-13H67V211.3z"
				/>
			<path class="st0" d="M75.9,211.6c-1.8,0-3.2-0.6-4.3-1.7c-1.1-1.2-1.7-2.7-1.7-4.6v-0.4c0-1.3,0.2-2.4,0.7-3.4s1.2-1.8,2.1-2.4
				c0.9-0.6,1.8-0.9,2.9-0.9c1.7,0,3,0.6,3.9,1.7c0.9,1.1,1.4,2.7,1.4,4.8v0.9h-8.8c0,1.3,0.4,2.3,1.1,3.1s1.6,1.2,2.7,1.2
				c0.8,0,1.4-0.2,2-0.5c0.5-0.3,1-0.7,1.4-1.3l1.4,1.1C79.7,210.7,78.1,211.6,75.9,211.6z M75.6,199.9c-0.9,0-1.6,0.3-2.3,1
				s-1,1.6-1.1,2.7h6.5v-0.2c-0.1-1.1-0.4-2-0.9-2.6C77.3,200.3,76.5,199.9,75.6,199.9L75.6,199.9z"/>
			<path class="st0" d="M95,208.3l2.5-9.9h2.2l-3.8,13h-1.8l-3.1-9.8l-3.1,9.8h-1.8l-3.8-13h2.2l2.6,9.7l3-9.7h1.8L95,208.3
				L95,208.3z"/>
			<path class="st0" d="M114.1,208.3l5-14.4h2.5l-6.5,17.4h-2l-6.5-17.4h2.5C109.2,193.9,114.1,208.3,114.1,208.3z"/>
			<path class="st0" d="M123.6,194.9c0-0.4,0.1-0.7,0.3-0.9c0.2-0.2,0.5-0.4,1-0.4c0.4,0,0.8,0.1,1,0.4c0.2,0.2,0.3,0.6,0.3,0.9
				c0,0.4-0.1,0.7-0.3,0.9c-0.2,0.2-0.6,0.4-1,0.4s-0.8-0.1-1-0.4C123.8,195.6,123.6,195.3,123.6,194.9z M126,211.3h-2.2v-13h2.2
				V211.3z"/>
			<path class="st0" d="M137.1,207.9c0-0.6-0.2-1.1-0.7-1.4c-0.5-0.3-1.2-0.6-2.4-0.9c-1.1-0.2-2-0.5-2.7-0.9
				c-0.7-0.3-1.1-0.7-1.5-1.2s-0.5-1-0.5-1.7c0-1.1,0.4-2,1.4-2.7c0.9-0.7,2-1.1,3.4-1.1c1.5,0,2.7,0.4,3.6,1.1
				c0.9,0.8,1.4,1.7,1.4,2.9H137c0-0.6-0.3-1.1-0.8-1.6c-0.5-0.4-1.2-0.7-1.9-0.7s-1.4,0.2-1.9,0.5s-0.7,0.8-0.7,1.4
				c0,0.5,0.2,0.9,0.6,1.2c0.4,0.3,1.2,0.5,2.3,0.8c1.1,0.2,2,0.5,2.7,0.9c0.7,0.3,1.2,0.8,1.5,1.2c0.3,0.5,0.5,1.1,0.5,1.8
				c0,1.2-0.5,2.1-1.4,2.8s-2.1,1-3.6,1c-1,0-2-0.2-2.8-0.6c-0.8-0.4-1.4-0.9-1.9-1.5c-0.5-0.7-0.7-1.4-0.7-2.1h2.2
				c0,0.7,0.3,1.3,0.9,1.8c0.6,0.4,1.3,0.7,2.2,0.7c0.8,0,1.5-0.2,2-0.5C136.9,208.9,137.1,208.5,137.1,207.9L137.1,207.9z"/>
			<path class="st0" d="M150.2,210c-0.9,1-2.1,1.5-3.8,1.5c-1.4,0-2.4-0.4-3.2-1.2c-0.7-0.8-1.1-2-1.1-3.6v-8.4h2.2v8.4
				c0,2,0.8,2.9,2.4,2.9c1.7,0,2.8-0.6,3.4-1.9v-9.4h2.2v13h-2.1L150.2,210L150.2,210z"/>
			<path class="st0" d="M163.8,211.3c-0.1-0.3-0.2-0.7-0.3-1.4c-1,1.1-2.3,1.6-3.7,1.6c-1.3,0-2.3-0.4-3.1-1.1
				c-0.8-0.7-1.2-1.6-1.2-2.8c0-1.4,0.5-2.4,1.5-3.1c1-0.7,2.5-1.1,4.3-1.1h2.2v-1c0-0.8-0.2-1.4-0.7-1.9s-1.1-0.7-2-0.7
				c-0.8,0-1.5,0.2-2,0.6c-0.5,0.4-0.8,0.9-0.8,1.4h-2.2c0-0.6,0.2-1.3,0.7-1.9c0.5-0.6,1.1-1.1,1.9-1.4s1.7-0.5,2.6-0.5
				c1.5,0,2.7,0.4,3.5,1.1s1.3,1.8,1.3,3.1v6c0,1.2,0.2,2.1,0.5,2.8v0.2L163.8,211.3L163.8,211.3z M160.1,209.6c0.7,0,1.4-0.2,2-0.5
				c0.6-0.4,1.1-0.8,1.4-1.4V205h-1.7c-2.7,0-4.1,0.8-4.1,2.4c0,0.7,0.2,1.2,0.7,1.6C158.8,209.4,159.4,209.6,160.1,209.6
				L160.1,209.6z"/>
			<path class="st0" d="M171.5,211.3h-2.2v-18.4h2.2V211.3z"/>
			<path class="st0" d="M182.6,207.9c0-0.6-0.2-1.1-0.7-1.4c-0.5-0.3-1.2-0.6-2.4-0.9c-1.1-0.2-2-0.5-2.7-0.9
				c-0.7-0.3-1.1-0.7-1.5-1.2s-0.5-1-0.5-1.7c0-1.1,0.4-2,1.4-2.7c0.9-0.7,2-1.1,3.4-1.1c1.5,0,2.7,0.4,3.6,1.1
				c0.9,0.8,1.4,1.7,1.4,2.9h-2.2c0-0.6-0.3-1.1-0.8-1.6c-0.5-0.4-1.2-0.7-1.9-0.7s-1.4,0.2-1.9,0.5s-0.7,0.8-0.7,1.4
				c0,0.5,0.2,0.9,0.6,1.2c0.4,0.3,1.2,0.5,2.3,0.8c1.1,0.2,2,0.5,2.7,0.9c0.7,0.3,1.2,0.8,1.5,1.2c0.3,0.5,0.5,1.1,0.5,1.8
				c0,1.2-0.5,2.1-1.4,2.8s-2.1,1-3.6,1c-1,0-2-0.2-2.8-0.6c-0.8-0.4-1.4-0.9-1.9-1.5c-0.5-0.7-0.7-1.4-0.7-2.1h2.2
				c0,0.7,0.3,1.3,0.9,1.8c0.6,0.4,1.3,0.7,2.2,0.7c0.8,0,1.5-0.2,2-0.5C182.4,208.9,182.6,208.5,182.6,207.9L182.6,207.9z"/>
		</g>
	</g>
</g>
</svg>
