<?xml version="1.0" encoding="utf-8"?>
<!-- Generator: Adobe Illustrator 27.2.0, SVG Export Plug-In . SVG Version: 6.00 Build 0)  -->
<svg version="1.1" id="a" xmlns="http://www.w3.org/2000/svg" xmlns:xlink="http://www.w3.org/1999/xlink" x="0px" y="0px"
	 viewBox="0 0 736.8 294.8" style="enable-background:new 0 0 736.8 294.8;" xml:space="preserve">
<style type="text/css">
	.st0{fill:#215D9E;}
	.st1{fill:#FFFFFF;}
</style>
<polygon class="st0" points="227.8,15.6 239.8,15.6 247.1,51.5 255.8,16.9 265.9,16.9 274.7,51.5 281.9,15.6 293.5,15.6 280.9,65.1 
	269,65.1 260.6,32.7 252,65.1 240.1,65.1 "/>
<path class="st0" d="M322.3,55.8c2.2,0,4.1-0.4,5.9-1.3c1.7-0.8,3.2-2,4.4-3.4c1.2-1.4,2.1-3.1,2.8-5c0.6-1.9,1-3.9,1-6
	s-0.3-4.1-1-6c-0.6-1.9-1.6-3.5-2.8-4.9c-1.2-1.4-2.7-2.5-4.4-3.3s-3.7-1.2-5.9-1.2s-4.1,0.4-5.9,1.2s-3.2,1.9-4.5,3.3
	c-1.2,1.4-2.1,3.1-2.8,4.9c-0.6,1.9-1,3.9-1,6s0.3,4.1,1,6c0.6,1.9,1.6,3.5,2.8,5c1.2,1.4,2.7,2.6,4.5,3.4
	C318.2,55.4,320.1,55.8,322.3,55.8 M322.3,66.4c-3.7,0-7.1-0.7-10.2-2c-3.1-1.3-5.9-3.2-8.2-5.5c-2.3-2.3-4.1-5.1-5.4-8.3
	c-1.3-3.2-2-6.6-2-10.3s0.7-7.2,2-10.3c1.3-3.2,3.1-5.9,5.4-8.2c2.3-2.3,5-4.2,8.2-5.5s6.5-2,10.2-2s7.1,0.7,10.2,2
	c3.1,1.3,5.9,3.2,8.2,5.5c2.3,2.3,4.1,5.1,5.4,8.2c1.3,3.2,2,6.6,2,10.3s-0.7,7.1-2,10.3c-1.3,3.2-3.1,6-5.4,8.3
	c-2.3,2.3-5,4.2-8.2,5.5C329.4,65.7,326,66.4,322.3,66.4"/>
<path class="st0" d="M373.9,37.9c2.1,0,3.7-0.6,4.9-1.9s1.8-2.8,1.8-4.7c0-2-0.6-3.6-1.8-4.8s-2.8-1.8-4.9-1.8h-6.9v13.2H373.9z
	 M356,15.6h18.4c2.9,0,5.4,0.4,7.6,1.2c2.2,0.8,4,1.9,5.5,3.3s2.5,3.1,3.3,4.9c0.7,1.9,1.1,3.9,1.1,6c0,3.2-0.7,6-2.1,8.4
	s-3.4,4.3-6,5.8l11,19.8h-12.3l-9.2-18.2h-6.2v18.2H356L356,15.6L356,15.6z"/>
<polygon class="st0" points="401.3,15.6 412.5,15.6 412.5,55.2 436.2,55.2 436.2,65.1 401.3,65.1 "/>
<path class="st0" d="M461,55.2c5,0,8.8-1.3,11.4-3.9c2.7-2.6,4-6.2,4-10.7c0-2.3-0.3-4.3-0.9-6.2s-1.6-3.4-2.8-4.8s-2.9-2.3-4.8-3
	c-1.9-0.7-4.2-1.1-6.9-1.1h-6.8v29.7C454.2,55.2,461,55.2,461,55.2z M442.9,15.6h18.7c3.8,0,7.3,0.5,10.6,1.5c3.2,1,6,2.5,8.4,4.5
	s4.2,4.6,5.5,7.8s2,6.9,2,11.2s-0.7,7.7-2,10.7c-1.3,3-3.2,5.6-5.5,7.7c-2.4,2.1-5.1,3.6-8.4,4.6c-3.2,1-6.8,1.5-10.6,1.5h-18.6
	L442.9,15.6L442.9,15.6z"/>
<path class="st0" d="M255.3,96.8h19.1v21.5c-2.6,2.2-5.6,3.9-9,5.2c-3.4,1.2-7.4,1.8-11.8,1.8c-4.1,0-7.7-0.6-10.9-1.9
	s-5.9-3-8.1-5.3c-2.2-2.3-3.9-5-5.1-8.2s-1.7-6.7-1.7-10.5s0.6-7.2,1.9-10.3s3-5.9,5.3-8.3c2.3-2.3,5-4.2,8.1-5.5
	c3.1-1.3,6.6-2,10.4-2c4.5,0,8.5,0.8,11.9,2.5c3.4,1.7,6.2,4,8.4,6.9l-7.6,7.2c-1.6-1.9-3.3-3.4-5.2-4.6s-4.2-1.8-7-1.8
	c-2.3,0-4.3,0.4-6.1,1.3c-1.8,0.8-3.3,2-4.5,3.4c-1.2,1.4-2.2,3.1-2.8,5.1c-0.6,1.9-1,4-1,6.2c0,2.4,0.4,4.5,1.1,6.5
	s1.8,3.6,3.1,4.9s2.9,2.4,4.7,3.2c1.8,0.7,3.8,1.1,5.9,1.1c2,0,3.8-0.2,5.4-0.7c1.6-0.5,3.1-1.2,4.4-2.3v-6.2h-8.8L255.3,96.8
	L255.3,96.8z"/>
<path class="st0" d="M307.3,114.8c2.2,0,4.1-0.4,5.9-1.3c1.7-0.8,3.2-2,4.4-3.4c1.2-1.4,2.1-3.1,2.8-5c0.6-1.9,1-3.9,1-6
	s-0.3-4.1-1-6c-0.6-1.9-1.6-3.5-2.8-4.9c-1.2-1.4-2.7-2.5-4.4-3.3s-3.7-1.2-5.9-1.2s-4.1,0.4-5.9,1.2s-3.2,1.9-4.5,3.3
	c-1.2,1.4-2.1,3.1-2.8,4.9c-0.6,1.9-1,3.9-1,6s0.3,4.1,1,6c0.6,1.9,1.6,3.5,2.8,5c1.2,1.4,2.7,2.6,4.5,3.4
	C303.1,114.3,305.1,114.8,307.3,114.8 M307.3,125.3c-3.7,0-7.1-0.7-10.2-2c-3.1-1.3-5.9-3.2-8.2-5.5c-2.3-2.3-4.1-5.1-5.4-8.3
	c-1.3-3.2-2-6.6-2-10.3s0.7-7.2,2-10.3c1.3-3.2,3.1-5.9,5.4-8.2c2.3-2.3,5-4.2,8.2-5.5s6.5-2,10.2-2s7.1,0.7,10.2,2
	c3.1,1.3,5.9,3.2,8.2,5.5c2.3,2.3,4.1,5.1,5.4,8.2c1.3,3.2,2,6.6,2,10.3s-0.7,7.1-2,10.3s-3.1,5.9-5.4,8.3c-2.3,2.3-5,4.2-8.2,5.5
	C314.4,124.6,311,125.3,307.3,125.3"/>
<polygon class="st0" points="334.3,74.5 346.7,74.5 358.9,110.7 370.7,74.5 382.5,74.5 364.4,124.1 352.5,124.1 "/>
<polygon class="st0" points="388,74.5 421.8,74.5 421.8,84.3 399.2,84.3 399.2,94 416.8,94 416.8,103.5 399.2,103.5 399.2,114.2 
	423.5,114.2 423.5,124.1 388,124.1 "/>
<path class="st0" d="M449,96.9c2.1,0,3.7-0.6,4.9-1.9s1.8-2.8,1.8-4.7c0-2-0.6-3.6-1.8-4.8s-2.8-1.8-4.9-1.8H442v13.2H449z
	 M431.1,74.5h18.4c2.9,0,5.4,0.4,7.6,1.2c2.2,0.8,4,1.9,5.5,3.3c1.5,1.4,2.5,3.1,3.3,4.9c0.7,1.9,1.1,3.9,1.1,6c0,3.2-0.7,6-2.1,8.4
	s-3.4,4.3-6,5.8l11,19.8h-12.3l-9.2-18.2H442V124h-10.9L431.1,74.5L431.1,74.5z"/>
<polygon class="st0" points="476.3,74.5 487,74.5 508.5,106.7 508.5,74.5 519.5,74.5 519.5,124.1 509.3,124.1 487.4,91.3 
	487.4,124.1 476.3,124.1 "/>
<polygon class="st0" points="530.7,74.5 541.3,74.5 554.3,97.8 566.9,74.5 577.6,74.5 579.9,124.1 568.7,124.1 567.3,91.7 557,111 
	551.2,111 540.4,91.9 539.1,124.1 528.4,124.1 "/>
<polygon class="st0" points="588.8,74.5 622.7,74.5 622.7,84.3 600,84.3 600,94 617.6,94 617.6,103.5 600,103.5 600,114.2 
	624.3,114.2 624.3,124.1 588.8,124.1 "/>
<polygon class="st0" points="632,74.5 642.7,74.5 664.1,106.7 664.1,74.5 675.2,74.5 675.2,124.1 665,124.1 643,91.3 643,124.1 
	632,124.1 "/>
<polygon class="st0" points="681.7,74.5 681.7,84.4 697.7,84.4 697.7,124.1 709,124.1 709,84.4 725,84.4 725,74.5 "/>
<path class="st0" d="M234.9,168.2c0.6,0.7,1.4,1.4,2.3,2.1c0.9,0.7,1.8,1.4,2.9,2c1.1,0.6,2.2,1.1,3.5,1.4c1.3,0.4,2.6,0.6,4.1,0.6
	c0.8,0,1.7-0.1,2.5-0.4c0.8-0.2,1.6-0.6,2.3-1.1s1.2-1,1.7-1.7c0.4-0.7,0.6-1.4,0.6-2.3c0-1.8-0.9-3.2-2.7-4.3c-1.8-1-4.6-2-8.5-3
	c-1.9-0.4-3.6-1.1-5.2-1.9s-3-1.9-4.2-3.1s-2.1-2.6-2.7-4.1c-0.6-1.5-1-3.2-1-5.1c0-2.1,0.4-4,1.1-5.9c0.7-1.8,1.9-3.4,3.4-4.9
	c1.5-1.4,3.4-2.5,5.6-3.3c2.2-0.8,4.9-1.2,8-1.2c2.5,0,4.8,0.3,6.7,0.8s3.6,1.1,4.9,1.9c1.4,0.7,2.5,1.5,3.3,2.2
	c0.9,0.8,1.5,1.4,2,1.8l-6.5,7.1c-0.5-0.4-1.2-0.9-1.9-1.4c-0.7-0.5-1.5-1-2.4-1.4s-1.9-0.8-2.9-1.1c-1.1-0.3-2.2-0.4-3.4-0.4
	c-0.8,0-1.6,0.1-2.3,0.4c-0.8,0.2-1.5,0.6-2.1,1s-1.1,0.9-1.5,1.5c-0.4,0.6-0.6,1.2-0.6,1.8c0,1.7,0.9,3.1,2.7,4.1
	c1.8,1,4.2,1.9,7.4,2.6c1.8,0.4,3.6,1.1,5.4,1.8c1.8,0.8,3.3,1.8,4.7,3c1.4,1.2,2.5,2.8,3.3,4.6c0.8,1.8,1.3,4,1.3,6.6
	c0,2.2-0.5,4.3-1.5,6.2s-2.3,3.5-4,4.9c-1.7,1.4-3.7,2.5-6,3.2c-2.3,0.8-4.8,1.1-7.5,1.1c-2.5,0-4.7-0.2-6.8-0.7s-3.9-1.1-5.5-1.9
	s-3.1-1.6-4.4-2.6s-2.4-2-3.4-3L234.9,168.2L234.9,168.2z"/>
<path class="st0" d="M274.8,133.4h11.3v29.3c0,1.6,0.2,3.1,0.5,4.4s0.9,2.4,1.6,3.4c0.7,0.9,1.7,1.7,2.9,2.2s2.7,0.8,4.5,0.8
	s3.2-0.3,4.4-0.8c1.2-0.5,2.2-1.2,2.9-2.2s1.3-2.1,1.6-3.4s0.5-2.8,0.5-4.4v-29.3h11.4v30.8c0,3-0.5,5.7-1.5,8.2
	c-1,2.5-2.4,4.6-4.2,6.4c-1.8,1.8-4,3.1-6.6,4.1c-2.6,1-5.5,1.5-8.6,1.5s-6-0.5-8.6-1.4s-4.8-2.3-6.6-4.1c-1.8-1.8-3.2-3.9-4.2-6.4
	c-1-2.5-1.5-5.2-1.5-8.2L274.8,133.4L274.8,133.4z"/>
<polygon class="st0" points="327.1,133.4 337.8,133.4 350.7,156.7 363.3,133.4 374,133.4 376.3,183 365.1,183 363.7,150.6 
	353.4,169.9 347.6,169.9 336.8,150.8 335.5,183 324.8,183 "/>
<polygon class="st0" points="386.6,133.4 397.2,133.4 410.2,156.7 422.8,133.4 433.5,133.4 435.8,183 424.6,183 423.2,150.6 
	412.9,169.9 407.1,169.9 396.3,150.8 395,183 384.3,183 "/>
<rect x="444.6" y="133.4" class="st0" width="11.2" height="49.5"/>
<polygon class="st0" points="478.3,143.3 462.2,143.3 462.2,133.4 505.5,133.4 505.5,143.3 489.6,143.3 489.6,183 478.3,183 "/>
<path class="st0" d="M20.2,86.7h-5c-0.5,0-0.8,0.4-0.8,0.8v0.1c0,0.7,0.1,1.3,0.1,1.7c0.1,1.4,0.2,2.8,0.2,4.1
	c0.4,5.1,0.9,9.4,1.8,15.6c0.2,2.2,0.3,4.9,0.3,8.6c0,0.2,0.2,0.3,0.4,0.3c0.5-0.1,1.4-0.2,1.4-0.3c0-2.8,0.1-5,0.1-6.8
	c0.4-5.4,1.4-10,2-17.3c0.1-1.8,0.3-3.7,0.4-5.8v-0.1C21,87.1,20.7,86.7,20.2,86.7"/>
<path class="st0" d="M33.1,67.8h-6.2c-0.5,0-0.8,0.4-0.8,0.8v0.5l0.1,3.2l0.1,2l0.1,3.6c0.5,25.3,2.5,23.7,2.5,56.4
	c0,0.3,1.3,0.6,1.9,0.7c0.2,0,0.4-0.1,0.4-0.3c0-31.8,2-30.8,2.5-54.8l0.2-5.6l0-2l0.1-3.2v-0.5C33.9,68.1,33.6,67.8,33.1,67.8"/>
<path class="st0" d="M59.7,44.4h-6.3c-0.4,0-0.8,0.3-0.8,0.7c0,1,0,2.1,0,3.4c0,0.7,0,1.4,0,2.2c0.1,6.1,0.2,14,0.3,17.8
	c0.6,36.2,2.4,39.7,2.4,92.1c0,0.6,1.2,1,1.9,1.2c0.2,0.1,0.4-0.1,0.4-0.3c0-51.9,1.8-55.5,2.4-91.5c0.1-3.8,0.2-12.5,0.3-19.2
	c0-0.8,0-1.5,0-2.2c0-1.3,0-2.5,0-3.5C60.5,44.7,60.2,44.4,59.7,44.4"/>
<path class="st0" d="M46.5,56.1C46.5,56.1,46.5,56.1,46.5,56.1h-6.5c0,0-0.1,0-0.1,0c-0.4,0-0.7,0.3-0.7,0.7c0,1.2,0,2.4,0,3.5
	c0,0.7,0,1.4,0,2.1c0.1,3,0.1,5.8,0.2,8.3c0.5,32.3,2.5,33.9,2.5,76.9c0,0.4,1.2,0.8,1.9,0.9c0.2,0.1,0.4-0.1,0.4-0.3
	c0-41.9,2-44.3,2.5-75.1c0.1-2.2,0.2-6.6,0.3-10.7c0-0.7,0-1.4,0-2.1c0-1.3,0-2.5,0.1-3.5c0-0.1,0-0.2,0-0.2
	C47.2,56.4,46.9,56.1,46.5,56.1"/>
<path class="st0" d="M73,33h-6.3c-0.4,0-0.8,0.3-0.8,0.7c0,1,0,2.2,0,3.5c0,0.7,0,1.3,0,2.1c0.1,9.8,0.3,25.5,0.5,32
	c0.6,29.1,1.8,34.2,2.2,71.4c0,1.3,0.1,19.8,0.1,27c0,0.7,1.2,1.2,1.9,1.4c0.2,0.1,0.4-0.1,0.4-0.3c0-59,1.6-63.9,2.3-100.3
	c0.2-6.1,0.4-21.6,0.5-31.3c0-0.7,0-1.4,0-2.1c0-1.3,0-2.5,0-3.5C73.8,33.3,73.5,33,73,33"/>
<path class="st0" d="M86.3,27.6H80c-0.4,0-0.8,0.4-0.8,0.8c0,1.1,0,2.2,0,3.3c0,0.7,0,1.4,0,2.1c0.1,37.1,0.9,51.8,1.6,69
	c0.2,3.8,0.3,7.6,0.4,11.7c0.4,12.4,0.7,24.9,0.8,50.2c0,0,0.1,8.6,0.1,11.5c0,0.7,1.2,1.3,1.9,1.6c0.2,0.1,0.5-0.1,0.5-0.3
	c0-2.6,0-8.3,0-10.7c0,0,0.2-23.6,0.3-32.5c0.4-21.5,1-29.6,1.5-45.7c0.4-10.1,0.8-40,0.9-54.7c0-0.7,0-1.4,0-2.1c0-1.4,0-2.6,0-3.5
	C87.1,28,86.7,27.7,86.3,27.6"/>
<path class="st0" d="M172.7,86.7h5c0.5,0,0.8,0.4,0.8,0.8v0.1c0,0.7-0.1,1.3-0.1,1.7c-0.1,1.4-0.2,2.8-0.2,4.1
	c-0.4,5.1-0.9,9.4-1.8,15.6c-0.2,2.2-0.3,4.9-0.3,8.6c0,0.2-0.2,0.3-0.4,0.3c-0.5-0.1-1.4-0.2-1.4-0.3c0-2.8-0.1-5-0.1-6.8
	c-0.4-5.4-1.4-10-2-17.3c-0.1-1.8-0.3-3.7-0.4-5.8v-0.1C171.9,87.1,172.3,86.7,172.7,86.7"/>
<path class="st0" d="M159.9,67.8h6.2c0.4,0,0.8,0.4,0.8,0.8v0.5l-0.1,3.2l-0.1,2l-0.1,3.6c-0.4,25.3-2.5,23.7-2.5,56.4
	c0,0.3-1.3,0.6-1.9,0.7c-0.2,0-0.4-0.1-0.4-0.3c0-31.8-2-30.8-2.5-54.8l-0.1-5.6l-0.1-2l-0.1-3.2v-0.5
	C159,68.1,159.4,67.8,159.9,67.8"/>
<path class="st0" d="M133.2,44.4h6.3c0.4,0,0.8,0.3,0.8,0.7c0,1,0,2.1,0,3.4c0,0.7,0,1.4,0,2.2c-0.1,6.1-0.2,14-0.3,17.8
	c-0.6,36.2-2.4,39.7-2.4,92.1c0,0.6-1.2,1-1.9,1.2c-0.2,0.1-0.4-0.1-0.4-0.3c0-51.9-1.8-55.5-2.4-91.5c-0.1-3.8-0.2-12.5-0.3-19.2
	c0-0.8,0-1.5,0-2.2c0-1.3,0-2.5,0-3.5C132.4,44.7,132.8,44.4,133.2,44.4"/>
<path class="st0" d="M146.4,56.1C146.4,56.1,146.4,56.1,146.4,56.1h6.4c0,0,0.1,0,0.1,0c0.4,0,0.7,0.3,0.7,0.7c0,1.2,0,2.4-0.1,3.5
	c0,0.7,0,1.4,0,2.1c-0.1,3-0.1,5.8-0.2,8.3c-0.5,32.3-2.5,33.9-2.5,76.9c0,0.4-1.2,0.8-1.9,0.9c-0.2,0.1-0.4-0.1-0.4-0.3
	c0-41.9-2-44.3-2.5-75.1c-0.1-2.2-0.2-6.6-0.3-10.7c0-0.7,0-1.4,0-2.1c0-1.3-0.1-2.5-0.1-3.5c0-0.1,0-0.2,0-0.2
	C145.8,56.4,146,56.1,146.4,56.1"/>
<path class="st0" d="M119.9,33h6.3c0.4,0,0.8,0.3,0.8,0.7c0,1,0,2.2,0,3.5c0,0.7,0,1.3,0,2.1c-0.1,9.8-0.3,25.5-0.5,32
	c-0.6,29.1-1.8,34.2-2.2,71.4c0,1.3-0.1,19.8-0.1,27c0,0.7-1.2,1.2-1.9,1.4c-0.2,0.1-0.4-0.1-0.4-0.3c0-59-1.6-63.9-2.3-100.3
	c-0.2-6.1-0.4-21.6-0.5-31.3c0-0.7,0-1.4,0-2.1c0-1.3,0-2.5,0-3.5C119.1,33.3,119.5,33,119.9,33"/>
<path class="st0" d="M106.7,27.6h6.3c0.4,0,0.8,0.4,0.8,0.8c0,1.1,0,2.2,0,3.3c0,0.7,0,1.4,0,2.1c-0.1,37.1-0.9,51.8-1.6,69
	c-0.2,3.8-0.3,7.6-0.4,11.7c-0.4,12.4-0.7,24.9-0.8,50.2c0,0-0.1,8.6-0.1,11.5c0,0.7-1.2,1.3-1.9,1.6c-0.2,0.1-0.5-0.1-0.5-0.3
	c0-2.6,0-8.3,0-10.7c0,0-0.2-23.6-0.3-32.5c-0.4-21.5-1-29.6-1.5-45.7c-0.4-10.1-0.8-40-0.9-54.7c0-0.7,0-1.4,0-2.1
	c0-1.4,0-2.6,0-3.5C105.9,28,106.2,27.7,106.7,27.6"/>
<path class="st0" d="M99.6,15.4h-6.4c-0.4,0-0.8,0.4-0.8,0.8v3.9c0,0,0,1.4,0,1.4c0.1,84.7,2.7,66.7,2.8,154.5c0,0,0.1,4.1,0.1,6.7
	c0,0.2,0.2,0.4,0.5,0.3c0.7-0.3,1.9-0.9,1.9-1.8c0-1.8,0.1-5.2,0.1-5.2c0-21.2,0.2-36.5,0.4-48.6c0.2-10.1,0.4-15.1,0.7-22.7
	c0.7-20.7,1.7-84.5,1.7-84.5v-3.9C100.4,15.8,100.1,15.4,99.6,15.4"/>
<g>
	<path class="st1" d="M104.1,256l0.1,3.2l1.3-3.2l7-15.9h1.6l2,16l0.3,3.1l1.2-3.4l6.2-15.7h1.9l-8.7,21.6h-1.7l-2.1-17l-0.2-2
		l-0.8,2.1l-7.5,16.9h-1.7l-2-21.6h1.8L104.1,256z"/>
	<path class="st1" d="M129.2,248.5c1.5-2,3.4-3,5.5-3c1.5,0,2.7,0.6,3.4,1.6c0.7,1,0.9,2.5,0.7,4.3l-1.7,10.4h-1.7l1.7-10.5
		c0.1-0.6,0.1-1.1,0-1.6c-0.2-1.8-1.1-2.7-2.9-2.7c-1,0-2,0.3-2.9,0.9c-0.9,0.6-1.7,1.6-2.4,2.9l-1.9,11h-1.7l4-22.8h1.7
		L129.2,248.5z"/>
	<path class="st1" d="M151.6,261.8c0-0.4-0.1-0.8,0-1.1l0.1-1.1c-0.7,0.8-1.6,1.4-2.5,1.9c-1,0.5-2,0.7-3.1,0.7
		c-1.4,0-2.5-0.4-3.3-1.3c-0.8-0.8-1.2-1.9-1.1-3.2c0.1-1.1,0.4-2,1.1-2.8c0.6-0.8,1.6-1.4,2.8-1.8c1.2-0.4,2.5-0.6,4-0.6l3.3,0
		l0.3-1.8c0.1-1.1-0.1-2-0.7-2.6c-0.6-0.7-1.5-1-2.6-1.1c-1.2,0-2.2,0.3-3,0.9c-0.9,0.6-1.4,1.4-1.6,2.4h-1.7
		c0.2-1.4,0.9-2.5,2.2-3.4c1.2-0.9,2.7-1.3,4.4-1.3c1.7,0,2.9,0.5,3.8,1.5c0.9,1,1.3,2.2,1.1,3.7l-1.3,8.1l-0.1,1.3
		c0,0.5,0,1.1,0.1,1.6l0,0.2H151.6z M146.3,260.5c1.1,0,2.1-0.2,3.1-0.8c1-0.6,1.8-1.4,2.5-2.4l0.6-3.6l-2.8,0c-1.8,0-3.3,0.3-4.4,1
		s-1.8,1.6-1.9,2.7c-0.1,0.9,0.1,1.6,0.7,2.2C144.6,260.2,145.4,260.5,146.3,260.5z"/>
	<path class="st1" d="M163.7,241.6l-0.7,4.1h3.2l-0.3,1.5h-3.2l-1.8,10.7l0,0.9c0,1.1,0.5,1.6,1.5,1.7c0.3,0,0.8,0,1.4-0.1l-0.1,1.5
		c-0.6,0.2-1.2,0.2-1.8,0.2c-1,0-1.8-0.4-2.3-1.1c-0.5-0.7-0.6-1.7-0.5-3.1l1.8-10.7h-2.9l0.3-1.5h2.8l0.7-4.1H163.7z"/>
	<path class="st1" d="M188,240.2h1.8l-2.6,15.2c-0.3,2-1.1,3.6-2.4,4.9c-1.3,1.3-3,1.9-5,1.8c-1.9,0-3.3-0.6-4.2-1.7
		c-1-1.1-1.4-2.6-1.2-4.5h1.8c-0.1,1.4,0.1,2.6,0.8,3.4c0.7,0.8,1.6,1.3,3,1.3c1.4,0,2.6-0.4,3.5-1.3c1-0.9,1.6-2.2,1.9-3.8
		L188,240.2z"/>
	<path class="st1" d="M201.4,259.8c-1.3,1.6-3,2.4-5.3,2.3c-1.5,0-2.6-0.6-3.4-1.6c-0.7-1.1-1-2.5-0.8-4.4l1.7-10.3h1.7l-1.7,10.3
		c-0.1,0.5-0.1,1.1,0,1.6c0.1,0.9,0.3,1.6,0.8,2.1c0.5,0.5,1.1,0.8,2,0.8c1.2,0.1,2.3-0.2,3.3-0.8c1-0.6,1.7-1.4,2-2.4l2-11.6h1.8
		l-2.8,16H201L201.4,259.8z"/>
	<path class="st1" d="M217.3,257.6c0.2-1.4-0.7-2.4-2.5-3l-2.6-0.8c-2.3-0.8-3.5-2.1-3.3-4c0.1-1.3,0.7-2.4,1.8-3.3
		c1.2-0.8,2.5-1.2,4.1-1.2c1.6,0,2.8,0.5,3.8,1.3c1,0.9,1.4,2,1.4,3.5h-1.7c0.1-1-0.2-1.7-0.9-2.3c-0.7-0.6-1.5-0.9-2.6-0.9
		c-1.1,0-2.1,0.3-2.8,0.8c-0.8,0.5-1.2,1.2-1.3,2.1c-0.1,1.3,0.6,2.2,2.3,2.7l1.9,0.5l1,0.3c2.2,0.8,3.3,2.2,3.2,4.1
		c-0.1,1.3-0.6,2.3-1.7,3.2c-1,0.8-2.4,1.3-4,1.4l-0.6,0c-1.1,0-2.1-0.2-2.9-0.6c-0.9-0.4-1.5-1-2-1.7c-0.5-0.7-0.7-1.6-0.6-2.5
		l1.8,0c0,1,0.3,1.8,1,2.4c0.7,0.6,1.6,0.9,2.8,0.9c1.2,0,2.2-0.3,3-0.8C216.7,259.2,217.1,258.5,217.3,257.6z"/>
	<path class="st1" d="M228.4,241.6l-0.7,4.1h3.2l-0.3,1.5h-3.2l-1.8,10.7l0,0.9c0,1.1,0.5,1.6,1.5,1.7c0.3,0,0.8,0,1.4-0.1l-0.1,1.5
		c-0.6,0.2-1.2,0.2-1.8,0.2c-1,0-1.8-0.4-2.3-1.1c-0.5-0.7-0.6-1.7-0.5-3.1l1.8-10.7h-2.9l0.3-1.5h2.8l0.7-4.1H228.4z"/>
	<path class="st1" d="M255.1,261.8h-1.8l1.8-10.4h-11.9l-1.8,10.4h-1.8l3.8-21.6h1.8l-1.7,9.7h11.9l1.7-9.7h1.8L255.1,261.8z"/>
	<path class="st1" d="M270.1,261.8c0-0.4-0.1-0.8,0-1.1l0.1-1.1c-0.7,0.8-1.6,1.4-2.5,1.9c-1,0.5-2,0.7-3.1,0.7
		c-1.4,0-2.5-0.4-3.3-1.3c-0.8-0.8-1.2-1.9-1.1-3.2c0.1-1.1,0.4-2,1.1-2.8c0.6-0.8,1.6-1.4,2.8-1.8c1.2-0.4,2.5-0.6,4-0.6l3.3,0
		l0.3-1.8c0.1-1.1-0.1-2-0.7-2.6c-0.6-0.7-1.5-1-2.6-1.1c-1.2,0-2.2,0.3-3,0.9c-0.9,0.6-1.4,1.4-1.6,2.4h-1.7
		c0.2-1.4,0.9-2.5,2.2-3.4c1.2-0.9,2.7-1.3,4.4-1.3c1.7,0,2.9,0.5,3.8,1.5c0.9,1,1.3,2.2,1.1,3.7l-1.3,8.1l-0.1,1.3
		c0,0.5,0,1.1,0.1,1.6l0,0.2H270.1z M264.8,260.5c1.1,0,2.1-0.2,3.1-0.8c1-0.6,1.8-1.4,2.5-2.4l0.6-3.6l-2.8,0c-1.8,0-3.3,0.3-4.4,1
		s-1.8,1.6-1.9,2.7c-0.1,0.9,0.1,1.6,0.7,2.2C263.2,260.2,263.9,260.5,264.8,260.5z"/>
	<path class="st1" d="M282.8,262.1c-0.9,0-1.8-0.2-2.6-0.6s-1.5-1-2-1.7l-1.5,8.2H275l3.9-22.2h1.6L280,248c1.4-1.8,3.1-2.6,5.2-2.6
		c1.5,0,2.7,0.6,3.5,1.7c0.8,1.1,1.3,2.6,1.3,4.6c0,0.6,0,1.2-0.1,1.8l-0.1,0.4c-0.2,1.7-0.7,3.2-1.4,4.5c-0.7,1.3-1.5,2.2-2.5,2.8
		C285.1,261.8,284,262.1,282.8,262.1z M288.2,253.5l0.1-1.4c0-1.6-0.3-2.8-0.9-3.7c-0.6-0.9-1.5-1.4-2.7-1.4c-1,0-2,0.2-2.8,0.8
		c-0.8,0.5-1.6,1.3-2.1,2.3l-1.3,7.7c0.3,0.9,0.8,1.6,1.5,2.1c0.7,0.5,1.5,0.7,2.5,0.8c1.4,0.1,2.6-0.5,3.6-1.6c1-1.1,1.7-2.7,2-4.7
		L288.2,253.5z"/>
	<path class="st1" d="M299.2,262.1c-0.9,0-1.8-0.2-2.6-0.6c-0.8-0.4-1.5-1-2-1.7l-1.5,8.2h-1.7l3.9-22.2h1.6l-0.4,2.3
		c1.4-1.8,3.1-2.6,5.2-2.6c1.5,0,2.7,0.6,3.5,1.7c0.8,1.1,1.3,2.6,1.3,4.6c0,0.6,0,1.2-0.1,1.8l-0.1,0.4c-0.2,1.7-0.7,3.2-1.4,4.5
		c-0.7,1.3-1.5,2.2-2.5,2.8C301.5,261.8,300.4,262.1,299.2,262.1z M304.7,253.5l0.1-1.4c0-1.6-0.3-2.8-0.9-3.7
		c-0.6-0.9-1.5-1.4-2.7-1.4c-1,0-2,0.2-2.8,0.8c-0.8,0.5-1.6,1.3-2.1,2.3l-1.3,7.7c0.3,0.9,0.8,1.6,1.5,2.1c0.7,0.5,1.5,0.7,2.5,0.8
		c1.4,0.1,2.6-0.5,3.6-1.6c1-1.1,1.7-2.7,2-4.7L304.7,253.5z"/>
	<path class="st1" d="M315.3,262.1c-1.3,0-2.4-0.4-3.3-1.1c-0.9-0.7-1.6-1.6-2.1-2.8c-0.4-1.2-0.6-2.5-0.5-3.9l0-0.5
		c0.1-1.5,0.6-2.9,1.3-4.2c0.7-1.3,1.7-2.4,2.8-3.1c1.1-0.7,2.4-1,3.6-1c1.2,0,2.2,0.3,3,1c0.8,0.6,1.4,1.5,1.8,2.6
		c0.4,1.1,0.5,2.4,0.4,3.7l-0.1,1.1h-11.1l0,0.4c-0.1,1.1-0.1,2.1,0.2,3.1c0.3,1,0.8,1.8,1.5,2.3c0.7,0.6,1.5,0.9,2.5,0.9
		c0.9,0,1.8-0.2,2.6-0.5c0.8-0.4,1.5-0.9,2.1-1.6l1,0.8c-0.7,0.9-1.6,1.6-2.6,2.1C317.6,261.9,316.5,262.1,315.3,262.1z M317.2,247
		c-1.3,0-2.4,0.4-3.5,1.4c-1,1-1.8,2.3-2.3,4l9.3,0l0-0.2c0.2-1.4-0.1-2.6-0.7-3.6C319.4,247.5,318.5,247,317.2,247z"/>
	<path class="st1" d="M328.8,245.7l-0.5,2.7c0.7-1,1.5-1.7,2.5-2.3c0.9-0.5,1.9-0.8,3-0.8c1.5,0,2.7,0.6,3.4,1.6
		c0.7,1,0.9,2.5,0.7,4.3l-1.8,10.4h-1.7l1.7-10.5c0.1-0.6,0.1-1.1,0-1.6c-0.2-1.8-1.1-2.7-2.9-2.7c-1,0-2,0.3-2.9,0.9
		c-0.9,0.6-1.7,1.6-2.4,2.9l-1.9,11h-1.7l2.8-16H328.8z"/>
	<path class="st1" d="M347,262.1c-1.3,0-2.4-0.4-3.3-1.1c-0.9-0.7-1.6-1.6-2.1-2.8c-0.4-1.2-0.6-2.5-0.5-3.9l0-0.5
		c0.1-1.5,0.6-2.9,1.3-4.2c0.7-1.3,1.7-2.4,2.8-3.1c1.1-0.7,2.4-1,3.6-1c1.2,0,2.2,0.3,3,1c0.8,0.6,1.4,1.5,1.8,2.6
		c0.4,1.1,0.5,2.4,0.4,3.7l-0.1,1.1H343l0,0.4c-0.1,1.1-0.1,2.1,0.2,3.1c0.3,1,0.8,1.8,1.5,2.3c0.7,0.6,1.5,0.9,2.5,0.9
		c0.9,0,1.8-0.2,2.6-0.5c0.8-0.4,1.5-0.9,2.1-1.6l1,0.8c-0.7,0.9-1.6,1.6-2.6,2.1C349.3,261.9,348.2,262.1,347,262.1z M348.9,247
		c-1.3,0-2.4,0.4-3.5,1.4c-1,1-1.8,2.3-2.3,4l9.3,0l0-0.2c0.2-1.4-0.1-2.6-0.7-3.6C351.1,247.5,350.1,247,348.9,247z"/>
	<path class="st1" d="M356.7,253.7c0.2-1.7,0.7-3.2,1.4-4.5c0.7-1.3,1.5-2.3,2.5-2.9c1-0.6,2.1-0.9,3.4-0.9c0.9,0,1.8,0.2,2.6,0.7
		c0.8,0.4,1.4,1.1,1.9,1.9l1.6-9h1.7l-4,22.8h-1.6l0.4-2.1c-1.4,1.7-3.1,2.5-5.2,2.4c-1.5,0-2.7-0.6-3.5-1.7
		c-0.8-1.1-1.3-2.6-1.3-4.5c0-0.6,0-1.2,0.1-1.8L356.7,253.7z M358.5,254c-0.1,0.7-0.1,1.4-0.1,2.1c0,1.4,0.4,2.4,0.9,3.2
		c0.6,0.8,1.4,1.2,2.5,1.2c1.1,0,2.1-0.2,2.9-0.8c0.8-0.5,1.5-1.2,2.1-2.1l1.3-7.5c-0.3-1-0.8-1.7-1.4-2.3c-0.7-0.5-1.5-0.8-2.5-0.9
		c-1.5,0-2.8,0.5-3.8,1.7c-1,1.2-1.6,2.9-1.9,5L358.5,254z"/>
	<path class="st1" d="M376.9,255.8c0.1-1.1,0.4-2.1,0.9-2.9c0.5-0.8,1.2-1.7,2.2-2.5c1-0.8,1.7-1.5,2.1-2c0.4-0.5,0.7-1,1-1.5
		c0.3-0.5,0.4-1.1,0.5-1.7c0.1-1.1-0.1-2-0.6-2.7c-0.5-0.7-1.3-1.1-2.4-1.1c-1.1,0-2.1,0.3-2.9,1c-0.8,0.7-1.3,1.6-1.6,2.8l-1.7,0
		c0.2-1.6,0.9-3,2.1-3.9c1.2-1,2.6-1.5,4.2-1.4c1.5,0,2.7,0.6,3.5,1.5c0.8,1,1.2,2.3,1,3.9c-0.2,1.8-1.2,3.6-3.1,5.3l-1.7,1.4
		c-1,0.9-1.7,2.2-2,3.8L376.9,255.8z M375.7,260.7c0-0.3,0.2-0.6,0.4-0.9c0.2-0.2,0.5-0.4,0.9-0.4c0.3,0,0.6,0.1,0.8,0.3
		c0.2,0.2,0.3,0.5,0.3,0.9c0,0.3-0.2,0.6-0.4,0.8c-0.2,0.2-0.5,0.3-0.9,0.3c-0.3,0-0.6-0.1-0.8-0.3
		C375.7,261.4,375.7,261.1,375.7,260.7z"/>
	<path class="st1" d="M406.2,255.7h-9.5l-3.2,6.1h-2l11.7-21.6h1.7l4.2,21.6h-1.8L406.2,255.7z M397.5,254.2h8.3l-2.1-11.7
		L397.5,254.2z"/>
	<path class="st1" d="M427,261.8h-1.8l3.4-19.4l-6.1,2.2l0.3-1.7l7.5-2.7h0.3L427,261.8z"/>
	<path class="st1" d="M441.9,262.1c-1.2,0-2.1-0.3-2.9-0.9c-0.8-0.6-1.4-1.4-1.7-2.6c-0.4-1.1-0.5-2.4-0.5-3.8l0.1-1.6l0.6-4.2
		c0.5-3,1.4-5.3,2.7-6.9c1.3-1.6,3.1-2.3,5.2-2.3c1.7,0,3.1,0.7,3.9,1.9c0.9,1.3,1.3,3,1.2,5.2c0,0.7-0.1,1.4-0.2,2.1l-0.6,3.8
		c-0.5,3.1-1.5,5.5-2.8,7C445.6,261.4,443.9,262.1,441.9,262.1z M448.7,245.7c-0.2-2.8-1.4-4.2-3.5-4.3c-1.6,0-2.9,0.6-3.9,1.8
		c-1,1.3-1.7,3.1-2.1,5.6l-0.7,4.2c-0.1,1.2-0.2,2.3-0.1,3.2c0.1,1.4,0.4,2.5,1,3.2c0.6,0.8,1.4,1.1,2.5,1.2
		c1.5,0.1,2.7-0.5,3.7-1.7c1-1.2,1.7-3,2.2-5.3l0.7-4.6C448.7,247.9,448.8,246.7,448.7,245.7z"/>
	<path class="st1" d="M467.7,251.9l8.4-11.7h2.2l-10,13.6l-1.4,8h-1.8l1.4-8.2l-5.2-13.4h2L467.7,251.9z"/>
	<path class="st1" d="M483.7,262.1c-1.3,0-2.4-0.4-3.3-1.1c-0.9-0.7-1.6-1.6-2.1-2.8c-0.4-1.2-0.6-2.5-0.5-3.9l0-0.5
		c0.1-1.5,0.6-2.9,1.3-4.2c0.7-1.3,1.7-2.4,2.8-3.1c1.1-0.7,2.4-1,3.6-1c1.2,0,2.2,0.3,3,1c0.8,0.6,1.4,1.5,1.8,2.6
		c0.4,1.1,0.5,2.4,0.4,3.7l-0.1,1.1h-11.1l0,0.4c-0.1,1.1-0.1,2.1,0.2,3.1c0.3,1,0.8,1.8,1.5,2.3c0.7,0.6,1.5,0.9,2.5,0.9
		c0.9,0,1.8-0.2,2.6-0.5c0.8-0.4,1.5-0.9,2.1-1.6l1,0.8c-0.7,0.9-1.6,1.6-2.6,2.1C485.9,261.9,484.8,262.1,483.7,262.1z M485.5,247
		c-1.3,0-2.4,0.4-3.5,1.4c-1,1-1.8,2.3-2.3,4l9.3,0l0-0.2c0.2-1.4-0.1-2.6-0.7-3.6C487.7,247.5,486.8,247,485.5,247z"/>
	<path class="st1" d="M502.6,261.8c0-0.4-0.1-0.8,0-1.1l0.1-1.1c-0.7,0.8-1.6,1.4-2.5,1.9c-1,0.5-2,0.7-3.1,0.7
		c-1.4,0-2.5-0.4-3.3-1.3c-0.8-0.8-1.2-1.9-1.1-3.2c0.1-1.1,0.4-2,1.1-2.8c0.6-0.8,1.6-1.4,2.8-1.8c1.2-0.4,2.5-0.6,4-0.6l3.3,0
		l0.3-1.8c0.1-1.1-0.1-2-0.7-2.6c-0.6-0.7-1.5-1-2.6-1.1c-1.2,0-2.2,0.3-3,0.9c-0.9,0.6-1.4,1.4-1.6,2.4h-1.7
		c0.2-1.4,0.9-2.5,2.2-3.4c1.2-0.9,2.7-1.3,4.4-1.3c1.7,0,2.9,0.5,3.8,1.5c0.9,1,1.3,2.2,1.1,3.7l-1.3,8.1l-0.1,1.3
		c0,0.5,0,1.1,0.1,1.6l0,0.2H502.6z M497.4,260.5c1.1,0,2.1-0.2,3.1-0.8c1-0.6,1.8-1.4,2.5-2.4l0.6-3.6l-2.8,0c-1.8,0-3.3,0.3-4.4,1
		c-1.1,0.6-1.8,1.6-1.9,2.7c-0.1,0.9,0.1,1.6,0.7,2.2C495.7,260.2,496.4,260.5,497.4,260.5z"/>
	<path class="st1" d="M518.4,247.2c-0.4-0.1-0.8-0.1-1.2-0.1c-1.1,0-2.2,0.3-3.1,1c-0.9,0.7-1.6,1.6-1.9,2.6l-1.9,11h-1.7l2.8-16
		h1.7l-0.5,2.6c0.6-0.9,1.3-1.7,2.1-2.2c0.8-0.5,1.7-0.7,2.7-0.7c0.3,0,0.8,0.1,1.2,0.2L518.4,247.2z"/>
	<path class="st1" d="M541.9,261.8h-1.8l1.8-10.4H530l-1.8,10.4h-1.8l3.8-21.6h1.8l-1.7,9.7h11.9l1.7-9.7h1.8L541.9,261.8z"/>
	<path class="st1" d="M548.9,261.8h-1.8l2.8-16h1.8L548.9,261.8z M550.4,241.1c0-0.6,0.5-1,1.3-1.2c0.4,0.1,0.7,0.2,0.8,0.4
		c0.2,0.2,0.3,0.5,0.3,0.9c-0.1,0.4-0.2,0.6-0.4,0.8c-0.2,0.2-0.5,0.3-0.8,0.4C550.8,242.2,550.4,241.8,550.4,241.1z"/>
	<path class="st1" d="M561.7,245.4c1,0,1.8,0.3,2.6,0.7c0.8,0.4,1.4,1.1,1.9,1.9l0.5-2.3h1.6l-2.7,15.8c-0.2,1.3-0.6,2.5-1.3,3.6
		c-0.7,1-1.5,1.8-2.5,2.4c-1,0.5-2.2,0.8-3.4,0.8c-1,0-2-0.3-2.9-0.8c-0.9-0.5-1.7-1.2-2.2-2.1l1.1-1c1,1.5,2.3,2.3,4,2.4
		c1.5,0,2.7-0.4,3.7-1.3c1-0.9,1.6-2.2,1.9-3.8l0.4-1.9c-1.4,1.6-3.1,2.4-5.1,2.4c-1.5,0-2.7-0.6-3.5-1.7c-0.8-1.1-1.3-2.6-1.3-4.5
		c-0.1-1.8,0.2-3.5,0.9-5.2c0.7-1.7,1.5-3,2.7-3.9C559,245.8,560.3,245.4,561.7,245.4z M556.2,254l-0.1,1.4c0,1.6,0.3,2.9,0.8,3.8
		c0.6,0.9,1.5,1.3,2.6,1.4c1,0,1.9-0.2,2.8-0.7c0.9-0.5,1.6-1.2,2.2-2.2l1.3-7.5c-0.3-1-0.7-1.7-1.4-2.3c-0.7-0.6-1.5-0.9-2.5-0.9
		c-1.5,0-2.8,0.5-3.8,1.7C557.1,249.9,556.5,251.7,556.2,254z"/>
	<path class="st1" d="M574.1,248.5c1.5-2,3.4-3,5.5-3c1.5,0,2.7,0.6,3.4,1.6c0.7,1,0.9,2.5,0.7,4.3l-1.7,10.4h-1.7l1.7-10.5
		c0.1-0.6,0.1-1.1,0-1.6c-0.2-1.8-1.1-2.7-2.9-2.7c-1,0-2,0.3-2.9,0.9c-0.9,0.6-1.7,1.6-2.4,2.9l-1.9,11h-1.7l4-22.8h1.7
		L574.1,248.5z"/>
	<path class="st1" d="M588.5,261.8h-1.8l4-22.8h1.8L588.5,261.8z"/>
	<path class="st1" d="M595.2,261.8h-1.8l2.8-16h1.8L595.2,261.8z M596.7,241.1c0-0.6,0.5-1,1.3-1.2c0.4,0.1,0.7,0.2,0.8,0.4
		c0.2,0.2,0.3,0.5,0.3,0.9c-0.1,0.4-0.2,0.6-0.4,0.8s-0.5,0.3-0.8,0.4C597.1,242.2,596.7,241.8,596.7,241.1z"/>
	<path class="st1" d="M608,245.4c1,0,1.8,0.3,2.6,0.7c0.8,0.4,1.4,1.1,1.9,1.9l0.5-2.3h1.6l-2.7,15.8c-0.2,1.3-0.6,2.5-1.3,3.6
		c-0.7,1-1.5,1.8-2.5,2.4c-1,0.5-2.2,0.8-3.4,0.8c-1,0-2-0.3-2.9-0.8c-0.9-0.5-1.7-1.2-2.2-2.1l1.1-1c1,1.5,2.3,2.3,4,2.4
		c1.5,0,2.7-0.4,3.7-1.3c1-0.9,1.6-2.2,1.9-3.8l0.4-1.9c-1.4,1.6-3.1,2.4-5.1,2.4c-1.5,0-2.7-0.6-3.5-1.7c-0.8-1.1-1.3-2.6-1.3-4.5
		c-0.1-1.8,0.2-3.5,0.9-5.2c0.7-1.7,1.5-3,2.7-3.9C605.3,245.8,606.6,245.4,608,245.4z M602.5,254l-0.1,1.4c0,1.6,0.3,2.9,0.8,3.8
		c0.6,0.9,1.5,1.3,2.6,1.4c1,0,1.9-0.2,2.8-0.7c0.9-0.5,1.6-1.2,2.2-2.2l1.3-7.5c-0.3-1-0.7-1.7-1.4-2.3c-0.7-0.6-1.5-0.9-2.5-0.9
		c-1.5,0-2.8,0.5-3.8,1.7C603.4,249.9,602.8,251.7,602.5,254z"/>
	<path class="st1" d="M620.4,248.5c1.5-2,3.4-3,5.5-3c1.5,0,2.7,0.6,3.4,1.6c0.7,1,0.9,2.5,0.7,4.3l-1.7,10.4h-1.7l1.7-10.5
		c0.1-0.6,0.1-1.1,0-1.6c-0.2-1.8-1.1-2.7-2.9-2.7c-1,0-2,0.3-2.9,0.9c-0.9,0.6-1.7,1.6-2.4,2.9l-1.9,11h-1.7l4-22.8h1.7
		L620.4,248.5z"/>
	<path class="st1" d="M639,241.6l-0.7,4.1h3.2l-0.3,1.5H638l-1.8,10.7l0,0.9c0,1.1,0.5,1.6,1.5,1.7c0.3,0,0.8,0,1.4-0.1l-0.1,1.5
		c-0.6,0.2-1.2,0.2-1.8,0.2c-1,0-1.8-0.4-2.3-1.1c-0.5-0.7-0.6-1.7-0.5-3.1l1.8-10.7h-2.9l0.3-1.5h2.8l0.7-4.1H639z"/>
</g>
</svg>
