<?xml version="1.0" encoding="utf-8"?>
<!-- Generator: Adobe Illustrator 25.2.0, SVG Export Plug-In . SVG Version: 6.00 Build 0)  -->
<svg version="1.1" id="Layer_1" xmlns="http://www.w3.org/2000/svg" xmlns:xlink="http://www.w3.org/1999/xlink" x="0px" y="0px"
	 viewBox="0 0 15 12.5" style="enable-background:new 0 0 15 12.5;" xml:space="preserve">
<style type="text/css">
	.st0{fill:#E9D26B;}
</style>
<g id="Layer_2_1_">
	<g id="Layer_1-2">
		<path class="st0" d="M14.9,2.4c-0.1-0.1-0.2-0.2-0.4-0.2H8.9c-0.3,0-0.5,0.2-0.5,0.5s0.2,0.5,0.5,0.5h5l-1.5,4.8H6L3.8,0.3
			C3.7,0.1,3.5,0,3.3,0H0.5C0.2,0,0,0.2,0,0.5S0.2,1,0.5,1h2.5l2.3,7.7C5.3,8.9,5.5,9,5.7,9.1h7.1c0.2,0,0.4-0.1,0.5-0.4L15,2.9
			C15,2.7,15,2.6,14.9,2.4z"/>
		<circle class="st0" cx="6.6" cy="11.2" r="1.3"/>
		<circle class="st0" cx="11.7" cy="11.2" r="1.3"/>
	</g>
</g>
</svg>
