<svg xmlns="http://www.w3.org/2000/svg" viewBox="0 0 929.8 56.31"><defs><style>.cls-1{fill:#fff;}</style></defs><g id="Layer_2" data-name="Layer 2"><g id="Layer_1-2" data-name="Layer 1"><path class="cls-1" d="M5.21,0,8.74,2.19a14.33,14.33,0,0,0-2.68,7.89V14.4H0V10.48A13.31,13.31,0,0,1,1.49,4.77,13.86,13.86,0,0,1,5.21,0Zm9.56,0L18.3,2.19a14.4,14.4,0,0,0-2.67,7.89V14.4H9.56V10.48a13.18,13.18,0,0,1,1.5-5.71A13.84,13.84,0,0,1,14.77,0Z"/><path class="cls-1" d="M31.36,38.71H50.17v5.75h-26V3h7.21Z"/><path class="cls-1" d="M55.62,5.67a3.68,3.68,0,0,1,1-2.65A3.84,3.84,0,0,1,59.52,2,3.89,3.89,0,0,1,62.43,3a3.64,3.64,0,0,1,1,2.65,3.56,3.56,0,0,1-1,2.6,3.92,3.92,0,0,1-2.91,1,3.87,3.87,0,0,1-2.89-1A3.59,3.59,0,0,1,55.62,5.67ZM63,44.46H56.05V13.66H63Z"/><path class="cls-1" d="M73.51,44.46V18.79H68.82V13.66h4.69V10.85q0-5.13,2.85-7.92t8-2.79A16,16,0,0,1,88.2.65L88,6.06a13.76,13.76,0,0,0-2.65-.23q-4.95,0-4.95,5.1v2.73h6.26v5.13H80.43V44.46Z"/><path class="cls-1" d="M105.89,45a14.33,14.33,0,0,1-10.66-4.14q-4.08-4.14-4.08-11V29a18.41,18.41,0,0,1,1.78-8.24,13.47,13.47,0,0,1,5-5.65,13.22,13.22,0,0,1,7.18-2q6.29,0,9.72,4t3.43,11.36v2.79H98.12a9.25,9.25,0,0,0,2.55,6,7.64,7.64,0,0,0,5.62,2.22A9.39,9.39,0,0,0,114,35.67l3.72,3.56a12.42,12.42,0,0,1-4.93,4.28A15.41,15.41,0,0,1,105.89,45Zm-.82-26.38a5.82,5.82,0,0,0-4.6,2,10.29,10.29,0,0,0-2.23,5.55h13.18v-.51a8.49,8.49,0,0,0-1.85-5.26A5.81,5.81,0,0,0,105.07,18.65Z"/><path class="cls-1" d="M123.81,15.31l-3.53-2.19a14.21,14.21,0,0,0,2.65-7.88V.74H129V4.67a13.07,13.07,0,0,1-1.49,5.91A14.07,14.07,0,0,1,123.81,15.31Z"/><path class="cls-1" d="M146.26,36.1a3.13,3.13,0,0,0-1.52-2.82,16,16,0,0,0-5.06-1.71,25.86,25.86,0,0,1-5.89-1.88q-5.17-2.51-5.18-7.26A8.19,8.19,0,0,1,132,15.77a13.29,13.29,0,0,1,8.54-2.68,13.81,13.81,0,0,1,8.92,2.74,8.66,8.66,0,0,1,3.4,7.09h-6.91a4.29,4.29,0,0,0-1.48-3.32,5.7,5.7,0,0,0-3.93-1.32,6.16,6.16,0,0,0-3.72,1,3.31,3.31,0,0,0-1.43,2.82,2.78,2.78,0,0,0,1.33,2.47,18.55,18.55,0,0,0,5.41,1.78,25.3,25.3,0,0,1,6.39,2.14,9.06,9.06,0,0,1,3.45,3,7.59,7.59,0,0,1,1.12,4.22,8,8,0,0,1-3.44,6.73,14.7,14.7,0,0,1-9,2.57,15.91,15.91,0,0,1-6.74-1.36,11.08,11.08,0,0,1-4.61-3.76,8.82,8.82,0,0,1-1.66-5.15h6.72a4.88,4.88,0,0,0,1.85,3.77,7.22,7.22,0,0,0,4.53,1.32,7,7,0,0,0,4.16-1A3.22,3.22,0,0,0,146.26,36.1Z"/><path class="cls-1" d="M183.44,6.18v7.48h5.43v5.13h-5.43V36a3.81,3.81,0,0,0,.69,2.55,3.25,3.25,0,0,0,2.49.78A10.58,10.58,0,0,0,189,39v5.35a16.83,16.83,0,0,1-4.55.65q-8,0-8-8.79V18.79h-5.07V13.66h5.07V6.18Z"/><path class="cls-1" d="M192.59,28.78a18.11,18.11,0,0,1,1.79-8.16,13.15,13.15,0,0,1,5-5.58,14.28,14.28,0,0,1,7.46-1.95,13.45,13.45,0,0,1,10.12,4,15.77,15.77,0,0,1,4.2,10.64l0,1.63a18.29,18.29,0,0,1-1.75,8.14,12.86,12.86,0,0,1-5,5.55,14.28,14.28,0,0,1-7.53,2,13.34,13.34,0,0,1-10.43-4.34q-3.92-4.34-3.91-11.57Zm6.91.6a12.39,12.39,0,0,0,2,7.44,6.86,6.86,0,0,0,10.92,0q2-2.73,2-8a12.23,12.23,0,0,0-2-7.4,6.42,6.42,0,0,0-5.45-2.73,6.33,6.33,0,0,0-5.38,2.69Q199.51,24,199.5,29.38Z"/><path class="cls-1" d="M260,36.1a3.11,3.11,0,0,0-1.52-2.82,15.94,15.94,0,0,0-5.05-1.71,25.54,25.54,0,0,1-5.89-1.88q-5.19-2.51-5.19-7.26a8.19,8.19,0,0,1,3.36-6.66,13.31,13.31,0,0,1,8.54-2.68,13.84,13.84,0,0,1,8.93,2.74,8.66,8.66,0,0,1,3.4,7.09h-6.92a4.25,4.25,0,0,0-1.48-3.32,5.68,5.68,0,0,0-3.93-1.32,6.13,6.13,0,0,0-3.71,1,3.32,3.32,0,0,0-1.44,2.82,2.79,2.79,0,0,0,1.34,2.47,18.33,18.33,0,0,0,5.41,1.78,25.59,25.59,0,0,1,6.39,2.14,9.1,9.1,0,0,1,3.44,3,7.59,7.59,0,0,1,1.13,4.22,8,8,0,0,1-3.45,6.73,14.64,14.64,0,0,1-9,2.57,16,16,0,0,1-6.75-1.36A11.15,11.15,0,0,1,243,39.91a8.88,8.88,0,0,1-1.65-5.15h6.72a4.85,4.85,0,0,0,1.85,3.77,7.21,7.21,0,0,0,4.52,1.32,6.94,6.94,0,0,0,4.16-1A3.19,3.19,0,0,0,260,36.1Z"/><path class="cls-1" d="M280.25,17a10.82,10.82,0,0,1,8.57-3.93q9.84,0,10,11.25V44.46h-6.92V24.59c0-2.12-.46-3.62-1.38-4.51a5.65,5.65,0,0,0-4.06-1.32,6.65,6.65,0,0,0-6.2,3.7v22h-6.92V.74h6.92Z"/><path class="cls-1" d="M305.09,28.78a18.11,18.11,0,0,1,1.79-8.16,13,13,0,0,1,5-5.58,14.28,14.28,0,0,1,7.46-1.95,13.45,13.45,0,0,1,10.12,4,15.72,15.72,0,0,1,4.19,10.64l0,1.63A18.29,18.29,0,0,1,332,37.52a12.92,12.92,0,0,1-5,5.55,14.28,14.28,0,0,1-7.53,2A13.34,13.34,0,0,1,309,40.69q-3.92-4.34-3.91-11.57Zm6.91.6a12.39,12.39,0,0,0,2,7.44,6.85,6.85,0,0,0,10.91,0q2-2.73,1.95-8a12.23,12.23,0,0,0-2-7.4,6.42,6.42,0,0,0-5.45-2.73A6.32,6.32,0,0,0,314,21.34Q312,24,312,29.38Z"/><path class="cls-1" d="M356.28,20a17.32,17.32,0,0,0-2.82-.22q-4.75,0-6.4,3.64V44.46h-6.92V13.66h6.61l.17,3.45a7.78,7.78,0,0,1,6.94-4,6.57,6.57,0,0,1,2.45.4Z"/><path class="cls-1" d="M371.33,6.18v7.48h5.43v5.13h-5.43V36a3.81,3.81,0,0,0,.69,2.55,3.25,3.25,0,0,0,2.49.78,10.58,10.58,0,0,0,2.42-.28v5.35a16.83,16.83,0,0,1-4.55.65q-8,0-8-8.79V18.79h-5.07V13.66h5.07V6.18Z"/><path class="cls-1" d="M406.4,6.18v7.48h5.43v5.13H406.4V36a3.81,3.81,0,0,0,.69,2.55,3.25,3.25,0,0,0,2.49.78A10.58,10.58,0,0,0,412,39v5.35a16.83,16.83,0,0,1-4.55.65q-8,0-8-8.79V18.79h-5.07V13.66h5.07V6.18Z"/><path class="cls-1" d="M415.55,28.78a18.25,18.25,0,0,1,1.79-8.16,13.15,13.15,0,0,1,5-5.58,14.28,14.28,0,0,1,7.46-1.95,13.45,13.45,0,0,1,10.12,4,15.77,15.77,0,0,1,4.2,10.64l0,1.63a18.3,18.3,0,0,1-1.76,8.14,12.86,12.86,0,0,1-5,5.55,14.27,14.27,0,0,1-7.52,2,13.35,13.35,0,0,1-10.44-4.34q-3.91-4.34-3.91-11.57Zm6.92.6q0,4.75,2,7.44a6.86,6.86,0,0,0,10.92,0q1.95-2.73,1.95-8a12.23,12.23,0,0,0-2-7.4,6.42,6.42,0,0,0-5.45-2.73,6.33,6.33,0,0,0-5.38,2.69Q422.47,24,422.47,29.38Z"/><path class="cls-1" d="M472.14,13.66l.2,3.56a11.08,11.08,0,0,1,9-4.13q9.62,0,9.79,11V44.46h-6.92V24.51a6.32,6.32,0,0,0-1.27-4.34,5.31,5.31,0,0,0-4.14-1.41,6.65,6.65,0,0,0-6.23,3.78V44.46h-6.92V13.66Z"/><path class="cls-1" d="M497.43,28.78a18.25,18.25,0,0,1,1.79-8.16,13.15,13.15,0,0,1,5-5.58,14.31,14.31,0,0,1,7.46-1.95,13.44,13.44,0,0,1,10.12,4A15.77,15.77,0,0,1,526,27.75l0,1.63a18.43,18.43,0,0,1-1.75,8.14,13,13,0,0,1-5,5.55,14.33,14.33,0,0,1-7.53,2,13.31,13.31,0,0,1-10.43-4.34q-3.92-4.34-3.92-11.57Zm6.92.6q0,4.75,2,7.44a6.86,6.86,0,0,0,10.92,0q1.95-2.73,1.95-8a12.23,12.23,0,0,0-2-7.4,6.41,6.41,0,0,0-5.45-2.73,6.33,6.33,0,0,0-5.38,2.69Q504.35,24,504.35,29.38Z"/><path class="cls-1" d="M541.17,6.18v7.48h5.44v5.13h-5.44V36a3.76,3.76,0,0,0,.7,2.55,3.23,3.23,0,0,0,2.49.78,10.71,10.71,0,0,0,2.42-.28v5.35a17,17,0,0,1-4.56.65q-8,0-8-8.79V18.79h-5.06V13.66h5.06V6.18Z"/><path class="cls-1" d="M581.14,45a14.34,14.34,0,0,1-10.67-4.14q-4.08-4.14-4.08-11V29a18.41,18.41,0,0,1,1.78-8.24,13.47,13.47,0,0,1,5-5.65,13.22,13.22,0,0,1,7.18-2q6.28,0,9.72,4t3.43,11.36v2.79H573.36a9.25,9.25,0,0,0,2.55,6,7.64,7.64,0,0,0,5.62,2.22,9.39,9.39,0,0,0,7.75-3.84L593,39.23a12.45,12.45,0,0,1-4.94,4.28A15.4,15.4,0,0,1,581.14,45Zm-.83-26.38a5.82,5.82,0,0,0-4.6,2,10.37,10.37,0,0,0-2.23,5.55h13.18v-.51a8.43,8.43,0,0,0-1.85-5.26A5.79,5.79,0,0,0,580.31,18.65Z"/><path class="cls-1" d="M610.5,23.8l5.86-10.14h7.69l-9.42,15.18,9.73,15.62h-7.63l-6.15-10.53-6.12,10.53h-7.68l9.73-15.62-9.39-15.18h7.63Z"/><path class="cls-1" d="M656.31,29.38q0,7.14-3.24,11.4a11.27,11.27,0,0,1-16.82.92V56.31h-6.92V13.66h6.37l.29,3.13a10.17,10.17,0,0,1,8.28-3.7,10.49,10.49,0,0,1,8.84,4.2q3.21,4.2,3.2,11.66Zm-6.88-.6a12.92,12.92,0,0,0-1.84-7.32,6,6,0,0,0-5.25-2.7,6.36,6.36,0,0,0-6.09,3.5V35.92a6.4,6.4,0,0,0,6.14,3.59,6,6,0,0,0,5.17-2.66C648.8,35.08,649.43,32.39,649.43,28.78Z"/><path class="cls-1" d="M670.11,44.46h-6.92V.74h6.92Z"/><path class="cls-1" d="M676.92,28.78a18.12,18.12,0,0,1,1.8-8.16,13,13,0,0,1,5-5.58,14.25,14.25,0,0,1,7.45-1.95,13.44,13.44,0,0,1,10.12,4,15.77,15.77,0,0,1,4.2,10.64l0,1.63a18.29,18.29,0,0,1-1.75,8.14,13,13,0,0,1-5,5.55,14.28,14.28,0,0,1-7.53,2,13.33,13.33,0,0,1-10.43-4.34q-3.92-4.34-3.92-11.57Zm6.92.6a12.39,12.39,0,0,0,2,7.44,6.85,6.85,0,0,0,10.91,0q1.95-2.73,1.95-8a12.23,12.23,0,0,0-2-7.4,6.77,6.77,0,0,0-10.83,0Q683.84,24,683.84,29.38Z"/><path class="cls-1" d="M728.12,20a17.32,17.32,0,0,0-2.82-.22q-4.75,0-6.4,3.64V44.46H712V13.66h6.6l.17,3.45a7.8,7.8,0,0,1,7-4,6.6,6.6,0,0,1,2.45.4Z"/><path class="cls-1" d="M746.64,45A14.3,14.3,0,0,1,736,40.89q-4.1-4.14-4.09-11V29a18.41,18.41,0,0,1,1.78-8.24,13.49,13.49,0,0,1,5-5.65,13.17,13.17,0,0,1,7.17-2q6.28,0,9.72,4T759,28.47v2.79H738.87a9.19,9.19,0,0,0,2.54,6A7.67,7.67,0,0,0,747,39.51a9.37,9.37,0,0,0,7.74-3.84l3.73,3.56a12.45,12.45,0,0,1-4.94,4.28A15.4,15.4,0,0,1,746.64,45Zm-.83-26.38a5.82,5.82,0,0,0-4.6,2A10.37,10.37,0,0,0,739,26.19h13.18v-.51a8.43,8.43,0,0,0-1.85-5.26A5.79,5.79,0,0,0,745.81,18.65Z"/><path class="cls-1" d="M792.69,39.51A6.24,6.24,0,0,0,797,38a5.17,5.17,0,0,0,1.83-3.73h6.51a10.11,10.11,0,0,1-1.79,5.37A11.82,11.82,0,0,1,799,43.58,13.57,13.57,0,0,1,792.78,45q-6.46,0-10.25-4.18t-3.78-11.56v-.71q0-7,3.75-11.26t10.25-4.23a12.63,12.63,0,0,1,9,3.21,11.43,11.43,0,0,1,3.63,8.41h-6.51A6.36,6.36,0,0,0,797,20.35a5.82,5.82,0,0,0-4.32-1.7,6.11,6.11,0,0,0-5.18,2.43q-1.82,2.43-1.85,7.39v1.11c0,3.34.61,5.83,1.81,7.47A6.09,6.09,0,0,0,792.69,39.51Z"/><path class="cls-1" d="M818.5,44.46h-6.92V.74h6.92Z"/><path class="cls-1" d="M825.32,28.78a18.11,18.11,0,0,1,1.79-8.16,13.09,13.09,0,0,1,5-5.58,14.28,14.28,0,0,1,7.46-1.95,13.45,13.45,0,0,1,10.12,4,15.77,15.77,0,0,1,4.2,10.64l0,1.63a18.29,18.29,0,0,1-1.75,8.14,12.86,12.86,0,0,1-5,5.55,14.28,14.28,0,0,1-7.53,2,13.34,13.34,0,0,1-10.43-4.34q-3.91-4.34-3.91-11.57Zm6.91.6a12.39,12.39,0,0,0,2,7.44,6.86,6.86,0,0,0,10.92,0c1.3-1.82,1.94-4.49,1.94-8a12.23,12.23,0,0,0-2-7.4,6.42,6.42,0,0,0-5.45-2.73,6.33,6.33,0,0,0-5.38,2.69Q832.23,24,832.23,29.38Z"/><path class="cls-1" d="M869.06,6.18v7.48h5.43v5.13h-5.43V36a3.81,3.81,0,0,0,.69,2.55,3.25,3.25,0,0,0,2.49.78,10.58,10.58,0,0,0,2.42-.28v5.35a16.83,16.83,0,0,1-4.55.65q-8,0-8-8.79V18.79h-5.07V13.66h5.07V6.18Z"/><path class="cls-1" d="M887.17,17a10.84,10.84,0,0,1,8.57-3.93q9.85,0,10,11.25V44.46h-6.91V24.59c0-2.12-.46-3.62-1.38-4.51a5.67,5.67,0,0,0-4.06-1.32,6.67,6.67,0,0,0-6.21,3.7v22h-6.91V.74h6.91Z"/><path class="cls-1" d="M915.11,15.31l-3.53-2.19a14.21,14.21,0,0,0,2.65-7.88V.74h6.07V4.67a13.08,13.08,0,0,1-1.5,5.91A14.07,14.07,0,0,1,915.11,15.31Zm9.51,0-3.53-2.19a14.21,14.21,0,0,0,2.65-7.88V.74h6.06V4.67a13.19,13.19,0,0,1-1.49,5.91A14.07,14.07,0,0,1,924.62,15.31Z"/></g></g></svg>