<svg xmlns="http://www.w3.org/2000/svg" viewBox="0 0 20.23 381.02"><defs><style>.cls-1{fill:#d6d8d9;}</style></defs><g id="Layer_2" data-name="Layer 2"><g id="Layer_1-2" data-name="Layer 1"><path class="cls-1" d="M8,381a1.76,1.76,0,0,1-1.32-.53,1.82,1.82,0,0,1-.52-1.37,1.88,1.88,0,0,1,.5-1.36A1.79,1.79,0,0,1,8,377.21H8.4a1.73,1.73,0,0,1,1.32.53,1.89,1.89,0,0,1,.49,1.37,1.92,1.92,0,0,1-.5,1.38,1.75,1.75,0,0,1-1.33.53Z"/><path class="cls-1" d="M8.77,360.09v7h7v1.26H.82v-9.25H1.89v8H7.7v-7Z"/><path class="cls-1" d="M16,352.28a4.87,4.87,0,0,1-.7,2.56,4.8,4.8,0,0,1-1.95,1.78,6.09,6.09,0,0,1-2.79.63h-.44a6.41,6.41,0,0,1-2.88-.62,4.94,4.94,0,0,1-2-1.72,4.26,4.26,0,0,1-.73-2.4,4,4,0,0,1,1.38-3.21,5.58,5.58,0,0,1,3.77-1.18h.68V356h.24A4.63,4.63,0,0,0,13.66,355a3.44,3.44,0,0,0,1.26-2.72,4,4,0,0,0-.36-1.74,3.85,3.85,0,0,0-1.15-1.37l.59-.77A4.51,4.51,0,0,1,16,352.28Zm-10.46.23a3,3,0,0,0,1,2.33A4.68,4.68,0,0,0,9.24,356v-6.65H9.11a4.08,4.08,0,0,0-2.61.91A2.84,2.84,0,0,0,5.5,352.51Z"/><path class="cls-1" d="M16,341.22a4.85,4.85,0,0,1-.7,2.56,4.74,4.74,0,0,1-1.95,1.78,6.1,6.1,0,0,1-2.79.64h-.44a6.55,6.55,0,0,1-2.88-.62,5,5,0,0,1-2-1.73,4.26,4.26,0,0,1-.73-2.4,4,4,0,0,1,1.38-3.21,5.58,5.58,0,0,1,3.77-1.18h.68V345h.24a4.58,4.58,0,0,0,3.14-1.09,3.42,3.42,0,0,0,1.26-2.72,4,4,0,0,0-.36-1.74,3.85,3.85,0,0,0-1.15-1.37l.59-.76A4.48,4.48,0,0,1,16,341.22Zm-10.46.23a3,3,0,0,0,1,2.33,4.68,4.68,0,0,0,2.73,1.15v-6.65H9.11a4.08,4.08,0,0,0-2.61.91A2.84,2.84,0,0,0,5.5,341.45Z"/><path class="cls-1" d="M15.75,333.09v1.23H0v-1.23Z"/><path class="cls-1" d="M1.81,322.32H4.66V320h1v2.3h7.4a2.34,2.34,0,0,0,1.38-.33,1.32,1.32,0,0,0,.45-1.12,9.45,9.45,0,0,0-.1-1l1-.05a3.85,3.85,0,0,1,.18,1.31,2.21,2.21,0,0,1-.74,1.84,3.48,3.48,0,0,1-2.16.57H5.66v2h-1v-2H1.81Z"/><path class="cls-1" d="M6.53,316.05A4.39,4.39,0,0,1,5,314.5a4.06,4.06,0,0,1-.54-2.06,3.35,3.35,0,0,1,1-2.66,4.52,4.52,0,0,1,3-.88h7.28v1.22H8.46a3.46,3.46,0,0,0-2.22.63,2.51,2.51,0,0,0-.72,2,3.05,3.05,0,0,0,.71,2,4.09,4.09,0,0,0,1.92,1.3h7.6v1.22H0v-1.22Z"/><path class="cls-1" d="M16,301.24a4.9,4.9,0,0,1-.7,2.56,4.8,4.8,0,0,1-1.95,1.78,6.09,6.09,0,0,1-2.79.63h-.44a6.55,6.55,0,0,1-2.88-.62,4.89,4.89,0,0,1-2-1.73,4.24,4.24,0,0,1-.73-2.4,4,4,0,0,1,1.38-3.2,5.58,5.58,0,0,1,3.77-1.18h.68V305h.24a4.63,4.63,0,0,0,3.14-1.08,3.44,3.44,0,0,0,1.26-2.72,4,4,0,0,0-.36-1.74,3.85,3.85,0,0,0-1.15-1.37l.59-.77A4.49,4.49,0,0,1,16,301.24Zm-10.46.22a3.07,3.07,0,0,0,1,2.34A4.74,4.74,0,0,0,9.24,305V298.3H9.11a4,4,0,0,0-2.61.91A2.81,2.81,0,0,0,5.5,301.46Z"/><path class="cls-1" d="M4.66,288l1.8,0A4.12,4.12,0,0,1,5,286.46a4.26,4.26,0,0,1-.5-2,3.11,3.11,0,0,1,2.15-3.33A4.19,4.19,0,0,1,5,279.49a4.41,4.41,0,0,1-.56-2.19c0-2.38,1.3-3.6,3.9-3.64h7.4v1.23H8.44a3.29,3.29,0,0,0-2.21.64,2.62,2.62,0,0,0-.71,2.05,3.3,3.3,0,0,0,.85,2.24,3,3,0,0,0,2,1h7.34v1.23H8.35a3,3,0,0,0-2.13.68,2.65,2.65,0,0,0-.7,2,3.1,3.1,0,0,0,.66,2,3.9,3.9,0,0,0,2,1.23h7.61v1.23H4.66Z"/><path class="cls-1" d="M15.75,263.34a5.85,5.85,0,0,1-1.55.23,4.33,4.33,0,0,1,1.3,1.65,5.07,5.07,0,0,1,.46,2.11,3.7,3.7,0,0,1-.9,2.59,2.89,2.89,0,0,1-2.25,1,3,3,0,0,1-2.57-1.35,6.44,6.44,0,0,1-.94-3.75v-2.23H8a2.45,2.45,0,0,0-1.87.73,3,3,0,0,0-.68,2.14,3.36,3.36,0,0,0,.65,2.13,2,2,0,0,0,1.58.84v1.23a2.86,2.86,0,0,1-2.29-1.23,4.72,4.72,0,0,1-1-3,4.33,4.33,0,0,1,.93-2.93A3.34,3.34,0,0,1,8,262.36h5.25a6.45,6.45,0,0,0,2.41-.34h.12Zm-.88,3.85a4.1,4.1,0,0,0-.6-2.2,3.5,3.5,0,0,0-1.59-1.41H10.24v2.2a5.5,5.5,0,0,0,.68,2.87,2,2,0,0,0,1.78,1,2,2,0,0,0,1.55-.69A2.61,2.61,0,0,0,14.87,267.19Z"/><path class="cls-1" d="M1.81,257H4.66v-2.29h1V257h7.4a2.34,2.34,0,0,0,1.38-.33,1.29,1.29,0,0,0,.45-1.11,9.32,9.32,0,0,0-.1-1l1-.05a3.85,3.85,0,0,1,.18,1.31,2.2,2.2,0,0,1-.74,1.84,3.48,3.48,0,0,1-2.16.57H5.66v2h-1v-2H1.81Z"/><path class="cls-1" d="M16,247.63a4.9,4.9,0,0,1-.7,2.56A4.71,4.71,0,0,1,13.31,252a6,6,0,0,1-2.79.64h-.44A6.55,6.55,0,0,1,7.2,252a4.89,4.89,0,0,1-2-1.73,4.26,4.26,0,0,1-.73-2.4,4,4,0,0,1,1.38-3.2,5.59,5.59,0,0,1,3.77-1.19h.68v7.92h.24a4.63,4.63,0,0,0,3.14-1.08,3.44,3.44,0,0,0,1.26-2.72,4,4,0,0,0-.36-1.74,3.85,3.85,0,0,0-1.15-1.37l.59-.77A4.49,4.49,0,0,1,16,247.63Zm-10.46.22a3.07,3.07,0,0,0,1,2.34,4.74,4.74,0,0,0,2.73,1.15v-6.66H9.11a4.08,4.08,0,0,0-2.61.92A2.81,2.81,0,0,0,5.5,247.85Z"/><path class="cls-1" d="M5.7,235.74a4.35,4.35,0,0,0-.07.83,3,3,0,0,0,.64,1.94,3.49,3.49,0,0,0,1.86,1.13h7.62v1.22H4.66v-1.19l1.76,0a3.25,3.25,0,0,1-2-3.12,2,2,0,0,1,.13-.81Z"/><path class="cls-1" d="M1.45,233.66a.79.79,0,0,1-.58-.22.89.89,0,0,1,0-1.24.8.8,0,0,1,.58-.23.8.8,0,0,1,.58.23.92.92,0,0,1,0,1.24A.79.79,0,0,1,1.45,233.66Zm14.3-1.44v1.23H4.66v-1.23Z"/><path class="cls-1" d="M15.75,221.67a6.21,6.21,0,0,1-1.55.24,4.37,4.37,0,0,1,1.3,1.64,5.12,5.12,0,0,1,.46,2.12,3.7,3.7,0,0,1-.9,2.59,2.89,2.89,0,0,1-2.25,1,3,3,0,0,1-2.57-1.35,6.47,6.47,0,0,1-.94-3.76v-2.22H8a2.42,2.42,0,0,0-1.87.73,3,3,0,0,0-.68,2.14,3.33,3.33,0,0,0,.65,2.12,2,2,0,0,0,1.58.84V229a2.86,2.86,0,0,1-2.29-1.23,4.71,4.71,0,0,1-1-3,4.31,4.31,0,0,1,.93-2.93A3.31,3.31,0,0,1,8,220.7h5.25a6.67,6.67,0,0,0,2.41-.34h.12Zm-.88,3.86a4.08,4.08,0,0,0-.6-2.2,3.39,3.39,0,0,0-1.59-1.41H10.24v2.19a5.5,5.5,0,0,0,.68,2.87,2,2,0,0,0,1.78,1,2,2,0,0,0,1.55-.7A2.6,2.6,0,0,0,14.87,225.53Z"/><path class="cls-1" d="M15.75,215.84v1.23H0v-1.23Z"/><path class="cls-1" d="M10.32,198.06a6.64,6.64,0,0,1,4.11,1.15A3.65,3.65,0,0,1,16,202.29a4.13,4.13,0,0,1-1.6,3.48H20V207H4.66v-1.14l1.56-.06a3.94,3.94,0,0,1-1.77-3.47A3.69,3.69,0,0,1,6,199.19a6.85,6.85,0,0,1,4.18-1.13Zm-.22,1.23a5.69,5.69,0,0,0-3.35.87,2.81,2.81,0,0,0-1.23,2.43,3.23,3.23,0,0,0,2.12,3.18H13a3.23,3.23,0,0,0,1.46-1.26,3.68,3.68,0,0,0,.5-1.94,2.77,2.77,0,0,0-1.24-2.41A6.16,6.16,0,0,0,10.1,199.29Z"/><path class="cls-1" d="M5.7,190a4.35,4.35,0,0,0-.07.83,3,3,0,0,0,.64,1.94,3.49,3.49,0,0,0,1.86,1.13h7.62v1.22H4.66v-1.2l1.76,0a3.26,3.26,0,0,1-2-3.12,2,2,0,0,1,.13-.81Z"/><path class="cls-1" d="M10,188.74a6.55,6.55,0,0,1-2.88-.62,4.75,4.75,0,0,1-2-1.75,4.8,4.8,0,0,1-.71-2.57A4.57,4.57,0,0,1,6,180.21a6,6,0,0,1,4.12-1.38h.26a6.46,6.46,0,0,1,2.89.63,4.64,4.64,0,0,1,2,1.74,4.87,4.87,0,0,1,.7,2.58,4.55,4.55,0,0,1-1.56,3.58,6,6,0,0,1-4.12,1.38Zm.34-1.23a5,5,0,0,0,3.26-1,3.48,3.48,0,0,0,0-5.39,5.18,5.18,0,0,0-3.37-1H10a5.58,5.58,0,0,0-2.33.47,3.71,3.71,0,0,0-1.63,1.32,3.37,3.37,0,0,0-.58,2,3.26,3.26,0,0,0,1.28,2.67,5.22,5.22,0,0,0,3.37,1Z"/><path class="cls-1" d="M10.1,176.58A6.69,6.69,0,0,1,6,175.43a3.71,3.71,0,0,1-1.53-3.13,3.87,3.87,0,0,1,1.77-3.43H0v-1.22H15.75v1.15l-1.48,0A4,4,0,0,1,16,172.32a3.69,3.69,0,0,1-1.55,3.09,6.75,6.75,0,0,1-4.17,1.17Zm.22-1.24a5.73,5.73,0,0,0,3.34-.85,2.73,2.73,0,0,0,1.23-2.4,3.31,3.31,0,0,0-2-3.22H7.68a3.29,3.29,0,0,0-2.16,3.2,2.78,2.78,0,0,0,1.21,2.41A6.16,6.16,0,0,0,10.32,175.34Z"/><path class="cls-1" d="M14.34,157.08A4,4,0,0,1,16,160.61a3.42,3.42,0,0,1-1,2.7,4.45,4.45,0,0,1-3.05.94H4.66V163h7.06c2.11,0,3.17-.85,3.17-2.56a3.14,3.14,0,0,0-2.21-3.37h-8v-1.23H15.75v1.19Z"/><path class="cls-1" d="M14.92,148.37a3.25,3.25,0,0,0-.72-2.15,2.57,2.57,0,0,0-1.87-.94V144.1a3.47,3.47,0,0,1,1.85.64,4,4,0,0,1,1.3,1.55,4.64,4.64,0,0,1,.48,2.08,4.3,4.3,0,0,1-1.52,3.46,6.13,6.13,0,0,1-4.08,1.27H10a7,7,0,0,1-2.91-.57,4.32,4.32,0,0,1-1.94-1.65,4.51,4.51,0,0,1-.69-2.5,4.25,4.25,0,0,1,1.09-3A4,4,0,0,1,8.4,144.1v1.18a3,3,0,0,0-2.9,3.1A3.08,3.08,0,0,0,6.7,151a5.43,5.43,0,0,0,3.36.91h.36a5.32,5.32,0,0,0,3.31-.91A3.11,3.11,0,0,0,14.92,148.37Z"/><path class="cls-1" d="M16,137.14a4.85,4.85,0,0,1-.7,2.56,4.74,4.74,0,0,1-1.95,1.78,6.1,6.1,0,0,1-2.79.64h-.44a6.55,6.55,0,0,1-2.88-.62,5,5,0,0,1-2-1.73,4.26,4.26,0,0,1-.73-2.4,4,4,0,0,1,1.38-3.21A5.64,5.64,0,0,1,9.6,133h.68v7.92h.24a4.58,4.58,0,0,0,3.14-1.09,3.42,3.42,0,0,0,1.26-2.72,4,4,0,0,0-.36-1.74A3.83,3.83,0,0,0,13.41,134l.59-.77A4.48,4.48,0,0,1,16,137.14Zm-10.46.23a3,3,0,0,0,1,2.33,4.75,4.75,0,0,0,2.73,1.16V134.2H9.11a4.08,4.08,0,0,0-2.61.91A2.84,2.84,0,0,0,5.5,137.37Z"/><path class="cls-1" d="M10.1,130.87A6.69,6.69,0,0,1,6,129.72a3.71,3.71,0,0,1-1.53-3.13,3.87,3.87,0,0,1,1.77-3.43H0v-1.22H15.75v1.15l-1.48,0A4,4,0,0,1,16,126.61a3.69,3.69,0,0,1-1.55,3.09,6.75,6.75,0,0,1-4.17,1.17Zm.22-1.24a5.73,5.73,0,0,0,3.34-.85,2.76,2.76,0,0,0,1.23-2.4,3.31,3.31,0,0,0-2-3.22H7.68a3.28,3.28,0,0,0-2.16,3.2,2.78,2.78,0,0,0,1.21,2.41A6.16,6.16,0,0,0,10.32,129.63Z"/><path class="cls-1" d="M10.32,104.25a6.71,6.71,0,0,1,4.11,1.15A3.68,3.68,0,0,1,16,108.49,4,4,0,0,1,14.23,112l1.52,0v1.15H0V112H6.26a3.86,3.86,0,0,1-1.81-3.47A3.7,3.7,0,0,1,6,105.4a6.79,6.79,0,0,1,4.18-1.15Zm-.22,1.24a5.78,5.78,0,0,0-3.39.85,2.77,2.77,0,0,0-1.19,2.4,3.37,3.37,0,0,0,.58,2A3.54,3.54,0,0,0,7.79,112h5a3.3,3.3,0,0,0,2.09-3.26,2.75,2.75,0,0,0-1.2-2.38A6.2,6.2,0,0,0,10.1,105.49Z"/><path class="cls-1" d="M14,97.82,4.66,94.58V93.26l13,4.74.57.24a3,3,0,0,1,2,2.82,3.63,3.63,0,0,1-.14.94h-1l.06-.63a2.25,2.25,0,0,0-.44-1.46,3.42,3.42,0,0,0-1.54-1l-1.49-.54-11,4.18v-1.34Z"/><path class="cls-1" d="M13.2,83.6l1-.19-1-.24L4.66,80.5v-1l8.41-2.64,1.17-.29-1.07-.23L4.66,74V72.75L15.75,76v1L7,79.88l-.6.13.61.13,8.79,2.8v1L4.66,87.21V86Z"/><path class="cls-1" d="M16,65.92a4.84,4.84,0,0,1-.7,2.55,4.67,4.67,0,0,1-1.95,1.78,6,6,0,0,1-2.79.64h-.44a6.55,6.55,0,0,1-2.88-.62,4.89,4.89,0,0,1-2-1.73,4.26,4.26,0,0,1-.73-2.4,4,4,0,0,1,1.38-3.2A5.59,5.59,0,0,1,9.6,61.75h.68v7.92h.24a4.63,4.63,0,0,0,3.14-1.08,3.44,3.44,0,0,0,1.26-2.73,4,4,0,0,0-.36-1.73,3.77,3.77,0,0,0-1.15-1.37L14,62A4.49,4.49,0,0,1,16,65.92ZM5.5,66.14a3,3,0,0,0,1,2.33,4.69,4.69,0,0,0,2.73,1.16V63H9.11a4.08,4.08,0,0,0-2.61.92A2.81,2.81,0,0,0,5.5,66.14Z"/><path class="cls-1" d="M15.75,52.15a6.21,6.21,0,0,1-1.55.24A4.37,4.37,0,0,1,15.5,54,5.12,5.12,0,0,1,16,56.15a3.7,3.7,0,0,1-.9,2.59,2.89,2.89,0,0,1-2.25,1,3,3,0,0,1-2.57-1.35,6.47,6.47,0,0,1-.94-3.76V52.4H8a2.42,2.42,0,0,0-1.87.73,3,3,0,0,0-.68,2.14,3.33,3.33,0,0,0,.65,2.12,2,2,0,0,0,1.58.84v1.23a2.86,2.86,0,0,1-2.29-1.23,4.71,4.71,0,0,1-1-3,4.31,4.31,0,0,1,.93-2.93A3.31,3.31,0,0,1,8,51.18h5.25a6.67,6.67,0,0,0,2.41-.34h.12ZM14.87,56a4.08,4.08,0,0,0-.6-2.2,3.39,3.39,0,0,0-1.59-1.41H10.24v2.19a5.5,5.5,0,0,0,.68,2.87,2,2,0,0,0,1.78,1,2,2,0,0,0,1.55-.7A2.6,2.6,0,0,0,14.87,56Z"/><path class="cls-1" d="M14.06,44.39,4.66,41V39.76L15.75,43.9v1L4.66,49.06V47.8Z"/><path class="cls-1" d="M1.45,37.61a.76.76,0,0,1-.58-.23.8.8,0,0,1-.25-.61.82.82,0,0,1,.25-.62.8.8,0,0,1,.58-.23.8.8,0,0,1,.58.23.81.81,0,0,1,.24.62.79.79,0,0,1-.24.61A.76.76,0,0,1,1.45,37.61Zm14.3-1.45V37.4H4.66V36.16Z"/><path class="cls-1" d="M4.66,31.45l1.89,0A4.32,4.32,0,0,1,5,29.85a4,4,0,0,1-.54-2.06,3.31,3.31,0,0,1,1-2.65,4.52,4.52,0,0,1,3-.89h7.28v1.23H8.46a3.34,3.34,0,0,0-2.22.63,2.47,2.47,0,0,0-.72,2,3.05,3.05,0,0,0,.71,2,4.09,4.09,0,0,0,1.92,1.3h7.6v1.22H4.66Z"/><path class="cls-1" d="M10.1,21.37A6.75,6.75,0,0,1,6,20.22a3.75,3.75,0,0,1-1.52-3.14,3.85,3.85,0,0,1,1.8-3.44l-1.59-.06V12.43H15.52a4.72,4.72,0,0,1,3.4,1.2,4.3,4.3,0,0,1,1.25,3.25,4.88,4.88,0,0,1-.52,2.21,4.16,4.16,0,0,1-1.38,1.65l-.74-.68a3.88,3.88,0,0,0,1.6-3.1,3.15,3.15,0,0,0-.9-2.4,3.65,3.65,0,0,0-2.52-.89h-1.4A4,4,0,0,1,16,17.1a3.72,3.72,0,0,1-1.54,3.1,6.72,6.72,0,0,1-4.16,1.17Zm.22-1.24a5.81,5.81,0,0,0,3.34-.85,2.76,2.76,0,0,0,1.23-2.4,3.29,3.29,0,0,0-2-3.21H7.7a3.49,3.49,0,0,0-1.62,1.24,3.3,3.3,0,0,0-.56,1.95,2.79,2.79,0,0,0,1.21,2.41A6.24,6.24,0,0,0,10.32,20.13Z"/><path class="cls-1" d="M8,3.8a1.76,1.76,0,0,1-1.32-.52A1.85,1.85,0,0,1,6.2,1.91,1.92,1.92,0,0,1,6.7.54,1.74,1.74,0,0,1,8,0H8.4A1.73,1.73,0,0,1,9.72.52a1.93,1.93,0,0,1,.49,1.38,1.93,1.93,0,0,1-.5,1.38,1.75,1.75,0,0,1-1.33.52Z"/></g></g></svg>