<svg xmlns="http://www.w3.org/2000/svg" viewBox="0 0 433.86 194.48"><defs><style>.cls-1{fill:#e9d26b;}.cls-2{fill:#f2f2f2;}</style></defs><g id="Layer_2" data-name="Layer 2"><g id="Layer_1-2" data-name="Layer 1"><path class="cls-1" d="M88.88,71.75a38.69,38.69,0,0,1-6,19.57,36,36,0,0,1-15.35,13.16A52.05,52.05,0,0,1,45,109.15q-20.93,0-33-13.63T0,57V51.77q0-15.6,5.43-27.31A41.17,41.17,0,0,1,21.07,6.38,43.68,43.68,0,0,1,44.7,0Q64,0,75.76,10.17t13.34,28H63.58q-.28-9.71-4.89-13.93t-14-4.23q-9.56,0-14,7.15T26,50v7.51q0,17,4.27,24.28T45,89.1q8.82,0,13.49-4.16t5-13.19Z"/><path class="cls-1" d="M128.07,88h28.47v19.68H102.48V1.53h25.59Z"/><path class="cls-1" d="M254.06,56.8q0,15.53-5.76,27.49a42.52,42.52,0,0,1-16.37,18.41,45.59,45.59,0,0,1-24.17,6.45,46.28,46.28,0,0,1-24.06-6.23,42.57,42.57,0,0,1-16.37-17.83q-5.87-11.59-6.16-26.61v-6q0-15.6,5.73-27.53A42.49,42.49,0,0,1,183.3,6.56,46,46,0,0,1,207.62.07a45.44,45.44,0,0,1,24.06,6.42,43.25,43.25,0,0,1,16.44,18.26Q254,36.6,254.06,51.91Zm-26-4.45q0-15.83-5.28-24a17,17,0,0,0-15.13-8.21q-19.26,0-20.35,28.88l-.07,7.8q0,15.6,5.18,24t15.38,8.38a16.71,16.71,0,0,0,15-8.24Q228,72.69,228,57.24Z"/><path class="cls-1" d="M339.59,21.29H310.88v86.4h-25.6V21.29H257.16V1.53h82.43Z"/><path class="cls-1" d="M432.85,107.69H407.41V63.36h-30v44.33H351.87V1.53h25.59V43.67h30V1.53h25.44Z"/><path class="cls-2" d="M15.84,150.31l.1,3,1.23-3,6.68-15.13h1.56l1.93,15.28.24,2.91,1.16-3.2,5.95-15H36.5l-8.35,20.61H26.49l-2-16.2-.15-1.89-.79,2-7.17,16.12H14.69L12.8,135.2h1.72Z"/><path class="cls-2" d="M36.34,148a10,10,0,0,1,1.36-4.07,7.73,7.73,0,0,1,2.75-2.81,6.67,6.67,0,0,1,3.58-.92,5.31,5.31,0,0,1,3.23,1,5.83,5.83,0,0,1,2,2.76,8.92,8.92,0,0,1,.41,3.87l0,.27A9.56,9.56,0,0,1,47,154a6.7,6.7,0,0,1-5.14,2.13,5.2,5.2,0,0,1-4.12-1.9,7.3,7.3,0,0,1-1.52-4.9l0-.81Zm1.64.48a7.74,7.74,0,0,0,.25,3.11,4.63,4.63,0,0,0,1.38,2.23,3.69,3.69,0,0,0,2.36.85,4.92,4.92,0,0,0,2.8-.78,6.33,6.33,0,0,0,2.09-2.28,9.08,9.08,0,0,0,1.06-3.25l0-.47a7,7,0,0,0-.84-4.47,3.63,3.63,0,0,0-3.18-1.78A4.92,4.92,0,0,0,40,143.4a8.53,8.53,0,0,0-2,4.84Z"/><path class="cls-2" d="M57,153.42l6.54-12.93h1.79l-8,15.32H56l-3.19-15.32h1.68Z"/><path class="cls-2" d="M71.94,156.1a5.33,5.33,0,0,1-3.19-1,5.75,5.75,0,0,1-2-2.72,8.47,8.47,0,0,1-.44-3.72l0-.48a10.19,10.19,0,0,1,1.26-4,7.82,7.82,0,0,1,2.69-2.93,6.16,6.16,0,0,1,3.48-1,4.79,4.79,0,0,1,2.9.93,5.16,5.16,0,0,1,1.72,2.52,8.51,8.51,0,0,1,.34,3.57l-.11,1H68l0,.34a6.63,6.63,0,0,0,.23,2.95,4.65,4.65,0,0,0,1.43,2.24,3.79,3.79,0,0,0,2.4.85,4.83,4.83,0,0,0,2.45-.52,7.62,7.62,0,0,0,2-1.52l1,.81a6.68,6.68,0,0,1-5.57,2.68Zm1.78-14.45a4.44,4.44,0,0,0-3.3,1.31,8.44,8.44,0,0,0-2.19,3.86l8.89,0,0-.22a5,5,0,0,0-.71-3.46A3.22,3.22,0,0,0,73.72,141.65Z"/><path class="cls-2" d="M85.1,140.49l-.51,2.62a7.4,7.4,0,0,1,2.35-2.17,5.48,5.48,0,0,1,2.87-.73A3.74,3.74,0,0,1,93,141.75a6,6,0,0,1,.7,4.09l-1.67,10H90.39l1.67-10a8.19,8.19,0,0,0,0-1.56,2.55,2.55,0,0,0-2.75-2.59,4.53,4.53,0,0,0-2.77.89,7.69,7.69,0,0,0-2.27,2.75l-1.81,10.49H80.82l2.66-15.32Z"/><path class="cls-2" d="M104.38,148a10.17,10.17,0,0,1,1.36-4.07,7.83,7.83,0,0,1,2.76-2.81,6.66,6.66,0,0,1,3.57-.92,5.32,5.32,0,0,1,3.24,1,5.81,5.81,0,0,1,2,2.76,9.07,9.07,0,0,1,.42,3.87l0,.27a9.62,9.62,0,0,1-2.57,5.82,6.72,6.72,0,0,1-5.15,2.13,5.2,5.2,0,0,1-4.12-1.9,7.29,7.29,0,0,1-1.51-4.9l0-.81Zm1.64.48a7.74,7.74,0,0,0,.25,3.11,4.63,4.63,0,0,0,1.38,2.23,3.72,3.72,0,0,0,2.37.85,4.87,4.87,0,0,0,2.79-.78,6.16,6.16,0,0,0,2.09-2.28,9.29,9.29,0,0,0,1.07-3.25l0-.47a7,7,0,0,0-.84-4.47,3.65,3.65,0,0,0-3.18-1.78,4.94,4.94,0,0,0-3.92,1.75,8.6,8.6,0,0,0-2,4.84Z"/><path class="cls-2" d="M129.52,141.92a6,6,0,0,0-1.12-.12,4.89,4.89,0,0,0-3,1,4.74,4.74,0,0,0-1.79,2.5l-1.82,10.53h-1.67l2.67-15.32h1.65l-.51,2.44a6,6,0,0,1,2-2.07,4.78,4.78,0,0,1,2.6-.68,4.21,4.21,0,0,1,1.16.2Z"/><path class="cls-2" d="M138.5,155.81l2.42-13.93h-2.46l.25-1.39h2.45l.3-2.08a5.72,5.72,0,0,1,1.72-3.48,4.81,4.81,0,0,1,3.41-1.21,9.33,9.33,0,0,1,1.85.29l-.3,1.4a5.9,5.9,0,0,0-1.51-.21,3.17,3.17,0,0,0-2.35.92,4.4,4.4,0,0,0-1.16,2.56l-.27,1.81h3.55l-.25,1.39h-3.53l-2.42,13.93Z"/><path class="cls-2" d="M153.15,156.1a5.33,5.33,0,0,1-3.19-1,5.8,5.8,0,0,1-2-2.72,8.47,8.47,0,0,1-.45-3.72l0-.48a10.52,10.52,0,0,1,1.26-4,7.82,7.82,0,0,1,2.69-2.93,6.17,6.17,0,0,1,3.49-1,4.78,4.78,0,0,1,2.89.93,5.16,5.16,0,0,1,1.72,2.52,8.35,8.35,0,0,1,.34,3.57l-.11,1H149.25l0,.34a6.78,6.78,0,0,0,.23,2.95,4.6,4.6,0,0,0,1.44,2.24,3.75,3.75,0,0,0,2.4.85,4.87,4.87,0,0,0,2.45-.52,8,8,0,0,0,2-1.52l1,.81a6.88,6.88,0,0,1-2.46,2A6.78,6.78,0,0,1,153.15,156.1Zm1.78-14.45a4.47,4.47,0,0,0-3.3,1.31,8.44,8.44,0,0,0-2.19,3.86l8.89,0,0-.22a4.94,4.94,0,0,0-.7-3.46A3.25,3.25,0,0,0,154.93,141.65Z"/><path class="cls-2" d="M163.92,155.81h-1.7L166,134.06h1.7Z"/><path class="cls-2" d="M174.7,136.57l-.68,3.92h3.07l-.24,1.39h-3.07l-1.7,10.22,0,.88c0,1,.47,1.56,1.42,1.59a10.91,10.91,0,0,0,1.37-.1l-.07,1.39a5.43,5.43,0,0,1-1.7.21,2.51,2.51,0,0,1-2.17-1,4.54,4.54,0,0,1-.49-2.94l1.68-10.21h-2.74l.25-1.39h2.72l.69-3.92Z"/><path class="cls-2" d="M184.31,156.1a5.33,5.33,0,0,1-3.19-1,5.73,5.73,0,0,1-2-2.72,8.47,8.47,0,0,1-.45-3.72l0-.48a10.19,10.19,0,0,1,1.26-4,7.82,7.82,0,0,1,2.69-2.93,6.17,6.17,0,0,1,3.49-1,4.78,4.78,0,0,1,2.89.93,5.16,5.16,0,0,1,1.72,2.52,8.51,8.51,0,0,1,.34,3.57l-.11,1H180.41l0,.34a6.63,6.63,0,0,0,.23,2.95A4.65,4.65,0,0,0,182,153.8a3.79,3.79,0,0,0,2.4.85,4.83,4.83,0,0,0,2.45-.52,7.83,7.83,0,0,0,2-1.52l1,.81a6.88,6.88,0,0,1-2.46,2A6.78,6.78,0,0,1,184.31,156.1Zm1.78-14.45a4.44,4.44,0,0,0-3.3,1.31,8.44,8.44,0,0,0-2.19,3.86l8.89,0,0-.22a4.9,4.9,0,0,0-.71-3.46A3.22,3.22,0,0,0,186.09,141.65Z"/><path class="cls-2" d="M193.87,148.11a12.72,12.72,0,0,1,1.32-4.27,7.16,7.16,0,0,1,2.43-2.77,5.67,5.67,0,0,1,3.22-.86,5.43,5.43,0,0,1,2.48.63,4.38,4.38,0,0,1,1.77,1.82l1.55-8.6h1.68l-3.79,21.75H203l.39-2a6,6,0,0,1-5,2.33,4.12,4.12,0,0,1-3.35-1.67,7.27,7.27,0,0,1-1.27-4.32,11.84,11.84,0,0,1,.07-1.7Zm1.7.28a14.64,14.64,0,0,0-.08,2,5.09,5.09,0,0,0,.9,3.05,3,3,0,0,0,2.4,1.16,4.76,4.76,0,0,0,2.76-.72,6.6,6.6,0,0,0,2-2l1.23-7.21a4.35,4.35,0,0,0-1.35-2.15,3.84,3.84,0,0,0-2.4-.83,4.27,4.27,0,0,0-3.59,1.65,9.12,9.12,0,0,0-1.85,4.77Z"/><path class="cls-2" d="M217.7,155.81l2.42-13.93h-2.46l.26-1.39h2.45l.29-2.08a5.72,5.72,0,0,1,1.72-3.48,4.81,4.81,0,0,1,3.41-1.21,9.22,9.22,0,0,1,1.85.29l-.29,1.4a6,6,0,0,0-1.52-.21,3.16,3.16,0,0,0-2.34.92,4.34,4.34,0,0,0-1.17,2.56l-.27,1.81h3.55l-.25,1.39h-3.53l-2.42,13.93Z"/><path class="cls-2" d="M235.81,155.81a6.39,6.39,0,0,1-.05-1.07l.13-1.06a8,8,0,0,1-2.43,1.79,6.39,6.39,0,0,1-3,.63,4.39,4.39,0,0,1-3.15-1.23,3.64,3.64,0,0,1-1.08-3,4.45,4.45,0,0,1,1-2.62,6,6,0,0,1,2.64-1.73,11.29,11.29,0,0,1,3.84-.62l3.13,0,.25-1.76a3.1,3.1,0,0,0-.68-2.52,3.34,3.34,0,0,0-2.51-1,4.85,4.85,0,0,0-2.91.82,3.67,3.67,0,0,0-1.55,2.26h-1.65a4.72,4.72,0,0,1,2.06-3.28,7,7,0,0,1,4.22-1.23,4.86,4.86,0,0,1,3.65,1.43,4.28,4.28,0,0,1,1,3.56l-1.27,7.71-.12,1.23a5.89,5.89,0,0,0,.12,1.51l0,.17Zm-5-1.19a5.55,5.55,0,0,0,3-.74,6.59,6.59,0,0,0,2.36-2.28l.58-3.39H234a8.56,8.56,0,0,0-4.21.91,3.29,3.29,0,0,0-1.8,2.62,2.49,2.49,0,0,0,.66,2.06A2.9,2.9,0,0,0,230.79,154.62Z"/><path class="cls-2" d="M255.09,148.22a11.15,11.15,0,0,1-2.33,5.81,5.55,5.55,0,0,1-4.54,2.08,5.61,5.61,0,0,1-2.64-.66,4.41,4.41,0,0,1-1.75-1.73l-.48,2.09h-1.59l3.78-21.75h1.67l-1.6,8.66a5.77,5.77,0,0,1,5-2.51,4.15,4.15,0,0,1,3.39,1.63,7.26,7.26,0,0,1,1.23,4.34,12.42,12.42,0,0,1-.09,1.75Zm-1.66-.32.1-1.34a6,6,0,0,0-.81-3.56,3,3,0,0,0-2.53-1.32q-3.1-.06-4.86,3.14l-1.16,6.92a3.86,3.86,0,0,0,1.41,2.11,4.13,4.13,0,0,0,2.43.79,4.35,4.35,0,0,0,3.53-1.63A9.89,9.89,0,0,0,253.43,147.9Z"/><path class="cls-2" d="M267.16,141.92a6,6,0,0,0-1.12-.12,4.87,4.87,0,0,0-3,1,4.7,4.7,0,0,0-1.8,2.5l-1.81,10.53H257.8l2.66-15.32h1.66l-.51,2.44a5.88,5.88,0,0,1,2-2.07,4.8,4.8,0,0,1,2.6-.68,4.21,4.21,0,0,1,1.16.2Z"/><path class="cls-2" d="M269.57,155.81h-1.7l2.68-15.32h1.68ZM271,136.06c.05-.61.46-1,1.22-1.16a1.42,1.42,0,0,1,.79.35,1.39,1.39,0,0,1,.3.81,1.59,1.59,0,0,1-.41.79,1.8,1.8,0,0,1-.81.36C271.34,137.09,271,136.71,271,136.06Z"/><path class="cls-2" d="M280.35,154.68a4.44,4.44,0,0,0,3-.93,4.67,4.67,0,0,0,1.7-2.65h1.6a5.83,5.83,0,0,1-2.23,3.67,6.25,6.25,0,0,1-4.11,1.34,5.16,5.16,0,0,1-3.12-1,5.46,5.46,0,0,1-1.82-2.7,9.81,9.81,0,0,1-.36-3.9l.06-.61a11.08,11.08,0,0,1,.73-2.88,8.63,8.63,0,0,1,1.49-2.49,7,7,0,0,1,2.23-1.71,6.23,6.23,0,0,1,2.93-.59,5,5,0,0,1,3.73,1.59,5.25,5.25,0,0,1,1.31,3.88l-1.6,0a4.11,4.11,0,0,0-.92-2.86,3.44,3.44,0,0,0-2.59-1.15,4.68,4.68,0,0,0-3.11,1,6.55,6.55,0,0,0-2,3.05,12,12,0,0,0-.64,4.17,5.72,5.72,0,0,0,1,3.51A3.47,3.47,0,0,0,280.35,154.68Z"/><path class="cls-2" d="M300.81,140.49l-.48,2.49a6.08,6.08,0,0,1,5.2-2.77,4.56,4.56,0,0,1,2.68.81,3.29,3.29,0,0,1,1.33,2.16A7.72,7.72,0,0,1,312,141a5.8,5.8,0,0,1,3-.76,3.89,3.89,0,0,1,3.23,1.44,5.47,5.47,0,0,1,.87,3.86l0,.32-1.68,10h-1.69l1.68-10a8.36,8.36,0,0,0,0-1.58,2.6,2.6,0,0,0-2.86-2.55,5.19,5.19,0,0,0-5,4l-1.76,10.12h-1.68l1.7-10.12c.27-2.61-.69-3.94-2.88-4a4.82,4.82,0,0,0-3,1,5.12,5.12,0,0,0-1.88,2.6l-1.81,10.51h-1.69l2.67-15.32Z"/><path class="cls-2" d="M331.51,155.81a5.48,5.48,0,0,1-.05-1.07l.13-1.06a8,8,0,0,1-2.43,1.79,6.39,6.39,0,0,1-3,.63,4.39,4.39,0,0,1-3.15-1.23,3.64,3.64,0,0,1-1.08-3,4.45,4.45,0,0,1,1-2.62,6,6,0,0,1,2.64-1.73,11.29,11.29,0,0,1,3.84-.62l3.12,0,.26-1.76a3.1,3.1,0,0,0-.68-2.52,3.34,3.34,0,0,0-2.51-1,4.85,4.85,0,0,0-2.91.82,3.67,3.67,0,0,0-1.55,2.26h-1.65a4.72,4.72,0,0,1,2.06-3.28,7,7,0,0,1,4.22-1.23,4.86,4.86,0,0,1,3.65,1.43,4.28,4.28,0,0,1,1,3.56l-1.27,7.71-.12,1.23a5.48,5.48,0,0,0,.12,1.51l0,.17Zm-5-1.19a5.57,5.57,0,0,0,3-.74,6.59,6.59,0,0,0,2.36-2.28l.58-3.39h-2.7a8.56,8.56,0,0,0-4.21.91,3.29,3.29,0,0,0-1.8,2.62,2.49,2.49,0,0,0,.66,2.06A2.9,2.9,0,0,0,326.49,154.62Z"/><path class="cls-2" d="M338.15,148.11a12.72,12.72,0,0,1,1.32-4.27,7.16,7.16,0,0,1,2.43-2.77,5.67,5.67,0,0,1,3.22-.86,5.43,5.43,0,0,1,2.48.63,4.38,4.38,0,0,1,1.77,1.82l1.56-8.6h1.67l-3.78,21.75h-1.58l.39-2a6,6,0,0,1-5,2.33,4.13,4.13,0,0,1-3.35-1.67,7.34,7.34,0,0,1-1.27-4.32,11.82,11.82,0,0,1,.08-1.7Zm1.7.28a14.64,14.64,0,0,0-.08,2,5.23,5.23,0,0,0,.9,3.05,3,3,0,0,0,2.4,1.16,4.72,4.72,0,0,0,2.76-.72,6.6,6.6,0,0,0,2-2l1.23-7.21a4.28,4.28,0,0,0-1.35-2.15,3.84,3.84,0,0,0-2.4-.83,4.27,4.27,0,0,0-3.59,1.65,9.21,9.21,0,0,0-1.85,4.77Z"/><path class="cls-2" d="M359.61,156.1a5.3,5.3,0,0,1-3.18-1,5.75,5.75,0,0,1-2-2.72,8.33,8.33,0,0,1-.44-3.72l0-.48a10.19,10.19,0,0,1,1.26-4,7.74,7.74,0,0,1,2.69-2.93,6.14,6.14,0,0,1,3.48-1,4.81,4.81,0,0,1,2.9.93,5.16,5.16,0,0,1,1.72,2.52,8.51,8.51,0,0,1,.34,3.57l-.11,1H355.72l0,.34a6.78,6.78,0,0,0,.22,2.95,4.74,4.74,0,0,0,1.44,2.24,3.79,3.79,0,0,0,2.4.85,4.85,4.85,0,0,0,2.45-.52,7.62,7.62,0,0,0,2-1.52l1,.81a6.94,6.94,0,0,1-2.45,2A6.8,6.8,0,0,1,359.61,156.1Zm1.79-14.45a4.44,4.44,0,0,0-3.3,1.31,8.45,8.45,0,0,0-2.2,3.86l8.9,0,0-.22a5,5,0,0,0-.71-3.46A3.22,3.22,0,0,0,361.4,141.65Z"/><path class="cls-2" d="M376.94,155.81l2.43-13.93H376.9l.26-1.39h2.45l.29-2.08a5.72,5.72,0,0,1,1.72-3.48,4.82,4.82,0,0,1,3.41-1.21,9.31,9.31,0,0,1,1.86.29l-.3,1.4a6,6,0,0,0-1.52-.21,3.16,3.16,0,0,0-2.34.92,4.34,4.34,0,0,0-1.17,2.56l-.27,1.81h3.56l-.26,1.39h-3.52l-2.43,13.93Z"/><path class="cls-2" d="M394.88,141.92a6,6,0,0,0-1.12-.12,4.87,4.87,0,0,0-3,1,4.7,4.7,0,0,0-1.8,2.5l-1.81,10.53h-1.67l2.66-15.32h1.66l-.51,2.44a5.9,5.9,0,0,1,2-2.07,4.74,4.74,0,0,1,2.59-.68,4.21,4.21,0,0,1,1.16.2Z"/><path class="cls-2" d="M395.54,148a10,10,0,0,1,1.36-4.07,7.73,7.73,0,0,1,2.75-2.81,6.67,6.67,0,0,1,3.58-.92,5.31,5.31,0,0,1,3.23,1,5.9,5.9,0,0,1,2,2.76,8.92,8.92,0,0,1,.41,3.87l0,.27a9.56,9.56,0,0,1-2.57,5.82,6.7,6.7,0,0,1-5.14,2.13,5.2,5.2,0,0,1-4.12-1.9,7.3,7.3,0,0,1-1.52-4.9l0-.81Zm1.64.48a7.74,7.74,0,0,0,.25,3.11,4.55,4.55,0,0,0,1.38,2.23,3.69,3.69,0,0,0,2.36.85,4.92,4.92,0,0,0,2.8-.78,6.33,6.33,0,0,0,2.09-2.28,9.28,9.28,0,0,0,1.06-3.25l0-.47a7,7,0,0,0-.84-4.47,3.63,3.63,0,0,0-3.18-1.78,4.92,4.92,0,0,0-3.91,1.75,8.53,8.53,0,0,0-2,4.84Z"/><path class="cls-2" d="M415.52,140.49,415,143a6.08,6.08,0,0,1,5.2-2.77,4.58,4.58,0,0,1,2.68.81,3.33,3.33,0,0,1,1.33,2.16,7.61,7.61,0,0,1,2.44-2.21,5.8,5.8,0,0,1,3-.76,3.89,3.89,0,0,1,3.23,1.44,5.47,5.47,0,0,1,.87,3.86l0,.32-1.68,10h-1.69l1.67-10a7.63,7.63,0,0,0,0-1.58,2.6,2.6,0,0,0-2.86-2.55,5.19,5.19,0,0,0-5,4l-1.76,10.12h-1.68l1.7-10.12c.27-2.61-.69-3.94-2.88-4a4.82,4.82,0,0,0-3,1,5.12,5.12,0,0,0-1.88,2.6l-1.81,10.51h-1.69l2.67-15.32Z"/><path class="cls-2" d="M14.91,187.09v1.2l.55-1.32,5.59-11.68H22.5L24,187l.09,1.45.58-1.46,5.07-11.7h1.79l-7,15.32H23.1l-1.68-12.15v-.85l-.33.87-5.86,12.13H13.77l-1.63-15.32h1.59Z"/><path class="cls-2" d="M32.77,182.81a10,10,0,0,1,1.36-4.07,7.73,7.73,0,0,1,2.75-2.81,6.67,6.67,0,0,1,3.58-.92,5.31,5.31,0,0,1,3.23,1,5.72,5.72,0,0,1,2,2.76,8.92,8.92,0,0,1,.41,3.87l0,.27a9.68,9.68,0,0,1-2.57,5.82,6.72,6.72,0,0,1-5.15,2.13A5.2,5.2,0,0,1,34.2,189a7.3,7.3,0,0,1-1.52-4.9l0-.81Zm1.64.48a7.74,7.74,0,0,0,.25,3.11A4.63,4.63,0,0,0,36,188.63a3.69,3.69,0,0,0,2.36.85,4.9,4.9,0,0,0,2.8-.78,6.24,6.24,0,0,0,2.09-2.28,9.08,9.08,0,0,0,1.06-3.25l0-.47a7,7,0,0,0-.84-4.47,3.63,3.63,0,0,0-3.18-1.78,4.92,4.92,0,0,0-3.91,1.75,8.6,8.6,0,0,0-2,4.84Z"/><path class="cls-2" d="M49,182.81a10,10,0,0,1,1.36-4.07,7.81,7.81,0,0,1,2.75-2.81,6.7,6.7,0,0,1,3.58-.92,5.31,5.31,0,0,1,3.23,1,5.72,5.72,0,0,1,2,2.76,9.07,9.07,0,0,1,.42,3.87l0,.27a9.62,9.62,0,0,1-2.57,5.82,6.72,6.72,0,0,1-5.15,2.13,5.2,5.2,0,0,1-4.12-1.9,7.29,7.29,0,0,1-1.51-4.9l0-.81Zm1.64.48a7.74,7.74,0,0,0,.25,3.11,4.63,4.63,0,0,0,1.38,2.23,3.7,3.7,0,0,0,2.37.85,4.87,4.87,0,0,0,2.79-.78,6.24,6.24,0,0,0,2.09-2.28,9.08,9.08,0,0,0,1.06-3.25l.05-.47a6.93,6.93,0,0,0-.85-4.47,3.63,3.63,0,0,0-3.18-1.78,4.92,4.92,0,0,0-3.91,1.75,8.6,8.6,0,0,0-2,4.84Z"/><path class="cls-2" d="M66.62,190.61H64.93l3.78-21.75h1.7Z"/><path class="cls-2" d="M70.58,194.48l-1-.78A7.6,7.6,0,0,0,71.57,190l.34-2h1.65l-.32,2A7.31,7.31,0,0,1,70.58,194.48Z"/><path class="cls-2" d="M90.49,189.48a4.42,4.42,0,0,0,3-.93,4.64,4.64,0,0,0,1.71-2.65h1.6a5.83,5.83,0,0,1-2.23,3.67,6.27,6.27,0,0,1-4.11,1.34,5.16,5.16,0,0,1-3.12-1,5.4,5.4,0,0,1-1.82-2.7,9.83,9.83,0,0,1-.36-3.9l.06-.61a10.69,10.69,0,0,1,.73-2.88,8.63,8.63,0,0,1,1.49-2.49,6.93,6.93,0,0,1,2.23-1.71,6.19,6.19,0,0,1,2.92-.59,5,5,0,0,1,3.74,1.58,5.28,5.28,0,0,1,1.31,3.88H96a4.11,4.11,0,0,0-.93-2.86,3.41,3.41,0,0,0-2.59-1.15,4.66,4.66,0,0,0-3.1,1,6.55,6.55,0,0,0-2,3.05,11.76,11.76,0,0,0-.64,4.17,5.72,5.72,0,0,0,1,3.51A3.47,3.47,0,0,0,90.49,189.48Z"/><path class="cls-2" d="M99.89,182.81a10,10,0,0,1,1.36-4.07,7.73,7.73,0,0,1,2.75-2.81,6.66,6.66,0,0,1,3.57-.92,5.32,5.32,0,0,1,3.24,1,5.76,5.76,0,0,1,2,2.76,8.92,8.92,0,0,1,.42,3.87l0,.27a9.62,9.62,0,0,1-2.57,5.82,6.7,6.7,0,0,1-5.14,2.13,5.19,5.19,0,0,1-4.12-1.9,7.3,7.3,0,0,1-1.52-4.9l0-.81Zm1.64.48a7.74,7.74,0,0,0,.25,3.11,4.48,4.48,0,0,0,1.38,2.23,3.69,3.69,0,0,0,2.36.85,4.92,4.92,0,0,0,2.8-.78,6.33,6.33,0,0,0,2.09-2.28,9.28,9.28,0,0,0,1.06-3.25l0-.47a7,7,0,0,0-.84-4.47,3.63,3.63,0,0,0-3.18-1.78,4.94,4.94,0,0,0-3.92,1.75,8.52,8.52,0,0,0-2,4.84Z"/><path class="cls-2" d="M121.6,171.37l-.68,3.92H124l-.24,1.39h-3.07L119,186.9l0,.88c0,1,.47,1.56,1.42,1.59a10.91,10.91,0,0,0,1.37-.1l-.07,1.39a5.43,5.43,0,0,1-1.7.21,2.48,2.48,0,0,1-2.16-1,4.47,4.47,0,0,1-.5-2.94L119,176.68h-2.74l.25-1.39h2.72l.7-3.92Z"/><path class="cls-2" d="M131.07,171.37l-.68,3.92h3.07l-.24,1.39h-3.07l-1.7,10.22,0,.88q0,1.54,1.41,1.59a11,11,0,0,0,1.38-.1l-.07,1.39a5.47,5.47,0,0,1-1.7.21,2.5,2.5,0,0,1-2.17-1,4.48,4.48,0,0,1-.49-2.94l1.68-10.21h-2.75l.26-1.39h2.72l.69-3.92Z"/><path class="cls-2" d="M134.73,182.81a10,10,0,0,1,1.36-4.07,7.73,7.73,0,0,1,2.75-2.81,6.67,6.67,0,0,1,3.58-.92,5.31,5.31,0,0,1,3.23,1,5.76,5.76,0,0,1,1.95,2.76,8.92,8.92,0,0,1,.42,3.87l0,.27a9.62,9.62,0,0,1-2.57,5.82,6.7,6.7,0,0,1-5.14,2.13,5.2,5.2,0,0,1-4.12-1.9,7.3,7.3,0,0,1-1.52-4.9l0-.81Zm1.64.48a7.74,7.74,0,0,0,.25,3.11,4.48,4.48,0,0,0,1.38,2.23,3.69,3.69,0,0,0,2.36.85,4.92,4.92,0,0,0,2.8-.78,6.33,6.33,0,0,0,2.09-2.28,9.28,9.28,0,0,0,1.06-3.25l0-.47a7,7,0,0,0-.84-4.47,3.63,3.63,0,0,0-3.18-1.78,4.9,4.9,0,0,0-3.91,1.75,8.46,8.46,0,0,0-2,4.84Z"/><path class="cls-2" d="M154.78,175.29l-.51,2.62a7.43,7.43,0,0,1,2.36-2.17,5.46,5.46,0,0,1,2.87-.73,3.73,3.73,0,0,1,3.21,1.54,6,6,0,0,1,.71,4.09l-1.67,10h-1.67l1.67-10a8.19,8.19,0,0,0,0-1.56,2.56,2.56,0,0,0-2.75-2.59,4.53,4.53,0,0,0-2.77.89,7.59,7.59,0,0,0-2.27,2.75l-1.81,10.49h-1.67l2.66-15.32Z"/><path class="cls-2" d="M165.5,194.48l-.95-.78a7.77,7.77,0,0,0,1.94-3.74l.34-2h1.64l-.31,2A7.36,7.36,0,0,1,165.5,194.48Z"/><path class="cls-2" d="M179.88,182.81a10,10,0,0,1,1.36-4.07,7.83,7.83,0,0,1,2.76-2.81,6.66,6.66,0,0,1,3.57-.92,5.34,5.34,0,0,1,3.24,1,5.76,5.76,0,0,1,1.95,2.76,9.07,9.07,0,0,1,.42,3.87l0,.27a9.62,9.62,0,0,1-2.57,5.82,6.72,6.72,0,0,1-5.15,2.13,5.2,5.2,0,0,1-4.12-1.9,7.29,7.29,0,0,1-1.51-4.9l0-.81Zm1.64.48a7.74,7.74,0,0,0,.25,3.11,4.63,4.63,0,0,0,1.38,2.23,3.72,3.72,0,0,0,2.37.85,4.87,4.87,0,0,0,2.79-.78,6.16,6.16,0,0,0,2.09-2.28,9.08,9.08,0,0,0,1.06-3.25l0-.47a6.93,6.93,0,0,0-.85-4.47,3.62,3.62,0,0,0-3.17-1.78,4.94,4.94,0,0,0-3.92,1.75,8.6,8.6,0,0,0-2,4.84Z"/><path class="cls-2" d="M205,176.72a7,7,0,0,0-1.12-.13,4.9,4.9,0,0,0-3,1,4.74,4.74,0,0,0-1.79,2.5l-1.82,10.53h-1.67l2.67-15.32H200l-.51,2.44a6,6,0,0,1,2-2.07,4.78,4.78,0,0,1,2.6-.68,4.21,4.21,0,0,1,1.16.2Z"/><path class="cls-2" d="M222.35,190.61a6.39,6.39,0,0,1,0-1.07l.13-1.06a8,8,0,0,1-2.43,1.79,6.39,6.39,0,0,1-2.95.63,4.39,4.39,0,0,1-3.15-1.23,3.68,3.68,0,0,1-1.09-3,4.53,4.53,0,0,1,1.05-2.62,5.89,5.89,0,0,1,2.64-1.73,11.27,11.27,0,0,1,3.83-.62l3.13,0,.26-1.76a3.13,3.13,0,0,0-.68-2.52,3.34,3.34,0,0,0-2.51-1,4.85,4.85,0,0,0-2.91.82,3.67,3.67,0,0,0-1.55,2.26h-1.66a4.73,4.73,0,0,1,2.07-3.28,7.05,7.05,0,0,1,4.22-1.24,4.92,4.92,0,0,1,3.65,1.44,4.28,4.28,0,0,1,1,3.56l-1.28,7.71-.11,1.23a5.88,5.88,0,0,0,.11,1.51l0,.17Zm-5-1.19a5.57,5.57,0,0,0,3-.74,6.59,6.59,0,0,0,2.36-2.28l.58-3.39h-2.7a8.56,8.56,0,0,0-4.21.91,3.29,3.29,0,0,0-1.8,2.62,2.49,2.49,0,0,0,.66,2.06A2.87,2.87,0,0,0,217.34,189.42Z"/><path class="cls-2" d="M245.28,186.62c.15-1.3-.64-2.25-2.38-2.83l-2.44-.72q-3.35-1.14-3.17-3.78a3.94,3.94,0,0,1,1.77-3.11A6.39,6.39,0,0,1,243,175a5.44,5.44,0,0,1,3.66,1.27,3.9,3.9,0,0,1,1.3,3.3H246.3a2.66,2.66,0,0,0-.86-2.23,3.65,3.65,0,0,0-2.5-.9,4.76,4.76,0,0,0-2.72.76,2.72,2.72,0,0,0-1.24,2c-.14,1.22.6,2.08,2.23,2.57l1.77.51,1,.32c2.14.81,3.14,2.11,3,3.93a4.08,4.08,0,0,1-1.59,3,6.56,6.56,0,0,1-3.82,1.32l-.58,0a7,7,0,0,1-2.79-.6,4.41,4.41,0,0,1-1.91-1.61,3.77,3.77,0,0,1-.58-2.38h1.68a2.83,2.83,0,0,0,1,2.28,4.11,4.11,0,0,0,2.69.87,5.16,5.16,0,0,0,2.89-.78A2.81,2.81,0,0,0,245.28,186.62Z"/><path class="cls-2" d="M252.15,190.61h-1.7l2.68-15.32h1.69Zm1.45-19.75c.05-.61.45-1,1.22-1.16a1.32,1.32,0,0,1,.78.35,1.39,1.39,0,0,1,.31.81,1.77,1.77,0,0,1-.41.79,1.8,1.8,0,0,1-.81.36C253.92,171.89,253.56,171.51,253.6,170.86Z"/><path class="cls-2" d="M261.21,175.29l-.48,2.49a6.07,6.07,0,0,1,5.19-2.77,4.61,4.61,0,0,1,2.69.81,3.32,3.32,0,0,1,1.32,2.16,7.72,7.72,0,0,1,2.44-2.21,5.83,5.83,0,0,1,3-.76,3.93,3.93,0,0,1,3.24,1.44,5.56,5.56,0,0,1,.87,3.85l0,.33-1.69,10h-1.68l1.67-10a7.6,7.6,0,0,0,0-1.58,2.6,2.6,0,0,0-2.86-2.55,5.17,5.17,0,0,0-5,4l-1.76,10.12H266.5l1.7-10.12c.28-2.61-.68-3.94-2.87-4a4.78,4.78,0,0,0-3,1,5.06,5.06,0,0,0-1.88,2.6l-1.82,10.51h-1.68l2.66-15.32Z"/><path class="cls-2" d="M284.25,190.61h-1.7l2.68-15.32h1.69Zm1.45-19.75c.05-.61.45-1,1.22-1.16a1.32,1.32,0,0,1,.78.35,1.39,1.39,0,0,1,.31.81,1.77,1.77,0,0,1-.41.79,1.8,1.8,0,0,1-.81.36C286,171.89,285.66,171.51,285.7,170.86Z"/><path class="cls-2" d="M291,190.61h-1.7l3.78-21.75h1.7Z"/><path class="cls-2" d="M305.37,190.61a5.48,5.48,0,0,1-.05-1.07l.13-1.06a8,8,0,0,1-2.43,1.79,6.39,6.39,0,0,1-2.95.63,4.39,4.39,0,0,1-3.15-1.23,3.64,3.64,0,0,1-1.08-3,4.45,4.45,0,0,1,1-2.62,6,6,0,0,1,2.64-1.73,11.29,11.29,0,0,1,3.84-.62l3.12,0,.26-1.76a3.1,3.1,0,0,0-.68-2.52,3.34,3.34,0,0,0-2.51-1,4.85,4.85,0,0,0-2.91.82,3.67,3.67,0,0,0-1.55,2.26h-1.65a4.72,4.72,0,0,1,2.06-3.28,7.05,7.05,0,0,1,4.22-1.24,4.91,4.91,0,0,1,3.65,1.44,4.28,4.28,0,0,1,1,3.56l-1.27,7.71-.12,1.23a5.48,5.48,0,0,0,.12,1.51l0,.17Zm-5-1.19a5.55,5.55,0,0,0,3-.74,6.59,6.59,0,0,0,2.36-2.28l.58-3.39h-2.7a8.56,8.56,0,0,0-4.21.91,3.29,3.29,0,0,0-1.8,2.62,2.49,2.49,0,0,0,.66,2.06A2.9,2.9,0,0,0,300.35,189.42Z"/><path class="cls-2" d="M320.69,176.72a6.86,6.86,0,0,0-1.11-.13,4.86,4.86,0,0,0-3,1,4.7,4.7,0,0,0-1.8,2.5L313,190.61h-1.68L314,175.29h1.65l-.51,2.44a6,6,0,0,1,2-2.07,4.8,4.8,0,0,1,2.6-.68,4.21,4.21,0,0,1,1.16.2Z"/><path class="cls-2" d="M329.67,190.61l2.42-13.93h-2.46l.25-1.39h2.45l.3-2.08a5.72,5.72,0,0,1,1.72-3.48,4.81,4.81,0,0,1,3.41-1.21,9.33,9.33,0,0,1,1.85.29l-.3,1.4a5.84,5.84,0,0,0-1.51-.21,3.15,3.15,0,0,0-2.34.92,4.34,4.34,0,0,0-1.17,2.56l-.27,1.81h3.55l-.25,1.39h-3.53l-2.42,13.93Z"/><path class="cls-2" d="M340.13,190.61h-1.7l2.68-15.32h1.68Zm1.44-19.75c.05-.61.46-1,1.22-1.16a1.35,1.35,0,0,1,.79.35,1.46,1.46,0,0,1,.3.81,1.59,1.59,0,0,1-.41.79,1.8,1.8,0,0,1-.81.36C341.9,171.89,341.54,171.51,341.57,170.86Z"/><path class="cls-2" d="M358.29,183a11.07,11.07,0,0,1-2.33,5.81,5.53,5.53,0,0,1-4.54,2.08,5.61,5.61,0,0,1-2.64-.66,4.55,4.55,0,0,1-1.75-1.73l-.48,2.09H345l3.78-21.75h1.68l-1.6,8.66a5.76,5.76,0,0,1,5-2.51,4.13,4.13,0,0,1,3.38,1.63A7.26,7.26,0,0,1,358.4,181a14.17,14.17,0,0,1-.08,1.75Zm-1.66-.32.1-1.34a6,6,0,0,0-.81-3.56,3,3,0,0,0-2.53-1.32q-3.11-.06-4.86,3.14l-1.16,6.92a3.91,3.91,0,0,0,1.41,2.11,4.15,4.15,0,0,0,2.43.79,4.33,4.33,0,0,0,3.53-1.63A9.89,9.89,0,0,0,356.63,182.7Z"/><path class="cls-2" d="M367.07,190.9a5.33,5.33,0,0,1-3.18-1,5.75,5.75,0,0,1-2-2.72,8.33,8.33,0,0,1-.44-3.72l0-.48a10.19,10.19,0,0,1,1.26-4,7.82,7.82,0,0,1,2.69-2.93,6.16,6.16,0,0,1,3.48-1,4.79,4.79,0,0,1,2.9.93,5.16,5.16,0,0,1,1.72,2.52,8.51,8.51,0,0,1,.34,3.57l-.11,1H363.18l0,.34a6.79,6.79,0,0,0,.22,3,4.74,4.74,0,0,0,1.44,2.24,3.79,3.79,0,0,0,2.4.85,4.85,4.85,0,0,0,2.45-.52,7.62,7.62,0,0,0,2-1.52l1,.81a6.68,6.68,0,0,1-5.58,2.68Zm1.79-14.45a4.44,4.44,0,0,0-3.3,1.31,8.54,8.54,0,0,0-2.2,3.86l8.9,0,0-.22a5,5,0,0,0-.71-3.46A3.22,3.22,0,0,0,368.86,176.45Z"/><path class="cls-2" d="M385.32,176.72a7,7,0,0,0-1.12-.13,4.88,4.88,0,0,0-3,1,4.76,4.76,0,0,0-1.8,2.5l-1.81,10.53H376l2.66-15.32h1.66l-.51,2.44a6,6,0,0,1,2-2.07,4.78,4.78,0,0,1,2.6-.68,4.27,4.27,0,0,1,1.16.2Z"/><path class="cls-2" d="M384.14,189.59a1.28,1.28,0,0,1,.4-.84,1.26,1.26,0,0,1,.86-.36,1,1,0,0,1,.83.34,1.11,1.11,0,0,1,.29.86,1.15,1.15,0,0,1-.39.82,1.33,1.33,0,0,1-.86.33,1.08,1.08,0,0,1-.83-.31A1,1,0,0,1,384.14,189.59Z"/></g></g></svg>