<svg xmlns="http://www.w3.org/2000/svg" viewBox="0 0 33.83 33.9"><defs><style>.cls-1{fill:#e9d26b;}</style></defs><g id="Layer_2" data-name="Layer 2"><g id="Layer_1-2" data-name="Layer 1"><polygon class="cls-1" points="14.21 11.59 11.49 14.31 13.84 16.66 17.09 19.91 19.85 22.67 22.57 19.95 19.81 17.19 16.56 13.94 14.21 11.59"/><path class="cls-1" d="M7.71,10.53l2.72-2.72-1-1a2,2,0,0,0-2.72,0,1.93,1.93,0,0,0,0,2.72Z"/><path class="cls-1" d="M26.36,23.73l-2.72,2.72.62.63a2,2,0,0,0,2.72,0,1.93,1.93,0,0,0,0-2.72Z"/><path class="cls-1" d="M19.72,29.31l-1.88-1.88-5.76-5.77L10.45,20,7.58,17.16,4.86,14.44,3.28,12.87a1.86,1.86,0,0,0-1.36-.56,1.88,1.88,0,0,0-1.36.56h0a1.93,1.93,0,0,0,0,2.72l1.58,1.57,2.55,2.55,4.67,4.68L11,26l1.63,1.62L16,31,17,32l1.16,1.15a2,2,0,0,0,2.72,0,1.9,1.9,0,0,0,.56-1.36,1.94,1.94,0,0,0-.56-1.36Z"/><path class="cls-1" d="M6.4,24.09a2.3,2.3,0,0,0,3.25,3.25l.8-.8L7.2,23.29Z"/><rect class="cls-1" x="12.13" y="17.67" width="3.29" height="4.6" transform="translate(-10.09 15.59) rotate(-45)"/><path class="cls-1" d="M13,30.64a1.93,1.93,0,0,0,0,2.72,2,2,0,0,0,2.72,0l.8-.8-2.72-2.72Z"/><path class="cls-1" d="M33.26,18.14l-2.2-2.2-1.71-1.71L19.93,4.81,17.21,2.09,15.67.54A2,2,0,0,0,13,.54a1.93,1.93,0,0,0,0,2.72l1.54,1.55,2.72,2.72,2,2,2.39,2.38,1.71,1.72h0l4.09,4.08,1.92,1.93,1.19,1.19a1.92,1.92,0,0,0,2.72-2.72Z"/><path class="cls-1" d="M27.25,9.75a2.31,2.31,0,0,0,0-3.25h0A2.29,2.29,0,0,0,24,6.5l-.66.65,3.25,3.26Z"/><rect class="cls-1" x="18.2" y="11.5" width="3.49" height="4.6" transform="translate(-3.91 18.15) rotate(-45)"/><path class="cls-1" d="M33.26,15.76A1.92,1.92,0,1,0,30.54,13l-.66.66,2.73,2.72Z"/><polygon class="cls-1" points="23.11 20.48 23.11 20.48 21.62 21.97 17.53 26.05 20.25 28.77 23.11 25.92 23.11 25.92 25.83 23.2 25.83 23.2 28.82 20.2 26.1 17.48 23.11 20.48"/><polygon class="cls-1" points="12.32 12.42 13.68 11.06 16.68 8.06 13.96 5.34 10.96 8.34 9.6 9.7 5.39 13.91 8.11 16.63 12.32 12.42"/><path class="cls-1" d="M21.12,3.62A1.92,1.92,0,0,0,18.4.9l-.66.66,2.72,2.72Z"/><path class="cls-1" d="M.8,18.5a1.9,1.9,0,0,0-.56,1.36A1.94,1.94,0,0,0,.8,21.22h0a2,2,0,0,0,2.72,0l.81-.81L1.61,17.69Z"/></g></g></svg>