<svg xmlns="http://www.w3.org/2000/svg" viewBox="0 0 232.14 48.32"><defs><style>.cls-1{fill:#f2f2f2;}.cls-2{fill:none;stroke:#fff;stroke-miterlimit:10;}</style></defs><g id="Layer_2" data-name="Layer 2"><g id="Layer_1-2" data-name="Layer 1"><path class="cls-1" d="M151.66,14A4.37,4.37,0,0,1,156,18.4V31.14a4.37,4.37,0,0,1-4.37,4.37H138.92a4.37,4.37,0,0,1-4.37-4.37V18.4A4.37,4.37,0,0,1,138.92,14h12.74m0-1.46H138.92a5.85,5.85,0,0,0-5.83,5.83V31.14A5.84,5.84,0,0,0,138.92,37h12.74a5.84,5.84,0,0,0,5.82-5.83V18.4a5.85,5.85,0,0,0-5.82-5.83Z"/><path class="cls-1" d="M145.29,20.81a4,4,0,1,1-4,4,4,4,0,0,1,4-4m0-1.46a5.44,5.44,0,0,0-5.42,5.42h0a5.42,5.42,0,0,0,10.84,0h0a5.44,5.44,0,0,0-5.42-5.42Z"/><rect class="cls-1" x="150.71" y="15.81" width="3.54" height="3.54" rx="1.77"/><path class="cls-1" d="M27,17.14h3.44v-4H27a5.5,5.5,0,0,0-5.5,5.49v3.12H17.87v4h3.64V36.49h4V25.76h3.83l.46-4H25.54V18.61A1.47,1.47,0,0,1,27,17.14Z"/><path class="cls-1" d="M85.15,11.42V29.33a3.69,3.69,0,0,1-7.37-.42c0-.91.66-3.54,4.66-3.54v-4H81s-7.58-.16-7.58,7.64c0,6.91,5.94,7.92,8.08,7.92,3.85,0,7.81-2.06,7.81-6.75V19.79a10,10,0,0,0,6.63,2.1v-4s-6.43-.44-6.43-6.47Z"/><path class="cls-1" d="M216.53,16.45H200.28a4,4,0,0,0-4,4v8.69a4,4,0,0,0,4,4h16.25a4,4,0,0,0,4-4V20.46A4,4,0,0,0,216.53,16.45ZM205.82,28.52V21L212,24.8Z"/><circle class="cls-2" cx="24.16" cy="24.16" r="23.66"/><circle class="cls-2" cx="84.65" cy="24.16" r="23.66"/><circle class="cls-2" cx="145.29" cy="24.16" r="23.66"/><circle class="cls-2" cx="207.98" cy="24.16" r="23.66"/></g></g></svg>