<?xml version="1.0" encoding="UTF-8"?>
<svg xmlns="http://www.w3.org/2000/svg" version="1.1" xmlns:xlink="http://www.w3.org/1999/xlink" viewBox="0 0 548.1 168.2">
  <defs>
    <style>
      .cls-1 {
        opacity: .2;
      }

      .cls-1, .cls-2 {
        mix-blend-mode: multiply;
      }

      .cls-3 {
        fill: url(#linear-gradient-12);
      }

      .cls-3, .cls-4, .cls-5, .cls-6, .cls-7, .cls-8, .cls-9, .cls-10, .cls-11, .cls-12, .cls-13, .cls-14, .cls-15, .cls-16, .cls-17, .cls-18, .cls-19, .cls-20, .cls-21, .cls-22, .cls-23, .cls-24, .cls-25, .cls-26, .cls-27, .cls-28, .cls-29, .cls-30, .cls-31 {
        stroke-width: 0px;
      }

      .cls-32, .cls-6 {
        fill: #000;
      }

      .cls-32, .cls-33, .cls-34 {
        font-family: Roboto-Medium, Roboto;
        font-weight: 500;
      }

      .cls-4 {
        fill: #00665e;
      }

      .cls-5 {
        fill: url(#linear-gradient);
      }

      .cls-7 {
        fill: #87561e;
      }

      .cls-33, .cls-14 {
        fill: #0071a9;
      }

      .cls-8, .cls-34 {
        fill: #00a99d;
      }

      .cls-9 {
        fill: #f2f2f2;
      }

      .cls-10 {
        fill: url(#linear-gradient-6);
      }

      .cls-35 {
        stroke-width: .7px;
      }

      .cls-35, .cls-36, .cls-37 {
        stroke: #b3b3b3;
        stroke-miterlimit: 10;
      }

      .cls-35, .cls-36, .cls-37, .cls-29 {
        fill: #fff;
      }

      .cls-38 {
        fill: gray;
        font-family: Roboto-Black, Roboto;
        font-size: 22px;
        font-weight: 800;
      }

      .cls-39 {
        isolation: isolate;
      }

      .cls-11 {
        fill: #b3b3b3;
      }

      .cls-12 {
        fill: #87561e;
      }

      .cls-13 {
        fill: url(#linear-gradient-15);
      }

      .cls-15 {
        fill: url(#linear-gradient-11);
      }

      .cls-16 {
        fill: #00bfb2;
      }

      .cls-17 {
        fill: url(#linear-gradient-5);
      }

      .cls-18 {
        fill: #046;
      }

      .cls-19 {
        fill: #f2872f;
      }

      .cls-40 {
        font-family: Roboto-Light, Roboto;
        font-weight: 300;
      }

      .cls-40, .cls-27 {
        fill: #333;
      }

      .cls-20 {
        fill: url(#linear-gradient-13);
      }

      .cls-21 {
        fill: #0080bf;
      }

      .cls-22 {
        fill: url(#linear-gradient-14);
      }

      .cls-23 {
        fill: url(#linear-gradient-2);
      }

      .cls-24 {
        fill: url(#linear-gradient-7);
      }

      .cls-25 {
        fill: url(#linear-gradient-3);
      }

      .cls-26 {
        fill: url(#linear-gradient-9);
      }

      .cls-36 {
        stroke-width: .8px;
      }

      .cls-28 {
        fill: url(#linear-gradient-8);
      }

      .cls-37 {
        stroke-width: .8px;
      }

      .cls-41 {
        font-size: 12px;
      }

      .cls-30 {
        fill: url(#linear-gradient-10);
      }

      .cls-31 {
        fill: url(#linear-gradient-4);
      }
    </style>
    <linearGradient id="linear-gradient" x1="146.1" y1="275.7" x2="385.4" y2="275.7" gradientTransform="translate(0 -458)" gradientUnits="userSpaceOnUse">
      <stop offset="0" stop-color="#00a99d"/>
      <stop offset="1" stop-color="#0071a9"/>
    </linearGradient>
    <linearGradient id="linear-gradient-2" x1="146.1" y1="280.2" x2="385.4" y2="280.2" gradientTransform="translate(0 -458)" gradientUnits="userSpaceOnUse">
      <stop offset="0" stop-color="#00a99d"/>
      <stop offset="1" stop-color="#0071a9"/>
    </linearGradient>
    <linearGradient id="linear-gradient-3" x1="146.1" y1="280" x2="385.4" y2="280" gradientTransform="translate(0 -458)" gradientUnits="userSpaceOnUse">
      <stop offset="0" stop-color="#00a99d"/>
      <stop offset="1" stop-color="#0071a9"/>
    </linearGradient>
    <linearGradient id="linear-gradient-4" x1="146.1" y1="280.3" x2="385.4" y2="280.3" gradientTransform="translate(0 -458)" gradientUnits="userSpaceOnUse">
      <stop offset="0" stop-color="#00a99d"/>
      <stop offset="1" stop-color="#0071a9"/>
    </linearGradient>
    <linearGradient id="linear-gradient-5" x1="146.1" y1="280.3" x2="385.4" y2="280.3" gradientTransform="translate(0 -458)" gradientUnits="userSpaceOnUse">
      <stop offset="0" stop-color="#00a99d"/>
      <stop offset="1" stop-color="#0071a9"/>
    </linearGradient>
    <linearGradient id="linear-gradient-6" x1="146.1" y1="280.1" x2="385.4" y2="280.1" gradientTransform="translate(0 -458)" gradientUnits="userSpaceOnUse">
      <stop offset="0" stop-color="#00a99d"/>
      <stop offset="1" stop-color="#0071a9"/>
    </linearGradient>
    <linearGradient id="linear-gradient-7" x1="146.1" y1="277.3" x2="385.4" y2="277.3" gradientTransform="translate(0 -458)" gradientUnits="userSpaceOnUse">
      <stop offset="0" stop-color="#00a99d"/>
      <stop offset="1" stop-color="#0071a9"/>
    </linearGradient>
    <linearGradient id="linear-gradient-8" x1="146.1" y1="280.3" x2="385.4" y2="280.3" gradientTransform="translate(0 -458)" gradientUnits="userSpaceOnUse">
      <stop offset="0" stop-color="#00a99d"/>
      <stop offset="1" stop-color="#0071a9"/>
    </linearGradient>
    <linearGradient id="linear-gradient-9" x1="146.1" y1="280.1" x2="385.4" y2="280.1" gradientTransform="translate(0 -458)" gradientUnits="userSpaceOnUse">
      <stop offset="0" stop-color="#00a99d"/>
      <stop offset="1" stop-color="#0071a9"/>
    </linearGradient>
    <linearGradient id="linear-gradient-10" x1="134.6" y1="117.9" x2="228.1" y2="117.9" gradientUnits="userSpaceOnUse">
      <stop offset="0" stop-color="#00a99d"/>
      <stop offset="1" stop-color="#0071a9"/>
    </linearGradient>
    <linearGradient id="linear-gradient-11" x1="134.9" x2="225.4" xlink:href="#linear-gradient-10"/>
    <linearGradient id="linear-gradient-12" x1="134.6" x2="228.1" xlink:href="#linear-gradient-10"/>
    <linearGradient id="linear-gradient-13" x1="320.5" y1="117.9" x2="414" y2="117.9" gradientUnits="userSpaceOnUse">
      <stop offset="0" stop-color="#0071a9"/>
      <stop offset="1" stop-color="#f2872f"/>
    </linearGradient>
    <linearGradient id="linear-gradient-14" x1="320.8" x2="411.3" xlink:href="#linear-gradient-13"/>
    <linearGradient id="linear-gradient-15" x1="320.5" x2="414" xlink:href="#linear-gradient-13"/>
  </defs>
  <g class="cls-39">
    <g id="Layer_1" data-name="Layer 1">
      <g>
        <polygon class="cls-4" points="115 118.5 85.8 129.3 85.8 115.9 113 115.9 115 118.5"/>
        <path class="cls-37" d="M106.2,98.6h-27.7c-2.9,0-5.4,2.4-5.4,5.4v29.2c0,2.9,2.4,5.4,5.4,5.4h29.2c2.9,0,5.4-2.4,5.4-5.4v-26.8c-2.1-1.9-5.2-5.7-6.8-7.8h0Z"/>
        <path class="cls-8" d="M115,131.9h-29.2s-2.2-.4-2.2-6.7,2.2-6.7,2.2-6.7h29.2s1.7,1,1.7,6.7-1.7,6.7-1.7,6.7Z"/>
        <path class="cls-11" d="M106.2,98.6v4.2c0,2,1.6,3.6,3.6,3.6h3.2c-2.6-3-3.3-3.9-6.8-7.8h0Z"/>
        <path class="cls-16" d="M96.8,126.2c0,.7-.3,1.2-.7,1.6-.4.4-1,.6-1.8.6s-1.4-.3-1.9-.8c-.5-.5-.7-1.3-.7-2.3v-.4c0-.6,0-1.1.3-1.6s.5-.8.9-1,.9-.3,1.4-.3,1.3.2,1.7.6.7,1,.8,1.6h-1.3c0-.4-.1-.7-.3-.9s-.5-.3-.9-.3-.7.2-1,.5-.3.8-.3,1.4v.5c0,.7,0,1.2.3,1.5.2.3.5.5,1,.5s.7,0,.9-.3.3-.5.3-.9h1.3Z"/>
        <path class="cls-16" d="M101.3,126.7c0-.3,0-.4-.3-.6s-.5-.3-1-.4-.8-.3-1.1-.4c-.7-.4-1.1-.9-1.1-1.6s0-.7.3-.9c.2-.3.5-.5.8-.6.3-.1.8-.2,1.2-.2s.9,0,1.2.3c.3.2.6.4.8.7.2.3.3.7.3,1h-1.3c0-.3,0-.5-.3-.7s-.4-.3-.8-.3-.6,0-.7.2-.3.3-.3.5,0,.4.3.5c.2.1.5.3.9.4.7.2,1.3.5,1.6.8s.5.7.5,1.2-.2,1-.6,1.3-1,.5-1.6.5-.9,0-1.3-.3-.7-.4-.9-.7-.3-.7-.3-1.1h1.3c0,.7.4,1,1.3,1s.6,0,.7-.2.3-.3.3-.5h0Z"/>
        <path class="cls-16" d="M106.3,126.7l1.4-4.7h1.4l-2.2,6.3h-1.3l-2.2-6.3h1.4l1.4,4.7h0Z"/>
        <path class="cls-4" d="M96.8,126.6c0,.7-.3,1.2-.7,1.6s-1,.6-1.8.6-1.4-.3-1.9-.8c-.5-.5-.7-1.3-.7-2.3v-.4c0-.6,0-1.1.3-1.6s.5-.8.9-1,.9-.3,1.4-.3,1.3.2,1.7.6.7,1,.8,1.6h-1.3c0-.4-.1-.7-.3-.9s-.5-.3-.9-.3-.7.2-1,.5-.3.8-.3,1.4v.5c0,.7,0,1.2.3,1.5.2.3.5.5,1,.5s.7,0,.9-.3.3-.5.3-.9h1.3Z"/>
        <path class="cls-4" d="M101.3,127c0-.3,0-.4-.3-.6s-.5-.3-1-.4-.8-.3-1.1-.4c-.7-.4-1.1-.9-1.1-1.6s0-.7.3-.9c.2-.3.5-.5.8-.6.3-.1.8-.2,1.2-.2s.9,0,1.2.3c.3.2.6.4.8.7.2.3.3.7.3,1h-1.3c0-.3,0-.5-.3-.7s-.4-.3-.8-.3-.6,0-.7.2-.3.3-.3.5,0,.4.3.5c.2.1.5.3.9.4.7.2,1.3.5,1.6.8s.5.7.5,1.2-.2,1-.6,1.3-1,.5-1.6.5-.9,0-1.3-.3-.7-.4-.9-.7-.3-.7-.3-1.1h1.3c0,.7.4,1,1.3,1s.6,0,.7-.2.3-.3.3-.5h0Z"/>
        <path class="cls-4" d="M106.3,127.1l1.4-4.7h1.4l-2.2,6.3h-1.3l-2.2-6.3h1.4l1.4,4.7h0Z"/>
        <g class="cls-2">
          <path class="cls-9" d="M96.8,126.4c0,.7-.3,1.2-.7,1.6s-1,.6-1.8.6-1.4-.3-1.9-.8c-.5-.5-.7-1.3-.7-2.3v-.4c0-.6,0-1.1.3-1.6s.5-.8.9-1,.9-.3,1.4-.3,1.3.2,1.7.6.7,1,.8,1.6h-1.3c0-.4-.1-.7-.3-.9s-.5-.3-.9-.3-.7.2-1,.5-.3.8-.3,1.4v.5c0,.7,0,1.2.3,1.5.2.3.5.5,1,.5s.7,0,.9-.3.3-.5.3-.9h1.3Z"/>
          <path class="cls-9" d="M101.3,126.8c0-.3,0-.4-.3-.6s-.5-.3-1-.4-.8-.3-1.1-.4c-.7-.4-1.1-.9-1.1-1.6s0-.7.3-.9c.2-.3.5-.5.8-.6.3-.1.8-.2,1.2-.2s.9,0,1.2.3c.3.2.6.4.8.7.2.3.3.7.3,1h-1.3c0-.3,0-.5-.3-.7s-.4-.3-.8-.3-.6,0-.7.2-.3.3-.3.5,0,.4.3.5c.2.1.5.3.9.4.7.2,1.3.5,1.6.8s.5.7.5,1.2-.2,1-.6,1.3c-.4.3-1,.5-1.6.5s-.9,0-1.3-.3-.7-.4-.9-.7-.3-.7-.3-1.1h1.3c0,.7.4,1,1.3,1s.6,0,.7-.2.3-.3.3-.5h0Z"/>
          <path class="cls-9" d="M106.3,126.9l1.4-4.7h1.4l-2.2,6.3h-1.3l-2.2-6.3h1.4l1.4,4.7h0Z"/>
        </g>
      </g>
      <polygon class="cls-4" points="48.3 -203.6 48.3 -202 50.3 -202 50.3 -203.6 49.3 -202.5 48.3 -203.6"/>
      <polygon class="cls-4" points="48.3 -202 48.3 -203.6 45.9 -206 45.9 -203.1 49.3 -199.6 52.7 -203.1 52.7 -206 50.3 -203.6 50.3 -202 48.3 -202"/>
      <polygon class="cls-8" points="151.2 -228.2 48.3 -228.2 48.3 -203.6 49.3 -202.5 50.3 -203.6 50.3 -226.2 151.2 -226.2 151.2 -228.2"/>
      <path class="cls-8" d="M179.7-221.4c-.3,3.8-1.7,6.8-4.2,9-2.6,2.2-5.9,3.3-10.1,3.3s-8.1-1.5-10.8-4.6-3.9-7.3-3.9-12.6v-2.2c0-3.4.6-6.4,1.8-9,1.2-2.6,2.9-4.6,5.2-6,2.2-1.4,4.8-2.1,7.8-2.1s7.4,1.1,9.9,3.3,4,5.3,4.4,9.2h-7.3c-.2-2.3-.8-4-1.9-5-1.1-1-2.8-1.6-5-1.6s-4.3.9-5.5,2.6c-1.2,1.8-1.8,4.5-1.9,8.1v2.7c0,3.8.6,6.6,1.8,8.4s3,2.7,5.5,2.7,3.9-.5,5.1-1.5c1.1-1,1.8-2.6,1.9-4.8h7.3-.1Z"/>
      <path class="cls-8" d="M205.4-218.8c0-1.4-.5-2.5-1.5-3.2s-2.7-1.5-5.3-2.3c-2.5-.8-4.6-1.6-6-2.4-4-2.2-6.1-5.1-6.1-8.8s.5-3.6,1.6-5.1,2.6-2.7,4.7-3.5c2-.9,4.3-1.3,6.8-1.3s4.8.5,6.8,1.4c2,.9,3.5,2.2,4.6,3.9s1.6,3.6,1.6,5.7h-7.3c0-1.6-.5-2.9-1.5-3.8s-2.5-1.3-4.3-1.3-3.2.4-4.2,1.1c-1,.8-1.5,1.8-1.5,3s.6,2.1,1.8,2.9c1.2.8,2.9,1.5,5.1,2.2,4.2,1.2,7.2,2.8,9.1,4.7s2.9,4.2,2.9,6.9-1.2,5.5-3.5,7.2-5.5,2.6-9.4,2.6-5.2-.5-7.5-1.5-4-2.4-5.1-4.1c-1.2-1.7-1.8-3.8-1.8-6h7.4c0,3.9,2.3,5.9,7,5.9s3.1-.4,4.1-1.1,1.5-1.7,1.5-3h0Z"/>
      <path class="cls-8" d="M233.3-218.3l8.1-26.7h8.1l-12.4,35.5h-7.6l-12.3-35.6h8.1l8,26.7h0Z"/>
      <path class="cls-14" d="M273.3-245.1h7.3v24.6c0,2.3-.5,4.3-1.5,6s-2.4,3.1-4.2,4c-1.8.9-3.9,1.4-6.2,1.4-3.8,0-6.7-1-8.8-2.9s-3.1-4.6-3.1-8.1h7.4c0,1.7.4,3,1.1,3.9s1.9,1.2,3.5,1.2,2.5-.5,3.3-1.4c.8-1,1.2-2.3,1.2-4.1v-24.6h0Z"/>
      <path class="cls-14" d="M307.8-218.8c0-1.4-.5-2.5-1.5-3.2s-2.7-1.5-5.3-2.3c-2.5-.8-4.5-1.6-6-2.4-4-2.2-6-5.1-6-8.8s.5-3.6,1.6-5.1,2.6-2.7,4.7-3.5c2-.9,4.3-1.3,6.8-1.3s4.8.5,6.8,1.4c2,.9,3.5,2.2,4.6,3.9s1.6,3.6,1.6,5.7h-7.3c0-1.6-.5-2.9-1.5-3.8s-2.5-1.3-4.3-1.3-3.2.4-4.2,1.1c-1,.8-1.5,1.8-1.5,3s.6,2.1,1.8,2.9c1.2.8,2.9,1.5,5.1,2.2,4.2,1.2,7.2,2.8,9.1,4.7s2.9,4.2,2.9,6.9-1.2,5.5-3.5,7.2-5.5,2.6-9.4,2.6-5.2-.5-7.5-1.5-4-2.4-5.1-4.1c-1.2-1.7-1.8-3.8-1.8-6h7.4c0,3.9,2.3,5.9,7,5.9s3.1-.4,4.1-1.1,1.5-1.7,1.5-3h-.1Z"/>
      <path class="cls-14" d="M351.8-226.5c0,3.5-.6,6.6-1.9,9.2-1.2,2.6-3,4.7-5.3,6.1-2.3,1.4-4.9,2.2-7.9,2.2s-5.6-.7-7.9-2.1c-2.3-1.4-4.1-3.4-5.4-6.1s-1.9-5.6-1.9-9.1v-1.8c0-3.5.6-6.6,1.9-9.2s3-4.7,5.4-6.1c2.3-1.4,4.9-2.1,7.9-2.1s5.6.7,7.9,2.1c2.3,1.4,4.1,3.5,5.4,6.1,1.3,2.7,1.9,5.7,1.9,9.2v1.6h-.1ZM344.4-228.1c0-3.7-.7-6.6-2-8.5s-3.2-2.9-5.7-2.9-4.4,1-5.7,2.9c-1.3,1.9-2,4.7-2,8.4v1.7c0,3.6.7,6.5,2,8.5s3.2,3,5.8,3,4.4-1,5.7-2.9,2-4.7,2-8.4v-1.7h0Z"/>
      <path class="cls-14" d="M388.6-209.5h-7.3l-14.3-23.4v23.4h-7.3v-35.6h7.3l14.3,23.4v-23.4h7.3v35.6h0Z"/>
      <g>
        <polygon class="cls-18" points="293.7 117.9 265.1 128.5 265.1 115.4 291.8 115.4 293.7 117.9"/>
        <path class="cls-36" d="M285.1,98.4h-27.1c-2.9,0-5.2,2.4-5.2,5.2v28.5c0,2.9,2.4,5.2,5.2,5.2h28.5c2.9,0,5.2-2.4,5.2-5.2v-26.1c-2.1-1.8-5.1-5.6-6.6-7.6h0Z"/>
        <path class="cls-14" d="M293.7,131h-28.5s-2.1-.4-2.1-6.6,2.1-6.6,2.1-6.6h28.5s1.7,1,1.7,6.6-1.7,6.6-1.7,6.6Z"/>
        <path class="cls-11" d="M285.1,98.4v4.1c0,1.9,1.6,3.5,3.5,3.5h3.2c-2.5-3-3.2-3.8-6.6-7.6Z"/>
        <g class="cls-1">
          <path class="cls-14" d="M268.8,115.6c0,.3-.3.4-.6.3-.6-.3-1.1-.6-1.4-1-.4-.6-.6-1.2-.6-2.1v-1.4c0-1-.4-1.6-1.1-1.7-.2,0-.4-.2-.4-.4v-.2c0-.2.2-.4.4-.4.8-.1,1.1-.7,1.1-1.7v-1.4c0-.8.2-1.6.6-2.1.3-.4.8-.8,1.4-1,.3,0,.5,0,.6.3h0c0,.2,0,.4-.2.5-.8.4-1.1,1.1-1.1,2.3v1.4c0,.8-.3,1.5-.7,1.9-.2.2-.2.5,0,.6.5.4.7,1.1.7,1.9v1.4c0,1.1.4,1.9,1.1,2.2.2,0,.3.3.2.5h0Z"/>
          <path class="cls-14" d="M270.5,115.3h0c-.2-.2-.3-.5-.1-.7.3-.5.5-1,.5-1.6v-.7c0-.3.2-.4.4-.4h.4c.3,0,.4.2.4.4v.6c0,.5-.1.9-.3,1.4-.2.3-.4.6-.6.9-.2.2-.4.2-.6,0h0ZM270.6,106.6c0-.2,0-.4.2-.6s.3-.2.6-.2.5,0,.6.2.2.3.2.6,0,.4-.2.6c-.1.1-.3.2-.6.2s-.5,0-.6-.2-.2-.3-.2-.6Z"/>
          <path class="cls-14" d="M273.8,115.6c0-.2,0-.4.2-.6.7-.4,1.1-1.1,1.1-2.2v-1.6c0-.8.3-1.4.8-1.9.2-.2.2-.5,0-.7-.5-.4-.8-1.1-.8-1.9v-1.4c0-1.1-.4-1.9-1.1-2.3-.2,0-.3-.3-.2-.5h0c0-.3.3-.4.6-.3.6.3,1.1.6,1.4,1,.4.5.6,1.2.6,2.1v1.5c0,1,.4,1.5,1.1,1.7.2,0,.4.2.4.4v.2c0,.2-.2.4-.4.4-.8.1-1.1.7-1.1,1.7v1.4c0,.9-.2,1.6-.6,2.1-.3.4-.8.8-1.4,1-.3,0-.5,0-.6-.3h0Z"/>
        </g>
        <path class="cls-9" d="M271,121.6h1.3v4.2c0,.4,0,.7-.3,1s-.4.5-.7.7-.7.3-1.1.3c-.6,0-1.1-.2-1.5-.5-.4-.3-.6-.8-.6-1.4h1.3c0,.3,0,.5.2.7s.3.2.6.2.4,0,.6-.3c.1-.2.2-.4.2-.7v-4.2h0Z"/>
        <path class="cls-9" d="M276.9,126.1c0-.3,0-.4-.3-.6s-.5-.3-.9-.4-.8-.3-1-.4c-.7-.4-1-.9-1-1.5s0-.6.3-.9.5-.5.8-.6.7-.2,1.2-.2.8,0,1.1.3c.3.2.6.4.8.7.2.3.3.6.3,1h-1.3c0-.3,0-.5-.3-.6s-.4-.3-.7-.3-.6,0-.7.2c-.2.1-.3.3-.3.5s0,.4.3.5.5.3.9.4c.7.2,1.2.5,1.6.8s.5.7.5,1.2-.2.9-.6,1.2-.9.5-1.6.5-.9,0-1.3-.3-.7-.4-.9-.7c-.2-.3-.3-.6-.3-1h1.3c0,.7.4,1,1.2,1s.5,0,.7-.2.3-.3.3-.5h0Z"/>
        <path class="cls-9" d="M284.4,124.7c0,.6,0,1.1-.3,1.6-.2.5-.5.8-.9,1.1s-.8.4-1.4.4-.9-.1-1.4-.4-.7-.6-.9-1c-.2-.5-.3-1-.3-1.6v-.3c0-.6,0-1.1.3-1.6s.5-.8.9-1.1c.4-.3.8-.4,1.4-.4s.9.1,1.4.4.7.6.9,1.1.3,1,.3,1.6v.3h0ZM283.1,124.5c0-.6-.1-1.1-.3-1.4s-.6-.5-1-.5-.8.2-1,.5c-.2.3-.3.8-.3,1.4v.3c0,.6.1,1.1.3,1.4s.6.5,1,.5.8-.2,1-.5.3-.8.3-1.4v-.3h0Z"/>
        <path class="cls-9" d="M290.6,127.7h-1.3l-2.4-4v4h-1.3v-6.1h1.3l2.5,4v-4h1.2v6.1Z"/>
        <path class="cls-18" d="M271,121.3h1.3v4.2c0,.4,0,.7-.3,1-.2.3-.4.5-.7.7s-.7.3-1.1.3c-.6,0-1.1-.2-1.5-.5s-.6-.8-.6-1.4h1.3c0,.3,0,.5.2.7s.3.2.6.2.4,0,.6-.3c.1-.2.2-.4.2-.7v-4.2h0Z"/>
        <path class="cls-18" d="M276.9,125.7c0-.3,0-.4-.3-.6s-.5-.3-.9-.4-.8-.3-1-.4c-.7-.4-1-.9-1-1.5s0-.6.3-.9.5-.5.8-.6.7-.2,1.2-.2.8,0,1.1.3c.3.2.6.4.8.7.2.3.3.6.3,1h-1.3c0-.3,0-.5-.3-.6s-.4-.3-.7-.3-.6,0-.7.2c-.2.1-.3.3-.3.5s0,.4.3.5.5.3.9.4c.7.2,1.2.5,1.6.8s.5.7.5,1.2-.2.9-.6,1.2-.9.5-1.6.5-.9,0-1.3-.3-.7-.4-.9-.7c-.2-.3-.3-.6-.3-1h1.3c0,.7.4,1,1.2,1s.5,0,.7-.2.3-.3.3-.5h0Z"/>
        <path class="cls-18" d="M284.4,124.4c0,.6,0,1.1-.3,1.6-.2.5-.5.8-.9,1.1-.4.3-.8.4-1.4.4s-.9-.1-1.4-.4c-.4-.3-.7-.6-.9-1-.2-.5-.3-1-.3-1.6v-.3c0-.6,0-1.1.3-1.6s.5-.8.9-1.1c.4-.3.8-.4,1.4-.4s.9.1,1.4.4.7.6.9,1.1.3,1,.3,1.6v.3h0ZM283.1,124.2c0-.6-.1-1.1-.3-1.4s-.6-.5-1-.5-.8.2-1,.5c-.2.3-.3.8-.3,1.4v.3c0,.6.1,1.1.3,1.4s.6.5,1,.5.8-.2,1-.5.3-.8.3-1.4v-.3h0Z"/>
        <path class="cls-18" d="M290.6,127.3h-1.3l-2.4-4v4h-1.3v-6.1h1.3l2.5,4v-4h1.2v6.1Z"/>
        <g class="cls-2">
          <path class="cls-21" d="M271,121.4h1.3v4.2c0,.4,0,.7-.3,1-.2.3-.4.5-.7.7-.3.2-.7.3-1.1.3-.6,0-1.1-.2-1.5-.5-.4-.3-.6-.8-.6-1.4h1.3c0,.3,0,.5.2.7s.3.2.6.2.4,0,.6-.3c.1-.2.2-.4.2-.7v-4.2h0Z"/>
          <path class="cls-21" d="M276.9,125.9c0-.3,0-.4-.3-.6s-.5-.3-.9-.4-.8-.3-1-.4c-.7-.4-1-.9-1-1.5s0-.6.3-.9.5-.5.8-.6.7-.2,1.2-.2.8,0,1.1.3c.3.2.6.4.8.7.2.3.3.6.3,1h-1.3c0-.3,0-.5-.3-.6s-.4-.3-.7-.3-.6,0-.7.2c-.2.1-.3.3-.3.5s0,.4.3.5.5.3.9.4c.7.2,1.2.5,1.6.8s.5.7.5,1.2-.2.9-.6,1.2c-.4.3-.9.5-1.6.5s-.9,0-1.3-.3-.7-.4-.9-.7c-.2-.3-.3-.6-.3-1h1.3c0,.7.4,1,1.2,1s.5,0,.7-.2.3-.3.3-.5h0Z"/>
          <path class="cls-21" d="M284.4,124.6c0,.6,0,1.1-.3,1.6-.2.5-.5.8-.9,1.1s-.8.4-1.4.4-.9-.1-1.4-.4-.7-.6-.9-1c-.2-.5-.3-1-.3-1.6v-.3c0-.6,0-1.1.3-1.6s.5-.8.9-1.1c.4-.3.8-.4,1.4-.4s.9.1,1.4.4.7.6.9,1.1.3,1,.3,1.6v.3h0ZM283.1,124.3c0-.6-.1-1.1-.3-1.4s-.6-.5-1-.5-.8.2-1,.5c-.2.3-.3.8-.3,1.4v.3c0,.6.1,1.1.3,1.4s.6.5,1,.5.8-.2,1-.5.3-.8.3-1.4v-.3h0Z"/>
          <path class="cls-21" d="M290.6,127.5h-1.3l-2.4-4v4h-1.3v-6.1h1.3l2.5,4v-4h1.2v6.1Z"/>
        </g>
      </g>
      <polygon class="cls-18" points="489.7 -203.6 489.7 -202 487.7 -202 487.7 -203.6 485.2 -206 485.2 -203.1 488.7 -199.6 492.1 -203.1 492.1 -206 489.7 -203.6"/>
      <polygon class="cls-18" points="489.7 -202 489.7 -203.6 488.7 -202.5 487.7 -203.6 487.7 -202 489.7 -202"/>
      <polygon class="cls-14" points="387.4 -228.2 387.4 -226.2 487.7 -226.2 487.7 -203.6 488.7 -202.5 489.7 -203.6 489.7 -228.2 387.4 -228.2"/>
      <path class="cls-5" d="M178.9-176.1c-.4,3.8-1.8,6.8-4.2,8.9s-5.7,3.2-9.7,3.2-5.3-.7-7.5-2-3.8-3.2-5-5.7-1.8-5.3-1.8-8.6v-3.3c0-3.3.6-6.3,1.8-8.9s2.9-4.5,5.1-5.9c2.2-1.4,4.8-2.1,7.7-2.1s7.1,1.1,9.5,3.2,3.8,5.1,4.2,9h-6.1c-.3-2.6-1-4.4-2.2-5.5s-2.9-1.7-5.3-1.7-4.8,1-6.2,2.9-2.2,4.8-2.2,8.6v3.2c0,3.8.7,6.8,2.1,8.8,1.4,2,3.4,3,6,3s4.2-.5,5.5-1.6c1.2-1.1,2-2.9,2.3-5.4h6.2-.2Z"/>
      <path class="cls-23" d="M185.3-178c0-2.6.5-4.9,1.5-7s2.5-3.7,4.3-4.8c1.9-1.1,4-1.7,6.4-1.7,3.6,0,6.5,1.2,8.7,3.4,2.2,2.3,3.4,5.3,3.6,9.1v1.4c0,2.6-.5,4.9-1.5,7s-2.4,3.6-4.3,4.8c-1.9,1.1-4,1.7-6.5,1.7-3.7,0-6.7-1.2-8.9-3.7s-3.4-5.8-3.4-9.9v-.3h0ZM191.2-177.5c0,2.7.6,4.8,1.7,6.4s2.7,2.3,4.7,2.3,3.6-.8,4.7-2.3c1.1-1.6,1.7-3.8,1.7-6.9s-.6-4.8-1.7-6.3c-1.1-1.6-2.7-2.3-4.7-2.3s-3.5.8-4.6,2.3-1.7,3.8-1.7,6.9h0Z"/>
      <path class="cls-25" d="M222.9-190.9l.2,3c1.9-2.4,4.5-3.5,7.7-3.5,5.5,0,8.3,3.2,8.4,9.4v17.5h-5.9v-17.1c0-1.7-.4-2.9-1.1-3.7-.7-.8-1.9-1.2-3.6-1.2s-4.2,1.1-5.4,3.2v18.8h-5.9v-26.4s5.6,0,5.6,0Z"/>
      <path class="cls-31" d="M257-172l5.6-18.9h6.1l-9.2,26.4h-5.1l-9.2-26.4h6.1l5.7,18.9h0Z"/>
      <path class="cls-17" d="M286.5-164c-3.8,0-6.8-1.2-9.1-3.6-2.3-2.4-3.5-5.5-3.5-9.5v-.7c0-2.6.5-5,1.5-7.1s2.4-3.7,4.3-4.8,3.9-1.7,6.1-1.7c3.6,0,6.4,1.2,8.3,3.4,2,2.3,2.9,5.5,2.9,9.7v2.4h-17.3c.2,2.2.9,3.9,2.2,5.2s2.9,1.9,4.8,1.9,4.9-1.1,6.6-3.3l3.2,3.1c-1.1,1.6-2.5,2.8-4.2,3.7-1.8.9-3.8,1.3-5.9,1.3h.1ZM285.8-186.7c-1.6,0-2.9.6-3.9,1.7s-1.6,2.7-1.9,4.8h11.3v-.4c-.1-2-.7-3.5-1.6-4.5s-2.2-1.5-3.9-1.5h0Z"/>
      <path class="cls-10" d="M318-185.5c-.8,0-1.6-.2-2.4-.2-2.7,0-4.5,1-5.5,3.1v18.1h-5.9v-26.4h5.7v3c1.6-2.3,3.6-3.4,6.1-3.4s1.5,0,2.1.3v5.6h-.1Z"/>
      <path class="cls-24" d="M333-197.4v6.4h4.7v4.4h-4.7v14.8c0,1,.2,1.7.6,2.2.4.4,1.1.7,2.1.7s1.4,0,2.1-.2v4.6c-1.4.4-2.6.6-3.9.6-4.6,0-6.8-2.5-6.8-7.5v-15h-4.4v-4.4h4.4v-6.4h5.9v-.2Z"/>
      <path class="cls-28" d="M356.3-164c-3.8,0-6.8-1.2-9.1-3.6-2.3-2.4-3.5-5.5-3.5-9.5v-.7c0-2.6.5-5,1.5-7.1s2.4-3.7,4.3-4.8,3.9-1.7,6.1-1.7c3.6,0,6.4,1.2,8.3,3.4,2,2.3,2.9,5.5,2.9,9.7v2.4h-17.3c.2,2.2.9,3.9,2.2,5.2s2.9,1.9,4.8,1.9,4.9-1.1,6.6-3.3l3.2,3.1c-1.1,1.6-2.5,2.8-4.2,3.7-1.8.9-3.8,1.3-5.9,1.3h.1ZM355.6-186.7c-1.6,0-2.9.6-3.9,1.7s-1.6,2.7-1.9,4.8h11.3v-.4c-.1-2-.7-3.5-1.6-4.5s-2.2-1.5-3.9-1.5h0Z"/>
      <path class="cls-26" d="M387.8-185.5c-.8,0-1.6-.2-2.4-.2-2.7,0-4.5,1-5.5,3.1v18.1h-5.9v-26.4h5.7v3c1.6-2.3,3.6-3.4,6.1-3.4s1.5,0,2.1.3v5.6h-.1Z"/>
      <text class="cls-41" transform="translate(211.9 50.7)"><tspan class="cls-34" x="0" y="0">CSV </tspan><tspan class="cls-40" x="25.8" y="0">to</tspan><tspan class="cls-32" x="36.4" y="0"> </tspan><tspan class="cls-33" x="39.4" y="0">JSON </tspan><tspan class="cls-40" x="73.1" y="0">Converter</tspan></text>
      <text class="cls-38" transform="translate(230.9 30.4)"><tspan x="0" y="0">3 STEPS</tspan></text>
      <g>
        <polygon class="cls-6" points="485.3 122.8 458.1 132.9 458.1 120.3 483.5 120.3 485.3 122.8"/>
        <path class="cls-35" d="M477.2,104.2h-25.9c-2.7,0-5,2.3-5,5v27.2c0,2.7,2.3,5,5,5h27.2c2.7,0,5-2.3,5-5v-25c-2-1.7-4.8-5.3-6.3-7.2h0Z"/>
        <path class="cls-11" d="M477.2,104.2v3.9c0,1.8,1.5,3.3,3.3,3.3h3c-2.4-2.8-3.1-3.6-6.3-7.2Z"/>
        <rect class="cls-11" x="451.7" y="113.7" width="26.2" height="1.4" rx=".7" ry=".7"/>
        <rect class="cls-11" x="451.7" y="117.1" width="26.2" height="1.4" rx=".7" ry=".7"/>
        <rect class="cls-11" x="451.7" y="121.1" width="26.2" height="1.4" rx=".7" ry=".7"/>
        <rect class="cls-11" x="451.7" y="125.2" width="26.2" height="1.4" rx=".7" ry=".7"/>
        <rect class="cls-11" x="451.7" y="129.1" width="26.2" height="1.4" rx=".7" ry=".7"/>
        <rect class="cls-11" x="451.7" y="132.9" width="26.2" height="1.4" rx=".7" ry=".7"/>
        <path class="cls-27" d="M485.3,135.3h-27.2s-2-.4-2-6.3,2-6.3,2-6.3h27.2s1.6,1,1.6,6.3-1.6,6.3-1.6,6.3Z"/>
        <polygon class="cls-12" points="489.5 118.6 462.3 128.7 462.3 116.2 487.7 116.2 489.5 118.6"/>
        <path class="cls-35" d="M481.3,100h-25.9c-2.7,0-5,2.3-5,5v27.2c0,2.7,2.3,5,5,5h27.2c2.7,0,5-2.3,5-5v-25c-2-1.7-4.8-5.3-6.3-7.2h0Z"/>
        <path class="cls-11" d="M481.3,100v3.9c0,1.8,1.5,3.3,3.3,3.3h3c-2.4-2.8-3.1-3.6-6.3-7.2Z"/>
        <rect class="cls-11" x="455.8" y="109.5" width="26.2" height="1.4" rx=".7" ry=".7"/>
        <rect class="cls-11" x="455.8" y="113" width="26.2" height="1.4" rx=".7" ry=".7"/>
        <rect class="cls-11" x="455.8" y="117" width="26.2" height="1.4" rx=".7" ry=".7"/>
        <rect class="cls-11" x="455.8" y="121.1" width="26.2" height="1.4" rx=".7" ry=".7"/>
        <rect class="cls-11" x="455.8" y="124.9" width="26.2" height="1.4" rx=".7" ry=".7"/>
        <rect class="cls-11" x="455.8" y="128.8" width="26.2" height="1.4" rx=".7" ry=".7"/>
        <path class="cls-19" d="M489.5,131.1h-27.2s-2-.4-2-6.3,2-6.3,2-6.3h27.2s1.6,1,1.6,6.3-1.6,6.3-1.6,6.3Z"/>
        <g>
          <path class="cls-29" d="M472.2,126.2c0,.6-.3,1.1-.7,1.5-.4.4-1,.5-1.6.5s-1.3-.2-1.7-.7c-.4-.5-.6-1.2-.6-2v-.4c0-.6,0-1,.3-1.5.2-.4.5-.7.8-1,.4-.2.8-.3,1.3-.3s1.2.2,1.6.5c.4.4.6.9.7,1.5h-1.2c0-.4-.1-.6-.3-.8-.2-.2-.4-.3-.8-.3s-.7.1-.9.4c-.2.3-.3.7-.3,1.3v.4c0,.6,0,1.1.3,1.4.2.3.5.4.9.4s.6,0,.8-.3c.2-.2.3-.4.3-.8h1.2Z"/>
          <path class="cls-29" d="M477.7,125.3c0,.6-.1,1.1-.3,1.5-.2.4-.5.8-.9,1-.4.2-.8.3-1.3.3s-.9-.1-1.3-.3c-.4-.2-.7-.6-.9-1-.2-.4-.3-.9-.3-1.5v-.3c0-.6.1-1.1.3-1.5.2-.4.5-.8.9-1,.4-.2.8-.3,1.3-.3s.9.1,1.3.3c.4.2.7.6.9,1,.2.4.3.9.3,1.5v.3ZM476.5,125.1c0-.6-.1-1.1-.3-1.4-.2-.3-.5-.5-.9-.5s-.7.2-.9.5c-.2.3-.3.8-.3,1.4v.3c0,.6.1,1,.3,1.4.2.3.5.5.9.5s.7-.2.9-.5.3-.8.3-1.4v-.3Z"/>
          <path class="cls-29" d="M479.7,126v2h-1.2v-5.8h2.2c.4,0,.8,0,1.1.2s.6.4.8.7c.2.3.3.6.3,1,0,.6-.2,1-.6,1.3-.4.3-.9.5-1.6.5h-1ZM479.7,125.1h1.1c.3,0,.6,0,.7-.2.2-.1.2-.4.2-.6s0-.5-.2-.7-.4-.3-.7-.3h-1.1v1.8Z"/>
          <path class="cls-29" d="M485.8,124.9l1.2-2.6h1.3l-1.9,3.7v2.1h-1.2v-2.1l-1.9-3.7h1.3l1.2,2.6Z"/>
        </g>
        <g>
          <path class="cls-6" d="M472.2,125.7c0,.6-.3,1.1-.7,1.5-.4.4-1,.5-1.6.5s-1.3-.2-1.7-.7c-.4-.5-.6-1.2-.6-2v-.4c0-.6,0-1,.3-1.5.2-.4.5-.7.8-1,.4-.2.8-.3,1.3-.3s1.2.2,1.6.5c.4.4.6.9.7,1.5h-1.2c0-.4-.1-.6-.3-.8-.2-.2-.4-.3-.8-.3s-.7.1-.9.4c-.2.3-.3.7-.3,1.3v.4c0,.6,0,1.1.3,1.4.2.3.5.4.9.4s.6,0,.8-.3c.2-.2.3-.4.3-.8h1.2Z"/>
          <path class="cls-6" d="M477.7,124.8c0,.6-.1,1.1-.3,1.5-.2.4-.5.8-.9,1-.4.2-.8.3-1.3.3s-.9-.1-1.3-.3c-.4-.2-.7-.6-.9-1-.2-.4-.3-.9-.3-1.5v-.3c0-.6.1-1.1.3-1.5.2-.4.5-.8.9-1,.4-.2.8-.3,1.3-.3s.9.1,1.3.3c.4.2.7.6.9,1,.2.4.3.9.3,1.5v.3ZM476.5,124.6c0-.6-.1-1.1-.3-1.4-.2-.3-.5-.5-.9-.5s-.7.2-.9.5c-.2.3-.3.8-.3,1.4v.3c0,.6.1,1,.3,1.4.2.3.5.5.9.5s.7-.2.9-.5.3-.8.3-1.4v-.3Z"/>
          <path class="cls-6" d="M479.7,125.6v2h-1.2v-5.8h2.2c.4,0,.8,0,1.1.2s.6.4.8.7c.2.3.3.6.3,1,0,.6-.2,1-.6,1.3-.4.3-.9.5-1.6.5h-1ZM479.7,124.6h1.1c.3,0,.6,0,.7-.2.2-.1.2-.4.2-.6s0-.5-.2-.7-.4-.3-.7-.3h-1.1v1.8Z"/>
          <path class="cls-6" d="M485.8,124.4l1.2-2.6h1.3l-1.9,3.7v2.1h-1.2v-2.1l-1.9-3.7h1.3l1.2,2.6Z"/>
        </g>
        <g>
          <path class="cls-7" d="M472.2,125.9c0,.6-.3,1.1-.7,1.5-.4.4-1,.5-1.6.5s-1.3-.2-1.7-.7c-.4-.5-.6-1.2-.6-2v-.4c0-.6,0-1,.3-1.5.2-.4.5-.7.8-1,.4-.2.8-.3,1.3-.3s1.2.2,1.6.5c.4.4.6.9.7,1.5h-1.2c0-.4-.1-.6-.3-.8-.2-.2-.4-.3-.8-.3s-.7.1-.9.4c-.2.3-.3.7-.3,1.3v.4c0,.6,0,1.1.3,1.4.2.3.5.4.9.4s.6,0,.8-.3c.2-.2.3-.4.3-.8h1.2Z"/>
          <path class="cls-7" d="M477.7,125c0,.6-.1,1.1-.3,1.5-.2.4-.5.8-.9,1-.4.2-.8.3-1.3.3s-.9-.1-1.3-.3c-.4-.2-.7-.6-.9-1-.2-.4-.3-.9-.3-1.5v-.3c0-.6.1-1.1.3-1.5.2-.4.5-.8.9-1,.4-.2.8-.3,1.3-.3s.9.1,1.3.3c.4.2.7.6.9,1,.2.4.3.9.3,1.5v.3ZM476.5,124.8c0-.6-.1-1.1-.3-1.4-.2-.3-.5-.5-.9-.5s-.7.2-.9.5c-.2.3-.3.8-.3,1.4v.3c0,.6.1,1,.3,1.4.2.3.5.5.9.5s.7-.2.9-.5.3-.8.3-1.4v-.3Z"/>
          <path class="cls-7" d="M479.7,125.8v2h-1.2v-5.8h2.2c.4,0,.8,0,1.1.2s.6.4.8.7c.2.3.3.6.3,1,0,.6-.2,1-.6,1.3-.4.3-.9.5-1.6.5h-1ZM479.7,124.8h1.1c.3,0,.6,0,.7-.2.2-.1.2-.4.2-.6s0-.5-.2-.7-.4-.3-.7-.3h-1.1v1.8Z"/>
          <path class="cls-7" d="M485.8,124.6l1.2-2.6h1.3l-1.9,3.7v2.1h-1.2v-2.1l-1.9-3.7h1.3l1.2,2.6Z"/>
        </g>
      </g>
      <path class="cls-8" d="M93.5,154.5v-1c1.6,0,3.3-.2,4.9-.4l.2,1c-1.7.3-3.4.4-5,.5ZM88.4,154.3c-1.7-.2-3.3-.5-5-1l.3-1c1.6.4,3.2.7,4.8.9v1ZM103.5,152.9l-.3-1c1.6-.5,3.1-1.1,4.6-1.8l.4.9c-1.5.7-3.1,1.3-4.7,1.8ZM78.7,151.7c-1.5-.7-3.1-1.4-4.5-2.3l.5-.9c1.4.8,2.9,1.6,4.4,2.2l-.4.9ZM112.6,148.5l-.6-.8c1.4-.9,2.7-1.9,3.9-3l.7.7c-1.3,1.1-2.6,2.2-4,3.1ZM70,146.4c-1.3-1.1-2.5-2.2-3.7-3.5l.7-.7c1.1,1.2,2.3,2.3,3.6,3.4l-.6.8ZM120.1,141.8l-.8-.6c1.1-1.2,2-2.6,2.9-4l.8.5c-.9,1.4-1.9,2.8-3,4.1ZM63.2,139c-1-1.4-1.8-2.8-2.6-4.4l.9-.4c.7,1.5,1.6,2.9,2.5,4.2l-.8.6ZM125.6,133.3l-.9-.4c.7-1.5,1.2-3.1,1.7-4.6l1,.3c-.5,1.6-1.1,3.2-1.7,4.8ZM58.6,130c-.5-1.6-1-3.2-1.3-4.9l1-.2c.3,1.6.7,3.2,1.2,4.8l-.9.3ZM128.4,123.6h-1c.2-1.8.3-3.4.3-5.1s0-2-.1-3h1c0,.9.1,1.9.1,3,0,1.7-.1,3.4-.4,5.1ZM56.8,120.1c0-.5,0-1,0-1.5,0-1.2,0-2.4.2-3.5h1c-.1,1.2-.2,2.4-.2,3.5s0,1,0,1.5h-1ZM126.8,110.7c-.4-1.6-.8-3.2-1.4-4.7l.9-.4c.6,1.6,1.1,3.2,1.5,4.8l-1,.2ZM58.7,110.2l-1-.2c.4-1.6.9-3.3,1.5-4.8l.9.4c-.6,1.5-1.1,3.1-1.5,4.7ZM123.3,101.5c-.8-1.4-1.7-2.8-2.7-4.1l.8-.6c1,1.3,2,2.8,2.8,4.2l-.9.5ZM62.4,101.1l-.9-.5c.8-1.5,1.8-2.9,2.8-4.2l.8.6c-1,1.3-1.9,2.7-2.8,4.1ZM117.4,93.7c-1.2-1.2-2.4-2.2-3.7-3.2l.6-.8c1.3,1,2.6,2.1,3.8,3.3l-.7.7ZM68.4,93.4l-.7-.7c1.2-1.2,2.5-2.3,3.9-3.3l.6.8c-1.3,1-2.6,2-3.8,3.2ZM109.5,87.8c-1.4-.8-2.9-1.5-4.5-2.1l.4-.9c1.6.6,3.1,1.3,4.6,2.1l-.5.9ZM76.4,87.6l-.5-.9c1.5-.8,3-1.5,4.6-2l.3.9c-1.5.6-3.1,1.2-4.5,2ZM100.3,84.4c-1.6-.4-3.2-.6-4.9-.7v-1c1.8.1,3.4.4,5.1.7l-.2,1ZM85.6,84.3l-.2-1c1.6-.3,3.3-.6,5-.7v1c-1.6.1-3.2.3-4.8.7Z"/>
      <path class="cls-19" d="M467.6,154.5v-1c1.6,0,3.3-.2,4.9-.4l.2,1c-1.7.3-3.4.4-5,.5ZM462.5,154.3c-1.7-.2-3.3-.5-5-1l.3-1c1.6.4,3.2.7,4.8.9v1ZM477.5,152.9l-.3-1c1.6-.5,3.1-1.1,4.6-1.8l.4.9c-1.5.7-3.1,1.3-4.7,1.8ZM452.7,151.7c-1.5-.7-3.1-1.4-4.5-2.3l.5-.9c1.4.8,2.9,1.6,4.4,2.2l-.4.9ZM486.7,148.5l-.6-.8c1.4-.9,2.7-1.9,3.9-3l.7.7c-1.3,1.1-2.6,2.2-4,3.1ZM444.1,146.4c-1.3-1.1-2.5-2.2-3.7-3.5l.7-.7c1.1,1.2,2.3,2.3,3.6,3.4l-.6.8ZM494.2,141.8l-.8-.6c1.1-1.2,2-2.6,2.9-4l.8.5c-.9,1.4-1.9,2.8-3,4.1ZM437.2,139c-1-1.4-1.8-2.9-2.6-4.4l.9-.4c.7,1.5,1.6,2.9,2.5,4.2l-.8.6ZM499.6,133.3l-.9-.4c.7-1.5,1.2-3.1,1.7-4.6l1,.3c-.5,1.6-1.1,3.2-1.7,4.8ZM432.7,130c-.5-1.6-1-3.2-1.3-4.9l1-.2c.3,1.6.7,3.2,1.2,4.8l-.9.3ZM502.4,123.6h-1c.2-1.8.3-3.4.3-5.1,0-1,0-2-.1-3h1c0,.9.1,1.9.1,3,0,1.7-.1,3.4-.4,5.1ZM430.8,120.1c0-.5,0-1,0-1.5,0-1.2,0-2.4.2-3.5h1c-.1,1.2-.2,2.4-.2,3.5s0,1,0,1.5h-1ZM500.9,110.7c-.4-1.6-.8-3.2-1.4-4.7l.9-.4c.6,1.6,1.1,3.2,1.5,4.8l-1,.2ZM432.8,110.2l-1-.2c.4-1.6.9-3.3,1.5-4.8l.9.4c-.6,1.5-1.1,3.1-1.5,4.7ZM497.4,101.5c-.8-1.4-1.7-2.8-2.7-4.1l.8-.6c1,1.3,2,2.8,2.8,4.2l-.9.5ZM436.5,101.1l-.9-.5c.8-1.5,1.8-2.9,2.8-4.2l.8.6c-1,1.3-1.9,2.7-2.8,4.1ZM491.4,93.7c-1.2-1.2-2.4-2.2-3.7-3.2l.6-.8c1.4,1,2.6,2.1,3.8,3.3l-.7.7ZM442.5,93.4l-.7-.7c1.2-1.2,2.5-2.3,3.9-3.3l.6.8c-1.3,1-2.6,2-3.8,3.2ZM483.6,87.8c-1.4-.8-2.9-1.5-4.5-2.1l.4-.9c1.6.6,3.1,1.3,4.6,2.1l-.5.9ZM450.5,87.6l-.5-.9c1.5-.8,3-1.5,4.6-2l.3.9c-1.5.6-3.1,1.2-4.5,2ZM474.4,84.4c-1.6-.4-3.2-.6-4.9-.7v-1c1.8.1,3.4.4,5.1.7l-.2,1ZM459.7,84.3l-.2-1c1.6-.3,3.3-.6,5-.7v1c-1.6.1-3.2.3-4.8.7Z"/>
      <path class="cls-14" d="M273,154.5v-1c1.6,0,3.3-.2,4.9-.4l.2,1c-1.7.3-3.4.4-5,.5ZM268,154.3c-1.7-.2-3.4-.5-5-1l.3-1c1.6.4,3.2.7,4.8.9v1ZM283,152.9l-.3-1c1.6-.5,3.1-1.1,4.6-1.8l.4.9c-1.5.7-3.1,1.3-4.7,1.8ZM258.2,151.7c-1.5-.7-3.1-1.4-4.5-2.3l.5-.9c1.4.8,2.9,1.6,4.4,2.2l-.4.9ZM292.1,148.5l-.6-.8c1.4-.9,2.7-1.9,3.9-3l.7.7c-1.3,1.1-2.6,2.2-4,3.1ZM249.6,146.4c-1.3-1.1-2.5-2.2-3.7-3.5l.7-.7c1.1,1.2,2.3,2.3,3.6,3.4l-.6.8ZM299.7,141.8l-.8-.6c1.1-1.2,2-2.6,2.9-4l.8.5c-.9,1.4-1.9,2.8-3,4.1ZM242.7,139c-1-1.4-1.8-2.8-2.6-4.4l.9-.4c.7,1.5,1.6,2.9,2.5,4.2l-.8.6ZM305.1,133.3l-.9-.4c.7-1.5,1.2-3.1,1.7-4.6l1,.3c-.5,1.6-1.1,3.2-1.7,4.8ZM238.2,130c-.5-1.6-1-3.2-1.3-4.9l1-.2c.3,1.6.7,3.2,1.2,4.8l-.9.3ZM307.9,123.6h-1c.2-1.8.3-3.4.3-5.1s0-2-.1-3h1c0,.9.1,1.9.1,3,0,1.7-.1,3.4-.4,5.1ZM236.3,120.1c0-.5,0-1,0-1.5,0-1.2,0-2.4.2-3.5h1c-.1,1.2-.2,2.4-.2,3.5s0,1,0,1.5h-1ZM306.4,110.7c-.4-1.6-.8-3.2-1.4-4.7l.9-.4c.6,1.6,1.1,3.2,1.5,4.8l-1,.2ZM238.3,110.2l-1-.2c.4-1.6.9-3.3,1.5-4.8l.9.4c-.6,1.5-1.1,3.1-1.5,4.7ZM302.9,101.5c-.8-1.4-1.7-2.8-2.7-4.1l.8-.6c1,1.3,2,2.8,2.8,4.2l-.9.5ZM241.9,101.1l-.9-.5c.8-1.5,1.8-2.9,2.8-4.2l.8.6c-1,1.3-1.9,2.7-2.8,4.1ZM296.9,93.7c-1.2-1.2-2.4-2.2-3.7-3.2l.6-.8c1.3,1,2.6,2.1,3.8,3.3l-.7.7ZM248,93.4l-.7-.7c1.2-1.2,2.5-2.3,3.9-3.3l.6.8c-1.3,1-2.6,2-3.8,3.2ZM289,87.8c-1.4-.8-2.9-1.5-4.5-2.1l.4-.9c1.6.6,3.1,1.3,4.6,2.1l-.5.9ZM255.9,87.6l-.5-.9c1.5-.8,3-1.5,4.6-2l.3.9c-1.5.6-3.1,1.2-4.5,2ZM279.8,84.4c-1.6-.4-3.2-.6-4.9-.7v-1c1.8.1,3.4.4,5.1.7l-.2,1ZM265.2,84.3l-.2-1c1.6-.3,3.3-.6,5-.7v1c-1.6.1-3.2.3-4.8.7Z"/>
      <path class="cls-8" d="M52.3,93.1h-1.8v-8.6l-2.6.9v-1.5l4.2-1.5h.2v10.7Z"/>
      <path class="cls-14" d="M234.2,93.1h-7.2v-1.2l3.6-3.9c.5-.6.9-1,1.1-1.4.2-.4.3-.8.3-1.2s-.1-.9-.4-1.2c-.3-.3-.7-.5-1.2-.5s-1,.2-1.3.5-.5.8-.5,1.4h-1.8c0-.6.1-1.2.4-1.8.3-.5.7-.9,1.3-1.2.5-.3,1.2-.4,1.9-.4,1,0,1.9.3,2.5.8.6.5.9,1.2.9,2.2s-.1,1.1-.5,1.7c-.3.6-.8,1.2-1.5,2l-2.6,2.8h5v1.4Z"/>
      <path class="cls-19" d="M423.6,87h1.1c.5,0,1-.1,1.3-.4.3-.3.5-.7.5-1.2s-.1-.9-.4-1.2c-.3-.3-.7-.4-1.2-.4s-.9.1-1.2.4c-.3.3-.5.6-.5,1.1h-1.8c0-.5.1-1,.4-1.5.3-.4.7-.8,1.2-1.1.5-.3,1.1-.4,1.7-.4,1.1,0,1.9.3,2.5.8.6.5.9,1.3.9,2.2s-.2.9-.5,1.4c-.3.4-.7.7-1.2,1,.6.2,1,.5,1.3.9.3.4.5.9.5,1.5,0,1-.3,1.7-1,2.3-.7.6-1.5.8-2.6.8s-1.9-.3-2.5-.8-1-1.3-1-2.2h1.8c0,.5.2.8.5,1.1.3.3.7.4,1.3.4s1-.1,1.3-.4.5-.7.5-1.3-.2-1-.5-1.3-.8-.5-1.5-.5h-1v-1.4Z"/>
      <g>
        <rect class="cls-30" x="134.6" y="117.4" width="2.5" height="1"/>
        <path class="cls-15" d="M220.4,118.4h-5.2v-1h5.2v1ZM210,118.4h-5.2v-1h5.2v1ZM199.6,118.4h-5.2v-1h5.2v1ZM189.2,118.4h-5.2v-1h5.2v1ZM178.8,118.4h-5.2v-1h5.2v1ZM168.4,118.4h-5.2v-1h5.2v1ZM157.9,118.4h-5.2v-1h5.2v1ZM147.5,118.4h-5.2v-1h5.2v1Z"/>
        <rect class="cls-3" x="225.6" y="117.4" width="2.5" height="1"/>
      </g>
      <g>
        <rect class="cls-20" x="320.5" y="117.4" width="2.5" height="1"/>
        <path class="cls-22" d="M406.3,118.4h-5.2v-1h5.2v1ZM395.9,118.4h-5.2v-1h5.2v1ZM385.5,118.4h-5.2v-1h5.2v1ZM375.1,118.4h-5.2v-1h5.2v1ZM364.7,118.4h-5.2v-1h5.2v1ZM354.3,118.4h-5.2v-1h5.2v1ZM343.8,118.4h-5.2v-1h5.2v1ZM333.4,118.4h-5.2v-1h5.2v1Z"/>
        <rect class="cls-13" x="411.5" y="117.4" width="2.5" height="1"/>
      </g>
    </g>
  </g>
</svg>