<?xml version="1.0" encoding="UTF-8"?>
<svg id="Layer_1" data-name="Layer 1" xmlns="http://www.w3.org/2000/svg" version="1.1" xmlns:xlink="http://www.w3.org/1999/xlink" viewBox="0 0 548.1 152.8">
  <defs>
    <style>
      .cls-1 {
        fill: #00665e;
      }

      .cls-1, .cls-2, .cls-3, .cls-4, .cls-5, .cls-6, .cls-7, .cls-8, .cls-9, .cls-10, .cls-11, .cls-12, .cls-13, .cls-14, .cls-15, .cls-16, .cls-17, .cls-18 {
        stroke-width: 0px;
      }

      .cls-2 {
        fill: url(#linear-gradient);
      }

      .cls-19 {
        fill: #fff;
        stroke: #b3b3b3;
        stroke-width: .4px;
      }

      .cls-19, .cls-20 {
        stroke-miterlimit: 10;
      }

      .cls-3 {
        fill: #00a99d;
      }

      .cls-4 {
        fill: #f2f2f2;
      }

      .cls-5 {
        fill: url(#linear-gradient-6);
      }

      .cls-21 {
        isolation: isolate;
      }

      .cls-6 {
        fill: #b3b3b3;
      }

      .cls-7 {
        fill: #0071a9;
      }

      .cls-8 {
        fill: #00bfb2;
      }

      .cls-9 {
        fill: url(#linear-gradient-5);
      }

      .cls-10, .cls-20 {
        fill: none;
      }

      .cls-11 {
        fill: #046;
      }

      .cls-12 {
        fill: #0080bf;
      }

      .cls-22 {
        opacity: .2;
      }

      .cls-22, .cls-23 {
        mix-blend-mode: multiply;
      }

      .cls-13 {
        fill: url(#linear-gradient-2);
      }

      .cls-14 {
        fill: url(#linear-gradient-7);
      }

      .cls-15 {
        fill: url(#linear-gradient-3);
      }

      .cls-24 {
        clip-path: url(#clippath);
      }

      .cls-16 {
        fill: url(#linear-gradient-9);
      }

      .cls-20 {
        stroke: gray;
        stroke-width: 0px;
      }

      .cls-17 {
        fill: url(#linear-gradient-8);
      }

      .cls-18 {
        fill: url(#linear-gradient-4);
      }
    </style>
    <clipPath id="clippath">
      <path class="cls-10" d="M76.5,60.3H12.6c-6.8,0-12.4,5.6-12.4,12.4v67.3c0,6.8,5.6,12.4,12.4,12.4h67.3c6.8,0,12.4-5.6,12.4-12.4v-61.8c-4.9-4.3-12-13.2-15.7-17.9h0Z"/>
    </clipPath>
    <linearGradient id="linear-gradient" x1="146.1" y1="89.6" x2="385.4" y2="89.6" gradientTransform="translate(0 154) scale(1 -1)" gradientUnits="userSpaceOnUse">
      <stop offset="0" stop-color="#00a99d"/>
      <stop offset="1" stop-color="#0071a9"/>
    </linearGradient>
    <linearGradient id="linear-gradient-2" x1="146.1" y1="85" x2="385.4" y2="85" gradientTransform="translate(0 154) scale(1 -1)" gradientUnits="userSpaceOnUse">
      <stop offset="0" stop-color="#00a99d"/>
      <stop offset="1" stop-color="#0071a9"/>
    </linearGradient>
    <linearGradient id="linear-gradient-3" x1="146.1" y1="85.3" x2="385.4" y2="85.3" gradientTransform="translate(0 154) scale(1 -1)" gradientUnits="userSpaceOnUse">
      <stop offset="0" stop-color="#00a99d"/>
      <stop offset="1" stop-color="#0071a9"/>
    </linearGradient>
    <linearGradient id="linear-gradient-4" x1="146.1" y1="85" x2="385.4" y2="85" gradientTransform="translate(0 154) scale(1 -1)" gradientUnits="userSpaceOnUse">
      <stop offset="0" stop-color="#00a99d"/>
      <stop offset="1" stop-color="#0071a9"/>
    </linearGradient>
    <linearGradient id="linear-gradient-5" x1="146.1" y1="85" x2="385.4" y2="85" gradientTransform="translate(0 154) scale(1 -1)" gradientUnits="userSpaceOnUse">
      <stop offset="0" stop-color="#00a99d"/>
      <stop offset="1" stop-color="#0071a9"/>
    </linearGradient>
    <linearGradient id="linear-gradient-6" x1="146.1" y1="85.3" x2="385.4" y2="85.3" gradientTransform="translate(0 154) scale(1 -1)" gradientUnits="userSpaceOnUse">
      <stop offset="0" stop-color="#00a99d"/>
      <stop offset="1" stop-color="#0071a9"/>
    </linearGradient>
    <linearGradient id="linear-gradient-7" x1="146.1" y1="88" x2="385.4" y2="88" gradientTransform="translate(0 154) scale(1 -1)" gradientUnits="userSpaceOnUse">
      <stop offset="0" stop-color="#00a99d"/>
      <stop offset="1" stop-color="#0071a9"/>
    </linearGradient>
    <linearGradient id="linear-gradient-8" x1="146.1" y1="85" x2="385.4" y2="85" gradientTransform="translate(0 154) scale(1 -1)" gradientUnits="userSpaceOnUse">
      <stop offset="0" stop-color="#00a99d"/>
      <stop offset="1" stop-color="#0071a9"/>
    </linearGradient>
    <linearGradient id="linear-gradient-9" x1="146.1" y1="85.3" x2="385.4" y2="85.3" gradientTransform="translate(0 154) scale(1 -1)" gradientUnits="userSpaceOnUse">
      <stop offset="0" stop-color="#00a99d"/>
      <stop offset="1" stop-color="#0071a9"/>
    </linearGradient>
  </defs>
  <g class="cls-21">
    <g id="Layer_2" data-name="Layer 2">
      <g id="Layer_1-2" data-name="Layer 1-2">
        <polygon class="cls-1" points="96.7 106.6 29.3 131.6 29.3 100.6 92.2 100.6 96.7 106.6"/>
        <path class="cls-19" d="M76.5,60.6H12.6c-6.8,0-12.4,5.6-12.4,12.4v67.3c0,6.8,5.6,12.4,12.4,12.4h67.3c6.8,0,12.4-5.6,12.4-12.4v-61.8c-4.9-4.3-12-13.2-15.7-17.9h0Z"/>
        <g class="cls-24">
          <g>
            <line class="cls-20" x1="122.6" y1="144" x2="-28.1" y2="144"/>
            <line class="cls-20" x1="122.6" y1="134.3" x2="-28.1" y2="134.3"/>
            <line class="cls-20" x1="122.6" y1="125.2" x2="-28.1" y2="125.2"/>
            <line class="cls-20" x1="122.6" y1="115.5" x2="-28.1" y2="115.5"/>
            <line class="cls-20" x1="122.6" y1="106.4" x2="-28.1" y2="106.4"/>
            <line class="cls-20" x1="122.6" y1="96.7" x2="-28.1" y2="96.7"/>
            <line class="cls-20" x1="122.6" y1="87.6" x2="-28.1" y2="87.6"/>
            <line class="cls-20" x1="122.6" y1="77.9" x2="-28.1" y2="77.9"/>
            <line class="cls-20" x1="122.6" y1="68.7" x2="-28.1" y2="68.7"/>
            <line class="cls-20" x1="11.1" y1="152.1" x2="11.1" y2="60.6"/>
            <line class="cls-20" x1="24.8" y1="152.1" x2="24.8" y2="60.6"/>
            <line class="cls-20" x1="39.3" y1="152.1" x2="39.3" y2="60.6"/>
            <line class="cls-20" x1="52.9" y1="152.1" x2="52.9" y2="60.6"/>
            <line class="cls-20" x1="67.5" y1="152.1" x2="67.5" y2="60.6"/>
            <line class="cls-20" x1="81.3" y1="152.1" x2="81.3" y2="60.6"/>
            <line class="cls-20" x1="95.8" y1="152.1" x2="95.8" y2="60.6"/>
            <line class="cls-20" x1="110.3" y1="152.1" x2="110.3" y2="60.6"/>
          </g>
        </g>
        <path class="cls-3" d="M96.7,137.6H29.3s-5-1-5-15.5,5-15.5,5-15.5h67.4s3.9,2.4,3.9,15.5-3.9,15.5-3.9,15.5Z"/>
        <path class="cls-6" d="M76.5,60.6v9.7c0,4.5,3.7,8.2,8.2,8.2h7.4c-6-7-7.6-9-15.7-17.9Z"/>
        <path class="cls-8" d="M54.7,124.4c-.1,1.6-.7,2.8-1.7,3.7s-2.4,1.4-4.1,1.4-3.3-.6-4.4-1.9c-1.1-1.2-1.6-3-1.6-5.2v-.9c0-1.4.2-2.6.7-3.7.5-1.1,1.2-1.9,2.1-2.4s2-.8,3.2-.8,3,.4,4,1.3,1.6,2.2,1.8,3.8h-3c0-.9-.3-1.6-.8-2-.5-.4-1.1-.6-2-.6s-1.7.4-2.2,1.1c-.5.7-.8,1.8-.8,3.3v1.1c0,1.6.2,2.7.7,3.4.5.7,1.2,1.1,2.2,1.1s1.6-.2,2.1-.6.7-1.1.8-2h3,0Z"/>
        <path class="cls-8" d="M65.2,125.4c0-.6-.2-1-.6-1.3s-1.1-.6-2.2-1-1.9-.7-2.5-1c-1.7-.9-2.5-2.1-2.5-3.6s.2-1.5.7-2.1c.4-.6,1.1-1.1,1.9-1.4.8-.3,1.8-.5,2.8-.5s2,.2,2.8.6c.8.4,1.4.9,1.9,1.6.4.7.7,1.5.7,2.3h-3c0-.7-.2-1.2-.6-1.6s-1-.6-1.8-.6-1.3.2-1.7.5-.6.7-.6,1.2.2.9.7,1.2c.5.3,1.2.6,2.1.9,1.7.5,2.9,1.2,3.7,1.9s1.2,1.7,1.2,2.8-.5,2.2-1.4,3-2.2,1.1-3.8,1.1-2.1-.2-3-.6-1.6-1-2.1-1.7-.7-1.5-.7-2.5h3c0,1.6,1,2.4,2.9,2.4s1.3-.1,1.7-.4.6-.7.6-1.2h0Z"/>
        <path class="cls-8" d="M76.6,125.6l3.3-10.9h3.3l-5.1,14.5h-3.1l-5-14.5h3.3l3.3,10.9h0Z"/>
        <path class="cls-1" d="M54.7,125.2c-.1,1.6-.7,2.8-1.7,3.7s-2.4,1.4-4.1,1.4-3.3-.6-4.4-1.9c-1.1-1.2-1.6-3-1.6-5.2v-.9c0-1.4.2-2.6.7-3.7.5-1.1,1.2-1.9,2.1-2.4s2-.8,3.2-.8,3,.4,4,1.3,1.6,2.2,1.8,3.8h-3c0-.9-.3-1.6-.8-2-.5-.4-1.1-.6-2-.6s-1.7.4-2.2,1.1c-.5.7-.8,1.8-.8,3.3v1.1c0,1.6.2,2.7.7,3.4.5.7,1.2,1.1,2.2,1.1s1.6-.2,2.1-.6.7-1.1.8-2h3,0Z"/>
        <path class="cls-1" d="M65.2,126.2c0-.6-.2-1-.6-1.3s-1.1-.6-2.2-1-1.9-.7-2.5-1c-1.7-.9-2.5-2.1-2.5-3.6s.2-1.5.7-2.1c.4-.6,1.1-1.1,1.9-1.4.8-.3,1.8-.5,2.8-.5s2,.2,2.8.6c.8.4,1.4.9,1.9,1.6.4.7.7,1.5.7,2.3h-3c0-.7-.2-1.2-.6-1.6s-1-.6-1.8-.6-1.3.2-1.7.5-.6.7-.6,1.2.2.9.7,1.2c.5.3,1.2.6,2.1.9,1.7.5,2.9,1.2,3.7,1.9s1.2,1.7,1.2,2.8-.5,2.2-1.4,3-2.2,1.1-3.8,1.1-2.1-.2-3-.6-1.6-1-2.1-1.7-.7-1.5-.7-2.5h3c0,1.6,1,2.4,2.9,2.4s1.3-.1,1.7-.4.6-.7.6-1.2h0Z"/>
        <path class="cls-1" d="M76.6,126.4l3.3-10.9h3.3l-5.1,14.5h-3.1l-5-14.5h3.3l3.3,10.9h0Z"/>
        <g class="cls-23">
          <path class="cls-4" d="M54.7,124.7c-.1,1.6-.7,2.8-1.7,3.7s-2.4,1.4-4.1,1.4-3.3-.6-4.4-1.9c-1.1-1.2-1.6-3-1.6-5.2v-.9c0-1.4.2-2.6.7-3.7.5-1.1,1.2-1.9,2.1-2.4s2-.8,3.2-.8,3,.4,4,1.3,1.6,2.2,1.8,3.8h-3c0-.9-.3-1.6-.8-2-.5-.4-1.1-.6-2-.6s-1.7.4-2.2,1.1c-.5.7-.8,1.8-.8,3.3v1.1c0,1.6.2,2.7.7,3.4.5.7,1.2,1.1,2.2,1.1s1.6-.2,2.1-.6.7-1.1.8-2h3,0Z"/>
          <path class="cls-4" d="M65.2,125.8c0-.6-.2-1-.6-1.3s-1.1-.6-2.2-1-1.9-.7-2.5-1c-1.7-.9-2.5-2.1-2.5-3.6s.2-1.5.7-2.1c.4-.6,1.1-1.1,1.9-1.4.8-.3,1.8-.5,2.8-.5s2,.2,2.8.6c.8.4,1.4.9,1.9,1.6.4.7.7,1.5.7,2.3h-3c0-.7-.2-1.2-.6-1.6s-1-.6-1.8-.6-1.3.2-1.7.5-.6.7-.6,1.2.2.9.7,1.2c.5.3,1.2.6,2.1.9,1.7.5,2.9,1.2,3.7,1.9s1.2,1.7,1.2,2.8-.5,2.2-1.4,3-2.2,1.1-3.8,1.1-2.1-.2-3-.6-1.6-1-2.1-1.7-.7-1.5-.7-2.5h3c0,1.6,1,2.4,2.9,2.4s1.3-.1,1.7-.4.6-.7.6-1.2h0Z"/>
          <path class="cls-4" d="M76.6,126l3.3-10.9h3.3l-5.1,14.5h-3.1l-5-14.5h3.3l3.3,10.9h0Z"/>
        </g>
        <polygon class="cls-1" points="48.3 43.1 48.3 44.7 50.3 44.7 50.3 43.1 49.3 44.2 48.3 43.1"/>
        <polygon class="cls-1" points="48.3 44.7 48.3 43.1 45.9 40.7 45.9 43.6 49.3 47.1 52.7 43.6 52.7 40.7 50.3 43.1 50.3 44.7 48.3 44.7"/>
        <polygon class="cls-3" points="151.2 18.5 48.3 18.5 48.3 43.1 49.3 44.2 50.3 43.1 50.3 20.5 151.2 20.5 151.2 18.5"/>
        <path class="cls-3" d="M179.7,25.3c-.3,3.8-1.7,6.8-4.2,9-2.6,2.2-5.9,3.3-10.1,3.3s-8.1-1.5-10.8-4.6-3.9-7.3-3.9-12.6v-2.2c0-3.4.6-6.4,1.8-9,1.2-2.6,2.9-4.6,5.2-6,2.2-1.4,4.8-2.1,7.8-2.1s7.4,1.1,9.9,3.3c2.5,2.2,4,5.3,4.4,9.2h-7.3c-.2-2.3-.8-4-1.9-5-1.1-1-2.8-1.6-5-1.6s-4.3.9-5.5,2.6c-1.2,1.8-1.8,4.5-1.9,8.1v2.7c0,3.8.6,6.6,1.8,8.4,1.2,1.8,3,2.7,5.5,2.7s3.9-.5,5.1-1.5c1.1-1,1.8-2.6,1.9-4.8h7.3,0Z"/>
        <path class="cls-3" d="M205.4,27.9c0-1.4-.5-2.5-1.5-3.2-1-.7-2.7-1.5-5.3-2.3-2.5-.8-4.6-1.6-6-2.4-4-2.2-6.1-5.1-6.1-8.8s.5-3.6,1.6-5.1,2.6-2.7,4.7-3.5c2-.9,4.3-1.3,6.8-1.3s4.8.5,6.8,1.4c2,.9,3.5,2.2,4.6,3.9,1.1,1.7,1.6,3.6,1.6,5.7h-7.3c0-1.6-.5-2.9-1.5-3.8s-2.5-1.3-4.3-1.3-3.2.4-4.2,1.1c-1,.8-1.5,1.8-1.5,3s.6,2.1,1.8,2.9c1.2.8,2.9,1.5,5.1,2.2,4.2,1.2,7.2,2.8,9.1,4.7s2.9,4.2,2.9,6.9-1.2,5.5-3.5,7.2-5.5,2.6-9.4,2.6-5.2-.5-7.5-1.5-4-2.4-5.1-4.1c-1.2-1.7-1.8-3.8-1.8-6h7.4c0,3.9,2.3,5.9,7,5.9s3.1-.4,4.1-1.1,1.5-1.7,1.5-3h0Z"/>
        <path class="cls-3" d="M233.3,28.4l8.1-26.7h8.1l-12.4,35.5h-7.6L217.2,1.6h8.1s8,26.7,8,26.7Z"/>
        <path class="cls-7" d="M273.3,1.6h7.3v24.6c0,2.3-.5,4.3-1.5,6s-2.4,3.1-4.2,4c-1.8.9-3.9,1.4-6.2,1.4-3.8,0-6.7-1-8.8-2.9s-3.1-4.6-3.1-8.1h7.4c0,1.7.4,3,1.1,3.9s1.9,1.2,3.5,1.2,2.5-.5,3.3-1.4c.8-1,1.2-2.3,1.2-4.1V1.6h0Z"/>
        <path class="cls-7" d="M307.8,27.9c0-1.4-.5-2.5-1.5-3.2-1-.7-2.7-1.5-5.3-2.3-2.5-.8-4.5-1.6-6-2.4-4-2.2-6-5.1-6-8.8s.5-3.6,1.6-5.1,2.6-2.7,4.7-3.5c2-.9,4.3-1.3,6.8-1.3s4.8.5,6.8,1.4c2,.9,3.5,2.2,4.6,3.9,1.1,1.7,1.6,3.6,1.6,5.7h-7.3c0-1.6-.5-2.9-1.5-3.8s-2.5-1.3-4.3-1.3-3.2.4-4.2,1.1c-1,.8-1.5,1.8-1.5,3s.6,2.1,1.8,2.9c1.2.8,2.9,1.5,5.1,2.2,4.2,1.2,7.2,2.8,9.1,4.7s2.9,4.2,2.9,6.9-1.2,5.5-3.5,7.2-5.5,2.6-9.4,2.6-5.2-.5-7.5-1.5-4-2.4-5.1-4.1c-1.2-1.7-1.8-3.8-1.8-6h7.4c0,3.9,2.3,5.9,7,5.9s3.1-.4,4.1-1.1,1.5-1.7,1.5-3h0Z"/>
        <path class="cls-7" d="M351.8,20.2c0,3.5-.6,6.6-1.9,9.2-1.2,2.6-3,4.7-5.3,6.1-2.3,1.4-4.9,2.2-7.9,2.2s-5.6-.7-7.9-2.1c-2.3-1.4-4.1-3.4-5.4-6.1s-1.9-5.6-1.9-9.1v-1.8c0-3.5.6-6.6,1.9-9.2s3-4.7,5.4-6.1c2.3-1.4,4.9-2.1,7.9-2.1s5.6.7,7.9,2.1c2.3,1.4,4.1,3.5,5.4,6.1,1.3,2.7,1.9,5.7,1.9,9.2v1.6h0ZM344.4,18.6c0-3.7-.7-6.6-2-8.5s-3.2-2.9-5.7-2.9-4.4,1-5.7,2.9c-1.3,1.9-2,4.7-2,8.4v1.7c0,3.6.7,6.5,2,8.5s3.2,3,5.8,3,4.4-1,5.7-2.9,2-4.7,2-8.4v-1.7h0Z"/>
        <path class="cls-7" d="M388.6,37.2h-7.3l-14.3-23.4v23.4h-7.3V1.6h7.3l14.3,23.4V1.6h7.3v35.6h0Z"/>
        <polygon class="cls-11" points="544.2 106.6 476.8 131.6 476.8 100.6 539.7 100.6 544.2 106.6"/>
        <path class="cls-19" d="M524,60.6h-64c-6.8,0-12.4,5.6-12.4,12.4v67.3c0,6.8,5.6,12.4,12.4,12.4h67.3c6.8,0,12.4-5.6,12.4-12.4v-61.8c-5-4.3-12-13.2-15.7-17.9h0Z"/>
        <path class="cls-7" d="M544.2,137.6h-67.4s-5-1-5-15.5,5-15.5,5-15.5h67.4s3.9,2.4,3.9,15.5-3.9,15.5-3.9,15.5Z"/>
        <path class="cls-6" d="M524,60.6v9.7c0,4.5,3.7,8.2,8.2,8.2h7.5c-6-7-7.6-9-15.7-17.9Z"/>
        <g class="cls-22">
          <path class="cls-7" d="M485.4,101.1c-.2.6-.8.9-1.4.6-1.4-.6-2.6-1.3-3.4-2.4-1-1.3-1.5-2.9-1.5-5v-3.3c0-2.3-.9-3.7-2.6-4-.5,0-.9-.5-.9-1v-.5c0-.5.4-.9.9-1,1.8-.3,2.6-1.6,2.6-3.9v-3.4c0-2,.5-3.7,1.5-4.9.8-1,1.9-1.8,3.4-2.4.6-.2,1.2,0,1.4.6h0c.2.5,0,1-.5,1.2-1.8.9-2.6,2.7-2.6,5.4v3.3c0,2-.6,3.5-1.7,4.5-.4.4-.4,1.1,0,1.5,1.1,1,1.7,2.6,1.7,4.6v3.4c0,2.7.9,4.4,2.6,5.3.5.2.7.8.5,1.2h0Z"/>
          <path class="cls-7" d="M489.5,100.4l-.2-.2c-.5-.3-.6-.9-.3-1.4.7-1.2,1.1-2.4,1.1-3.7v-1.7c0-.6.5-1,1-1h.9c.6,0,1,.5,1,1v1.4c0,1.1-.3,2.2-.8,3.3-.4.8-.9,1.5-1.4,2.1-.4.4-.9.4-1.4.2h0ZM489.6,79.8c0-.5.2-1,.5-1.3.3-.3.8-.5,1.4-.5s1.1.2,1.4.5c.3.3.5.8.5,1.3s-.2.9-.5,1.3c-.3.3-.8.5-1.4.5s-1.1-.2-1.4-.5c-.3-.3-.5-.8-.5-1.3Z"/>
          <path class="cls-7" d="M497.3,101.1c-.2-.5,0-1,.5-1.3,1.7-.9,2.6-2.6,2.6-5.2v-3.7c0-2,.6-3.4,1.8-4.4.5-.4.5-1.2,0-1.6-1.2-1-1.8-2.5-1.8-4.4v-3.4c0-2.7-.9-4.5-2.6-5.4-.5-.2-.7-.8-.5-1.2h0c.2-.6.8-.9,1.4-.7,1.4.6,2.6,1.3,3.4,2.3,1,1.2,1.5,2.9,1.5,4.9v3.5c0,2.3.9,3.6,2.6,3.9.5,0,.9.5.9,1v.5c0,.5-.4.9-.9,1-1.8.3-2.6,1.6-2.6,4v3.3c0,2.1-.5,3.7-1.5,5-.8,1-1.9,1.8-3.4,2.3-.6.2-1.2,0-1.4-.6h0Z"/>
        </g>
        <path class="cls-4" d="M490.6,115.4h3v9.9c0,.9-.2,1.7-.6,2.4-.4.7-1,1.2-1.7,1.6-.7.4-1.6.6-2.5.6-1.5,0-2.7-.4-3.5-1.1-.9-.8-1.3-1.9-1.3-3.3h3c0,.7.1,1.2.4,1.6s.8.5,1.4.5,1-.2,1.4-.6c.3-.4.5-.9.5-1.7v-9.9h0Z"/>
        <path class="cls-4" d="M504.5,125.9c0-.6-.2-1-.6-1.3-.4-.3-1.1-.6-2.1-.9s-1.8-.7-2.4-1c-1.6-.9-2.4-2.1-2.4-3.6s.2-1.5.6-2.1c.4-.6,1.1-1.1,1.9-1.4s1.7-.5,2.8-.5,1.9.2,2.7.6c.8.4,1.4.9,1.9,1.6.4.7.7,1.4.7,2.3h-3c0-.7-.2-1.2-.6-1.5s-1-.6-1.7-.6-1.3.2-1.7.5c-.4.3-.6.7-.6,1.2s.2.9.7,1.2,1.2.6,2.1.9c1.7.5,2.9,1.1,3.7,1.9s1.1,1.7,1.1,2.8-.5,2.2-1.4,2.9-2.2,1.1-3.8,1.1-2.1-.2-3-.6-1.6-.9-2.1-1.7c-.5-.7-.7-1.5-.7-2.4h3c0,1.6.9,2.4,2.8,2.4s1.2-.1,1.6-.4.6-.7.6-1.2h0Z"/>
        <path class="cls-4" d="M522.2,122.8c0,1.4-.2,2.6-.8,3.7-.5,1.1-1.2,1.9-2.1,2.5s-2,.9-3.2.9-2.2-.3-3.2-.9-1.6-1.4-2.2-2.4c-.5-1.1-.8-2.3-.8-3.7v-.7c0-1.4.2-2.7.8-3.7s1.2-1.9,2.2-2.5c.9-.6,2-.9,3.2-.9s2.2.3,3.2.9,1.6,1.4,2.2,2.5.8,2.3.8,3.7v.6h0ZM519.2,122.2c0-1.5-.3-2.6-.8-3.4s-1.3-1.2-2.3-1.2-1.8.4-2.3,1.2c-.5.8-.8,1.9-.8,3.4v.7c0,1.5.3,2.6.8,3.4.5.8,1.3,1.2,2.3,1.2s1.8-.4,2.3-1.2.8-1.9.8-3.4v-.7h0Z"/>
        <path class="cls-4" d="M537,129.7h-3l-5.7-9.4v9.4h-3v-14.3h3l5.8,9.4v-9.4h2.9v14.3Z"/>
        <path class="cls-11" d="M490.6,114.6h3v9.9c0,.9-.2,1.7-.6,2.4-.4.7-1,1.2-1.7,1.6-.7.4-1.6.6-2.5.6-1.5,0-2.7-.4-3.5-1.2s-1.3-1.9-1.3-3.3h3c0,.7.1,1.2.4,1.6s.8.5,1.4.5,1-.2,1.4-.6c.3-.4.5-.9.5-1.7v-9.9h0Z"/>
        <path class="cls-11" d="M504.5,125.1c0-.6-.2-1-.6-1.3-.4-.3-1.1-.6-2.1-.9s-1.8-.7-2.4-1c-1.6-.9-2.4-2.1-2.4-3.6s.2-1.5.6-2.1c.4-.6,1.1-1.1,1.9-1.4s1.7-.5,2.8-.5,1.9.2,2.7.6c.8.4,1.4.9,1.9,1.6.4.7.7,1.4.7,2.3h-3c0-.7-.2-1.2-.6-1.5s-1-.6-1.7-.6-1.3.2-1.7.5c-.4.3-.6.7-.6,1.2s.2.9.7,1.2,1.2.6,2.1.9c1.7.5,2.9,1.1,3.7,1.9s1.1,1.7,1.1,2.8-.5,2.2-1.4,2.9c-.9.7-2.2,1.1-3.8,1.1s-2.1-.2-3-.6-1.6-.9-2.1-1.7c-.5-.7-.7-1.5-.7-2.4h3c0,1.6.9,2.4,2.8,2.4s1.2-.1,1.6-.4.6-.7.6-1.2h0Z"/>
        <path class="cls-11" d="M522.2,122.1c0,1.4-.2,2.6-.8,3.7-.5,1.1-1.2,1.9-2.1,2.5-.9.6-2,.9-3.2.9s-2.2-.3-3.2-.9c-.9-.6-1.6-1.4-2.2-2.4-.5-1.1-.8-2.3-.8-3.7v-.7c0-1.4.2-2.7.8-3.7s1.2-1.9,2.2-2.5c.9-.6,2-.9,3.2-.9s2.2.3,3.2.9,1.6,1.4,2.2,2.5.8,2.3.8,3.7v.6h0ZM519.2,121.4c0-1.5-.3-2.6-.8-3.4s-1.3-1.2-2.3-1.2-1.8.4-2.3,1.2c-.5.8-.8,1.9-.8,3.4v.7c0,1.5.3,2.6.8,3.4.5.8,1.3,1.2,2.3,1.2s1.8-.4,2.3-1.2.8-1.9.8-3.4v-.7h0Z"/>
        <path class="cls-11" d="M537,128.9h-3l-5.7-9.4v9.4h-3v-14.3h3l5.8,9.4v-9.4h2.9v14.3Z"/>
        <g class="cls-23">
          <path class="cls-12" d="M490.6,115h3v9.9c0,.9-.2,1.7-.6,2.4-.4.7-1,1.2-1.7,1.6-.7.4-1.6.6-2.5.6-1.5,0-2.7-.4-3.5-1.1-.9-.8-1.3-1.9-1.3-3.3h3c0,.7.1,1.2.4,1.6s.8.5,1.4.5,1-.2,1.4-.6c.3-.4.5-.9.5-1.7v-9.9h0Z"/>
          <path class="cls-12" d="M504.5,125.5c0-.6-.2-1-.6-1.3-.4-.3-1.1-.6-2.1-.9s-1.8-.7-2.4-1c-1.6-.9-2.4-2.1-2.4-3.6s.2-1.5.6-2.1c.4-.6,1.1-1.1,1.9-1.4s1.7-.5,2.8-.5,1.9.2,2.7.6c.8.4,1.4.9,1.9,1.6.4.7.7,1.4.7,2.3h-3c0-.7-.2-1.2-.6-1.5s-1-.6-1.7-.6-1.3.2-1.7.5c-.4.3-.6.7-.6,1.2s.2.9.7,1.2,1.2.6,2.1.9c1.7.5,2.9,1.1,3.7,1.9s1.1,1.7,1.1,2.8-.5,2.2-1.4,2.9c-.9.7-2.2,1.1-3.8,1.1s-2.1-.2-3-.6-1.6-.9-2.1-1.7c-.5-.7-.7-1.5-.7-2.4h3c0,1.6.9,2.4,2.8,2.4s1.2-.1,1.6-.4.6-.7.6-1.2h0Z"/>
          <path class="cls-12" d="M522.2,122.5c0,1.4-.2,2.6-.8,3.7-.5,1.1-1.2,1.9-2.1,2.5s-2,.9-3.2.9-2.2-.3-3.2-.9-1.6-1.4-2.2-2.4c-.5-1.1-.8-2.3-.8-3.7v-.7c0-1.4.2-2.7.8-3.7s1.2-1.9,2.2-2.5c.9-.6,2-.9,3.2-.9s2.2.3,3.2.9,1.6,1.4,2.2,2.5.8,2.3.8,3.7v.6h0ZM519.2,121.8c0-1.5-.3-2.6-.8-3.4s-1.3-1.2-2.3-1.2-1.8.4-2.3,1.2c-.5.8-.8,1.9-.8,3.4v.7c0,1.5.3,2.6.8,3.4.5.8,1.3,1.2,2.3,1.2s1.8-.4,2.3-1.2.8-1.9.8-3.4v-.7h0Z"/>
          <path class="cls-12" d="M537,129.3h-3l-5.7-9.4v9.4h-3v-14.3h3l5.8,9.4v-9.4h2.9v14.3Z"/>
        </g>
        <polygon class="cls-11" points="489.7 43.1 489.7 44.7 487.7 44.7 487.7 43.1 485.2 40.7 485.2 43.6 488.7 47.1 492.1 43.6 492.1 40.7 489.7 43.1"/>
        <polygon class="cls-11" points="489.7 44.7 489.7 43.1 488.7 44.2 487.7 43.1 487.7 44.7 489.7 44.7"/>
        <polygon class="cls-7" points="387.4 18.5 387.4 20.5 487.7 20.5 487.7 43.1 488.7 44.2 489.7 43.1 489.7 18.5 387.4 18.5"/>
        <path class="cls-2" d="M178.9,70.6c-.4,3.8-1.8,6.8-4.2,8.9s-5.7,3.2-9.7,3.2-5.3-.7-7.5-2c-2.2-1.3-3.8-3.2-5-5.7-1.2-2.5-1.8-5.3-1.8-8.6v-3.3c0-3.3.6-6.3,1.8-8.9,1.2-2.6,2.9-4.5,5.1-5.9,2.2-1.4,4.8-2.1,7.7-2.1s7.1,1.1,9.5,3.2,3.8,5.1,4.2,9h-6.1c-.3-2.6-1-4.4-2.2-5.5-1.2-1.1-2.9-1.7-5.3-1.7s-4.8,1-6.2,2.9-2.2,4.8-2.2,8.6v3.2c0,3.8.7,6.8,2.1,8.8,1.4,2,3.4,3,6,3s4.2-.5,5.5-1.6c1.2-1.1,2-2.9,2.3-5.4h6.2Z"/>
        <path class="cls-13" d="M185.3,68.7c0-2.6.5-4.9,1.5-7s2.5-3.7,4.3-4.8c1.9-1.1,4-1.7,6.4-1.7,3.6,0,6.5,1.2,8.7,3.4,2.2,2.3,3.4,5.3,3.6,9.1v1.4c0,2.6-.5,4.9-1.5,7s-2.4,3.6-4.3,4.8c-1.9,1.1-4,1.7-6.5,1.7-3.7,0-6.7-1.2-8.9-3.7-2.2-2.5-3.4-5.8-3.4-9.9v-.3h0ZM191.2,69.2c0,2.7.6,4.8,1.7,6.4s2.7,2.3,4.7,2.3,3.6-.8,4.7-2.3c1.1-1.6,1.7-3.8,1.7-6.9s-.6-4.8-1.7-6.3c-1.1-1.6-2.7-2.3-4.7-2.3s-3.5.8-4.6,2.3c-1.1,1.5-1.7,3.8-1.7,6.9h0Z"/>
        <path class="cls-15" d="M222.9,55.8l.2,3c1.9-2.4,4.5-3.5,7.7-3.5,5.5,0,8.3,3.2,8.4,9.4v17.5h-5.9v-17.1c0-1.7-.4-2.9-1.1-3.7-.7-.8-1.9-1.2-3.6-1.2-2.4,0-4.2,1.1-5.4,3.2v18.8h-5.9v-26.4h5.6Z"/>
        <path class="cls-18" d="M257,74.7l5.6-18.9h6.1l-9.2,26.4h-5.1l-9.2-26.4h6.1l5.7,18.9h0Z"/>
        <path class="cls-9" d="M286.5,82.7c-3.8,0-6.8-1.2-9.1-3.6-2.3-2.4-3.5-5.5-3.5-9.5v-.7c0-2.6.5-5,1.5-7.1s2.4-3.7,4.3-4.8,3.9-1.7,6.1-1.7c3.6,0,6.4,1.2,8.3,3.4,2,2.3,2.9,5.5,2.9,9.7v2.4h-17.3c.2,2.2.9,3.9,2.2,5.2s2.9,1.9,4.8,1.9,4.9-1.1,6.6-3.3l3.2,3.1c-1.1,1.6-2.5,2.8-4.2,3.7-1.8.9-3.8,1.3-5.9,1.3h0ZM285.8,60c-1.6,0-2.9.6-3.9,1.7s-1.6,2.7-1.9,4.8h11.3v-.4c-.1-2-.7-3.5-1.6-4.5-.9-1-2.2-1.5-3.9-1.5h0Z"/>
        <path class="cls-5" d="M318,61.2c-.8-.1-1.6-.2-2.4-.2-2.7,0-4.5,1-5.5,3.1v18.1h-5.9v-26.4h5.7v3c1.6-2.3,3.6-3.4,6.1-3.4s1.5.1,2.1.3v5.6s0,0,0,0Z"/>
        <path class="cls-14" d="M333,49.3v6.4h4.7v4.4h-4.7v14.8c0,1,.2,1.7.6,2.2.4.4,1.1.7,2.1.7s1.4,0,2.1-.2v4.6c-1.4.4-2.6.6-3.9.6-4.6,0-6.8-2.5-6.8-7.5v-15h-4.4v-4.4h4.4v-6.4h5.9Z"/>
        <path class="cls-17" d="M356.3,82.7c-3.8,0-6.8-1.2-9.1-3.6-2.3-2.4-3.5-5.5-3.5-9.5v-.7c0-2.6.5-5,1.5-7.1s2.4-3.7,4.3-4.8,3.9-1.7,6.1-1.7c3.6,0,6.4,1.2,8.3,3.4,2,2.3,2.9,5.5,2.9,9.7v2.4h-17.3c.2,2.2.9,3.9,2.2,5.2s2.9,1.9,4.8,1.9,4.9-1.1,6.6-3.3l3.2,3.1c-1.1,1.6-2.5,2.8-4.2,3.7-1.8.9-3.8,1.3-5.9,1.3h0ZM355.6,60c-1.6,0-2.9.6-3.9,1.7s-1.6,2.7-1.9,4.8h11.3v-.4c-.1-2-.7-3.5-1.6-4.5-.9-1-2.2-1.5-3.9-1.5h0Z"/>
        <path class="cls-16" d="M387.8,61.2c-.8-.1-1.6-.2-2.4-.2-2.7,0-4.5,1-5.5,3.1v18.1h-5.9v-26.4h5.7v3c1.6-2.3,3.6-3.4,6.1-3.4s1.5.1,2.1.3v5.6s0,0,0,0Z"/>
      </g>
    </g>
  </g>
</svg>