<?xml version="1.0" encoding="UTF-8"?><svg id="Layer_2" xmlns="http://www.w3.org/2000/svg" viewBox="0 0 1817.78 483.54"><defs><style>.cls-1,.cls-2{fill:#004a87;}.cls-3{fill:#800d16;}.cls-4{fill:#d5c7c1;opacity:.5;}.cls-2{stroke:#fff;stroke-width:.5px;}.cls-2,.cls-5{stroke-miterlimit:10;}.cls-6{fill:#3e6e80;}.cls-7{fill:#802001;}.cls-8{fill:#fff;}.cls-9{fill:#003159;}.cls-10{fill:#6b727b;}.cls-11{fill:#206680;}.cls-12{fill:#b97af4;}.cls-13{fill:#f49320;}.cls-14{fill:#8f4139;}.cls-15{fill:#93ccf5;}.cls-16{fill:#001526;}.cls-17{fill:#b4996a;}.cls-18{fill:#7bc2f5;}.cls-19{fill:#a02932;}.cls-20{fill:#9b967a;}.cls-21{fill:#4d4d4d;}.cls-22{fill:#f42020;}.cls-23{fill:#bfb997;}.cls-24{fill:#687ba0;}.cls-25{fill:#82c2d9;}.cls-26{fill:#7aa7f4;}.cls-27{fill:#836229;}.cls-28{fill:#ffde75;}.cls-29{fill:#eef2e0;}.cls-30{fill:#a67c52;}.cls-31{fill:#a7d4f5;}.cls-32{fill:#206df4;}.cls-33{fill:#fcffff;}.cls-34{fill:#603813;}.cls-35{fill:#cfcfcf;}.cls-36{fill:#5a5f72;}.cls-37{fill:#5b7954;}.cls-38{fill:#333;}.cls-39{fill:#cc6733;}.cls-40{fill:#77823c;}.cls-41{fill:#9b9366;}.cls-42{fill:#d5d9c9;}.cls-43{fill:#48cf68;}.cls-44{fill:#c69c6d;}.cls-45{fill:#60696e;}.cls-46{fill:#e6e6e6;}.cls-47{fill:#e59f6e;}.cls-48{fill:gray;}.cls-49{fill:#e6c075;}.cls-50{fill:#f47a7a;}.cls-51{fill:#683b11;}.cls-52{fill:#d6c4b8;}.cls-5{fill:none;stroke:#666;stroke-width:.07px;}.cls-53{fill:#8e20f4;}.cls-54{fill:#fcfcfa;}.cls-55{fill:#464a59;}.cls-56{fill:#ff931e;}.cls-57{fill:#ddd4b3;}.cls-58{fill:#bf313c;}.cls-59{fill:#f4bc7a;}.cls-60{fill:#62aec9;}.cls-61{fill:#62b7f5;}.cls-62{fill:#a68a6a;}.cls-63{fill:#ff1d25;}.cls-64{fill:#a6b3ba;}.cls-65{fill:#c3955c;}.cls-66{fill:#999;}.cls-67{fill:#cd5933;}.cls-68{fill:#ccc;}.cls-69{fill:#ededef;}.cls-70{fill:#b3b3b3;}.cls-71{fill:#40060b;}.cls-72{fill:#b8dbf5;}.cls-73{fill:#00cf31;}.cls-74{fill:#c4e1f5;}.cls-75{fill:#c3a988;}.cls-76{fill:#1a1a1a;}.cls-77{fill:#bfb79b;}.cls-78{fill:#cb5b0f;}.cls-79{fill:#754c24;}.cls-80{fill:#4d2907;}.cls-81{fill:#fbb03b;}.cls-82{fill:#9fa4af;}.cls-83{fill:#809778;}.cls-84{fill:#231f20;}.cls-85{fill:#666;}.cls-86{fill:#f2f2f2;}.cls-87{fill:#404a34;}.cls-88{fill:#f8f6e4;}</style></defs><g id="Layer_1-2"><g><rect class="cls-31" width="1817.78" height="448.7"/><path class="cls-28" d="m1241.57,376.7h-579.11c0-159.92,129.64-289.55,289.55-289.55s289.55,129.64,289.55,289.55Z"/><g><path class="cls-15" d="m987.16,253.06v-51.39l-27.17,6.77v-2.4l-40.27-16.9v29.33l-6.66,1.66v17.29l-8.23-1.74v80.96h-6.45v-63.67l-19.4-17.05v-27.13h-4.06v-10.93l-9.23-11.8v-11.58h-8.54l-.51-21.09-.51,21.09h-8.54v11.58l-9.23,11.8v10.93h-4.06v52.6l-13.52,7.37v-72.86h-9.34v-9.57l-6.39,2.14v-10.81h-3.18v-5.14h-2.98c0-8.37-6.78-15.15-15.15-15.15s-15.15,6.78-15.15,15.15h-3.42v5.14h-3.18v10.92l-6.39-2.25v9.57h-8.91v120.74h-8.93v-66.97l-52.34,28.54v23.9h-9.47v-157.17h-8.23v-10.93h-9.12v-2.71l-6.39-5.03v-10.51h-3.18v-5.14h-16.51l-1.85-53.13-1.81,52.23-1.09.9h-15.44v5.14h-3.18v10.25l-6.39,5.28v2.71h-9.12v10.93h-8.23v171.7h-9.47v-52.97h-5.11v-13.35h-9.77l-29.43-25.88v25.88h-6.75v13.35h-5.11v33.81h-10.05v-18.8h-19.32v-43h-8.23v-15.55h-8.15v-13.13h-5.18l-23.72-17.86-23.72,17.86h-5.18v13.13h-8.15v15.55h-8.23v197.6h595.62v-178.47l-8.23-1.74Z"/><path class="cls-15" d="m974.83,278.92v-44.02s23.27,5.8,23.27,5.8v-2.05s34.49-14.48,34.49-14.48v25.12s5.7,1.42,5.7,1.42v14.81s7.05-1.49,7.05-1.49v69.34s5.52,0,5.52,0v-54.53s16.61-14.61,16.61-14.61v-23.24h3.48s0-9.36,0-9.36l7.91-10.11v-9.92h7.32s.44-18.06.44-18.06l.44,18.06h7.32v9.92s7.91,10.11,7.91,10.11v9.36s3.48,0,3.48,0v45.05s11.58,6.32,11.58,6.32v-62.4h8s0-8.2,0-8.2l5.48,1.83v-9.26h2.72s0-4.4,0-4.4h2.56c0-7.17,5.81-12.97,12.97-12.97s12.97,5.81,12.97,12.97h2.93v4.4s2.72,0,2.72,0v9.35s5.48-1.93,5.48-1.93v8.2s7.63,0,7.63,0v103.41s7.65,0,7.65,0v-57.36s44.83,24.44,44.83,24.44v20.47s8.11,0,8.11,0v-134.61h7.05s0-9.36,0-9.36h7.81s0-2.32,0-2.32l5.48-4.31v-9h2.72s0-4.4,0-4.4h14.14s1.58-45.51,1.58-45.51l1.55,44.73.94.77h13.23v4.4s2.72,0,2.72,0v8.78s5.48,4.53,5.48,4.53v2.32s7.81,0,7.81,0v9.36s7.05,0,7.05,0v147.06s8.11,0,8.11,0v-45.37h4.37s0-11.43,0-11.43h8.37s25.21-22.17,25.21-22.17v22.17s5.78,0,5.78,0v11.43s4.37,0,4.37,0v28.95s8.61,0,8.61,0v-16.1h16.55s0-36.83,0-36.83h7.05s0-13.32,0-13.32h6.98s0-11.25,0-11.25h4.44s20.31-15.29,20.31-15.29l20.31,15.29h4.44v11.25s6.98,0,6.98,0v13.32s7.05,0,7.05,0v169.24h-30.65s-46.92,0-46.92,0h-3.53s-13.02,0-13.02,0h-8.61s-41.83,0-41.83,0h-6.27s-8.11,0-8.11,0h-56.83s-20.74,0-20.74,0h-42.72s-153.34,0-153.34,0h-51.33s-26.24,0-26.24,0v-152.86s7.05-1.49,7.05-1.49Z"/></g><g><g><polygon class="cls-36" points="953.41 408.92 546 408.92 749.71 125.46 953.41 408.92"/><polygon class="cls-55" points="953.41 408.92 749.71 408.92 749.71 125.46 953.41 408.92"/><polygon class="cls-86" points="807.63 206.07 749.71 125.46 691.78 206.07 728.31 186.88 749.71 206.07 774.1 186.07 807.63 206.07"/></g><g><polygon class="cls-36" points="1372.87 408.92 965.46 408.92 1169.17 125.46 1372.87 408.92"/><polygon class="cls-55" points="1372.87 408.92 1169.17 408.92 1169.17 125.46 1372.87 408.92"/><polygon class="cls-86" points="1227.09 206.07 1169.17 125.46 1111.24 206.07 1147.77 186.88 1169.17 206.07 1193.56 186.07 1227.09 206.07"/></g><g><polygon class="cls-36" points="1194.03 408.92 691.99 408.92 943.01 59.62 1194.03 408.92"/><polygon class="cls-55" points="1194.03 408.92 943.01 408.92 943.01 59.62 1194.03 408.92"/><polygon class="cls-86" points="1014.39 158.95 943.01 59.62 871.63 158.95 916.64 135.31 943.01 158.95 973.07 134.31 1014.39 158.95"/></g></g><g><path class="cls-33" d="m782.34,66.7c.8-1.08,2.12-1.89,3.7-2.25.99-3.49,5.04-6.1,9.89-6.1.47,0,.94.03,1.4.07.41-7.93,8.92-14.26,19.36-14.26,7.23,0,13.54,3.04,16.87,7.55,4.97.63,9.09,3.2,11,6.66.26-.02.52-.02.79-.02,5.59,0,10.12,3.48,10.12,7.76,0,.2,0,.39-.03.58h-73.09Z"/><path class="cls-74" d="m782.34,66.7c.8.2,2.12.35,3.7.41.99.64,5.04,1.12,9.89,1.12.47,0,.94,0,1.4-.01.41,1.45,8.92,2.61,19.36,2.61,7.23,0,13.54-.56,16.87-1.38,4.97-.12,9.09-.59,11-1.22.26,0,.52,0,.79,0,5.59,0,10.12-.64,10.12-1.42,0-.04,0-.07-.03-.11h-73.09Z"/></g><g><path class="cls-33" d="m334.24,85.94c.8-1.08,2.12-1.89,3.7-2.25.99-3.49,5.04-6.1,9.89-6.1.47,0,.94.03,1.4.07.41-7.93,8.92-14.26,19.36-14.26,7.23,0,13.54,3.04,16.87,7.55,4.97.63,9.09,3.2,11,6.66.26-.02.52-.02.79-.02,5.59,0,10.12,3.48,10.12,7.76,0,.2,0,.39-.03.58h-73.09Z"/><path class="cls-74" d="m334.24,85.94c.8.2,2.12.35,3.7.41.99.64,5.04,1.12,9.89,1.12.47,0,.94,0,1.4-.01.41,1.45,8.92,2.61,19.36,2.61,7.23,0,13.54-.56,16.87-1.38,4.97-.12,9.09-.59,11-1.22.26,0,.52,0,.79,0,5.59,0,10.12-.64,10.12-1.42,0-.04,0-.07-.03-.11h-73.09Z"/></g><g><path class="cls-33" d="m1100.56,90.03c-.82-1.1-2.17-1.94-3.78-2.3-1.02-3.57-5.16-6.25-10.13-6.25-.49,0-.96.03-1.43.08-.42-8.12-9.13-14.6-19.82-14.6-7.41,0-13.87,3.11-17.27,7.73-5.09.65-9.31,3.28-11.27,6.82-.27-.02-.54-.02-.81-.02-5.73,0-10.37,3.56-10.37,7.95,0,.2,0,.4.03.6h74.85Z"/><path class="cls-74" d="m1100.56,89.97c-.82.17-2.17.3-3.78.35-1.02.55-5.16.96-10.13.96-.49,0-.96,0-1.43-.01-.42,1.25-9.13,2.25-19.82,2.25-7.41,0-13.87-.48-17.27-1.19-5.09-.1-9.31-.5-11.27-1.05-.27,0-.54,0-.81,0-5.73,0-10.37-.55-10.37-1.22,0-.03,0-.06.03-.09h74.85Z"/></g><g><path class="cls-33" d="m1342.4,163.46c-.82-1.1-2.17-1.94-3.78-2.3-1.02-3.57-5.16-6.25-10.13-6.25-.49,0-.96.03-1.43.08-.42-8.12-9.13-14.6-19.82-14.6-7.41,0-13.87,3.11-17.27,7.73-5.09.65-9.31,3.28-11.27,6.82-.27-.02-.54-.02-.81-.02-5.73,0-10.37,3.56-10.37,7.95,0,.2,0,.4.03.6h74.85Z"/><path class="cls-74" d="m1342.4,163.4c-.82.17-2.17.3-3.78.35-1.02.55-5.16.96-10.13.96-.49,0-.96,0-1.43-.01-.42,1.25-9.13,2.25-19.82,2.25-7.41,0-13.87-.48-17.27-1.19-5.09-.1-9.31-.5-11.27-1.05-.27,0-.54,0-.81,0-5.73,0-10.37-.55-10.37-1.22,0-.03,0-.06.03-.09h74.85Z"/></g><g><path class="cls-74" d="m1254.41,323.33h8.93s0-49.93,0-49.93h4.81s0-12.58,0-12.58h9.21s27.74-24.4,27.74-24.4v24.4s6.36,0,6.36,0v12.58s4.81,0,4.81,0v31.86s9.47,0,9.47,0v-17.72h18.21s0-40.53,0-40.53h7.76s0-14.66,0-14.66h7.69s0-12.38,0-12.38h4.88s22.35-16.83,22.35-16.83l22.35,16.83h4.88v12.38s7.69,0,7.69,0v14.66s7.76,0,7.76,0v186.25h-33.73s-51.63,0-51.63,0h-3.88s-14.33,0-14.33,0h-9.47s-46.04,0-46.04,0h-6.9s-8.93,0-8.93,0h-62.54s-22.83,0-22.83,0h-47.02s-168.75,0-168.75,0h-56.49s-28.88,0-28.88,0v-168.22s7.76-1.64,7.76-1.64v-48.44s25.61,6.38,25.61,6.38v-2.26s37.95-15.93,37.95-15.93v27.64s6.28,1.56,6.28,1.56v16.3s7.76-1.64,7.76-1.64v76.31s6.08,0,6.08,0v-60.01s18.28-16.07,18.28-16.07v-25.57h3.83s0-10.3,0-10.3l8.7-11.12v-10.91h8.05s.49-19.87.49-19.87l.49,19.87h8.05v10.91s8.7,11.12,8.7,11.12v10.3s3.83,0,3.83,0v49.58s12.75,6.95,12.75,6.95v-68.67h8.81s0-9.02,0-9.02l6.03,2.02v-10.19h3s0-4.84,0-4.84h2.81c0-7.89,6.39-14.28,14.28-14.28,7.89,0,14.28,6.39,14.28,14.28h3.23v4.84s3,0,3,0v10.29s6.03-2.12,6.03-2.12v9.02s8.39,0,8.39,0v113.8s8.41,0,8.41,0v-63.12s49.33,26.9,49.33,26.9v22.52s8.93,0,8.93,0"/><path class="cls-74" d="m887.3,287.79v-41.49l-21.94,5.46v-1.94l-32.51-13.64v23.68l-5.38,1.34v13.96l-6.65-1.4v65.36h-5.21v-51.4l-15.66-13.77v-21.9h-3.28v-8.82l-7.45-9.53v-9.35h-6.9l-.42-17.02-.42,17.02h-6.9v9.35l-7.45,9.53v8.82h-3.28v42.46l-10.92,5.95v-58.82h-7.54v-7.73l-5.16,1.73v-8.72h-2.57v-4.15h-2.41c0-6.75-5.48-12.23-12.23-12.23s-12.23,5.48-12.23,12.23h-2.76v4.15h-2.57v8.81l-5.16-1.82v7.73h-7.19v97.47h-7.21v-54.06l-42.25,23.04v19.29h-7.65v-126.88h-6.65v-8.82h-7.37v-2.19l-5.16-4.06v-8.48h-2.57v-4.15h-13.32l-1.49-42.89-1.46,42.16-.88.73h-12.47v4.15h-2.57v8.28l-5.16,4.27v2.19h-7.37v8.82h-6.65v138.61h-7.65v-42.77h-4.12v-10.78h-7.89l-23.76-20.89v20.89h-5.45v10.78h-4.12v27.29h-8.11v-15.17h-15.6v-34.71h-6.65v-12.55h-6.58v-10.6h-4.18l-19.15-14.42-19.15,14.42h-4.18v10.6h-6.58v12.55h-6.65v159.52h480.83v-144.08l-6.65-1.4Z"/></g><g><path class="cls-61" d="m825.4,300.93v-37.74s19.95,4.97,19.95,4.97v-1.76s29.57-12.41,29.57-12.41v21.54s4.89,1.22,4.89,1.22v12.7s6.05-1.28,6.05-1.28v59.45s4.74,0,4.74,0v-46.75s14.24-12.52,14.24-12.52v-19.92h2.98s0-8.02,0-8.02l6.78-8.66v-8.5h6.27s.38-15.48.38-15.48l.38,15.48h6.27v8.5s6.78,8.66,6.78,8.66v8.02s2.98,0,2.98,0v38.62s9.93,5.41,9.93,5.41v-53.5h6.86s0-7.03,0-7.03l4.7,1.57v-7.94h2.33s0-3.77,0-3.77h2.19c0-6.14,4.98-11.12,11.12-11.12,6.14,0,11.12,4.98,11.12,11.12h2.51v3.77s2.33,0,2.33,0v8.02s4.7-1.65,4.7-1.65v7.03s6.54,0,6.54,0v88.66s6.56,0,6.56,0v-49.18s38.43,20.96,38.43,20.96v17.55s6.96,0,6.96,0v-115.42h6.05s0-8.02,0-8.02h6.7s0-1.99,0-1.99l4.7-3.69v-7.72h2.33s0-3.77,0-3.77h12.12s1.36-39.02,1.36-39.02l1.33,38.35.8.66h11.34v3.77s2.33,0,2.33,0v7.53s4.7,3.88,4.7,3.88v1.99s6.7,0,6.7,0v8.02s6.05,0,6.05,0v126.09s6.96,0,6.96,0v-38.9h3.75s0-9.8,0-9.8h7.17s21.62-19.01,21.62-19.01v19.01s4.95,0,4.95,0v9.8s3.75,0,3.75,0v24.83s7.38,0,7.38,0v-13.8h14.19s0-31.57,0-31.57h6.05s0-11.42,0-11.42h5.99s0-9.64,0-9.64h3.8s17.42-13.11,17.42-13.11l17.42,13.11h3.8v9.64s5.99,0,5.99,0v11.42s6.05,0,6.05,0v145.11h-26.28s-40.23,0-40.23,0h-3.02s-11.17,0-11.17,0h-7.38s-35.87,0-35.87,0h-5.37s-6.96,0-6.96,0h-48.72s-17.78,0-17.78,0h-36.63s-131.47,0-131.47,0h-44.01s-22.5,0-22.5,0v-131.06s6.05-1.28,6.05-1.28Z"/><path class="cls-61" d="m834.45,319.92v-32.32l-17.09,4.26v-1.51l-25.33-10.63v18.45l-4.19,1.04v10.87l-5.18-1.09v50.92h-4.06v-40.04l-12.2-10.73v-17.06h-2.56v-6.87l-5.81-7.42v-7.28h-5.37l-.32-13.26-.32,13.26h-5.37v7.28l-5.81,7.42v6.87h-2.56v33.08l-8.5,4.64v-45.83h-5.88v-6.02l-4.02,1.35v-6.8h-2v-3.23h-1.88c0-5.26-4.27-9.53-9.53-9.53s-9.53,4.27-9.53,9.53h-2.15v3.23h-2v6.87l-4.02-1.41v6.02h-5.6v75.94s-5.61,0-5.61,0v-42.12l-32.92,17.95v15.03h-5.96s0-98.85,0-98.85h-5.18v-6.87h-5.74s0-1.7,0-1.7l-4.02-3.16v-6.61h-2v-3.23h-10.38l-1.16-33.42-1.14,32.85-.69.57h-9.71v3.23h-2v6.45l-4.02,3.32v1.7h-5.74v6.87h-5.18v107.99h-5.96v-33.32h-3.21v-8.4h-6.14l-18.51-16.28v16.28h-4.24v8.4h-3.21v21.26h-6.32v-11.82h-12.15v-27.04h-5.18v-9.78h-5.13v-8.26h-3.26l-14.92-11.23-14.92,11.23h-3.26v8.26h-5.13v9.78h-5.18v124.28h374.62v-112.25l-5.18-1.09Z"/></g><g><path class="cls-33" d="m739.89,163.8c-1.1-1.3-2.93-2.28-5.11-2.71-1.37-4.21-6.98-7.36-13.69-7.36-.66,0-1.3.03-1.93.09-.57-9.57-12.34-17.2-26.78-17.2-10.01,0-18.74,3.67-23.34,9.11-6.88.77-12.58,3.86-15.22,8.04-.36-.02-.72-.03-1.09-.03-7.74,0-14.01,4.19-14.01,9.37,0,.24.01.47.04.7h101.14Z"/><path class="cls-74" d="m739.89,164.86c-1.1.39-2.93.69-5.11.82-1.37,1.27-6.98,2.21-13.69,2.21-.66,0-1.3,0-1.93-.03-.57,2.88-12.34,5.18-26.78,5.18-10.01,0-18.74-1.1-23.34-2.74-6.88-.23-12.58-1.16-15.22-2.42-.36,0-.72,0-1.09,0-7.74,0-14.01-1.26-14.01-2.82,0-.07.01-.14.04-.21h101.14Z"/></g><g><path class="cls-33" d="m1386.38,101.55c1.1-1.94,2.93-3.41,5.11-4.05,1.37-6.29,6.98-11.01,13.69-11.01.66,0,1.3.05,1.93.13.57-14.3,12.34-25.73,26.78-25.73,10.01,0,18.74,5.49,23.34,13.62,6.88,1.14,12.58,5.78,15.22,12.02.36-.03.72-.04,1.09-.04,7.74,0,14.01,6.27,14.01,14.01,0,.35-.01.7-.04,1.05h-101.14Z"/><path class="cls-74" d="m1386.38,101.55c1.1.57,2.93.99,5.11,1.18,1.37,1.83,6.98,3.21,13.69,3.21.66,0,1.3-.01,1.93-.04.57,4.17,12.34,7.5,26.78,7.5,10.01,0,18.74-1.6,23.34-3.97,6.88-.33,12.58-1.68,15.22-3.5.36,0,.72.01,1.09.01,7.74,0,14.01-1.83,14.01-4.08,0-.1-.01-.21-.04-.31h-101.14Z"/></g><g><path class="cls-33" d="m1154.69,166.34c-1.1-1.94-2.93-3.41-5.11-4.05-1.37-6.29-6.98-11.01-13.69-11.01-.66,0-1.3.05-1.93.13-.57-14.3-12.34-25.73-26.78-25.73-10.01,0-18.74,5.49-23.34,13.62-6.88,1.14-12.58,5.78-15.22,12.02-.36-.03-.72-.04-1.09-.04-7.74,0-14.01,6.27-14.01,14.01,0,.35.01.7.04,1.05h101.14Z"/><path class="cls-74" d="m1154.69,166.23c-1.1.3-2.93.53-5.11.62-1.37.97-6.98,1.69-13.69,1.69-.66,0-1.3,0-1.93-.02-.57,2.2-12.34,3.96-26.78,3.96-10.01,0-18.74-.84-23.34-2.09-6.88-.18-12.58-.89-15.22-1.85-.36,0-.72,0-1.09,0-7.74,0-14.01-.96-14.01-2.15,0-.05.01-.11.04-.16h101.14Z"/></g><g><path class="cls-33" d="m900.48,166.34c-1.1-1.94-2.93-3.41-5.11-4.05-1.37-6.29-6.98-11.01-13.69-11.01-.66,0-1.3.05-1.93.13-.57-14.3-12.34-25.73-26.78-25.73-10.01,0-18.74,5.49-23.34,13.62-6.88,1.14-12.58,5.78-15.22,12.02-.36-.03-.72-.04-1.09-.04-7.74,0-14.01,6.27-14.01,14.01,0,.35.01.7.04,1.05h101.14Z"/><path class="cls-74" d="m900.48,166.23c-1.1.3-2.93.53-5.11.62-1.37.97-6.98,1.69-13.69,1.69-.66,0-1.3,0-1.93-.02-.57,2.2-12.34,3.96-26.78,3.96-10.01,0-18.74-.84-23.34-2.09-6.88-.18-12.58-.89-15.22-1.85-.36,0-.72,0-1.09,0-7.74,0-14.01-.96-14.01-2.15,0-.05.01-.11.04-.16h101.14Z"/></g><g><path class="cls-33" d="m1301.4,61.08c-.79-1.3-2.11-2.28-3.68-2.71-.99-4.21-5.02-7.36-9.84-7.36-.47,0-.94.03-1.39.09-.41-9.57-8.87-17.2-19.25-17.2-7.19,0-13.47,3.67-16.77,9.11-4.94.77-9.04,3.86-10.94,8.04-.26-.02-.52-.03-.78-.03-5.56,0-10.07,4.19-10.07,9.37,0,.24,0,.47.03.7h72.69Z"/><path class="cls-74" d="m1301.4,61.84c-.79.35-2.11.61-3.68.73-.99,1.13-5.02,1.98-9.84,1.98-.47,0-.94,0-1.39-.02-.41,2.57-8.87,4.62-19.25,4.62-7.19,0-13.47-.99-16.77-2.45-4.94-.21-9.04-1.04-10.94-2.16-.26,0-.52,0-.78,0-5.56,0-10.07-1.13-10.07-2.52,0-.06,0-.13.03-.19h72.69Z"/></g><rect class="cls-64" x="461.75" y="427.59" width="933.88" height="11.83"/><rect class="cls-45" y="436.87" width="1817.78" height="11.83"/><rect class="cls-35" y="428.28" width="1817.78" height="11.83"/><path class="cls-87" d="m1480.17,390.6c-.84,0-1.67.03-2.49.1-6.05-14.28-19.09-24.88-34.83-27.5-10.53-18.6-30.5-31.16-53.41-31.16-33.05,0-59.99,26.14-61.28,58.87-1.45-.2-2.92-.31-4.42-.31-4.28,0-8.37.84-12.1,2.36-3.73-1.52-7.82-2.36-12.1-2.36-.84,0-1.67.03-2.49.1-6.05-14.28-19.09-24.88-34.83-27.5-10.53-18.6-30.5-31.16-53.41-31.16-33.05,0-59.99,26.14-61.28,58.87-1.45-.2-2.92-.31-4.42-.31-6.14,0-11.88,1.73-16.75,4.73-4.88-3-10.62-4.73-16.76-4.73-.84,0-1.67.03-2.49.1-6.05-14.28-19.09-24.88-34.83-27.5-10.53-18.6-30.5-31.16-53.41-31.16-33.05,0-59.99,26.14-61.28,58.87-1.45-.2-2.92-.31-4.42-.31-5.3,0-10.29,1.29-14.69,3.56-4.4-2.27-9.4-3.56-14.7-3.56-.84,0-1.67.03-2.49.1-6.05-14.28-19.09-24.88-34.83-27.5-10.53-18.6-30.5-31.16-53.41-31.16-33.05,0-59.99,26.14-61.28,58.87-1.45-.2-2.92-.31-4.42-.31-7.27,0-13.97,2.42-19.34,6.5-5.38-4.08-12.08-6.5-19.35-6.5-.84,0-1.67.03-2.49.1-6.05-14.28-19.09-24.88-34.83-27.5-10.53-18.6-30.5-31.16-53.41-31.16-33.05,0-59.99,26.14-61.28,58.87-1.45-.2-2.92-.31-4.42-.31-.93,0-1.86.04-2.77.12-.91-.08-1.83-.12-2.76-.12-.84,0-1.67.03-2.49.1-6.05-14.28-19.09-24.88-34.83-27.5-10.53-18.6-30.5-31.16-53.41-31.16-33.05,0-59.99,26.14-61.28,58.87-1.45-.2-2.92-.31-4.42-.31-15.35,0-28.17,10.79-31.32,25.19-5,1.46-9.18,4.83-11.7,9.27h1144.96c.06-.8.09-1.6.09-2.41,0-17.7-14.35-32.05-32.05-32.05Z"/><path class="cls-37" d="m1410.49,422.53c-1.7-7.8-8.65-13.64-16.96-13.64-.81,0-1.61.06-2.4.17-.7-17.72-15.29-31.88-33.18-31.88-12.4,0-23.22,6.8-28.92,16.87-8.52,1.42-15.59,7.16-18.86,14.89-.45-.03-.9-.05-1.35-.05-.5,0-1,.02-1.5.06-.5-.04-1-.06-1.5-.06-.81,0-1.61.06-2.4.17-.7-17.72-15.29-31.88-33.18-31.88-12.4,0-23.22,6.8-28.92,16.87-8.52,1.42-15.59,7.16-18.86,14.89-.45-.03-.9-.05-1.35-.05-3.94,0-7.56,1.31-10.48,3.52-2.91-2.21-6.54-3.52-10.47-3.52-.81,0-1.61.06-2.4.17-.7-17.72-15.29-31.88-33.18-31.88-12.4,0-23.22,6.8-28.92,16.87-8.52,1.42-15.59,7.16-18.86,14.89-.45-.03-.9-.05-1.35-.05-2.87,0-5.57.7-7.96,1.93-2.38-1.23-5.09-1.93-7.96-1.93-.81,0-1.61.06-2.4.17-.7-17.72-15.29-31.88-33.18-31.88-9.26,0-17.63,3.79-23.65,9.9-6.02-6.11-14.39-9.9-23.65-9.9-11.62,0-21.84,5.97-27.78,15-5.93-9.04-16.16-15-27.78-15-5.83,0-11.31,1.5-16.08,4.15-4.76-2.64-10.25-4.15-16.08-4.15-12.4,0-23.22,6.8-28.92,16.87-2.37.39-4.62,1.12-6.71,2.13-5.32-11.23-16.77-19.01-30.03-19.01-7.51,0-14.44,2.5-20,6.7-5.56-4.21-12.49-6.7-20-6.7-12.4,0-23.22,6.8-28.92,16.87-8.52,1.42-15.59,7.16-18.86,14.89-.45-.03-.9-.05-1.35-.05-2.87,0-5.57.7-7.96,1.93-2.38-1.23-5.09-1.93-7.96-1.93-.81,0-1.61.06-2.4.17-.7-17.72-15.29-31.88-33.18-31.88-12.4,0-23.22,6.8-28.92,16.87-8.52,1.42-15.59,7.16-18.86,14.89-.45-.03-.9-.05-1.35-.05-3.33,0-6.43.94-9.08,2.56-2.64-1.62-5.75-2.56-9.07-2.56-.81,0-1.61.06-2.4.17-.7-17.72-15.29-31.88-33.18-31.88-12.4,0-23.22,6.8-28.92,16.87-8.52,1.42-15.59,7.16-18.86,14.89-.45-.03-.9-.05-1.35-.05-2.32,0-4.53.46-6.55,1.28-2.02-.82-4.23-1.28-6.55-1.28-.81,0-1.61.06-2.4.17-.7-17.72-15.29-31.88-33.18-31.88-12.4,0-23.22,6.8-28.92,16.87-8.52,1.42-15.59,7.16-18.86,14.89-.45-.03-.9-.05-1.35-.05-9.59,0-17.36,7.77-17.36,17.36,0,.44.02.87.05,1.3h961.31c-1.37-2.4-3.63-4.23-6.34-5.02Z"/><g><path class="cls-33" d="m559.59,129.11c-1.1-1.94-2.93-3.41-5.11-4.05-1.37-6.29-6.98-11.01-13.69-11.01-.66,0-1.3.05-1.93.13-.57-14.3-12.34-25.73-26.78-25.73-10.01,0-18.74,5.49-23.34,13.62-6.88,1.14-12.58,5.78-15.22,12.02-.36-.03-.72-.04-1.09-.04-7.74,0-14.01,6.27-14.01,14.01,0,.35.01.7.04,1.05h101.14Z"/><path class="cls-74" d="m559.59,129.11c-1.1.57-2.93.99-5.11,1.18-1.37,1.83-6.98,3.21-13.69,3.21-.66,0-1.3-.01-1.93-.04-.57,4.17-12.34,7.5-26.78,7.5-10.01,0-18.74-1.6-23.34-3.97-6.88-.33-12.58-1.68-15.22-3.5-.36,0-.72.01-1.09.01-7.74,0-14.01-1.83-14.01-4.08,0-.1.01-.21.04-.31h101.14Z"/></g><g><path class="cls-33" d="m713.05,75.67c-1.1-1.3-2.93-2.28-5.11-2.71-1.37-4.21-6.98-7.36-13.69-7.36-.66,0-1.3.03-1.93.09-.57-9.57-12.34-17.2-26.78-17.2-10.01,0-18.74,3.67-23.34,9.11-6.88.77-12.58,3.86-15.22,8.04-.36-.02-.72-.03-1.09-.03-7.74,0-14.01,4.19-14.01,9.37,0,.24.01.47.04.7h101.14Z"/><path class="cls-74" d="m713.05,76.73c-1.1.39-2.93.69-5.11.82-1.37,1.27-6.98,2.21-13.69,2.21-.66,0-1.3,0-1.93-.03-.57,2.88-12.34,5.18-26.78,5.18-10.01,0-18.74-1.1-23.34-2.74-6.88-.23-12.58-1.16-15.22-2.42-.36,0-.72,0-1.09,0-7.74,0-14.01-1.26-14.01-2.82,0-.07.01-.14.04-.21h101.14Z"/></g><g><path class="cls-37" d="m242.89,430.67c-.37-9.46-8.16-17.01-17.7-17.01-6.62,0-12.39,3.63-15.43,9-4.55.76-8.32,3.82-10.06,7.94-.24-.02,43.61,0,43.19.06Z"/><path class="cls-37" d="m521.1,430.67c.37-9.46,8.16-17.01,17.7-17.01,6.62,0,12.39,3.63,15.43,9,4.55.76,8.32,3.82,10.06,7.94.24-.02-43.61,0-43.19.06Z"/><path class="cls-37" d="m933.48,430.67c-.37-9.46-8.16-17.01-17.7-17.01-6.62,0-12.39,3.63-15.43,9-4.55.76-8.32,3.82-10.06,7.94-.24-.02,43.61,0,43.19.06Z"/><path class="cls-37" d="m1178.54,430.67c.37-9.46,8.16-17.01,17.7-17.01,6.62,0,12.39,3.63,15.43,9,4.55.76,8.32,3.82,10.06,7.94.24-.02-43.61,0-43.19.06Z"/><path class="cls-37" d="m1493.02,430.67c-.37-9.46-8.16-17.01-17.7-17.01-6.62,0-12.39,3.63-15.43,9-4.55.76-8.32,3.82-10.06,7.94-.24-.02,43.61,0,43.19.06Z"/><path class="cls-37" d="m1757.13,430.67c.37-9.46,8.16-17.01,17.7-17.01,6.62,0,12.39,3.63,15.43,9,4.55.76,8.32,3.82,10.06,7.94.24-.02-43.61,0-43.19.06Z"/><path class="cls-37" d="m1519.77,430.67c.37-9.46,8.16-17.01,17.7-17.01,6.62,0,12.39,3.63,15.43,9,4.55.76,8.32,3.82,10.06,7.94.24-.02-43.61,0-43.19.06Z"/></g><g><path class="cls-83" d="m1707.6,433.92c.37-9.46,8.16-17.01,17.7-17.01,6.62,0,12.39,3.63,15.43,9,4.55.76,8.32,3.82,10.06,7.94.24-.02-43.61,0-43.19.06Z"/><path class="cls-83" d="m1411.85,433.92c-.37-9.46-8.16-17.01-17.7-17.01-6.62,0-12.39,3.63-15.43,9-4.55.76-8.32,3.82-10.06,7.94-.24-.02,43.61,0,43.19.06Z"/><path class="cls-83" d="m1058.94,433.92c.37-9.46,8.16-17.01,17.7-17.01,6.62,0,12.39,3.63,15.43,9,4.55.76,8.32,3.82,10.06,7.94.24-.02-43.61,0-43.19.06Z"/><path class="cls-83" d="m771.96,433.92c-.37-9.46-8.16-17.01-17.7-17.01-6.62,0-12.39,3.63-15.43,9-4.55.76-8.32,3.82-10.06,7.94-.24-.02,43.61,0,43.19.06Z"/><path class="cls-83" d="m674.47,433.92c.37-9.46,8.16-17.01,17.7-17.01,6.62,0,12.39,3.63,15.43,9,4.55.76,8.32,3.82,10.06,7.94.24-.02-43.61,0-43.19.06Z"/><path class="cls-83" d="m355.81,433.92c.37-9.46,8.16-17.01,17.7-17.01,6.62,0,12.39,3.63,15.43,9,4.55.76,8.32,3.82,10.06,7.94.24-.02-43.61,0-43.19.06Z"/><path class="cls-83" d="m233.75,433.92c.37-9.46,8.16-17.01,17.7-17.01,6.62,0,12.39,3.63,15.43,9,4.55.76,8.32,3.82,10.06,7.94.24-.02-43.61,0-43.19.06Z"/><path class="cls-83" d="m530.62,433.92c-.37-9.46-8.16-17.01-17.7-17.01-6.62,0-12.39,3.63-15.43,9-4.55.76-8.32,3.82-10.06,7.94-.24-.02,43.61,0,43.19.06Z"/></g><g><path class="cls-40" d="m1569.44,435.76c.37-9.46,8.16-17.01,17.7-17.01,6.62,0,12.39,3.63,15.43,9,4.55.76,8.32,3.82,10.06,7.94.24-.02-43.61,0-43.19.06Z"/><path class="cls-40" d="m1255.01,435.76c-.37-9.46-8.16-17.01-17.7-17.01-6.62,0-12.39,3.63-15.43,9-4.55.76-8.32,3.82-10.06,7.94-.24-.02,43.61,0,43.19.06Z"/><path class="cls-40" d="m1312.58,431.58c.37-9.46,8.16-17.01,17.7-17.01,6.62,0,12.39,3.63,15.43,9,4.55.76,8.32,3.82,10.06,7.94.24-.02-43.61,0-43.19.06Z"/><path class="cls-40" d="m837.64,435.76c.37-9.46,8.16-17.01,17.7-17.01,6.62,0,12.39,3.63,15.43,9,4.55.76,8.32,3.82,10.06,7.94.24-.02-43.61,0-43.19.06Z"/><path class="cls-40" d="m614.36,435.76c-.37-9.46-8.16-17.01-17.7-17.01-6.62,0-12.39,3.63-15.43,9-4.55.76-8.32,3.82-10.06,7.94-.24-.02,43.61,0,43.19.06Z"/><path class="cls-40" d="m333.03,435.76c.37-9.46,8.16-17.01,17.7-17.01,6.62,0,12.39,3.63,15.43,9,4.55.76,8.32,3.82,10.06,7.94.24-.02-43.61,0-43.19.06Z"/><path class="cls-40" d="m68.92,435.76c-.37-9.46-8.16-17.01-17.7-17.01-6.62,0-12.39,3.63-15.43,9-4.55.76-8.32,3.82-10.06,7.94-.24-.02,43.61,0,43.19.06Z"/></g><rect class="cls-4" y="16.64" width="1817.78" height="422.78"/><g><g><g><polygon class="cls-67" points="1317.73 252.34 1335.2 252.34 1335.2 287.61 1326.47 299.28 1317.73 287.61 1317.73 252.34"/><rect class="cls-38" x="1317.39" y="250.92" width="17.81" height="4.98"/><rect class="cls-7" x="1314.2" y="249.3" width="24.2" height="4.98"/></g><g><rect class="cls-7" x="1325.4" y="278.43" width="9.8" height="3.97" transform="translate(2660.61 560.83) rotate(-180)"/><rect class="cls-7" x="1325.4" y="270.07" width="9.8" height="3.97" transform="translate(2660.61 544.11) rotate(-180)"/><rect class="cls-7" x="1330.3" y="274.25" width="4.9" height="3.97" transform="translate(2665.51 552.47) rotate(-180)"/><rect class="cls-7" x="1330.3" y="265.93" width="4.9" height="3.97" transform="translate(2665.51 535.83) rotate(-180)"/></g><g><rect class="cls-7" x="1317.73" y="256.97" width="9.8" height="3.97"/><rect class="cls-7" x="1317.73" y="265.32" width="9.8" height="3.97"/><rect class="cls-7" x="1317.73" y="261.14" width="4.9" height="3.97"/><rect class="cls-7" x="1317.73" y="269.47" width="4.9" height="3.97"/></g><g><polygon class="cls-38" points="1290.52 250.54 1245.29 295.02 1245.29 304.89 1290.52 260.41 1335.76 304.89 1335.76 295.02 1290.52 250.54"/><polygon class="cls-81" points="1245.29 304.89 1245.29 429.37 1335.76 429.37 1335.76 304.89 1290.52 260.41 1245.29 304.89"/></g><path class="cls-51" d="m1354.49,301.7l-63.97-63.97-63.97,63.97h15.53s48.44-48.44,48.44-48.44l48.44,48.44h15.53Z"/><g><rect class="cls-38" x="1273.18" y="292.51" width="34.69" height="34.69"/><rect class="cls-72" x="1275.41" y="295.49" width="13.22" height="13.22"/><rect class="cls-72" x="1292.61" y="295.49" width="13.22" height="13.22"/><rect class="cls-72" x="1275.41" y="311.48" width="13.22" height="13.22"/><rect class="cls-72" x="1292.61" y="311.48" width="13.22" height="13.22"/></g><rect class="cls-39" x="1273.18" y="373.87" width="34.69" height="55.49"/><rect class="cls-81" x="1296.3" y="401.62" width="9.01" height="2.67" rx="1.14" ry="1.14"/><rect class="cls-51" x="1235.92" y="348.09" width="105.4" height="8.48"/><rect class="cls-38" x="1235.92" y="356.17" width="105.4" height="1.29"/></g><g><g><polygon class="cls-67" points="674.53 252.34 692.01 252.34 692.01 287.61 683.27 299.28 674.53 287.61 674.53 252.34"/><rect class="cls-38" x="674.2" y="250.92" width="17.81" height="4.98"/><rect class="cls-7" x="671" y="249.3" width="24.2" height="4.98"/></g><g><rect class="cls-7" x="682.21" y="278.43" width="9.8" height="3.97" transform="translate(1374.22 560.83) rotate(-180)"/><rect class="cls-7" x="682.21" y="270.07" width="9.8" height="3.97" transform="translate(1374.22 544.11) rotate(-180)"/><rect class="cls-7" x="687.11" y="274.25" width="4.9" height="3.97" transform="translate(1379.12 552.47) rotate(-180)"/><rect class="cls-7" x="687.11" y="265.93" width="4.9" height="3.97" transform="translate(1379.12 535.83) rotate(-180)"/></g><g><rect class="cls-7" x="674.53" y="256.97" width="9.8" height="3.97"/><rect class="cls-7" x="674.53" y="265.32" width="9.8" height="3.97"/><rect class="cls-7" x="674.53" y="261.14" width="4.9" height="3.97"/><rect class="cls-7" x="674.53" y="269.47" width="4.9" height="3.97"/></g><g><polygon class="cls-38" points="647.33 250.54 602.1 295.02 602.1 304.89 647.33 260.41 692.56 304.89 692.56 295.02 647.33 250.54"/><polygon class="cls-24" points="602.1 304.89 602.1 429.37 692.56 429.37 692.56 304.89 647.33 260.41 602.1 304.89"/></g><path class="cls-51" d="m711.3,301.7l-63.97-63.97-63.97,63.97h15.53s48.44-48.44,48.44-48.44l48.44,48.44h15.53Z"/><g><rect class="cls-38" x="629.99" y="292.51" width="34.69" height="34.69"/><rect class="cls-72" x="632.21" y="295.49" width="13.22" height="13.22"/><rect class="cls-72" x="649.42" y="295.49" width="13.22" height="13.22"/><rect class="cls-72" x="632.21" y="311.48" width="13.22" height="13.22"/><rect class="cls-72" x="649.42" y="311.48" width="13.22" height="13.22"/></g><rect class="cls-39" x="629.99" y="373.87" width="34.69" height="55.49"/><rect class="cls-81" x="653.11" y="401.62" width="9.01" height="2.67" rx="1.14" ry="1.14"/><rect class="cls-51" x="592.73" y="348.09" width="105.4" height="8.48"/><rect class="cls-38" x="592.73" y="356.17" width="105.4" height="1.29"/></g><g><g><polygon class="cls-67" points="1176.54 252.34 1194.01 252.34 1194.01 287.61 1185.27 299.28 1176.54 287.61 1176.54 252.34"/><rect class="cls-38" x="1176.2" y="250.92" width="17.81" height="4.98"/><rect class="cls-7" x="1173" y="249.3" width="24.2" height="4.98"/></g><g><rect class="cls-7" x="1184.21" y="278.1" width="9.8" height="3.97" transform="translate(2378.22 560.17) rotate(-180)"/><rect class="cls-7" x="1184.21" y="269.74" width="9.8" height="3.97" transform="translate(2378.22 543.45) rotate(-180)"/><rect class="cls-7" x="1189.11" y="273.92" width="4.9" height="3.97" transform="translate(2383.12 551.81) rotate(-180)"/><rect class="cls-7" x="1189.11" y="265.6" width="4.9" height="3.97" transform="translate(2383.12 535.17) rotate(-180)"/></g><g><rect class="cls-7" x="1176.54" y="256.64" width="9.8" height="3.97"/><rect class="cls-7" x="1176.54" y="264.99" width="9.8" height="3.97"/><rect class="cls-7" x="1176.54" y="260.82" width="4.9" height="3.97"/><rect class="cls-7" x="1176.54" y="269.14" width="4.9" height="3.97"/></g><g><polygon class="cls-38" points="1149.33 250.54 1104.1 295.02 1104.1 304.89 1149.33 260.41 1194.57 304.89 1194.57 295.02 1149.33 250.54"/><polygon class="cls-47" points="1104.1 304.89 1104.1 429.37 1194.57 429.37 1194.57 304.89 1149.33 260.41 1104.1 304.89"/></g><path class="cls-78" d="m1213.3,301.7l-63.97-63.97-63.97,63.97h15.53s48.44-48.44,48.44-48.44l48.44,48.44h15.53Z"/><g><rect class="cls-86" x="1131.99" y="292.51" width="34.69" height="34.69"/><rect class="cls-72" x="1134.22" y="295.49" width="13.22" height="13.22"/><rect class="cls-72" x="1151.42" y="295.49" width="13.22" height="13.22"/><rect class="cls-72" x="1134.22" y="311.48" width="13.22" height="13.22"/><rect class="cls-72" x="1151.42" y="311.48" width="13.22" height="13.22"/></g><rect class="cls-34" x="1131.99" y="373.87" width="34.69" height="55.49"/><rect class="cls-81" x="1155.11" y="401.62" width="9.01" height="2.67" rx="1.14" ry="1.14"/><rect class="cls-78" x="1094.73" y="348.09" width="105.4" height="8.48"/><rect class="cls-38" x="1094.73" y="356.17" width="105.4" height="1.29"/></g><g><g><polygon class="cls-67" points="326.35 252.34 343.83 252.34 343.83 287.61 335.09 299.28 326.35 287.61 326.35 252.34"/><rect class="cls-38" x="326.02" y="250.92" width="17.81" height="4.98"/><rect class="cls-7" x="322.82" y="249.3" width="24.2" height="4.98"/></g><g><rect class="cls-7" x="334.03" y="278.1" width="9.8" height="3.97" transform="translate(677.85 560.17) rotate(-180)"/><rect class="cls-7" x="334.03" y="269.74" width="9.8" height="3.97" transform="translate(677.85 543.45) rotate(-180)"/><rect class="cls-7" x="338.93" y="273.92" width="4.9" height="3.97" transform="translate(682.76 551.81) rotate(-180)"/><rect class="cls-7" x="338.93" y="265.6" width="4.9" height="3.97" transform="translate(682.76 535.17) rotate(-180)"/></g><g><rect class="cls-7" x="326.35" y="256.64" width="9.8" height="3.97"/><rect class="cls-7" x="326.35" y="264.99" width="9.8" height="3.97"/><rect class="cls-7" x="326.35" y="260.82" width="4.9" height="3.97"/><rect class="cls-7" x="326.35" y="269.14" width="4.9" height="3.97"/></g><g><polygon class="cls-38" points="299.15 250.54 253.92 295.02 253.92 304.89 299.15 260.41 344.38 304.89 344.38 295.02 299.15 250.54"/><polygon class="cls-52" points="253.92 304.89 253.92 429.37 344.38 429.37 344.38 304.89 299.15 260.41 253.92 304.89"/></g><path class="cls-10" d="m363.12,301.7l-63.97-63.97-63.97,63.97h15.53s48.44-48.44,48.44-48.44l48.44,48.44h15.53Z"/><g><rect class="cls-86" x="281.8" y="292.51" width="34.69" height="34.69"/><rect class="cls-72" x="284.03" y="295.49" width="13.22" height="13.22"/><rect class="cls-72" x="301.23" y="295.49" width="13.22" height="13.22"/><rect class="cls-72" x="284.03" y="311.48" width="13.22" height="13.22"/><rect class="cls-72" x="301.23" y="311.48" width="13.22" height="13.22"/></g><rect class="cls-34" x="281.8" y="373.87" width="34.69" height="55.49"/><rect class="cls-81" x="304.93" y="401.62" width="9.01" height="2.67" rx="1.14" ry="1.14"/><rect class="cls-10" x="244.55" y="348.09" width="105.4" height="8.48"/><rect class="cls-38" x="244.55" y="356.17" width="105.4" height="1.29"/></g><g><g><g><polygon class="cls-67" points="977.55 244.35 977.55 429.25 1068.02 429.25 1068.02 244.35 1022.79 199.87 977.55 244.35"/><polygon class="cls-38" points="1022.79 207.23 977.55 251.71 977.55 261.58 1022.79 217.1 1068.02 261.58 1068.02 251.71 1022.79 207.23"/></g><path class="cls-51" d="m1086.76,258.39l-63.97-63.97-63.97,63.97h15.53s48.44-48.44,48.44-48.44l48.44,48.44h15.53Z"/><g><rect class="cls-38" x="1005.44" y="305.14" width="34.69" height="34.69"/><rect class="cls-72" x="1007.67" y="308.12" width="13.22" height="13.22"/><rect class="cls-72" x="1024.87" y="308.12" width="13.22" height="13.22"/><rect class="cls-72" x="1007.67" y="324.11" width="13.22" height="13.22"/><rect class="cls-72" x="1024.87" y="324.11" width="13.22" height="13.22"/></g><g><rect class="cls-38" x="1005.44" y="262.82" width="34.69" height="34.69"/><polygon class="cls-38" points="998.26 256.45 1022.79 231.93 1047.31 256.45 998.26 256.45"/><polygon class="cls-72" points="1005.44 253.91 1022.79 236.57 1040.13 253.91 1005.44 253.91"/><rect class="cls-72" x="1007.67" y="265.8" width="13.22" height="13.22"/><rect class="cls-72" x="1024.87" y="265.8" width="13.22" height="13.22"/><rect class="cls-72" x="1007.67" y="281.79" width="13.22" height="13.22"/><rect class="cls-72" x="1024.87" y="281.79" width="13.22" height="13.22"/></g><path class="cls-44" d="m1007.38,373.87h30.82c1.07,0,1.94.87,1.94,1.94v53.56h-34.69v-53.56c0-1.07.87-1.94,1.94-1.94Z"/><rect class="cls-69" x="1034.73" y="401.11" width="3.31" height="3.69" rx="1.57" ry="1.57"/><rect class="cls-51" x="968.18" y="348.09" width="105.4" height="8.48"/><rect class="cls-38" x="968.18" y="356.17" width="105.4" height="1.29"/></g><g><g><rect class="cls-7" x="977.55" y="425.28" width="9.8" height="3.97"/><rect class="cls-7" x="977.55" y="416.92" width="9.8" height="3.97"/><rect class="cls-7" x="977.55" y="421.1" width="4.9" height="3.97"/><rect class="cls-7" x="977.55" y="412.78" width="4.9" height="3.97"/></g><g><rect class="cls-7" x="977.55" y="408.57" width="9.8" height="3.97"/><rect class="cls-7" x="977.55" y="400.22" width="9.8" height="3.97"/><rect class="cls-7" x="977.55" y="404.4" width="4.9" height="3.97"/><rect class="cls-7" x="977.55" y="396.07" width="4.9" height="3.97"/></g><g><rect class="cls-7" x="1058.22" y="425.28" width="9.8" height="3.97" transform="translate(2126.24 854.52) rotate(-180)"/><rect class="cls-7" x="1058.22" y="416.92" width="9.8" height="3.97" transform="translate(2126.24 837.81) rotate(-180)"/><rect class="cls-7" x="1063.12" y="421.1" width="4.9" height="3.97" transform="translate(2131.14 846.16) rotate(-180)"/><rect class="cls-7" x="1063.12" y="412.78" width="4.9" height="3.97" transform="translate(2131.14 829.52) rotate(-180)"/></g><g><rect class="cls-7" x="1058.22" y="408.57" width="9.8" height="3.97" transform="translate(2126.24 821.12) rotate(-180)"/><rect class="cls-7" x="1058.22" y="400.22" width="9.8" height="3.97" transform="translate(2126.24 804.4) rotate(-180)"/><rect class="cls-7" x="1063.12" y="404.4" width="4.9" height="3.97" transform="translate(2131.14 812.76) rotate(-180)"/><rect class="cls-7" x="1063.12" y="396.07" width="4.9" height="3.97" transform="translate(2131.14 796.12) rotate(-180)"/></g><g><rect class="cls-7" x="977.55" y="391.89" width="9.8" height="3.97"/><rect class="cls-7" x="977.55" y="383.54" width="9.8" height="3.97"/><rect class="cls-7" x="977.55" y="387.72" width="4.9" height="3.97"/><rect class="cls-7" x="977.55" y="379.39" width="4.9" height="3.97"/></g><g><rect class="cls-7" x="977.55" y="375.19" width="9.8" height="3.97"/><rect class="cls-7" x="977.55" y="366.84" width="9.8" height="3.97"/><rect class="cls-7" x="977.55" y="371.01" width="4.9" height="3.97"/><rect class="cls-7" x="977.55" y="362.69" width="4.9" height="3.97"/></g><g><rect class="cls-7" x="1058.22" y="391.89" width="9.8" height="3.97" transform="translate(2126.24 787.76) rotate(-180)"/><rect class="cls-7" x="1058.22" y="383.54" width="9.8" height="3.97" transform="translate(2126.24 771.04) rotate(-180)"/><rect class="cls-7" x="1063.12" y="387.72" width="4.9" height="3.97" transform="translate(2131.14 779.4) rotate(-180)"/><rect class="cls-7" x="1063.12" y="379.39" width="4.9" height="3.97" transform="translate(2131.14 762.76) rotate(-180)"/></g><g><rect class="cls-7" x="1058.22" y="375.19" width="9.8" height="3.97" transform="translate(2126.24 754.36) rotate(-180)"/><rect class="cls-7" x="1058.22" y="366.84" width="9.8" height="3.97" transform="translate(2126.24 737.64) rotate(-180)"/><rect class="cls-7" x="1063.12" y="371.01" width="4.9" height="3.97" transform="translate(2131.14 746) rotate(-180)"/><rect class="cls-7" x="1063.12" y="362.69" width="4.9" height="3.97" transform="translate(2131.14 729.36) rotate(-180)"/></g><g><rect class="cls-7" x="977.55" y="341.17" width="9.8" height="3.97"/><rect class="cls-7" x="977.55" y="332.82" width="9.8" height="3.97"/><rect class="cls-7" x="977.55" y="336.99" width="4.9" height="3.97"/><rect class="cls-7" x="977.55" y="328.67" width="4.9" height="3.97"/></g><g><rect class="cls-7" x="1058.22" y="341.17" width="9.8" height="3.97" transform="translate(2126.24 686.32) rotate(-180)"/><rect class="cls-7" x="1058.22" y="332.82" width="9.8" height="3.97" transform="translate(2126.24 669.6) rotate(-180)"/><rect class="cls-7" x="1063.12" y="336.99" width="4.9" height="3.97" transform="translate(2131.14 677.96) rotate(-180)"/><rect class="cls-7" x="1063.12" y="328.67" width="4.9" height="3.97" transform="translate(2131.14 661.32) rotate(-180)"/></g><g><rect class="cls-7" x="977.55" y="324.48" width="9.8" height="3.97"/><rect class="cls-7" x="977.55" y="316.12" width="9.8" height="3.97"/><rect class="cls-7" x="977.55" y="320.3" width="4.9" height="3.97"/><rect class="cls-7" x="977.55" y="311.98" width="4.9" height="3.97"/></g><g><rect class="cls-7" x="1058.22" y="324.48" width="9.8" height="3.97" transform="translate(2126.24 652.92) rotate(-180)"/><rect class="cls-7" x="1058.22" y="316.12" width="9.8" height="3.97" transform="translate(2126.24 636.2) rotate(-180)"/><rect class="cls-7" x="1063.12" y="320.3" width="4.9" height="3.97" transform="translate(2131.14 644.56) rotate(-180)"/><rect class="cls-7" x="1063.12" y="311.98" width="4.9" height="3.97" transform="translate(2131.14 627.92) rotate(-180)"/></g><g><rect class="cls-7" x="977.55" y="307.7" width="9.8" height="3.97"/><rect class="cls-7" x="977.55" y="299.34" width="9.8" height="3.97"/><rect class="cls-7" x="977.55" y="303.52" width="4.9" height="3.97"/><rect class="cls-7" x="977.55" y="295.2" width="4.9" height="3.97"/></g><g><rect class="cls-7" x="1058.22" y="307.7" width="9.8" height="3.97" transform="translate(2126.24 619.36) rotate(-180)"/><rect class="cls-7" x="1058.22" y="299.34" width="9.8" height="3.97" transform="translate(2126.24 602.65) rotate(-180)"/><rect class="cls-7" x="1063.12" y="303.52" width="4.9" height="3.97" transform="translate(2131.14 611.01) rotate(-180)"/><rect class="cls-7" x="1063.12" y="295.2" width="4.9" height="3.97" transform="translate(2131.14 594.36) rotate(-180)"/></g><g><rect class="cls-7" x="977.55" y="291" width="9.8" height="3.97"/><rect class="cls-7" x="977.55" y="282.64" width="9.8" height="3.97"/><rect class="cls-7" x="977.55" y="286.82" width="4.9" height="3.97"/><rect class="cls-7" x="977.55" y="278.5" width="4.9" height="3.97"/></g><g><rect class="cls-7" x="1058.22" y="291" width="9.8" height="3.97" transform="translate(2126.24 585.97) rotate(-180)"/><rect class="cls-7" x="1058.22" y="282.64" width="9.8" height="3.97" transform="translate(2126.24 569.25) rotate(-180)"/><rect class="cls-7" x="1063.12" y="286.82" width="4.9" height="3.97" transform="translate(2131.14 577.61) rotate(-180)"/><rect class="cls-7" x="1063.12" y="278.5" width="4.9" height="3.97" transform="translate(2131.14 560.97) rotate(-180)"/></g><g><rect class="cls-7" x="977.55" y="274.35" width="9.8" height="3.97"/><rect class="cls-7" x="977.55" y="265.99" width="9.8" height="3.97"/><rect class="cls-7" x="977.55" y="270.17" width="4.9" height="3.97"/><rect class="cls-7" x="977.55" y="261.85" width="4.9" height="3.97"/></g><g><rect class="cls-7" x="1058.22" y="274.35" width="9.8" height="3.97" transform="translate(2126.24 552.67) rotate(-180)"/><rect class="cls-7" x="1058.22" y="265.99" width="9.8" height="3.97" transform="translate(2126.24 535.95) rotate(-180)"/><rect class="cls-7" x="1063.12" y="270.17" width="4.9" height="3.97" transform="translate(2131.14 544.31) rotate(-180)"/><rect class="cls-7" x="1063.12" y="261.85" width="4.9" height="3.97" transform="translate(2131.14 527.67) rotate(-180)"/></g></g></g><g><g><g><polygon class="cls-57" points="132.31 244.35 132.31 429.25 222.77 429.25 222.77 244.35 177.54 199.87 132.31 244.35"/><polygon class="cls-38" points="177.54 207.23 132.31 251.71 132.31 261.58 177.54 217.1 222.77 261.58 222.77 251.71 177.54 207.23"/></g><path class="cls-20" d="m241.51,258.39l-63.97-63.97-63.97,63.97h15.53s48.44-48.44,48.44-48.44l48.44,48.44h15.53Z"/><g><rect class="cls-38" x="160.2" y="305.14" width="34.69" height="34.69"/><rect class="cls-72" x="162.43" y="308.12" width="13.22" height="13.22"/><rect class="cls-72" x="179.63" y="308.12" width="13.22" height="13.22"/><rect class="cls-72" x="162.43" y="324.11" width="13.22" height="13.22"/><rect class="cls-72" x="179.63" y="324.11" width="13.22" height="13.22"/></g><g><rect class="cls-38" x="160.2" y="262.82" width="34.69" height="34.69"/><polygon class="cls-38" points="153.01 256.45 177.54 231.93 202.07 256.45 153.01 256.45"/><polygon class="cls-72" points="160.2 253.91 177.54 236.57 194.89 253.91 160.2 253.91"/><rect class="cls-72" x="162.43" y="265.8" width="13.22" height="13.22"/><rect class="cls-72" x="179.63" y="265.8" width="13.22" height="13.22"/><rect class="cls-72" x="162.43" y="281.79" width="13.22" height="13.22"/><rect class="cls-72" x="179.63" y="281.79" width="13.22" height="13.22"/></g><path class="cls-44" d="m162.13,373.87h30.82c1.07,0,1.94.87,1.94,1.94v53.56h-34.69v-53.56c0-1.07.87-1.94,1.94-1.94Z"/><rect class="cls-69" x="189.48" y="401.11" width="3.31" height="3.69" rx="1.57" ry="1.57"/><rect class="cls-20" x="122.94" y="348.09" width="105.4" height="8.48"/><rect class="cls-38" x="122.94" y="356.17" width="105.4" height="1.29"/></g><g><g><rect class="cls-20" x="132.31" y="425.28" width="9.8" height="3.97"/><rect class="cls-20" x="132.31" y="416.92" width="9.8" height="3.97"/><rect class="cls-20" x="132.31" y="421.1" width="4.9" height="3.97"/><rect class="cls-20" x="132.31" y="412.78" width="4.9" height="3.97"/></g><g><rect class="cls-20" x="132.31" y="408.57" width="9.8" height="3.97"/><rect class="cls-20" x="132.31" y="400.22" width="9.8" height="3.97"/><rect class="cls-20" x="132.31" y="404.4" width="4.9" height="3.97"/><rect class="cls-20" x="132.31" y="396.07" width="4.9" height="3.97"/></g><g><rect class="cls-20" x="212.97" y="425.28" width="9.8" height="3.97" transform="translate(435.75 854.52) rotate(-180)"/><rect class="cls-20" x="212.97" y="416.92" width="9.8" height="3.97" transform="translate(435.75 837.81) rotate(-180)"/><rect class="cls-20" x="217.87" y="421.1" width="4.9" height="3.97" transform="translate(440.65 846.16) rotate(-180)"/><rect class="cls-20" x="217.87" y="412.78" width="4.9" height="3.97" transform="translate(440.65 829.52) rotate(-180)"/></g><g><rect class="cls-20" x="212.97" y="408.57" width="9.8" height="3.97" transform="translate(435.75 821.12) rotate(-180)"/><rect class="cls-20" x="212.97" y="400.22" width="9.8" height="3.97" transform="translate(435.75 804.4) rotate(-180)"/><rect class="cls-20" x="217.87" y="404.4" width="4.9" height="3.97" transform="translate(440.65 812.76) rotate(-180)"/><rect class="cls-20" x="217.87" y="396.07" width="4.9" height="3.97" transform="translate(440.65 796.12) rotate(-180)"/></g><g><rect class="cls-20" x="132.31" y="391.89" width="9.8" height="3.97"/><rect class="cls-20" x="132.31" y="383.54" width="9.8" height="3.97"/><rect class="cls-20" x="132.31" y="387.72" width="4.9" height="3.97"/><rect class="cls-20" x="132.31" y="379.39" width="4.9" height="3.97"/></g><g><rect class="cls-20" x="132.31" y="375.19" width="9.8" height="3.97"/><rect class="cls-20" x="132.31" y="366.84" width="9.8" height="3.97"/><rect class="cls-20" x="132.31" y="371.01" width="4.9" height="3.97"/><rect class="cls-20" x="132.31" y="362.69" width="4.9" height="3.97"/></g><g><rect class="cls-20" x="212.97" y="391.89" width="9.8" height="3.97" transform="translate(435.75 787.76) rotate(-180)"/><rect class="cls-20" x="212.97" y="383.54" width="9.8" height="3.97" transform="translate(435.75 771.04) rotate(-180)"/><rect class="cls-20" x="217.87" y="387.72" width="4.9" height="3.97" transform="translate(440.65 779.4) rotate(-180)"/><rect class="cls-20" x="217.87" y="379.39" width="4.9" height="3.97" transform="translate(440.65 762.76) rotate(-180)"/></g><g><rect class="cls-20" x="212.97" y="375.19" width="9.8" height="3.97" transform="translate(435.75 754.36) rotate(-180)"/><rect class="cls-20" x="212.97" y="366.84" width="9.8" height="3.97" transform="translate(435.75 737.64) rotate(-180)"/><rect class="cls-20" x="217.87" y="371.01" width="4.9" height="3.97" transform="translate(440.65 746) rotate(-180)"/><rect class="cls-20" x="217.87" y="362.69" width="4.9" height="3.97" transform="translate(440.65 729.36) rotate(-180)"/></g><g><rect class="cls-20" x="132.31" y="341.17" width="9.8" height="3.97"/><rect class="cls-20" x="132.31" y="332.82" width="9.8" height="3.97"/><rect class="cls-20" x="132.31" y="336.99" width="4.9" height="3.97"/><rect class="cls-20" x="132.31" y="328.67" width="4.9" height="3.97"/></g><g><rect class="cls-20" x="212.97" y="341.17" width="9.8" height="3.97" transform="translate(435.75 686.32) rotate(-180)"/><rect class="cls-20" x="212.97" y="332.82" width="9.8" height="3.97" transform="translate(435.75 669.6) rotate(-180)"/><rect class="cls-20" x="217.87" y="336.99" width="4.9" height="3.97" transform="translate(440.65 677.96) rotate(-180)"/><rect class="cls-20" x="217.87" y="328.67" width="4.9" height="3.97" transform="translate(440.65 661.32) rotate(-180)"/></g><g><rect class="cls-20" x="132.31" y="324.48" width="9.8" height="3.97"/><rect class="cls-20" x="132.31" y="316.12" width="9.8" height="3.97"/><rect class="cls-20" x="132.31" y="320.3" width="4.9" height="3.97"/><rect class="cls-20" x="132.31" y="311.98" width="4.9" height="3.97"/></g><g><rect class="cls-20" x="212.97" y="324.48" width="9.8" height="3.97" transform="translate(435.75 652.92) rotate(-180)"/><rect class="cls-20" x="212.97" y="316.12" width="9.8" height="3.97" transform="translate(435.75 636.2) rotate(-180)"/><rect class="cls-20" x="217.87" y="320.3" width="4.9" height="3.97" transform="translate(440.65 644.56) rotate(-180)"/><rect class="cls-20" x="217.87" y="311.98" width="4.9" height="3.97" transform="translate(440.65 627.92) rotate(-180)"/></g><g><rect class="cls-20" x="132.31" y="307.7" width="9.8" height="3.97"/><rect class="cls-20" x="132.31" y="299.34" width="9.8" height="3.97"/><rect class="cls-20" x="132.31" y="303.52" width="4.9" height="3.97"/><rect class="cls-20" x="132.31" y="295.2" width="4.9" height="3.97"/></g><g><rect class="cls-20" x="212.97" y="307.7" width="9.8" height="3.97" transform="translate(435.75 619.36) rotate(-180)"/><rect class="cls-20" x="212.97" y="299.34" width="9.8" height="3.97" transform="translate(435.75 602.65) rotate(-180)"/><rect class="cls-20" x="217.87" y="303.52" width="4.9" height="3.97" transform="translate(440.65 611.01) rotate(-180)"/><rect class="cls-20" x="217.87" y="295.2" width="4.9" height="3.97" transform="translate(440.65 594.36) rotate(-180)"/></g><g><rect class="cls-20" x="132.31" y="291" width="9.8" height="3.97"/><rect class="cls-20" x="132.31" y="282.64" width="9.8" height="3.97"/><rect class="cls-20" x="132.31" y="286.82" width="4.9" height="3.97"/><rect class="cls-20" x="132.31" y="278.5" width="4.9" height="3.97"/></g><g><rect class="cls-20" x="212.97" y="291" width="9.8" height="3.97" transform="translate(435.75 585.97) rotate(-180)"/><rect class="cls-20" x="212.97" y="282.64" width="9.8" height="3.97" transform="translate(435.75 569.25) rotate(-180)"/><rect class="cls-20" x="217.87" y="286.82" width="4.9" height="3.97" transform="translate(440.65 577.61) rotate(-180)"/><rect class="cls-20" x="217.87" y="278.5" width="4.9" height="3.97" transform="translate(440.65 560.97) rotate(-180)"/></g><g><rect class="cls-20" x="132.31" y="274.35" width="9.8" height="3.97"/><rect class="cls-20" x="132.31" y="265.99" width="9.8" height="3.97"/><rect class="cls-20" x="132.31" y="270.17" width="4.9" height="3.97"/><rect class="cls-20" x="132.31" y="261.85" width="4.9" height="3.97"/></g><g><rect class="cls-20" x="212.97" y="274.35" width="9.8" height="3.97" transform="translate(435.75 552.67) rotate(-180)"/><rect class="cls-20" x="212.97" y="265.99" width="9.8" height="3.97" transform="translate(435.75 535.95) rotate(-180)"/><rect class="cls-20" x="217.87" y="270.17" width="4.9" height="3.97" transform="translate(440.65 544.31) rotate(-180)"/><rect class="cls-20" x="217.87" y="261.85" width="4.9" height="3.97" transform="translate(440.65 527.67) rotate(-180)"/></g></g></g><g><polygon class="cls-77" points="1440.62 320.49 1440.62 429.21 1543.88 429.21 1543.88 320.49 1485.85 276.01 1440.62 320.49"/><g><g><rect class="cls-86" x="1489.85" y="378.95" width="18.62" height="18.62"/><rect class="cls-72" x="1491.05" y="380.55" width="7.1" height="7.1"/><rect class="cls-72" x="1500.28" y="380.55" width="7.1" height="7.1"/><rect class="cls-72" x="1491.05" y="389.14" width="7.1" height="7.1"/><rect class="cls-72" x="1500.28" y="389.14" width="7.1" height="7.1"/></g><g><rect class="cls-86" x="1507.48" y="378.95" width="18.62" height="18.62"/><rect class="cls-72" x="1508.68" y="380.55" width="7.1" height="7.1"/><rect class="cls-72" x="1517.91" y="380.55" width="7.1" height="7.1"/><rect class="cls-72" x="1508.68" y="389.14" width="7.1" height="7.1"/><rect class="cls-72" x="1517.91" y="389.14" width="7.1" height="7.1"/></g><g><rect class="cls-86" x="1489.85" y="396.95" width="18.62" height="18.62"/><rect class="cls-72" x="1491.05" y="398.55" width="7.1" height="7.1"/><rect class="cls-72" x="1500.28" y="398.55" width="7.1" height="7.1"/><rect class="cls-72" x="1491.05" y="407.14" width="7.1" height="7.1"/><rect class="cls-72" x="1500.28" y="407.14" width="7.1" height="7.1"/></g><g><rect class="cls-86" x="1507.48" y="396.95" width="18.62" height="18.62"/><rect class="cls-72" x="1508.68" y="398.55" width="7.1" height="7.1"/><rect class="cls-72" x="1517.91" y="398.55" width="7.1" height="7.1"/><rect class="cls-72" x="1508.68" y="407.14" width="7.1" height="7.1"/><rect class="cls-72" x="1517.91" y="407.14" width="7.1" height="7.1"/></g></g><polygon class="cls-19" points="1553.81 324.61 1426.55 324.61 1431.2 253.33 1549.16 253.33 1553.81 324.61"/><polygon class="cls-38" points="1550.06 369.56 1431.86 369.56 1436.5 361.49 1548.22 361.49 1550.06 369.56"/><polygon class="cls-19" points="1550.06 368.04 1431.86 368.04 1436.5 359.97 1548.22 359.97 1550.06 368.04"/><g><g><polygon class="cls-38" points="1431.2 266.14 1385.96 310.62 1385.96 320.49 1431.2 276.01 1476.43 320.49 1476.43 310.62 1431.2 266.14"/><polygon class="cls-57" points="1385.96 320.49 1385.96 429.21 1476.43 429.21 1476.43 320.49 1431.2 276.01 1385.96 320.49"/></g><path class="cls-58" d="m1495.16,317.29l-63.97-63.97-63.97,63.97h15.53s48.44-48.44,48.44-48.44l48.44,48.44h15.53Z"/><path class="cls-34" d="m1431.2,373.72h0c9.57,0,17.34,7.77,17.34,17.34v38.15h-34.69v-38.15c0-9.57,7.77-17.34,17.34-17.34Z"/><rect class="cls-81" x="1436.97" y="401.46" width="9.01" height="2.67" rx="1.14" ry="1.14"/><polygon class="cls-19" points="1482 357.52 1376.59 357.52 1381.24 333.69 1477.35 333.69 1482 357.52"/><rect class="cls-38" x="1376.59" y="357.12" width="105.4" height="1.29"/><g><rect class="cls-7" x="1466.52" y="419.64" width="9.8" height="3.97" transform="translate(2942.84 843.25) rotate(-180)"/><rect class="cls-7" x="1466.52" y="411.28" width="9.8" height="3.97" transform="translate(2942.84 826.53) rotate(-180)"/><rect class="cls-7" x="1471.42" y="415.46" width="4.9" height="3.97" transform="translate(2947.74 834.89) rotate(-180)"/><rect class="cls-7" x="1471.42" y="407.14" width="4.9" height="3.97" transform="translate(2947.74 818.25) rotate(-180)"/></g><g><rect class="cls-7" x="1534.08" y="419.64" width="9.8" height="3.97" transform="translate(3077.96 843.25) rotate(-180)"/><rect class="cls-7" x="1534.08" y="411.28" width="9.8" height="3.97" transform="translate(3077.96 826.53) rotate(-180)"/><rect class="cls-7" x="1538.98" y="415.46" width="4.9" height="3.97" transform="translate(3082.86 834.89) rotate(-180)"/><rect class="cls-7" x="1538.98" y="407.14" width="4.9" height="3.97" transform="translate(3082.86 818.25) rotate(-180)"/></g><g><rect class="cls-7" x="1534.08" y="334.63" width="9.8" height="3.97" transform="translate(3077.96 673.23) rotate(180)"/><rect class="cls-7" x="1534.08" y="342.99" width="9.8" height="3.97" transform="translate(3077.96 689.94) rotate(180)"/><rect class="cls-7" x="1538.98" y="338.81" width="4.9" height="3.97" transform="translate(3082.86 681.59) rotate(180)"/><rect class="cls-7" x="1538.98" y="347.13" width="4.9" height="3.97" transform="translate(3082.86 698.23) rotate(180)"/></g><g><rect class="cls-7" x="1385.96" y="370.5" width="9.8" height="3.97"/><rect class="cls-7" x="1385.96" y="378.86" width="9.8" height="3.97"/><rect class="cls-7" x="1385.96" y="374.68" width="4.9" height="3.97"/><rect class="cls-7" x="1385.96" y="383" width="4.9" height="3.97"/></g></g><circle class="cls-38" cx="1429.92" cy="313" r="13.1"/><circle class="cls-72" cx="1429.92" cy="313" r="10.69"/><g><polygon class="cls-67" points="1516.79 236.57 1534.27 236.57 1534.27 272.03 1516.79 261.65 1516.79 236.57"/><rect class="cls-38" x="1516.45" y="235.15" width="17.81" height="4.98"/><rect class="cls-7" x="1513.26" y="233.53" width="24.2" height="4.98"/></g><g><rect class="cls-7" x="1516.79" y="241.19" width="9.8" height="3.97"/><rect class="cls-7" x="1516.79" y="249.55" width="9.8" height="3.97"/><rect class="cls-7" x="1516.79" y="245.37" width="4.9" height="3.97"/><rect class="cls-7" x="1516.79" y="253.69" width="4.9" height="3.97"/></g></g><g><polygon class="cls-10" points="445.81 320.49 445.81 429.21 549.08 429.21 549.08 320.49 491.04 276.01 445.81 320.49"/><g><g><rect class="cls-86" x="495.04" y="378.95" width="18.62" height="18.62"/><rect class="cls-72" x="496.24" y="380.55" width="7.1" height="7.1"/><rect class="cls-72" x="505.48" y="380.55" width="7.1" height="7.1"/><rect class="cls-72" x="496.24" y="389.14" width="7.1" height="7.1"/><rect class="cls-72" x="505.48" y="389.14" width="7.1" height="7.1"/></g><g><rect class="cls-86" x="512.67" y="378.95" width="18.62" height="18.62"/><rect class="cls-72" x="513.87" y="380.55" width="7.1" height="7.1"/><rect class="cls-72" x="523.1" y="380.55" width="7.1" height="7.1"/><rect class="cls-72" x="513.87" y="389.14" width="7.1" height="7.1"/><rect class="cls-72" x="523.1" y="389.14" width="7.1" height="7.1"/></g><g><rect class="cls-86" x="495.04" y="396.95" width="18.62" height="18.62"/><rect class="cls-72" x="496.24" y="398.55" width="7.1" height="7.1"/><rect class="cls-72" x="505.48" y="398.55" width="7.1" height="7.1"/><rect class="cls-72" x="496.24" y="407.14" width="7.1" height="7.1"/><rect class="cls-72" x="505.48" y="407.14" width="7.1" height="7.1"/></g><g><rect class="cls-86" x="512.67" y="396.95" width="18.62" height="18.62"/><rect class="cls-72" x="513.87" y="398.55" width="7.1" height="7.1"/><rect class="cls-72" x="523.1" y="398.55" width="7.1" height="7.1"/><rect class="cls-72" x="513.87" y="407.14" width="7.1" height="7.1"/><rect class="cls-72" x="523.1" y="407.14" width="7.1" height="7.1"/></g></g><polygon class="cls-19" points="559 324.61 431.74 324.61 436.39 253.33 554.36 253.33 559 324.61"/><polygon class="cls-38" points="555.25 369.56 437.05 369.56 441.7 361.49 553.41 361.49 555.25 369.56"/><polygon class="cls-19" points="555.25 368.04 437.05 368.04 441.7 359.97 553.41 359.97 555.25 368.04"/><g><g><polygon class="cls-38" points="436.39 266.14 391.16 310.62 391.16 320.49 436.39 276.01 481.62 320.49 481.62 310.62 436.39 266.14"/><polygon class="cls-82" points="391.16 320.49 391.16 429.21 481.62 429.21 481.62 320.49 436.39 276.01 391.16 320.49"/></g><path class="cls-58" d="m500.36,317.29l-63.97-63.97-63.97,63.97h15.53s48.44-48.44,48.44-48.44l48.44,48.44h15.53Z"/><path class="cls-40" d="m436.39,373.72h0c9.57,0,17.34,7.77,17.34,17.34v38.15h-34.69v-38.15c0-9.57,7.77-17.34,17.34-17.34Z"/><rect class="cls-81" x="442.17" y="401.46" width="9.01" height="2.67" rx="1.14" ry="1.14"/><polygon class="cls-19" points="487.19 357.52 381.79 357.52 386.43 333.69 482.54 333.69 487.19 357.52"/><rect class="cls-38" x="381.79" y="357.12" width="105.4" height="1.29"/><g><rect class="cls-7" x="471.71" y="419.64" width="9.8" height="3.97" transform="translate(953.23 843.25) rotate(-180)"/><rect class="cls-7" x="471.71" y="411.28" width="9.8" height="3.97" transform="translate(953.23 826.53) rotate(-180)"/><rect class="cls-7" x="476.61" y="415.46" width="4.9" height="3.97" transform="translate(958.13 834.89) rotate(-180)"/><rect class="cls-7" x="476.61" y="407.14" width="4.9" height="3.97" transform="translate(958.13 818.25) rotate(-180)"/></g><g><rect class="cls-7" x="539.27" y="419.64" width="9.8" height="3.97" transform="translate(1088.35 843.25) rotate(-180)"/><rect class="cls-7" x="539.27" y="411.28" width="9.8" height="3.97" transform="translate(1088.35 826.53) rotate(-180)"/><rect class="cls-7" x="544.17" y="415.46" width="4.9" height="3.97" transform="translate(1093.25 834.89) rotate(-180)"/><rect class="cls-7" x="544.17" y="407.14" width="4.9" height="3.97" transform="translate(1093.25 818.25) rotate(-180)"/></g><g><rect class="cls-7" x="539.27" y="334.63" width="9.8" height="3.97" transform="translate(1088.35 673.23) rotate(180)"/><rect class="cls-7" x="539.27" y="342.99" width="9.8" height="3.97" transform="translate(1088.35 689.94) rotate(180)"/><rect class="cls-7" x="544.17" y="338.81" width="4.9" height="3.97" transform="translate(1093.25 681.59) rotate(180)"/><rect class="cls-7" x="544.17" y="347.13" width="4.9" height="3.97" transform="translate(1093.25 698.23) rotate(180)"/></g><g><rect class="cls-7" x="391.16" y="370.5" width="9.8" height="3.97"/><rect class="cls-7" x="391.16" y="378.86" width="9.8" height="3.97"/><rect class="cls-7" x="391.16" y="374.68" width="4.9" height="3.97"/><rect class="cls-7" x="391.16" y="383" width="4.9" height="3.97"/></g></g><circle class="cls-38" cx="435.12" cy="313" r="13.1"/><circle class="cls-72" cx="435.12" cy="313" r="10.69"/><g><polygon class="cls-67" points="521.98 236.57 539.46 236.57 539.46 272.03 521.98 261.65 521.98 236.57"/><rect class="cls-38" x="521.65" y="235.15" width="17.81" height="4.98"/><rect class="cls-7" x="518.45" y="233.53" width="24.2" height="4.98"/></g><g><rect class="cls-7" x="521.98" y="241.19" width="9.8" height="3.97"/><rect class="cls-7" x="521.98" y="249.55" width="9.8" height="3.97"/><rect class="cls-7" x="521.98" y="245.37" width="4.9" height="3.97"/><rect class="cls-7" x="521.98" y="253.69" width="4.9" height="3.97"/></g></g><g><g><g><polygon class="cls-38" points="1726.97 315.74 1681.73 337.26 1681.73 347.14 1726.97 325.61 1772.2 347.14 1772.2 337.26 1726.97 315.74"/><polygon class="cls-41" points="1681.73 347.14 1681.73 429.37 1772.2 429.37 1772.2 347.14 1726.97 325.61 1681.73 347.14"/></g><path class="cls-80" d="m1790.94,343.94l-63.97-35.2-63.97,35.2h15.53s48.44-25.48,48.44-25.48l48.44,25.48h15.53Z"/></g><g><g><polygon class="cls-38" points="1628.68 315.74 1583.44 337.26 1583.44 347.14 1628.68 325.61 1673.91 347.14 1673.91 337.26 1628.68 315.74"/><polygon class="cls-41" points="1583.44 347.14 1583.44 429.37 1673.91 429.37 1673.91 347.14 1628.68 325.61 1583.44 347.14"/></g><path class="cls-80" d="m1692.64,343.94l-63.97-35.2-63.97,35.2h15.53s48.44-25.48,48.44-25.48l48.44,25.48h15.53Z"/></g><g><polygon class="cls-51" points="1782.43 372.6 1574.46 372.6 1579.11 364.12 1778.56 364.12 1782.43 372.6"/><rect class="cls-38" x="1574.46" y="372.19" width="207.97" height="1.29"/></g><g><g><polygon class="cls-38" points="1677.13 273.49 1631.9 295.02 1631.9 304.89 1677.13 283.37 1722.36 304.89 1722.36 295.02 1677.13 273.49"/><polygon class="cls-23" points="1631.9 304.89 1631.9 429.37 1722.36 429.37 1722.36 304.89 1677.13 283.37 1631.9 304.89"/></g><path class="cls-51" d="m1741.1,301.7l-63.97-35.2-63.97,35.2h15.53s48.44-25.48,48.44-25.48l48.44,25.48h15.53Z"/><path class="cls-38" d="m1677.13,298.45h0c9.57,0,17.34,7.77,17.34,17.34v98.1h-34.69v-98.1c0-9.57,7.77-17.34,17.34-17.34Z"/><path class="cls-72" d="m1691.26,410.03h-28.27v-93.58c0-7.81,6.33-14.13,14.13-14.13h0c7.81,0,14.13,6.33,14.13,14.13v93.58Z"/></g><g><rect class="cls-38" x="1596.95" y="382.51" width="28.08" height="28.08"/><rect class="cls-72" x="1598.76" y="384.92" width="10.7" height="10.7"/><rect class="cls-72" x="1612.68" y="384.92" width="10.7" height="10.7"/><rect class="cls-72" x="1598.76" y="397.86" width="10.7" height="10.7"/><rect class="cls-72" x="1612.68" y="397.86" width="10.7" height="10.7"/></g><g><rect class="cls-38" x="1727.88" y="382.51" width="28.08" height="28.08"/><rect class="cls-72" x="1729.68" y="384.92" width="10.7" height="10.7"/><rect class="cls-72" x="1743.61" y="384.92" width="10.7" height="10.7"/><rect class="cls-72" x="1729.68" y="397.86" width="10.7" height="10.7"/><rect class="cls-72" x="1743.61" y="397.86" width="10.7" height="10.7"/></g></g><g><g><g><polygon class="cls-38" points="882.87 315.74 837.64 337.26 837.64 347.14 882.87 325.61 928.1 347.14 928.1 337.26 882.87 315.74"/><polygon class="cls-65" points="837.64 347.14 837.64 429.37 928.1 429.37 928.1 347.14 882.87 325.61 837.64 347.14"/></g><path class="cls-80" d="m946.84,343.94l-63.97-35.2-63.97,35.2h15.53s48.44-25.48,48.44-25.48l48.44,25.48h15.53Z"/></g><g><g><polygon class="cls-38" points="784.58 315.74 739.34 337.26 739.34 347.14 784.58 325.61 829.81 347.14 829.81 337.26 784.58 315.74"/><polygon class="cls-65" points="739.34 347.14 739.34 429.37 829.81 429.37 829.81 347.14 784.58 325.61 739.34 347.14"/></g><path class="cls-80" d="m848.55,343.94l-63.97-35.2-63.97,35.2h15.53s48.44-25.48,48.44-25.48l48.44,25.48h15.53Z"/></g><g><polygon class="cls-51" points="938.33 372.6 730.36 372.6 735.01 364.12 934.46 364.12 938.33 372.6"/><rect class="cls-38" x="730.36" y="372.19" width="207.97" height="1.29"/></g><g><g><polygon class="cls-38" points="833.03 273.49 787.8 295.02 787.8 304.89 833.03 283.37 878.27 304.89 878.27 295.02 833.03 273.49"/><polygon class="cls-75" points="787.8 304.89 787.8 429.37 878.27 429.37 878.27 304.89 833.03 283.37 787.8 304.89"/></g><path class="cls-51" d="m897,301.7l-63.97-35.2-63.97,35.2h15.53s48.44-25.48,48.44-25.48l48.44,25.48h15.53Z"/><path class="cls-38" d="m833.03,298.45h0c9.57,0,17.34,7.77,17.34,17.34v98.1h-34.69v-98.1c0-9.57,7.77-17.34,17.34-17.34Z"/><path class="cls-72" d="m847.17,410.03h-28.27v-93.58c0-7.81,6.33-14.13,14.13-14.13h0c7.81,0,14.13,6.33,14.13,14.13v93.58Z"/></g><g><rect class="cls-38" x="752.85" y="382.51" width="28.08" height="28.08"/><rect class="cls-72" x="754.66" y="384.92" width="10.7" height="10.7"/><rect class="cls-72" x="768.58" y="384.92" width="10.7" height="10.7"/><rect class="cls-72" x="754.66" y="397.86" width="10.7" height="10.7"/><rect class="cls-72" x="768.58" y="397.86" width="10.7" height="10.7"/></g><g><rect class="cls-38" x="883.78" y="382.51" width="28.08" height="28.08"/><rect class="cls-72" x="885.58" y="384.92" width="10.7" height="10.7"/><rect class="cls-72" x="899.51" y="384.92" width="10.7" height="10.7"/><rect class="cls-72" x="885.58" y="397.86" width="10.7" height="10.7"/><rect class="cls-72" x="899.51" y="397.86" width="10.7" height="10.7"/></g></g></g><g><g><rect class="cls-49" x="702.52" y="350.2" width="11.93" height="80.97"/><rect class="cls-17" x="710.25" y="350.2" width="3.15" height="80.97"/><path class="cls-40" d="m691.6,404.06c-15.73-.85-28.29-18.45-28.29-40.05,0-14.97,6.03-28.02,14.97-34.91,1.26-10.29,6.35-18.82,13.21-22.77-.03-.54-.05-1.08-.05-1.63,0-11.57,6.9-20.95,15.4-20.95.39,0,.77.02,1.16.06.38-.04.77-.06,1.16-.06,8.51,0,15.4,9.38,15.4,20.95,0,.55-.02,1.09-.05,1.63,6.86,3.95,11.96,12.48,13.21,22.77,8.94,6.88,14.97,19.94,14.97,34.91,0,21.6-12.56,39.21-28.29,40.05.1.95-32.92.95-32.83,0Z"/><path class="cls-37" d="m737.74,329.1c-1.26-10.29-6.35-18.82-13.21-22.77.03-.54.05-1.08.05-1.63,0-11.57-6.9-20.95-15.4-20.95-.39,0-.77.02-1.16.06v120.96c8.23,0,16.46-.24,16.41-.71,15.73-.85,28.29-18.45,28.29-40.05,0-14.97-6.03-28.02-14.97-34.91Z"/></g><g><rect class="cls-49" x="939.61" y="350.2" width="11.93" height="80.97"/><rect class="cls-17" x="947.34" y="350.2" width="3.15" height="80.97"/><path class="cls-40" d="m928.69,404.06c-15.73-.85-28.29-18.45-28.29-40.05,0-14.97,6.03-28.02,14.97-34.91,1.26-10.29,6.35-18.82,13.21-22.77-.03-.54-.05-1.08-.05-1.63,0-11.57,6.9-20.95,15.4-20.95.39,0,.77.02,1.16.06.38-.04.77-.06,1.16-.06,8.51,0,15.4,9.38,15.4,20.95,0,.55-.02,1.09-.05,1.63,6.86,3.95,11.96,12.48,13.21,22.77,8.94,6.88,14.97,19.94,14.97,34.91,0,21.6-12.56,39.21-28.29,40.05.1.95-32.92.95-32.83,0Z"/><path class="cls-37" d="m974.83,329.1c-1.26-10.29-6.35-18.82-13.21-22.77.03-.54.05-1.08.05-1.63,0-11.57-6.9-20.95-15.4-20.95-.39,0-.77.02-1.16.06v120.96c8.23,0,16.46-.24,16.41-.71,15.73-.85,28.29-18.45,28.29-40.05,0-14.97-6.03-28.02-14.97-34.91Z"/></g><g><rect class="cls-49" x="353.59" y="350.2" width="11.93" height="80.97"/><rect class="cls-17" x="361.32" y="350.2" width="3.15" height="80.97"/><path class="cls-40" d="m342.67,404.06c-15.73-.85-28.29-18.45-28.29-40.05,0-14.97,6.03-28.02,14.97-34.91,1.26-10.29,6.35-18.82,13.21-22.77-.03-.54-.05-1.08-.05-1.63,0-11.57,6.9-20.95,15.4-20.95.39,0,.77.02,1.16.06.38-.04.77-.06,1.16-.06,8.51,0,15.4,9.38,15.4,20.95,0,.55-.02,1.09-.05,1.63,6.86,3.95,11.96,12.48,13.21,22.77,8.94,6.88,14.97,19.94,14.97,34.91,0,21.6-12.56,39.21-28.29,40.05.1.95-32.92.95-32.83,0Z"/><path class="cls-37" d="m388.81,329.1c-1.26-10.29-6.35-18.82-13.21-22.77.03-.54.05-1.08.05-1.63,0-11.57-6.9-20.95-15.4-20.95-.39,0-.77.02-1.16.06v120.96c8.23,0,16.46-.24,16.41-.71,15.73-.85,28.29-18.45,28.29-40.05,0-14.97-6.03-28.02-14.97-34.91Z"/></g><g><rect class="cls-49" x="78.72" y="350.2" width="11.93" height="80.97"/><rect class="cls-17" x="86.45" y="350.2" width="3.15" height="80.97"/><path class="cls-40" d="m67.8,404.06c-15.73-.85-28.29-18.45-28.29-40.05,0-14.97,6.03-28.02,14.97-34.91,1.26-10.29,6.35-18.82,13.21-22.77-.03-.54-.05-1.08-.05-1.63,0-11.57,6.9-20.95,15.4-20.95.39,0,.77.02,1.16.06.38-.04.77-.06,1.16-.06,8.51,0,15.4,9.38,15.4,20.95,0,.55-.02,1.09-.05,1.63,6.86,3.95,11.96,12.48,13.21,22.77,8.94,6.88,14.97,19.94,14.97,34.91,0,21.6-12.56,39.21-28.29,40.05.1.95-32.92.95-32.83,0Z"/><path class="cls-37" d="m113.94,329.1c-1.26-10.29-6.35-18.82-13.21-22.77.03-.54.05-1.08.05-1.63,0-11.57-6.9-20.95-15.4-20.95-.39,0-.77.02-1.16.06v120.96c8.23,0,16.46-.24,16.41-.71,15.73-.85,28.29-18.45,28.29-40.05,0-14.97-6.03-28.02-14.97-34.91Z"/></g><g><rect class="cls-49" x="1219.2" y="350.2" width="11.93" height="80.97"/><rect class="cls-17" x="1226.92" y="350.2" width="3.15" height="80.97"/><path class="cls-40" d="m1208.27,404.06c-15.73-.85-28.29-18.45-28.29-40.05,0-14.97,6.03-28.02,14.97-34.91,1.26-10.29,6.35-18.82,13.21-22.77-.03-.54-.05-1.08-.05-1.63,0-11.57,6.9-20.95,15.4-20.95.39,0,.77.02,1.16.06.38-.04.77-.06,1.16-.06,8.51,0,15.4,9.38,15.4,20.95,0,.55-.02,1.09-.05,1.63,6.86,3.95,11.96,12.48,13.21,22.77,8.94,6.88,14.97,19.94,14.97,34.91,0,21.6-12.56,39.21-28.29,40.05.1.95-32.92.95-32.83,0Z"/><path class="cls-37" d="m1254.42,329.1c-1.26-10.29-6.35-18.82-13.21-22.77.03-.54.05-1.08.05-1.63,0-11.57-6.9-20.95-15.4-20.95-.39,0-.77.02-1.16.06v120.96c8.23,0,16.46-.24,16.41-.71,15.73-.85,28.29-18.45,28.29-40.05,0-14.97-6.03-28.02-14.97-34.91Z"/></g><g><rect class="cls-49" x="1579.11" y="350.2" width="11.93" height="80.97"/><rect class="cls-17" x="1586.84" y="350.2" width="3.15" height="80.97"/><path class="cls-40" d="m1568.19,404.06c-15.73-.85-28.29-18.45-28.29-40.05,0-14.97,6.03-28.02,14.97-34.91,1.26-10.29,6.35-18.82,13.21-22.77-.03-.54-.05-1.08-.05-1.63,0-11.57,6.9-20.95,15.4-20.95.39,0,.77.02,1.16.06.38-.04.77-.06,1.16-.06,8.51,0,15.4,9.38,15.4,20.95,0,.55-.02,1.09-.05,1.63,6.86,3.95,11.96,12.48,13.21,22.77,8.94,6.88,14.97,19.94,14.97,34.91,0,21.6-12.56,39.21-28.29,40.05.1.95-32.92.95-32.83,0Z"/><path class="cls-37" d="m1614.33,329.1c-1.26-10.29-6.35-18.82-13.21-22.77.03-.54.05-1.08.05-1.63,0-11.57-6.9-20.95-15.4-20.95-.39,0-.77.02-1.16.06v120.96c8.23,0,16.46-.24,16.41-.71,15.73-.85,28.29-18.45,28.29-40.05,0-14.97-6.03-28.02-14.97-34.91Z"/></g></g><g><g><g><path class="cls-68" d="m358.81,402.15v-13.85c0-2.95,2.4-5.36,5.36-5.36s5.36,2.4,5.36,5.36v13.85h-10.71Z"/><path class="cls-70" d="m364.17,383.21c2.8,0,5.08,2.29,5.08,5.08v13.58h-10.17v-13.58c0-2.8,2.29-5.08,5.08-5.08m0-.54c-3.1,0-5.63,2.53-5.63,5.63v14.12h11.26v-14.12c0-3.1-2.53-5.63-5.63-5.63h0Z"/></g><g><rect class="cls-49" x="375.36" y="401.92" width="4.1" height="27.8"/><rect class="cls-17" x="378.37" y="401.92" width="1.08" height="27.8"/><path class="cls-54" d="m388.38,383.91h0s0,0,0,0c-.09-.02-.18-.03-.28-.04l-23.04-3.45,5.74,23.18,21.48-2.35v-12.67c0-2.32-1.69-4.27-3.9-4.67Z"/><polygon class="cls-46" points="366.63 387.04 370.8 403.6 392.28 401.25 392.28 388.72 366.63 387.04"/><polygon class="cls-66" points="369.71 400.87 370.8 403.6 392.28 401.25 392.28 399.11 369.71 400.87"/><path class="cls-68" d="m370.8,403.6v-16.6c0-3.65-2.99-6.64-6.64-6.64h0c-3.65,0-6.64,2.99-6.64,6.64v16.6h13.27Z"/><path class="cls-5" d="m369.25,401.88v-13.58c0-2.8-2.29-5.08-5.08-5.08h0c-2.8,0-5.08,2.29-5.08,5.08v13.58h10.17Z"/><circle class="cls-85" cx="364.05" cy="387.89" r="1.02"/><g><path class="cls-43" d="m381.44,378.55h-5.55s-.02,0-.03,0c0,0-.02,0-.03,0h0c-.52,0-.94.42-.94.94v12.12c0,.52.42.94.94.94h0c.52,0,.94-.42.94-.94v-9.12h4.67c.55,0,1-.45,1-1v-1.94c0-.55-.45-1-1-1Z"/><path class="cls-73" d="m381.44,378.92h-5.55s-.02,0-.03,0c0,0-.02,0-.03,0h0c-.52,0-.94.42-.94.94v12.12c0,.52.42.94.94.94h0c.52,0,.94-.42.94-.94v-9.12h4.67c.55,0,1-.45,1-1v-1.94c0-.55-.45-1-1-1Z"/><circle class="cls-43" cx="375.86" cy="391.91" r=".43"/></g></g></g><g><g><path class="cls-68" d="m569.61,402.15v-13.85c0-2.95,2.4-5.36,5.36-5.36s5.36,2.4,5.36,5.36v13.85h-10.71Z"/><path class="cls-70" d="m574.97,383.21c2.8,0,5.08,2.29,5.08,5.08v13.58h-10.17v-13.58c0-2.8,2.29-5.08,5.08-5.08h0m0-.54c-3.1,0-5.63,2.53-5.63,5.63v14.12h11.26v-14.12c0-3.1-2.53-5.63-5.63-5.63h0Z"/></g><g><rect class="cls-49" x="586.16" y="401.92" width="4.1" height="27.8"/><rect class="cls-17" x="589.18" y="401.92" width="1.08" height="27.8"/><path class="cls-54" d="m599.18,383.91h0s0,0,0,0c-.09-.02-.18-.03-.28-.04l-23.04-3.45,5.74,23.18,21.48-2.35v-12.67c0-2.32-1.69-4.27-3.9-4.67Z"/><polygon class="cls-46" points="577.43 387.04 581.61 403.6 603.08 401.25 603.08 388.72 577.43 387.04"/><polygon class="cls-66" points="580.51 400.87 581.61 403.6 603.08 401.25 603.08 399.11 580.51 400.87"/><path class="cls-68" d="m581.61,403.6v-16.6c0-3.65-2.99-6.64-6.64-6.64h0c-3.65,0-6.64,2.99-6.64,6.64v16.6h13.27Z"/><path class="cls-5" d="m580.05,401.88v-13.58c0-2.8-2.29-5.08-5.08-5.08h0c-2.8,0-5.08,2.29-5.08,5.08v13.58h10.17Z"/><circle class="cls-85" cx="574.85" cy="387.89" r="1.02"/><g><path class="cls-26" d="m592.25,378.55h-5.55s-.02,0-.03,0c0,0-.02,0-.03,0h0c-.52,0-.94.42-.94.94v12.12c0,.52.42.94.94.94h0c.52,0,.94-.42.94-.94v-9.12h4.67c.55,0,1-.45,1-1v-1.94c0-.55-.45-1-1-1Z"/><path class="cls-32" d="m592.25,378.92h-5.55s-.02,0-.03,0c0,0-.02,0-.03,0h0c-.52,0-.94.42-.94.94v12.12c0,.52.42.94.94.94h0c.52,0,.94-.42.94-.94v-9.12h4.67c.55,0,1-.45,1-1v-1.94c0-.55-.45-1-1-1Z"/><circle class="cls-26" cx="586.66" cy="391.91" r=".43"/></g></g></g><g><g><path class="cls-68" d="m713.3,402.15v-13.85c0-2.95,2.4-5.36,5.36-5.36s5.36,2.4,5.36,5.36v13.85h-10.71Z"/><path class="cls-70" d="m718.66,383.21c2.8,0,5.08,2.29,5.08,5.08v13.58h-10.17v-13.58c0-2.8,2.29-5.08,5.08-5.08m0-.54c-3.1,0-5.63,2.53-5.63,5.63v14.12h11.26v-14.12c0-3.1-2.53-5.63-5.63-5.63h0Z"/></g><g><rect class="cls-49" x="729.85" y="401.92" width="4.1" height="27.8"/><rect class="cls-17" x="732.87" y="401.92" width="1.08" height="27.8"/><path class="cls-54" d="m742.88,383.91h0s0,0,0,0c-.09-.02-.18-.03-.28-.04l-23.04-3.45,5.74,23.18,21.48-2.35v-12.67c0-2.32-1.69-4.27-3.9-4.67Z"/><polygon class="cls-46" points="721.12 387.04 725.3 403.6 746.78 401.25 746.78 388.72 721.12 387.04"/><polygon class="cls-66" points="724.21 400.87 725.3 403.6 746.78 401.25 746.78 399.11 724.21 400.87"/><path class="cls-68" d="m725.3,403.6v-16.6c0-3.65-2.99-6.64-6.64-6.64h0c-3.65,0-6.64,2.99-6.64,6.64v16.6h13.27Z"/><path class="cls-5" d="m723.75,401.88v-13.58c0-2.8-2.29-5.08-5.08-5.08h0c-2.8,0-5.08,2.29-5.08,5.08v13.58h10.17Z"/><circle class="cls-85" cx="718.54" cy="387.89" r="1.02"/><g><path class="cls-59" d="m735.94,378.55h-5.55s-.02,0-.03,0c0,0-.02,0-.03,0h0c-.52,0-.94.42-.94.94v12.12c0,.52.42.94.94.94h0c.52,0,.94-.42.94-.94v-9.12h4.67c.55,0,1-.45,1-1v-1.94c0-.55-.45-1-1-1Z"/><path class="cls-13" d="m735.94,378.92h-5.55s-.02,0-.03,0c0,0-.02,0-.03,0h0c-.52,0-.94.42-.94.94v12.12c0,.52.42.94.94.94h0c.52,0,.94-.42.94-.94v-9.12h4.67c.55,0,1-.45,1-1v-1.94c0-.55-.45-1-1-1Z"/><circle class="cls-59" cx="730.35" cy="391.91" r=".43"/></g></g></g><g><g><path class="cls-68" d="m953,402.15v-13.85c0-2.95,2.4-5.36,5.36-5.36s5.36,2.4,5.36,5.36v13.85h-10.71Z"/><path class="cls-70" d="m958.36,383.21c2.8,0,5.08,2.29,5.08,5.08v13.58h-10.17v-13.58c0-2.8,2.29-5.08,5.08-5.08m0-.54c-3.1,0-5.63,2.53-5.63,5.63v14.12h11.26v-14.12c0-3.1-2.53-5.63-5.63-5.63h0Z"/></g><g><rect class="cls-49" x="969.55" y="401.92" width="4.1" height="27.8"/><rect class="cls-17" x="972.56" y="401.92" width="1.08" height="27.8"/><path class="cls-54" d="m982.57,383.91h0s0,0,0,0c-.09-.02-.18-.03-.28-.04l-23.04-3.45,5.74,23.18,21.48-2.35v-12.67c0-2.32-1.69-4.27-3.9-4.67Z"/><polygon class="cls-46" points="960.82 387.04 964.99 403.6 986.47 401.25 986.47 388.72 960.82 387.04"/><polygon class="cls-66" points="963.9 400.87 964.99 403.6 986.47 401.25 986.47 399.11 963.9 400.87"/><path class="cls-68" d="m964.99,403.6v-16.6c0-3.65-2.99-6.64-6.64-6.64h0c-3.65,0-6.64,2.99-6.64,6.64v16.6h13.27Z"/><path class="cls-5" d="m963.44,401.88v-13.58c0-2.8-2.29-5.08-5.08-5.08h0c-2.8,0-5.08,2.29-5.08,5.08v13.58h10.17Z"/><circle class="cls-85" cx="958.24" cy="387.89" r="1.02"/><g><path class="cls-50" d="m975.63,378.55h-5.55s-.02,0-.03,0c0,0-.02,0-.03,0h0c-.52,0-.94.42-.94.94v12.12c0,.52.42.94.94.94h0c.52,0,.94-.42.94-.94v-9.12h4.67c.55,0,1-.45,1-1v-1.94c0-.55-.45-1-1-1Z"/><path class="cls-22" d="m975.63,378.92h-5.55s-.02,0-.03,0c0,0-.02,0-.03,0h0c-.52,0-.94.42-.94.94v12.12c0,.52.42.94.94.94h0c.52,0,.94-.42.94-.94v-9.12h4.67c.55,0,1-.45,1-1v-1.94c0-.55-.45-1-1-1Z"/><circle class="cls-50" cx="970.05" cy="391.91" r=".43"/></g></g></g><g><g><path class="cls-68" d="m1076.31,402.15v-13.85c0-2.95,2.4-5.36,5.36-5.36s5.36,2.4,5.36,5.36v13.85h-10.71Z"/><path class="cls-70" d="m1081.67,383.21c2.8,0,5.08,2.29,5.08,5.08v13.58h-10.17v-13.58c0-2.8,2.29-5.08,5.08-5.08h0m0-.54c-3.1,0-5.63,2.53-5.63,5.63v14.12h11.26v-14.12c0-3.1-2.53-5.63-5.63-5.63h0Z"/></g><g><rect class="cls-49" x="1092.86" y="401.92" width="4.1" height="27.8"/><rect class="cls-17" x="1095.88" y="401.92" width="1.08" height="27.8"/><path class="cls-54" d="m1105.88,383.91h0s0,0,0,0c-.09-.02-.18-.03-.28-.04l-23.04-3.45,5.74,23.18,21.48-2.35v-12.67c0-2.32-1.69-4.27-3.9-4.67Z"/><polygon class="cls-46" points="1084.13 387.04 1088.31 403.6 1109.78 401.25 1109.78 388.72 1084.13 387.04"/><polygon class="cls-66" points="1087.22 400.87 1088.31 403.6 1109.78 401.25 1109.78 399.11 1087.22 400.87"/><path class="cls-68" d="m1088.31,403.6v-16.6c0-3.65-2.99-6.64-6.64-6.64h0c-3.65,0-6.64,2.99-6.64,6.64v16.6h13.27Z"/><path class="cls-5" d="m1086.76,401.88v-13.58c0-2.8-2.29-5.08-5.08-5.08h0c-2.8,0-5.08,2.29-5.08,5.08v13.58h10.17Z"/><circle class="cls-85" cx="1081.55" cy="387.89" r="1.02"/><g><path class="cls-12" d="m1098.95,378.55h-5.55s-.02,0-.03,0c0,0-.02,0-.03,0h0c-.52,0-.94.42-.94.94v12.12c0,.52.42.94.94.94h0c.52,0,.94-.42.94-.94v-9.12h4.67c.55,0,1-.45,1-1v-1.94c0-.55-.45-1-1-1Z"/><path class="cls-53" d="m1098.95,378.92h-5.55s-.02,0-.03,0c0,0-.02,0-.03,0h0c-.52,0-.94.42-.94.94v12.12c0,.52.42.94.94.94h0c.52,0,.94-.42.94-.94v-9.12h4.67c.55,0,1-.45,1-1v-1.94c0-.55-.45-1-1-1Z"/><circle class="cls-12" cx="1093.36" cy="391.91" r=".43"/></g></g></g><g><g><path class="cls-68" d="m227.5,402.15v-13.85c0-2.95,2.4-5.36,5.36-5.36s5.36,2.4,5.36,5.36v13.85h-10.71Z"/><path class="cls-70" d="m232.85,383.21c2.8,0,5.08,2.29,5.08,5.08v13.58h-10.17v-13.58c0-2.8,2.29-5.08,5.08-5.08m0-.54c-3.1,0-5.63,2.53-5.63,5.63v14.12h11.26v-14.12c0-3.1-2.53-5.63-5.63-5.63h0Z"/></g><g><rect class="cls-49" x="244.04" y="401.92" width="4.1" height="27.8"/><rect class="cls-17" x="247.06" y="401.92" width="1.08" height="27.8"/><path class="cls-54" d="m257.07,383.91h0s0,0,0,0c-.09-.02-.18-.03-.28-.04l-23.04-3.45,5.74,23.18,21.48-2.35v-12.67c0-2.32-1.69-4.27-3.9-4.67Z"/><polygon class="cls-46" points="235.31 387.04 239.49 403.6 260.97 401.25 260.97 388.72 235.31 387.04"/><polygon class="cls-66" points="238.4 400.87 239.49 403.6 260.97 401.25 260.97 399.11 238.4 400.87"/><path class="cls-68" d="m239.49,403.6v-16.6c0-3.65-2.99-6.64-6.64-6.64h0c-3.65,0-6.64,2.99-6.64,6.64v16.6h13.27Z"/><path class="cls-5" d="m237.94,401.88v-13.58c0-2.8-2.29-5.08-5.08-5.08h0c-2.8,0-5.08,2.29-5.08,5.08v13.58h10.17Z"/><circle class="cls-85" cx="232.73" cy="387.89" r="1.02"/><g><path class="cls-12" d="m250.13,378.55h-5.55s-.02,0-.03,0c0,0-.02,0-.03,0h0c-.52,0-.94.42-.94.94v12.12c0,.52.42.94.94.94h0c.52,0,.94-.42.94-.94v-9.12h4.67c.55,0,1-.45,1-1v-1.94c0-.55-.45-1-1-1Z"/><path class="cls-53" d="m250.13,378.92h-5.55s-.02,0-.03,0c0,0-.02,0-.03,0h0c-.52,0-.94.42-.94.94v12.12c0,.52.42.94.94.94h0c.52,0,.94-.42.94-.94v-9.12h4.67c.55,0,1-.45,1-1v-1.94c0-.55-.45-1-1-1Z"/><circle class="cls-12" cx="244.55" cy="391.91" r=".43"/></g></g></g><g><g><path class="cls-68" d="m1225.48,402.15v-13.85c0-2.95,2.4-5.36,5.36-5.36s5.36,2.4,5.36,5.36v13.85h-10.71Z"/><path class="cls-70" d="m1230.84,383.21c2.8,0,5.08,2.29,5.08,5.08v13.58h-10.17v-13.58c0-2.8,2.29-5.08,5.08-5.08m0-.54c-3.1,0-5.63,2.53-5.63,5.63v14.12h11.26v-14.12c0-3.1-2.53-5.63-5.63-5.63h0Z"/></g><g><rect class="cls-49" x="1242.03" y="401.92" width="4.1" height="27.8"/><rect class="cls-17" x="1245.04" y="401.92" width="1.08" height="27.8"/><path class="cls-54" d="m1255.05,383.91h0s0,0,0,0c-.09-.02-.18-.03-.28-.04l-23.04-3.45,5.74,23.18,21.48-2.35v-12.67c0-2.32-1.69-4.27-3.9-4.67Z"/><polygon class="cls-46" points="1233.3 387.04 1237.47 403.6 1258.95 401.25 1258.95 388.72 1233.3 387.04"/><polygon class="cls-66" points="1236.38 400.87 1237.47 403.6 1258.95 401.25 1258.95 399.11 1236.38 400.87"/><path class="cls-68" d="m1237.47,403.6v-16.6c0-3.65-2.99-6.64-6.64-6.64h0c-3.65,0-6.64,2.99-6.64,6.64v16.6h13.27Z"/><path class="cls-5" d="m1235.92,401.88v-13.58c0-2.8-2.29-5.08-5.08-5.08h0c-2.8,0-5.08,2.29-5.08,5.08v13.58h10.17Z"/><circle class="cls-85" cx="1230.72" cy="387.89" r="1.02"/><g><path class="cls-43" d="m1248.11,378.55h-5.55s-.02,0-.03,0c0,0-.02,0-.03,0h0c-.52,0-.94.42-.94.94v12.12c0,.52.42.94.94.94h0c.52,0,.94-.42.94-.94v-9.12h4.67c.55,0,1-.45,1-1v-1.94c0-.55-.45-1-1-1Z"/><path class="cls-73" d="m1248.11,378.92h-5.55s-.02,0-.03,0c0,0-.02,0-.03,0h0c-.52,0-.94.42-.94.94v12.12c0,.52.42.94.94.94h0c.52,0,.94-.42.94-.94v-9.12h4.67c.55,0,1-.45,1-1v-1.94c0-.55-.45-1-1-1Z"/><circle class="cls-43" cx="1242.53" cy="391.91" r=".43"/></g></g></g><g><g><path class="cls-68" d="m1356.78,402.15v-13.85c0-2.95,2.4-5.36,5.36-5.36s5.36,2.4,5.36,5.36v13.85h-10.71Z"/><path class="cls-70" d="m1362.14,383.21c2.8,0,5.08,2.29,5.08,5.08v13.58h-10.17v-13.58c0-2.8,2.29-5.08,5.08-5.08m0-.54c-3.1,0-5.63,2.53-5.63,5.63v14.12h11.26v-14.12c0-3.1-2.53-5.63-5.63-5.63h0Z"/></g><g><rect class="cls-49" x="1373.33" y="401.92" width="4.1" height="27.8"/><rect class="cls-17" x="1376.35" y="401.92" width="1.08" height="27.8"/><path class="cls-54" d="m1386.35,383.91h0s0,0,0,0c-.09-.02-.18-.03-.28-.04l-23.04-3.45,5.74,23.18,21.48-2.35v-12.67c0-2.32-1.69-4.27-3.9-4.67Z"/><polygon class="cls-46" points="1364.6 387.04 1368.78 403.6 1390.25 401.25 1390.25 388.72 1364.6 387.04"/><polygon class="cls-66" points="1367.69 400.87 1368.78 403.6 1390.25 401.25 1390.25 399.11 1367.69 400.87"/><path class="cls-68" d="m1368.78,403.6v-16.6c0-3.65-2.99-6.64-6.64-6.64h0c-3.65,0-6.64,2.99-6.64,6.64v16.6h13.27Z"/><path class="cls-5" d="m1367.23,401.88v-13.58c0-2.8-2.29-5.08-5.08-5.08h0c-2.8,0-5.08,2.29-5.08,5.08v13.58h10.17Z"/><circle class="cls-85" cx="1362.02" cy="387.89" r="1.02"/><g><path class="cls-50" d="m1379.42,378.55h-5.55s-.02,0-.03,0c0,0-.02,0-.03,0h0c-.52,0-.94.42-.94.94v12.12c0,.52.42.94.94.94h0c.52,0,.94-.42.94-.94v-9.12h4.67c.55,0,1-.45,1-1v-1.94c0-.55-.45-1-1-1Z"/><path class="cls-22" d="m1379.42,378.92h-5.55s-.02,0-.03,0c0,0-.02,0-.03,0h0c-.52,0-.94.42-.94.94v12.12c0,.52.42.94.94.94h0c.52,0,.94-.42.94-.94v-9.12h4.67c.55,0,1-.45,1-1v-1.94c0-.55-.45-1-1-1Z"/><circle class="cls-50" cx="1373.83" cy="391.91" r=".43"/></g></g></g><g><g><path class="cls-68" d="m1554.26,402.15v-13.85c0-2.95,2.4-5.36,5.36-5.36s5.36,2.4,5.36,5.36v13.85h-10.71Z"/><path class="cls-70" d="m1559.62,383.21c2.8,0,5.08,2.29,5.08,5.08v13.58h-10.17v-13.58c0-2.8,2.29-5.08,5.08-5.08m0-.54c-3.1,0-5.63,2.53-5.63,5.63v14.12h11.26v-14.12c0-3.1-2.53-5.63-5.63-5.63h0Z"/></g><g><rect class="cls-49" x="1570.81" y="401.92" width="4.1" height="27.8"/><rect class="cls-17" x="1573.83" y="401.92" width="1.08" height="27.8"/><path class="cls-54" d="m1583.84,383.91h0s0,0,0,0c-.09-.02-.18-.03-.28-.04l-23.04-3.45,5.74,23.18,21.48-2.35v-12.67c0-2.32-1.69-4.27-3.9-4.67Z"/><polygon class="cls-46" points="1562.08 387.04 1566.26 403.6 1587.74 401.25 1587.74 388.72 1562.08 387.04"/><polygon class="cls-66" points="1565.17 400.87 1566.26 403.6 1587.74 401.25 1587.74 399.11 1565.17 400.87"/><path class="cls-68" d="m1566.26,403.6v-16.6c0-3.65-2.99-6.64-6.64-6.64h0c-3.65,0-6.64,2.99-6.64,6.64v16.6h13.27Z"/><path class="cls-5" d="m1564.71,401.88v-13.58c0-2.8-2.29-5.08-5.08-5.08h0c-2.8,0-5.08,2.29-5.08,5.08v13.58h10.17Z"/><circle class="cls-85" cx="1559.5" cy="387.89" r="1.02"/><g><path class="cls-59" d="m1576.9,378.55h-5.55s-.02,0-.03,0c0,0-.02,0-.03,0h0c-.52,0-.94.42-.94.94v12.12c0,.52.42.94.94.94h0c.52,0,.94-.42.94-.94v-9.12h4.67c.55,0,1-.45,1-1v-1.94c0-.55-.45-1-1-1Z"/><path class="cls-13" d="m1576.9,378.92h-5.55s-.02,0-.03,0c0,0-.02,0-.03,0h0c-.52,0-.94.42-.94.94v12.12c0,.52.42.94.94.94h0c.52,0,.94-.42.94-.94v-9.12h4.67c.55,0,1-.45,1-1v-1.94c0-.55-.45-1-1-1Z"/><circle class="cls-59" cx="1571.31" cy="391.91" r=".43"/></g></g></g><g><g><path class="cls-68" d="m98.09,402.15v-13.85c0-2.95,2.4-5.36,5.36-5.36s5.36,2.4,5.36,5.36v13.85h-10.71Z"/><path class="cls-70" d="m103.45,383.21c2.8,0,5.08,2.29,5.08,5.08v13.58h-10.17v-13.58c0-2.8,2.29-5.08,5.08-5.08h0m0-.54c-3.1,0-5.63,2.53-5.63,5.63v14.12h11.26v-14.12c0-3.1-2.53-5.63-5.63-5.63h0Z"/></g><g><rect class="cls-49" x="114.64" y="401.92" width="4.1" height="27.8"/><rect class="cls-17" x="117.66" y="401.92" width="1.08" height="27.8"/><path class="cls-54" d="m127.66,383.91h0s0,0,0,0c-.09-.02-.18-.03-.28-.04l-23.04-3.45,5.74,23.18,21.48-2.35v-12.67c0-2.32-1.69-4.27-3.9-4.67Z"/><polygon class="cls-46" points="105.91 387.04 110.09 403.6 131.56 401.25 131.56 388.72 105.91 387.04"/><polygon class="cls-66" points="108.99 400.87 110.09 403.6 131.56 401.25 131.56 399.11 108.99 400.87"/><path class="cls-68" d="m110.09,403.6v-16.6c0-3.65-2.99-6.64-6.64-6.64h0c-3.65,0-6.64,2.99-6.64,6.64v16.6h13.27Z"/><path class="cls-5" d="m108.54,401.88v-13.58c0-2.8-2.29-5.08-5.08-5.08h0c-2.8,0-5.08,2.29-5.08,5.08v13.58h10.17Z"/><circle class="cls-85" cx="103.33" cy="387.89" r="1.02"/><g><path class="cls-59" d="m120.73,378.55h-5.55s-.02,0-.03,0c0,0-.02,0-.03,0h0c-.52,0-.94.42-.94.94v12.12c0,.52.42.94.94.94h0c.52,0,.94-.42.94-.94v-9.12h4.67c.55,0,1-.45,1-1v-1.94c0-.55-.45-1-1-1Z"/><path class="cls-13" d="m120.73,378.92h-5.55s-.02,0-.03,0c0,0-.02,0-.03,0h0c-.52,0-.94.42-.94.94v12.12c0,.52.42.94.94.94h0c.52,0,.94-.42.94-.94v-9.12h4.67c.55,0,1-.45,1-1v-1.94c0-.55-.45-1-1-1Z"/><circle class="cls-59" cx="115.14" cy="391.91" r=".43"/></g></g></g></g></g><g><g><g><rect class="cls-70" x="1153.66" y="403.51" width="99.04" height="1.9" rx=".95" ry=".95"/><rect class="cls-70" x="1184.66" y="404.45" width="5.31" height="4.3" rx=".33" ry=".33"/><rect class="cls-70" x="1166.24" y="404.45" width="5.31" height="4.3" rx=".33" ry=".33"/><rect class="cls-70" x="1243.08" y="404.45" width="5.31" height="4.3" rx=".33" ry=".33"/><path class="cls-19" d="m1086.33,467.64l-4.23-5.18c-3.62-4.43-3.76-10.75-.34-15.33l2.59-3.48c1.35-1.82,3.17-3.23,5.27-4.09l19.75-8.09c.28-.11.55-.24.82-.37l40.85-20.27c1.72-.85,3.62-1.3,5.54-1.3h85.55c4.98,0,9.48,2.97,11.45,7.54l8.45,19.68c.59,1.38.93,2.87,1,4.37l.79,18.07c.31,7.09-5.35,13.01-12.45,13.01h-155.39c-3.74,0-7.28-1.68-9.65-4.58Z"/><rect class="cls-21" x="1083.26" y="468.73" width="182.58" height="4.3" rx="2.05" ry="2.05"/><path class="cls-18" d="m1123.82,436.18v-6.25c0-.96.52-1.84,1.36-2.29l15.97-8.75c3.77-2.06,8-3.15,12.3-3.15h18.18c1.44,0,2.62,1.17,2.62,2.62v17.82c0,1.44-1.17,2.62-2.62,2.62h-45.19c-1.44,0-2.62-1.17-2.62-2.62Z"/><path class="cls-18" d="m1110.21,436.49l9.66-5.44c.82-.46,1.84.13,1.84,1.08v5.44c0,.68-.55,1.23-1.23,1.23h-9.66c-1.27,0-1.71-1.69-.61-2.31Z"/><rect class="cls-71" x="1080.51" y="462.39" width="188.08" height="7.95" rx="2.83" ry="2.83"/><rect class="cls-71" x="1074.35" y="452.72" width="17.59" height="7.95" rx="3.97" ry="3.97"/><path class="cls-8" d="m1080.08,451h13.32c.44,0,.8-.36.8-.8v-6.35c0-.44-.36-.8-.8-.8h-6.97c-3.93,0-7.15,3.22-7.15,7.15h0c0,.44.36.8.8.8Z"/><rect class="cls-56" x="1094.92" y="443.05" width="3.22" height="7.95" rx=".37" ry=".37"/><path class="cls-63" d="m1259.39,453.05v-8.1c0-.35.28-.63.63-.63h6.68c.35,0,.63.28.63.63v3.07c0,3.12-2.55,5.67-5.67,5.67h-1.65c-.35,0-.63-.28-.63-.63Z"/><path class="cls-71" d="m1248.39,408.04v2.39c0,3.49,2.85,6.34,6.34,6.34h.97c.35,0,.63-.28.63-.63v-3.07c0-3.12-2.55-5.67-5.67-5.67h-1.65c-.35,0-.63.28-.63.63Z"/><rect class="cls-56" x="1259.39" y="440.37" width="7.95" height="3.22" rx=".37" ry=".37"/><rect class="cls-3" x="1168.25" y="442.84" width="17.21" height="4.3" rx=".63" ry=".63"/><rect class="cls-19" x="1178.34" y="444.62" width="2.98" height=".74" rx=".11" ry=".11"/><rect class="cls-19" x="1172.6" y="444.62" width="2.98" height=".74" rx=".11" ry=".11"/><rect class="cls-71" x="1153.66" y="407.41" width="99.04" height="4.3" rx="1.43" ry="1.43"/><circle class="cls-3" cx="1237.51" cy="446.62" r="3.93"/><path class="cls-18" d="m1258.91,434.68l-7.32-17.82c-.49-.7-1.29-1.12-2.14-1.12h-67.14c-1.44,0-2.62,1.17-2.62,2.62v17.82c0,1.44,1.17,2.62,2.62,2.62h74.46c2.12,0,3.36-2.38,2.14-4.11Z"/><polygon class="cls-48" points="1222.17 464.73 1222.67 464.73 1222.67 444.91 1228.61 438.97 1228.61 415.75 1228.11 415.75 1228.11 438.76 1222.17 444.71 1222.17 464.73"/><rect class="cls-48" x="1125.23" y="438.32" width=".5" height="24.08"/><path class="cls-3" d="m1126.53,441.13l1.69-1.69c2.47-2.47,2.47-6.5,0-8.97l-.69-.69c-.25-.25-.65-.25-.89,0l-2.17,2.17c-2.2,2.2-2.2,5.81,0,8.01l1.17,1.17c.25.25.65.25.89,0Z"/><rect class="cls-48" x="1176.61" y="411.7" width=".5" height="50.69"/><g><circle class="cls-38" cx="1237.86" cy="470.88" r="12.66"/><circle class="cls-68" cx="1237.86" cy="472.22" r="7.2"/><circle class="cls-66" cx="1237.86" cy="472.22" r="6.58"/><circle class="cls-48" cx="1237.86" cy="472.22" r="2.79"/><circle class="cls-38" cx="1237.86" cy="472.22" r="1.34"/><circle class="cls-76" cx="1237.86" cy="472.22" r=".7"/><rect class="cls-21" x="1237.16" y="467.89" width="1.4" height=".5" rx=".25" ry=".25" transform="translate(2475.73 936.27) rotate(-180)"/><rect class="cls-21" x="1237.16" y="476.24" width="1.4" height=".5" rx=".25" ry=".25" transform="translate(2475.73 952.98) rotate(180)"/><rect class="cls-21" x="1232.99" y="472.06" width="1.4" height=".5" rx=".25" ry=".25" transform="translate(1706 -761.38) rotate(90)"/><rect class="cls-21" x="1241.34" y="472.06" width="1.4" height=".5" rx=".25" ry=".25" transform="translate(1714.35 -769.73) rotate(90)"/><rect class="cls-21" x="1234.21" y="475.02" width="1.4" height=".5" rx=".25" ry=".25" transform="translate(697.76 -734.01) rotate(45)"/><rect class="cls-21" x="1240.12" y="469.11" width="1.4" height=".5" rx=".25" ry=".25" transform="translate(695.31 -739.92) rotate(45)"/><rect class="cls-21" x="1240.12" y="475.02" width="1.4" height=".5" rx=".25" ry=".25" transform="translate(27.36 1016.59) rotate(-45)"/><rect class="cls-21" x="1234.21" y="469.11" width="1.4" height=".5" rx=".25" ry=".25" transform="translate(29.81 1010.69) rotate(-45)"/></g><g><circle class="cls-38" cx="1111.91" cy="470.88" r="12.66"/><circle class="cls-68" cx="1111.91" cy="472.22" r="7.2"/><circle class="cls-66" cx="1111.91" cy="472.22" r="6.58"/><circle class="cls-48" cx="1111.91" cy="472.22" r="2.79"/><circle class="cls-38" cx="1111.91" cy="472.22" r="1.34"/><circle class="cls-76" cx="1111.91" cy="472.22" r=".7"/><rect class="cls-21" x="1111.21" y="467.89" width="1.4" height=".5" rx=".25" ry=".25" transform="translate(2223.83 936.27) rotate(180)"/><rect class="cls-21" x="1111.21" y="476.24" width="1.4" height=".5" rx=".25" ry=".25" transform="translate(2223.83 952.98) rotate(180)"/><rect class="cls-21" x="1107.04" y="472.06" width="1.4" height=".5" rx=".25" ry=".25" transform="translate(1580.05 -635.43) rotate(90)"/><rect class="cls-21" x="1115.39" y="472.06" width="1.4" height=".5" rx=".25" ry=".25" transform="translate(1588.4 -643.78) rotate(90)"/><rect class="cls-21" x="1108.26" y="475.02" width="1.4" height=".5" rx=".25" ry=".25" transform="translate(660.87 -644.95) rotate(45)"/><rect class="cls-21" x="1114.17" y="469.11" width="1.4" height=".5" rx=".25" ry=".25" transform="translate(658.42 -650.86) rotate(45)"/><rect class="cls-21" x="1114.17" y="475.02" width="1.4" height=".5" rx=".25" ry=".25" transform="translate(-9.53 927.53) rotate(-45)"/><rect class="cls-21" x="1108.26" y="469.11" width="1.4" height=".5" rx=".25" ry=".25" transform="translate(-7.08 921.63) rotate(-45)"/></g><g><path class="cls-3" d="m1093.82,470.02c1.33-8.88,9.11-15.58,18.11-15.58,8.99,0,16.78,6.7,18.1,15.58.15,1-6.56,2.72-6.83,1-.84-5.51-5.69-9.67-11.28-9.67-5.59,0-10.44,4.16-11.28,9.67-.26,1.73-6.98,0-6.83-1Z"/><path class="cls-3" d="m1237.51,454.44c8.99,0,16.78,6.7,18.11,15.58.15,1-6.56,2.72-6.83,1-.84-5.51-5.69-9.67-11.28-9.67s-10.44,4.16-11.28,9.67c-.26,1.73-6.98,0-6.83-1,1.33-8.88,9.11-15.58,18.11-15.58Z"/></g><polygon class="cls-72" points="1208.19 438.8 1218.32 438.8 1203.18 415.75 1193.06 415.75 1208.19 438.8"/><polygon class="cls-72" points="1252.7 438.8 1255.57 438.8 1240.44 415.75 1237.56 415.75 1252.7 438.8"/><polygon class="cls-72" points="1166.99 438.8 1170.7 438.8 1155.56 415.75 1151.85 415.75 1166.99 438.8"/></g><g><polygon class="cls-2" points="1194.06 458.19 1217.38 458.19 1212.44 442.84 1189.11 442.84 1194.06 458.19"/><g><path class="cls-16" d="m1213.38,451.29s-.09-.32-.18-.62c-1.79-1.09-6.11-6.51-12.18-5.24-5.45,1.14-4.91,3.62-4.91,3.62,0,0-3.29,2.08.13,4.39-.18-.43.64-2.98,2.9-3.15,2.62-.2,6.81,2.15,6.27,6.04.03.23.06.35.12.62,1.84-1.33,7.85-5.65,7.85-5.65Z"/><path class="cls-8" d="m1213.2,450.67s-5.55-6.6-12.69-5.62c-5.51.76-4.91,3.62-4.91,3.62,0,0-3.29,2.08.13,4.39-.18-.43.64-2.98,2.9-3.15,2.72-.2,6.97,2.31,6.78,6.42,1.84-1.33,7.79-5.65,7.79-5.65Z"/><path class="cls-1" d="m1195.6,448.67c5.14-5.73,15.92,3.22,15.92,3.22l-1.66,1.2s-7.84-8.74-14.26-4.43Z"/><path class="cls-1" d="m1198.22,447.64c0,.42.56.76,1.26.76s1.26-.34,1.26-.76-2.51-.42-2.51,0Z"/><path class="cls-8" d="m1198.9,447.6c0,.22.26.39.58.39s.58-.17.58-.39"/><polygon class="cls-9" points="1211.52 451.89 1211.52 452.65 1209.95 453.76 1209.86 453.09 1211.52 451.89"/></g></g></g><g><path class="cls-30" d="m1149.09,401.41s-8.02,14.95-6.56,18.33,5.93,6.2,10.94,4.74c-.09,2.28-.27,4.92-.27,4.92l13.77-2.28-.64-13.49s1.73-.82,1.73-3.1-2.28-2.1-2.28-2.1c0,0,1.45-3.56,1.36-7.66-6.84-1.28-16.13-3.19-18.04.64Z"/><ellipse class="cls-79" cx="1146.25" cy="409.49" rx="2.76" ry="2.17" transform="translate(235.19 1216.67) rotate(-61.2)"/><ellipse class="cls-79" cx="1154.75" cy="409.59" rx="2.76" ry="2.17" transform="translate(239.51 1224.17) rotate(-61.2)"/><polygon class="cls-6" points="1166.96 427.12 1171.13 438.68 1149.12 438.68 1153.64 429.32 1166.96 427.12"/><path class="cls-60" d="m1166.96,427.12l4.17,11.57h-22.01s1.78-4.32,5.42-7.22c3.64-2.9,12.42-4.35,12.42-4.35Z"/><ellipse class="cls-88" cx="1146.09" cy="409.33" rx="2.76" ry="2.17" transform="translate(235.25 1216.44) rotate(-61.2)"/><ellipse class="cls-27" cx="1146.09" cy="409.33" rx="1.51" ry="1.19" transform="translate(235.25 1216.44) rotate(-61.2)"/><ellipse class="cls-88" cx="1154.59" cy="409.42" rx="2.76" ry="2.17" transform="translate(239.57 1223.94) rotate(-61.2)"/><ellipse class="cls-27" cx="1154.59" cy="409.42" rx="1.69" ry="1.33" transform="translate(239.57 1223.94) rotate(-61.2)"/><ellipse class="cls-84" cx="1146.09" cy="409.33" rx=".9" ry=".71" transform="translate(235.25 1216.44) rotate(-61.2)"/><ellipse class="cls-88" cx="1146.01" cy="408.37" rx=".53" ry=".42" transform="translate(236.04 1215.88) rotate(-61.2)"/><ellipse class="cls-84" cx="1154.44" cy="409.42" rx=".99" ry=".78" transform="translate(239.5 1223.81) rotate(-61.2)"/><ellipse class="cls-88" cx="1154.17" cy="408.37" rx=".57" ry=".44" transform="translate(240.27 1223.03) rotate(-61.2)"/><rect class="cls-88" x="1144.95" y="402.5" width="2.59" height="7.97" rx="1.3" ry="1.3" transform="translate(1380.16 -786.99) rotate(81.56)"/><rect class="cls-88" x="1153.93" y="402.6" width="2.59" height="7.97" rx="1.3" ry="1.3" transform="translate(1726.9 -676.5) rotate(98.44)"/><path class="cls-62" d="m1156.5,402.49l4.1,5.29-1.09,6.66,2.46-.46s0-5.65,1.91-5.56,1.91,0,1.91,0c0,0,.91-1.37,1.37-3.37.46-2.01.82-4.01.82-4.01,0,0-12.22-4.47-11.49,1.46Z"/><path class="cls-79" d="m1165,410.74s3-.39.69,1.59c.69-.92.66-1.37-.69-1.59Z"/><path class="cls-14" d="m1151.37,420.15h-3.5c.13.23.34.38.57.38h2.93c.38,0,.7-.4.7-.88h0c0-.06,0-.13-.02-.19-.07.39-.35.69-.68.69Z"/><path class="cls-79" d="m1163.96,415.08c.03,4.08-3.42,6.58-6.62,8.02l-3.11,1.11c1.08-.49,1.77-1.23,1.77-2.06,0-.01,0-.02,0-.04,0-.01,0-.02,0-.04,0-.02,0-.04,0-.05-.05,1.46-2.22,2.63-4.9,2.63s-4.84-1.17-4.9-2.63c0,.02,0,.04,0,.05,0,.01,0,.02,0,.04,0,.01,0,.02,0,.04,0,1.48,2.19,2.68,4.9,2.68.79,0,1.53-.1,2.19-.28.06-.01.12-.02.17-.04l-.27,4.9,6.03-6.97h0c5.51-3.07,4.73-7.35,4.73-7.35Z"/><rect class="cls-42" x="1151.94" y="427.29" width="16.88" height="1.51" rx=".76" ry=".76" transform="translate(-58.33 217.24) rotate(-10.43)"/><path class="cls-29" d="m1152.08,429.58h0c-.08-.41.2-.8.61-.88l15.11-2.78c.41-.08.8.2.88.61h0c-2.33.59-13.48,2.54-16.6,3.06Z"/><path class="cls-88" d="m1158.18,401.97s3.88,3.06,6.51,2.73,2.17,1.44,2.17,1.44c0,0,.73-1.59.68-2.92s-.85-2.32-3.54-2.46c-5.45-.29-5.82,1.21-5.82,1.21Z"/><path class="cls-79" d="m1148.37,402.8s2.4-.84,7.19.99c2.23.86-5.59-3.97-5.59-3.97,0,0-.73,1.08-1.6,2.98Z"/><g><path class="cls-60" d="m1142.65,401.65c.08-.38.93-3.6,9.19-3.35.5-1.74.62-2.05.62-2.05,0,0-6.58.5-6.03-2.73s3.51-3.95,7.65-2.95c6.76,1.63,3.52,3.34,11.47,3.22,7.95-.12,9.46,3.49,9.14,6.94-.16,1.75-2.73,2.42-5.71.93-.99.93-1.43,1.74-1.43,1.74l-5.03-1.86s-4.66,5.7-11.31.95c-.64-.49-1.06-.95-1.74-1.53-.16.03-1.42.16-2.08.74s-.71.84-1.83,1.84c-2.36.99-3.22-1.1-2.92-1.87Z"/><path class="cls-11" d="m1144.12,401.13s-1.51,1.09-.36,2.17c1.65,1.54,2.84-1.05,5.06-1.46.22-.43.4-.64.66-.9-1.13-.74-3.13-1.39-5.35.19Z"/></g><path class="cls-79" d="m1166.32,413.62s-.75.41-1.45.54,1.51.77,1.51.77l-.06-1.31Z"/><g><path class="cls-6" d="m1168.99,401.65s-8.55-4.9-16.52-5.4l-.12.4c7.46.68,15.14,4.56,16.45,5.24l.2-.24Z"/><path class="cls-25" d="m1156.66,399.41c3.08,1.2,10.9,3.98,10.9,3.98l1.23-1.5c-1.31-.68-8.99-4.56-16.45-5.24l-.5,1.65s1.73-.09,4.81,1.12Z"/></g><g><path class="cls-88" d="m1149.04,415.04c-.73-1-9.3-.73-6.84,4.1,2.55-.73,7.57-3.1,6.84-4.1Z"/><path class="cls-88" d="m1150.04,415.04c.73-1,9.3-.73,6.84,4.1-2.55-.73-7.57-3.1-6.84-4.1Z"/></g><rect class="cls-14" x="1148.27" y="410.15" width="2.79" height="5.96" rx="1.24" ry="1.24" transform="translate(92.23 -198.62) rotate(10.28)"/></g></g></g></svg>