<?xml version="1.0" encoding="utf-8"?>
<!-- Generator: Adobe Illustrator 27.2.0, SVG Export Plug-In . SVG Version: 6.00 Build 0)  -->
<svg version="1.1" id="Layer_2_00000110463339261556234480000016937457280460443563_"
	 xmlns="http://www.w3.org/2000/svg" xmlns:xlink="http://www.w3.org/1999/xlink" x="0px" y="0px" viewBox="0 0 416 775.1"
	 style="enable-background:new 0 0 416 775.1;" xml:space="preserve">
<style type="text/css">
	.st0{fill:#94BB3E;}
	.st1{fill:#E0AE15;}
	.st2{fill:#FFF1E4;}
	.st3{fill:#FFFFFF;}
	.st4{opacity:0.5;}
	.st5{fill:#FFFDEB;}
</style>
<g id="Layer_1-2">
	<g>
		<path class="st0" d="M21,129.6c28.2,0,28.2-96.7,56.4-96.7s28.3,72.8,56.6,72.8h56.4v71.8H134c-28.3,0-28.3-72.8-56.6-72.8
			S49.2,177.4,21,177.4V129.6L21,129.6z"/>
		<path class="st1" d="M21,83.3c28.2,0,28.2,24.9,56.4,24.9s28.3-72.8,56.6-72.8h56.4v71.8H134c-28.3,0-28.3,72.8-56.6,72.8
			S49.2,131.2,21,131.2V83.3z"/>
	</g>
	<g>
		<path class="st0" d="M236.6,129.6c28.2,0,28.2-23.9,56.4-23.9h113v71.8H236.6V129.6z"/>
		<path class="st1" d="M236.6,83.3c28.2,0,28.2-47.9,56.4-47.9h113v71.8H293c-28.2,0-28.2,23.9-56.4,23.9V83.3L236.6,83.3z"/>
	</g>
	<g>
		<path class="st0" d="M21,429.5c28.2,0,28.2-23.9,56.4-23.9h113v71.8H21V429.5z"/>
		<path class="st1" d="M21,383.3c28.2,0,28.2-47.9,56.4-47.9h113v71.8h-113c-28.2,0-28.2,23.9-56.4,23.9L21,383.3L21,383.3z"/>
	</g>
	<g>
		<path class="st0" d="M236.6,380.7c28.2,0,28.2,48.8,56.4,48.8s28.3-23.9,56.6-23.9H406v71.8H293c-28.2,0-28.2-48.8-56.4-48.8
			V380.7L236.6,380.7z"/>
		<path class="st1" d="M236.6,432.1c28.2,0,28.2-48.8,56.4-48.8s28.3-47.9,56.6-47.9H406v71.8h-56.4c-28.3,0-28.3,23.9-56.6,23.9
			S264.8,480,236.6,480V432.1L236.6,432.1z"/>
	</g>
	<g>
		<path class="st0" d="M21,697.8c28.2,0,28.2-48.8,56.4-48.8s28.3,24.9,56.6,24.9h56.4v71.8H134c-28.3,0-28.3-48.8-56.6-48.8
			S49.2,745.7,21,745.7V697.8z"/>
		<path class="st1" d="M21,651.6c28.2,0,28.2,48.8,56.4,48.8s28.3-96.7,56.6-96.7h56.4v71.8H134c-28.3,0-28.3,72.8-56.6,72.8
			S49.2,699.5,21,699.5V651.6L21,651.6z"/>
	</g>
	<g>
		<path class="st0" d="M236.6,649H293c28.3,0,28.3,24.9,56.6,24.9H406v71.8h-56.4c-28.3,0-28.3-48.8-56.6-48.8h-56.4V649L236.6,649z
			"/>
		<path class="st1" d="M236.6,700.4H293c28.3,0,28.3-96.7,56.6-96.7H406v71.8h-56.4c-28.3,0-28.3,72.8-56.6,72.8h-56.4V700.4
			L236.6,700.4z"/>
	</g>
	<g>
		<g id="xAxis">
			<rect x="20.9" y="181.2" class="st2" width="0.6" height="9.4"/>
			<rect x="34.4" y="181.2" class="st2" width="0.6" height="5.6"/>
			<rect x="48.5" y="181.2" class="st2" width="0.6" height="5.6"/>
			<rect x="62.7" y="181.2" class="st2" width="0.6" height="5.6"/>
			<rect x="76.9" y="181.2" class="st2" width="0.6" height="9.4"/>
			<rect x="91" y="181.2" class="st2" width="0.6" height="5.6"/>
			<rect x="105.1" y="181.2" class="st2" width="0.6" height="5.6"/>
			<rect x="119.3" y="181.2" class="st2" width="0.6" height="5.6"/>
			<rect x="133.6" y="181.2" class="st2" width="0.6" height="9.4"/>
			<rect x="147.5" y="181.2" class="st2" width="0.6" height="5.6"/>
			<rect x="161.5" y="181.2" class="st2" width="0.6" height="5.6"/>
			<rect x="175.8" y="181.2" class="st2" width="0.6" height="5.6"/>
			<rect x="189.7" y="181.2" class="st2" width="0.6" height="9.4"/>
		</g>
	</g>
	<g>
		<g id="xAxis-2">
			<rect x="236.6" y="181.2" class="st3" width="0.6" height="9.4"/>
			<rect x="250.2" y="181.2" class="st3" width="0.6" height="5.6"/>
			<rect x="264.2" y="181.2" class="st3" width="0.6" height="5.6"/>
			<rect x="278.5" y="181.2" class="st3" width="0.6" height="5.6"/>
			<rect x="292.7" y="181.2" class="st3" width="0.6" height="9.4"/>
			<rect x="306.8" y="181.2" class="st3" width="0.6" height="5.6"/>
			<rect x="320.8" y="181.2" class="st3" width="0.6" height="5.6"/>
			<rect x="335.1" y="181.2" class="st3" width="0.6" height="5.6"/>
			<rect x="349.3" y="181.2" class="st3" width="0.6" height="9.4"/>
			<rect x="363.2" y="181.2" class="st3" width="0.6" height="5.6"/>
			<rect x="377.3" y="181.2" class="st3" width="0.6" height="5.6"/>
			<rect x="391.5" y="181.2" class="st3" width="0.6" height="5.6"/>
			<rect x="405.4" y="181.2" class="st3" width="0.6" height="9.4"/>
		</g>
	</g>
	<g>
		<g id="xAxis-3">
			<rect x="20.9" y="480.1" class="st2" width="0.6" height="9.4"/>
			<rect x="34.4" y="480.1" class="st2" width="0.6" height="5.6"/>
			<rect x="48.5" y="480.1" class="st2" width="0.6" height="5.6"/>
			<rect x="62.7" y="480.1" class="st2" width="0.6" height="5.6"/>
			<rect x="76.9" y="480.1" class="st2" width="0.6" height="9.4"/>
			<rect x="91" y="480.1" class="st2" width="0.6" height="5.6"/>
			<rect x="105.1" y="480.1" class="st2" width="0.6" height="5.6"/>
			<rect x="119.3" y="480.1" class="st2" width="0.6" height="5.6"/>
			<rect x="133.6" y="480.1" class="st2" width="0.6" height="9.4"/>
			<rect x="147.5" y="480.1" class="st2" width="0.6" height="5.6"/>
			<rect x="161.5" y="480.1" class="st2" width="0.6" height="5.6"/>
			<rect x="175.8" y="480.1" class="st2" width="0.6" height="5.6"/>
			<rect x="189.7" y="480.1" class="st2" width="0.6" height="9.4"/>
		</g>
	</g>
	<g>
		<g id="xAxis-4">
			<rect x="236.6" y="480.1" class="st3" width="0.6" height="9.4"/>
			<rect x="250.2" y="480.1" class="st3" width="0.6" height="5.6"/>
			<rect x="264.2" y="480.1" class="st3" width="0.6" height="5.6"/>
			<rect x="278.5" y="480.1" class="st3" width="0.6" height="5.6"/>
			<rect x="292.7" y="480.1" class="st3" width="0.6" height="9.4"/>
			<rect x="306.8" y="480.1" class="st3" width="0.6" height="5.6"/>
			<rect x="320.8" y="480.1" class="st3" width="0.6" height="5.6"/>
			<rect x="335.1" y="480.1" class="st3" width="0.6" height="5.6"/>
			<rect x="349.3" y="480.1" class="st3" width="0.6" height="9.4"/>
			<rect x="363.2" y="480.1" class="st3" width="0.6" height="5.6"/>
			<rect x="377.3" y="480.1" class="st3" width="0.6" height="5.6"/>
			<rect x="391.5" y="480.1" class="st3" width="0.6" height="5.6"/>
			<rect x="405.4" y="480.1" class="st3" width="0.6" height="9.4"/>
		</g>
	</g>
	<g>
		<g id="xAxis-5">
			<rect x="20.9" y="748.5" class="st2" width="0.6" height="9.4"/>
			<rect x="34.4" y="748.5" class="st2" width="0.6" height="5.6"/>
			<rect x="48.5" y="748.5" class="st2" width="0.6" height="5.6"/>
			<rect x="62.7" y="748.5" class="st2" width="0.6" height="5.6"/>
			<rect x="76.9" y="748.5" class="st2" width="0.6" height="9.4"/>
			<rect x="91" y="748.5" class="st2" width="0.6" height="5.6"/>
			<rect x="105.1" y="748.5" class="st2" width="0.6" height="5.6"/>
			<rect x="119.3" y="748.5" class="st2" width="0.6" height="5.6"/>
			<rect x="133.6" y="748.5" class="st2" width="0.6" height="9.4"/>
			<rect x="147.5" y="748.5" class="st2" width="0.6" height="5.6"/>
			<rect x="161.5" y="748.5" class="st2" width="0.6" height="5.6"/>
			<rect x="175.8" y="748.5" class="st2" width="0.6" height="5.6"/>
			<rect x="189.7" y="748.5" class="st2" width="0.6" height="9.4"/>
		</g>
	</g>
	<g>
		<g id="xAxis-6">
			<rect x="236.6" y="748.5" class="st3" width="0.6" height="9.4"/>
			<rect x="250.2" y="748.5" class="st3" width="0.6" height="5.6"/>
			<rect x="264.2" y="748.5" class="st3" width="0.6" height="5.6"/>
			<rect x="278.5" y="748.5" class="st3" width="0.6" height="5.6"/>
			<rect x="292.7" y="748.5" class="st3" width="0.6" height="9.4"/>
			<rect x="306.8" y="748.5" class="st3" width="0.6" height="5.6"/>
			<rect x="320.8" y="748.5" class="st3" width="0.6" height="5.6"/>
			<rect x="335.1" y="748.5" class="st3" width="0.6" height="5.6"/>
			<rect x="349.3" y="748.5" class="st3" width="0.6" height="9.4"/>
			<rect x="363.2" y="748.5" class="st3" width="0.6" height="5.6"/>
			<rect x="377.3" y="748.5" class="st3" width="0.6" height="5.6"/>
			<rect x="391.5" y="748.5" class="st3" width="0.6" height="5.6"/>
			<rect x="405.4" y="748.5" class="st3" width="0.6" height="9.4"/>
		</g>
	</g>
	<g class="st4">
		<path class="st5" d="M135.4,22h-9.8l-1.9,5.6h-5.9l10.1-27.2h5.2l10.2,27.2h-5.9L135.4,22L135.4,22z M127.1,17.4h6.8l-3.4-10.2
			L127.1,17.4L127.1,17.4z"/>
		<path class="st5" d="M163.1,5.8v14.1c0,2.5-0.8,4.4-2.4,5.8c-1.6,1.4-3.8,2.1-6.7,2.1s-5.1-0.7-6.7-2.1c-1.6-1.4-2.4-3.4-2.4-5.8
			V5.8h5.4v14.3c0.1,2.2,1.3,3.4,3.8,3.4c1.2,0,2.1-0.3,2.8-0.8s0.9-1.5,0.9-2.8V5.8H163.1L163.1,5.8z"/>
		<path class="st5" d="M185.7,24.9c-0.9,0.9-2.1,1.6-3.7,2.1s-3.5,0.8-5.5,0.8c-3.1,0-5.6-0.9-7.4-2.7s-2.8-4.3-2.8-7.5v-1.5
			c0-3.3,0.9-5.9,2.7-7.8s4.2-2.8,7.2-2.8c2.9,0,5.1,0.6,6.7,1.9s2.5,3.1,2.8,5.7h-5.2c-0.2-1.1-0.6-1.9-1.2-2.4s-1.6-0.8-2.9-0.8
			c-1.5,0-2.6,0.5-3.5,1.6c-0.8,1-1.2,2.6-1.2,4.6v1.3c0,2.1,0.4,3.7,1.3,4.7c0.9,1,2.2,1.5,3.9,1.5c1.6,0,2.7-0.3,3.4-0.8v-3.1
			h-4.2v-3.8h9.6L185.7,24.9L185.7,24.9z"/>
	</g>
	<g class="st4">
		<path class="st5" d="M354.2,20.4c0-1.1-0.4-1.9-1.1-2.4s-2.1-1.2-4-1.8c-1.9-0.6-3.5-1.2-4.6-1.9c-3.1-1.7-4.6-3.9-4.6-6.7
			c0-1.5,0.4-2.8,1.2-3.9s2-2,3.6-2.7c1.5-0.6,3.3-1,5.2-1s3.7,0.3,5.2,1s2.7,1.7,3.5,3s1.3,2.7,1.3,4.4h-5.6c0-1.2-0.4-2.2-1.2-2.9
			s-1.9-1-3.3-1s-2.4,0.3-3.2,0.9s-1.1,1.3-1.1,2.3c0,0.9,0.5,1.6,1.3,2.2c0.9,0.6,2.2,1.2,3.9,1.7c3.2,1,5.5,2.2,7,3.6
			s2.2,3.2,2.2,5.3c0,2.4-0.9,4.2-2.7,5.5c-1.8,1.3-4.2,2-7.2,2c-2.1,0-4-0.4-5.7-1.1s-3-1.8-3.9-3.1s-1.4-2.9-1.4-4.6h5.6
			c0,3,1.8,4.5,5.4,4.5c1.3,0,2.4-0.3,3.1-0.8C353.8,22.1,354.2,21.4,354.2,20.4L354.2,20.4z"/>
		<path class="st5" d="M377.4,18.5h-9v4.7H379v4.4h-16V5.8h16v4.3h-10.6v4h9V18.5z"/>
		<path class="st5" d="M386.8,20.4v7.1h-5.4V5.8h9.3c1.8,0,3.3,0.3,4.7,0.9c1.4,0.6,2.4,1.5,3.2,2.7s1.1,2.5,1.1,3.9
			c0,2.1-0.8,3.9-2.4,5.1c-1.6,1.3-3.8,1.9-6.6,1.9L386.8,20.4L386.8,20.4z M386.8,16h3.9c1.1,0,2-0.2,2.7-0.7s0.9-1.1,0.9-2
			c0-1-0.3-1.7-0.9-2.3s-1.5-0.9-2.6-0.9h-3.9L386.8,16L386.8,16z"/>
	</g>
	<g class="st4">
		<g>
			<path class="st5" d="M120.1,327.5v-27.2h8.4c2.4,0,4.5,0.5,6.4,1.6c1.9,1.1,3.4,2.6,4.4,4.6c1.1,2,1.6,4.2,1.6,6.8v1.2
				c0,2.5-0.5,4.8-1.6,6.7s-2.5,3.5-4.4,4.6c-1.9,1.1-4,1.6-6.4,1.6L120.1,327.5L120.1,327.5z M125.7,304.9V323h2.7
				c2.2,0,3.9-0.7,5-2.1c1.2-1.4,1.8-3.5,1.8-6.1v-1.4c0-2.8-0.6-4.9-1.7-6.3s-2.8-2.1-5-2.1L125.7,304.9L125.7,304.9z"/>
			<path class="st5" d="M158.8,318.5h-9v4.7h10.6v4.4h-16v-21.7h16v4.4h-10.6v4h9V318.5L158.8,318.5z"/>
			<path class="st5" d="M181.6,320.1c-0.1,2.4-1.1,4.3-2.8,5.6c-1.7,1.4-4,2.1-6.8,2.1c-3,0-5.4-0.9-7.1-2.8s-2.6-4.4-2.7-7.6v-1.2
				c0-3.2,0.9-5.8,2.6-7.8s4.1-2.9,7.1-2.9c2.8,0,5.1,0.7,6.8,2.1s2.7,3.4,2.9,5.8h-5.4c-0.1-2.4-1.6-3.6-4.3-3.6s-4.3,2-4.4,6v1.4
				c0,2.2,0.3,3.8,1,4.8s1.8,1.5,3.4,1.5c1.4,0,2.4-0.3,3.1-0.8c0.7-0.5,1.1-1.4,1.1-2.6H181.6L181.6,320.1z"/>
		</g>
	</g>
	<g class="st4">
		<g>
			<path class="st5" d="M351,300.4h5.6v18.8c0,1.7-0.4,3.3-1.1,4.6c-0.8,1.3-1.8,2.4-3.2,3.1c-1.4,0.7-3,1.1-4.7,1.1
				c-2.9,0-5.1-0.7-6.7-2.2s-2.4-3.5-2.4-6.2h5.6c0,1.3,0.3,2.3,0.8,3c0.6,0.6,1.4,1,2.6,1c1.1,0,1.9-0.4,2.6-1.1
				c0.6-0.7,1-1.8,1-3.1L351,300.4L351,300.4z"/>
			<path class="st5" d="M374.3,323.4h-8.4l-1.5,4.1H359l8.6-21.7h5.1l8.7,21.7h-5.5L374.3,323.4L374.3,323.4z M367.4,319.4h5.5
				l-2.7-7.4L367.4,319.4L367.4,319.4z"/>
			<path class="st5" d="M402.5,327.5h-5.4l-8.6-13.5v13.5h-5.4v-21.7h5.4l8.6,13.6v-13.6h5.4V327.5z"/>
		</g>
	</g>
	<g class="st4">
		<g>
			<path class="st5" d="M135.4,590.2h-9.8l-1.9,5.6h-5.9l10.1-27.2h5.2l10.2,27.2h-5.9C137.3,595.8,135.4,590.2,135.4,590.2z
				 M127.1,585.7h6.8l-3.4-10.2L127.1,585.7L127.1,585.7z"/>
			<path class="st5" d="M150.6,588.7v7.2h-5.4v-21.7h9.3c1.8,0,3.3,0.3,4.7,0.9s2.4,1.5,3.2,2.7s1.1,2.5,1.1,3.9
				c0,2.2-0.8,3.9-2.4,5.1c-1.6,1.3-3.8,1.9-6.6,1.9L150.6,588.7L150.6,588.7z M150.6,584.4h3.9c1.1,0,2-0.2,2.7-0.7
				c0.6-0.5,0.9-1.1,0.9-2c0-1-0.3-1.7-0.9-2.3s-1.5-0.9-2.6-0.9h-3.9L150.6,584.4L150.6,584.4z"/>
			<path class="st5" d="M175.4,588.3H172v7.5h-5.4v-21.7h9.1c2.8,0,4.9,0.6,6.5,1.7c1.5,1.1,2.3,2.8,2.3,4.8c0,1.5-0.3,2.8-1,3.8
				c-0.6,1-1.7,1.8-3.1,2.5l4.9,8.7v0.2h-5.8L175.4,588.3L175.4,588.3z M172,584h3.7c2.2,0,3.4-0.9,3.4-2.8s-1.2-2.8-3.5-2.8H172
				V584L172,584z"/>
		</g>
	</g>
	<g class="st4">
		<g>
			<path class="st5" d="M339.7,568.7l7,19.7l6.9-19.7h7.4v27.2h-5.6v-7.4l0.6-12.8l-7.3,20.2h-3.8l-7.3-20.2l0.6,12.8v7.4h-5.6
				v-27.2H339.7L339.7,568.7z"/>
			<path class="st5" d="M378.8,591.7h-8.4l-1.5,4.1h-5.4l8.6-21.7h5.1l8.7,21.7h-5.5L378.8,591.7L378.8,591.7z M371.9,587.7h5.5
				l-2.7-7.3L371.9,587.7L371.9,587.7z"/>
			<path class="st5" d="M394.9,583.3l4.5-9.2h5.9l-7.7,14.2v7.6h-5.4V588l-7.5-13.9h5.8L394.9,583.3L394.9,583.3z"/>
		</g>
	</g>
</g>
<g>
	<path class="st3" d="M21.5,501.9h-1v-7.5h1V501.9z"/>
	<g>
		<g>
			<path class="st3" d="M76.3,501.7h-1v-7.5h1V501.7z"/>
			<path class="st3" d="M79.2,501.7h-1v-7.5h1V501.7z"/>
		</g>
	</g>
	<g>
		<g>
			<path class="st3" d="M131.5,501.8h-1v-7.5h1V501.8z"/>
			<path class="st3" d="M134.4,501.8h-1v-7.5h1V501.8z"/>
			<path class="st3" d="M137.2,501.8h-1v-7.5h1V501.8z"/>
		</g>
	</g>
	<g>
		<g>
			<path class="st3" d="M183,501.8h-1v-7.5h1V501.8z"/>
			<path class="st3" d="M187.2,500.5l2.1-6.2h1.1l-2.8,7.5h-0.9l-2.8-7.5h1.1L187.2,500.5z"/>
		</g>
	</g>
</g>
<g>
	<path class="st3" d="M237.9,501.9h-1v-7.5h1V501.9z"/>
	<g>
		<g>
			<path class="st3" d="M292.8,501.7h-1v-7.5h1V501.7z"/>
			<path class="st3" d="M295.7,501.7h-1v-7.5h1V501.7z"/>
		</g>
	</g>
	<g>
		<g>
			<path class="st3" d="M348,501.8h-1v-7.5h1V501.8z"/>
			<path class="st3" d="M350.8,501.8h-1v-7.5h1V501.8z"/>
			<path class="st3" d="M353.7,501.8h-1v-7.5h1V501.8z"/>
		</g>
	</g>
	<g>
		<g>
			<path class="st3" d="M399.4,501.8h-1v-7.5h1V501.8z"/>
			<path class="st3" d="M403.7,500.5l2.1-6.2h1.1l-2.8,7.5h-0.9l-2.8-7.5h1.1L403.7,500.5z"/>
		</g>
	</g>
</g>
<g>
	<path class="st3" d="M21.5,204.9h-1v-7.5h1V204.9z"/>
	<g>
		<g>
			<path class="st3" d="M76.3,204.7h-1v-7.5h1V204.7z"/>
			<path class="st3" d="M79.2,204.7h-1v-7.5h1V204.7z"/>
		</g>
	</g>
	<g>
		<g>
			<path class="st3" d="M131.5,204.8h-1v-7.5h1V204.8z"/>
			<path class="st3" d="M134.4,204.8h-1v-7.5h1V204.8z"/>
			<path class="st3" d="M137.2,204.8h-1v-7.5h1V204.8z"/>
		</g>
	</g>
	<g>
		<g>
			<path class="st3" d="M183,204.8h-1v-7.5h1V204.8z"/>
			<path class="st3" d="M187.2,203.5l2.1-6.2h1.1l-2.8,7.5h-0.9l-2.8-7.5h1.1L187.2,203.5z"/>
		</g>
	</g>
</g>
<g>
	<path class="st3" d="M237.9,204.9h-1v-7.5h1V204.9z"/>
	<g>
		<g>
			<path class="st3" d="M292.8,204.7h-1v-7.5h1V204.7z"/>
			<path class="st3" d="M295.7,204.7h-1v-7.5h1V204.7z"/>
		</g>
	</g>
	<g>
		<g>
			<path class="st3" d="M348,204.8h-1v-7.5h1V204.8z"/>
			<path class="st3" d="M350.8,204.8h-1v-7.5h1V204.8z"/>
			<path class="st3" d="M353.7,204.8h-1v-7.5h1V204.8z"/>
		</g>
	</g>
	<g>
		<g>
			<path class="st3" d="M399.4,204.8h-1v-7.5h1V204.8z"/>
			<path class="st3" d="M403.7,203.5l2.1-6.2h1.1l-2.8,7.5h-0.9l-2.8-7.5h1.1L403.7,203.5z"/>
		</g>
	</g>
</g>
<g>
	<path class="st3" d="M21.5,770h-1v-7.5h1V770z"/>
	<g>
		<g>
			<path class="st3" d="M76.3,769.8h-1v-7.5h1V769.8z"/>
			<path class="st3" d="M79.2,769.8h-1v-7.5h1V769.8z"/>
		</g>
	</g>
	<g>
		<g>
			<path class="st3" d="M131.5,769.9h-1v-7.5h1V769.9z"/>
			<path class="st3" d="M134.4,769.9h-1v-7.5h1V769.9z"/>
			<path class="st3" d="M137.2,769.9h-1v-7.5h1V769.9z"/>
		</g>
	</g>
	<g>
		<g>
			<path class="st3" d="M183,769.9h-1v-7.5h1V769.9z"/>
			<path class="st3" d="M187.2,768.6l2.1-6.2h1.1l-2.8,7.5h-0.9l-2.8-7.5h1.1L187.2,768.6z"/>
		</g>
	</g>
</g>
<g>
	<path class="st3" d="M237.9,770h-1v-7.5h1V770z"/>
	<g>
		<g>
			<path class="st3" d="M292.8,769.8h-1v-7.5h1V769.8z"/>
			<path class="st3" d="M295.7,769.8h-1v-7.5h1V769.8z"/>
		</g>
	</g>
	<g>
		<g>
			<path class="st3" d="M348,769.9h-1v-7.5h1V769.9z"/>
			<path class="st3" d="M350.8,769.9h-1v-7.5h1V769.9z"/>
			<path class="st3" d="M353.7,769.9h-1v-7.5h1V769.9z"/>
		</g>
	</g>
	<g>
		<g>
			<path class="st3" d="M399.4,769.9h-1v-7.5h1V769.9z"/>
			<path class="st3" d="M403.7,768.6l2.1-6.2h1.1l-2.8,7.5h-0.9l-2.8-7.5h1.1L403.7,768.6z"/>
		</g>
	</g>
</g>
</svg>
