<?xml version="1.0" encoding="utf-8"?>
<!-- Generator: Adobe Illustrator 27.2.0, SVG Export Plug-In . SVG Version: 6.00 Build 0)  -->
<svg version="1.1" id="Layer_2_00000180360865242291051310000016056073675145300871_"
	 xmlns="http://www.w3.org/2000/svg" xmlns:xlink="http://www.w3.org/1999/xlink" x="0px" y="0px" viewBox="0 0 432.3 751.4"
	 style="enable-background:new 0 0 432.3 751.4;" xml:space="preserve">
<style type="text/css">
	.st0{fill:#94BB3E;}
	.st1{fill:#E0AE15;}
	.st2{fill:#FFF1E4;}
	.st3{opacity:0.15;}
	.st4{fill:#FFFFFF;}
	.st5{opacity:0.75;}
	.st6{fill:#F2F2F2;}
</style>
<g id="Layer_1-2">
	<g>
		<path class="st0" d="M15.4,407.6c68.9,0,68.9-54,137.8-54S222.3,315,291.4,315h137.8v277.6H15.4V407.6z"/>
		<path class="st1" d="M15.4,185c68.9,0,68.9-107.9,137.8-107.9S222.3,0,291.4,0h137.8v277.6H291.4c-69.1,0-69.1,38.5-138.2,38.5
			s-68.9,54-137.8,54L15.4,185L15.4,185z"/>
	</g>
	<g id="xAxis">
		<rect x="15.7" y="721.1" class="st2" width="1.6" height="7.3"/>
		<rect x="48.8" y="721.1" class="st2" width="1.5" height="4.3"/>
		<rect x="83.1" y="721.1" class="st2" width="1.6" height="4.3"/>
		<rect x="117.8" y="721.1" class="st2" width="1.6" height="4.3"/>
		<rect x="152.5" y="721.1" class="st2" width="1.6" height="7.3"/>
		<rect x="186.8" y="721.1" class="st2" width="1.6" height="4.3"/>
		<rect x="221.1" y="721.1" class="st2" width="1.6" height="4.3"/>
		<rect x="255.8" y="721.1" class="st2" width="1.5" height="4.3"/>
		<rect x="290.5" y="721.1" class="st2" width="1.5" height="7.3"/>
		<rect x="324.4" y="721.1" class="st2" width="1.5" height="4.3"/>
		<rect x="358.7" y="721.1" class="st2" width="1.5" height="4.3"/>
		<rect x="393.4" y="721.1" class="st2" width="1.5" height="4.3"/>
		<rect x="427.3" y="721.1" class="st2" width="1.5" height="7.3"/>
	</g>
	<g class="st3">
		<path class="st4" d="M94.2,615.5v57c0,9.1-2.9,16.2-8.7,21.5c-5.8,5.3-13.5,7.9-23.2,7.9s-17.5-2.6-23.3-7.8
			c-5.7-5.2-8.6-12.5-8.6-21.7v-57h14.8v57.1c0,5.7,1.5,10.1,4.3,13.1s7.2,4.5,12.8,4.5c11.4,0,17.1-6,17.1-18v-56.6L94.2,615.5
			L94.2,615.5z"/>
		<path class="st4" d="M147.4,668h-16.5v32.8H116v-85.3h30c9.9,0,17.4,2.2,22.8,6.6s8,10.8,8,19.2c0,5.7-1.4,10.5-4.1,14.3
			s-6.6,6.8-11.5,8.9l19.2,35.5v0.8h-15.9L147.4,668L147.4,668z M130.9,656h15.2c5,0,8.9-1.3,11.7-3.8s4.2-6,4.2-10.3
			s-1.3-8.1-3.9-10.6c-2.6-2.5-6.5-3.8-11.6-3.9h-15.6L130.9,656L130.9,656z"/>
		<path class="st4" d="M196.9,700.8v-85.3h29.2c9.6,0,17,1.9,22,5.8s7.6,9.6,7.6,17.3c0,3.9-1.1,7.4-3.2,10.5
			c-2.1,3.1-5.2,5.5-9.3,7.3c4.6,1.2,8.2,3.6,10.7,7.1c2.5,3.5,3.8,7.6,3.8,12.5c0,8-2.6,14.2-7.7,18.5c-5.1,4.3-12.5,6.5-22.1,6.5
			L196.9,700.8L196.9,700.8z M211.8,651.4h14.5c4.6,0,8.2-1,10.8-3.1c2.6-2.1,3.9-5,3.9-8.9c0-4.2-1.2-7.3-3.6-9.1
			c-2.4-1.9-6.1-2.8-11.2-2.8h-14.4L211.8,651.4L211.8,651.4z M211.8,662.3V689h16.5c4.6,0,8.3-1.2,10.9-3.5
			c2.6-2.3,3.9-5.5,3.9-9.6c0-8.9-4.5-13.4-13.6-13.6H211.8L211.8,662.3z"/>
		<path class="st4" d="M326.5,681h-33.1l-6.9,19.9h-15.4l32.2-85.3h13.3l32.3,85.3h-15.5L326.5,681L326.5,681z M297.6,669h24.7
			l-12.4-35.4L297.6,669L297.6,669z"/>
		<path class="st4" d="M432.3,700.8h-14.8l-38-60.5v60.5h-14.8v-85.3h14.8l38.2,60.8v-60.8h14.7V700.8L432.3,700.8z"/>
	</g>
	<g class="st5">
		<rect x="404.3" y="294.4" class="st6" width="24.9" height="5"/>
		<path class="st6" d="M89.4,361.6l-3.1-4c13.6-10.6,27.7-20.3,50.3-23.6l0.7,5C115.9,342.1,102.4,351.5,89.4,361.6z M192,332.7
			l-1.4-4.8c11.9-3.6,20.9-8.6,30.5-14c5.9-3.3,11.9-6.7,18.6-9.6l2,4.6c-6.5,2.9-12.5,6.2-18.2,9.4
			C214.2,323.5,204.5,328.9,192,332.7L192,332.7z M349.3,299.4h-55v-5h55V299.4z"/>
		<path class="st6" d="M15.4,391.9v-5c8.8,0,16.6-0.9,24.1-2.7l1.2,4.9C32.8,391,24.6,391.9,15.4,391.9L15.4,391.9z"/>
	</g>
</g>
<path class="st4" d="M18.1,751.4h-2.4V733h2.4V751.4z"/>
<g>
	<g>
		<path class="st4" d="M150.6,750.8h-2.4v-18.4h2.4V750.8z"/>
		<path class="st4" d="M157.7,750.8h-2.4v-18.4h2.4V750.8z"/>
	</g>
</g>
<g>
	<g>
		<path class="st4" d="M285.9,751.1h-2.4v-18.4h2.4V751.1z"/>
		<path class="st4" d="M292.9,751.1h-2.4v-18.4h2.4V751.1z"/>
		<path class="st4" d="M299.9,751.1h-2.4v-18.4h2.4V751.1z"/>
	</g>
</g>
<g>
	<g>
		<path class="st4" d="M414.1,751.1h-2.4v-18.4h2.4V751.1z"/>
		<path class="st4" d="M424.6,747.9l5.3-15.2h2.7l-6.8,18.4h-2.1l-6.8-18.4h2.6L424.6,747.9z"/>
	</g>
</g>
</svg>
