<?xml version="1.0" encoding="utf-8"?>
<!-- Generator: Adobe Illustrator 27.2.0, SVG Export Plug-In . SVG Version: 6.00 Build 0)  -->
<svg version="1.1" id="Layer_2_00000070109096751796512920000012092202976538133410_"
	 xmlns="http://www.w3.org/2000/svg" xmlns:xlink="http://www.w3.org/1999/xlink" x="0px" y="0px" viewBox="0 0 416 775.1"
	 style="enable-background:new 0 0 416 775.1;" xml:space="preserve">
<style type="text/css">
	.st0{fill:#94BB3E;}
	.st1{fill:#E0AE15;}
	.st2{fill:#FFF1E4;}
	.st3{fill:#FFFFFF;}
	.st4{opacity:0.5;}
	.st5{fill:#FFFDEB;}
</style>
<g id="Layer_1-2">
	<g>
		<path class="st0" d="M11.8,129.4c28.2,0,28.2-23.9,56.4-23.9h113v71.7H11.8V129.4z"/>
		<path class="st1" d="M11.8,83.9C40,83.9,40,39.1,68.3,39.1h113v67.3h-113c-28.2,0-28.2,23.7-56.4,23.7
			C11.8,130.1,11.8,83.9,11.8,83.9z"/>
	</g>
	<g>
		<path class="st0" d="M245.3,129.4c28.2,0,28.2-23.9,56.4-23.9h113v71.7H245.3V129.4z"/>
		<path class="st1" d="M245.3,83.1c28.2,0,28.2-47.9,56.4-47.9h113V107h-113c-28.2,0-28.2,23.9-56.4,23.9L245.3,83.1L245.3,83.1z"/>
	</g>
	<g>
		<path class="st0" d="M11.8,429.4c28.2,0,28.2-23.9,56.4-23.9h113v71.7H11.8V429.4z"/>
		<path class="st1" d="M11.8,383c28.2,0,28.2-47.9,56.4-47.9h113v71.8h-113c-28.2,0-28.2,23.9-56.4,23.9L11.8,383L11.8,383z"/>
	</g>
	<g>
		<path class="st0" d="M245.3,429.4c28.2,0,28.2-23.9,56.4-23.9h113v71.7H245.3V429.4z"/>
		<path class="st1" d="M245.3,383c28.2,0,28.2-47.9,56.4-47.9h113v71.8h-113c-28.2,0-28.2,23.9-56.4,23.9L245.3,383L245.3,383z"/>
	</g>
	<g>
		<path class="st0" d="M11.8,697.7h56.4c28.3,0,28.3-96.7,56.6-96.7s28.2,72.8,56.4,72.8v71.8c-28.2,0-28.2-72.8-56.4-72.8
			s-28.3,72.8-56.6,72.8H11.8V697.7L11.8,697.7z"/>
		<path class="st1" d="M11.8,651.4h56.4c28.3,0,28.3,24.9,56.6,24.9s28.2-72.8,56.4-72.8v71.8c-28.2,0-28.2,72.8-56.4,72.8
			s-28.3-48.8-56.6-48.8H11.8V651.4z"/>
	</g>
	<g>
		<path class="st0" d="M245.3,648.9h56.4c28.3,0,28.3,24.9,56.6,24.9h56.4v71.8h-56.4c-28.3,0-28.3-48.8-56.6-48.8h-56.4
			L245.3,648.9L245.3,648.9z"/>
		<path class="st1" d="M245.3,700.2h56.4c28.3,0,28.3-96.7,56.6-96.7h56.4v71.8h-56.4c-28.3,0-28.3,72.8-56.6,72.8h-56.4
			L245.3,700.2L245.3,700.2z"/>
	</g>
	<g>
		<g id="xAxis">
			<rect x="11.9" y="181.1" class="st2" width="0.6" height="9.4"/>
			<rect x="25.4" y="181.1" class="st2" width="0.6" height="5.6"/>
			<rect x="39.5" y="181.1" class="st2" width="0.6" height="5.6"/>
			<rect x="53.7" y="181.1" class="st2" width="0.6" height="5.6"/>
			<rect x="67.9" y="181.1" class="st2" width="0.6" height="9.4"/>
			<rect x="82" y="181.1" class="st2" width="0.6" height="5.6"/>
			<rect x="96.1" y="181.1" class="st2" width="0.6" height="5.6"/>
			<rect x="110.3" y="181.1" class="st2" width="0.6" height="5.6"/>
			<rect x="124.6" y="181.1" class="st2" width="0.6" height="9.4"/>
			<rect x="138.5" y="181.1" class="st2" width="0.6" height="5.6"/>
			<rect x="152.5" y="181.1" class="st2" width="0.6" height="5.6"/>
			<rect x="166.8" y="181.1" class="st2" width="0.6" height="5.6"/>
			<rect x="180.7" y="181.1" class="st2" width="0.6" height="9.4"/>
		</g>
	</g>
	<g>
		<g id="xAxis-2">
			<rect x="245.6" y="181.1" class="st3" width="0.6" height="9.4"/>
			<rect x="259.2" y="181.1" class="st3" width="0.6" height="5.6"/>
			<rect x="273.3" y="181.1" class="st3" width="0.6" height="5.6"/>
			<rect x="287.5" y="181.1" class="st3" width="0.6" height="5.6"/>
			<rect x="301.7" y="181.1" class="st3" width="0.6" height="9.4"/>
			<rect x="315.8" y="181.1" class="st3" width="0.6" height="5.6"/>
			<rect x="329.9" y="181.1" class="st3" width="0.6" height="5.6"/>
			<rect x="344.1" y="181.1" class="st3" width="0.6" height="5.6"/>
			<rect x="358.3" y="181.1" class="st3" width="0.6" height="9.4"/>
			<rect x="372.2" y="181.1" class="st3" width="0.6" height="5.6"/>
			<rect x="386.3" y="181.1" class="st3" width="0.6" height="5.6"/>
			<rect x="400.5" y="181.1" class="st3" width="0.6" height="5.6"/>
			<rect x="414" y="181.1" class="st3" width="0.7" height="10.2"/>
		</g>
	</g>
	<g>
		<g id="xAxis-3">
			<rect x="11.9" y="479.9" class="st2" width="0.6" height="9.4"/>
			<rect x="25.4" y="479.9" class="st2" width="0.6" height="5.6"/>
			<rect x="39.5" y="479.9" class="st2" width="0.6" height="5.6"/>
			<rect x="53.7" y="479.9" class="st2" width="0.6" height="5.6"/>
			<rect x="67.9" y="479.9" class="st2" width="0.6" height="9.4"/>
			<rect x="82" y="479.9" class="st2" width="0.6" height="5.6"/>
			<rect x="96.1" y="479.9" class="st2" width="0.6" height="5.6"/>
			<rect x="110.3" y="479.9" class="st2" width="0.6" height="5.6"/>
			<rect x="124.6" y="479.9" class="st2" width="0.6" height="9.4"/>
			<rect x="138.5" y="479.9" class="st2" width="0.6" height="5.6"/>
			<rect x="152.5" y="479.9" class="st2" width="0.6" height="5.6"/>
			<rect x="166.8" y="479.9" class="st2" width="0.6" height="5.6"/>
			<rect x="180.7" y="479.9" class="st2" width="0.6" height="9.4"/>
		</g>
	</g>
	<g>
		<g id="xAxis-4">
			<rect x="245.6" y="479.9" class="st3" width="0.6" height="9.4"/>
			<rect x="259.2" y="479.9" class="st3" width="0.6" height="5.6"/>
			<rect x="273.3" y="479.9" class="st3" width="0.6" height="5.6"/>
			<rect x="287.5" y="479.9" class="st3" width="0.6" height="5.6"/>
			<rect x="301.7" y="479.9" class="st3" width="0.6" height="9.4"/>
			<rect x="315.8" y="479.9" class="st3" width="0.6" height="5.6"/>
			<rect x="329.9" y="479.9" class="st3" width="0.6" height="5.6"/>
			<rect x="344.1" y="479.9" class="st3" width="0.6" height="5.6"/>
			<rect x="358.3" y="479.9" class="st3" width="0.6" height="9.4"/>
			<rect x="372.2" y="479.9" class="st3" width="0.6" height="5.6"/>
			<rect x="386.3" y="479.9" class="st3" width="0.6" height="5.6"/>
			<rect x="400.5" y="479.9" class="st3" width="0.6" height="5.6"/>
			<rect x="414" y="477.1" class="st3" width="0.7" height="10.2"/>
		</g>
	</g>
	<g>
		<g id="xAxis-5">
			<rect x="11.9" y="748.4" class="st2" width="0.6" height="9.4"/>
			<rect x="25.4" y="748.4" class="st2" width="0.6" height="5.6"/>
			<rect x="39.5" y="748.4" class="st2" width="0.6" height="5.6"/>
			<rect x="53.7" y="748.4" class="st2" width="0.6" height="5.6"/>
			<rect x="67.9" y="748.4" class="st2" width="0.6" height="9.4"/>
			<rect x="82" y="748.4" class="st2" width="0.6" height="5.6"/>
			<rect x="96.1" y="748.4" class="st2" width="0.6" height="5.6"/>
			<rect x="110.3" y="748.4" class="st2" width="0.6" height="5.6"/>
			<rect x="124.6" y="748.4" class="st2" width="0.6" height="9.4"/>
			<rect x="138.5" y="748.4" class="st2" width="0.6" height="5.6"/>
			<rect x="152.5" y="748.4" class="st2" width="0.6" height="5.6"/>
			<rect x="166.8" y="748.4" class="st2" width="0.6" height="5.6"/>
			<rect x="180.7" y="748.4" class="st2" width="0.6" height="9.4"/>
		</g>
	</g>
	<g>
		<g id="xAxis-6">
			<rect x="245.6" y="748.4" class="st3" width="0.6" height="9.4"/>
			<rect x="259.2" y="748.4" class="st3" width="0.6" height="5.6"/>
			<rect x="273.3" y="748.4" class="st3" width="0.6" height="5.6"/>
			<rect x="287.5" y="748.4" class="st3" width="0.6" height="5.6"/>
			<rect x="301.7" y="748.4" class="st3" width="0.6" height="9.4"/>
			<rect x="315.8" y="748.4" class="st3" width="0.6" height="5.6"/>
			<rect x="329.9" y="748.4" class="st3" width="0.6" height="5.6"/>
			<rect x="344.1" y="748.4" class="st3" width="0.6" height="5.6"/>
			<rect x="358.3" y="748.4" class="st3" width="0.6" height="9.4"/>
			<rect x="372.2" y="748.4" class="st3" width="0.6" height="5.6"/>
			<rect x="386.3" y="748.4" class="st3" width="0.6" height="5.6"/>
			<rect x="400.5" y="748.4" class="st3" width="0.6" height="5.6"/>
			<rect x="414" y="745.5" class="st3" width="0.7" height="10.2"/>
		</g>
	</g>
	<g class="st4">
		<path class="st5" d="M24.3,0.2h5.6V19c0,1.7-0.4,3.3-1.1,4.6C28,24.9,27,26,25.6,26.7c-1.4,0.7-3,1.1-4.7,1.1
			c-2.9,0-5.1-0.7-6.7-2.2s-2.4-3.5-2.4-6.2h5.6c0,1.3,0.3,2.3,0.8,3c0.6,0.6,1.4,1,2.6,1c1.1,0,1.9-0.4,2.6-1.1
			c0.6-0.7,1-1.8,1-3.1C24.3,19,24.3,0.2,24.3,0.2z"/>
		<path class="st5" d="M52.3,5.6v14.1c0,2.5-0.8,4.4-2.4,5.8c-1.6,1.4-3.8,2.1-6.7,2.1s-5.1-0.7-6.7-2.1c-1.7-1.4-2.5-3.3-2.5-5.8
			V5.6h5.4v14.3c0.1,2.2,1.3,3.4,3.8,3.4c1.2,0,2.1-0.3,2.8-0.8s0.9-1.5,0.9-2.8V5.6H52.3L52.3,5.6z"/>
		<path class="st5" d="M75.3,27.4h-5.4l-8.6-13.6v13.6h-5.4V5.6h5.4l8.6,13.6V5.6h5.4V27.4z"/>
	</g>
	<g class="st4">
		<path class="st5" d="M263.8,0.2h5.6V19c0,1.7-0.4,3.3-1.1,4.6c-0.8,1.3-1.8,2.4-3.2,3.1c-1.4,0.7-3,1.1-4.7,1.1
			c-2.9,0-5.1-0.7-6.7-2.2s-2.4-3.5-2.4-6.2h5.6c0,1.3,0.3,2.3,0.8,3c0.6,0.6,1.4,1,2.6,1c1.1,0,1.9-0.4,2.6-1.1
			c0.6-0.7,1-1.8,1-3.1L263.8,0.2L263.8,0.2z"/>
		<path class="st5" d="M291.8,5.6v14.1c0,2.5-0.8,4.4-2.4,5.8s-3.8,2.1-6.7,2.1s-5.1-0.7-6.7-2.1s-2.4-3.4-2.4-5.8V5.6h5.4v14.3
			c0.1,2.2,1.3,3.4,3.8,3.4c1.2,0,2.1-0.3,2.8-0.8s0.9-1.5,0.9-2.8V5.6H291.8L291.8,5.6z"/>
		<path class="st5" d="M300.8,23h9.9v4.4h-15.3V5.6h5.4V23z"/>
	</g>
	<g class="st4">
		<g>
			<path class="st5" d="M35.7,314.4c0,2.7-0.5,5-1.4,7c-1,2-2.3,3.6-4.1,4.7c-1.8,1.1-3.8,1.6-6.1,1.6s-4.3-0.5-6-1.6
				s-3.1-2.6-4.1-4.6s-1.5-4.3-1.5-6.9v-1.4c0-2.7,0.5-5,1.4-7.1c1-2,2.3-3.6,4.1-4.7c1.8-1.1,3.8-1.6,6-1.6s4.3,0.5,6,1.6
				s3.1,2.6,4.1,4.7c1,2,1.5,4.4,1.5,7L35.7,314.4L35.7,314.4z M30,313.1c0-2.9-0.5-5-1.5-6.5s-2.5-2.2-4.4-2.2s-3.3,0.7-4.4,2.2
				s-1.5,3.6-1.5,6.4v1.3c0,2.8,0.5,4.9,1.5,6.5s2.5,2.3,4.4,2.3s3.3-0.7,4.3-2.2s1.5-3.6,1.5-6.5L30,313.1L30,313.1z"/>
			<path class="st5" d="M57.9,319.9c-0.2,2.4-1.1,4.3-2.8,5.6c-1.7,1.4-4,2.1-6.8,2.1c-3,0-5.4-0.9-7.1-2.8
				c-1.7-1.9-2.6-4.4-2.7-7.6V316c0-3.2,0.9-5.8,2.6-7.8s4.1-2.9,7.1-2.9c2.8,0,5.1,0.7,6.8,2.1s2.7,3.4,2.9,5.8h-5.4
				c-0.1-2.4-1.5-3.6-4.3-3.6s-4.3,2-4.4,6v1.4c0,2.2,0.3,3.8,1,4.8s1.8,1.5,3.4,1.5c1.4,0,2.4-0.3,3.1-0.8c0.7-0.5,1.1-1.4,1.1-2.6
				H57.9L57.9,319.9z"/>
			<path class="st5" d="M78.8,309.9h-7.1v17.4h-5.4v-17.4h-6.9v-4.4h19.4V309.9L78.8,309.9z"/>
		</g>
	</g>
	<g class="st4">
		<g>
			<path class="st5" d="M274.9,327.4h-5.6l-10.9-17.9v17.9h-5.6v-27.2h5.6l10.9,17.9v-17.9h5.6V327.4z"/>
			<path class="st5" d="M298.9,316.9c0,2.1-0.4,4-1.2,5.6s-2,2.9-3.6,3.8c-1.5,0.9-3.3,1.3-5.3,1.3s-3.7-0.4-5.3-1.3
				c-1.5-0.9-2.8-2.1-3.6-3.7c-0.9-1.6-1.3-3.5-1.3-5.6v-1c0-2.1,0.4-4,1.2-5.6s2-2.9,3.6-3.8s3.3-1.3,5.3-1.3s3.7,0.4,5.2,1.3
				s2.7,2.1,3.6,3.7s1.3,3.5,1.3,5.6L298.9,316.9L298.9,316.9z M293.4,316c0-2.1-0.4-3.6-1.2-4.8c-0.8-1.1-2-1.7-3.5-1.7
				s-2.7,0.5-3.5,1.7c-0.8,1.1-1.2,2.7-1.2,4.8v0.9c0,2,0.4,3.6,1.2,4.7s2,1.7,3.5,1.7c1.4,0,2.6-0.6,3.4-1.7s1.3-2.7,1.3-4.8
				L293.4,316L293.4,316z"/>
			<path class="st5" d="M310.4,321.4l0.2,1l0.2-1l5-15.8h5.7l-8,21.7h-5.8l-7.9-21.7h5.6L310.4,321.4L310.4,321.4z"/>
		</g>
	</g>
	<g class="st4">
		<g>
			<path class="st5" d="M29.7,584.6H18.9v11.1h-5.6v-27.2H31v4.5H18.9v7h10.8V584.6L29.7,584.6z"/>
			<path class="st5" d="M48.1,586.6h-9v4.7h10.6v4.3h-16v-21.7h16v4.3H39.1v4h9V586.6L48.1,586.6z"/>
			<path class="st5" d="M52.1,595.7V574h8.4c2.9,0,5.1,0.5,6.7,1.5s2.3,2.5,2.3,4.5c0,1.1-0.3,2.1-0.8,2.9c-0.6,0.8-1.4,1.4-2.4,1.8
				c1.2,0.3,2.2,0.9,2.8,1.8s1,1.9,1,3c0,2.2-0.7,3.7-2.2,4.7s-3.6,1.5-6.5,1.5H52.1L52.1,595.7z M57.5,583h3.3
				c2.2,0,3.3-0.8,3.3-2.3c0-0.9-0.3-1.5-0.8-1.9s-1.3-0.5-2.4-0.5h-3.4L57.5,583L57.5,583z M57.5,586.6v4.7h3.8
				c1,0,1.8-0.2,2.4-0.6s0.9-1,0.9-1.7c0-1.6-1-2.4-2.8-2.4H57.5L57.5,586.6z"/>
		</g>
	</g>
	<g class="st4">
		<g>
			<path class="st5" d="M260.1,568.5l7,19.7l6.9-19.7h7.4v27.2h-5.6v-7.5l0.6-12.8l-7.3,20.2h-3.8l-7.3-20.2l0.6,12.8v7.4H253v-27.2
				L260.1,568.5L260.1,568.5z"/>
			<path class="st5" d="M299.2,591.5h-8.4l-1.5,4.1h-5.4l8.6-21.7h5.1l8.7,21.7h-5.5L299.2,591.5L299.2,591.5z M292.3,587.6h5.5
				l-2.8-7.4L292.3,587.6L292.3,587.6z"/>
			<path class="st5" d="M316.8,588.2h-3.4v7.5H308V574h9.1c2.8,0,4.9,0.6,6.5,1.7c1.5,1.1,2.3,2.8,2.3,4.8c0,1.5-0.3,2.8-1,3.8
				c-0.6,1-1.7,1.8-3.1,2.5l4.9,8.7v0.2h-5.8L316.8,588.2L316.8,588.2z M313.5,583.8h3.7c2.2,0,3.4-0.9,3.4-2.8s-1.2-2.8-3.5-2.8
				h-3.5v5.6H313.5z"/>
		</g>
	</g>
</g>
<g>
	<path class="st3" d="M12.5,502h-1v-7.5h1V502z"/>
	<g>
		<g>
			<path class="st3" d="M67.3,501.9h-1v-7.5h1V501.9z"/>
			<path class="st3" d="M70.2,501.9h-1v-7.5h1V501.9z"/>
		</g>
	</g>
	<g>
		<g>
			<path class="st3" d="M122.5,501.9h-1v-7.5h1V501.9z"/>
			<path class="st3" d="M125.4,501.9h-1v-7.5h1V501.9z"/>
			<path class="st3" d="M128.2,501.9h-1v-7.5h1V501.9z"/>
		</g>
	</g>
	<g>
		<g>
			<path class="st3" d="M174,501.9h-1v-7.5h1V501.9z"/>
			<path class="st3" d="M178.2,500.6l2.1-6.2h1.1l-2.8,7.5h-0.9l-2.8-7.5h1.1L178.2,500.6z"/>
		</g>
	</g>
</g>
<g>
	<path class="st3" d="M245.7,502h-1v-7.5h1V502z"/>
	<g>
		<g>
			<path class="st3" d="M300.6,501.9h-1v-7.5h1V501.9z"/>
			<path class="st3" d="M303.5,501.9h-1v-7.5h1V501.9z"/>
		</g>
	</g>
	<g>
		<g>
			<path class="st3" d="M355.8,501.9h-1v-7.5h1V501.9z"/>
			<path class="st3" d="M358.6,501.9h-1v-7.5h1V501.9z"/>
			<path class="st3" d="M361.5,501.9h-1v-7.5h1V501.9z"/>
		</g>
	</g>
	<g>
		<g>
			<path class="st3" d="M407.2,501.9h-1v-7.5h1V501.9z"/>
			<path class="st3" d="M411.5,500.6l2.1-6.2h1.1l-2.8,7.5H411l-2.8-7.5h1.1L411.5,500.6z"/>
		</g>
	</g>
</g>
<g>
	<path class="st3" d="M12.5,205.1h-1v-7.5h1V205.1z"/>
	<g>
		<g>
			<path class="st3" d="M67.3,204.9h-1v-7.5h1V204.9z"/>
			<path class="st3" d="M70.2,204.9h-1v-7.5h1V204.9z"/>
		</g>
	</g>
	<g>
		<g>
			<path class="st3" d="M122.5,205h-1v-7.5h1V205z"/>
			<path class="st3" d="M125.4,205h-1v-7.5h1V205z"/>
			<path class="st3" d="M128.2,205h-1v-7.5h1V205z"/>
		</g>
	</g>
	<g>
		<g>
			<path class="st3" d="M174,205h-1v-7.5h1V205z"/>
			<path class="st3" d="M178.2,203.7l2.1-6.2h1.1l-2.8,7.5h-0.9l-2.8-7.5h1.1L178.2,203.7z"/>
		</g>
	</g>
</g>
<g>
	<path class="st3" d="M246.2,205.1h-1v-7.5h1V205.1z"/>
	<g>
		<g>
			<path class="st3" d="M301,204.9h-1v-7.5h1V204.9z"/>
			<path class="st3" d="M303.9,204.9h-1v-7.5h1V204.9z"/>
		</g>
	</g>
	<g>
		<g>
			<path class="st3" d="M356.2,205h-1v-7.5h1V205z"/>
			<path class="st3" d="M359.1,205h-1v-7.5h1V205z"/>
			<path class="st3" d="M361.9,205h-1v-7.5h1V205z"/>
		</g>
	</g>
	<g>
		<g>
			<path class="st3" d="M407.7,205h-1v-7.5h1V205z"/>
			<path class="st3" d="M412,203.7l2.1-6.2h1.1l-2.8,7.5h-0.9l-2.8-7.5h1.1L412,203.7z"/>
		</g>
	</g>
</g>
<g>
	<path class="st3" d="M12.5,770.2h-1v-7.5h1V770.2z"/>
	<g>
		<g>
			<path class="st3" d="M67.3,770h-1v-7.5h1V770z"/>
			<path class="st3" d="M70.2,770h-1v-7.5h1V770z"/>
		</g>
	</g>
	<g>
		<g>
			<path class="st3" d="M122.5,770.1h-1v-7.5h1V770.1z"/>
			<path class="st3" d="M125.4,770.1h-1v-7.5h1V770.1z"/>
			<path class="st3" d="M128.2,770.1h-1v-7.5h1V770.1z"/>
		</g>
	</g>
	<g>
		<g>
			<path class="st3" d="M174,770.1h-1v-7.5h1V770.1z"/>
			<path class="st3" d="M178.2,768.8l2.1-6.2h1.1l-2.8,7.5h-0.9l-2.8-7.5h1.1L178.2,768.8z"/>
		</g>
	</g>
</g>
<g>
	<path class="st3" d="M246.5,770.2h-1v-7.5h1V770.2z"/>
	<g>
		<g>
			<path class="st3" d="M301.4,770h-1v-7.5h1V770z"/>
			<path class="st3" d="M304.2,770h-1v-7.5h1V770z"/>
		</g>
	</g>
	<g>
		<g>
			<path class="st3" d="M356.5,770.1h-1v-7.5h1V770.1z"/>
			<path class="st3" d="M359.4,770.1h-1v-7.5h1V770.1z"/>
			<path class="st3" d="M362.3,770.1h-1v-7.5h1V770.1z"/>
		</g>
	</g>
	<g>
		<g>
			<path class="st3" d="M408,770.1h-1v-7.5h1V770.1z"/>
			<path class="st3" d="M412.3,768.8l2.1-6.2h1.1l-2.8,7.5h-0.9l-2.8-7.5h1.1L412.3,768.8z"/>
		</g>
	</g>
</g>
</svg>
