<?xml version="1.0" encoding="utf-8"?>
<!-- Generator: Adobe Illustrator 27.2.0, SVG Export Plug-In . SVG Version: 6.00 Build 0)  -->
<svg version="1.1" id="Layer_2_00000048484052526594447880000016407777052471797140_"
	 xmlns="http://www.w3.org/2000/svg" xmlns:xlink="http://www.w3.org/1999/xlink" x="0px" y="0px" viewBox="0 0 431.3 744.3"
	 style="enable-background:new 0 0 431.3 744.3;" xml:space="preserve">
<style type="text/css">
	.st0{fill:#94BB3E;}
	.st1{fill:#E0AE15;}
	.st2{opacity:0.15;}
	.st3{fill:#FFFFFF;}
	.st4{fill:#FFF1E4;}
	.st5{fill:none;stroke:#10151A;stroke-width:40;stroke-miterlimit:10;}
	.st6{opacity:0.75;fill:#F2F2F2;enable-background:new    ;}
</style>
<g id="Layer_1-2">
	<g>
		<g>
			<path class="st0" d="M15.4,212.3c68.9,0,68.9-107.9,137.8-107.9s69.1,198.2,138.2,198.2h137.8v280.9H291.4
				c-69.1,0-69.1-240.1-138.2-240.1s-68.9,54-137.8,54L15.4,212.3L15.4,212.3z"/>
			<path class="st1" d="M15.4,396.8c68.9,0,68.9-54,137.8-54S222.3,25.6,291.4,25.6h137.8v277.6H291.4
				c-69.1,0-69.1,278.6-138.2,278.6H15.4V396.8L15.4,396.8z"/>
		</g>
		<g class="st2">
			<path class="st3" d="M63.2,665.1H46.6v32.8H31.8v-85.3h30c9.8,0,17.4,2.2,22.8,6.6c5.3,4.4,8,10.8,8,19.2
				c0,5.7-1.4,10.5-4.1,14.3s-6.6,6.8-11.5,8.9l19.2,35.5v0.8H80.3L63.2,665.1L63.2,665.1z M46.6,653.2h15.2c5,0,8.9-1.3,11.7-3.8
				s4.2-6,4.2-10.3s-1.3-8.1-3.9-10.6s-6.5-3.8-11.6-3.9H46.6V653.2L46.6,653.2z"/>
			<path class="st3" d="M175.1,612.6v57c0,9.1-2.9,16.2-8.7,21.5s-13.5,7.9-23.2,7.9s-17.5-2.6-23.3-7.8s-8.6-12.5-8.6-21.7v-57
				h14.8v57.1c0,5.7,1.4,10.1,4.3,13.1s7.1,4.5,12.8,4.5c11.4,0,17.1-6,17.1-18v-56.6L175.1,612.6L175.1,612.6z"/>
			<path class="st3" d="M228.3,665.1h-16.5v32.8h-14.8v-85.3h30c9.9,0,17.4,2.2,22.8,6.6s8,10.8,8,19.2c0,5.7-1.4,10.5-4.1,14.3
				s-6.6,6.8-11.5,8.9l19.2,35.5v0.8h-15.9L228.3,665.1L228.3,665.1z M211.8,653.2H227c5,0,8.9-1.3,11.7-3.8s4.2-6,4.2-10.3
				s-1.3-8.1-3.9-10.6c-2.6-2.5-6.5-3.8-11.6-3.9h-15.6L211.8,653.2L211.8,653.2z"/>
			<path class="st3" d="M325.6,678.1h-33.1l-6.9,19.9h-15.4l32.2-85.3h13.3l32.3,85.3h-15.5L325.6,678.1L325.6,678.1z M296.7,666.1
				h24.7l-12.4-35.4L296.7,666.1L296.7,666.1z"/>
			<path class="st3" d="M378.6,686.1h38.7v11.8h-53.6v-85.3h14.8L378.6,686.1L378.6,686.1z"/>
		</g>
		<g id="xAxis">
			<rect x="15.7" y="714.1" class="st4" width="1.6" height="7.3"/>
			<rect x="48.8" y="714.1" class="st4" width="1.5" height="4.3"/>
			<rect x="83.1" y="714.1" class="st4" width="1.6" height="4.3"/>
			<rect x="117.8" y="714.1" class="st4" width="1.6" height="4.3"/>
			<rect x="152.5" y="714.1" class="st4" width="1.6" height="7.3"/>
			<rect x="186.8" y="714.1" class="st4" width="1.6" height="4.3"/>
			<rect x="221.1" y="714.1" class="st4" width="1.6" height="4.3"/>
			<rect x="255.8" y="714.1" class="st4" width="1.5" height="4.3"/>
			<rect x="290.5" y="714.1" class="st4" width="1.5" height="7.3"/>
			<rect x="324.4" y="714.1" class="st4" width="1.5" height="4.3"/>
			<rect x="358.7" y="714.1" class="st4" width="1.5" height="4.3"/>
			<rect x="393.4" y="714.1" class="st4" width="1.5" height="4.3"/>
			<rect x="427.3" y="714.1" class="st4" width="1.5" height="7.3"/>
		</g>
		<path class="st5" d="M11.9,400.7c68.9,0,53.5-48.4,122.4-48.4S222.6,20,291.7,20h137.8"/>
		<path class="st6" d="M16.2,403.2l-0.9-4.9c23.3-4.4,35.2-12.2,43.8-19.3l3.2,3.9C53.2,390.3,40.6,398.6,16.2,403.2L16.2,403.2z
			 M102.2,356.5l-1.3-4.8c8.4-2.2,18.2-3.2,29.9-3.2c5.5,0,10.8-2.3,16.1-7.1l3.3,3.7c-6.2,5.5-12.8,8.3-19.4,8.3
			C119.6,353.4,110.2,354.4,102.2,356.5L102.2,356.5z M176.9,302.2l-4.6-2c5.3-12.5,10.8-27.8,16.7-46.7l4.8,1.5
			C187.8,274.1,182.3,289.5,176.9,302.2z M207.9,207.1l-4.8-1.4c1.9-6.9,3.9-13.9,5.8-20.9c2.5-8.9,5-18.2,7.6-27.1l4.8,1.4
			c-2.5,9-5.1,18.2-7.6,27.1C211.7,193.2,209.8,200.2,207.9,207.1z M235.5,111.4l-4.8-1.5c6.2-19.1,11.9-34.5,17.5-47l4.6,2.1
			C247.3,77.3,241.6,92.5,235.5,111.4L235.5,111.4z M280.2,26.1l-2.7-4.2c4.6-2.9,9.4-4.4,14.2-4.4h35.8v5h-35.8
			C287.8,22.5,284.1,23.7,280.2,26.1z M426.8,22.5h-49.6v-5h49.6V22.5z"/>
	</g>
</g>
<path class="st3" d="M17.7,744.6h-2.4v-18.4h2.4V744.6z"/>
<g>
	<g>
		<path class="st3" d="M150.2,744h-2.4v-18.4h2.4V744z"/>
		<path class="st3" d="M157.2,744h-2.4v-18.4h2.4V744z"/>
	</g>
</g>
<g>
	<g>
		<path class="st3" d="M285.4,744.3H283v-18.4h2.4V744.3z"/>
		<path class="st3" d="M292.5,744.3H290v-18.4h2.4V744.3z"/>
		<path class="st3" d="M299.5,744.3h-2.4v-18.4h2.4V744.3z"/>
	</g>
</g>
<g>
	<g>
		<path class="st3" d="M413.6,744.3h-2.4v-18.4h2.4V744.3z"/>
		<path class="st3" d="M424.2,741.1l5.3-15.2h2.7l-6.8,18.4h-2.1l-6.8-18.4h2.6L424.2,741.1z"/>
	</g>
</g>
</svg>
