<?xml version="1.0" encoding="utf-8"?>
<!-- Generator: Adobe Illustrator 27.2.0, SVG Export Plug-In . SVG Version: 6.00 Build 0)  -->
<svg version="1.1" id="Layer_2_00000025407158647322796420000017282382067481635750_"
	 xmlns="http://www.w3.org/2000/svg" xmlns:xlink="http://www.w3.org/1999/xlink" x="0px" y="0px" viewBox="0 0 229.5 220.5"
	 style="enable-background:new 0 0 229.5 220.5;" xml:space="preserve">
<style type="text/css">
	.st0{fill:#E6C075;}
	.st1{fill:#F05A26;}
	.st2{fill:none;stroke:#000000;stroke-miterlimit:10;}
	.st3{fill:#B4996A;}
</style>
<g id="Layer_1-2">
	<g>
		<rect x="105.7" y="96.8" class="st0" width="18.2" height="123.7"/>
		<path class="st1" d="M9.2,0h211.2c5.1,0,9.2,4.1,9.2,9.2V100c0,5.1-4.1,9.2-9.2,9.2H9.2c-5.1,0-9.2-4.1-9.2-9.2V9.2
			C0,4.1,4.1,0,9.2,0z"/>
		<path class="st2" d="M12.7,4.4h204.1c4.8,0,8.6,3.9,8.6,8.6v83.2c0,4.8-3.9,8.6-8.6,8.6H12.7c-4.8,0-8.6-3.9-8.6-8.6V13
			C4.1,8.2,7.9,4.4,12.7,4.4z"/>
		<polygon points="174.9,58.7 160.5,58.7 172.5,70.7 42.3,70.7 42.3,80.7 172.5,80.7 160.5,92.7 174.9,92.7 191.9,75.7 		"/>
		<g>
			<path d="M54.2,42.2c0-1-0.3-1.8-1-2.3s-2-1.1-3.8-1.7S46.1,37,45,36.4c-2.9-1.6-4.4-3.7-4.4-6.4c0-1.4,0.4-2.6,1.2-3.7
				s1.9-1.9,3.4-2.5s3.1-0.9,4.9-0.9s3.5,0.3,4.9,1s2.5,1.6,3.3,2.8s1.2,2.6,1.2,4.1h-5.3c0-1.2-0.4-2.1-1.1-2.7s-1.8-1-3.1-1
				s-2.3,0.3-3,0.8S46,29.2,46,30.1c0,0.8,0.4,1.5,1.3,2.1c0.8,0.6,2.1,1.1,3.7,1.6c3,0.9,5.2,2,6.6,3.4s2.1,3,2.1,5
				c0,2.2-0.8,4-2.5,5.2s-3.9,1.9-6.8,1.9c-2,0-3.8-0.4-5.4-1.1s-2.8-1.7-3.7-3s-1.3-2.7-1.3-4.4h5.3c0,2.8,1.7,4.2,5.1,4.2
				c1.2,0,2.2-0.2,2.9-0.8S54.2,43.1,54.2,42.2L54.2,42.2z"/>
			<path d="M85.9,36.7c0,2.5-0.4,4.7-1.3,6.6s-2.2,3.4-3.8,4.4s-3.6,1.5-5.7,1.5s-4-0.5-5.7-1.5s-2.9-2.5-3.9-4.4s-1.4-4.1-1.4-6.5
				v-1.3c0-2.5,0.4-4.7,1.4-6.6s2.2-3.4,3.8-4.4s3.6-1.5,5.7-1.5s4,0.5,5.7,1.5s2.9,2.5,3.8,4.4s1.4,4.1,1.4,6.6
				C85.9,35.5,85.9,36.7,85.9,36.7z M80.6,35.5c0-2.7-0.5-4.7-1.4-6.1s-2.3-2.1-4.1-2.1s-3.1,0.7-4.1,2.1s-1.4,3.4-1.5,6.1v1.2
				c0,2.6,0.5,4.6,1.4,6.1s2.3,2.2,4.2,2.2s3.1-0.7,4.1-2.1s1.4-3.4,1.4-6.1L80.6,35.5L80.6,35.5z"/>
			<path d="M110.9,23.3v16.9c0,2.8-0.9,5-2.6,6.6s-4.2,2.4-7.2,2.4s-5.4-0.8-7.1-2.4s-2.7-3.8-2.7-6.5v-17h5.3v16.9
				c0,1.7,0.4,2.9,1.2,3.7s1.9,1.2,3.3,1.2c3,0,4.5-1.6,4.5-4.7v-17L110.9,23.3L110.9,23.3z"/>
			<path d="M126.5,39.5h-4.2v9.4H117V23.3h9.5c3,0,5.4,0.7,7,2s2.5,3.2,2.5,5.7c0,1.8-0.4,3.2-1.1,4.4s-1.9,2.1-3.4,2.8l5.5,10.5
				v0.2h-5.7L126.5,39.5L126.5,39.5z M122.3,35.2h4.2c1.3,0,2.3-0.3,3.1-1s1.1-1.6,1.1-2.8s-0.3-2.2-1-2.9s-1.7-1-3.2-1h-4.2
				L122.3,35.2L122.3,35.2z"/>
			<path d="M161.9,40.3c-0.2,2.8-1.2,4.9-3.1,6.5s-4.2,2.4-7.2,2.4c-3.3,0-5.9-1.1-7.7-3.3s-2.8-5.2-2.8-9.1v-1.6
				c0-2.5,0.4-4.6,1.3-6.5s2.1-3.3,3.7-4.3s3.5-1.5,5.6-1.5c2.9,0,5.3,0.8,7.1,2.4s2.9,3.8,3.1,6.7h-5.3c-0.1-1.6-0.6-2.9-1.4-3.6
				s-2-1.1-3.6-1.1c-1.8,0-3.1,0.6-3.9,1.9s-1.3,3.2-1.3,5.9v1.9c0,2.8,0.4,4.8,1.3,6.1s2.2,1.9,4,1.9c1.6,0,2.8-0.4,3.6-1.1
				s1.3-1.9,1.4-3.5L161.9,40.3L161.9,40.3z"/>
			<path d="M182.6,37.8h-10.1v6.9h11.9v4.2h-17.2V23.3h17.1v4.3h-11.9v6.1h10.1L182.6,37.8L182.6,37.8z"/>
		</g>
	</g>
	<rect x="119.1" y="109.2" class="st3" width="4.8" height="111.3"/>
</g>
<g>
	<path d="M80.1,62.2c-0.1,1.1-0.5,2-1.2,2.6s-1.6,0.9-2.8,0.9c-1.2,0-2.2-0.4-3-1.3c-0.7-0.9-1.1-2.1-1.1-3.6v-1
		c0-1,0.2-1.8,0.5-2.6c0.3-0.7,0.8-1.3,1.5-1.7c0.6-0.4,1.4-0.6,2.2-0.6c1.1,0,2,0.3,2.7,0.9c0.7,0.6,1.1,1.5,1.2,2.6h-1.4
		c-0.1-0.8-0.4-1.4-0.8-1.8S77,56,76.3,56c-0.9,0-1.6,0.3-2.1,1c-0.5,0.7-0.8,1.6-0.8,2.8v1c0,1.1,0.2,2.1,0.7,2.7
		c0.5,0.7,1.1,1,2,1c0.8,0,1.4-0.2,1.8-0.5c0.4-0.3,0.7-1,0.8-1.8H80.1z"/>
	<path d="M83.5,64.4h4.2v1.1h-5.6v-8.4h1.3V64.4z"/>
	<path d="M90.8,65.5h-1.3v-8.4h1.3V65.5z"/>
	<path d="M100,62.8c-0.1,0.9-0.4,1.6-1.1,2.1c-0.6,0.5-1.4,0.7-2.4,0.7c-1.1,0-1.9-0.4-2.6-1.1c-0.7-0.7-1-1.7-1-2.9V61
		c0-0.8,0.1-1.5,0.4-2.1c0.3-0.6,0.7-1.1,1.3-1.4c0.6-0.3,1.2-0.5,1.9-0.5c1,0,1.8,0.3,2.4,0.8c0.6,0.5,0.9,1.2,1,2.1h-1.3
		c-0.1-0.6-0.3-1.1-0.6-1.4c-0.3-0.3-0.8-0.4-1.4-0.4c-0.7,0-1.3,0.2-1.7,0.7c-0.4,0.5-0.6,1.2-0.6,2.1v0.8c0,0.9,0.2,1.6,0.6,2.1
		c0.4,0.5,0.9,0.7,1.7,0.7c0.7,0,1.1-0.1,1.5-0.4c0.3-0.3,0.6-0.7,0.7-1.3H100z"/>
	<path d="M104.3,61.8l-1.1,1v2.7h-1.3v-8.4h1.3v4l0.9-1l2.9-3h1.6l-3.5,3.7l3.7,4.7h-1.6L104.3,61.8z"/>
	<path d="M122.7,65.5h-1.4v-4.9H116v4.9h-1.4V55h1.4v4.5h5.3V55h1.4V65.5z"/>
	<path d="M130.4,61.7h-3.8v2.7h4.5v1.1h-5.8v-8.4h5.8v1.1h-4.4v2.4h3.8V61.7z"/>
	<path d="M136.2,62.3h-2v3.2h-1.3v-8.4h3.1c1,0,1.8,0.2,2.4,0.7s0.8,1.1,0.8,1.9c0,1.1-0.6,1.9-1.7,2.3l2.1,3.5v0.1h-1.4L136.2,62.3
		z M134.2,61.2h1.8c0.6,0,1-0.1,1.3-0.4s0.5-0.6,0.5-1.1c0-0.5-0.2-0.9-0.5-1.1c-0.3-0.3-0.8-0.4-1.4-0.4h-1.7V61.2z"/>
	<path d="M146.3,61.7h-3.8v2.7h4.5v1.1h-5.8v-8.4h5.8v1.1h-4.4v2.4h3.8V61.7z"/>
</g>
</svg>
