<?xml version="1.0" encoding="UTF-8"?><svg id="Layer_2" xmlns="http://www.w3.org/2000/svg" viewBox="0 0 910.28 153"><defs><style>.cls-1{fill:#fff;}.cls-2{fill:#ed2b2f;}</style></defs><g id="Layer_1-2"><g><g><path class="cls-2" d="m42.6.58l10.8,30.49L64.14.58h11.38v42.04h-8.69v-11.49l.87-19.84-11.35,31.33h-5.95l-11.32-31.3.87,19.81v11.49h-8.66V.58h11.32Z"/><path class="cls-2" d="m120.57,22.55c0,4.14-.73,7.77-2.19,10.89-1.46,3.12-3.56,5.52-6.28,7.22-2.72,1.69-5.85,2.54-9.37,2.54s-6.59-.84-9.33-2.51c-2.73-1.67-4.85-4.07-6.35-7.17-1.5-3.11-2.26-6.68-2.28-10.73v-2.08c0-4.14.75-7.78,2.24-10.93,1.49-3.15,3.6-5.56,6.32-7.25,2.72-1.68,5.84-2.53,9.34-2.53s6.62.84,9.34,2.53c2.72,1.68,4.83,4.1,6.32,7.25,1.49,3.15,2.24,6.78,2.24,10.9v1.88Zm-8.78-1.91c0-4.41-.79-7.76-2.37-10.05-1.58-2.29-3.83-3.44-6.76-3.44s-5.15,1.13-6.73,3.39c-1.58,2.26-2.38,5.58-2.4,9.95v2.05c0,4.29.79,7.62,2.37,9.99,1.58,2.37,3.85,3.55,6.81,3.55s5.14-1.14,6.7-3.42,2.35-5.61,2.37-9.98v-2.05Z"/><path class="cls-2" d="m164,42.62h-8.66l-16.86-27.66v27.66h-8.66V.58h8.66l16.89,27.72V.58h8.63v42.04Z"/><path class="cls-2" d="m206.17,7.59h-12.88v35.02h-8.66V7.59h-12.7V.58h34.24v7.02Z"/><path class="cls-2" d="m248.28,42.62h-8.66v-18.02h-16.89v18.02h-8.66V.58h8.66v17.04h16.89V.58h8.66v42.04Z"/><path class="cls-2" d="m267.46,35.66h18.39v6.96h-27.05V.58h8.66v35.08Z"/><path class="cls-2" d="m300.21,19.52l8.75-18.94h9.47l-13.8,26.79v15.25h-8.81v-15.25l-13.8-26.79h9.5l8.69,18.94Z"/><path class="cls-2" d="m377.13,42.62h-8.66v-18.02h-16.89v18.02h-8.66V.58h8.66v17.04h16.89V.58h8.66v42.04Z"/><path class="cls-2" d="m396.86,42.62h-8.66V.58h8.66v42.04Z"/><path class="cls-2" d="m441.1,37.3c-1.56,1.87-3.76,3.32-6.61,4.35-2.85,1.03-6.01,1.54-9.47,1.54-3.64,0-6.83-.79-9.57-2.38-2.74-1.59-4.86-3.89-6.35-6.92-1.49-3.02-2.26-6.57-2.3-10.65v-2.86c0-4.2.71-7.83,2.12-10.9,1.42-3.07,3.46-5.42,6.12-7.04,2.67-1.63,5.79-2.44,9.37-2.44,4.99,0,8.88,1.19,11.69,3.57,2.81,2.38,4.47,5.84,5,10.38h-8.43c-.38-2.41-1.24-4.17-2.55-5.28-1.32-1.12-3.13-1.67-5.44-1.67-2.95,0-5.19,1.11-6.73,3.32-1.54,2.21-2.32,5.51-2.34,9.87v2.69c0,4.41.84,7.74,2.51,9.99,1.67,2.25,4.13,3.38,7.36,3.38s5.57-.69,6.96-2.08v-7.25h-7.88v-6.38h16.54v16.78Z"/><path class="cls-2" d="m485.29,42.62h-8.66v-18.02h-16.89v18.02h-8.66V.58h8.66v17.04h16.89V.58h8.66v42.04Z"/><path class="cls-2" d="m528.55,30.49l5.66-29.91h8.63l-9.33,42.04h-8.72l-6.84-28.12-6.84,28.12h-8.72L493.07.58h8.63l5.69,29.85,6.93-29.85h7.33l6.9,29.91Z"/><path class="cls-2" d="m572.97,33.95h-15.19l-2.89,8.66h-9.21l15.65-42.04h8.03l15.74,42.04h-9.21l-2.92-8.66Zm-12.85-7.02h10.51l-5.28-15.74-5.23,15.74Z"/><path class="cls-2" d="m602.15,19.52l8.75-18.94h9.47l-13.8,26.79v15.25h-8.81v-15.25l-13.8-26.79h9.5l8.69,18.94Z"/><path class="cls-2" d="m674.76,7.59h-12.88v35.02h-8.66V7.59h-12.7V.58h34.24v7.02Z"/><path class="cls-2" d="m698.21,27.23h-6.9v15.39h-8.66V.58h15.62c4.97,0,8.8,1.11,11.49,3.32,2.69,2.21,4.04,5.34,4.04,9.38,0,2.87-.62,5.26-1.86,7.17-1.24,1.92-3.12,3.44-5.64,4.58l9.09,17.18v.4h-9.3l-7.88-15.39Zm-6.9-7.02h6.99c2.17,0,3.86-.55,5.05-1.66,1.19-1.11,1.79-2.63,1.79-4.58s-.56-3.54-1.69-4.68-2.85-1.7-5.18-1.7h-6.96v12.62Z"/><path class="cls-2" d="m747.08,33.95h-15.19l-2.89,8.66h-9.21l15.65-42.04h8.03l15.74,42.04h-9.21l-2.92-8.66Zm-12.85-7.02h10.51l-5.28-15.74-5.23,15.74Z"/><path class="cls-2" d="m791.38,25.44h-16.63v17.18h-8.66V.58h27.37v7.02h-18.71v10.86h16.63v6.99Z"/><path class="cls-2" d="m826.73,25.44h-16.63v17.18h-8.66V.58h27.37v7.02h-18.71v10.86h16.63v6.99Z"/><path class="cls-2" d="m846,42.62h-8.66V.58h8.66v42.04Z"/><path class="cls-2" d="m889.99,28.61c-.33,4.52-2,8.08-5.01,10.68-3.01,2.6-6.98,3.9-11.91,3.9-5.39,0-9.63-1.81-12.72-5.44-3.09-3.63-4.63-8.61-4.63-14.94v-2.57c0-4.04.71-7.6,2.14-10.68,1.42-3.08,3.46-5.44,6.11-7.09,2.65-1.65,5.72-2.47,9.22-2.47,4.85,0,8.76,1.3,11.72,3.9,2.96,2.6,4.68,6.25,5.14,10.94h-8.66c-.21-2.71-.97-4.68-2.27-5.9-1.3-1.22-3.28-1.83-5.93-1.83-2.89,0-5.05,1.03-6.48,3.1-1.43,2.07-2.17,5.28-2.21,9.63v3.18c0,4.54.69,7.86,2.06,9.96,1.38,2.1,3.55,3.15,6.51,3.15,2.67,0,4.67-.61,5.99-1.83,1.32-1.22,2.07-3.11,2.27-5.67h8.66Z"/><path class="cls-2" d="m159.27,134.35c.32-2.35-.9-4.07-3.66-5.16l-3.81-1.39-1.28-.55c-4.29-1.95-6.3-4.7-6.02-8.24.15-1.78.76-3.35,1.83-4.72,1.07-1.37,2.49-2.42,4.26-3.16,1.77-.74,3.65-1.09,5.65-1.05,1.94.04,3.67.48,5.19,1.3s2.68,1.97,3.47,3.45c.79,1.48,1.15,3.14,1.06,4.99l-4.17-.02c.15-1.98-.29-3.5-1.32-4.59-1.03-1.08-2.5-1.64-4.41-1.67-2.01-.03-3.7.44-5.05,1.41-1.35.97-2.13,2.3-2.34,3.97-.29,2.19,1.05,3.86,4.03,4.99l3.28,1.17,1.65.71c4.14,1.91,6.06,4.75,5.75,8.51-.16,1.81-.77,3.37-1.83,4.68-1.06,1.31-2.49,2.33-4.31,3.05-1.81.72-3.76,1.06-5.85,1.01-2.01-.02-3.85-.44-5.52-1.29-1.67-.84-2.93-2-3.8-3.47-.87-1.47-1.25-3.14-1.15-5l4.14.02c-.13,1.91.39,3.43,1.55,4.55s2.82,1.7,4.95,1.73c2.13.03,3.89-.43,5.27-1.39s2.18-2.24,2.4-3.86Z"/><path class="cls-2" d="m176.03,130.06l-2.18,12.56h-4.14l5.58-32.09,10.71.02c3.31,0,5.85.88,7.65,2.63,1.79,1.76,2.56,4.09,2.31,7-.26,3.07-1.49,5.49-3.67,7.25-2.18,1.76-5.06,2.64-8.63,2.64l-7.62-.02Zm.59-3.46l7.14.02c2.25,0,4.09-.57,5.53-1.7s2.28-2.7,2.53-4.72c.23-1.81-.14-3.27-1.12-4.4-.98-1.12-2.42-1.72-4.3-1.77l-7.6-.02-2.18,12.58Z"/><path class="cls-2" d="m220,127.79h-13.49l-1.98,11.37h15.69l-.62,3.46h-19.81l5.58-32.09h19.59l-.62,3.46h-15.45l-1.78,10.33h13.49l-.59,3.46Z"/><path class="cls-2" d="m247.36,127.79h-13.49l-1.98,11.37h15.69l-.62,3.46h-19.81l5.58-32.09h19.59l-.62,3.46h-15.45l-1.78,10.33h13.49l-.59,3.46Z"/><path class="cls-2" d="m254.51,142.62l5.58-32.09,8.33.02c2.61,0,4.87.65,6.75,1.96,1.89,1.31,3.24,3.11,4.07,5.41.82,2.3,1.06,4.87.73,7.72l-.22,1.61c-.65,4.67-2.46,8.4-5.44,11.18-2.98,2.78-6.73,4.18-11.24,4.18h-8.55Zm9.1-28.63l-4.36,25.14,4.08.02c3.11,0,5.75-.97,7.92-2.91,2.17-1.94,3.57-4.6,4.22-7.98.51-2.7.69-5,.53-6.9-.22-2.28-.98-4.06-2.27-5.34-1.29-1.29-3.03-1.96-5.2-2.02l-4.91-.02Z"/><path class="cls-2" d="m324.62,113.99h-9.98l-4.96,28.63h-4.12l4.96-28.63h-9.98l.62-3.46h24.09l-.62,3.46Z"/><path class="cls-2" d="m340.52,129.66h-7.4l-2.25,12.96h-4.17l5.58-32.09,9.65.02c3.36.01,5.93.87,7.69,2.56,1.76,1.69,2.5,3.99,2.23,6.91-.16,2.02-.89,3.79-2.19,5.32-1.3,1.53-3.03,2.68-5.19,3.46l4.98,13.53-.02.29h-4.41l-4.5-12.96Zm-6.81-3.48l6.08.02c2.12,0,3.9-.56,5.35-1.69s2.31-2.63,2.56-4.51c.22-1.84-.15-3.28-1.1-4.32-.96-1.04-2.41-1.59-4.36-1.65l-6.41-.02-2.12,12.16Z"/><path class="cls-2" d="m376.36,127.79h-13.49l-1.98,11.37h15.69l-.62,3.46h-19.81l5.58-32.09h19.59l-.62,3.46h-15.45l-1.79,10.33h13.49l-.6,3.46Z"/><path class="cls-2" d="m407.47,142.62h-4.01l-11.46-24.9-4.32,24.9h-4.17l5.58-32.09h4.01l11.48,25.01,4.34-25.01h4.12l-5.58,32.09Z"/><path class="cls-2" d="m417.19,142.62l5.58-32.09,8.33.02c2.61,0,4.87.65,6.75,1.96s3.24,3.11,4.07,5.41c.82,2.3,1.07,4.87.73,7.72l-.22,1.61c-.65,4.67-2.46,8.4-5.44,11.18-2.98,2.78-6.73,4.18-11.24,4.18h-8.55Zm9.1-28.63l-4.36,25.14,4.08.02c3.11,0,5.75-.97,7.92-2.91,2.17-1.94,3.57-4.6,4.22-7.98.51-2.7.69-5,.53-6.9-.22-2.28-.98-4.06-2.27-5.34-1.29-1.29-3.03-1.96-5.2-2.02l-4.91-.02Z"/><path class="cls-2" d="m466.41,134.35c.32-2.35-.9-4.07-3.66-5.16l-3.81-1.39-1.28-.55c-4.29-1.95-6.3-4.7-6.02-8.24.15-1.78.76-3.35,1.83-4.72,1.07-1.37,2.49-2.42,4.26-3.16,1.77-.74,3.65-1.09,5.65-1.05,1.94.04,3.67.48,5.19,1.3s2.68,1.97,3.47,3.45c.79,1.48,1.15,3.14,1.06,4.99l-4.17-.02c.15-1.98-.29-3.5-1.32-4.59-1.03-1.08-2.5-1.64-4.41-1.67-2.01-.03-3.69.44-5.05,1.41-1.35.97-2.13,2.3-2.34,3.97-.29,2.19,1.05,3.86,4.03,4.99l3.28,1.17,1.65.71c4.14,1.91,6.06,4.75,5.75,8.51-.16,1.81-.77,3.37-1.83,4.68s-2.49,2.33-4.31,3.05c-1.81.72-3.76,1.06-5.85,1.01-2.01-.02-3.85-.44-5.52-1.29-1.67-.84-2.93-2-3.8-3.47-.87-1.47-1.25-3.14-1.15-5l4.14.02c-.13,1.91.39,3.43,1.55,4.55s2.82,1.7,4.95,1.73c2.13.03,3.89-.43,5.27-1.39,1.38-.96,2.18-2.24,2.4-3.86Z"/><path class="cls-2" d="m491.79,129.68c.49-3.39,1.38-6.7,2.7-9.92,1.31-3.22,2.93-5.96,4.84-8.23,1.91-2.27,4.04-3.98,6.39-5.15l.59,2.73c-2.31,1.72-4.29,3.96-5.94,6.73-1.65,2.77-2.93,6.06-3.82,9.87-.9,3.81-1.33,7.57-1.3,11.27,0,3.04.39,5.72,1.18,8.03s1.92,4.14,3.41,5.48l-.99,2.47c-2.45-1.7-4.33-4.22-5.63-7.56-1.3-3.33-1.89-7.15-1.77-11.46.03-1.41.13-2.75.31-4.03l.04-.24Z"/><path class="cls-2" d="m527.24,142.62h-20.43l.48-3.11,11.83-11.5,2.16-2.14c2.48-2.48,3.86-4.77,4.12-6.88.19-1.62-.12-2.93-.95-3.96-.82-1.02-1.98-1.56-3.48-1.62-1.92-.06-3.53.5-4.83,1.69s-2.08,2.8-2.36,4.86l-3.94.02c.19-1.97.8-3.71,1.82-5.23,1.02-1.52,2.37-2.69,4.03-3.5,1.67-.82,3.48-1.2,5.43-1.16,2.66.06,4.77.86,6.34,2.41,1.56,1.55,2.24,3.56,2.02,6.03-.25,2.82-1.87,5.79-4.87,8.9l-2.03,2.05-10.31,9.81h15.49l-.53,3.33Z"/><path class="cls-2" d="m543.77,143.06c-2.7-.06-4.73-1.02-6.08-2.88-1.35-1.86-1.97-4.54-1.85-8.03.03-1.09.11-2.16.24-3.22l.79-5.35c.71-4.57,2.05-7.98,4.03-10.23,1.98-2.25,4.6-3.33,7.84-3.26,2.73.06,4.77,1,6.12,2.81,1.34,1.81,1.96,4.45,1.86,7.9-.04,1.1-.13,2.18-.26,3.24l-.77,5.18c-.78,4.83-2.15,8.37-4.12,10.6-1.97,2.23-4.57,3.31-7.8,3.24Zm8.84-19.75c.21-1.78.3-3.16.29-4.14-.07-3.73-1.52-5.65-4.34-5.75-2.06-.07-3.72.69-4.99,2.28-1.27,1.59-2.16,4.1-2.66,7.5l-.95,6.39c-.21,1.7-.3,3.09-.29,4.17.07,3.89,1.51,5.89,4.32,5.99,1.95.09,3.57-.63,4.84-2.16,1.27-1.53,2.18-3.95,2.72-7.27l1.06-7.01Z"/><path class="cls-2" d="m573.75,142.62h-4.01l4.72-27.06-8.53,3,.68-3.88,11.9-4.3h.71l-5.46,32.24Z"/><path class="cls-2" d="m605.65,128.51c-1.09,1.15-2.24,2-3.46,2.57-1.22.57-2.43.83-3.64.8-1.69-.03-3.13-.51-4.33-1.43-1.2-.93-2.07-2.2-2.62-3.81-.55-1.62-.74-3.38-.56-5.29.19-2.12.79-4.06,1.78-5.82,1-1.76,2.3-3.13,3.91-4.09,1.61-.96,3.38-1.41,5.32-1.36,2.56.06,4.56.98,6.02,2.78s2.24,4.19,2.36,7.21c.04,1.57-.14,3.53-.55,5.86-.97,5.49-2.88,9.63-5.74,12.42-2.86,2.78-6.53,4.22-11.01,4.31h-.99l.35-3.46h.82c3.16-.06,5.75-.94,7.77-2.65,2.02-1.71,3.54-4.39,4.57-8.04Zm-6.26,0c1.34.06,2.62-.32,3.86-1.14s2.25-1.91,3.04-3.29l.18-1.61.07-1.78c-.06-2.28-.48-4.03-1.27-5.27-.79-1.23-1.91-1.88-3.38-1.94-1.82-.07-3.38.63-4.66,2.1-1.29,1.48-2.03,3.32-2.24,5.54-.1.9-.09,1.81.04,2.73.13.93.4,1.74.79,2.45.79,1.43,1.98,2.16,3.57,2.2Z"/><path class="cls-2" d="m638.92,130.65h-10.47l.59-3.33h10.47l-.59,3.33Z"/><path class="cls-2" d="m676.71,142.62h-20.43l.48-3.11,11.83-11.5,2.16-2.14c2.48-2.48,3.86-4.77,4.12-6.88.19-1.62-.12-2.93-.95-3.96-.82-1.02-1.98-1.56-3.48-1.62-1.92-.06-3.53.5-4.83,1.69s-2.08,2.8-2.36,4.86l-3.94.02c.19-1.97.8-3.71,1.82-5.23,1.02-1.52,2.37-2.69,4.03-3.5,1.67-.82,3.48-1.2,5.43-1.16,2.66.06,4.77.86,6.34,2.41,1.56,1.55,2.24,3.56,2.02,6.03-.25,2.82-1.87,5.79-4.87,8.9l-2.03,2.05-10.31,9.81h15.49l-.53,3.33Z"/><path class="cls-2" d="m693.25,143.06c-2.7-.06-4.73-1.02-6.08-2.88-1.35-1.86-1.97-4.54-1.85-8.03.03-1.09.11-2.16.24-3.22l.79-5.35c.71-4.57,2.05-7.98,4.03-10.23,1.98-2.25,4.6-3.33,7.84-3.26,2.73.06,4.77,1,6.12,2.81,1.34,1.81,1.96,4.45,1.86,7.9-.04,1.1-.13,2.18-.26,3.24l-.77,5.18c-.78,4.83-2.15,8.37-4.12,10.6-1.97,2.23-4.57,3.31-7.8,3.24Zm8.84-19.75c.21-1.78.3-3.16.29-4.14-.07-3.73-1.52-5.65-4.34-5.75-2.06-.07-3.72.69-4.99,2.28-1.27,1.59-2.16,4.1-2.66,7.5l-.95,6.39c-.21,1.7-.3,3.09-.29,4.17.07,3.89,1.51,5.89,4.32,5.99,1.95.09,3.57-.63,4.84-2.16,1.27-1.53,2.18-3.95,2.72-7.27l1.06-7.01Z"/><path class="cls-2" d="m730.85,142.62h-20.43l.48-3.11,11.83-11.5,2.16-2.14c2.48-2.48,3.86-4.77,4.12-6.88.19-1.62-.12-2.93-.95-3.96-.82-1.02-1.98-1.56-3.48-1.62-1.92-.06-3.53.5-4.83,1.69s-2.08,2.8-2.36,4.86l-3.94.02c.19-1.97.8-3.71,1.82-5.23,1.02-1.52,2.37-2.69,4.03-3.5,1.67-.82,3.48-1.2,5.43-1.16,2.66.06,4.77.86,6.34,2.41,1.56,1.55,2.24,3.56,2.02,6.03-.25,2.82-1.87,5.79-4.87,8.9l-2.03,2.05-10.31,9.81h15.49l-.53,3.33Z"/><path class="cls-2" d="m757.92,142.62h-20.43l.48-3.11,11.83-11.5,2.16-2.14c2.48-2.48,3.86-4.77,4.12-6.88.19-1.62-.12-2.93-.95-3.96-.82-1.02-1.98-1.56-3.48-1.62-1.92-.06-3.53.5-4.83,1.69s-2.08,2.8-2.36,4.86l-3.94.02c.19-1.97.8-3.71,1.82-5.23,1.02-1.52,2.37-2.69,4.03-3.5,1.67-.82,3.48-1.2,5.43-1.16,2.66.06,4.77.86,6.34,2.41,1.56,1.55,2.24,3.56,2.02,6.03-.25,2.82-1.87,5.79-4.87,8.9l-2.03,2.05-10.31,9.81h15.49l-.53,3.33Z"/><path class="cls-2" d="m776.11,129.73c-.51,3.58-1.45,6.97-2.8,10.17-1.35,3.2-2.97,5.89-4.86,8.09-1.89,2.2-3.98,3.87-6.27,5.01l-.62-2.53c5.04-3.79,8.4-9.88,10.09-18.27.68-3.38,1-6.63.97-9.76-.07-6.3-1.6-10.82-4.58-13.55l1.04-2.47c1.65,1.15,3.04,2.67,4.18,4.57,1.14,1.9,1.98,4.11,2.51,6.63.54,2.52.77,5.13.72,7.83-.04,1.43-.15,2.77-.33,4.03l-.04.24Z"/></g><path class="cls-1" d="m910.28,77.69h-44.19v-5.12h44.19v5.12Zm-92.3,0h-48.12v-5.12h48.12v5.12Zm-96.23,0h-48.12v-5.12h48.12v5.12Zm-96.23,0h-48.12v-5.12h48.12v5.12Zm-96.23,0h-48.12v-5.12h48.12v5.12Zm-96.23,0h-48.12v-5.12h48.12v5.12Zm-96.23,0h-48.12v-5.12h48.12v5.12Zm-96.23,0h-48.12v-5.12h48.12v5.12Zm-96.23,0h-48.12v-5.12h48.12v5.12Zm-96.23,0H0v-5.12h48.12v5.12Z"/></g></g></svg>