<?xml version="1.0" encoding="UTF-8"?><svg id="Layer_2" xmlns="http://www.w3.org/2000/svg" viewBox="0 0 652.13 235.65"><defs><style>.cls-1{fill:#fff;}.cls-2{fill:#989898;}.cls-3{fill:#cccbcb;}.cls-4{isolation:isolate;}.cls-5{fill:#006937;}.cls-6{fill:none;stroke:#fff;stroke-miterlimit:10;stroke-width:2.03px;}</style></defs><g id="Layer_1-2"><g><path class="cls-3" d="m109,110.84h418.31c20.45,0,50.31,2.71,73.43,26.16,20.19,20.48,31.33,54.79,33.84,98.64l17.56-2.86c0-54.44-11.87-92.31-36.28-115.78-24.39-23.45-55.9-26.16-77.47-26.16H97.05c-27.55,0-50.03,10.64-66.81,31.61C-2.99,163.99-.02,228.14.13,230.97l17.36,1.79c1.48-23.84,7.26-62.72,28.18-90.31,15.91-20.98,37.21-31.61,63.33-31.61Z"/><path class="cls-2" d="m54.95,149.89c10.25-12.82,24.02-19.05,42.1-19.05h441.33c26.04,0,43.83,5.45,56,17.15,16.01,15.4,23.8,43.13,23.8,84.79l16.4,2.86c-2.51-43.85-8.29-80.92-28.48-101.41-23.12-23.45-58.33-23.4-78.78-23.4H109c-26.11,0-54.82,8.88-70.73,29.85-20.92,27.59-19.3,68.23-20.78,92.06l16.54-1.15c-.03-.52-1.99-53.07,20.93-81.72Z"/></g><g><rect class="cls-5" x="95.08" width="466.11" height="221.69" rx="18.63" ry="18.63"/><rect class="cls-6" x="103.34" y="8.87" width="449.59" height="203.96" rx="17.55" ry="17.55"/><polygon class="cls-1" points="334.55 184.49 334.55 166.08 327.65 166.08 327.65 184.49 319.41 184.49 319.41 184.88 331.1 196.57 342.79 184.88 342.79 184.49 334.55 184.49"/><polygon class="cls-1" points="485.91 184.49 485.91 166.08 479.02 166.08 479.02 184.49 470.77 184.49 470.77 184.88 482.46 196.57 494.16 184.88 494.16 184.49 485.91 184.49"/><polygon class="cls-1" points="181.56 184.49 181.56 166.08 174.66 166.08 174.66 184.49 166.42 184.49 166.42 184.88 178.11 196.57 189.8 184.88 189.8 184.49 181.56 184.49"/><g class="cls-4"><path class="cls-1" d="m239.28,45.04l10.7,30.22,10.65-30.22h11.28v41.67h-8.62v-11.39l.86-19.66-11.25,31.06h-5.9l-11.22-31.03.86,19.63v11.39h-8.59v-41.67h11.22Z"/><path class="cls-1" d="m280.5,70.94c0-3.07.59-5.81,1.77-8.21s2.89-4.26,5.11-5.58c2.22-1.32,4.8-1.97,7.74-1.97,4.18,0,7.59,1.28,10.23,3.84,2.64,2.56,4.12,6.03,4.42,10.42l.06,2.12c0,4.75-1.33,8.56-3.98,11.43-2.65,2.87-6.21,4.31-10.68,4.31s-8.03-1.43-10.69-4.29c-2.66-2.86-3.99-6.75-3.99-11.68v-.37Zm8.27.59c0,2.94.55,5.19,1.66,6.75,1.11,1.56,2.69,2.34,4.75,2.34s3.57-.77,4.69-2.31c1.13-1.54,1.69-4,1.69-7.38,0-2.88-.56-5.12-1.69-6.71-1.13-1.59-2.71-2.38-4.75-2.38s-3.59.79-4.69,2.37c-1.11,1.58-1.66,4.02-1.66,7.32Z"/><path class="cls-1" d="m325.48,55.74l.26,3.58c2.21-2.77,5.18-4.15,8.9-4.15,3.28,0,5.72.96,7.33,2.89,1.6,1.93,2.42,4.81,2.46,8.64v20.01h-8.27v-19.81c0-1.76-.38-3.03-1.15-3.82-.76-.79-2.03-1.19-3.81-1.19-2.33,0-4.07.99-5.24,2.98v21.84h-8.27v-30.97h7.79Z"/><path class="cls-1" d="m363.53,48.13v7.61h5.3v6.07h-5.3v15.46c0,1.14.22,1.97.66,2.46.44.5,1.28.74,2.52.74.92,0,1.73-.07,2.43-.2v6.27c-1.62.5-3.29.74-5.01.74-5.8,0-8.76-2.93-8.87-8.79v-16.69h-4.52v-6.07h4.52v-7.61h8.27Z"/><path class="cls-1" d="m384.44,59.12c2.19-2.63,4.95-3.95,8.27-3.95,6.72,0,10.12,3.9,10.22,11.71v19.83h-8.27v-19.61c0-1.77-.38-3.09-1.14-3.94-.76-.85-2.03-1.27-3.81-1.27-2.42,0-4.18.93-5.27,2.8v22.01h-8.27v-43.96h8.27v16.37Z"/><path class="cls-1" d="m428.87,78.15c0-1.01-.5-1.81-1.5-2.39s-2.61-1.1-4.82-1.56c-7.37-1.55-11.05-4.67-11.05-9.39,0-2.75,1.14-5.04,3.42-6.88,2.28-1.84,5.26-2.76,8.94-2.76,3.93,0,7.07.93,9.43,2.78,2.36,1.85,3.54,4.26,3.54,7.21h-8.27c0-1.18-.38-2.16-1.14-2.93-.76-.77-1.96-1.16-3.58-1.16-1.39,0-2.47.31-3.23.94-.76.63-1.14,1.43-1.14,2.4,0,.92.43,1.66,1.3,2.22.87.56,2.33,1.05,4.39,1.46,2.06.41,3.8.87,5.21,1.39,4.37,1.6,6.55,4.38,6.55,8.33,0,2.82-1.21,5.11-3.64,6.85-2.42,1.75-5.55,2.62-9.39,2.62-2.6,0-4.9-.46-6.91-1.39-2.01-.93-3.59-2.19-4.74-3.81s-1.72-3.35-1.72-5.22h7.84c.08,1.47.62,2.59,1.63,3.38,1.01.78,2.37,1.17,4.06,1.17,1.58,0,2.78-.3,3.59-.9.81-.6,1.22-1.39,1.22-2.36Z"/><path class="cls-1" d="m225.84,131.71h-19.43v-3.31l9.63-10.5c1.39-1.55,2.38-2.84,2.97-3.88s.88-2.08.88-3.13c0-1.38-.39-2.49-1.16-3.33s-1.82-1.27-3.13-1.27c-1.56,0-2.77.48-3.63,1.43-.86.95-1.29,2.26-1.29,3.91h-4.82c0-1.76.4-3.34,1.2-4.75.8-1.41,1.95-2.5,3.43-3.29,1.49-.78,3.21-1.17,5.15-1.17,2.81,0,5.02.7,6.64,2.11,1.62,1.41,2.43,3.36,2.43,5.85,0,1.44-.41,2.95-1.22,4.54-.81,1.58-2.15,3.38-4,5.39l-7.07,7.56h13.42v3.85Z"/><path class="cls-1" d="m250.38,119.54c0,4.16-.78,7.29-2.33,9.4-1.55,2.11-3.92,3.17-7.1,3.17s-5.48-1.03-7.06-3.09c-1.58-2.06-2.39-5.1-2.43-9.14v-5c0-4.16.78-7.27,2.33-9.35,1.55-2.08,3.93-3.12,7.12-3.12s5.52,1.01,7.08,3.04c1.56,2.03,2.35,5.06,2.39,9.09v5Zm-4.82-5.4c0-2.71-.37-4.7-1.11-5.96s-1.92-1.9-3.53-1.9-2.73.6-3.47,1.8c-.74,1.2-1.13,3.07-1.17,5.61v6.55c0,2.7.38,4.71,1.13,6.03s1.94,1.98,3.55,1.98,2.69-.61,3.43-1.84c.74-1.22,1.13-3.14,1.17-5.75v-6.53Z"/><path class="cls-1" d="m269.74,131.71h-4.8v-23.22l-7.09,2.42v-4.05l11.27-4.15h.62v29Z"/><path class="cls-1" d="m295.5,119.62c-1.61,1.71-3.5,2.56-5.66,2.56-2.54,0-4.57-.89-6.07-2.67-1.51-1.78-2.26-4.12-2.26-7.02,0-1.91.38-3.63,1.15-5.18s1.86-2.75,3.28-3.61c1.42-.86,3.06-1.29,4.92-1.29,2.91,0,5.22,1.08,6.93,3.25s2.56,5.08,2.56,8.71v1.35c0,5.21-1.18,9.19-3.53,11.93-2.36,2.74-5.87,4.13-10.54,4.17h-.58v-3.99h.69c2.84-.04,5.03-.72,6.55-2.05,1.52-1.33,2.38-3.38,2.56-6.16Zm-4.65-1.21c.97,0,1.87-.28,2.72-.83s1.5-1.32,1.97-2.3v-1.88c0-2.13-.44-3.84-1.31-5.14s-2-1.95-3.39-1.95-2.5.57-3.32,1.72c-.83,1.15-1.24,2.59-1.24,4.34s.42,3.27,1.25,4.39c.83,1.11,1.95,1.67,3.33,1.67Z"/><path class="cls-1" d="m330.3,113.72h-5.05v13.93h-2.79v-13.93h-5.01v-2.27h12.85v2.27Z"/><path class="cls-1" d="m346.19,119.97c0,1.59-.27,2.98-.82,4.18-.55,1.2-1.33,2.12-2.35,2.76-1.02.64-2.2.96-3.52.96s-2.48-.32-3.51-.96c-1.03-.64-1.82-1.56-2.38-2.74-.56-1.19-.84-2.56-.85-4.11v-.91c0-1.58.28-2.97.84-4.18.56-1.21,1.35-2.13,2.37-2.78,1.02-.64,2.19-.96,3.51-.96s2.49.32,3.51.95c1.02.63,1.81,1.55,2.37,2.74s.84,2.58.85,4.16v.9Zm-2.81-.85c0-1.79-.34-3.17-1.02-4.13-.68-.96-1.64-1.44-2.89-1.44s-2.17.48-2.85,1.43c-.69.95-1.04,2.3-1.05,4.04v.93c0,1.78.35,3.16,1.04,4.13.69.97,1.66,1.46,2.89,1.46s2.2-.47,2.88-1.42c.67-.95,1.01-2.34,1.01-4.16v-.85Z"/><path class="cls-1" d="m382.23,131.71h-19.43v-3.31l9.63-10.5c1.39-1.55,2.38-2.84,2.97-3.88s.88-2.08.88-3.13c0-1.38-.39-2.49-1.16-3.33-.77-.85-1.82-1.27-3.13-1.27-1.56,0-2.77.48-3.63,1.43-.86.95-1.29,2.26-1.29,3.91h-4.82c0-1.76.4-3.34,1.2-4.75.8-1.41,1.95-2.5,3.43-3.29,1.49-.78,3.21-1.17,5.15-1.17,2.8,0,5.02.7,6.64,2.11,1.62,1.41,2.43,3.36,2.43,5.85,0,1.44-.41,2.95-1.22,4.54-.81,1.58-2.15,3.38-4,5.39l-7.07,7.56h13.42v3.85Z"/><path class="cls-1" d="m406.78,119.54c0,4.16-.78,7.29-2.33,9.4-1.55,2.11-3.92,3.17-7.1,3.17s-5.48-1.03-7.06-3.09-2.39-5.1-2.43-9.14v-5c0-4.16.78-7.27,2.33-9.35,1.55-2.08,3.93-3.12,7.12-3.12s5.52,1.01,7.08,3.04c1.55,2.03,2.35,5.06,2.39,9.09v5Zm-4.82-5.4c0-2.71-.37-4.7-1.11-5.96s-1.92-1.9-3.53-1.9-2.73.6-3.47,1.8c-.74,1.2-1.13,3.07-1.17,5.61v6.55c0,2.7.38,4.71,1.13,6.03.75,1.32,1.94,1.98,3.55,1.98s2.69-.61,3.43-1.84c.74-1.22,1.13-3.14,1.17-5.75v-6.53Z"/><path class="cls-1" d="m432.51,131.71h-19.43v-3.31l9.63-10.5c1.39-1.55,2.38-2.84,2.97-3.88s.88-2.08.88-3.13c0-1.38-.39-2.49-1.16-3.33-.77-.85-1.82-1.27-3.13-1.27-1.56,0-2.77.48-3.63,1.43-.86.95-1.29,2.26-1.29,3.91h-4.82c0-1.76.4-3.34,1.2-4.75.8-1.41,1.95-2.5,3.43-3.29,1.49-.78,3.21-1.17,5.15-1.17,2.8,0,5.02.7,6.64,2.11,1.62,1.41,2.43,3.36,2.43,5.85,0,1.44-.41,2.95-1.22,4.54-.81,1.58-2.15,3.38-4,5.39l-7.07,7.56h13.42v3.85Z"/><path class="cls-1" d="m457.65,131.71h-19.43v-3.31l9.63-10.5c1.39-1.55,2.38-2.84,2.97-3.88s.88-2.08.88-3.13c0-1.38-.39-2.49-1.16-3.33-.77-.85-1.82-1.27-3.13-1.27-1.56,0-2.77.48-3.63,1.43-.86.95-1.29,2.26-1.29,3.91h-4.82c0-1.76.4-3.34,1.2-4.75.8-1.41,1.95-2.5,3.43-3.29,1.49-.78,3.21-1.17,5.15-1.17,2.8,0,5.02.7,6.64,2.11,1.62,1.41,2.43,3.36,2.43,5.85,0,1.44-.41,2.95-1.22,4.54-.81,1.58-2.15,3.38-4,5.39l-7.07,7.56h13.42v3.85Z"/></g></g></g></svg>