<?xml version="1.0" encoding="UTF-8"?><svg id="Layer_2" xmlns="http://www.w3.org/2000/svg" viewBox="0 0 473.07 80.43"><defs><style>.cls-1{fill:#e0ae15;}.cls-2{fill:#fff;opacity:.5;}.cls-3{fill:#94bb3e;}.cls-4{isolation:isolate;opacity:.75;}</style></defs><g id="Layer_1-2"><g class="cls-4"><path class="cls-1" d="m13.98,50.6v29.83H0V0h30.77c8.99,0,16.12,2.34,21.41,7.02,5.28,4.68,7.93,10.88,7.93,18.58s-2.59,14.03-7.76,18.42c-5.17,4.39-12.42,6.58-21.74,6.58H13.98Zm0-11.27h16.79c4.97,0,8.76-1.17,11.38-3.51,2.61-2.34,3.92-5.72,3.92-10.14s-1.33-7.82-3.98-10.41c-2.65-2.6-6.3-3.93-10.94-4H13.98v28.06Z"/><path class="cls-1" d="m96.08,0l23.2,61.65L142.43,0h18.06v80.43h-13.92v-26.51l1.38-35.46-23.75,61.98h-10l-23.7-61.92,1.38,35.41v26.51h-13.92V0h18.12Z"/><path class="cls-2" d="m211.93,58.93c0-2.83.77-5.42,2.31-7.79,1.54-2.37,4.58-5.17,9.11-8.42-2.38-3-4.04-5.54-4.98-7.64-.94-2.1-1.41-4.13-1.41-6.09,0-4.79,1.46-8.57,4.37-11.36,2.91-2.79,6.83-4.18,11.76-4.18,4.45,0,8.1,1.31,10.94,3.93,2.84,2.62,4.26,5.86,4.26,9.72,0,2.55-.64,4.89-1.93,7.03-1.29,2.14-3.4,4.28-6.34,6.4l-4.16,3.02,11.8,13.94c1.71-3.36,2.56-7.1,2.56-11.21h8.86c0,7.53-1.76,13.7-5.29,18.52l8.99,10.62h-11.84l-3.44-4.07c-4.37,3.28-9.57,4.91-15.62,4.91s-10.88-1.6-14.51-4.81c-3.62-3.21-5.44-7.38-5.44-12.54Zm20.24,9.2c3.44,0,6.66-1.15,9.66-3.44l-13.35-15.75-1.3.92c-3.36,2.55-5.04,5.46-5.04,8.73,0,2.83.91,5.12,2.73,6.89,1.82,1.76,4.25,2.65,7.31,2.65Zm-5.63-39.39c0,2.35,1.44,5.31,4.33,8.86l4.66-3.19,1.3-1.05c1.74-1.54,2.6-3.51,2.6-5.92,0-1.6-.6-2.96-1.81-4.09-1.2-1.13-2.73-1.7-4.58-1.7-1.99,0-3.57.67-4.75,2.02s-1.76,3.04-1.76,5.08Z"/><path class="cls-3" d="m354.61,61.7h-31.16l-6.52,18.73h-14.53L332.79,0h12.54l30.44,80.43h-14.58l-6.57-18.73Zm-27.23-11.27h23.31l-11.66-33.37-11.66,33.37Z"/><path class="cls-3" d="m408.66,0l23.2,61.65L455.01,0h18.06v80.43h-13.92v-26.51l1.38-35.46-23.75,61.98h-10l-23.7-61.92,1.38,35.41v26.51h-13.92V0h18.12Z"/></g></g></svg>