<?xml version="1.0" encoding="utf-8"?>
<!-- Generator: Adobe Illustrator 22.1.0, SVG Export Plug-In . SVG Version: 6.00 Build 0)  -->
<svg version="1.1" xmlns="http://www.w3.org/2000/svg" xmlns:xlink="http://www.w3.org/1999/xlink" x="0px" y="0px"
	 viewBox="0 0 100 100" style="enable-background:new 0 0 100 100;" xml:space="preserve">
<style type="text/css">
	.st0{display:none;}
	.st1{display:inline;fill:#E6E6E6;}
	.st2{display:inline;}
	.st3{fill:none;stroke:#4D4D4D;stroke-miterlimit:10;}
	.st4{fill:#F8C659;}
	.st5{fill:#EE5F3F;}
	.st6{fill:#C20037;}
	.st7{fill:#999999;}
	.st8{fill:#FF4076;}
	.st9{fill:#DA3728;}
	.st10{fill:#EE5F3D;}
	.st11{fill:#F2F2F2;}
	.st12{fill:#BF9945;}
	.st13{fill:#FFFFFF;}
	.st14{fill:#C2365E;}
	.st15{fill:none;}
	.st16{fill:#7AC943;}
	.st17{fill:#3F543A;}
	.st18{fill:#FF9E2D;}
	.st19{fill:#FF8800;}
	.st20{fill:#FFA315;}
	.st21{fill:#9B5300;}
	.st22{fill:#B76200;}
	.st23{fill:#BA7910;}
	.st24{fill:#A52253;}
	.st25{fill:#FF0047;}
	.st26{fill:#EC5D57;}
	.st27{fill:#FF1528;}
	.st28{fill:#A9002F;}
	.st29{fill:#BF120D;}
	.st30{fill:#8C0C3C;}
	.st31{fill:#BF1052;}
	.st32{fill:#FF3480;}
	.st33{fill:#C10036;}
	.st34{fill:#A60E47;}
	.st35{fill:#EB3076;}
	.st36{fill:#C41117;}
	.st37{fill:#EA403A;}
	.st38{fill:#C9366D;}
	.st39{fill:none;stroke:#C41117;stroke-width:0;stroke-linecap:round;stroke-linejoin:round;}
	.st40{fill:#FF5997;}
	.st41{fill:#FFDEBA;}
	.st42{fill:#FF931E;}
	.st43{fill:#F7931E;}
	.st44{fill:#D9A41C;}
	.st45{fill:#F8BC20;}
	.st46{fill:#FCEE21;}
	.st47{fill:#F8D44D;}
	.st48{fill:#F8CB23;}
	.st49{fill:#687994;}
	.st50{fill:#92C8AF;}
	.st51{fill:#739E8A;}
	.st52{fill:#3FA9F5;stroke:#FFFFFF;stroke-miterlimit:10;}
	.st53{fill:#3FA9F5;}
	.st54{fill:#FFFFFF;stroke:#3FA9F5;stroke-width:2;stroke-miterlimit:10;}
	.st55{fill:#E6E6E6;}
	.st56{fill:#CCCCCC;}
	.st57{fill:#4D4D4D;}
	.st58{fill:#8E59F8;}
	.st59{fill:#D3A8F8;}
	.st60{fill:#FF0000;}
	.st61{fill:#C2365E;stroke:#FFFFFF;stroke-miterlimit:10;}
	.st62{fill:#80364B;}
	.st63{fill:#32422D;}
	.st64{fill:#81AB78;}
	.st65{fill:#5B7954;}
	.st66{fill:#F8BE00;}
	.st67{fill:#FFBC6E;}
	.st68{fill:#FF1D25;}
	.st69{fill:#F86C66;}
	.st70{fill:#F8A09C;}
	.st71{fill:#FFDD61;}
	.st72{fill:#84D2AB;}
	.st73{fill:#C7D2CD;}
	.st74{fill:none;stroke:#F8BE00;stroke-width:4;stroke-linecap:round;stroke-linejoin:round;stroke-miterlimit:10;}
	.st75{fill:none;stroke:#808080;stroke-miterlimit:10;}
	.st76{fill:#808080;}
	.st77{fill:#B3B3B3;}
	.st78{fill:#C7B299;}
	.st79{fill:#EEE8D6;}
	.st80{fill:#F8E7A8;}
	.st81{fill:#F8E7D3;}
	.st82{opacity:0.25;}
</style>
<g id="bkgrd" class="st0">
</g>
<g id="grid" class="st0">
</g>
<g id="under_layer">
</g>
<g id="main">
	<g>
		<g>
			
				<image style="overflow:visible;opacity:0.5;" width="109" height="107" xlink:href="2C28D5F3.png"  transform="matrix(1 0 0 1 -4.7609 -1.4484)">
			</image>
			<g>
				<path class="st13" d="M62.3,90.8c-0.4,0-0.9-0.1-1.3-0.2L25.6,78.1c-1.1-0.4-1.9-1.2-2.3-2.3l-13.1-37c-0.6-1.6,0-3.4,1.4-4.4
					l29-20c0.6-0.4,1.4-0.7,2.2-0.7c0,0,0.2,0,0.2,0l34.9,1.9c1.7,0.1,3.2,1.4,3.5,3.1l7.8,39.8c0.2,1.1-0.1,2.3-0.8,3.2L65.2,89.5
					C64.5,90.3,63.4,90.8,62.3,90.8C62.3,90.8,62.3,90.8,62.3,90.8z"/>
				<path class="st13" d="M42.7,16.2C42.8,16.2,42.8,16.3,42.7,16.2l34.9,1.9c0.6,0,1.1,0.5,1.2,1L86.6,59c0.1,0.4,0,0.8-0.3,1.1
					L63.3,87.9c-0.3,0.3-0.6,0.5-1,0.5c-0.1,0-0.3,0-0.4-0.1L26.4,75.8c-0.4-0.1-0.7-0.4-0.8-0.8L12.5,38c-0.2-0.6,0-1.2,0.5-1.5
					l29-20C42.2,16.3,42.5,16.2,42.7,16.2 M42.7,11.2c-1.3,0-2.5,0.4-3.6,1.1l-29,20C7.8,34,6.8,37,7.8,39.7l13.1,37
					c0.6,1.8,2,3.2,3.8,3.8L60.2,93c0.7,0.2,1.4,0.4,2.1,0.4c1.9,0,3.6-0.8,4.8-2.3l23.1-27.8c1.2-1.5,1.7-3.4,1.3-5.2l-7.8-39.8
					c-0.6-2.8-3-4.9-5.8-5.1l-34.9-1.9C43,11.3,42.8,11.2,42.7,11.2L42.7,11.2z"/>
			</g>
		</g>
		<g>
			<path class="st55" d="M77.7,18.2l-34.9-1.9c-0.3,0-0.6,0.1-0.8,0.2l-29,20c-0.5,0.3-0.7,1-0.5,1.5l13.1,37
				c0.1,0.4,0.4,0.7,0.8,0.8l35.5,12.5c0.5,0.2,1.1,0,1.4-0.4l23.1-27.8c0.2-0.3,0.4-0.7,0.3-1.1l-7.8-39.8
				C78.8,18.6,78.3,18.2,77.7,18.2z"/>
			<path class="st56" d="M50,43.3l-31.2-6.2c-1.1-0.2-1.4-1.7-0.5-2.3l24.1-16.6c0.2-0.2,0.5-0.2,0.8-0.2l29,1.6
				c1.1,0.1,1.6,1.4,0.8,2.2L51.2,43C50.9,43.3,50.4,43.4,50,43.3z"/>
			<path class="st7" d="M58.1,84.8L28,74.2c-0.4-0.1-0.7-0.4-0.8-0.8L16,41.8c-0.3-1,0.5-1.9,1.5-1.7l31.9,6.4
				c0.5,0.1,0.9,0.5,1,0.9l9.4,35.9C60.1,84.2,59.1,85.1,58.1,84.8z"/>
			<g>
				
					<ellipse transform="matrix(0.1393 -0.9903 0.9903 0.1393 4.111 100.9973)" class="st57" cx="60.2" cy="48.1" rx="6.8" ry="3.8"/>
				
					<ellipse transform="matrix(0.9724 -0.2333 0.2333 0.9724 -5.648 11.6958)" class="st57" cx="46.6" cy="29.7" rx="6.8" ry="3.8"/>
				
					<ellipse transform="matrix(0.1393 -0.9903 0.9903 0.1393 8.5651 117.0308)" class="st57" cx="71.6" cy="53.6" rx="6.8" ry="3.2"/>
				
					<ellipse transform="matrix(0.1393 -0.9903 0.9903 0.1393 30.5755 105.6683)" class="st57" cx="76.1" cy="35.2" rx="6.8" ry="3.2"/>
				
					<ellipse transform="matrix(0.1393 -0.9903 0.9903 0.1393 -13.3075 129.0852)" class="st57" cx="67.6" cy="72.2" rx="6.8" ry="3.2"/>
				
					<ellipse transform="matrix(0.8233 -0.5676 0.5676 0.8233 -31.8825 38.2059)" class="st57" cx="45.4" cy="70.3" rx="3.2" ry="6.8"/>
				
					<ellipse transform="matrix(0.8149 -0.5797 0.5797 0.8149 -26.0886 25.978)" class="st57" cx="27.6" cy="53.8" rx="3.2" ry="6.8"/>
				
					<ellipse transform="matrix(0.1393 -0.9903 0.9903 0.1393 12.9902 128.2582)" class="st57" cx="80.3" cy="56.7" rx="6.8" ry="3.2"/>
			</g>
		</g>
	</g>
</g>
<g id="grid_top">
</g>
</svg>
