<?xml version="1.0" encoding="utf-8"?>
<!-- Generator: Adobe Illustrator 22.1.0, SVG Export Plug-In . SVG Version: 6.00 Build 0)  -->
<svg version="1.1" xmlns="http://www.w3.org/2000/svg" xmlns:xlink="http://www.w3.org/1999/xlink" x="0px" y="0px"
	 viewBox="0 0 100 100" style="enable-background:new 0 0 100 100;" xml:space="preserve">
<style type="text/css">
	.st0{display:none;}
	.st1{display:inline;fill:#E6E6E6;}
	.st2{display:inline;}
	.st3{fill:none;stroke:#4D4D4D;stroke-miterlimit:10;}
	.st4{fill:#F8C659;}
	.st5{fill:#EE5F3F;}
	.st6{fill:#C20037;}
	.st7{fill:#999999;}
	.st8{fill:#FF4076;}
	.st9{fill:#DA3728;}
	.st10{fill:#EE5F3D;}
	.st11{fill:#F2F2F2;}
	.st12{fill:#BF9945;}
	.st13{fill:#FFFFFF;}
	.st14{fill:#C2365E;}
	.st15{fill:none;}
	.st16{fill:#7AC943;}
	.st17{fill:#3F543A;}
	.st18{fill:#FF9E2D;}
	.st19{fill:#FF8800;}
	.st20{fill:#FFA315;}
	.st21{fill:#9B5300;}
	.st22{fill:#B76200;}
	.st23{fill:#BA7910;}
	.st24{fill:#A52253;}
	.st25{fill:#FF0047;}
	.st26{fill:#EC5D57;}
	.st27{fill:#FF1528;}
	.st28{fill:#A9002F;}
	.st29{fill:#BF120D;}
	.st30{fill:#8C0C3C;}
	.st31{fill:#BF1052;}
	.st32{fill:#FF3480;}
	.st33{fill:#C10036;}
	.st34{fill:#A60E47;}
	.st35{fill:#EB3076;}
	.st36{fill:#C41117;}
	.st37{fill:#EA403A;}
	.st38{fill:#C9366D;}
	.st39{fill:none;stroke:#C41117;stroke-width:0;stroke-linecap:round;stroke-linejoin:round;}
	.st40{fill:#FF5997;}
	.st41{fill:#FFDEBA;}
	.st42{fill:#FF931E;}
	.st43{fill:#F7931E;}
	.st44{fill:#D9A41C;}
	.st45{fill:#F8BC20;}
	.st46{fill:#FCEE21;}
	.st47{fill:#F8D44D;}
	.st48{fill:#F8CB23;}
	.st49{fill:#687994;}
	.st50{fill:#92C8AF;}
	.st51{fill:#739E8A;}
	.st52{fill:#3FA9F5;stroke:#FFFFFF;stroke-miterlimit:10;}
	.st53{fill:#3FA9F5;}
	.st54{fill:#FFFFFF;stroke:#3FA9F5;stroke-width:2;stroke-miterlimit:10;}
	.st55{fill:#E6E6E6;}
	.st56{fill:#CCCCCC;}
	.st57{fill:#4D4D4D;}
	.st58{fill:#8E59F8;}
	.st59{fill:#D3A8F8;}
	.st60{fill:#FF0000;}
	.st61{fill:#C2365E;stroke:#FFFFFF;stroke-miterlimit:10;}
	.st62{fill:#80364B;}
	.st63{fill:#32422D;}
	.st64{fill:#81AB78;}
	.st65{fill:#5B7954;}
	.st66{fill:#F8BE00;}
	.st67{fill:#FFBC6E;}
	.st68{fill:#FF1D25;}
	.st69{fill:#F86C66;}
	.st70{fill:#F8A09C;}
	.st71{fill:#FFDD61;}
	.st72{fill:#84D2AB;}
	.st73{fill:#C7D2CD;}
	.st74{fill:none;stroke:#F8BE00;stroke-width:4;stroke-linecap:round;stroke-linejoin:round;stroke-miterlimit:10;}
	.st75{fill:none;stroke:#808080;stroke-miterlimit:10;}
	.st76{fill:#808080;}
	.st77{fill:#B3B3B3;}
	.st78{fill:#C7B299;}
	.st79{fill:#EEE8D6;}
	.st80{fill:#F8E7A8;}
	.st81{fill:#F8E7D3;}
	.st82{opacity:0.25;}
</style>
<g id="bkgrd" class="st0">
</g>
<g id="grid" class="st0">
</g>
<g id="under_layer">
</g>
<g id="main">
	<g>
		<g>
			
				<image style="overflow:visible;opacity:0.5;" width="87" height="110" xlink:href="D2979DF7.png"  transform="matrix(1 0 0 1 4.22 -4.9855)">
			</image>
			<g>
				<path class="st13" d="M42.2,90c-7.8,0-14.3-6.1-14.7-13.9l0-0.4c0-0.2,0-0.3,0-0.5c0-0.2,0-0.3,0-0.5l0-0.1
					c0.2-5.4,3.4-10.2,8.2-12.6c-0.8-5.3-0.2-10.7,1.8-15.7c-1.1-0.3-2.3-0.6-3.5-1.1c-10.4-3.8-14.8-17.9-14.3-20.9
					c0.2-1.3,1.3-2.2,2.6-2.2c0.5,0,1.6,0.2,2.3,1.4c0.8,0.6,4,1.4,6.3,1.9c0.4,0.1,0.9,0.2,1.4,0.3c0.1-6.9,3.1-13.3,4.4-14.9
					c0.7-0.9,1.6-1,2.1-1h1.2l0.8,0.9c0.5,0.6,0.7,1.3,0.6,2.2c0.2,1,2.2,3.6,3.6,5.6c2.6,3.5,5.9,8,7.2,12.2
					c1,3.4,1.1,6.9,0.2,10.1c0,4.6,1.3,9.2,3.7,13.1c1.8-0.8,3.8-1.2,5.7-1.2c7.9,0,14.3,6.2,14.7,14l0,0l0,0.1c0,0.2,0,0.3,0,0.5
					c0,3.9-1.5,7.7-4.3,10.4c-2.8,2.8-6.5,4.3-10.5,4.3c-2.1,0-4.1-0.4-6-1.3C53.5,86.4,48.2,90,42.2,90z M43.6,60.6
					c1.6,0.2,3.1,0.6,4.5,1.2c0.4-1,1-2,1.6-2.8c-2.2-3.7-3.6-7.8-4-12.1c-0.3,0.1-0.6,0.1-0.9,0.1C43.2,51.3,42.7,56.1,43.6,60.6z"
					/>
				<path class="st13" d="M38.7,12.3c0.1,0,0.1,0.1,0.1,0.4c-0.5,3,8.6,11.4,10.9,18.7c1.1,3.8,0.7,6.9,0.1,9
					c0,5.9,1.8,11.8,5.4,16.8c1.9-1.2,4.1-1.9,6.6-1.9c6.6,0,12,5.3,12.2,11.8c0-0.1,0-0.1,0-0.2c0,0.2,0,0.4,0,0.6
					c0,3.4-1.4,6.5-3.6,8.7c-2.2,2.2-5.3,3.6-8.7,3.6c-2.8,0-5.4-1-7.5-2.5c-1,5.8-6,10.3-12.1,10.3c-6.5,0-11.9-5.1-12.2-11.6
					c0-0.1,0-0.1,0-0.2c0-0.2,0-0.3,0-0.5c0-0.2,0-0.4,0-0.6c0,0,0,0,0,0c0.2-5.2,3.7-9.6,8.5-11.1C37,56.9,38,50.2,41,44.5
					c-1.8-0.2-3.8-0.7-6.2-1.5c-9.9-3.6-13.4-18.2-12.6-18.2c0.1,0,0.1,0.1,0.3,0.3c1,1.7,6.8,2.5,12.5,4.1
					C33.7,21,38.1,12.3,38.7,12.3 M41.6,63.1c0.2,0,0.4,0,0.6,0c2.8,0,5.4,1,7.5,2.5c0.4-2.5,1.5-4.7,3.2-6.4
					c-3.1-4.6-4.7-10-4.8-15.4c0,0,0,0,0,0c-0.1,0-0.2,0-0.3,0c-1.1,0.5-2.6,0.9-4.7,0.9C40.5,50.3,39.9,56.7,41.6,63.1 M38.7,7.3
					c-0.9,0-2.6,0.2-4,1.9c-1.4,1.6-4,7.1-4.8,13.4c-1.5-0.4-3-0.8-3.8-1.1c-1.4-1.7-3.2-1.9-4-1.9c0,0,0,0,0,0
					c-2.5,0-4.6,1.8-5,4.3c-0.6,3.1,1.9,8.9,3.2,11.5c2.2,4.2,6.2,9.8,12.7,12.2c0.4,0.1,0.7,0.3,1.1,0.4c-1.2,4.1-1.6,8.4-1.2,12.7
					c-4.7,3-7.7,8.1-8,13.8l0,0.1c0,0.2,0,0.5,0,0.7c0,0.2,0,0.4,0,0.6l0,0.1c0,0.1,0,0.2,0,0.3c0.5,9.1,8.1,16.3,17.2,16.3
					c6.2,0,11.8-3.3,14.8-8.4c1.5,0.4,3.1,0.7,4.7,0.7c4.6,0,9-1.8,12.2-5.1c3.3-3.2,5.1-7.6,5.1-12.2c0-0.2,0-0.5,0-0.7l0-0.1l0,0
					c-0.4-9.2-7.9-16.4-17.2-16.4c-1.5,0-3.1,0.2-4.6,0.6c-1.5-3-2.3-6.4-2.4-9.8c0.9-3.6,0.8-7.4-0.3-11.1c-1.4-4.7-4.8-9.3-7.5-13
					c-1.1-1.5-2.6-3.5-3.1-4.5c0-1.6-0.6-2.7-1.2-3.4C41.7,8,40.2,7.3,38.7,7.3L38.7,7.3C38.8,7.3,38.7,7.3,38.7,7.3L38.7,7.3z
					 M45.8,58.4c-0.1-0.7-0.1-1.3-0.1-2c0.3,0.7,0.7,1.5,1,2.2C46.4,58.6,46.1,58.5,45.8,58.4L45.8,58.4z"/>
			</g>
		</g>
		<g>
			<g>
				<path class="st17" d="M49.6,38.1c-0.8,8.4,2.2,16.9,8.7,23c0.3,0.2,0.3,0.6,0,0.9L57,63.4c-0.2,0.3-0.6,0.3-0.9,0
					c-6.9-6.8-9.5-16.3-7.9-25.2c0.1-0.6-0.7-1-1.1-0.5c-6.1,7.1-8.4,17.1-5.5,26.5c0.1,0.3-0.1,0.7-0.4,0.8l-1.8,0.6
					c-0.3,0.1-0.7-0.1-0.8-0.4C35.3,53.6,39.8,41.6,49,34.9C49.1,34.8,49.7,37.2,49.6,38.1z"/>
			</g>
			<g>
				<circle class="st61" cx="61.5" cy="67.6" r="12.2"/>
				<path class="st62" d="M50.3,67.5c0,0.2,0,0.3,0,0.5c0,6.2,5,11.2,11.2,11.2s11.2-5,11.2-11.2c0-0.2,0-0.3,0-0.5
					C71.3,79.5,49.6,79,50.3,67.5z"/>
				<path class="st13" d="M59.8,58.6c-0.6,0.5-0.1,1.4,0.7,1.1c0.5-0.2,2.3-0.8,3.8-0.3c1.3,0.5,2.3,2.1,2.5,2.5
					c0.4,0.7,1.4,0.2,1.2-0.5c-0.2-0.7-1.5-2.7-3.3-3.3C62.8,57.4,60.4,58.1,59.8,58.6z"/>
			</g>
			<path class="st17" d="M48,43.7c0,0-6,0.6-11.6-9.3s2.7-24.7,2.2-21.7c-0.5,3,8.6,11.4,10.9,18.7S48,43.7,48,43.7z"/>
			<path class="st63" d="M48,43.7c0,0-6,0.6-11.6-9.3s2.7-24.7,2.2-21.7c-0.3,1.5-1,10.8,1.4,18.2S48,43.7,48,43.7z"/>
			<path class="st64" d="M49.4,42.5c0,0-4.2,4.3-14.8,0.4S20.7,22.4,22.2,25s13.9,3.1,20.4,7.3S49.4,42.5,49.4,42.5z"/>
			<path class="st65" d="M49.4,42.5c0,0-0.3-6.1-6.8-10.3S23.7,27.6,22.2,25C22.2,25,26.4,39.7,49.4,42.5z"/>
			<g>
				<circle class="st61" cx="41.9" cy="75.3" r="12.2"/>
				<path class="st62" d="M30.8,75.3c0,0.2,0,0.3,0,0.5c0,6.2,5,11.2,11.2,11.2s11.2-5,11.2-11.2c0-0.2,0-0.3,0-0.5
					C51.7,87.3,30,86.8,30.8,75.3z"/>
			</g>
		</g>
		<path class="st13" d="M39.2,66.1c-0.6,0.5-0.1,1.4,0.7,1.1c0.5-0.2,2.3-0.8,3.8-0.3c1.3,0.5,2.3,2.1,2.5,2.5
			c0.4,0.7,1.4,0.2,1.2-0.5c-0.2-0.7-1.5-2.7-3.3-3.3C42.2,65,39.8,65.7,39.2,66.1z"/>
	</g>
</g>
<g id="grid_top">
</g>
</svg>
