<?xml version="1.0" encoding="utf-8"?>
<!-- Generator: Adobe Illustrator 22.1.0, SVG Export Plug-In . SVG Version: 6.00 Build 0)  -->
<svg version="1.1" xmlns="http://www.w3.org/2000/svg" xmlns:xlink="http://www.w3.org/1999/xlink" x="0px" y="0px"
	 viewBox="0 0 100 100" style="enable-background:new 0 0 100 100;" xml:space="preserve">
<style type="text/css">
	.st0{display:none;}
	.st1{display:inline;fill:#E6E6E6;}
	.st2{display:inline;}
	.st3{fill:none;stroke:#4D4D4D;stroke-miterlimit:10;}
	.st4{fill:#F8C659;}
	.st5{fill:#EE5F3F;}
	.st6{fill:#C20037;}
	.st7{fill:#999999;}
	.st8{fill:#FF4076;}
	.st9{fill:#DA3728;}
	.st10{fill:#EE5F3D;}
	.st11{fill:#F2F2F2;}
	.st12{fill:#BF9945;}
	.st13{fill:#FFFFFF;}
	.st14{fill:#C2365E;}
	.st15{fill:none;}
	.st16{fill:#7AC943;}
	.st17{fill:#3F543A;}
	.st18{fill:#FF9E2D;}
	.st19{fill:#FF8800;}
	.st20{fill:#FFA315;}
	.st21{fill:#9B5300;}
	.st22{fill:#B76200;}
	.st23{fill:#BA7910;}
	.st24{fill:#A52253;}
	.st25{fill:#FF0047;}
	.st26{fill:#EC5D57;}
	.st27{fill:#FF1528;}
	.st28{fill:#A9002F;}
	.st29{fill:#BF120D;}
	.st30{fill:#8C0C3C;}
	.st31{fill:#BF1052;}
	.st32{fill:#FF3480;}
	.st33{fill:#C10036;}
	.st34{fill:#A60E47;}
	.st35{fill:#EB3076;}
	.st36{fill:#C41117;}
	.st37{fill:#EA403A;}
	.st38{fill:#C9366D;}
	.st39{fill:none;stroke:#C41117;stroke-width:0;stroke-linecap:round;stroke-linejoin:round;}
	.st40{fill:#FF5997;}
	.st41{fill:#FFDEBA;}
	.st42{fill:#FF931E;}
	.st43{fill:#F7931E;}
	.st44{fill:#D9A41C;}
	.st45{fill:#F8BC20;}
	.st46{fill:#FCEE21;}
	.st47{fill:#F8D44D;}
	.st48{fill:#F8CB23;}
	.st49{fill:#687994;}
	.st50{fill:#92C8AF;}
	.st51{fill:#739E8A;}
	.st52{fill:#3FA9F5;stroke:#FFFFFF;stroke-miterlimit:10;}
	.st53{fill:#3FA9F5;}
	.st54{fill:#FFFFFF;stroke:#3FA9F5;stroke-width:2;stroke-miterlimit:10;}
	.st55{fill:#E6E6E6;}
	.st56{fill:#CCCCCC;}
	.st57{fill:#4D4D4D;}
	.st58{fill:#8E59F8;}
	.st59{fill:#D3A8F8;}
	.st60{fill:#FF0000;}
	.st61{fill:#C2365E;stroke:#FFFFFF;stroke-miterlimit:10;}
	.st62{fill:#80364B;}
	.st63{fill:#32422D;}
	.st64{fill:#81AB78;}
	.st65{fill:#5B7954;}
	.st66{fill:#F8BE00;}
	.st67{fill:#FFBC6E;}
	.st68{fill:#FF1D25;}
	.st69{fill:#F86C66;}
	.st70{fill:#F8A09C;}
	.st71{fill:#FFDD61;}
	.st72{fill:#84D2AB;}
	.st73{fill:#C7D2CD;}
	.st74{fill:none;stroke:#F8BE00;stroke-width:4;stroke-linecap:round;stroke-linejoin:round;stroke-miterlimit:10;}
	.st75{fill:none;stroke:#808080;stroke-miterlimit:10;}
	.st76{fill:#808080;}
	.st77{fill:#B3B3B3;}
	.st78{fill:#C7B299;}
	.st79{fill:#EEE8D6;}
	.st80{fill:#F8E7A8;}
	.st81{fill:#F8E7D3;}
	.st82{opacity:0.25;}
</style>
<g id="bkgrd" class="st0">
</g>
<g id="grid" class="st0">
</g>
<g id="under_layer">
</g>
<g id="main">
	<g>
		<g>
			
				<image style="overflow:visible;opacity:0.5;" width="108" height="108" xlink:href="46B44689.png"  transform="matrix(1 0 0 1 -4.2675 -5.9855)">
			</image>
			<g>
				<path class="st13" d="M49.5,87.3c-21.5,0-38.9-17.5-38.9-38.9C10.6,26.9,28,9.4,49.5,9.4s38.9,17.5,38.9,38.9
					C88.5,69.8,71,87.3,49.5,87.3z"/>
				<path class="st13" d="M49.5,11.9C69.6,11.9,86,28.2,86,48.3S69.6,84.8,49.5,84.8S13.1,68.5,13.1,48.3S29.4,11.9,49.5,11.9
					 M49.5,6.9C26.7,6.9,8.1,25.5,8.1,48.3c0,22.9,18.6,41.4,41.4,41.4C72.4,89.8,91,71.2,91,48.3C91,25.5,72.4,6.9,49.5,6.9
					L49.5,6.9z"/>
			</g>
		</g>
		<g>
			<g>
				<circle class="st41" cx="49.5" cy="48.3" r="34.5"/>
				<path class="st42" d="M49.5,84.8c-20.1,0-36.4-16.4-36.4-36.4c0-20.1,16.4-36.4,36.4-36.4S86,28.2,86,48.3
					C86,68.4,69.6,84.8,49.5,84.8z M49.5,15.8C31.6,15.8,17,30.4,17,48.3s14.6,32.5,32.5,32.5C67.4,80.9,82,66.3,82,48.3
					S67.4,15.8,49.5,15.8z"/>
			</g>
			<g>
				<path class="st42" d="M45.9,38.2l-5.6-13c-1.1-2.6,0.8-5.5,3.6-5.5h11.2c2.8,0,4.7,2.9,3.6,5.5l-5.6,13
					C51.8,41.4,47.3,41.4,45.9,38.2z"/>
				<path class="st42" d="M53.1,58.5l5.6,13c1.1,2.6-0.8,5.5-3.6,5.5H43.9c-2.8,0-4.7-2.9-3.6-5.5l5.6-13
					C47.3,55.3,51.8,55.3,53.1,58.5z"/>
				<path class="st42" d="M59.7,44.7l13-5.6c2.6-1.1,5.5,0.8,5.5,3.6v11.2c0,2.8-2.9,4.7-5.5,3.6l-13-5.6
					C56.5,50.6,56.5,46.1,59.7,44.7z"/>
				<path class="st42" d="M39.4,52l-13,5.6c-2.6,1.1-5.5-0.8-5.5-3.6V42.7c0-2.8,2.9-4.7,5.5-3.6l13,5.6
					C42.5,46.1,42.5,50.6,39.4,52z"/>
				<path class="st42" d="M59.3,53l13.2,5.3c2.6,1,3.3,4.4,1.3,6.4l-7.9,7.9c-2,2-5.4,1.3-6.4-1.3l-5.3-13.2
					C52.9,54.9,56,51.7,59.3,53z"/>
				<path class="st42" d="M39.8,43.7l-13.2-5.3c-2.6-1-3.3-4.4-1.3-6.4l7.9-7.9c2-2,5.4-1.3,6.4,1.3l5.3,13.2
					C46.2,41.8,43,45,39.8,43.7z"/>
				<path class="st42" d="M44.9,58.1l-5.3,13.2c-1,2.6-4.4,3.3-6.4,1.3l-7.9-7.9c-2-2-1.3-5.4,1.3-6.4L39.8,53
					C43,51.7,46.2,54.9,44.9,58.1z"/>
				<path class="st42" d="M54.1,38.6l5.3-13.2c1-2.6,4.4-3.3,6.4-1.3l7.9,7.9c2,2,1.3,5.4-1.3,6.4l-13.2,5.3
					C56,45,52.9,41.8,54.1,38.6z"/>
			</g>
			<g>
				<g>
					<path class="st13" d="M59,33.5c0-0.1,0-0.2,0.1-0.3l3.2-6.5c0.2-0.4,0.7-0.6,1.1-0.4c0.4,0.2,0.6,0.7,0.4,1.1l-3.2,6.5
						c-0.2,0.4-0.7,0.6-1.1,0.4C59.2,34,59,33.8,59,33.5z"/>
					<path class="st43" d="M63,26.8C63,26.8,63.1,26.8,63,26.8c0.1,0.1,0.2,0.1,0.2,0.1c0,0,0,0.1,0,0.2L60,33.6
						c0,0.1-0.1,0.1-0.2,0.1c0,0-0.1,0-0.1,0c-0.1,0-0.1-0.1-0.1-0.2c0,0,0-0.1,0-0.1l3.2-6.5C62.9,26.8,63,26.8,63,26.8 M63,26.2
						c-0.3,0-0.6,0.2-0.7,0.4l-3.2,6.5c-0.1,0.1-0.1,0.2-0.1,0.3c0,0.3,0.2,0.6,0.4,0.7c0.1,0.1,0.2,0.1,0.3,0.1
						c0.3,0,0.6-0.2,0.7-0.4l3.2-6.5c0.2-0.4,0-0.9-0.4-1.1C63.3,26.2,63.1,26.2,63,26.2L63,26.2z"/>
				</g>
				<g>
					<path class="st13" d="M66.8,44.6c0.1-0.1,0.2-0.1,0.3-0.2l6.9-2.3c0.4-0.1,0.9,0.1,1,0.5c0.1,0.4-0.1,0.9-0.5,1l-6.9,2.3
						c-0.4,0.1-0.9-0.1-1-0.5C66.5,45.1,66.6,44.8,66.8,44.6z"/>
					<path class="st43" d="M74.2,42.6c0.1,0,0.2,0,0.2,0.1c0,0.1,0,0.1,0,0.1c0,0,0,0.1-0.1,0.1l-6.9,2.3c0,0,0,0-0.1,0
						c-0.1,0-0.2,0-0.2-0.1c0-0.1,0-0.2,0-0.2c0,0,0,0,0.1,0L74.2,42.6C74.1,42.6,74.1,42.6,74.2,42.6 M74.2,42c-0.1,0-0.2,0-0.3,0
						l-6.9,2.3c-0.1,0-0.2,0.1-0.3,0.2c-0.2,0.2-0.3,0.5-0.2,0.8c0.1,0.3,0.4,0.5,0.7,0.5c0.1,0,0.2,0,0.3,0l6.9-2.3
						c0.4-0.1,0.6-0.6,0.5-1C74.8,42.2,74.5,42,74.2,42L74.2,42z"/>
				</g>
				<g>
					<path class="st13" d="M40,63.2c0,0.1,0,0.2-0.1,0.3l-3.2,6.5c-0.2,0.4-0.7,0.6-1.1,0.4c-0.4-0.2-0.6-0.7-0.4-1.1l3.2-6.5
						c0.2-0.4,0.7-0.6,1.1-0.4C39.8,62.6,40,62.9,40,63.2z"/>
					<path class="st43" d="M39.2,63C39.2,63,39.3,63,39.2,63c0.2,0.1,0.2,0.1,0.2,0.2c0,0,0,0.1,0,0.1l-3.2,6.5
						c0,0.1-0.1,0.1-0.2,0.1c0,0-0.1,0-0.1,0c-0.1,0-0.1-0.1-0.1-0.1c0,0,0-0.1,0-0.2l3.2-6.5C39.1,63,39.1,63,39.2,63 M39.2,62.4
						c-0.3,0-0.6,0.2-0.7,0.4l-3.2,6.5c-0.2,0.4,0,0.9,0.4,1.1c0.1,0.1,0.2,0.1,0.3,0.1c0.3,0,0.6-0.2,0.7-0.4l3.2-6.5
						c0.1-0.1,0.1-0.2,0.1-0.3c0-0.3-0.2-0.6-0.4-0.7C39.4,62.4,39.3,62.4,39.2,62.4L39.2,62.4z"/>
				</g>
				<g>
					<path class="st13" d="M34.6,38.8c-0.1,0-0.2,0-0.3-0.1l-6.5-3.2c-0.4-0.2-0.6-0.7-0.4-1.1c0.2-0.4,0.7-0.6,1.1-0.4l6.5,3.2
						c0.4,0.2,0.6,0.7,0.4,1.1C35.2,38.7,34.9,38.8,34.6,38.8z"/>
					<path class="st43" d="M28.1,34.6C28.2,34.6,28.2,34.6,28.1,34.6l6.6,3.2c0.1,0,0.1,0.2,0.1,0.3c0,0.1-0.1,0.1-0.2,0.1
						c0,0-0.1,0-0.1,0L28.1,35c-0.1,0-0.1-0.2-0.1-0.3C28,34.7,28.1,34.6,28.1,34.6 M28.1,34c-0.3,0-0.6,0.2-0.7,0.4
						c-0.2,0.4,0,0.9,0.4,1.1l6.5,3.2c0.1,0.1,0.2,0.1,0.3,0.1c0.3,0,0.6-0.2,0.7-0.4c0.2-0.4,0-0.9-0.4-1.1l-6.5-3.2
						C28.4,34.1,28.3,34,28.1,34L28.1,34z"/>
				</g>
				<g>
					<path class="st13" d="M45.7,31.1c-0.1-0.1-0.1-0.2-0.2-0.3l-2.3-6.9c-0.1-0.4,0.1-0.9,0.5-1c0.4-0.1,0.9,0.1,1,0.5l2.3,6.9
						c0.1,0.4-0.1,0.9-0.5,1C46.3,31.4,45.9,31.3,45.7,31.1z"/>
					<path class="st43" d="M44,23.5c0.1,0,0.2,0,0.2,0.1l2.3,6.9c0,0.1,0,0.2-0.1,0.2c0,0,0,0-0.1,0c-0.1,0-0.1,0-0.1-0.1
						c0,0,0,0,0-0.1l-2.3-6.9C43.7,23.6,43.8,23.5,44,23.5C43.9,23.5,43.9,23.5,44,23.5 M44,22.9c-0.1,0-0.2,0-0.3,0
						c-0.4,0.1-0.6,0.6-0.5,1l2.3,6.9c0,0.1,0.1,0.2,0.2,0.3c0.1,0.1,0.3,0.2,0.6,0.2c0.1,0,0.2,0,0.3,0c0.4-0.1,0.6-0.6,0.5-1
						l-2.3-6.9C44.6,23.1,44.3,22.9,44,22.9L44,22.9z"/>
				</g>
				<g>
					<path class="st13" d="M32.3,52.1c-0.1,0.1-0.2,0.1-0.3,0.2l-6.9,2.3c-0.4,0.1-0.9-0.1-1-0.5c-0.1-0.4,0.1-0.9,0.5-1l6.9-2.3
						c0.4-0.1,0.9,0.1,1,0.5C32.6,51.6,32.5,51.9,32.3,52.1z"/>
					<path class="st43" d="M31.7,51.4c0.1,0,0.2,0,0.2,0.1c0,0.1,0,0.2,0,0.2c0,0,0,0-0.1,0l-6.9,2.3c0,0,0,0-0.1,0
						c-0.1,0-0.2,0-0.2-0.1c0-0.1,0-0.1,0-0.1c0,0,0-0.1,0.1-0.1L31.7,51.4C31.7,51.4,31.7,51.4,31.7,51.4 M31.7,50.8
						c-0.1,0-0.2,0-0.3,0l-6.9,2.3c-0.4,0.1-0.6,0.6-0.5,1c0.1,0.3,0.4,0.5,0.7,0.5c0.1,0,0.2,0,0.3,0l6.9-2.3
						c0.1,0,0.2-0.1,0.3-0.2c0.2-0.2,0.3-0.5,0.2-0.8C32.3,51,32,50.8,31.7,50.8L31.7,50.8z"/>
				</g>
				<g>
					<path class="st13" d="M54.3,73.3c0.1,0.4,0.6,0.6,1,0.5c0.4-0.1,0.6-0.6,0.5-1l-2.3-6.9c0-0.1-0.1-0.2-0.2-0.3
						c-0.2-0.2-0.5-0.3-0.8-0.2c-0.4,0.1-0.6,0.6-0.5,1L54.3,73.3z"/>
					<path class="st43" d="M52.7,65.9c0.1,0,0.1,0,0.1,0.1c0,0,0,0,0,0.1l2.3,6.9c0,0.1,0,0.2-0.1,0.3c0,0,0,0-0.1,0
						c-0.1,0-0.2,0-0.2-0.1l-2.3-6.9C52.5,66.1,52.6,66,52.7,65.9C52.7,66,52.7,65.9,52.7,65.9 M52.7,65.4c-0.1,0-0.2,0-0.3,0
						c-0.4,0.1-0.6,0.6-0.5,1l2.3,6.9c0.1,0.3,0.4,0.5,0.7,0.5c0.1,0,0.2,0,0.3,0c0.4-0.1,0.6-0.6,0.5-1l-2.3-6.9
						c0-0.1-0.1-0.2-0.2-0.3C53.1,65.4,52.9,65.4,52.7,65.4L52.7,65.4z"/>
				</g>
				<g>
					<path class="st13" d="M64.4,57.9c0.1,0,0.2,0,0.3,0.1l6.5,3.2c0.4,0.2,0.6,0.7,0.4,1.1c-0.2,0.4-0.7,0.6-1.1,0.4L64,59.4
						c-0.4-0.2-0.6-0.7-0.4-1.1C63.8,58,64.1,57.9,64.4,57.9z"/>
					<path class="st43" d="M64.4,58.5C64.4,58.5,64.4,58.5,64.4,58.5l6.6,3.2c0.1,0,0.1,0.2,0.1,0.3c0,0.1-0.1,0.1-0.2,0.1
						c0,0-0.1,0-0.1,0l-6.5-3.2c-0.1,0-0.1-0.2-0.1-0.3C64.2,58.5,64.3,58.5,64.4,58.5 M64.4,57.9c-0.3,0-0.6,0.2-0.7,0.4
						c-0.2,0.4,0,0.9,0.4,1.1l6.5,3.2c0.1,0.1,0.2,0.1,0.3,0.1c0.3,0,0.6-0.2,0.7-0.4c0.2-0.4,0-0.9-0.4-1.1l-6.5-3.2
						C64.6,57.9,64.5,57.9,64.4,57.9L64.4,57.9z"/>
				</g>
			</g>
		</g>
	</g>
</g>
<g id="grid_top">
</g>
</svg>
