<?xml version="1.0" encoding="utf-8"?>
<!-- Generator: Adobe Illustrator 22.1.0, SVG Export Plug-In . SVG Version: 6.00 Build 0)  -->
<svg version="1.1" xmlns="http://www.w3.org/2000/svg" xmlns:xlink="http://www.w3.org/1999/xlink" x="0px" y="0px"
	 viewBox="0 0 100 100" style="enable-background:new 0 0 100 100;" xml:space="preserve">
<style type="text/css">
	.st0{display:none;}
	.st1{display:inline;fill:#E6E6E6;}
	.st2{display:inline;}
	.st3{fill:none;stroke:#4D4D4D;stroke-miterlimit:10;}
	.st4{fill:#F8C659;}
	.st5{fill:#EE5F3F;}
	.st6{fill:#C20037;}
	.st7{fill:#999999;}
	.st8{fill:#FF4076;}
	.st9{fill:#DA3728;}
	.st10{fill:#EE5F3D;}
	.st11{fill:#F2F2F2;}
	.st12{fill:#BF9945;}
	.st13{fill:#FFFFFF;}
	.st14{fill:#C2365E;}
	.st15{fill:none;}
	.st16{fill:#7AC943;}
	.st17{fill:#3F543A;}
	.st18{fill:#FF9E2D;}
	.st19{fill:#FF8800;}
	.st20{fill:#FFA315;}
	.st21{fill:#9B5300;}
	.st22{fill:#B76200;}
	.st23{fill:#BA7910;}
	.st24{fill:#A52253;}
	.st25{fill:#FF0047;}
	.st26{fill:#EC5D57;}
	.st27{fill:#FF1528;}
	.st28{fill:#A9002F;}
	.st29{fill:#BF120D;}
	.st30{fill:#8C0C3C;}
	.st31{fill:#BF1052;}
	.st32{fill:#FF3480;}
	.st33{fill:#C10036;}
	.st34{fill:#A60E47;}
	.st35{fill:#EB3076;}
	.st36{fill:#C41117;}
	.st37{fill:#EA403A;}
	.st38{fill:#C9366D;}
	.st39{fill:none;stroke:#C41117;stroke-width:0;stroke-linecap:round;stroke-linejoin:round;}
	.st40{fill:#FF5997;}
	.st41{fill:#FFDEBA;}
	.st42{fill:#FF931E;}
	.st43{fill:#F7931E;}
	.st44{fill:#D9A41C;}
	.st45{fill:#F8BC20;}
	.st46{fill:#FCEE21;}
	.st47{fill:#F8D44D;}
	.st48{fill:#F8CB23;}
	.st49{fill:#687994;}
	.st50{fill:#92C8AF;}
	.st51{fill:#739E8A;}
	.st52{fill:#3FA9F5;stroke:#FFFFFF;stroke-miterlimit:10;}
	.st53{fill:#3FA9F5;}
	.st54{fill:#FFFFFF;stroke:#3FA9F5;stroke-width:2;stroke-miterlimit:10;}
	.st55{fill:#E6E6E6;}
	.st56{fill:#CCCCCC;}
	.st57{fill:#4D4D4D;}
	.st58{fill:#8E59F8;}
	.st59{fill:#D3A8F8;}
	.st60{fill:#FF0000;}
	.st61{fill:#C2365E;stroke:#FFFFFF;stroke-miterlimit:10;}
	.st62{fill:#80364B;}
	.st63{fill:#32422D;}
	.st64{fill:#81AB78;}
	.st65{fill:#5B7954;}
	.st66{fill:#F8BE00;}
	.st67{fill:#FFBC6E;}
	.st68{fill:#FF1D25;}
	.st69{fill:#F86C66;}
	.st70{fill:#F8A09C;}
	.st71{fill:#FFDD61;}
	.st72{fill:#84D2AB;}
	.st73{fill:#C7D2CD;}
	.st74{fill:none;stroke:#F8BE00;stroke-width:4;stroke-linecap:round;stroke-linejoin:round;stroke-miterlimit:10;}
	.st75{fill:none;stroke:#808080;stroke-miterlimit:10;}
	.st76{fill:#808080;}
	.st77{fill:#B3B3B3;}
	.st78{fill:#C7B299;}
	.st79{fill:#EEE8D6;}
	.st80{fill:#F8E7A8;}
	.st81{fill:#F8E7D3;}
	.st82{opacity:0.25;}
</style>
<g id="bkgrd" class="st0">
</g>
<g id="grid" class="st0">
</g>
<g id="under_layer">
</g>
<g id="main">
	<g>
		<g>
			
				<image style="overflow:visible;opacity:0.5;" width="102" height="111" xlink:href="BAD0EF1B.png"  transform="matrix(1 0 0 1 -1.78 -3.4821)">
			</image>
			<g>
				<path class="st13" d="M49.4,92.4c-6,0-11.3-1.2-16.1-3.4l-0.2-0.1c-0.5-0.2-1.8-0.8-2.4-2.3c0,0-0.1,0-0.1-0.1
					c-7.3-5-12.3-11-15.2-18.3c-3.3-8.4-3-17.3,0.9-27.1c0.7-1.7,1.5-3.4,2.3-4.9c0.3-0.7,0.7-1.3,1-2c1.2-2.5,2.4-5,2.5-7.6
					c0-0.9,0-1.3-0.2-1.5c-0.8-1.1-0.8-2.5-0.4-3.5c0.6-1.5,1.1-3,1.7-4.5c0.4-1,0.8-2.1,1.2-3.1c0.6-1.6,1.9-2.5,3.5-2.5
					c0.3,0,0.6,0,0.9,0.1c2.5,0.5,5.1,1,7.8,1.7c2.1,0.5,3.3,2.5,2.9,4.7c-0.1,0.8-0.3,1.6-0.4,2.5c-0.3,2.1-0.7,4.3-1.3,6.5
					c-0.5,1.8-1.3,3.5-2,5.2c-0.4,0.9-0.8,1.8-1.2,2.7c-1.9,4.8-3.8,9.8-4.3,15c-0.8,8.4,1.8,14.8,7.9,19.4c0,0,0.2,0.1,0.2,0.2
					c0.2-0.1,0.5-0.1,0.7-0.1c0.8,0,1.6,0.3,2.1,0.5c2.7,1.2,5.4,1.8,8.1,1.8c2.6,0,5.3-0.6,8-1.8c0.8-0.3,1.5-0.4,2.1-0.4
					c0.1,0,0.3,0,0.4,0c0.2,0,0.3-0.1,0.3-0.1c4.4-3,7-7.2,8.1-13c0.7-4,0.3-8.2-1.4-13.5c-1.1-3.6-2.4-7.4-4-11
					c-1.4-3.3-2.4-6.8-3-10.7c-0.1-0.8-0.3-1.5-0.4-2.3l-0.1-0.7c-0.5-2.5,0.8-4.4,3.1-5c2.2-0.5,4.5-1,6.9-1.5
					c0.6-0.1,1-0.2,1.4-0.2c2.6,0,3.4,2.1,3.8,3.2c0.3,0.9,0.7,1.8,1,2.6c0.5,1.4,1.1,2.7,1.6,4.1c0.2,0.5,0.7,2.3-0.3,3.6
					c-0.4,0.5-0.3,1.1-0.1,2.5c0.3,2.4,1.4,4.7,2.5,6.8l0.3,0.5c1.8,3.4,3.6,7,4.7,11c4,14.8-0.1,27.6-12.2,38
					c-0.9,0.7-1.7,1.4-2.6,2c-0.3,0.2-0.6,0.4-0.9,0.7c-0.1,0.1-0.3,0.2-0.4,0.3c-0.4,1.3-1.7,1.9-2.4,2.3
					C60.7,91.2,55.4,92.4,49.4,92.4L49.4,92.4L49.4,92.4z"/>
				<path class="st13" d="M70.7,14c0.8,0,1.1,0.4,1.5,1.6c0.9,2.2,1.8,4.5,2.6,6.7c0.1,0.4,0.2,1,0,1.2c-1.1,1.4-0.9,2.9-0.6,4.4
					c0.4,2.7,1.5,5.2,2.7,7.6c1.8,3.6,3.7,7.1,4.8,11c3.9,14.3-0.3,26-11.4,35.4c-1.1,0.9-2.2,1.7-3.4,2.5c-0.5,0.4-1.2,0.6-1.3,1.5
					c0,0.3-0.7,0.6-1.1,0.8c-4.8,2.2-9.8,3.2-15.1,3.2c-5.2,0-10.3-1-15.1-3.2c-0.6-0.3-1.3-0.5-1.4-1.4c0-0.3-0.6-0.6-1-0.8
					c-6.4-4.4-11.4-9.9-14.2-17.1c-3.4-8.5-2.4-17,0.9-25.3c0.9-2.3,2.2-4.5,3.3-6.8c1.3-2.7,2.6-5.5,2.7-8.6c0.1-1.1,0-2.2-0.7-3.2
					c-0.2-0.2-0.2-0.8-0.1-1.1c0.9-2.5,2-5,2.9-7.6c0.2-0.6,0.7-0.9,1.2-0.9c0.1,0,0.3,0,0.4,0c2.6,0.5,5.1,1,7.7,1.7
					c0.9,0.2,1.2,1,1,1.9c-0.5,2.9-0.8,5.9-1.7,8.7c-0.8,2.6-2.1,5.1-3.1,7.7c-2,5.1-3.9,10.2-4.4,15.6c-0.8,8.7,1.6,16.2,8.9,21.6
					c0.5,0.4,0.9,0.7,1.6,0.7c0.2,0,0.4,0,0.6-0.1c0.1,0,0.1,0,0.2,0c0.3,0,0.8,0.2,1.1,0.4c3,1.3,6,2,9,2c3,0,6-0.7,9-2
					c0.6-0.2,1.3-0.1,1.9-0.2c0.4-0.1,0.9-0.2,1.2-0.4c5.2-3.5,8.1-8.6,9.2-14.7c0.9-5.1,0-10-1.5-14.7c-1.2-3.8-2.5-7.6-4.1-11.2
					c-1.4-3.3-2.3-6.6-2.9-10.1c-0.2-1-0.4-2-0.6-3.1c-0.2-1.1,0.2-1.8,1.3-2.1c2.3-0.5,4.5-1,6.8-1.5C70.1,14,70.4,14,70.7,14
					 M27.4,37.1c0.5-1,0.9-1.9,1.3-2.8c0.3-0.7-0.2-0.8-0.7-1c-0.2-0.1-0.5-0.3-0.8-0.3c-0.2,0-0.4,0.1-0.5,0.4
					c-0.4,0.9-0.8,1.8-1.2,2.8C26.2,36.5,26.7,36.7,27.4,37.1 M71.6,36.9c0.2,0,0.4-0.1,0.7-0.2c0.9-0.4,0.9-0.8,0.5-1.5
					c-0.3-0.5-0.5-1.1-0.7-1.6c-0.1-0.4-0.3-0.6-0.6-0.6c-0.1,0-0.3,0-0.4,0.1c-0.4,0.2-0.7,0.4-1.2,0.6c0.4,0.9,0.7,1.6,1,2.4
					C71,36.6,71.2,36.9,71.6,36.9 M76.4,49.5c0.8,0,0.9-0.4,0.8-1.7c0-0.3,0-0.6,0-0.9c-0.1-0.9-0.3-1.3-0.8-1.3
					c-0.2,0-0.5,0.1-0.8,0.2c-1.4,0.7-0.1,2-0.4,3c0,0.2,0.5,0.7,0.8,0.7C76.2,49.5,76.3,49.5,76.4,49.5 M21.4,49.4
					c0.1,0,0.2,0,0.3,0c0.4,0,0.8,0.2,1.2,0.2c0.3,0,0.6-0.2,0.7-0.7c0.2-0.8,0.2-1.6,0.2-2.4c0.1-0.8-0.6-0.7-1.1-0.7
					c-0.2,0-0.3,0-0.5,0c-0.3,0-0.6,0.1-0.6,0.6C21.6,47.3,21.5,48.2,21.4,49.4 M23,63.5C23,63.5,23.1,63.5,23,63.5
					c0.5-0.1,1.3-0.5,1.3-0.7c-0.1-1.1-0.3-2.1-0.6-3.3c-0.8,0.2-1.3,0.3-2,0.4c0.2,1.1,0.3,2.1,0.6,3C22.4,63.2,22.8,63.5,23,63.5
					 M75.6,63.4c0.3,0,0.7-0.2,0.8-0.4c0.3-1,0.4-2,0.6-3.1c-0.6-0.1-1.1-0.3-1.5-0.3c0,0,0,0,0,0c-0.2,0-0.6,0.2-0.6,0.4
					c-0.2,0.8-0.4,1.7-0.5,2.6C74.3,63.5,75.1,63.4,75.6,63.4C75.5,63.4,75.6,63.4,75.6,63.4 M30.2,75.5c0.6-0.7,1.1-1.1,1.4-1.5
					c-0.9-1-1.6-1.9-2.6-3c-0.4,0.5-0.7,0.8-0.9,1.2c-0.1,0.2-0.2,0.7,0,0.8C28.7,73.8,29.4,74.5,30.2,75.5 M68.5,75.2
					c0.9-0.9,1.7-1.7,2.4-2.5c-0.5-0.6-0.8-1.1-1.2-1.5c-0.9,0.9-1.8,1.7-2.6,2.6C67.6,74.2,68.1,74.7,68.5,75.2 M70.7,9
					c-0.6,0-1.2,0.1-1.9,0.2c-2.4,0.5-4.8,1-7,1.5c-3.7,0.9-5.8,4.1-5,7.9l0.1,0.7c0.1,0.8,0.3,1.5,0.4,2.2
					c0.6,4.1,1.7,7.8,3.2,11.3c1.5,3.5,2.8,7.3,3.9,10.8c1.6,5,2,8.8,1.4,12.3c-0.9,4.9-3,8.5-6.5,11.1c-0.7,0-1.7,0.1-2.8,0.6
					c-2.4,1-4.7,1.5-7,1.5c-2.3,0-4.6-0.5-7-1.6l-0.1,0c-0.6-0.3-1.7-0.7-3-0.8c-5-4-7.1-9.3-6.4-16.7c0.5-4.9,2.3-9.7,4.1-14.3
					c0.3-0.8,0.7-1.7,1.1-2.6c0.8-1.7,1.5-3.5,2.1-5.5c0.7-2.3,1-4.6,1.4-6.8c0.1-0.8,0.3-1.6,0.4-2.4c0.6-3.6-1.4-6.8-4.8-7.6
					c-2.7-0.6-5.4-1.2-7.9-1.7C29,9,28.5,9,28.1,9c-2.7,0-4.9,1.6-5.9,4.1c-0.4,1-0.8,2.1-1.2,3.1c-0.6,1.5-1.2,3-1.7,4.5
					c-0.5,1.4-0.7,3.6,0.5,5.5c0,0.1,0,0.2,0,0.3c-0.1,2.1-1.1,4.3-2.2,6.6c-0.3,0.7-0.7,1.3-1,2c-0.8,1.6-1.7,3.3-2.4,5.2
					c-4.2,10.5-4.5,19.9-0.9,29c3,7.6,8.1,13.9,15.6,19.1c0.6,1.1,1.6,2.1,3.4,2.9l0.1,0.1c5.2,2.4,10.8,3.6,17.2,3.7l0,0l0,0
					c6.4,0,12-1.3,17.1-3.7c0.8-0.4,2.5-1.2,3.4-2.9c0.2-0.2,0.5-0.4,0.7-0.5c0.9-0.6,1.8-1.3,2.8-2.1
					c12.9-11.1,17.3-24.7,12.9-40.6c-1.1-4.2-3-7.9-4.9-11.5l-0.3-0.5c-1-1.9-1.9-3.9-2.2-6c0-0.3-0.1-0.7-0.1-1
					c1-1.6,1.2-3.7,0.5-5.7c-0.5-1.4-1.1-2.8-1.6-4.1c-0.3-0.9-0.7-1.8-1-2.6C75.6,10.6,73.6,9,70.7,9L70.7,9z"/>
			</g>
		</g>
		<path class="st49" d="M49.4,89.9c-5.2,0-10.3-1-15.1-3.2c-0.6-0.3-1.3-0.5-1.4-1.4c0-0.3-0.6-0.6-1-0.8
			c-6.4-4.4-11.4-9.9-14.2-17.1c-3.4-8.5-2.4-17,0.9-25.3c0.9-2.3,2.2-4.5,3.3-6.8c1.3-2.7,2.6-5.5,2.7-8.6c0.1-1.1,0-2.2-0.7-3.2
			c-0.2-0.2-0.2-0.8-0.1-1.1c0.9-2.5,2-5,2.9-7.6c0.3-0.8,0.9-1,1.6-0.8c2.6,0.5,5.1,1,7.7,1.7c0.9,0.2,1.2,1,1,1.9
			c-0.5,2.9-0.8,5.9-1.7,8.7c-0.8,2.6-2.1,5.1-3.1,7.7c-2,5.1-3.9,10.2-4.4,15.6c-0.8,8.7,1.6,16.2,8.9,21.6c0.6,0.5,1.2,1,2.2,0.6
			c0.4-0.1,0.9,0.1,1.4,0.3c6,2.6,12,2.6,17.9,0c0.6-0.2,1.3-0.1,1.9-0.2c0.4-0.1,0.9-0.2,1.2-0.4c5.2-3.5,8.1-8.6,9.2-14.7
			c0.9-5.1,0-10-1.5-14.7c-1.2-3.8-2.5-7.6-4.1-11.2c-1.4-3.3-2.3-6.6-2.9-10.1c-0.2-1-0.4-2-0.6-3.1c-0.2-1.1,0.2-1.8,1.3-2.1
			c2.3-0.5,4.5-1,6.8-1.5c1.5-0.3,1.9-0.1,2.5,1.5c0.9,2.2,1.8,4.5,2.6,6.7c0.1,0.4,0.2,1,0,1.2c-1.1,1.4-0.9,2.9-0.6,4.4
			c0.4,2.7,1.5,5.2,2.7,7.6c1.8,3.6,3.7,7.1,4.8,11c3.9,14.3-0.3,26-11.4,35.4c-1.1,0.9-2.2,1.7-3.4,2.5c-0.5,0.4-1.2,0.6-1.3,1.5
			c0,0.3-0.7,0.6-1.1,0.8C59.7,88.9,54.7,89.9,49.4,89.9z M77.3,47.8c0-0.3,0-0.6,0-0.9c-0.1-1.2-0.5-1.6-1.6-1.1
			c-1.4,0.7-0.1,2-0.4,3c0,0.2,0.5,0.7,0.8,0.7C77.2,49.6,77.4,49.4,77.3,47.8z M77,60c-0.6-0.1-1.1-0.3-1.5-0.3
			c-0.2,0-0.6,0.2-0.6,0.4c-0.2,0.8-0.4,1.7-0.5,2.6c-0.1,0.9,0.7,0.7,1.1,0.8c0.3,0,0.8-0.2,0.9-0.4C76.7,62.1,76.8,61.1,77,60z
			 M27.4,37.1c0.5-1,0.9-1.9,1.3-2.8c0.3-0.7-0.2-0.8-0.7-1c-0.4-0.2-0.9-0.6-1.3,0.1c-0.4,0.9-0.8,1.8-1.2,2.8
			C26.2,36.5,26.7,36.7,27.4,37.1z M21.8,60c0.2,1.1,0.3,2.1,0.6,3c0.1,0.2,0.5,0.6,0.7,0.5c0.5-0.1,1.3-0.5,1.3-0.7
			c-0.1-1.1-0.3-2.1-0.6-3.3C23,59.7,22.5,59.8,21.8,60z M69.8,33.7c0.4,0.9,0.7,1.6,1,2.4c0.3,0.8,0.6,1,1.5,0.7
			c0.9-0.4,0.9-0.8,0.5-1.5c-0.3-0.5-0.5-1.1-0.7-1.6c-0.2-0.5-0.5-0.7-1-0.4C70.7,33.3,70.3,33.4,69.8,33.7z M31.5,74
			c-0.9-1-1.6-1.9-2.6-3c-0.4,0.5-0.7,0.8-0.9,1.2c-0.1,0.2-0.2,0.7,0,0.8c0.6,0.8,1.3,1.6,2.1,2.5C30.8,74.8,31.2,74.3,31.5,74z
			 M71,72.7c-0.5-0.6-0.8-1.1-1.2-1.5c-0.9,0.9-1.8,1.7-2.6,2.6c0.5,0.5,0.9,0.9,1.4,1.4C69.4,74.3,70.2,73.5,71,72.7z M21.4,49.4
			c0.8-0.2,1.8,0.8,2.1-0.6c0.2-0.8,0.2-1.6,0.2-2.4c0.1-0.8-0.6-0.7-1.1-0.7c-0.5-0.1-1-0.2-1,0.6C21.6,47.3,21.5,48.2,21.4,49.4z"
			/>
	</g>
</g>
<g id="grid_top">
</g>
</svg>
