<?xml version="1.0" encoding="utf-8"?>
<!-- Generator: Adobe Illustrator 22.1.0, SVG Export Plug-In . SVG Version: 6.00 Build 0)  -->
<svg version="1.1" xmlns="http://www.w3.org/2000/svg" xmlns:xlink="http://www.w3.org/1999/xlink" x="0px" y="0px"
	 viewBox="0 0 100 100" style="enable-background:new 0 0 100 100;" xml:space="preserve">
<style type="text/css">
	.st0{display:none;}
	.st1{display:inline;fill:#E6E6E6;}
	.st2{display:inline;}
	.st3{fill:none;stroke:#4D4D4D;stroke-miterlimit:10;}
	.st4{fill:#F8C659;}
	.st5{fill:#EE5F3F;}
	.st6{fill:#C20037;}
	.st7{fill:#999999;}
	.st8{fill:#FF4076;}
	.st9{fill:#DA3728;}
	.st10{fill:#EE5F3D;}
	.st11{fill:#F2F2F2;}
	.st12{fill:#BF9945;}
	.st13{fill:#FFFFFF;}
	.st14{fill:#C2365E;}
	.st15{fill:none;}
	.st16{fill:#7AC943;}
	.st17{fill:#3F543A;}
	.st18{fill:#FF9E2D;}
	.st19{fill:#FF8800;}
	.st20{fill:#FFA315;}
	.st21{fill:#9B5300;}
	.st22{fill:#B76200;}
	.st23{fill:#BA7910;}
	.st24{fill:#A52253;}
	.st25{fill:#FF0047;}
	.st26{fill:#EC5D57;}
	.st27{fill:#FF1528;}
	.st28{fill:#A9002F;}
	.st29{fill:#BF120D;}
	.st30{fill:#8C0C3C;}
	.st31{fill:#BF1052;}
	.st32{fill:#FF3480;}
	.st33{fill:#C10036;}
	.st34{fill:#A60E47;}
	.st35{fill:#EB3076;}
	.st36{fill:#C41117;}
	.st37{fill:#EA403A;}
	.st38{fill:#C9366D;}
	.st39{fill:none;stroke:#C41117;stroke-width:0;stroke-linecap:round;stroke-linejoin:round;}
	.st40{fill:#FF5997;}
	.st41{fill:#FFDEBA;}
	.st42{fill:#FF931E;}
	.st43{fill:#F7931E;}
	.st44{fill:#D9A41C;}
	.st45{fill:#F8BC20;}
	.st46{fill:#FCEE21;}
	.st47{fill:#F8D44D;}
	.st48{fill:#F8CB23;}
	.st49{fill:#687994;}
	.st50{fill:#92C8AF;}
	.st51{fill:#739E8A;}
	.st52{fill:#3FA9F5;stroke:#FFFFFF;stroke-miterlimit:10;}
	.st53{fill:#3FA9F5;}
	.st54{fill:#FFFFFF;stroke:#3FA9F5;stroke-width:2;stroke-miterlimit:10;}
	.st55{fill:#E6E6E6;}
	.st56{fill:#CCCCCC;}
	.st57{fill:#4D4D4D;}
	.st58{fill:#8E59F8;}
	.st59{fill:#D3A8F8;}
	.st60{fill:#FF0000;}
	.st61{fill:#C2365E;stroke:#FFFFFF;stroke-miterlimit:10;}
	.st62{fill:#80364B;}
	.st63{fill:#32422D;}
	.st64{fill:#81AB78;}
	.st65{fill:#5B7954;}
	.st66{fill:#F8BE00;}
	.st67{fill:#FFBC6E;}
	.st68{fill:#FF1D25;}
	.st69{fill:#F86C66;}
	.st70{fill:#F8A09C;}
	.st71{fill:#FFDD61;}
	.st72{fill:#84D2AB;}
	.st73{fill:#C7D2CD;}
	.st74{fill:none;stroke:#F8BE00;stroke-width:4;stroke-linecap:round;stroke-linejoin:round;stroke-miterlimit:10;}
	.st75{fill:none;stroke:#808080;stroke-miterlimit:10;}
	.st76{fill:#808080;}
	.st77{fill:#B3B3B3;}
	.st78{fill:#C7B299;}
	.st79{fill:#EEE8D6;}
	.st80{fill:#F8E7A8;}
	.st81{fill:#F8E7D3;}
	.st82{opacity:0.25;}
</style>
<g id="bkgrd" class="st0">
</g>
<g id="grid" class="st0">
</g>
<g id="under_layer">
</g>
<g id="main">
	<g>
		<g>
			<g>
				
					<image style="overflow:visible;opacity:0.5;" width="100" height="110" xlink:href="74DF4362.png"  transform="matrix(1 0 0 1 -0.7735 -2.4821)">
				</image>
				<g>
					<g>
						<g>
							<path class="st13" d="M39.7,92.5c-1,0-1.9-0.6-2.3-1.5c-0.4-1-0.2-2.1,0.5-2.8c3.5-3.4,5.1-7.5,6.2-11.9
								c-0.1,0.1-0.2,0.3-0.3,0.4c-2.1,3.1-5.3,4.8-8.9,4.8c-0.9,0-1.9-0.1-2.8-0.3c-4.3-1-7.3-4.1-8.4-8.7
								c-6.1-1.5-8.1-5.5-8.8-8.7c-1-5.1,1.1-9.6,6-12.4c2.5-1.4,5.1-2.7,7.6-3.9c0.2-0.1,0.5-0.2,0.7-0.3c-0.5-0.2-0.9-0.5-1.4-0.7
								c-2.9-1.5-5.8-3-8.6-4.8c-3.9-2.5-5.5-6.8-4.4-11.8c1-4.2,3.9-7.1,8.3-8.1c0.2-0.1,0.3-0.1,0.4-0.1c0-0.1,0.1-0.2,0.1-0.4
								c0.9-4.3,3.9-7.4,8.2-8.4c1-0.2,2-0.4,3-0.4c3.6,0,6.6,1.6,8.4,4.4c2,3.1,3.6,6.4,5.1,9.5c0.2,0.5,0.5,1,0.7,1.5
								c0.2-0.4,0.4-0.8,0.6-1.2c1.3-2.8,2.7-5.7,4.3-8.4c2.3-3.9,5.8-6,9.8-6c0.6,0,1.2,0,1.8,0.1c5,0.7,8.2,3.8,9.5,8.8
								c0,0,0.1,0,0.1,0.1c4.8,1.2,7.9,4.3,8.8,8.9c0.9,4.7-1,9-5.1,11.5c-3.1,1.9-6.4,3.4-9.7,4.9c-0.6,0.3-1.1,0.5-1.7,0.8
								c0.5,0.2,1,0.5,1.6,0.7c3.4,1.6,6.9,3.2,10.3,5.2c4.1,2.4,6,6.7,5.2,11.4c-0.8,4.6-3.8,7.7-8.6,9c-0.1,0.1-0.3,0.3-0.3,0.4
								c-1,4.5-4,7.4-8.5,8.5c-0.9,0.2-1.8,0.3-2.6,0.3c-3.4,0-6.4-1.6-8.4-4.5c-1-1.5-2-3.1-2.8-4.7c0,3.2,0,6.5,0.1,9.7
								c0.2,4.3-1.8,6.9-5.9,7.6l-1.3,0.2c-2,0.4-4.1,0.8-6.2,0.9C39.8,92.5,39.8,92.5,39.7,92.5z"/>
							<path class="st13" d="M63.8,14.9c0.5,0,0.9,0,1.4,0.1c4.2,0.6,6.5,3.1,7.5,7.2c0.1,0.7,1.1,1.5,1.8,1.6
								c3.8,0.9,6.3,3.2,7.1,7c0.7,3.8-0.8,7-4,8.8c-3.9,2.3-8.2,4.2-12.3,6.2c-1.2,0.6-2.5,0.9-3.8,1.9c1,0.4,2.1,0.6,3.1,1.1
								c4.5,2.2,9.2,4.2,13.5,6.7c3.2,1.9,4.7,5,4,8.8c-0.7,3.9-3.1,6.1-6.9,7.1c-0.8,0.2-1.7,1.3-1.9,2.1c-0.9,3.7-3.2,5.9-6.7,6.7
								c-0.7,0.2-1.4,0.2-2.1,0.2c-2.5,0-4.8-1.2-6.3-3.4c-2.2-3.2-3.9-6.9-5.8-10.3c-0.4-0.7-0.6-1.4-0.9-2.2
								c-0.2,0-0.4,0.1-0.6,0.1c0,6.3-0.2,12.6,0.1,18.9c0.1,3.1-1,4.5-3.8,5.1c-2.4,0.4-4.8,1-7.3,1.2c7.6-7.4,7.3-17.3,9.4-26.3
								c-0.2-0.1-0.5-0.2-0.7-0.3c-0.4,0.9-0.7,1.8-1.2,2.6c-1.7,3.1-3.3,6.4-5.4,9.4c-1.7,2.5-4.1,3.7-6.8,3.7
								c-0.7,0-1.5-0.1-2.3-0.3c-3.7-0.8-5.8-3.4-6.6-7.1c-0.1-0.3-0.1-0.7-0.2-1c-0.2-0.1-0.3-0.3-0.5-0.3c-4.1-0.7-7.1-2.8-8-7
								c-0.9-4.4,1.1-7.7,4.8-9.8c3.3-1.9,6.9-3.5,10.4-5.2c0.7-0.3,1.5-0.6,2.8-1.1c-1.4-0.6-2.3-0.9-3.2-1.3
								c-3.9-2.1-7.9-3.9-11.6-6.3c-3.2-2.1-4.1-5.4-3.3-9.1c0.8-3.4,3.1-5.5,6.4-6.2c1.4-0.3,2.1-0.9,2.4-2.4
								c0.7-3.4,2.9-5.6,6.3-6.4c0.8-0.2,1.6-0.3,2.4-0.3c2.5,0,4.8,1,6.3,3.3c2.6,4.1,4.6,8.6,6.8,12.9c0.4,0.8,0.6,1.6,1.2,3.2
								c0.6-1.6,0.9-2.5,1.3-3.3c1.8-3.8,3.5-7.7,5.7-11.4C57.9,16.9,60.4,14.9,63.8,14.9 M63.8,9.9c-4.9,0-9.1,2.6-11.9,7.3
								c-1,1.7-1.9,3.4-2.7,5.2c-1.1-2.2-2.3-4.5-3.7-6.6c-2.3-3.6-6.1-5.6-10.5-5.6c-1.2,0-2.4,0.1-3.6,0.4
								c-4.9,1.1-8.4,4.4-9.8,9.1c-4.7,1.5-7.9,4.9-9.1,9.7c-1.4,5.9,0.7,11.3,5.5,14.4c1.9,1.2,3.8,2.3,5.8,3.3
								c-1.3,0.7-2.7,1.4-4,2.1c-5.8,3.4-8.4,8.9-7.2,15.1c1,5,4.3,8.6,9.2,10.2c1.6,4.8,5,8,9.9,9.1c1.1,0.3,2.3,0.4,3.4,0.4
								c1.2,0,2.4-0.2,3.5-0.5c-0.7,1-1.4,1.9-2.3,2.8c-1.5,1.5-1.9,3.7-1,5.6c0.8,1.8,2.6,2.9,4.6,2.9c0.1,0,0.3,0,0.4,0
								c2.3-0.2,4.4-0.6,6.5-1c0.4-0.1,0.9-0.2,1.3-0.2c5.3-1,8.2-4.6,7.9-10.2c0-0.5,0-0.9-0.1-1.4c2.3,2.2,5.4,3.4,8.7,3.4
								c1.1,0,2.1-0.1,3.2-0.4c5-1.2,8.6-4.4,10.1-9.2c5.1-1.7,8.4-5.5,9.3-10.7c1-5.8-1.4-11.1-6.4-14c-2.4-1.4-4.8-2.6-7.2-3.8
								c2.3-1.1,4.5-2.2,6.7-3.6c5.1-3,7.4-8.3,6.3-14.1c-1-5.1-4.3-8.8-9.3-10.5c-1.7-5.2-5.6-8.5-11.1-9.3
								C65.2,10,64.5,9.9,63.8,9.9L63.8,9.9z"/>
						</g>
					</g>
				</g>
			</g>
			<g>
				<g>
					<g>
						<path class="st50" d="M50.7,64.9c0,6.3-0.2,12.6,0.1,18.9c0.1,3.1-1,4.5-3.8,5.1c-2.4,0.4-4.8,1-7.3,1.2
							c7.6-7.4,7.3-17.3,9.4-26.3c-0.2-0.1-0.5-0.2-0.7-0.3c-0.4,0.9-0.7,1.8-1.2,2.6c-1.7,3.1-3.3,6.4-5.4,9.4
							c-2.1,3.1-5.4,4.3-9.1,3.4c-3.7-0.8-5.8-3.4-6.6-7.1c-0.1-0.3-0.1-0.7-0.2-1c-0.2-0.1-0.3-0.3-0.5-0.3c-4.1-0.7-7.1-2.8-8-7
							c-0.9-4.4,1.1-7.7,4.8-9.8c3.3-1.9,6.9-3.5,10.4-5.2c0.7-0.3,1.5-0.6,2.8-1.1c-1.4-0.6-2.3-0.9-3.2-1.3
							c-3.9-2.1-7.9-3.9-11.6-6.3c-3.2-2.1-4.1-5.4-3.3-9.1c0.8-3.4,3.1-5.5,6.4-6.2c1.4-0.3,2.1-0.9,2.4-2.4
							c0.7-3.4,2.9-5.6,6.3-6.4c3.4-0.8,6.8,0,8.7,3c2.6,4.1,4.6,8.6,6.8,12.9c0.4,0.8,0.6,1.6,1.2,3.2c0.6-1.6,0.9-2.5,1.3-3.3
							c1.8-3.8,3.5-7.7,5.7-11.4c1.9-3.3,4.9-5.3,9-4.7c4.2,0.6,6.5,3.1,7.5,7.2c0.1,0.7,1.1,1.5,1.8,1.6c3.8,0.9,6.3,3.2,7.1,7
							c0.7,3.8-0.8,7-4,8.8c-3.9,2.3-8.2,4.2-12.3,6.2c-1.2,0.6-2.5,0.9-3.8,1.9c1,0.4,2.1,0.6,3.1,1.1c4.5,2.2,9.2,4.2,13.5,6.7
							c3.2,1.9,4.7,5,4,8.8c-0.7,3.9-3.1,6.1-6.9,7.1c-0.8,0.2-1.7,1.3-1.9,2.1c-0.9,3.7-3.2,5.9-6.7,6.7c-3.4,0.8-6.5-0.3-8.4-3.1
							c-2.2-3.2-3.9-6.9-5.8-10.3c-0.4-0.7-0.6-1.4-0.9-2.2C51.1,64.8,50.9,64.8,50.7,64.9z"/>
					</g>
				</g>
			</g>
			<g>
				<g>
					<g>
						<path class="st51" d="M23.6,27.2c3.2,0,5.7,1,7.6,2.6c0-2.2,0.6-4.2,1.7-6.1c0.6-0.8,1.3-1.6,1.9-2.5c1.6-1.7,3.8-2.8,6.1-3.2
							c-1.9-2.6-5.1-3.3-8.3-2.5c-3.4,0.8-5.6,3-6.3,6.4c-0.3,1.5-1,2.1-2.4,2.4c-2.6,0.6-4.5,2-5.6,4.1
							C19.7,27.6,21.5,27.2,23.6,27.2z"/>
					</g>
					<g>
						<path class="st51" d="M63.7,22.4c1.2,1.1,2,2.4,2.5,3.9c0.8,1.5,1.1,3,1.1,4.7c0,1-0.1,2-0.3,2.9c0.9-0.2,1.9-0.3,2.9-0.3
							c4.4,0,7.5,1.9,9.5,4.6c1.8-1.9,2.6-4.5,2.1-7.4c-0.8-3.8-3.2-6.1-7.1-7c-0.7-0.2-1.6-1-1.8-1.6c-0.9-4.1-3.3-6.6-7.5-7.2
							c-3.7-0.5-6.5,1.1-8.5,3.9c1.1,0.1,2.1,0.4,3.1,1C61.3,20.4,62.6,21.2,63.7,22.4z"/>
					</g>
				</g>
			</g>
			<g>
				<g>
					<g>
						<path class="st51" d="M72.3,67.8c-1.8,3.5-5.2,6.1-10.3,6.1c-1,0-1.9-0.1-2.8-0.3c-1.2,0-2.3-0.1-3.5-0.3c0,0,0,0,0,0
							c0.8,1.4,1.6,2.7,2.5,4c1.9,2.8,5,3.9,8.4,3.1c3.5-0.8,5.8-3,6.7-6.7c0.2-0.8,1.1-1.9,1.9-2.1c3.8-1,6.3-3.2,6.9-7.1
							c0-0.1,0-0.1,0-0.2C81.4,64.4,75.6,67.6,72.3,67.8z"/>
					</g>
					<g>
						<path class="st51" d="M29.7,64.6c-1.1,0.3-2.2,0.5-3.5,0.5c-4,0-6.9-1.6-8.9-3.9c0,0,0,0,0,0c0,0.7,0,1.4,0.2,2.1
							c0.9,4.2,3.9,6.3,8,7c0.2,0,0.3,0.2,0.5,0.3c0.1,0.3,0.1,0.7,0.2,1c0.8,3.7,2.9,6.3,6.6,7.1c2.7,0.6,5.3,0.1,7.2-1.4
							C34.8,76.8,30.3,66,29.7,64.6z"/>
					</g>
				</g>
			</g>
		</g>
		<path class="st13" d="M27.4,37.3c-0.3,0-0.6-0.1-0.8-0.3l-2.4-1.8c-0.6-0.4-0.8-1.3-0.3-1.9c0.4-0.6,1.3-0.8,1.9-0.3l2.4,1.8
			c0.6,0.4,0.8,1.3,0.3,1.9C28.3,37.1,27.9,37.3,27.4,37.3z"/>
		<path class="st13" d="M72.7,59.9c-0.2,0-0.4,0-0.6-0.1L66,56.8c-0.7-0.3-1-1.2-0.6-1.9c0.3-0.7,1.2-1,1.9-0.6l6.1,2.9
			c0.7,0.3,1,1.2,0.6,1.9C73.7,59.6,73.2,59.9,72.7,59.9z"/>
	</g>
</g>
<g id="grid_top">
</g>
</svg>
