<?xml version="1.0" encoding="utf-8"?>
<!-- Generator: Adobe Illustrator 22.1.0, SVG Export Plug-In . SVG Version: 6.00 Build 0)  -->
<svg version="1.1" xmlns="http://www.w3.org/2000/svg" xmlns:xlink="http://www.w3.org/1999/xlink" x="0px" y="0px"
	 viewBox="0 0 100 100" style="enable-background:new 0 0 100 100;" xml:space="preserve">
<style type="text/css">
	.st0{display:none;}
	.st1{display:inline;fill:#E6E6E6;}
	.st2{display:inline;}
	.st3{fill:none;stroke:#4D4D4D;stroke-miterlimit:10;}
	.st4{fill:#F8C659;}
	.st5{fill:#EE5F3F;}
	.st6{fill:#C20037;}
	.st7{fill:#999999;}
	.st8{fill:#FF4076;}
	.st9{fill:#DA3728;}
	.st10{fill:#EE5F3D;}
	.st11{fill:#F2F2F2;}
	.st12{fill:#BF9945;}
	.st13{fill:#FFFFFF;}
	.st14{fill:#C2365E;}
	.st15{fill:none;}
	.st16{fill:#7AC943;}
	.st17{fill:#3F543A;}
	.st18{fill:#FF9E2D;}
	.st19{fill:#FF8800;}
	.st20{fill:#FFA315;}
	.st21{fill:#9B5300;}
	.st22{fill:#B76200;}
	.st23{fill:#BA7910;}
	.st24{fill:#A52253;}
	.st25{fill:#FF0047;}
	.st26{fill:#EC5D57;}
	.st27{fill:#FF1528;}
	.st28{fill:#A9002F;}
	.st29{fill:#BF120D;}
	.st30{fill:#8C0C3C;}
	.st31{fill:#BF1052;}
	.st32{fill:#FF3480;}
	.st33{fill:#C10036;}
	.st34{fill:#A60E47;}
	.st35{fill:#EB3076;}
	.st36{fill:#C41117;}
	.st37{fill:#EA403A;}
	.st38{fill:#C9366D;}
	.st39{fill:none;stroke:#C41117;stroke-width:0;stroke-linecap:round;stroke-linejoin:round;}
	.st40{fill:#FF5997;}
	.st41{fill:#FFDEBA;}
	.st42{fill:#FF931E;}
	.st43{fill:#F7931E;}
	.st44{fill:#D9A41C;}
	.st45{fill:#F8BC20;}
	.st46{fill:#FCEE21;}
	.st47{fill:#F8D44D;}
	.st48{fill:#F8CB23;}
	.st49{fill:#687994;}
	.st50{fill:#92C8AF;}
	.st51{fill:#739E8A;}
	.st52{fill:#3FA9F5;stroke:#FFFFFF;stroke-miterlimit:10;}
	.st53{fill:#3FA9F5;}
	.st54{fill:#FFFFFF;stroke:#3FA9F5;stroke-width:2;stroke-miterlimit:10;}
	.st55{fill:#E6E6E6;}
	.st56{fill:#CCCCCC;}
	.st57{fill:#4D4D4D;}
	.st58{fill:#8E59F8;}
	.st59{fill:#D3A8F8;}
	.st60{fill:#FF0000;}
	.st61{fill:#C2365E;stroke:#FFFFFF;stroke-miterlimit:10;}
	.st62{fill:#80364B;}
	.st63{fill:#32422D;}
	.st64{fill:#81AB78;}
	.st65{fill:#5B7954;}
	.st66{fill:#F8BE00;}
	.st67{fill:#FFBC6E;}
	.st68{fill:#FF1D25;}
	.st69{fill:#F86C66;}
	.st70{fill:#F8A09C;}
	.st71{fill:#FFDD61;}
	.st72{fill:#84D2AB;}
	.st73{fill:#C7D2CD;}
	.st74{fill:none;stroke:#F8BE00;stroke-width:4;stroke-linecap:round;stroke-linejoin:round;stroke-miterlimit:10;}
	.st75{fill:none;stroke:#808080;stroke-miterlimit:10;}
	.st76{fill:#808080;}
	.st77{fill:#B3B3B3;}
	.st78{fill:#C7B299;}
	.st79{fill:#EEE8D6;}
	.st80{fill:#F8E7A8;}
	.st81{fill:#F8E7D3;}
	.st82{opacity:0.25;}
</style>
<g id="bkgrd" class="st0">
</g>
<g id="grid" class="st0">
</g>
<g id="under_layer">
</g>
<g id="main">
	<g>
		<g>
			
				<image style="overflow:visible;opacity:0.5;" width="108" height="110" xlink:href="C29AD0.png"  transform="matrix(1 0 0 1 -3.7609 -4.9855)">
			</image>
			<g>
				<path class="st13" d="M50,89.6c-21.8,0-38.8-17.2-38.8-39.2c0-22.1,17.4-40,38.8-40s38.8,17.9,38.8,40
					C88.8,72.4,71.8,89.6,50,89.6z"/>
				<path class="st13" d="M50,12.9c20.1,0,36.3,16.8,36.3,37.5c0,20.7-16.3,36.7-36.3,36.7c-20.1,0-36.3-16-36.3-36.7
					C13.7,29.7,29.9,12.9,50,12.9 M50,7.9C27.2,7.9,8.7,27,8.7,50.4c0,11.3,4.3,21.8,12.1,29.6c7.8,7.8,18.1,12,29.2,12
					s21.5-4.3,29.2-12c7.8-7.8,12.1-18.3,12.1-29.6C91.3,27,72.8,7.9,50,7.9L50,7.9z"/>
			</g>
		</g>
		<g>
			<path class="st44" d="M86.3,51.6c0,20.1-16.3,35.5-36.3,35.5S13.7,71.6,13.7,51.6S29.9,15.2,50,15.2S86.3,31.5,86.3,51.6z"/>
			<g>
				<path class="st45" d="M50,85.1c-19.8,0-35.8-16.1-35.8-35.8S30.2,13.4,50,13.4s35.8,16.1,35.8,35.8S69.8,85.1,50,85.1z"/>
				<path class="st46" d="M50,13.9c19.5,0,35.3,15.9,35.3,35.3S69.5,84.6,50,84.6S14.7,68.7,14.7,49.2S30.5,13.9,50,13.9 M50,12.9
					c-20.1,0-36.3,16.3-36.3,36.3c0,20.1,16.3,36.3,36.3,36.3c20.1,0,36.3-16.3,36.3-36.3C86.3,29.2,70.1,12.9,50,12.9L50,12.9z"/>
			</g>
			<g>
				<circle class="st45" cx="50" cy="49.2" r="29.2"/>
				<path class="st46" d="M50,20.5c15.9,0,28.7,12.9,28.7,28.7C78.7,65.1,65.9,78,50,78c-15.9,0-28.7-12.9-28.7-28.7
					C21.3,33.4,34.1,20.5,50,20.5 M50,19.5c-16.4,0-29.7,13.3-29.7,29.7C20.3,65.6,33.6,79,50,79s29.7-13.3,29.7-29.7
					C79.7,32.8,66.4,19.5,50,19.5L50,19.5z"/>
			</g>
			<circle class="st47" cx="50" cy="49.2" r="28.7"/>
			<path class="st48" d="M78.7,49.2C78.7,65.1,65.9,78,50,78c0-27.2,0-33.9,0-57.5C65.9,20.5,78.7,33.4,78.7,49.2z"/>
			<path class="st44" d="M50,22.2c15.5,0,28.2,12.3,28.7,27.7c0-0.2,0-0.5,0-0.7c0-15.9-12.9-28.7-28.7-28.7S21.3,33.4,21.3,49.2
				c0,0.2,0,0.5,0,0.7C21.8,34.6,34.5,22.2,50,22.2z"/>
			<g>
				<path class="st44" d="M35.7,64.4l-1-1l1-24.8l14.3-1l1,1V43h-10v6.1l7.4-1l1,1v4.4h-8.3v11H35.7z"/>
				<path class="st44" d="M54.5,64.4l-1-1l1-24.8l14.3-1l1,1V43h-10v6.1l7.4-1l1,1v4.4h-8.3v11H54.5z"/>
			</g>
			<g>
				<path class="st48" d="M34.7,63.4V37.6H50V42H40v6.1h8.3v4.4H40v11H34.7z"/>
				<path class="st47" d="M53.5,63.4V37.6h15.3V42h-10v6.1h8.3v4.4h-8.3v11H53.5z"/>
			</g>
		</g>
	</g>
</g>
<g id="grid_top">
</g>
</svg>
