<?xml version="1.0" encoding="utf-8"?>
<!-- Generator: Adobe Illustrator 22.1.0, SVG Export Plug-In . SVG Version: 6.00 Build 0)  -->
<svg version="1.1" xmlns="http://www.w3.org/2000/svg" xmlns:xlink="http://www.w3.org/1999/xlink" x="0px" y="0px"
	 viewBox="0 0 100 100" style="enable-background:new 0 0 100 100;" xml:space="preserve">
<style type="text/css">
	.st0{display:none;}
	.st1{display:inline;fill:#E6E6E6;}
	.st2{display:inline;}
	.st3{fill:none;stroke:#4D4D4D;stroke-miterlimit:10;}
	.st4{fill:#F8C659;}
	.st5{fill:#EE5F3F;}
	.st6{fill:#C20037;}
	.st7{fill:#999999;}
	.st8{fill:#FF4076;}
	.st9{fill:#DA3728;}
	.st10{fill:#EE5F3D;}
	.st11{fill:#F2F2F2;}
	.st12{fill:#BF9945;}
	.st13{fill:#FFFFFF;}
	.st14{fill:#C2365E;}
	.st15{fill:none;}
	.st16{fill:#7AC943;}
	.st17{fill:#3F543A;}
	.st18{fill:#FF9E2D;}
	.st19{fill:#FF8800;}
	.st20{fill:#FFA315;}
	.st21{fill:#9B5300;}
	.st22{fill:#B76200;}
	.st23{fill:#BA7910;}
	.st24{fill:#A52253;}
	.st25{fill:#FF0047;}
	.st26{fill:#EC5D57;}
	.st27{fill:#FF1528;}
	.st28{fill:#A9002F;}
	.st29{fill:#BF120D;}
	.st30{fill:#8C0C3C;}
	.st31{fill:#BF1052;}
	.st32{fill:#FF3480;}
	.st33{fill:#C10036;}
	.st34{fill:#A60E47;}
	.st35{fill:#EB3076;}
	.st36{fill:#C41117;}
	.st37{fill:#EA403A;}
	.st38{fill:#C9366D;}
	.st39{fill:none;stroke:#C41117;stroke-width:0;stroke-linecap:round;stroke-linejoin:round;}
	.st40{fill:#FF5997;}
	.st41{fill:#FFDEBA;}
	.st42{fill:#FF931E;}
	.st43{fill:#F7931E;}
	.st44{fill:#D9A41C;}
	.st45{fill:#F8BC20;}
	.st46{fill:#FCEE21;}
	.st47{fill:#F8D44D;}
	.st48{fill:#F8CB23;}
	.st49{fill:#687994;}
	.st50{fill:#92C8AF;}
	.st51{fill:#739E8A;}
	.st52{fill:#3FA9F5;stroke:#FFFFFF;stroke-miterlimit:10;}
	.st53{fill:#3FA9F5;}
	.st54{fill:#FFFFFF;stroke:#3FA9F5;stroke-width:2;stroke-miterlimit:10;}
	.st55{fill:#E6E6E6;}
	.st56{fill:#CCCCCC;}
	.st57{fill:#4D4D4D;}
	.st58{fill:#8E59F8;}
	.st59{fill:#D3A8F8;}
	.st60{fill:#FF0000;}
	.st61{fill:#C2365E;stroke:#FFFFFF;stroke-miterlimit:10;}
	.st62{fill:#80364B;}
	.st63{fill:#32422D;}
	.st64{fill:#81AB78;}
	.st65{fill:#5B7954;}
	.st66{fill:#F8BE00;}
	.st67{fill:#FFBC6E;}
	.st68{fill:#FF1D25;}
	.st69{fill:#F86C66;}
	.st70{fill:#F8A09C;}
	.st71{fill:#FFDD61;}
	.st72{fill:#84D2AB;}
	.st73{fill:#C7D2CD;}
	.st74{fill:none;stroke:#F8BE00;stroke-width:4;stroke-linecap:round;stroke-linejoin:round;stroke-miterlimit:10;}
	.st75{fill:none;stroke:#808080;stroke-miterlimit:10;}
	.st76{fill:#808080;}
	.st77{fill:#B3B3B3;}
	.st78{fill:#C7B299;}
	.st79{fill:#EEE8D6;}
	.st80{fill:#F8E7A8;}
	.st81{fill:#F8E7D3;}
	.st82{opacity:0.25;}
</style>
<g id="bkgrd" class="st0">
</g>
<g id="grid" class="st0">
</g>
<g id="under_layer">
</g>
<g id="main">
	<g>
		<g>
			
				<image style="overflow:visible;opacity:0.5;" width="108" height="82" xlink:href="8CA5F23E.png"  transform="matrix(1 0 0 1 -3.7735 9.0145)">
			</image>
			<g>
				<path class="st13" d="M50,76.2c-0.6,0-1.2-0.2-1.7-0.7L11.9,40.9c-0.5-0.5-0.8-1.2-0.8-2c0-0.7,0.4-1.4,1-1.9l15.3-11.3
					c0.3-0.3,0.7-0.4,1.2-0.5l7.9-1c0.1,0,0.2,0,0.3,0h27.3c0.1,0,0.2,0,0.4,0l7,1c0.4,0.1,0.8,0.2,1.1,0.5L87.9,37
					c0.6,0.4,1,1.1,1,1.9c0,0.7-0.2,1.5-0.8,2L51.7,75.5C51.2,76,50.6,76.2,50,76.2z"/>
				<path class="st13" d="M64.1,26.7l7,1l15.3,11.3h0L50,73.7l0,0l0,0h0L13.6,39.1l15.3-11.3l7.9-1h7.9H50h5.3H64.1 M64.1,21.7h-8.8
					H50h-5.3h-7.9c-0.2,0-0.4,0-0.7,0l-7.9,1c-0.8,0.1-1.6,0.4-2.3,0.9L10.7,35c-1.2,0.9-1.9,2.2-2,3.7c-0.1,1.5,0.5,2.9,1.5,3.9
					l36.4,34.7c1,0.9,2.2,1.4,3.4,1.4s2.5-0.5,3.4-1.4l36.4-34.7c1.1-1,1.6-2.5,1.5-3.9c-0.1-1.5-0.8-2.8-2-3.7L74,23.7
					c-0.7-0.5-1.4-0.8-2.2-0.9l-7-1C64.6,21.7,64.4,21.7,64.1,21.7L64.1,21.7z"/>
			</g>
		</g>
		<g>
			<g>
				<polygon class="st24" points="35.9,29.2 28.9,27.8 13.6,39.1 23.7,41.2 				"/>
				<polyline class="st24" points="86.4,39.1 71.1,27.8 64.1,29.2 76.2,41.1 86.4,39.1 				"/>
				<polygon class="st25" points="50,73.7 50,73.7 50,73.7 				"/>
				<polygon class="st25" points="50,73.7 50,73.7 50,73.7 50,73.7 50,73.7 				"/>
				<rect x="50" y="30" class="st26" width="0" height="16.3"/>
				<polygon class="st27" points="50,73.7 50,73.7 50,73.7 				"/>
				<polygon class="st27" points="50,73.7 50,73.7 50,73.7 50,73.7 				"/>
				<polygon class="st28" points="50,73.7 50,73.7 50,73.7 				"/>
				<polygon class="st29" points="13.6,39.1 13.6,39.1 50,73.7 50,73.7 				"/>
				<polygon class="st30" points="50,73.7 86.4,39.1 76.2,41.1 76.3,41.2 				"/>
				<polygon class="st30" points="23.7,41.2 23.7,41.2 23.8,41.1 13.6,39.1 50,73.7 				"/>
				<polygon class="st28" points="50,73.7 50,73.7 50,73.7 				"/>
				<polygon class="st28" points="50,73.7 50,73.7 50,73.7 				"/>
				<polygon class="st31" points="35.9,29.2 23.8,41.1 23.7,41.2 39.1,44.1 39.1,44.1 44.7,30 				"/>
				<polyline class="st31" points="76.3,41.2 76.2,41.1 64.1,29.2 55.3,30 60.9,44.1 60.9,44.1 76.3,41.2 				"/>
				<polygon class="st32" points="60.9,44.1 55.3,30 50,30 50,46.2 60.9,44.1 				"/>
				<polygon class="st33" points="50,73.7 50,73.7 50,73.7 				"/>
				<polygon class="st29" points="23.7,41.2 50,73.7 50,73.7 50,73.7 23.7,41.2 				"/>
				<polygon class="st34" points="39.1,44.2 39.1,44.1 23.7,41.2 50,73.7 50,73.7 39.1,44.2 				"/>
				<polygon class="st35" points="44.7,30 39.1,44.1 39.1,44.1 39.1,44.2 50,46.2 50,46.2 50,46.2 50,46.2 50,30 				"/>
				<rect x="50" y="73.7" class="st33" width="0" height="0"/>
				<polygon class="st33" points="50,73.7 50,73.7 50,73.7 				"/>
				<polygon class="st33" points="50,73.7 50,73.7 50,73.7 				"/>
				<polygon class="st33" points="50,73.7 50,73.7 50,73.7 				"/>
				<polygon class="st34" points="60.9,44.1 60.9,44.2 50,73.7 50,73.7 76.3,41.2 				"/>
				<polygon class="st36" points="50,73.7 50,73.7 50,73.7 50,73.7 50,73.7 				"/>
				<rect x="50" y="46.2" class="st29" width="0" height="27.5"/>
				<polygon class="st37" points="50,46.2 50,46.2 50,46.2 				"/>
				<polygon class="st29" points="39.1,44.2 50,73.7 50,73.7 39.1,44.2 				"/>
				<polygon class="st38" points="50,46.2 39.1,44.2 50,73.7 50,46.2 				"/>
				<polygon class="st29" points="50,46.2 50,46.2 50,73.7 50,73.7 50,73.7 50,73.7 				"/>
				<polygon class="st31" points="60.9,44.1 50,46.2 50,73.7 50,73.7 50,73.7 60.9,44.2 				"/>
			</g>
			<polygon class="st40" points="28.9,27.8 36.8,26.7 44.7,26.7 50,26.7 55.3,26.7 64.1,26.7 71.1,27.8 64.1,29.2 55.3,30 50,30 
				44.7,30 35.9,29.2 			"/>
		</g>
	</g>
</g>
<g id="grid_top">
</g>
</svg>
