<?xml version="1.0" encoding="utf-8"?>
<!-- Generator: Adobe Illustrator 22.1.0, SVG Export Plug-In . SVG Version: 6.00 Build 0)  -->
<svg version="1.1" xmlns="http://www.w3.org/2000/svg" xmlns:xlink="http://www.w3.org/1999/xlink" x="0px" y="0px"
	 viewBox="0 0 100 100" style="enable-background:new 0 0 100 100;" xml:space="preserve">
<style type="text/css">
	.st0{display:none;}
	.st1{display:inline;fill:#E6E6E6;}
	.st2{display:inline;}
	.st3{fill:none;stroke:#4D4D4D;stroke-miterlimit:10;}
	.st4{fill:#F8C659;}
	.st5{fill:#EE5F3F;}
	.st6{fill:#C20037;}
	.st7{fill:#999999;}
	.st8{fill:#FF4076;}
	.st9{fill:#DA3728;}
	.st10{fill:#EE5F3D;}
	.st11{fill:#F2F2F2;}
	.st12{fill:#BF9945;}
	.st13{fill:#FFFFFF;}
	.st14{fill:#C2365E;}
	.st15{fill:none;}
	.st16{fill:#7AC943;}
	.st17{fill:#3F543A;}
	.st18{fill:#FF9E2D;}
	.st19{fill:#FF8800;}
	.st20{fill:#FFA315;}
	.st21{fill:#9B5300;}
	.st22{fill:#B76200;}
	.st23{fill:#BA7910;}
	.st24{fill:#A52253;}
	.st25{fill:#FF0047;}
	.st26{fill:#EC5D57;}
	.st27{fill:#FF1528;}
	.st28{fill:#A9002F;}
	.st29{fill:#BF120D;}
	.st30{fill:#8C0C3C;}
	.st31{fill:#BF1052;}
	.st32{fill:#FF3480;}
	.st33{fill:#C10036;}
	.st34{fill:#A60E47;}
	.st35{fill:#EB3076;}
	.st36{fill:#C41117;}
	.st37{fill:#EA403A;}
	.st38{fill:#C9366D;}
	.st39{fill:none;stroke:#C41117;stroke-width:0;stroke-linecap:round;stroke-linejoin:round;}
	.st40{fill:#FF5997;}
	.st41{fill:#FFDEBA;}
	.st42{fill:#FF931E;}
	.st43{fill:#F7931E;}
	.st44{fill:#D9A41C;}
	.st45{fill:#F8BC20;}
	.st46{fill:#FCEE21;}
	.st47{fill:#F8D44D;}
	.st48{fill:#F8CB23;}
	.st49{fill:#687994;}
	.st50{fill:#92C8AF;}
	.st51{fill:#739E8A;}
	.st52{fill:#3FA9F5;stroke:#FFFFFF;stroke-miterlimit:10;}
	.st53{fill:#3FA9F5;}
	.st54{fill:#FFFFFF;stroke:#3FA9F5;stroke-width:2;stroke-miterlimit:10;}
	.st55{fill:#E6E6E6;}
	.st56{fill:#CCCCCC;}
	.st57{fill:#4D4D4D;}
	.st58{fill:#8E59F8;}
	.st59{fill:#D3A8F8;}
	.st60{fill:#FF0000;}
	.st61{fill:#C2365E;stroke:#FFFFFF;stroke-miterlimit:10;}
	.st62{fill:#80364B;}
	.st63{fill:#32422D;}
	.st64{fill:#81AB78;}
	.st65{fill:#5B7954;}
	.st66{fill:#F8BE00;}
	.st67{fill:#FFBC6E;}
	.st68{fill:#FF1D25;}
	.st69{fill:#F86C66;}
	.st70{fill:#F8A09C;}
	.st71{fill:#FFDD61;}
	.st72{fill:#84D2AB;}
	.st73{fill:#C7D2CD;}
	.st74{fill:none;stroke:#F8BE00;stroke-width:4;stroke-linecap:round;stroke-linejoin:round;stroke-miterlimit:10;}
	.st75{fill:none;stroke:#808080;stroke-miterlimit:10;}
	.st76{fill:#808080;}
	.st77{fill:#B3B3B3;}
	.st78{fill:#C7B299;}
	.st79{fill:#EEE8D6;}
	.st80{fill:#F8E7A8;}
	.st81{fill:#F8E7D3;}
	.st82{opacity:0.25;}
</style>
<g id="bkgrd" class="st0">
</g>
<g id="grid" class="st0">
</g>
<g id="under_layer">
</g>
<g id="main">
	<g>
		<g>
			
				<image style="overflow:visible;opacity:0.5;" width="106" height="102" xlink:href="721A81A8.png"  transform="matrix(1 0 0 1 -3.2675 0.6897)">
			</image>
			<g>
				<path class="st13" d="M71.4,87.9c-0.5,0-1-0.2-1.5-0.5L54.6,76.3L52,84.4c-0.3,1-1.3,1.7-2.4,1.7c0,0,0,0,0,0
					c-1.1,0-2-0.7-2.4-1.7l-2.7-8.2L29.1,87.3c-0.4,0.3-1,0.5-1.5,0.5c-0.5,0-1-0.2-1.5-0.5c-0.9-0.6-1.2-1.8-0.9-2.8l5.9-18
					c0,0-8.4,0-8.4,0c-1.1,0-2-0.7-2.4-1.7c-0.3-1,0-2.2,0.9-2.8l6.8-5L12.6,46c-0.9-0.6-1.3-1.8-0.9-2.8c0.3-1,1.3-1.7,2.4-1.7
					l19,0l-2.7-8c-0.3-1,0-2.2,0.9-2.8c0.4-0.3,1-0.5,1.5-0.5c0.5,0,1,0.2,1.5,0.5l7,5.1l5.9-18.3c0.3-1,1.3-1.7,2.4-1.7
					c0,0,0,0,0,0c1.1,0,2,0.7,2.4,1.7l5.8,18l6.8-5c0.4-0.3,1-0.5,1.5-0.5c0.5,0,1,0.2,1.5,0.5c0.9,0.6,1.2,1.8,0.9,2.8l-2.6,8.1
					c0,0,19,0,19,0c0.1,0,0.1,0,0.2,0c1.2,0.1,2.1,0.9,2.3,2.1c0.2,1.1-0.4,2.2-1.3,2.6L70.9,57l6.9,5c1,0.7,1.3,2.1,0.7,3.2
					c-0.4,0.8-1.3,1.4-2.2,1.4c-0.1,0-0.2,0-0.4,0l-8.2,0l5.9,18.2c0.3,1,0,2.2-0.9,2.8C72.5,87.8,71.9,87.9,71.4,87.9z"/>
				<path class="st13" d="M49.6,18.2l6.9,21.3l9.6-7l-3.6,11.3l22.5,0l0,0l0,0l0.1,0l-0.1,0L66.7,57l9.7,7l0,0h0l0,0l-0.1,0l-11.9,0
					l7,21.5L53.3,72.2l-3.6,11.4l-3.8-11.5L27.6,85.3l7-21.2l-11.8,0l9.6-7L14.1,44l22.4,0l-3.8-11.3l9.8,7.1L49.6,18.2 M49.6,13.2
					c-2.2,0-4.1,1.4-4.8,3.5l-4.9,15l-4.3-3.1c-0.9-0.6-1.9-0.9-2.9-0.9c-1,0-2.1,0.3-3,1c-1.7,1.3-2.5,3.6-1.8,5.6l1.6,4.7l-15.5,0
					c0,0,0,0,0,0c-2.2,0-4.1,1.4-4.8,3.5c-0.7,2.1,0.1,4.3,1.8,5.6l12.6,9.1l-4,2.9c-1.8,1.3-2.5,3.5-1.8,5.6
					c0.7,2.1,2.6,3.4,4.8,3.4c0,0,0,0,0,0l4.9,0l-4.8,14.7c-0.7,2.1,0.1,4.3,1.8,5.6c0.9,0.6,1.9,1,2.9,1c1,0,2.1-0.3,2.9-0.9
					l12.7-9.2l1.6,5c0.7,2.1,2.6,3.4,4.8,3.4c0,0,0,0,0,0c2.2,0,4.1-1.4,4.7-3.5l1.5-4.8l12.6,9.1c0.9,0.6,1.9,1,2.9,1
					c1,0,2.1-0.3,2.9-1c1.8-1.3,2.5-3.5,1.8-5.6L71.3,69l4.5,0c0.2,0,0.4,0,0.5,0c1.8,0,3.6-1,4.5-2.7c0.9-1.8,0.6-4-0.6-5.5
					c-0.3-0.4-0.7-0.8-1.2-1L75.2,57l12.1-8.7c1.8-1,2.9-3,2.5-5.2c-0.3-2-1.8-3.6-3.7-4.1c-0.4-0.1-0.8-0.2-1.3-0.2
					c-0.1,0-0.3,0-0.4,0l-15.3,0l1.5-4.8c0.7-2.1-0.1-4.3-1.8-5.6c-0.9-0.6-1.9-0.9-2.9-0.9c-1,0-2.1,0.3-3,1l-4,2.9l-4.8-14.8
					C53.7,14.6,51.7,13.2,49.6,13.2C49.6,13.2,49.6,13.2,49.6,13.2L49.6,13.2z"/>
			</g>
		</g>
		<g>
			<g>
				<g>
					<polygon class="st58" points="49.6,55.3 49.5,69.5 71.4,85.5 					"/>
				</g>
			</g>
			<g>
				<g>
					<g>
						<polygon class="st59" points="49.6,55.3 63,59.7 71.4,85.5 						"/>
					</g>
				</g>
			</g>
			<g>
				<g>
					<g>
						<polygon class="st58" points="49.6,55.3 57.9,43.9 49.6,18.2 						"/>
					</g>
				</g>
			</g>
			<g>
				<g>
					<polygon class="st59" points="49.6,55.3 41.2,44.1 49.6,18.2 					"/>
				</g>
			</g>
			<g>
				<g>
					<g>
						<polygon class="st58" points="49.6,55.3 36,59.7 27.6,85.3 						"/>
					</g>
				</g>
			</g>
			<g>
				<g>
					<g>
						<polygon class="st59" points="49.6,55.3 49.5,69.5 27.6,85.3 						"/>
					</g>
				</g>
			</g>
			<g>
				<g>
					<polygon class="st58" points="49.6,55.3 41.2,44 14.1,44 					"/>
				</g>
			</g>
			<g>
				<g>
					<g>
						<polygon class="st59" points="49.6,55.3 36,59.8 14.1,44 						"/>
					</g>
				</g>
			</g>
			<g>
				<g>
					<polygon class="st58" points="49.6,55.3 63,59.7 84.9,43.9 					"/>
				</g>
			</g>
			<g>
				<g>
					<polygon class="st59" points="49.6,55.3 57.8,43.9 84.9,43.9 					"/>
				</g>
			</g>
		</g>
		<g>
			<g>
				<g>
					<polygon class="st58" points="49.6,55.4 43.2,64.1 49.6,83.6 					"/>
				</g>
			</g>
			<g>
				<g>
					<g>
						<polygon class="st59" points="49.6,55.4 55.9,64 49.6,83.6 						"/>
					</g>
				</g>
			</g>
			<g>
				<g>
					<g>
						<polygon class="st58" points="49.6,55.4 59.7,52 66,32.6 						"/>
					</g>
				</g>
			</g>
			<g>
				<g>
					<polygon class="st59" points="49.6,55.4 49.4,44.7 66,32.6 					"/>
				</g>
			</g>
			<g>
				<g>
					<g>
						<polygon class="st58" points="49.6,55.4 39.3,52 22.7,64.1 						"/>
					</g>
				</g>
			</g>
			<g>
				<g>
					<g>
						<polygon class="st59" points="49.6,55.4 43.2,64.1 22.7,64.1 						"/>
					</g>
				</g>
			</g>
			<g>
				<g>
					<polygon class="st58" points="49.6,55.4 49.4,44.7 32.8,32.7 					"/>
				</g>
			</g>
			<g>
				<g>
					<g>
						<polygon class="st59" points="49.6,55.4 39.3,52.1 32.8,32.7 						"/>
					</g>
				</g>
			</g>
			<g>
				<g>
					<polygon class="st58" points="49.6,55.4 55.9,64 76.4,64 					"/>
				</g>
			</g>
			<g>
				<g>
					<polygon class="st59" points="49.6,55.4 59.7,52 76.4,64 					"/>
				</g>
			</g>
		</g>
		<g>
			<g>
				<g>
					<polygon class="st58" points="49.6,55.3 49.5,69.5 71.4,85.5 					"/>
				</g>
			</g>
			<g>
				<g>
					<g>
						<polygon class="st59" points="49.6,55.3 63,59.7 71.4,85.5 						"/>
					</g>
				</g>
			</g>
			<g>
				<g>
					<g>
						<polygon class="st58" points="49.6,55.3 57.9,43.9 49.6,18.2 						"/>
					</g>
				</g>
			</g>
			<g>
				<g>
					<polygon class="st59" points="49.6,55.3 41.2,44.1 49.6,18.2 					"/>
				</g>
			</g>
			<g>
				<g>
					<g>
						<polygon class="st58" points="49.6,55.3 36,59.7 27.6,85.3 						"/>
					</g>
				</g>
			</g>
			<g>
				<g>
					<g>
						<polygon class="st59" points="49.6,55.3 49.5,69.5 27.6,85.3 						"/>
					</g>
				</g>
			</g>
			<g>
				<g>
					<polygon class="st58" points="49.6,55.3 41.2,44 14.1,44 					"/>
				</g>
			</g>
			<g>
				<g>
					<g>
						<polygon class="st59" points="49.6,55.3 36,59.8 14.1,44 						"/>
					</g>
				</g>
			</g>
			<g>
				<g>
					<polygon class="st58" points="49.6,55.3 63,59.7 84.9,43.9 					"/>
				</g>
			</g>
			<g>
				<g>
					<polygon class="st59" points="49.6,55.3 57.8,43.9 84.9,43.9 					"/>
				</g>
			</g>
		</g>
	</g>
</g>
<g id="grid_top">
</g>
</svg>
