<svg xmlns="http://www.w3.org/2000/svg" viewBox="0 0 600 428.23"><defs><style>.cls-1{isolation:isolate;}.cls-2{fill:#f8c659;}.cls-3{fill:#ee5f3f;}.cls-4{fill:#c20037;}.cls-5{fill:#999;}.cls-6{fill:#ff4076;}.cls-7{fill:#da3728;}.cls-8{fill:#ee5f3d;}.cls-9{fill:#f2f2f2;}.cls-10{fill:#bf9945;}.cls-11{font-size:33.07px;}.cls-11,.cls-12{fill:#f8be00;}.cls-11,.cls-23{font-family:Candara-BoldItalic, Candara;font-style:italic;}.cls-11,.cls-23,.cls-24,.cls-28{font-weight:700;}.cls-13{fill:#ffbc6e;}.cls-14{fill:#ff1d25;}.cls-15{fill:#f86c66;}.cls-16{fill:#f8a09c;}.cls-17{fill:#ffdd61;}.cls-18{fill:#84d2ab;}.cls-19{fill:#c7d2cd;}.cls-20,.cls-21{fill:none;}.cls-20{stroke:#f8be00;stroke-linecap:round;stroke-linejoin:round;stroke-width:4px;}.cls-21{stroke:gray;}.cls-21,.cls-25,.cls-28{stroke-miterlimit:10;}.cls-22{fill:gray;}.cls-23{font-size:25.24px;}.cls-23,.cls-24,.cls-25,.cls-28{fill:#606060;}.cls-24,.cls-25{font-size:19.15px;}.cls-24{font-family:Candara-Bold, Candara;}.cls-25,.cls-28{stroke:#606060;}.cls-25{font-family:Blenny-Black, Blenny;}.cls-26{fill:#f8e7a8;}.cls-27{fill:#f8e7d3;}.cls-28{font-size:31.89px;font-family:Caladea-Bold, Caladea;}.cls-29{fill:#fff;}.cls-30{opacity:0.75;}.cls-31{fill:#ccc;}.cls-32{opacity:0.25;mix-blend-mode:multiply;}.cls-33{fill:#3f543a;}.cls-34{fill:#c2365e;}.cls-35{fill:#80364b;}.cls-36{fill:#32422d;}.cls-37{fill:#81ab78;}.cls-38{fill:#5b7954;}.cls-39{fill:#a52253;}.cls-40{fill:#ff0047;}.cls-41{fill:#ec5d57;}.cls-42{fill:#ff1528;}.cls-43{fill:#a9002f;}.cls-44{fill:#bf120d;}.cls-45{fill:#8c0c3c;}.cls-46{fill:#bf1052;}.cls-47{fill:#ff3480;}.cls-48{fill:#c10036;}.cls-49{fill:#a60e47;}.cls-50{fill:#eb3076;}.cls-51{fill:#c41117;}.cls-52{fill:#ea403a;}.cls-53{fill:#c9366d;}.cls-54{fill:#ff5997;}.cls-55{fill:#ffdeba;}.cls-56{fill:#ff931e;}.cls-57{fill:#f7931e;}.cls-58{fill:#d9a41c;}.cls-59{fill:#f8bc20;}.cls-60{fill:#fcee21;}.cls-61{fill:#f8d44d;}.cls-62{fill:#f8cb23;}.cls-63{fill:#687994;}.cls-64{fill:#92c8af;}.cls-65{fill:#739e8a;}.cls-66{fill:#e6e6e6;}.cls-67{fill:#4d4d4d;}.cls-68{fill:#8e59f8;}.cls-69{fill:#d3a8f8;}</style></defs><title>slotGame</title><g class="cls-1"><g id="main"><rect class="cls-2" x="241.8" y="-19.53" width="115.44" height="593.03" rx="10" ry="10" transform="translate(576.5 -22.53) rotate(90)"/><rect class="cls-3" x="212.74" y="-6.12" width="173.55" height="566.19" rx="10" ry="10" transform="translate(576.5 -22.53) rotate(90)"/><path class="cls-4" d="M298.52,10.12H300A30.95,30.95,0,0,1,331,41.07V70.42a0,0,0,0,1,0,0H267.57a0,0,0,0,1,0,0V41.07a30.95,30.95,0,0,1,30.95-30.95Z"/><rect class="cls-5" x="254.62" y="44.61" width="89.74" height="40.87" rx="17" ry="17"/><ellipse class="cls-6" cx="286.68" cy="19.28" rx="4.51" ry="2.78" transform="translate(46.03 176.26) rotate(-36.96)"/><rect class="cls-7" x="190.98" y="16.28" width="217.08" height="521.41" rx="10" ry="10" transform="translate(576.5 -22.53) rotate(90)"/><rect class="cls-8" x="52.85" y="141.48" width="493.28" height="282.47" rx="5" ry="5"/><rect class="cls-2" x="64" y="152.35" width="470.99" height="260.74"/><rect class="cls-9" x="72.61" y="160.52" width="453.76" height="244.4"/><polygon class="cls-10" points="534.99 152.35 64 152.35 72.61 160.52 526.37 160.52 534.99 152.35"/><polygon class="cls-10" points="526.37 404.92 72.61 404.92 64 413.09 534.99 413.09 526.37 404.92"/><path class="cls-8" d="M137.53,59.65H461.46a64.91,64.91,0,0,1,64.91,64.91v1.57a0,0,0,0,1,0,0H72.61a0,0,0,0,1,0,0v-1.57A64.91,64.91,0,0,1,137.53,59.65Z"/><rect class="cls-7" x="45.21" y="99.79" width="508.57" height="44.41" rx="10" ry="10"/><rect class="cls-3" x="59.28" y="110.95" width="480.43" height="22.08" rx="10" ry="10"/><text class="cls-11" transform="translate(266.93 89.8)"><tspan xml:space="preserve"> Multiplier</tspan></text><polygon class="cls-12" points="475.16 68.57 477.89 76.98 486.72 76.98 479.57 82.17 482.31 90.57 475.16 85.38 468.01 90.57 470.74 82.17 463.59 76.98 472.43 76.98 475.16 68.57"/><polygon class="cls-12" points="124.85 68.57 127.58 76.98 136.41 76.98 129.27 82.17 132 90.57 124.85 85.38 117.7 90.57 120.43 82.17 113.28 76.98 122.12 76.98 124.85 68.57"/><path class="cls-13" d="M124.73,128a6,6,0,1,1,6-6A6,6,0,0,1,124.73,128Z"/><path class="cls-14" d="M124.73,117a5,5,0,1,1-5,5,5,5,0,0,1,5-5m0-2a7,7,0,1,0,7,7,7,7,0,0,0-7-7Z"/><circle class="cls-13" cx="79.59" cy="121.99" r="5.98"/><path class="cls-14" d="M79.59,117a5,5,0,1,1-5,5,5,5,0,0,1,5-5m0-2a7,7,0,1,0,7,7,7,7,0,0,0-7-7Z"/><path class="cls-13" d="M224.63,128a6,6,0,1,1,6-6A6,6,0,0,1,224.63,128Z"/><path class="cls-14" d="M224.63,117a5,5,0,1,1-5,5,5,5,0,0,1,5-5m0-2a7,7,0,1,0,7,7,7,7,0,0,0-7-7Z"/><path class="cls-13" d="M172.7,128a6,6,0,1,1,6-6A6,6,0,0,1,172.7,128Z"/><path class="cls-14" d="M172.7,117a5,5,0,1,1-5,5,5,5,0,0,1,5-5m0-2a7,7,0,1,0,7,7,7,7,0,0,0-7-7Z"/><circle class="cls-13" cx="324.92" cy="121.99" r="5.98"/><path class="cls-14" d="M324.92,117a5,5,0,1,1-5,5,5,5,0,0,1,5-5m0-2a7,7,0,1,0,7,7,7,7,0,0,0-7-7Z"/><path class="cls-13" d="M273.39,128a6,6,0,1,1,6-6A6,6,0,0,1,273.39,128Z"/><path class="cls-14" d="M273.39,117a5,5,0,1,1-5,5,5,5,0,0,1,5-5m0-2a7,7,0,1,0,7,7,7,7,0,0,0-7-7Z"/><circle class="cls-13" cx="428.41" cy="121.99" r="5.98"/><path class="cls-14" d="M428.41,117a5,5,0,1,1-5,5,5,5,0,0,1,5-5m0-2a7,7,0,1,0,7,7,7,7,0,0,0-7-7Z"/><circle class="cls-13" cx="374.83" cy="121.99" r="5.98"/><path class="cls-14" d="M374.83,117a5,5,0,1,1-5,5,5,5,0,0,1,5-5m0-2a7,7,0,1,0,7,7,7,7,0,0,0-7-7Z"/><path class="cls-13" d="M523.48,128a6,6,0,1,1,6-6A6,6,0,0,1,523.48,128Z"/><path class="cls-14" d="M523.48,117a5,5,0,1,1-5,5,5,5,0,0,1,5-5m0-2a7,7,0,1,0,7,7,7,7,0,0,0-7-7Z"/><circle class="cls-13" cx="479.74" cy="121.99" r="5.98"/><path class="cls-14" d="M479.74,117a5,5,0,1,1-5,5,5,5,0,0,1,5-5m0-2a7,7,0,1,0,7,7,7,7,0,0,0-7-7Z"/><rect class="cls-15" x="395.18" y="20.08" width="31.05" height="3.97" rx="1.94" ry="1.94"/><rect class="cls-16" x="408.6" y="20.08" width="4.2" height="3.97"/><rect class="cls-16" x="399.55" y="20.08" width="4.2" height="3.97"/><polygon class="cls-16" points="421.94 20.08 417.74 20.07 417.74 24.04 421.94 24.05 421.94 20.08"/><rect class="cls-15" x="397.77" y="23.91" width="31.05" height="3.97" rx="1.94" ry="1.94"/><rect class="cls-16" x="411.19" y="23.9" width="4.2" height="3.97"/><rect class="cls-16" x="402.14" y="23.9" width="4.2" height="3.97"/><rect class="cls-16" x="420.33" y="23.91" width="4.2" height="3.97"/><rect class="cls-2" x="395.18" y="39.76" width="31.05" height="3.97" rx="1.94" ry="1.94"/><rect class="cls-17" x="408.6" y="39.76" width="4.2" height="3.97"/><rect class="cls-17" x="399.55" y="39.76" width="4.2" height="3.97"/><rect class="cls-17" x="417.74" y="39.76" width="4.2" height="3.97"/><rect class="cls-2" x="396.47" y="27.87" width="31.05" height="3.97" rx="1.94" ry="1.94"/><rect class="cls-17" x="409.9" y="27.87" width="4.2" height="3.97"/><rect class="cls-17" x="400.85" y="27.87" width="4.2" height="3.97"/><rect class="cls-17" x="419.04" y="27.87" width="4.2" height="3.97"/><rect class="cls-18" x="397.77" y="31.84" width="31.05" height="3.97" rx="1.94" ry="1.94"/><rect class="cls-19" x="411.19" y="31.84" width="4.2" height="3.97"/><rect class="cls-19" x="402.14" y="31.84" width="4.2" height="3.97"/><rect class="cls-19" x="420.33" y="31.84" width="4.2" height="3.97"/><rect class="cls-18" x="396.47" y="35.81" width="31.05" height="3.97" rx="1.94" ry="1.94"/><rect class="cls-19" x="409.9" y="35.81" width="4.2" height="3.97"/><rect class="cls-19" x="400.85" y="35.81" width="4.2" height="3.97"/><rect class="cls-19" x="419.04" y="35.81" width="4.2" height="3.97"/><rect class="cls-2" x="395.18" y="55.63" width="31.05" height="3.97" rx="1.94" ry="1.94"/><rect class="cls-17" x="408.6" y="55.63" width="4.2" height="3.97"/><rect class="cls-17" x="399.55" y="55.63" width="4.2" height="3.97"/><rect class="cls-17" x="417.74" y="55.63" width="4.2" height="3.97"/><rect class="cls-2" x="396.47" y="43.75" width="31.05" height="3.97" rx="1.94" ry="1.94"/><rect class="cls-17" x="409.9" y="43.75" width="4.2" height="3.97"/><rect class="cls-17" x="400.85" y="43.75" width="4.2" height="3.97"/><rect class="cls-17" x="419.04" y="43.75" width="4.2" height="3.97"/><rect class="cls-18" x="397.77" y="47.72" width="31.05" height="3.97" rx="1.94" ry="1.94"/><rect class="cls-19" x="411.19" y="47.72" width="4.2" height="3.97"/><rect class="cls-19" x="402.14" y="47.72" width="4.2" height="3.97"/><rect class="cls-19" x="420.33" y="47.72" width="4.2" height="3.97"/><rect class="cls-18" x="396.47" y="51.68" width="31.05" height="3.97" rx="1.94" ry="1.94"/><rect class="cls-19" x="409.9" y="51.68" width="4.2" height="3.97"/><rect class="cls-19" x="400.85" y="51.68" width="4.2" height="3.97"/><rect class="cls-19" x="419.04" y="51.68" width="4.2" height="3.97"/><rect class="cls-15" x="359.13" y="55.62" width="31.05" height="3.97" rx="1.94" ry="1.94"/><rect class="cls-16" x="372.55" y="55.63" width="4.2" height="3.97"/><rect class="cls-16" x="363.5" y="55.63" width="4.2" height="3.97"/><polygon class="cls-16" points="385.89 59.59 381.69 59.6 381.69 55.63 385.89 55.62 385.89 59.59"/><rect class="cls-15" x="361.72" y="51.8" width="31.05" height="3.97" rx="1.94" ry="1.94"/><rect class="cls-16" x="375.14" y="51.81" width="4.2" height="3.97"/><rect class="cls-16" x="366.09" y="51.81" width="4.2" height="3.97"/><rect class="cls-16" x="384.28" y="51.8" width="4.2" height="3.97"/><rect class="cls-2" x="359.13" y="35.95" width="31.05" height="3.97" rx="1.94" ry="1.94"/><rect class="cls-17" x="372.55" y="35.95" width="4.2" height="3.97"/><rect class="cls-17" x="363.5" y="35.95" width="4.2" height="3.97"/><rect class="cls-17" x="381.69" y="35.95" width="4.2" height="3.97"/><rect class="cls-15" x="361.72" y="32.13" width="31.05" height="3.97" rx="1.94" ry="1.94"/><polygon class="cls-16" points="379.34 36.09 375.14 36.09 375.14 32.13 379.34 32.13 379.34 36.09"/><rect class="cls-16" x="366.09" y="32.14" width="4.2" height="3.97"/><rect class="cls-16" x="384.28" y="32.14" width="4.2" height="3.96"/><rect class="cls-2" x="360.42" y="47.83" width="31.05" height="3.97" rx="1.94" ry="1.94"/><rect class="cls-17" x="373.84" y="47.83" width="4.2" height="3.97"/><rect class="cls-17" x="364.8" y="47.83" width="4.2" height="3.97"/><rect class="cls-17" x="382.98" y="47.83" width="4.2" height="3.97"/><rect class="cls-18" x="361.72" y="43.87" width="31.05" height="3.97" rx="1.94" ry="1.94"/><rect class="cls-19" x="375.14" y="43.87" width="4.2" height="3.97"/><rect class="cls-19" x="366.09" y="43.87" width="4.2" height="3.97"/><rect class="cls-19" x="384.28" y="43.87" width="4.2" height="3.97"/><rect class="cls-18" x="360.42" y="39.9" width="31.05" height="3.97" rx="1.94" ry="1.94"/><rect class="cls-19" x="373.84" y="39.9" width="4.2" height="3.97"/><rect class="cls-19" x="364.8" y="39.9" width="4.2" height="3.97"/><rect class="cls-19" x="382.98" y="39.9" width="4.2" height="3.97"/><rect class="cls-15" x="359.13" y="28.16" width="31.05" height="3.97" rx="1.94" ry="1.94"/><rect class="cls-16" x="372.55" y="28.17" width="4.2" height="3.97"/><rect class="cls-16" x="363.5" y="28.17" width="4.2" height="3.97"/><polygon class="cls-16" points="385.89 32.13 381.69 32.13 381.69 28.17 385.89 28.16 385.89 32.13"/><rect class="cls-15" x="361.72" y="24.34" width="31.05" height="3.97" rx="1.94" ry="1.94"/><rect class="cls-16" x="375.14" y="24.35" width="4.2" height="3.97"/><rect class="cls-16" x="366.09" y="24.35" width="4.2" height="3.97"/><rect class="cls-16" x="384.28" y="24.34" width="4.2" height="3.97"/><rect class="cls-2" x="359.13" y="8.48" width="31.05" height="3.97" rx="1.94" ry="1.94"/><rect class="cls-17" x="372.55" y="8.48" width="4.2" height="3.97"/><rect class="cls-17" x="363.5" y="8.48" width="4.2" height="3.97"/><rect class="cls-17" x="381.69" y="8.48" width="4.2" height="3.97"/><rect class="cls-15" x="361.72" y="4.66" width="31.05" height="3.97" rx="1.94" ry="1.94"/><polygon class="cls-16" points="379.34 8.63 375.14 8.63 375.14 4.66 379.34 4.67 379.34 8.63"/><rect class="cls-16" x="366.09" y="4.67" width="4.2" height="3.97"/><rect class="cls-16" x="384.28" y="4.67" width="4.2" height="3.96"/><rect class="cls-2" x="360.42" y="20.37" width="31.05" height="3.97" rx="1.94" ry="1.94"/><rect class="cls-17" x="373.84" y="20.37" width="4.2" height="3.97"/><rect class="cls-17" x="364.8" y="20.37" width="4.2" height="3.97"/><rect class="cls-17" x="382.98" y="20.37" width="4.2" height="3.97"/><rect class="cls-18" x="361.72" y="16.4" width="31.05" height="3.97" rx="1.94" ry="1.94"/><rect class="cls-19" x="375.14" y="16.4" width="4.2" height="3.97"/><rect class="cls-19" x="366.09" y="16.4" width="4.2" height="3.97"/><rect class="cls-19" x="384.28" y="16.4" width="4.2" height="3.97"/><rect class="cls-18" x="360.42" y="12.43" width="31.05" height="3.97" rx="1.94" ry="1.94"/><rect class="cls-19" x="373.84" y="12.43" width="4.2" height="3.97"/><rect class="cls-19" x="364.8" y="12.43" width="4.2" height="3.97"/><rect class="cls-19" x="382.98" y="12.43" width="4.2" height="3.97"/><rect class="cls-2" x="208.75" y="39.76" width="31.05" height="3.97" rx="1.94" ry="1.94"/><rect class="cls-17" x="222.17" y="39.76" width="4.2" height="3.97"/><rect class="cls-17" x="213.12" y="39.76" width="4.2" height="3.97"/><rect class="cls-17" x="231.31" y="39.76" width="4.2" height="3.97"/><rect class="cls-18" x="210.04" y="35.81" width="31.05" height="3.97" rx="1.94" ry="1.94"/><rect class="cls-19" x="223.47" y="35.81" width="4.2" height="3.97"/><rect class="cls-19" x="214.42" y="35.81" width="4.2" height="3.97"/><rect class="cls-19" x="232.61" y="35.81" width="4.2" height="3.97"/><rect class="cls-2" x="208.75" y="55.63" width="31.05" height="3.97" rx="1.94" ry="1.94"/><rect class="cls-17" x="222.17" y="55.63" width="4.2" height="3.97"/><rect class="cls-17" x="213.12" y="55.63" width="4.2" height="3.97"/><rect class="cls-17" x="231.31" y="55.63" width="4.2" height="3.97"/><rect class="cls-2" x="210.04" y="43.75" width="31.05" height="3.97" rx="1.94" ry="1.94"/><rect class="cls-17" x="223.47" y="43.75" width="4.2" height="3.97"/><rect class="cls-17" x="214.42" y="43.75" width="4.2" height="3.97"/><rect class="cls-17" x="232.61" y="43.75" width="4.2" height="3.97"/><rect class="cls-18" x="211.34" y="47.72" width="31.05" height="3.97" rx="1.94" ry="1.94"/><rect class="cls-19" x="224.76" y="47.72" width="4.2" height="3.97"/><rect class="cls-19" x="215.71" y="47.72" width="4.2" height="3.97"/><rect class="cls-19" x="233.9" y="47.72" width="4.2" height="3.97"/><rect class="cls-18" x="210.04" y="51.68" width="31.05" height="3.97" rx="1.94" ry="1.94"/><rect class="cls-19" x="223.47" y="51.68" width="4.2" height="3.97"/><rect class="cls-19" x="214.42" y="51.68" width="4.2" height="3.97"/><rect class="cls-19" x="232.61" y="51.68" width="4.2" height="3.97"/><rect class="cls-15" x="172.7" y="55.62" width="31.05" height="3.97" rx="1.94" ry="1.94"/><rect class="cls-16" x="186.12" y="55.63" width="4.2" height="3.97"/><rect class="cls-16" x="177.07" y="55.63" width="4.2" height="3.97"/><polygon class="cls-16" points="199.46 59.59 195.26 59.6 195.26 55.63 199.46 55.62 199.46 59.59"/><rect class="cls-15" x="175.29" y="51.8" width="31.05" height="3.97" rx="1.94" ry="1.94"/><rect class="cls-16" x="188.71" y="51.81" width="4.2" height="3.97"/><rect class="cls-16" x="179.66" y="51.81" width="4.2" height="3.97"/><rect class="cls-16" x="197.85" y="51.8" width="4.2" height="3.97"/><rect class="cls-2" x="172.7" y="35.95" width="31.05" height="3.97" rx="1.94" ry="1.94"/><rect class="cls-17" x="186.12" y="35.95" width="4.2" height="3.97"/><rect class="cls-17" x="177.07" y="35.95" width="4.2" height="3.97"/><rect class="cls-17" x="195.26" y="35.95" width="4.2" height="3.97"/><rect class="cls-15" x="175.29" y="32.13" width="31.05" height="3.97" rx="1.94" ry="1.94"/><polygon class="cls-16" points="192.91 36.09 188.71 36.09 188.71 32.13 192.91 32.13 192.91 36.09"/><rect class="cls-16" x="179.66" y="32.14" width="4.2" height="3.97"/><rect class="cls-16" x="197.85" y="32.14" width="4.2" height="3.96"/><rect class="cls-2" x="173.99" y="47.83" width="31.05" height="3.97" rx="1.94" ry="1.94"/><rect class="cls-17" x="187.41" y="47.83" width="4.2" height="3.97"/><rect class="cls-17" x="178.37" y="47.83" width="4.2" height="3.97"/><rect class="cls-17" x="196.55" y="47.83" width="4.2" height="3.97"/><rect class="cls-18" x="175.29" y="43.87" width="31.05" height="3.97" rx="1.94" ry="1.94"/><rect class="cls-19" x="188.71" y="43.87" width="4.2" height="3.97"/><rect class="cls-19" x="179.66" y="43.87" width="4.2" height="3.97"/><rect class="cls-19" x="197.85" y="43.87" width="4.2" height="3.97"/><rect class="cls-18" x="173.99" y="39.9" width="31.05" height="3.97" rx="1.94" ry="1.94"/><rect class="cls-19" x="187.41" y="39.9" width="4.2" height="3.97"/><rect class="cls-19" x="178.37" y="39.9" width="4.2" height="3.97"/><rect class="cls-19" x="196.55" y="39.9" width="4.2" height="3.97"/><rect class="cls-15" x="172.7" y="28.16" width="31.05" height="3.97" rx="1.94" ry="1.94"/><rect class="cls-16" x="186.12" y="28.17" width="4.2" height="3.97"/><rect class="cls-16" x="177.07" y="28.17" width="4.2" height="3.97"/><polygon class="cls-16" points="199.46 32.13 195.26 32.13 195.26 28.17 199.46 28.16 199.46 32.13"/><rect class="cls-15" x="175.29" y="24.34" width="31.05" height="3.97" rx="1.94" ry="1.94"/><rect class="cls-16" x="188.71" y="24.35" width="4.2" height="3.97"/><rect class="cls-16" x="179.66" y="24.35" width="4.2" height="3.97"/><rect class="cls-16" x="197.85" y="24.34" width="4.2" height="3.97"/><rect class="cls-2" x="173.99" y="20.37" width="31.05" height="3.97" rx="1.94" ry="1.94"/><rect class="cls-17" x="187.41" y="20.37" width="4.2" height="3.97"/><rect class="cls-17" x="178.37" y="20.37" width="4.2" height="3.97"/><rect class="cls-17" x="196.55" y="20.37" width="4.2" height="3.97"/><line class="cls-20" x1="423.44" y1="82.92" x2="457.44" y2="82.92"/><line class="cls-20" x1="141.11" y1="82.92" x2="175.12" y2="82.92"/><line class="cls-21" x1="85.33" y1="200.87" x2="514.26" y2="200.87"/><rect class="cls-22" x="84.83" y="197.62" width="1" height="6.5"/><rect class="cls-22" x="513.76" y="197.62" width="1" height="6.5"/></g><g id="grid_top" data-name="grid top"><text class="cls-23" transform="translate(248.09 190.99)">Multiplier</text><text class="cls-24" transform="translate(368.65 189.31)">Win</text><text class="cls-24" transform="translate(191.61 189.31)">Win</text><text class="cls-25" transform="translate(487.09 191.56)">#</text><text class="cls-25" transform="translate(99.96 191.56)">#</text><rect class="cls-26" x="282.11" y="20.35" width="34.69" height="423.19" rx="5" ry="5" transform="translate(531.4 -67.51) rotate(90)"/><rect class="cls-26" x="282.11" y="117.7" width="34.69" height="423.19" rx="5" ry="5" transform="translate(628.75 29.84) rotate(90)"/><rect class="cls-27" x="282.11" y="68.9" width="34.69" height="423.19" rx="5" ry="5" transform="translate(579.95 -18.96) rotate(90)"/><rect class="cls-27" x="282.11" y="166.26" width="34.69" height="423.19" rx="5" ry="5" transform="translate(677.31 78.4) rotate(90)"/><text class="cls-28" transform="translate(96.43 291.22)">3</text><text class="cls-28" transform="translate(96.43 241.22)">4</text><text class="cls-28" transform="translate(96.43 338.2)">2</text><text class="cls-28" transform="translate(96.43 385.8)">1</text><text class="cls-28" transform="translate(200.39 291.22)">9</text><text class="cls-28" transform="translate(190.95 241.22)">12</text><text class="cls-28" transform="translate(200.39 338.2)">6</text><text class="cls-28" transform="translate(200.39 385.8)">3</text><text class="cls-28" transform="translate(367.93 291.22)">21</text><text class="cls-28" transform="translate(367.93 241.22)">24</text><text class="cls-28" transform="translate(367.93 338.2)">18</text><text class="cls-28" transform="translate(367.93 385.8)">15</text><text class="cls-28" transform="translate(479.31 291.22)">7</text><text class="cls-28" transform="translate(479.31 241.22)">8</text><text class="cls-28" transform="translate(479.31 338.2)">6</text><text class="cls-28" transform="translate(479.31 385.8)">5</text><rect class="cls-2" x="245.77" y="207.13" width="102.47" height="191.44" rx="5" ry="5"/><path class="cls-29" d="M287.82,373.92a8.48,8.48,0,0,0-2.9-6.8c-1.93-1.66-4.58-2.49-7.93-2.49h-1.53c-.48,0-.71-.21-.71-.65v-1c0-.44.23-.65.71-.65h1.59q5.08,0,7.93-2.22a7.47,7.47,0,0,0,2.84-6.24,7.92,7.92,0,0,0-1.93-5.5,6.33,6.33,0,0,0-4.93-2.13,3.24,3.24,0,0,0-1.39.24.77.77,0,0,0-.51.71,1.07,1.07,0,0,0,.36.77h.35a6.38,6.38,0,0,1,4.5,1.48,5.51,5.51,0,0,1,1.59,4.25,6.1,6.1,0,0,1-2.18,5.06,10,10,0,0,1-6.33,1.74,8.57,8.57,0,0,1-6-2.12,7,7,0,0,1-2.34-5.44,8,8,0,0,1,4.11-7.07q4.11-2.57,11.27-2.57,6.92,0,10.9,2.84a9,9,0,0,1,4,7.74,7.67,7.67,0,0,1-2.49,5.91,13.12,13.12,0,0,1-7.15,3c3.58.2,6.34,1.16,8.28,2.9a9.12,9.12,0,0,1,2.89,7.15,9.81,9.81,0,0,1-2,6.15,13,13,0,0,1-5.94,4.14,25.73,25.73,0,0,1-9.16,1.48q-7.15,0-11.33-2.78a8.66,8.66,0,0,1-4.17-7.57,7,7,0,0,1,2.58-5.65,10.21,10.21,0,0,1,6.77-2.15,8.62,8.62,0,0,1,6,2.1,7.13,7.13,0,0,1,2.3,5.52,5.48,5.48,0,0,1-1.62,4.23,6.3,6.3,0,0,1-4.47,1.51h-.35a1.07,1.07,0,0,0-.36.77.79.79,0,0,0,.51.68,2.94,2.94,0,0,0,1.39.26,6.32,6.32,0,0,0,4.93-2.12A7.92,7.92,0,0,0,287.82,373.92Z"/><path class="cls-29" d="M319.68,377.63V377c3.22-.64,3-1.37,2.18-2.94-.45-.84-1.37-2.65-4.31-7.85-2.1,3.22-3.26,5.16-4.71,7.73-1.13,2-.49,2.38,2.78,3.06v.65h-9.75V377c2.26-.48,3.46-1,4.75-2.61,2.42-3.19,4.07-5.92,6.28-9.23-1.93-3.46-3.34-6.16-5.47-9.7-1.49-2.5-1.94-2.78-4.47-3.34v-.65h11.51v.65c-2.57.48-2.61,1.13-1.93,2.41.85,1.65,2,3.71,3.63,6.73,1.49-2.22,2.61-4.15,3.74-6.2,1-1.77.72-2.3-2.62-2.94v-.65h9.38v.65c-3.1.72-3.86,1.13-5.35,3.34-1.73,2.54-2.78,4.31-4.47,6.81,2.5,4.26,4.07,7.24,6.28,10.87,1.69,2.78,2.34,3.38,5.16,3.86v.65Z"/><path class="cls-8" d="M285.91,372a8.47,8.47,0,0,0-2.89-6.8c-1.93-1.66-4.58-2.49-7.93-2.49h-1.53c-.48,0-.71-.21-.71-.65v-1c0-.44.23-.65.71-.65h1.59q5.09,0,7.93-2.22a7.47,7.47,0,0,0,2.83-6.24,7.91,7.91,0,0,0-1.92-5.5,6.33,6.33,0,0,0-4.93-2.13,3.24,3.24,0,0,0-1.39.24.77.77,0,0,0-.51.71,1.07,1.07,0,0,0,.36.77h.35a6.38,6.38,0,0,1,4.5,1.48,5.51,5.51,0,0,1,1.59,4.25,6.1,6.1,0,0,1-2.18,5.06,10,10,0,0,1-6.33,1.74,8.57,8.57,0,0,1-6-2.12,7,7,0,0,1-2.34-5.44,8,8,0,0,1,4.11-7.07q4.11-2.56,11.27-2.57,6.92,0,10.9,2.84a9,9,0,0,1,4,7.74,7.67,7.67,0,0,1-2.49,5.91,13.12,13.12,0,0,1-7.15,3c3.58.2,6.34,1.16,8.28,2.9a9.12,9.12,0,0,1,2.89,7.15,9.81,9.81,0,0,1-2,6.15,13,13,0,0,1-5.94,4.14,25.73,25.73,0,0,1-9.16,1.48q-7.15,0-11.33-2.78a8.66,8.66,0,0,1-4.17-7.57,7,7,0,0,1,2.58-5.65,10.21,10.21,0,0,1,6.77-2.15,8.62,8.62,0,0,1,6,2.1,7.13,7.13,0,0,1,2.3,5.52,5.48,5.48,0,0,1-1.62,4.23,6.3,6.3,0,0,1-4.47,1.51h-.35a1.07,1.07,0,0,0-.36.77.79.79,0,0,0,.51.68,2.94,2.94,0,0,0,1.39.26,6.36,6.36,0,0,0,4.93-2.12A7.91,7.91,0,0,0,285.91,372Z"/><path class="cls-8" d="M317.78,375.73v-.65c3.22-.64,3-1.37,2.18-2.94-.45-.84-1.37-2.65-4.31-7.85-2.1,3.22-3.26,5.16-4.71,7.73-1.13,2-.49,2.38,2.78,3.06v.65H304v-.65c2.26-.48,3.46-1,4.75-2.61,2.42-3.19,4.07-5.92,6.28-9.23-1.93-3.46-3.34-6.16-5.47-9.7-1.49-2.5-1.94-2.78-4.47-3.34v-.65h11.51v.65c-2.57.48-2.61,1.12-1.93,2.41.85,1.65,2,3.71,3.63,6.73,1.49-2.22,2.61-4.15,3.74-6.2,1-1.77.72-2.3-2.62-2.94v-.65h9.38v.65c-3.1.72-3.86,1.12-5.35,3.34-1.73,2.54-2.78,4.31-4.47,6.8,2.5,4.27,4.07,7.25,6.28,10.88,1.69,2.78,2.34,3.38,5.16,3.86v.65Z"/><g class="cls-30"><path class="cls-2" d="M206.07,107.08a47.56,47.56,0,0,1-10.22-1.2c-7.62-1.69-13.45-4.6-17.34-8.65a18.19,18.19,0,0,1-3.38-4.82,17,17,0,0,1-2.56-4.34,15.68,15.68,0,0,1-4.09-14.71,13.25,13.25,0,0,1,7-9.3,16.08,16.08,0,0,1,6.44-1.76,3.59,3.59,0,0,1-.19-2.21l.34-1.51a3.79,3.79,0,0,1,.23-.72,14.32,14.32,0,0,1-1.74-3.39,15.42,15.42,0,0,1-1.67-2,13.25,13.25,0,0,1-2.09-10.92c1.19-5.38,4.59-9.1,10.12-11.06a26.79,26.79,0,0,1,9-1.42,47.84,47.84,0,0,1,10.13,1.21c7.42,1.64,13,4.55,16.76,8.66a17.33,17.33,0,0,1,3.31,5.25l.11.11a18.22,18.22,0,0,1,2.91,4.32A16.2,16.2,0,0,1,232.49,63a14.29,14.29,0,0,1-6.87,9.67,16.33,16.33,0,0,1-2.49,1.19c.27.32.52.64.76,1a16.29,16.29,0,0,1,1.45,2.5c.29.34.54.66.77,1,2.74,3.84,3.54,8.45,2.38,13.71a17.66,17.66,0,0,1-5.94,9.93,22.69,22.69,0,0,1-11.55,4.8,34.18,34.18,0,0,1-4.93.34Z"/><path class="cls-29" d="M196,31.6a44.22,44.22,0,0,1,9.59,1.16q10.4,2.3,15.44,7.88a14.8,14.8,0,0,1,3,5c.13.14.27.26.4.4A15.18,15.18,0,0,1,227,50a13.76,13.76,0,0,1,3,12.45,11.87,11.87,0,0,1-5.69,8.06,15.69,15.69,0,0,1-5.05,1.82,12.77,12.77,0,0,1,.86,2,13.91,13.91,0,0,1,1.69,1.93,12.92,12.92,0,0,1,1.35,2.4q.47.52.87,1.08,3.48,4.88,2,11.71a15,15,0,0,1-5.11,8.55,20.09,20.09,0,0,1-10.29,4.24,30.87,30.87,0,0,1-4.58.32,45.16,45.16,0,0,1-9.68-1.14q-10.74-2.39-16.08-7.94a15.56,15.56,0,0,1-3-4.42,14.39,14.39,0,0,1-2.54-4.38l-.06,0a13.31,13.31,0,0,1-3.75-12.75,10.83,10.83,0,0,1,5.74-7.63,13.83,13.83,0,0,1,6.47-1.5,20.61,20.61,0,0,1,4.41.51l.23.06.18-.85a.88.88,0,0,1,.9-.79,1.89,1.89,0,0,1,.39,0l2.39.53,1.24.24a14,14,0,0,1-3-1.49c-.8-.25-1.61-.48-2.49-.68l-2.3-.51c-.71-.16-1-.56-.85-1.21l.33-1.51a.85.85,0,0,1,.9-.77,1.18,1.18,0,0,1,.26,0c-.12-.25-.23-.49-.33-.74a11.39,11.39,0,0,1-1-1.2,10.83,10.83,0,0,1-1.61-3.34,11.73,11.73,0,0,1-1.81-2,10.76,10.76,0,0,1-1.7-8.94q1.49-6.75,8.52-9.24A24.12,24.12,0,0,1,196,31.6m.27,5.55a29.45,29.45,0,0,1,3.17-.17q1.4,0,2.88.12a11,11,0,0,0-2.86-1,6.73,6.73,0,0,0-1.44-.18,3.2,3.2,0,0,0-.72.07,1.14,1.14,0,0,0-1,.9,1,1,0,0,0,0,.3m11.19,11.38a13.75,13.75,0,0,0,.12-2.77,11.78,11.78,0,0,0-2.47-.85c-.21,0-.4-.08-.59-.11,0,.14.05.28.07.42a7.93,7.93,0,0,1,2.21,2.1,7.1,7.1,0,0,1,.66,1.21m-6.62,29.8a14.54,14.54,0,0,0,0-3.9,18.41,18.41,0,0,0-3.77-2,9.1,9.1,0,0,1,.46,1.33,12,12,0,0,1,1.85,2,10.61,10.61,0,0,1,1.22,2.27l.24.25M196,26.6a29.42,29.42,0,0,0-9.85,1.56c-6.3,2.24-10.36,6.7-11.73,12.88A15.92,15.92,0,0,0,176.87,54a17,17,0,0,0,1.55,1.88,17.44,17.44,0,0,0,1.18,2.42l-.29,1.3c0,.2-.07.39-.1.59a18.22,18.22,0,0,0-4.86,1.7,15.84,15.84,0,0,0-8.31,11,18.23,18.23,0,0,0,4.38,16.6A19.37,19.37,0,0,0,173,93.74,20.7,20.7,0,0,0,176.71,99c4.23,4.41,10.49,7.56,18.6,9.35a50,50,0,0,0,10.76,1.26,36.31,36.31,0,0,0,5.29-.37,25.13,25.13,0,0,0,12.8-5.36,20.05,20.05,0,0,0,6.77-11.3c1.33-6,.39-11.26-2.79-15.7-.21-.29-.43-.59-.67-.88s-.39-.77-.61-1.14h0a16.94,16.94,0,0,0,8-11.29,18.78,18.78,0,0,0-3.64-16.22,20.42,20.42,0,0,0-3-4.45,20.15,20.15,0,0,0-3.61-5.57c-4.06-4.49-10.14-7.66-18.06-9.42A50.47,50.47,0,0,0,196,26.6Z"/></g><g class="cls-30"><path class="cls-2" d="M271.71,111.59a2.48,2.48,0,0,1-.54-.06l-18.93-4.19a2.5,2.5,0,0,1-1.9-3l.09-.41-.41-.09a2.34,2.34,0,0,1-.78-.32l-.12.55a2.49,2.49,0,0,1-3,1.9l-14.64-3.24a2.49,2.49,0,0,1-1.9-3l.09-.41-.41-.09a2.5,2.5,0,0,1-1.9-3l.21-1a2.53,2.53,0,0,1,.43-.94l-2.16-.48a2.5,2.5,0,0,1-1.57-1.1,2.44,2.44,0,0,1-.33-1.88l.21-1a2.5,2.5,0,0,1,2.44-2H227c3.15,0,4.34-.35,6.08-1.78,3.22-2.73,5.87-5.32,8.67-8.06l2.58-2.52c-.33-1.11-.64-2.18-.95-3.23-.77-2.64-1.51-5.15-2.37-7.87a2.49,2.49,0,0,1-1.24-2.73l.05-.25-.89-.43a2.5,2.5,0,0,1-1.38-2.81l.21-1a3.37,3.37,0,0,1,.1-.34,14.15,14.15,0,0,0-2.35-1.26,2.5,2.5,0,0,1-1.39-2.81l.22-1a2.49,2.49,0,0,1,2.43-2,2.64,2.64,0,0,1,.55.06l17.29,3.82a2.53,2.53,0,0,1,1.57,1.1,2.73,2.73,0,0,1,.28.6,2.07,2.07,0,0,1,.5-.43,2.49,2.49,0,0,1,1.88-.33L272.88,58a2.49,2.49,0,0,1,1.9,3l-.21,1a2.65,2.65,0,0,1-.43,1l2.17.48a2.51,2.51,0,0,1,1.9,3l-.09.41.41.09a2.5,2.5,0,0,1,1.57,1.1,2.53,2.53,0,0,1,.33,1.88l-.22,1a2.5,2.5,0,0,1-2.41,2c-4.43,0-5.06.27-7.45,2.55-1.78,1.67-3.23,3.11-4.64,4.5-1,1-2,2-3.2,3.15.76,2.4,1.42,4.56,2.05,6.62.76,2.47,1.48,4.81,2.27,7.25l.39.16a2.51,2.51,0,0,1,1.5,2.86l-.22,1a2.13,2.13,0,0,1-.13.43,14.32,14.32,0,0,0,2.28,1.11,2.5,2.5,0,0,1,1.49,2.86l-.06.29.79.34a2.48,2.48,0,0,1,1.49,2.85l-.21,1a2.5,2.5,0,0,1-1.1,1.57A2.46,2.46,0,0,1,271.71,111.59Zm-23.79-11.28a2.64,2.64,0,0,1,.29.15l.12-.55a2.53,2.53,0,0,1,.43-.94l-1.64-.36a2.39,2.39,0,0,1,0,1l-.06.27Z"/><path class="cls-29" d="M236.73,52.52,254,56.34l-.21,1h-.69c-3.25,0-3.56.9-3.08,2.78l7.4,1.63-.21,1h-.68c-2.09,0-3,.37-3.19,1.13l6.18,1.37L261,63.53a10.49,10.49,0,0,0,.68-.84v0h0c1.2-1.71.5-2.61-3.65-4.4l.21-1,14.09,3.12-.21,1c-4,0-5.58.28-7.64,1.9l11.28,2.5-.22,1c-2.68,0-4.28.16-5.67.73L278,69.25l-.22,1c-4.89.06-6.18.41-9.15,3.24-3.44,3.23-5.6,5.55-9,8.73,2.07,6.45,3.39,11.12,5.15,16.42.44.22.93.43,1.48.66l-.22,1-.77-.18c.06.19.11.36.18.55.27.8.52,1.5.77,2.12a12.49,12.49,0,0,0,3.46,1.91l-.21,1-2-.44c.93,1.28,2.17,2,4.41,3l-.21,1-18.93-4.19.22-1h.58c2.36,0,3.44-.33,3.84-1l-6.86-1.52.22-1h.58c3.76,0,4.29-.83,3.93-2.61l-8.15-1.8.21-1h.59c4.46,0,4.37-1.17,3.65-3.7-.12-.46-.29-1.1-.55-2-2.86,2.86-4.89,5-7.3,7.73a7.81,7.81,0,0,0-.91,1.16c.53.27,1.14.55,1.84.87l-.21,1-1.94-.43c.27.94,1.68,1.73,4.37,2.94l-.21,1L232,100.31l.22-1h.32a12.92,12.92,0,0,0,5.14-.77l-7.9-1.75.22-1h.31c3.1,0,5-.33,7.15-1.94l-11.1-2.46.21-1H227c3.34,0,5.26-.36,7.67-2.35,4.68-4,8.07-7.54,12.49-11.76-1.47-4.91-2.57-8.9-4.09-13.63l-.86-.41.21-1,.22.05c-.16-.47-.31-.94-.47-1.43v0c-.58-.35-1.28-.7-2.17-1.12l.21-1,1.32.29c-1-2.65-1.93-3.28-5-4.7l.22-1m21,23.53c2.52-2.46,4.63-4.74,6.74-7.15a9,9,0,0,0,.83-1.08c-.45-.23-1-.46-1.56-.72l.21-1,1.72.39c-.12-.69-.87-1.32-2.44-2.11l-.2.19c-2.61,2.45-4.48,4.37-6.7,6.54.39,1.42.85,3,1.4,4.91m-1.92-6.86c1-1,2-2,2.88-3-3.25,0-3.45,1-2.89,3v0M259,80.45c3-2.83,5.3-5.36,7.68-8.06,1.25-1.44,1.65-2.32.69-3.26-.3.25-.6.53-.93.84-3.16,3-5.25,5.17-8.17,8l.73,2.51M239,92.66c3.72-3.23,6.69-6.25,10.19-9.63-.42-1.39-.9-3-1.48-4.86-4.21,4.14-6.61,6.65-9.64,10-1.91,2.11-1.72,3,.93,4.45m2,2-.34-.08c-.54.83-.59,1.47-.09,2.08,3.69-3.15,6.6-6.07,9.89-9.28-.2-.71-.44-1.54-.73-2.51-3.38,3.36-5.57,5.68-8.25,8.67l-.31.37-.17.75m-4.3-47.18a5,5,0,0,0-4.89,3.92l-.21,1A5,5,0,0,0,234.4,58l.57.27A5,5,0,0,0,237.21,63a5,5,0,0,0,1.61,3c.75,2.39,1.41,4.65,2.11,7,.17.59.35,1.19.53,1.8L240,76.36c-2.76,2.7-5.37,5.25-8.54,8-1.15.94-1.76,1.18-4.46,1.18h-.34a5,5,0,0,0-4.88,3.92l-.21,1a5,5,0,0,0,3.34,5.84,5,5,0,0,0,2.23,4.8A5,5,0,0,0,231,105.2l14.64,3.23a5,5,0,0,0,1.08.12,5,5,0,0,0,2.21-.51,5,5,0,0,0,2.81,1.75L270.63,114a5,5,0,0,0,6-3.8l.22-1a5,5,0,0,0-2.16-5.27,5,5,0,0,0-3.06-3.92l-.35-.14A5,5,0,0,0,268.88,95c-.66-2.06-1.28-4.08-1.93-6.19-.51-1.66-1-3.35-1.6-5.17l2.12-2.09c1.46-1.45,2.84-2.82,4.58-4.45,1.93-1.83,1.93-1.83,5.78-1.88a5,5,0,0,0,4.83-3.92l.21-1a5,5,0,0,0-2.15-5.27A5,5,0,0,0,277.3,61a5,5,0,0,0-3.88-5.49L259.33,52.4a5,5,0,0,0-2.22,0,5,5,0,0,0-2-.95l-17.29-3.83a5.65,5.65,0,0,0-1.08-.11Z"/></g><path class="cls-31" d="M206.16,88.74q1.44-6.48-2.09-11.17T193,71.21l-2.31-.51c-.71-.16-1-.56-.85-1.22l.34-1.51c.14-.65.57-.89,1.28-.74l2.39.53q7.64,1.69,12.64-.69a11.47,11.47,0,0,0,6.33-8.43,12.11,12.11,0,0,0-1-8.89,9.79,9.79,0,0,0-6.71-4.84,5.18,5.18,0,0,0-2.17-.11,1.19,1.19,0,0,0-1,.9,1.63,1.63,0,0,0,.28,1.27l.53.12A9.8,9.8,0,0,1,209,50.8a8.49,8.49,0,0,1,1,6.93c-.73,3.31-2.39,5.6-5,6.86s-5.94,1.44-10.08.52a13.18,13.18,0,0,1-8.31-5.19,10.86,10.86,0,0,1-1.7-9c1-4.49,3.84-7.58,8.52-9.24S204,40,211.19,41.61q10.4,2.3,15.44,7.89a13.82,13.82,0,0,1,3.42,13,11.87,11.87,0,0,1-5.69,8.06q-4.5,2.64-11.75,2.15,8,2.24,11.47,7.1t2,11.71a15,15,0,0,1-5.11,8.55,20.09,20.09,0,0,1-10.29,4.24,39.77,39.77,0,0,1-14.26-.82q-10.74-2.39-16.08-7.94a13.3,13.3,0,0,1-3.74-12.75,10.76,10.76,0,0,1,5.74-7.62q4.58-2.38,10.88-1a13.24,13.24,0,0,1,8.36,5.15,11,11,0,0,1,1.62,9.07,8.43,8.43,0,0,1-3.84,5.81,9.71,9.71,0,0,1-7.21.78l-.53-.12a1.66,1.66,0,0,0-.79,1,1.22,1.22,0,0,0,.53,1.19,4.73,4.73,0,0,0,2,.86,9.74,9.74,0,0,0,8.12-1.56A12.1,12.1,0,0,0,206.16,88.74Z"/><path class="cls-31" d="M271.71,110.09l-.22,0-18.92-4.19a1,1,0,0,1-.76-1.19l.21-1a1,1,0,0,1,1-.78h.59c2.4,0,2.87-.37,3-.49.21-.27-.11-1.39-.26-1.93l-.1-.36c-.38-1.43-1.16-4.31-3.28-11.27-3.35,3.32-5.59,5.68-8.42,8.84-1,1.09-1,1.49-1,1.61.14.66,2.63,1.79,3.83,2.33a1,1,0,0,1,.57,1.13l-.22,1a1,1,0,0,1-1,.78l-.22,0-14.63-3.24a1,1,0,0,1-.76-1.19l.21-1a1,1,0,0,1,1-.78h.33c3.15,0,4.82-.3,7-2.13,3.28-2.78,6-5.39,8.77-8.15,1-1,2.1-2.06,3.23-3.13-.44-1.45-.84-2.82-1.23-4.16-1.1-3.76-2.14-7.32-3.59-11.62-1.35-4.06-1.76-4.37-5.07-5.92a1,1,0,0,1-.56-1.12l.22-1a1,1,0,0,1,1-.79l.22,0,17.29,3.83a1,1,0,0,1,.76,1.19l-.21,1a1,1,0,0,1-1,.79h-.68c-1.84,0-2.17.31-2.22.37s-.13.33.16,1.36c.64,2.47,1.53,5.53,2.74,9.7,2.65-2.6,4.73-4.9,6.44-6.85.87-1,1-1.4,1-1.56-.07-.31-.74-.93-3.57-2.15a1,1,0,0,1-.58-1.13l.21-1a1,1,0,0,1,1-.79l.22,0,14.08,3.12a1,1,0,0,1,.63.43,1,1,0,0,1,.13.76l-.21,1a1,1,0,0,1-1,.78c-4.83.06-5.78.39-8.48,3-1.78,1.68-3.24,3.13-4.66,4.53-1.19,1.19-2.43,2.41-3.86,3.77.88,2.76,1.63,5.19,2.34,7.5,1.05,3.44,2.05,6.7,3.28,10.3,1.52,4.45,2.1,5.37,5.89,6.92a1,1,0,0,1,.6,1.14l-.21,1a1,1,0,0,1-.44.62A1,1,0,0,1,271.71,110.09Z"/><path class="cls-31" d="M242.37,61.37l17.3,3.83-.22,1-.68,0c-3.38,0-3.59,1-3,3,.72,2.76,1.73,6.22,3.21,11.3,3-2.83,5.3-5.36,7.68-8.06,2-2.34,1.85-3.21-2.95-5.29l.21-1L278,69.25l-.22,1c-4.89.06-6.18.41-9.15,3.24-3.44,3.23-5.6,5.55-9,8.73,2.33,7.24,3.7,12.24,5.82,18.42,1.61,4.73,2.38,5.85,6.45,7.51l-.21,1-18.93-4.19.22-1h.59c4.45,0,4.37-1.16,3.65-3.7-.38-1.41-1.17-4.44-3.86-13.22-4.22,4.14-6.61,6.66-9.64,10-2.35,2.58-1.52,3.4,3.15,5.51l-.21,1L232,100.31l.22-1h.33c3.34,0,5.27-.37,7.67-2.36,4.69-4,8.08-7.53,12.5-11.75-1.75-5.85-3-10.37-5-16.4-1.41-4.24-2-4.81-5.6-6.5l.21-1m0-2a2,2,0,0,0-1.07.31,2,2,0,0,0-.88,1.26l-.21,1a2,2,0,0,0,1.1,2.24c3.05,1.42,3.3,1.54,4.55,5.32,1.44,4.29,2.48,7.83,3.58,11.59.34,1.16.69,2.34,1.05,3.58-1,.93-1.89,1.83-2.79,2.72-2.81,2.75-5.47,5.34-8.73,8.11-1.93,1.59-3.35,1.88-6.38,1.88h-.33a2,2,0,0,0-2,1.56l-.21,1a2,2,0,0,0,1.52,2.39l14.63,3.23a1.65,1.65,0,0,0,.44,0,2,2,0,0,0,1.07-.31,2,2,0,0,0,.88-1.26l.21-1a2,2,0,0,0-1.12-2.26,21.16,21.16,0,0,1-3.11-1.61,7.37,7.37,0,0,1,.61-.74c2.48-2.77,4.5-4.92,7.21-7.63,1.75,5.8,2.43,8.33,2.79,9.65l.09.34c.13.44.21.79.26,1a10,10,0,0,1-2,.14H253a2,2,0,0,0-1.95,1.56l-.22,1a2,2,0,0,0,1.52,2.39L271.28,111a1.58,1.58,0,0,0,.43,0,2,2,0,0,0,1.07-.31,2,2,0,0,0,.88-1.26l.22-1a2,2,0,0,0-1.2-2.29c-3.37-1.37-3.81-1.9-5.32-6.31-1.23-3.59-2.23-6.83-3.28-10.27-.66-2.17-1.34-4.4-2.15-6.91,1.26-1.2,2.36-2.3,3.43-3.36,1.41-1.4,2.87-2.85,4.63-4.5,2.51-2.4,3.24-2.65,7.81-2.7a2,2,0,0,0,1.93-1.57l.21-1a2,2,0,0,0-1.52-2.38l-14.09-3.12a2.1,2.1,0,0,0-.43-.05A2,2,0,0,0,262,65.7l-.22,1a2,2,0,0,0,1.16,2.27,17.23,17.23,0,0,1,2.81,1.42,8.23,8.23,0,0,1-.57.71c-1.43,1.63-3.12,3.52-5.19,5.61-1-3.35-1.71-5.93-2.26-8-.05-.18-.08-.32-.11-.43a9.82,9.82,0,0,1,1.2-.07h.68a2,2,0,0,0,2-1.57l.21-1a2,2,0,0,0-1.52-2.39l-17.3-3.82a2,2,0,0,0-.43-.05Z"/><path class="cls-8" d="M203.94,85.26q1.44-6.48-2.09-11.18t-11.07-6.36l-2.31-.51c-.71-.16-1-.56-.85-1.21l.33-1.51c.15-.65.58-.9,1.29-.74l2.39.53q7.63,1.69,12.64-.7a11.47,11.47,0,0,0,6.33-8.42,12.14,12.14,0,0,0-1.06-8.9,9.75,9.75,0,0,0-6.7-4.84,5.15,5.15,0,0,0-2.17-.1,1.16,1.16,0,0,0-1,.9,1.64,1.64,0,0,0,.28,1.27l.53.12a9.8,9.8,0,0,1,6.26,3.71,8.46,8.46,0,0,1,1,6.92c-.73,3.32-2.39,5.61-5,6.87s-5.94,1.43-10.08.51a13.15,13.15,0,0,1-8.31-5.19,10.8,10.8,0,0,1-1.7-8.94q1.5-6.75,8.52-9.25T209,38.12q10.38,2.31,15.44,7.89a13.9,13.9,0,0,1,3.42,13,11.86,11.86,0,0,1-5.7,8q-4.49,2.64-11.74,2.15,8,2.23,11.47,7.11t2,11.7a15.12,15.12,0,0,1-5.11,8.56,20.18,20.18,0,0,1-10.3,4.24,39.75,39.75,0,0,1-14.25-.83Q183.43,97.58,178.09,92a13.29,13.29,0,0,1-3.74-12.75,10.79,10.79,0,0,1,5.73-7.63c3.06-1.59,6.68-1.92,10.89-1a13.3,13.3,0,0,1,8.36,5.16A11,11,0,0,1,201,84.88a8.41,8.41,0,0,1-3.84,5.8,9.72,9.72,0,0,1-7.21.78l-.53-.11a1.61,1.61,0,0,0-.79,1,1.2,1.2,0,0,0,.53,1.19,4.49,4.49,0,0,0,2,.86,9.78,9.78,0,0,0,8.12-1.55A12.16,12.16,0,0,0,203.94,85.26Z"/><path class="cls-8" d="M269.49,106.61a.83.83,0,0,1-.22,0l-18.92-4.18a1,1,0,0,1-.76-1.2l.21-1a1,1,0,0,1,1-.79h.59c2.4,0,2.87-.38,2.95-.49.21-.27-.11-1.4-.26-1.94l-.1-.35c-.38-1.43-1.16-4.3-3.28-11.27-3.35,3.32-5.59,5.68-8.42,8.84-1,1.09-1,1.49-1,1.61.14.66,2.63,1.79,3.83,2.33a1,1,0,0,1,.57,1.13l-.22,1a1,1,0,0,1-.44.63,1,1,0,0,1-.53.16.78.78,0,0,1-.22,0l-14.63-3.23a1,1,0,0,1-.77-1.2l.22-1a1,1,0,0,1,1-.79h.33c3.15,0,4.82-.29,7-2.12,3.28-2.78,5.95-5.39,8.77-8.15l3.23-3.14c-.43-1.45-.83-2.82-1.22-4.16-1.11-3.77-2.15-7.32-3.59-11.61-1.35-4.07-1.76-4.37-5.08-5.92a1,1,0,0,1-.55-1.12l.21-1a1,1,0,0,1,1-.78.86.86,0,0,1,.22,0l17.29,3.83a1,1,0,0,1,.63.44,1,1,0,0,1,.13.75l-.21,1a1,1,0,0,1-1,.78h-.69c-1.83,0-2.16.31-2.21.37s-.13.32.16,1.36c.64,2.46,1.53,5.53,2.74,9.7,2.65-2.6,4.72-4.91,6.43-6.86.88-1,1-1.4,1-1.56s-.74-.92-3.57-2.14a1,1,0,0,1-.58-1.14l.21-1a1,1,0,0,1,.44-.62,1,1,0,0,1,.54-.16l.21,0L276,64.79a1,1,0,0,1,.76,1.19l-.21,1a1,1,0,0,1-1,.78c-4.82.06-5.77.39-8.47,3-1.78,1.67-3.24,3.12-4.65,4.52-1.2,1.19-2.44,2.41-3.87,3.78.88,2.76,1.63,5.19,2.34,7.51,1,3.44,2,6.69,3.28,10.29,1.52,4.45,2.1,5.36,5.89,6.91a1,1,0,0,1,.6,1.14l-.22,1a1,1,0,0,1-.44.63A1,1,0,0,1,269.49,106.61Z"/><path class="cls-8" d="M240.15,57.89l17.29,3.82-.21,1h-.69c-3.37,0-3.58,1-3,3,.72,2.76,1.73,6.22,3.2,11.3,3-2.83,5.31-5.36,7.69-8.07,2-2.34,1.85-3.21-3-5.28l.22-1,14.09,3.12-.22,1c-4.89.06-6.18.41-9.15,3.24-3.44,3.24-5.6,5.55-9,8.74,2.33,7.24,3.69,12.23,5.82,18.41,1.61,4.74,2.38,5.86,6.45,7.52l-.21,1-18.93-4.19.22-1h.59c4.45,0,4.36-1.17,3.65-3.7-.39-1.42-1.18-4.45-3.86-13.22-4.22,4.14-6.61,6.65-9.65,10-2.35,2.59-1.51,3.41,3.16,5.52l-.21,1-14.64-3.24.22-1h.33c3.34,0,5.27-.36,7.67-2.35,4.69-4,8.07-7.54,12.5-11.76-1.76-5.84-3-10.36-5-16.39-1.41-4.25-2-4.82-5.6-6.51l.21-1m0-2a2,2,0,0,0-2,1.56l-.22,1a2,2,0,0,0,1.11,2.25c3,1.42,3.29,1.53,4.55,5.32,1.44,4.28,2.48,7.83,3.58,11.59.34,1.16.68,2.34,1.05,3.57-1,.93-1.89,1.84-2.79,2.72-2.81,2.75-5.47,5.35-8.73,8.12-1.93,1.59-3.35,1.87-6.38,1.87H230a2,2,0,0,0-1.95,1.57l-.21,1a2,2,0,0,0,.26,1.5,2,2,0,0,0,1.26.88L244,102a2.2,2.2,0,0,0,.44,0,2,2,0,0,0,1.95-1.57l.21-1a2,2,0,0,0-1.13-2.25,20.34,20.34,0,0,1-3.1-1.61,6.23,6.23,0,0,1,.6-.74c2.48-2.77,4.51-4.92,7.22-7.64,1.75,5.81,2.43,8.34,2.78,9.65l.1.34c.12.45.21.79.26,1a10.94,10.94,0,0,1-2,.14h-.59a2,2,0,0,0-2,1.57l-.21,1a2,2,0,0,0,1.52,2.38l18.93,4.19a2,2,0,0,0,.43,0,2,2,0,0,0,1.95-1.57l.21-1a2,2,0,0,0-1.19-2.28c-3.37-1.38-3.82-1.91-5.32-6.32-1.23-3.59-2.23-6.83-3.28-10.26-.66-2.17-1.35-4.41-2.15-6.92,1.25-1.2,2.36-2.29,3.43-3.36,1.41-1.4,2.86-2.84,4.63-4.5,2.51-2.39,3.24-2.64,7.81-2.7a2,2,0,0,0,1.92-1.56l.22-1a2,2,0,0,0-1.52-2.39L262.11,60.7a2,2,0,0,0-1.51.26,2,2,0,0,0-.88,1.26l-.21,1a2,2,0,0,0,1.16,2.26,16.91,16.91,0,0,1,2.81,1.43,8.23,8.23,0,0,1-.57.71c-1.43,1.63-3.12,3.51-5.19,5.61-1-3.36-1.71-5.93-2.26-8-.05-.17-.08-.31-.11-.42a7.86,7.86,0,0,1,1.19-.07h.69a2,2,0,0,0,1.95-1.57l.22-1a2,2,0,0,0-1.52-2.39l-17.3-3.83a2.09,2.09,0,0,0-.43,0Z"/><path class="cls-2" d="M200.52,79.89q1.42-6.48-2.09-11.18t-11.08-6.36l-2.3-.51c-.71-.16-1-.56-.85-1.21l.33-1.51c.14-.65.57-.9,1.28-.74l2.4.53q7.64,1.7,12.63-.7a11.46,11.46,0,0,0,6.34-8.42,12.19,12.19,0,0,0-1.06-8.9,9.75,9.75,0,0,0-6.71-4.83,5,5,0,0,0-2.16-.11,1.14,1.14,0,0,0-1,.9,1.63,1.63,0,0,0,.27,1.27l.54.12A9.78,9.78,0,0,1,203.32,42a8.5,8.5,0,0,1,1,6.92c-.74,3.32-2.39,5.61-5,6.87s-5.94,1.43-10.08.51a13.13,13.13,0,0,1-8.3-5.19,10.76,10.76,0,0,1-1.7-8.94q1.49-6.75,8.52-9.24t17.76-.12q10.4,2.3,15.44,7.88a13.85,13.85,0,0,1,3.42,13,11.84,11.84,0,0,1-5.69,8q-4.5,2.64-11.75,2.15,8,2.24,11.47,7.11t2,11.7a15.08,15.08,0,0,1-5.1,8.56A20.21,20.21,0,0,1,205,95.41a39.74,39.74,0,0,1-14.25-.83Q180,92.21,174.67,86.65a13.31,13.31,0,0,1-3.75-12.75,10.83,10.83,0,0,1,5.74-7.63q4.58-2.38,10.88-1a13.27,13.27,0,0,1,8.36,5.16,10.93,10.93,0,0,1,1.63,9.07,8.4,8.4,0,0,1-3.85,5.8,9.73,9.73,0,0,1-7.2.79L186,86a1.61,1.61,0,0,0-.79,1,1.18,1.18,0,0,0,.53,1.19,4.5,4.5,0,0,0,2,.86,9.77,9.77,0,0,0,8.12-1.55A12.17,12.17,0,0,0,200.52,79.89Z"/><path class="cls-2" d="M266.06,101.24a.76.76,0,0,1-.21,0L246.92,97a1,1,0,0,1-.76-1.2l.22-1a1,1,0,0,1,1-.79h.59c2.4,0,2.87-.38,3-.49.2-.27-.12-1.4-.27-1.94l-.09-.35c-.39-1.43-1.16-4.3-3.28-11.27-3.35,3.32-5.59,5.67-8.43,8.84-1,1.09-1,1.49-1,1.61.13.66,2.63,1.79,3.83,2.33a1,1,0,0,1,.56,1.13l-.21,1a1,1,0,0,1-1,.79.76.76,0,0,1-.21,0l-14.64-3.23a1.05,1.05,0,0,1-.63-.44,1,1,0,0,1-.13-.76l.22-1a1,1,0,0,1,1-.79H227c3.14,0,4.81-.29,7-2.12,3.28-2.78,5.94-5.39,8.77-8.15,1-1,2.1-2.06,3.23-3.14-.43-1.45-.84-2.82-1.23-4.16-1.1-3.77-2.14-7.32-3.58-11.61-1.35-4.07-1.76-4.37-5.08-5.92a1,1,0,0,1-.55-1.12l.21-1a1,1,0,0,1,1-.78.75.75,0,0,1,.21,0l17.3,3.83a.93.93,0,0,1,.62.44,1,1,0,0,1,.14.75l-.22,1a1,1,0,0,1-1,.78h-.69c-1.84,0-2.17.31-2.21.37s-.13.32.15,1.36c.65,2.46,1.54,5.53,2.75,9.7,2.64-2.6,4.72-4.91,6.43-6.86.87-1,1-1.4,1-1.56s-.75-.92-3.58-2.14a1,1,0,0,1-.58-1.14l.22-1a1,1,0,0,1,.44-.62.92.92,0,0,1,.53-.16l.22,0,14.09,3.12a1,1,0,0,1,.76,1.19l-.22,1a1,1,0,0,1-1,.79c-4.82.05-5.77.39-8.47,3-1.78,1.67-3.24,3.12-4.65,4.52-1.2,1.19-2.44,2.41-3.87,3.78.88,2.76,1.62,5.19,2.33,7.5,1.06,3.44,2,6.69,3.29,10.3,1.52,4.45,2.09,5.37,5.89,6.91a1,1,0,0,1,.59,1.15l-.21,1a1,1,0,0,1-1,.79Z"/><path class="cls-2" d="M236.73,52.52,254,56.34l-.21,1h-.69c-3.37,0-3.58,1-3,3,.72,2.76,1.73,6.22,3.21,11.3,3-2.83,5.31-5.36,7.68-8.07,2-2.34,1.85-3.2-2.95-5.28l.21-1,14.09,3.12-.21,1c-4.9.05-6.18.4-9.15,3.23-3.45,3.24-5.61,5.55-9,8.74,2.33,7.24,3.7,12.23,5.82,18.41,1.62,4.74,2.39,5.86,6.46,7.52l-.22,1-18.92-4.19.21-1h.59c4.46,0,4.37-1.17,3.65-3.7-.38-1.42-1.17-4.45-3.86-13.22-4.21,4.14-6.61,6.65-9.64,10-2.35,2.59-1.52,3.41,3.16,5.52l-.22,1L226.4,91.46l.21-1H227c3.34,0,5.26-.36,7.67-2.35,4.68-4,8.07-7.54,12.49-11.76-1.75-5.84-3-10.36-5-16.39-1.41-4.25-2-4.82-5.61-6.51l.22-1m0-2a2,2,0,0,0-1.08.31,2,2,0,0,0-.88,1.25l-.21,1a2,2,0,0,0,1.11,2.25c3,1.42,3.29,1.53,4.55,5.32,1.44,4.28,2.48,7.83,3.58,11.59.33,1.16.68,2.34,1,3.57l-2.8,2.72c-2.81,2.75-5.46,5.35-8.73,8.12-1.93,1.59-3.35,1.87-6.37,1.87h-.34a2,2,0,0,0-2,1.57l-.22,1A2,2,0,0,0,226,93.41l14.63,3.24a2.1,2.1,0,0,0,.43,0,2,2,0,0,0,1.08-.32,2,2,0,0,0,.87-1.25l.22-1a2,2,0,0,0-1.13-2.25A20.34,20.34,0,0,1,239,90.3a5.34,5.34,0,0,1,.6-.74c2.48-2.77,4.5-4.92,7.21-7.64,1.76,5.81,2.44,8.34,2.79,9.65l.09.34a9.65,9.65,0,0,1,.26,1,10.84,10.84,0,0,1-2,.14h-.59a2,2,0,0,0-1.95,1.57l-.21,1A2,2,0,0,0,246.71,98l18.92,4.19a2.1,2.1,0,0,0,.43,0,2,2,0,0,0,2-1.57l.21-1a2,2,0,0,0-1.2-2.28c-3.36-1.38-3.81-1.91-5.32-6.31-1.23-3.6-2.22-6.84-3.27-10.27-.67-2.17-1.35-4.4-2.15-6.92,1.25-1.2,2.35-2.29,3.43-3.36,1.4-1.4,2.86-2.84,4.63-4.5,2.51-2.39,3.24-2.64,7.8-2.7a2,2,0,0,0,1.93-1.56l.21-1a2,2,0,0,0-.26-1.51,2,2,0,0,0-1.26-.88l-14.08-3.11a1.7,1.7,0,0,0-.44,0,2,2,0,0,0-1.95,1.57l-.21,1a2,2,0,0,0,1.16,2.26,16.61,16.61,0,0,1,2.8,1.43c-.11.16-.29.39-.56.71-1.44,1.63-3.13,3.51-5.19,5.61-1-3.36-1.71-5.93-2.26-8,0-.17-.09-.31-.11-.42a7.86,7.86,0,0,1,1.19-.07h.69a2,2,0,0,0,1.95-1.57l.21-1a2,2,0,0,0-1.52-2.39l-17.29-3.83a2.09,2.09,0,0,0-.43,0Z"/><path class="cls-29" d="M273.51,261.43c-.48,0-.71-.2-.71-.59v-.71a.73.73,0,0,1,.59-.77,13.36,13.36,0,0,0,2.66-1.24,2.63,2.63,0,0,0,1-1.27,6.44,6.44,0,0,0,.27-2.1V230.92h-4.26c-.43,0-.65-.2-.65-.59V229c0-.4.22-.6.65-.6H277a18.32,18.32,0,0,0,8.82-2.06c2.56-1.38,4.11-3.1,4.67-5.15a1.35,1.35,0,0,1,.26-.62.7.7,0,0,1,.5-.15h1.31c.43,0,.65.24.65.71v33.59a5.9,5.9,0,0,0,.32,2.27,2.8,2.8,0,0,0,1.15,1.25,14.59,14.59,0,0,0,2.49,1.09.74.74,0,0,1,.59.77v.71c0,.39-.24.59-.71.59Z"/><path class="cls-29" d="M315.66,255.44v-.64c3.22-.65,3-1.37,2.18-2.94-.45-.85-1.37-2.66-4.31-7.85-2.1,3.22-3.26,5.15-4.71,7.73-1.13,2-.49,2.37,2.78,3.06v.64h-9.75v-.64c2.26-.48,3.46-1,4.75-2.62,2.42-3.18,4.07-5.92,6.28-9.22-1.93-3.46-3.34-6.16-5.47-9.71-1.49-2.49-1.94-2.77-4.47-3.34v-.64h11.51v.64c-2.57.49-2.61,1.13-1.93,2.42.85,1.65,2,3.7,3.63,6.72,1.49-2.21,2.61-4.14,3.74-6.2,1-1.77.72-2.29-2.62-2.94v-.64h9.38v.64c-3.1.73-3.86,1.13-5.35,3.34-1.73,2.54-2.78,4.31-4.47,6.81,2.5,4.27,4.07,7.25,6.28,10.87,1.69,2.78,2.34,3.39,5.16,3.87v.64Z"/><path class="cls-8" d="M271.61,259.53c-.48,0-.71-.2-.71-.59v-.71a.73.73,0,0,1,.59-.77,13.36,13.36,0,0,0,2.66-1.24,2.63,2.63,0,0,0,1-1.27,6.44,6.44,0,0,0,.27-2.1V229h-4.26c-.43,0-.65-.2-.65-.59v-1.3c0-.4.22-.6.65-.6h3.9a18.25,18.25,0,0,0,8.81-2.06c2.57-1.38,4.12-3.1,4.68-5.15a1.35,1.35,0,0,1,.26-.62.7.7,0,0,1,.5-.15h1.31c.43,0,.65.24.65.71v33.59a5.9,5.9,0,0,0,.32,2.27,2.8,2.8,0,0,0,1.15,1.25,14.59,14.59,0,0,0,2.49,1.09.74.74,0,0,1,.59.77v.71c0,.39-.24.59-.71.59Z"/><path class="cls-8" d="M313.76,253.54v-.64c3.22-.65,3-1.37,2.18-2.94-.45-.85-1.37-2.66-4.31-7.85-2.1,3.22-3.26,5.15-4.71,7.73-1.13,2-.49,2.37,2.78,3.06v.64H300v-.64c2.26-.48,3.46-1,4.75-2.62,2.42-3.18,4.07-5.92,6.28-9.22-1.93-3.46-3.34-6.16-5.47-9.71-1.49-2.49-1.94-2.77-4.47-3.34v-.64h11.51V228c-2.57.49-2.61,1.13-1.93,2.42.85,1.65,2,3.7,3.63,6.72,1.49-2.21,2.61-4.14,3.74-6.2,1-1.77.72-2.29-2.62-2.94v-.64h9.38V228c-3.1.73-3.86,1.13-5.35,3.34-1.73,2.54-2.78,4.31-4.47,6.81,2.5,4.27,4.07,7.25,6.28,10.87,1.69,2.78,2.34,3.39,5.16,3.87v.64Z"/><path class="cls-29" d="M274.84,309.79a2.45,2.45,0,0,1,.53-1.68,1.82,1.82,0,0,1,1.48-.62,3.94,3.94,0,0,1,1.56.38l2,.89a17.34,17.34,0,0,0,2.81.89,18.21,18.21,0,0,0,4,.38,16.7,16.7,0,0,0,6.54-1.3,10.85,10.85,0,0,0,4.64-3.37,2.57,2.57,0,0,1,.38-.47.37.37,0,0,1,.21-.06h1a.56.56,0,0,1,.56.38,5.23,5.23,0,0,1,.15,1.57q0,7.74-3.7,12.3a12.23,12.23,0,0,1-10,4.55,17,17,0,0,1-6.8-1.27,15.06,15.06,0,0,1-5.38-4.05.86.86,0,0,0-.8.56,11.75,11.75,0,0,0-.62,2.39,3.19,3.19,0,0,1-.3,1.07.68.68,0,0,1-.65.29h-1.48c-.47,0-.71-.31-.71-.94V310a10,10,0,0,1,.77-4.37,5,5,0,0,1,2.57-2.34,17.58,17.58,0,0,1,5.06-1.15,12.15,12.15,0,0,0,7-2.84,7.94,7.94,0,0,0,2.48-6.09,7.56,7.56,0,0,0-2.31-5.71,8.06,8.06,0,0,0-5.85-2.21c-1,0-1.48.29-1.48.88a1.13,1.13,0,0,0,.36.83h.35a7.42,7.42,0,0,1,5.12,1.66,5.63,5.63,0,0,1,1.86,4.43,6.46,6.46,0,0,1-2.4,5.2,9.35,9.35,0,0,1-6.23,2,9.75,9.75,0,0,1-6.66-2.21,7.48,7.48,0,0,1-2.51-5.89,7.75,7.75,0,0,1,1.83-5,12.24,12.24,0,0,1,5.27-3.55,22.14,22.14,0,0,1,7.92-1.3,24.65,24.65,0,0,1,9,1.51,12.92,12.92,0,0,1,5.94,4.4,11.38,11.38,0,0,1,2.1,6.86,13,13,0,0,1-1.66,6.5,12.28,12.28,0,0,1-4.73,4.73,13.63,13.63,0,0,1-7,1.78,15.2,15.2,0,0,1-3.69-.42,23,23,0,0,1-3-.94c-.88-.36-1.68-.67-2.39-1a5.43,5.43,0,0,0-1.89-.41,2.74,2.74,0,0,0-2.4,1.24,6.1,6.1,0,0,0-.86,3.49v5.79a1,1,0,0,0,.71.24,1.1,1.1,0,0,0,1.25-1.24Z"/><path class="cls-29" d="M320.13,316.64V316c3.22-.64,3-1.37,2.17-2.94-.44-.84-1.37-2.65-4.31-7.85-2.09,3.22-3.26,5.16-4.71,7.73-1.13,2-.48,2.38,2.78,3.06v.65h-9.75V316c2.26-.48,3.47-1,4.76-2.61,2.41-3.18,4.06-5.92,6.28-9.22-1.94-3.47-3.35-6.17-5.48-9.71-1.49-2.5-1.93-2.78-4.47-3.34v-.65h11.52v.65c-2.58.48-2.62,1.13-1.94,2.41.85,1.66,2,3.71,3.63,6.73,1.49-2.22,2.62-4.15,3.74-6.2,1-1.77.73-2.3-2.61-2.94v-.65h9.38v.65c-3.1.72-3.87,1.13-5.36,3.34-1.73,2.54-2.78,4.31-4.47,6.81,2.5,4.26,4.07,7.24,6.28,10.87,1.7,2.78,2.34,3.38,5.16,3.86v.65Z"/><path class="cls-8" d="M272.94,307.89a2.45,2.45,0,0,1,.53-1.68,1.82,1.82,0,0,1,1.48-.62,3.94,3.94,0,0,1,1.56.38l2,.89a17.34,17.34,0,0,0,2.81.89,18.21,18.21,0,0,0,4,.38,16.7,16.7,0,0,0,6.54-1.3,10.85,10.85,0,0,0,4.64-3.37,2.57,2.57,0,0,1,.38-.47.37.37,0,0,1,.21-.06h1a.56.56,0,0,1,.56.38,5.23,5.23,0,0,1,.15,1.57q0,7.74-3.7,12.3a12.24,12.24,0,0,1-10,4.55,17,17,0,0,1-6.8-1.27,15.06,15.06,0,0,1-5.38-4,.86.86,0,0,0-.8.56,11.56,11.56,0,0,0-.62,2.39,3.19,3.19,0,0,1-.3,1.07.68.68,0,0,1-.65.29H269c-.47,0-.71-.31-.71-.94V308.07a10,10,0,0,1,.77-4.37,5,5,0,0,1,2.57-2.34,17.58,17.58,0,0,1,5.06-1.15,12.15,12.15,0,0,0,7-2.84,7.94,7.94,0,0,0,2.48-6.09,7.56,7.56,0,0,0-2.31-5.71,8.07,8.07,0,0,0-5.85-2.22c-1,0-1.48.3-1.48.89a1.13,1.13,0,0,0,.36.83h.35a7.42,7.42,0,0,1,5.12,1.66,5.63,5.63,0,0,1,1.86,4.43,6.46,6.46,0,0,1-2.4,5.2,9.35,9.35,0,0,1-6.23,2,9.75,9.75,0,0,1-6.66-2.21,7.48,7.48,0,0,1-2.51-5.89,7.75,7.75,0,0,1,1.83-5,12.24,12.24,0,0,1,5.27-3.55,22.14,22.14,0,0,1,7.92-1.3,24.65,24.65,0,0,1,9.05,1.51,12.92,12.92,0,0,1,5.94,4.4,11.38,11.38,0,0,1,2.1,6.86,13,13,0,0,1-1.66,6.5,12.28,12.28,0,0,1-4.73,4.73,13.63,13.63,0,0,1-7,1.78,15.2,15.2,0,0,1-3.69-.42,23,23,0,0,1-3-.94c-.88-.36-1.68-.67-2.39-.95a5.43,5.43,0,0,0-1.89-.41,2.74,2.74,0,0,0-2.4,1.24,6.1,6.1,0,0,0-.86,3.49V314a1,1,0,0,0,.71.24,1.1,1.1,0,0,0,1.25-1.24Z"/><path class="cls-8" d="M318.23,314.74v-.65c3.22-.64,3-1.37,2.17-2.94-.44-.84-1.37-2.65-4.31-7.85-2.09,3.22-3.26,5.16-4.71,7.73-1.13,2-.48,2.38,2.78,3.06v.65h-9.75v-.65c2.26-.48,3.47-1,4.76-2.61,2.41-3.18,4.06-5.92,6.28-9.22-1.94-3.47-3.35-6.17-5.48-9.71-1.49-2.5-1.93-2.78-4.47-3.34v-.65H317v.65c-2.58.48-2.62,1.13-1.94,2.41.85,1.66,2,3.71,3.63,6.73,1.49-2.22,2.62-4.15,3.74-6.2,1-1.77.73-2.3-2.61-2.94v-.65h9.38v.65c-3.1.72-3.87,1.13-5.36,3.34-1.73,2.54-2.78,4.31-4.47,6.81,2.5,4.26,4.07,7.24,6.28,10.87,1.7,2.78,2.34,3.38,5.16,3.86v.65Z"/><g class="cls-32"><path d="M168.58,337.51c0-.09,0-.18,0-.26s0,.06,0,.09a5.7,5.7,0,0,0-8.75-4.63,13,13,0,0,1-2.51-7.81,7,7,0,0,0,0-4.2c-1-3.43-5.3-7.35-5.06-8.73.19-1.15-2.42,3.4-1.83,7.61-2.64-.73-5.33-1.1-5.8-1.9-.72-1.21.79,6.54,5.76,8.37a12.17,12.17,0,0,0,2.89.71,13,13,0,0,0-1.18,8.92,5.69,5.69,0,0,0-4,5.18h0c0,.09,0,.17,0,.26a1.62,1.62,0,0,0,0,.22v.1a5.7,5.7,0,0,0,11.32.6,5.69,5.69,0,0,0,7.52-.49A5.7,5.7,0,0,0,168.58,337.51Zm-14.4-10.7a5.54,5.54,0,0,0,2.18-.41h.12a13,13,0,0,0,2.24,7.2,5.7,5.7,0,0,0-1.49,3,5.69,5.69,0,0,0-3.48-1.19h-.27A13,13,0,0,1,154.18,326.81Z"/><path d="M152.16,311.79s.05.06,0,.18c-.24,1.38,4,5.3,5.06,8.73a7,7,0,0,1,0,4.2,13,13,0,0,0,2.51,7.81,5.7,5.7,0,0,1,8.75,4.63s0-.06,0-.09,0,.17,0,.26a5.74,5.74,0,0,1-5.72,5.72,5.63,5.63,0,0,1-3.48-1.19,5.7,5.7,0,0,1-11.32-.6v-.1a1.62,1.62,0,0,1,0-.22c0-.09,0-.17,0-.26h0a5.69,5.69,0,0,1,4-5.18,13,13,0,0,1,1.18-8.92,12.17,12.17,0,0,1-2.89-.71c-4.61-1.7-6.24-8.5-5.88-8.5,0,0,.06,0,.12.13.47.8,3.16,1.17,5.8,1.9-.53-3.76,1.5-7.79,1.8-7.79m1.32,23.63h.27a5.69,5.69,0,0,1,3.48,1.19,5.7,5.7,0,0,1,1.49-3,13,13,0,0,1-2.24-7.2h-.12a5.54,5.54,0,0,1-2.18.41,13,13,0,0,0-.7,8.61m-1.32-25.18a1.64,1.64,0,0,0-1.28.61,13.71,13.71,0,0,0-2.14,6.72l-.18,0a16.89,16.89,0,0,1-2.77-.8,1.63,1.63,0,0,0-1.35-.73h0a1.58,1.58,0,0,0-1.57,1.34c-.19,1,.6,3.28,1.43,4.87a10.73,10.73,0,0,0,5.49,5.3c.41.15.82.28,1.23.4a14.42,14.42,0,0,0-.73,6.83,7.27,7.27,0,0,0-3.78,6.05v.06c0,.09,0,.18,0,.27s0,.16,0,.24v.17a7.25,7.25,0,0,0,13.76,2.78,7.29,7.29,0,0,0,2.59.47,7.29,7.29,0,0,0,7.27-7.27,2.44,2.44,0,0,0,0-.27v-.06h0a7.21,7.21,0,0,0-7.24-6.91,7.37,7.37,0,0,0-2.51.44,11.61,11.61,0,0,1-1.51-5.59,8.69,8.69,0,0,0-.1-4.87,21.46,21.46,0,0,0-3.4-5.81,16.37,16.37,0,0,1-1.6-2.4,1.59,1.59,0,0,0-.37-1.24,1.56,1.56,0,0,0-1.21-.56Zm2.59,23.69a11.48,11.48,0,0,1,.38-5.24,14.42,14.42,0,0,0,1.7,4.8,5.93,5.93,0,0,0-.49.84,7.27,7.27,0,0,0-1.59-.4Z"/></g><path class="cls-29" d="M167.58,336.51c0-.09,0-.18,0-.26s0,.06,0,.09a5.7,5.7,0,0,0-8.75-4.63,13,13,0,0,1-2.51-7.81,7,7,0,0,0,0-4.2c-1-3.43-5.3-7.35-5.06-8.73.19-1.15-2.42,3.4-1.83,7.61-2.64-.73-5.33-1.1-5.8-1.9-.72-1.21.79,6.54,5.76,8.37a12.17,12.17,0,0,0,2.89.71,13,13,0,0,0-1.18,8.92,5.69,5.69,0,0,0-4,5.18h0c0,.09,0,.17,0,.26a1.62,1.62,0,0,0,0,.22v.1a5.7,5.7,0,0,0,11.32.6,5.69,5.69,0,0,0,7.52-.49A5.7,5.7,0,0,0,167.58,336.51Zm-14.4-10.7a5.54,5.54,0,0,0,2.18-.41h.12a13,13,0,0,0,2.24,7.2,5.7,5.7,0,0,0-1.49,3,5.69,5.69,0,0,0-3.48-1.19h-.27A13,13,0,0,1,153.18,325.81Z"/><path class="cls-29" d="M151.16,310.79s.05.06,0,.18c-.24,1.38,4,5.3,5.06,8.73a7,7,0,0,1,0,4.2,13,13,0,0,0,2.51,7.81,5.7,5.7,0,0,1,8.75,4.63s0-.06,0-.09,0,.17,0,.26a5.74,5.74,0,0,1-5.72,5.72,5.63,5.63,0,0,1-3.48-1.19,5.7,5.7,0,0,1-11.32-.6v-.1a1.62,1.62,0,0,1,0-.22c0-.09,0-.17,0-.26h0a5.69,5.69,0,0,1,4-5.18,13,13,0,0,1,1.18-8.92,12.17,12.17,0,0,1-2.89-.71c-4.61-1.7-6.24-8.5-5.88-8.5,0,0,.06,0,.12.13.47.8,3.16,1.17,5.8,1.9-.53-3.76,1.5-7.79,1.8-7.79m1.32,23.63h.27a5.69,5.69,0,0,1,3.48,1.19,5.7,5.7,0,0,1,1.49-3,13,13,0,0,1-2.24-7.2h-.12a5.54,5.54,0,0,1-2.18.41,13,13,0,0,0-.7,8.61m-1.32-25.18a1.64,1.64,0,0,0-1.28.61,13.71,13.71,0,0,0-2.14,6.72l-.18,0a16.89,16.89,0,0,1-2.77-.8,1.63,1.63,0,0,0-1.35-.73h0a1.58,1.58,0,0,0-1.57,1.34c-.19,1,.6,3.28,1.43,4.87a10.73,10.73,0,0,0,5.49,5.3c.41.15.82.28,1.23.4a14.42,14.42,0,0,0-.73,6.83,7.27,7.27,0,0,0-3.78,6.05v.06c0,.09,0,.18,0,.27s0,.16,0,.24v.17a7.25,7.25,0,0,0,13.76,2.78,7.29,7.29,0,0,0,2.59.47,7.29,7.29,0,0,0,7.27-7.27,2.44,2.44,0,0,0,0-.27v-.06h0a7.21,7.21,0,0,0-7.24-6.91,7.37,7.37,0,0,0-2.51.44,11.61,11.61,0,0,1-1.51-5.59,8.69,8.69,0,0,0-.1-4.87,21.46,21.46,0,0,0-3.4-5.81,16.37,16.37,0,0,1-1.6-2.4,1.59,1.59,0,0,0-.37-1.24,1.56,1.56,0,0,0-1.21-.56Zm2.59,23.69a11.48,11.48,0,0,1,.38-5.24,14.42,14.42,0,0,0,1.7,4.8,5.93,5.93,0,0,0-.49.84,7.27,7.27,0,0,0-1.59-.4Z"/><path class="cls-33" d="M156.23,322.79a13,13,0,0,0,4,10.71.3.3,0,0,1,0,.42l-.61.65a.3.3,0,0,1-.42,0,13,13,0,0,1-3.66-11.73.29.29,0,0,0-.51-.25,13,13,0,0,0-2.58,12.34.29.29,0,0,1-.19.37l-.85.26a.3.3,0,0,1-.37-.19,13,13,0,0,1,4.84-14.08A4.3,4.3,0,0,1,156.23,322.79Z"/><circle class="cls-34" cx="161.75" cy="336.52" r="5.71"/><path class="cls-29" d="M161.75,342.39a5.87,5.87,0,1,1,5.86-5.87A5.87,5.87,0,0,1,161.75,342.39Zm0-11.42a5.56,5.56,0,1,0,5.55,5.55A5.56,5.56,0,0,0,161.75,331Z"/><path class="cls-35" d="M156.56,336.51c0,.07,0,.15,0,.23a5.22,5.22,0,1,0,10.43,0c0-.08,0-.16,0-.23C166.34,342.1,156.22,341.87,156.56,336.51Z"/><path class="cls-29" d="M161,332.33a.32.32,0,0,0,.31.54,2,2,0,0,1,2.94,1,.31.31,0,0,0,.57-.24,2.82,2.82,0,0,0-1.55-1.55A3,3,0,0,0,161,332.33Z"/><path class="cls-33" d="M155.47,325.4s-2.78.29-5.4-4.32,1.25-11.5,1-10.11,4,5.3,5.06,8.73A6.58,6.58,0,0,1,155.47,325.4Z"/><path class="cls-36" d="M155.47,325.4s-2.78.29-5.4-4.32,1.25-11.5,1-10.11a22.33,22.33,0,0,0,.67,8.47A16.6,16.6,0,0,0,155.47,325.4Z"/><path class="cls-37" d="M156.12,324.86s-1.94,2-6.91.19-6.48-9.58-5.76-8.37,6.49,1.45,9.51,3.4A6.56,6.56,0,0,1,156.12,324.86Z"/><path class="cls-38" d="M156.12,324.86a6.56,6.56,0,0,0-3.16-4.78c-3-1.95-8.8-2.19-9.51-3.4C143.45,316.68,145.42,323.52,156.12,324.86Z"/><circle class="cls-34" cx="152.64" cy="340.12" r="5.71"/><path class="cls-29" d="M152.64,346a5.86,5.86,0,1,1,5.87-5.86A5.87,5.87,0,0,1,152.64,346Zm0-11.41a5.55,5.55,0,1,0,5.56,5.55A5.56,5.56,0,0,0,152.64,334.57Z"/><path class="cls-35" d="M147.44,340.12c0,.08,0,.15,0,.23a5.22,5.22,0,1,0,10.43,0c0-.08,0-.15,0-.23C157.22,345.71,147.1,345.48,147.44,340.12Z"/><path class="cls-29" d="M151.39,335.85a.32.32,0,0,0,.31.54,2,2,0,0,1,2.94,1,.31.31,0,0,0,.57-.23,2.83,2.83,0,0,0-1.54-1.55A3,3,0,0,0,151.39,335.85Z"/><g class="cls-32"><polygon points="462.42 276.98 453.6 270.47 449.59 269.87 444.52 269.87 441.46 269.87 438.39 269.87 433.87 269.87 429.32 270.47 420.5 276.98 441.46 296.95 441.46 296.95 441.46 296.95 441.46 296.95 462.42 276.98 462.42 276.98"/><path d="M449.59,269.87l4,.6,8.83,6.51h0l-21,20h0l-21-20,8.82-6.51,4.55-.6h15.72m0-2.11H433.87a1.27,1.27,0,0,0-.28,0l-4.55.6a2,2,0,0,0-1,.39l-8.83,6.51a2.11,2.11,0,0,0-.2,3.22l21,20a2.12,2.12,0,0,0,2.91,0l21-20a2.11,2.11,0,0,0-.2-3.22l-8.82-6.51a2.17,2.17,0,0,0-.94-.39l-4-.6-.31,0Z"/></g><polygon class="cls-29" points="461.42 275.98 452.6 269.47 448.59 268.87 443.52 268.87 440.46 268.87 437.39 268.87 432.87 268.87 428.32 269.47 419.5 275.98 440.46 295.95 440.46 295.95 440.46 295.95 440.46 295.95 461.42 275.98 461.42 275.98"/><path class="cls-29" d="M448.59,268.87l4,.6,8.83,6.51h0l-21,20h0l-21-20,8.82-6.51,4.55-.6h15.72m0-2.11H432.87a1.27,1.27,0,0,0-.28,0l-4.55.6a2,2,0,0,0-1,.39l-8.83,6.51a2.11,2.11,0,0,0-.2,3.22l21,20a2.12,2.12,0,0,0,2.91,0l21-20a2.11,2.11,0,0,0-.2-3.22l-8.82-6.51a2.17,2.17,0,0,0-.94-.39l-4-.6-.31,0Z"/><polygon class="cls-39" points="432.32 270.31 428.32 269.47 419.5 275.98 425.28 277.22 432.32 270.31"/><polyline class="cls-39" points="461.42 275.98 452.6 269.47 448.59 270.31 455.55 277.13 461.42 275.98"/><polygon class="cls-40" points="440.46 295.95 440.46 295.95 440.46 295.95 440.46 295.95"/><polygon class="cls-40" points="440.46 295.95 440.46 295.95 440.46 295.95 440.46 295.95 440.46 295.95 440.46 295.95"/><rect class="cls-41" x="440.46" y="270.73" height="9.36"/><polygon class="cls-42" points="440.46 295.95 440.46 295.95 440.46 295.95 440.46 295.95"/><polygon class="cls-42" points="440.46 295.95 440.46 295.95 440.46 295.95 440.46 295.95 440.46 295.95"/><polygon class="cls-43" points="440.46 295.95 440.46 295.95 440.46 295.95 440.46 295.95"/><polygon class="cls-44" points="419.5 275.98 419.5 275.98 440.46 295.95 440.46 295.95 419.5 275.98"/><polygon class="cls-45" points="440.46 295.95 461.42 275.98 455.55 277.13 455.63 277.22 440.46 295.95"/><polygon class="cls-45" points="425.28 277.22 425.28 277.22 425.36 277.13 419.5 275.98 440.46 295.95 425.28 277.22"/><polygon class="cls-43" points="440.46 295.95 440.46 295.95 440.46 295.95 440.46 295.95"/><polygon class="cls-43" points="440.46 295.95 440.46 295.95 440.46 295.95 440.46 295.95"/><polygon class="cls-46" points="432.32 270.31 425.36 277.13 425.28 277.22 434.17 278.91 434.18 278.86 437.39 270.73 432.32 270.31"/><polyline class="cls-46" points="455.63 277.22 455.55 277.13 448.59 270.31 443.52 270.73 446.73 278.86 446.75 278.91 455.63 277.22"/><polygon class="cls-47" points="446.73 278.86 443.52 270.73 440.46 270.73 440.46 280.1 446.75 278.91 446.73 278.86"/><polygon class="cls-48" points="440.46 295.95 440.46 295.95 440.46 295.95 440.46 295.95"/><polygon class="cls-44" points="425.28 277.22 440.46 295.95 440.46 295.95 440.46 295.95 425.28 277.22 425.28 277.22"/><polygon class="cls-49" points="434.15 278.94 434.17 278.91 425.28 277.22 440.46 295.95 440.46 295.95 434.15 278.94 434.15 278.94"/><polygon class="cls-50" points="437.39 270.73 434.18 278.86 434.17 278.91 434.15 278.94 440.46 280.1 440.46 280.1 440.46 280.1 440.46 280.1 440.46 270.73 437.39 270.73"/><rect class="cls-48" x="440.46" y="295.95"/><polygon class="cls-48" points="440.46 295.95 440.46 295.95 440.46 295.95 440.46 295.95"/><polygon class="cls-48" points="440.46 295.95 440.46 295.95 440.46 295.95 440.46 295.95"/><polygon class="cls-48" points="440.46 295.95 440.46 295.95 440.46 295.95 440.46 295.95"/><polygon class="cls-49" points="446.75 278.91 446.76 278.94 440.46 295.95 440.46 295.95 455.63 277.22 446.75 278.91"/><polygon class="cls-51" points="440.46 295.95 440.46 295.95 440.46 295.95 440.46 295.95 440.46 295.95 440.46 295.95"/><rect class="cls-44" x="440.46" y="280.1" height="15.85"/><polygon class="cls-52" points="440.46 280.1 440.46 280.1 440.46 280.1 440.46 280.1"/><polygon class="cls-44" points="434.15 278.94 440.46 295.95 440.46 295.95 434.15 278.94 434.15 278.94"/><polygon class="cls-53" points="440.46 280.1 434.15 278.94 440.46 295.95 440.46 280.1 440.46 280.1"/><polygon class="cls-44" points="440.46 280.1 440.46 280.1 440.46 295.95 440.46 295.95 440.46 295.95 440.46 295.95 440.46 280.1"/><polygon class="cls-46" points="446.75 278.91 440.46 280.1 440.46 295.95 440.46 295.95 440.46 295.95 446.76 278.94 446.75 278.91"/><polygon class="cls-54" points="428.32 269.47 432.87 268.87 437.39 268.87 440.46 268.87 443.52 268.87 448.59 268.87 452.6 269.47 448.59 270.31 443.52 270.73 440.46 270.73 437.39 270.73 432.32 270.31 428.32 269.47"/><g class="cls-32"><circle cx="155.26" cy="281.2" r="15.86"/><path d="M155.26,265.34a15.87,15.87,0,1,1-15.87,15.86,15.86,15.86,0,0,1,15.87-15.86m0-1.72a17.58,17.58,0,1,0,17.57,17.58,17.6,17.6,0,0,0-17.57-17.58Z"/></g><circle class="cls-29" cx="154.26" cy="280.2" r="15.86"/><path class="cls-29" d="M154.26,264.34a15.87,15.87,0,1,1-15.87,15.86,15.86,15.86,0,0,1,15.87-15.86m0-1.72a17.58,17.58,0,1,0,17.57,17.58,17.6,17.6,0,0,0-17.57-17.58Z"/><circle class="cls-55" cx="154.26" cy="280.2" r="15.01"/><path class="cls-56" d="M154.26,296.07a15.87,15.87,0,1,1,15.86-15.87A15.89,15.89,0,0,1,154.26,296.07Zm0-30a14.15,14.15,0,1,0,14.15,14.15A14.17,14.17,0,0,0,154.26,266.05Z"/><path class="cls-56" d="M152.68,275.78l-2.43-5.68a1.71,1.71,0,0,1,1.57-2.39h4.87a1.72,1.72,0,0,1,1.58,2.39l-2.44,5.68A1.72,1.72,0,0,1,152.68,275.78Z"/><path class="cls-56" d="M155.83,284.62l2.44,5.68a1.72,1.72,0,0,1-1.58,2.39h-4.87a1.71,1.71,0,0,1-1.57-2.39l2.43-5.68A1.72,1.72,0,0,1,155.83,284.62Z"/><path class="cls-56" d="M158.68,278.63l5.68-2.44a1.72,1.72,0,0,1,2.39,1.58v4.87a1.71,1.71,0,0,1-2.39,1.57l-5.68-2.43A1.72,1.72,0,0,1,158.68,278.63Z"/><path class="cls-56" d="M149.84,281.78l-5.68,2.43a1.71,1.71,0,0,1-2.39-1.57v-4.87a1.72,1.72,0,0,1,2.39-1.58l5.68,2.44A1.72,1.72,0,0,1,149.84,281.78Z"/><path class="cls-56" d="M158.5,282.21l5.74,2.3a1.71,1.71,0,0,1,.57,2.8l-3.44,3.44a1.71,1.71,0,0,1-2.8-.57l-2.3-5.74A1.72,1.72,0,0,1,158.5,282.21Z"/><path class="cls-56" d="M150,278.19l-5.74-2.3a1.71,1.71,0,0,1-.58-2.8l3.45-3.44a1.71,1.71,0,0,1,2.8.57l2.29,5.74A1.71,1.71,0,0,1,150,278.19Z"/><path class="cls-56" d="M152.24,284.44,150,290.18a1.71,1.71,0,0,1-2.8.57l-3.45-3.44a1.71,1.71,0,0,1,.58-2.8l5.74-2.3A1.71,1.71,0,0,1,152.24,284.44Z"/><path class="cls-56" d="M156.27,276l2.3-5.74a1.71,1.71,0,0,1,2.8-.57l3.44,3.44a1.71,1.71,0,0,1-.57,2.8l-5.74,2.3A1.72,1.72,0,0,1,156.27,276Z"/><path class="cls-29" d="M158.4,273.73a.28.28,0,0,1,0-.15l1.39-2.83a.34.34,0,0,1,.46-.15.32.32,0,0,1,.15.45l-1.39,2.83a.35.35,0,0,1-.46.16A.34.34,0,0,1,158.4,273.73Z"/><path class="cls-57" d="M160.14,270.82h0a.11.11,0,0,1,.05,0,.09.09,0,0,1,0,.07l-1.39,2.83a.09.09,0,0,1-.07.05h0a.08.08,0,0,1-.05-.08.06.06,0,0,1,0,0l1.39-2.82a.08.08,0,0,1,.08-.05m0-.26a.34.34,0,0,0-.31.19l-1.39,2.83a.28.28,0,0,0,0,.15.34.34,0,0,0,.19.31.41.41,0,0,0,.16,0,.34.34,0,0,0,.3-.19l1.39-2.83a.32.32,0,0,0-.15-.45.28.28,0,0,0-.15,0Z"/><path class="cls-29" d="M161.76,278.56a.34.34,0,0,1,.14-.09l3-1a.34.34,0,0,1,.22.65l-3,1a.35.35,0,0,1-.44-.21A.36.36,0,0,1,161.76,278.56Z"/><path class="cls-57" d="M165,277.7a.07.07,0,0,1,.08.06s0,.05,0,.06a.11.11,0,0,1,0,0l-3,1h0a.08.08,0,0,1-.08-.06.07.07,0,0,1,0-.09l0,0,3-1h0m0-.26-.11,0-3,1a.34.34,0,0,0-.14.09.36.36,0,0,0-.08.35.35.35,0,0,0,.33.23.23.23,0,0,0,.11,0l3-1a.34.34,0,0,0,.21-.44.34.34,0,0,0-.32-.23Z"/><path class="cls-29" d="M150.11,286.67a.4.4,0,0,1,0,.15l-1.39,2.83a.34.34,0,1,1-.62-.3l1.39-2.83a.34.34,0,0,1,.46-.15A.33.33,0,0,1,150.11,286.67Z"/><path class="cls-57" d="M149.77,286.59h0a.09.09,0,0,1,.05.07s0,0,0,0l-1.39,2.83a.1.1,0,0,1-.08,0h0s0,0,0-.05a.08.08,0,0,1,0-.07l1.39-2.83a.09.09,0,0,1,.08,0m0-.26a.34.34,0,0,0-.31.19l-1.39,2.83a.35.35,0,0,0,.16.46l.15,0a.34.34,0,0,0,.31-.19l1.39-2.83a.4.4,0,0,0,0-.15.33.33,0,0,0-.19-.3.28.28,0,0,0-.15,0Z"/><path class="cls-29" d="M147.79,276.06a.26.26,0,0,1-.15,0l-2.83-1.39a.35.35,0,0,1-.16-.46.34.34,0,0,1,.46-.15l2.83,1.39a.34.34,0,0,1,.15.46A.33.33,0,0,1,147.79,276.06Z"/><path class="cls-57" d="M145,274.24h0l2.82,1.39a.08.08,0,0,1,0,.11.07.07,0,0,1-.07.05h0l-2.83-1.39a.08.08,0,0,1,0-.11.08.08,0,0,1,.08-.05m0-.26a.34.34,0,0,0-.31.19.35.35,0,0,0,.16.46l2.83,1.39a.26.26,0,0,0,.15,0,.33.33,0,0,0,.3-.19.34.34,0,0,0-.15-.46L145.11,274a.28.28,0,0,0-.15,0Z"/><path class="cls-29" d="M152.61,272.7a.64.64,0,0,1-.08-.14l-1-3a.34.34,0,0,1,.22-.43.33.33,0,0,1,.43.21l1,3a.35.35,0,0,1-.21.44A.38.38,0,0,1,152.61,272.7Z"/><path class="cls-57" d="M151.84,269.38a.08.08,0,0,1,.08.06l1,3a.08.08,0,0,1-.06.1h0a.09.09,0,0,1-.07,0l0,0-1-3a.08.08,0,0,1,.05-.11h0m0-.25a.2.2,0,0,0-.11,0,.34.34,0,0,0-.22.43l1,3a.64.64,0,0,0,.08.14.37.37,0,0,0,.25.1l.11,0a.35.35,0,0,0,.21-.44l-1-3a.34.34,0,0,0-.32-.23Z"/><path class="cls-29" d="M146.75,281.85a.41.41,0,0,1-.13.08l-3,1a.35.35,0,0,1-.44-.22.34.34,0,0,1,.22-.43l3-1a.33.33,0,0,1,.43.21A.34.34,0,0,1,146.75,281.85Z"/><path class="cls-57" d="M146.51,281.52a.08.08,0,0,1,.08.06.07.07,0,0,1,0,.08l0,0-3,1h0a.1.1,0,0,1-.08-.13.11.11,0,0,1,.05,0l3-1h0m0-.26-.11,0-3,1a.34.34,0,0,0-.22.43.35.35,0,0,0,.33.23h.11l3-1a.41.41,0,0,0,.13-.08.34.34,0,0,0,.08-.36.34.34,0,0,0-.32-.23Z"/><path class="cls-29" d="M156.35,291a.35.35,0,0,0,.44.22.35.35,0,0,0,.21-.44l-1-3a.22.22,0,0,0-.08-.13.32.32,0,0,0-.35-.08.33.33,0,0,0-.21.43Z"/><path class="cls-57" d="M155.66,287.86a.07.07,0,0,1,.06,0l0,0,1,3a.08.08,0,0,1-.06.1h0a.08.08,0,0,1-.08-.06l-1-3a.08.08,0,0,1,0-.11h0m0-.25a.22.22,0,0,0-.11,0,.33.33,0,0,0-.21.43l1,3a.34.34,0,0,0,.33.24l.11,0a.35.35,0,0,0,.21-.44l-1-3a.22.22,0,0,0-.08-.13.31.31,0,0,0-.24-.1Z"/><path class="cls-29" d="M160.73,284.35l.15,0,2.83,1.39a.34.34,0,0,1-.3.62L160.58,285a.35.35,0,0,1-.16-.46A.34.34,0,0,1,160.73,284.35Z"/><path class="cls-57" d="M160.73,284.6h0l2.82,1.39a.08.08,0,0,1,0,.12.09.09,0,0,1-.07.05h0l-2.83-1.39a.1.1,0,0,1,0-.12.1.1,0,0,1,.08,0m0-.25a.34.34,0,0,0-.31.19.35.35,0,0,0,.16.46l2.83,1.39a.37.37,0,0,0,.15,0,.33.33,0,0,0,.3-.19.34.34,0,0,0-.15-.46l-2.83-1.39-.15,0Z"/><g class="cls-32"><path d="M457.34,329a16.38,16.38,0,1,1-32.75,0,16.38,16.38,0,1,1,32.75,0Z"/><path d="M441,312.06A16.64,16.64,0,0,1,457.34,329a16.38,16.38,0,1,1-32.75,0A16.64,16.64,0,0,1,441,312.06m0-1.82c-10,0-18.19,8.4-18.19,18.72A18.33,18.33,0,0,0,428.1,342a18.26,18.26,0,0,0,25.73,0A18.33,18.33,0,0,0,459.16,329c0-10.32-8.16-18.72-18.2-18.72Z"/></g><path class="cls-29" d="M456.34,328a16.38,16.38,0,1,1-32.75,0,16.38,16.38,0,1,1,32.75,0Z"/><path class="cls-29" d="M440,311.06A16.64,16.64,0,0,1,456.34,328a16.38,16.38,0,1,1-32.75,0A16.64,16.64,0,0,1,440,311.06m0-1.82c-10,0-18.19,8.4-18.19,18.72A18.33,18.33,0,0,0,427.1,341a18.26,18.26,0,0,0,25.73,0A18.33,18.33,0,0,0,458.16,328c0-10.32-8.16-18.72-18.2-18.72Z"/><path class="cls-58" d="M456.34,328.49a16.38,16.38,0,0,1-32.75,0,16.38,16.38,0,1,1,32.75,0Z"/><circle class="cls-59" cx="439.96" cy="327.43" r="16.37"/><path class="cls-60" d="M440,311.42a16,16,0,1,1-16,16,16,16,0,0,1,16-16m0-.36a16.37,16.37,0,1,0,16.38,16.37A16.37,16.37,0,0,0,440,311.06Z"/><circle class="cls-59" cx="439.96" cy="327.43" r="12.95"/><path class="cls-60" d="M440,314.48A12.95,12.95,0,1,1,427,327.43,12.95,12.95,0,0,1,440,314.48m0-.36a13.32,13.32,0,1,0,13.32,13.31A13.32,13.32,0,0,0,440,314.12Z"/><circle class="cls-61" cx="439.96" cy="327.43" r="12.95"/><path class="cls-62" d="M452.91,327.43a13,13,0,0,1-13,12.95v-25.9A13,13,0,0,1,452.91,327.43Z"/><path class="cls-58" d="M440,315.26a13,13,0,0,1,12.94,12.49c0-.1,0-.21,0-.32a12.95,12.95,0,0,0-25.9,0c0,.11,0,.22,0,.32A13,13,0,0,1,440,315.26Z"/><path class="cls-58" d="M433.52,334.26l-.43-.43.43-11.19,6.44-.43.43.43v2h-4.52v2.76l3.32-.44.44.44v2h-3.76v4.94Z"/><path class="cls-58" d="M442,334.26l-.44-.43.44-11.19,6.44-.43.43.43v2h-4.53v2.76l3.33-.44.43.44v2h-3.76v4.94Z"/><path class="cls-62" d="M433.09,333.83V322.21H440v2h-4.53v2.75h3.76v2h-3.76v4.94Z"/><path class="cls-61" d="M441.55,333.83V322.21h6.88v2H443.9v2.75h3.76v2H443.9v4.94Z"/><g class="cls-32"><path d="M155,248.88a14.81,14.81,0,0,1-6.32-1.35c-.25-.12-.55-.19-.57-.59,0-.12-.25-.24-.4-.34a15.58,15.58,0,0,1-6-7.2,13.87,13.87,0,0,1,.39-10.6c.39-1,.91-1.9,1.38-2.85a9.15,9.15,0,0,0,1.14-3.61,1.84,1.84,0,0,0-.3-1.32.58.58,0,0,1,0-.47c.4-1.06.82-2.11,1.22-3.17a.54.54,0,0,1,.68-.35c1.08.22,2.16.44,3.22.7a.6.6,0,0,1,.43.77,36.72,36.72,0,0,1-.69,3.65c-.32,1.12-.88,2.16-1.3,3.24A25.19,25.19,0,0,0,146,232c-.35,3.65.68,6.79,3.73,9.06.26.2.51.42.91.26.15-.06.39.06.57.14a9,9,0,0,0,7.53,0,3.44,3.44,0,0,1,.8-.09,1.36,1.36,0,0,0,.49-.17,9.05,9.05,0,0,0,3.87-6.17,12.76,12.76,0,0,0-.64-6.19,46.63,46.63,0,0,0-1.71-4.72,17.44,17.44,0,0,1-1.2-4.23c-.06-.43-.15-.85-.23-1.28a.65.65,0,0,1,.53-.87c1-.22,1.9-.44,2.86-.63.65-.13.78,0,1,.61.36.94.74,1.87,1.1,2.82a.69.69,0,0,1,0,.51,2.24,2.24,0,0,0-.28,1.83,10,10,0,0,0,1.14,3.18,23.43,23.43,0,0,1,2,4.6c1.63,6-.13,10.9-4.77,14.88-.44.38-.94.71-1.41,1.06-.23.17-.5.27-.55.63,0,.14-.29.26-.46.34A14.82,14.82,0,0,1,155,248.88Zm11.68-17.68c0-.13,0-.25,0-.37,0-.51-.22-.68-.69-.46s0,.83-.15,1.24c0,.08.2.3.33.31C166.65,232,166.72,231.86,166.68,231.2Zm-.11,5.1a6,6,0,0,0-.63-.12.34.34,0,0,0-.26.16,8.09,8.09,0,0,0-.22,1.09c0,.37.29.3.49.33s.34-.08.36-.16C166.42,237.19,166.48,236.76,166.57,236.3Zm-20.8-9.6c.2-.43.36-.81.53-1.19s-.1-.34-.27-.41-.4-.27-.54.06-.33.75-.51,1.17Zm-2.38,9.61c.09.46.14.86.25,1.25a.37.37,0,0,0,.3.22c.2-.05.55-.19.54-.28a9.85,9.85,0,0,0-.24-1.37Zm20.17-11c.16.36.31.67.42,1s.25.43.62.27.36-.35.2-.64a5.85,5.85,0,0,1-.3-.68c-.08-.22-.21-.3-.43-.19Zm-16.07,16.9-1.09-1.25a3.76,3.76,0,0,0-.36.5.41.41,0,0,0,0,.34c.26.34.56.65.89,1Zm16.55-.52-.51-.64-1.09,1.08.58.59Zm-20.81-9.77c.36-.09.75.34.9-.23a4.94,4.94,0,0,0,.1-1c0-.35-.25-.29-.45-.31s-.42-.08-.44.24S143.28,231.38,143.23,231.89Z"/><path d="M163.91,217c.33,0,.45.17.64.66.36.94.74,1.87,1.1,2.82a.69.69,0,0,1,0,.51,2.24,2.24,0,0,0-.28,1.83,10,10,0,0,0,1.14,3.18,23.43,23.43,0,0,1,2,4.6c1.63,6-.13,10.9-4.77,14.88-.44.38-.94.71-1.41,1.06-.23.17-.5.27-.55.63,0,.14-.29.26-.46.34a15.42,15.42,0,0,1-12.64,0c-.25-.12-.55-.19-.57-.59,0-.12-.25-.24-.4-.34a15.58,15.58,0,0,1-6-7.2,13.87,13.87,0,0,1,.39-10.6c.39-1,.91-1.9,1.38-2.85a9.15,9.15,0,0,0,1.14-3.61,1.84,1.84,0,0,0-.3-1.32.58.58,0,0,1,0-.47c.4-1.06.82-2.11,1.22-3.17A.52.52,0,0,1,146,217l.17,0c1.08.22,2.16.44,3.22.7a.6.6,0,0,1,.43.77,36.72,36.72,0,0,1-.69,3.65c-.32,1.12-.88,2.16-1.3,3.24A25.19,25.19,0,0,0,146,232c-.35,3.65.68,6.79,3.73,9.06a1.12,1.12,0,0,0,.65.32.65.65,0,0,0,.26-.06h.1a1.23,1.23,0,0,1,.47.15,9.38,9.38,0,0,0,3.77.83,9.26,9.26,0,0,0,3.76-.83,3.44,3.44,0,0,1,.8-.09,1.36,1.36,0,0,0,.49-.17,9.05,9.05,0,0,0,3.87-6.17,12.76,12.76,0,0,0-.64-6.19,46.63,46.63,0,0,0-1.71-4.72,17.44,17.44,0,0,1-1.2-4.23c-.06-.43-.15-.85-.23-1.28a.65.65,0,0,1,.53-.87c1-.22,1.9-.44,2.86-.63a2.3,2.3,0,0,1,.39-.05m-18.14,9.69c.2-.43.36-.81.53-1.19s-.1-.34-.27-.41a.91.91,0,0,0-.33-.13c-.07,0-.15.05-.21.19-.17.37-.33.75-.51,1.17l.79.37m18.55-.09a.67.67,0,0,0,.28-.07c.36-.16.36-.35.2-.64a5.85,5.85,0,0,1-.3-.68c-.06-.16-.14-.24-.25-.24a.49.49,0,0,0-.18.05l-.51.25c.16.36.31.67.42,1s.17.34.34.34m2,5.32c.34,0,.38-.16.35-.73,0-.13,0-.25,0-.37,0-.36-.13-.55-.35-.55a.9.9,0,0,0-.34.09c-.59.28,0,.83-.15,1.24,0,.08.2.3.33.31h.18m-23.1,0h.12c.17,0,.34.08.49.08s.23-.06.29-.3a4.94,4.94,0,0,0,.1-1c0-.35-.25-.29-.45-.31l-.19,0c-.13,0-.23.05-.25.26,0,.4-.06.8-.11,1.31m.69,5.89h0c.2-.05.55-.19.54-.28a9.85,9.85,0,0,0-.24-1.37l-.85.18c.09.46.14.86.25,1.25a.39.39,0,0,0,.28.22m22.06,0c.12,0,.31-.08.33-.16.11-.41.17-.84.26-1.3a6,6,0,0,0-.63-.12h0a.34.34,0,0,0-.26.16,8.09,8.09,0,0,0-.22,1.09c0,.37.29.3.49.33h0m-19.07,5.05.58-.63-1.09-1.25a3.76,3.76,0,0,0-.36.5.41.41,0,0,0,0,.34c.26.34.56.65.89,1m16.11-.12,1-1-.51-.64-1.09,1.08.58.59m.89-27.69h0a4.07,4.07,0,0,0-.79.09c-1,.21-2,.44-2.92.65a2.64,2.64,0,0,0-2,3.19l.05.28c.07.33.13.64.17.94a19.3,19.3,0,0,0,1.34,4.72,47.65,47.65,0,0,1,1.64,4.53,10.51,10.51,0,0,1,.57,5.22,7.11,7.11,0,0,1-2.8,4.72,3.09,3.09,0,0,0-1.18.24,7.3,7.3,0,0,1-3,.65,7.16,7.16,0,0,1-3-.66h0a3,3,0,0,0-1.25-.31h0c-2.16-1.71-3-4-2.72-7.11a23.8,23.8,0,0,1,1.73-6c.14-.35.3-.72.47-1.1a18.32,18.32,0,0,0,.88-2.3,24.13,24.13,0,0,0,.58-2.83c.05-.34.1-.69.16-1a2.59,2.59,0,0,0-1.93-3.08c-1.13-.28-2.25-.5-3.3-.71A2.74,2.74,0,0,0,146,215a2.5,2.5,0,0,0-2.38,1.65c-.17.44-.33.87-.5,1.3-.24.62-.49,1.25-.73,1.89a2.59,2.59,0,0,0,.21,2.24v.16a7.39,7.39,0,0,1-.94,2.82l-.42.83a23.79,23.79,0,0,0-1,2.15c-1.74,4.37-1.87,8.32-.38,12.09a17.22,17.22,0,0,0,6.54,8,2.76,2.76,0,0,0,1.37,1.2l.05,0a16.77,16.77,0,0,0,7.16,1.54h0a16.69,16.69,0,0,0,7.15-1.55,2.82,2.82,0,0,0,1.39-1.2l.33-.24a14.41,14.41,0,0,0,1.16-.89c5.38-4.61,7.2-10.31,5.4-16.92a24.31,24.31,0,0,0-2-4.79l-.11-.21a8.19,8.19,0,0,1-.93-2.54c0-.12,0-.31-.05-.43a2.6,2.6,0,0,0,.2-2.34c-.21-.58-.44-1.16-.67-1.73-.14-.37-.29-.73-.43-1.1a2.62,2.62,0,0,0-2.51-1.95Z"/></g><path class="cls-29" d="M154,247.88a14.81,14.81,0,0,1-6.32-1.35c-.25-.12-.55-.19-.57-.59,0-.12-.25-.24-.4-.34a15.58,15.58,0,0,1-6-7.2,13.87,13.87,0,0,1,.39-10.6c.39-1,.91-1.9,1.38-2.85a9.15,9.15,0,0,0,1.14-3.61,1.84,1.84,0,0,0-.3-1.32.58.58,0,0,1,0-.47c.4-1.06.82-2.11,1.22-3.17a.54.54,0,0,1,.68-.35c1.08.22,2.16.44,3.22.7a.6.6,0,0,1,.43.77,36.72,36.72,0,0,1-.69,3.65c-.32,1.12-.88,2.16-1.3,3.24A25.19,25.19,0,0,0,145,231c-.35,3.65.68,6.79,3.73,9.06.26.2.51.42.91.26.15-.06.39.06.57.14a9,9,0,0,0,7.53,0,3.44,3.44,0,0,1,.8-.09,1.36,1.36,0,0,0,.49-.17,9.05,9.05,0,0,0,3.87-6.17,12.76,12.76,0,0,0-.64-6.19,46.63,46.63,0,0,0-1.71-4.72,17.44,17.44,0,0,1-1.2-4.23c-.06-.43-.15-.85-.23-1.28a.65.65,0,0,1,.53-.87c1-.22,1.9-.44,2.86-.63.65-.13.78,0,1,.61.36.94.74,1.87,1.1,2.82a.69.69,0,0,1,0,.51,2.24,2.24,0,0,0-.28,1.83,10,10,0,0,0,1.14,3.18,23.43,23.43,0,0,1,2,4.6c1.63,6-.13,10.9-4.77,14.88-.44.38-.94.71-1.41,1.06-.23.17-.5.27-.55.63,0,.14-.29.26-.46.34A14.82,14.82,0,0,1,154,247.88Zm11.68-17.68c0-.13,0-.25,0-.37,0-.51-.22-.68-.69-.46s0,.83-.15,1.24c0,.08.2.3.33.31C165.65,231,165.72,230.86,165.68,230.2Zm-.11,5.1a6,6,0,0,0-.63-.12.34.34,0,0,0-.26.16,8.09,8.09,0,0,0-.22,1.09c0,.37.29.3.49.33s.34-.08.36-.16C165.42,236.19,165.48,235.76,165.57,235.3Zm-20.8-9.6c.2-.43.36-.81.53-1.19s-.1-.34-.27-.41-.4-.27-.54.06-.33.75-.51,1.17Zm-2.38,9.61c.09.46.14.86.25,1.25a.37.37,0,0,0,.3.22c.2-.05.55-.19.54-.28a9.85,9.85,0,0,0-.24-1.37Zm20.17-11c.16.36.31.67.42,1s.25.43.62.27.36-.35.2-.64a5.85,5.85,0,0,1-.3-.68c-.08-.22-.21-.3-.43-.19Zm-16.07,16.9-1.09-1.25a3.76,3.76,0,0,0-.36.5.41.41,0,0,0,0,.34c.26.34.56.65.89,1Zm16.55-.52-.51-.64-1.09,1.08.58.59Zm-20.81-9.77c.36-.09.75.34.9-.23a4.94,4.94,0,0,0,.1-1c0-.35-.25-.29-.45-.31s-.42-.08-.44.24S142.28,230.38,142.23,230.89Z"/><path class="cls-29" d="M162.91,216c.33,0,.45.17.64.66.36.94.74,1.87,1.1,2.82a.69.69,0,0,1,0,.51,2.24,2.24,0,0,0-.28,1.83,10,10,0,0,0,1.14,3.18,23.43,23.43,0,0,1,2,4.6c1.63,6-.13,10.9-4.77,14.88-.44.38-.94.71-1.41,1.06-.23.17-.5.27-.55.63,0,.14-.29.26-.46.34a15.42,15.42,0,0,1-12.64,0c-.25-.12-.55-.19-.57-.59,0-.12-.25-.24-.4-.34a15.58,15.58,0,0,1-6-7.2,13.87,13.87,0,0,1,.39-10.6c.39-1,.91-1.9,1.38-2.85a9.15,9.15,0,0,0,1.14-3.61,1.84,1.84,0,0,0-.3-1.32.58.58,0,0,1,0-.47c.4-1.06.82-2.11,1.22-3.17A.52.52,0,0,1,145,216l.17,0c1.08.22,2.16.44,3.22.7a.6.6,0,0,1,.43.77,36.72,36.72,0,0,1-.69,3.65c-.32,1.12-.88,2.16-1.3,3.24A25.19,25.19,0,0,0,145,231c-.35,3.65.68,6.79,3.73,9.06a1.12,1.12,0,0,0,.65.32.65.65,0,0,0,.26-.06h.1a1.23,1.23,0,0,1,.47.15,9.38,9.38,0,0,0,3.77.83,9.26,9.26,0,0,0,3.76-.83,3.44,3.44,0,0,1,.8-.09,1.36,1.36,0,0,0,.49-.17,9.05,9.05,0,0,0,3.87-6.17,12.76,12.76,0,0,0-.64-6.19,46.63,46.63,0,0,0-1.71-4.72,17.44,17.44,0,0,1-1.2-4.23c-.06-.43-.15-.85-.23-1.28a.65.65,0,0,1,.53-.87c1-.22,1.9-.44,2.86-.63a2.3,2.3,0,0,1,.39-.05m-18.14,9.69c.2-.43.36-.81.53-1.19s-.1-.34-.27-.41a.91.91,0,0,0-.33-.13c-.07,0-.15.05-.21.19-.17.37-.33.75-.51,1.17l.79.37m18.55-.09a.67.67,0,0,0,.28-.07c.36-.16.36-.35.2-.64a5.85,5.85,0,0,1-.3-.68c-.06-.16-.14-.24-.25-.24a.49.49,0,0,0-.18.05l-.51.25c.16.36.31.67.42,1s.17.34.34.34m2,5.32c.34,0,.38-.16.35-.73,0-.13,0-.25,0-.37,0-.36-.13-.55-.35-.55a.9.9,0,0,0-.34.09c-.59.28,0,.83-.15,1.24,0,.08.2.3.33.31h.18m-23.1,0h.12c.17,0,.34.08.49.08s.23-.06.29-.3a4.94,4.94,0,0,0,.1-1c0-.35-.25-.29-.45-.31l-.19,0c-.13,0-.23.05-.25.26,0,.4-.06.8-.11,1.31m.69,5.89h0c.2-.05.55-.19.54-.28a9.85,9.85,0,0,0-.24-1.37l-.85.18c.09.46.14.86.25,1.25a.39.39,0,0,0,.28.22m22.06,0c.12,0,.31-.08.33-.16.11-.41.17-.84.26-1.3a6,6,0,0,0-.63-.12h0a.34.34,0,0,0-.26.16,8.09,8.09,0,0,0-.22,1.09c0,.37.29.3.49.33h0m-19.07,5.05.58-.63-1.09-1.25a3.76,3.76,0,0,0-.36.5.41.41,0,0,0,0,.34c.26.34.56.65.89,1m16.11-.12,1-1-.51-.64-1.09,1.08.58.59m.89-27.69h0a4.07,4.07,0,0,0-.79.09c-1,.21-2,.44-2.92.65a2.64,2.64,0,0,0-2,3.19l.05.28c.07.33.13.64.17.94a19.3,19.3,0,0,0,1.34,4.72,47.65,47.65,0,0,1,1.64,4.53,10.51,10.51,0,0,1,.57,5.22,7.11,7.11,0,0,1-2.8,4.72,3.09,3.09,0,0,0-1.18.24,7.3,7.3,0,0,1-3,.65,7.16,7.16,0,0,1-3-.66h0a3,3,0,0,0-1.25-.31h0c-2.16-1.71-3-4-2.72-7.11a23.8,23.8,0,0,1,1.73-6c.14-.35.3-.72.47-1.1a18.32,18.32,0,0,0,.88-2.3,24.13,24.13,0,0,0,.58-2.83c.05-.34.1-.69.16-1a2.59,2.59,0,0,0-1.93-3.08c-1.13-.28-2.25-.5-3.3-.71A2.74,2.74,0,0,0,145,214a2.5,2.5,0,0,0-2.38,1.65c-.17.44-.33.87-.5,1.3-.24.62-.49,1.25-.73,1.89a2.59,2.59,0,0,0,.21,2.24v.16a7.39,7.39,0,0,1-.94,2.82l-.42.83a23.79,23.79,0,0,0-1,2.15c-1.74,4.37-1.87,8.32-.38,12.09a17.22,17.22,0,0,0,6.54,8,2.76,2.76,0,0,0,1.37,1.2l.05,0a16.77,16.77,0,0,0,7.16,1.54h0a16.69,16.69,0,0,0,7.15-1.55,2.82,2.82,0,0,0,1.39-1.2l.33-.24a14.41,14.41,0,0,0,1.16-.89c5.38-4.61,7.2-10.31,5.4-16.92a24.31,24.31,0,0,0-2-4.79l-.11-.21a8.19,8.19,0,0,1-.93-2.54c0-.12,0-.31-.05-.43a2.6,2.6,0,0,0,.2-2.34c-.21-.58-.44-1.16-.67-1.73-.14-.37-.29-.73-.43-1.1a2.62,2.62,0,0,0-2.51-1.95Z"/><path class="cls-63" d="M154,247.88a14.81,14.81,0,0,1-6.32-1.35c-.25-.12-.55-.19-.57-.59,0-.12-.25-.24-.4-.34a15.58,15.58,0,0,1-6-7.2,13.87,13.87,0,0,1,.39-10.6c.39-1,.91-1.9,1.38-2.85a9.15,9.15,0,0,0,1.14-3.61,1.84,1.84,0,0,0-.3-1.32.58.58,0,0,1,0-.47c.4-1.06.82-2.11,1.22-3.17a.54.54,0,0,1,.68-.35c1.08.22,2.16.44,3.22.7a.6.6,0,0,1,.43.77,36.72,36.72,0,0,1-.69,3.65c-.32,1.12-.88,2.16-1.3,3.24A25.19,25.19,0,0,0,145,231c-.35,3.65.68,6.79,3.73,9.06.26.2.51.42.91.26.15-.06.39.06.57.14a9,9,0,0,0,7.53,0,3.44,3.44,0,0,1,.8-.09,1.36,1.36,0,0,0,.49-.17,9.05,9.05,0,0,0,3.87-6.17,12.76,12.76,0,0,0-.64-6.19,46.63,46.63,0,0,0-1.71-4.72,17.44,17.44,0,0,1-1.2-4.23c-.06-.43-.15-.85-.23-1.28a.65.65,0,0,1,.53-.87c1-.22,1.9-.44,2.86-.63.65-.13.78,0,1,.61.36.94.74,1.87,1.1,2.82a.69.69,0,0,1,0,.51,2.24,2.24,0,0,0-.28,1.83,10,10,0,0,0,1.14,3.18,23.43,23.43,0,0,1,2,4.6c1.63,6-.13,10.9-4.77,14.88-.44.38-.94.71-1.41,1.06-.23.17-.5.27-.55.63,0,.14-.29.26-.46.34A14.82,14.82,0,0,1,154,247.88Zm11.68-17.68c0-.13,0-.25,0-.37,0-.51-.22-.68-.69-.46s0,.83-.15,1.24c0,.08.2.3.33.31C165.65,231,165.72,230.86,165.68,230.2Zm-.11,5.1a6,6,0,0,0-.63-.12.34.34,0,0,0-.26.16,8.09,8.09,0,0,0-.22,1.09c0,.37.29.3.49.33s.34-.08.36-.16C165.42,236.19,165.48,235.76,165.57,235.3Zm-20.8-9.6c.2-.43.36-.81.53-1.19s-.1-.34-.27-.41-.4-.27-.54.06-.33.75-.51,1.17Zm-2.38,9.61c.09.46.14.86.25,1.25a.37.37,0,0,0,.3.22c.2-.05.55-.19.54-.28a9.85,9.85,0,0,0-.24-1.37Zm20.17-11c.16.36.31.67.42,1s.25.43.62.27.36-.35.2-.64a5.85,5.85,0,0,1-.3-.68c-.08-.22-.21-.3-.43-.19Zm-16.07,16.9-1.09-1.25a3.76,3.76,0,0,0-.36.5.41.41,0,0,0,0,.34c.26.34.56.65.89,1Zm16.55-.52-.51-.64-1.09,1.08.58.59Zm-20.81-9.77c.36-.09.75.34.9-.23a4.94,4.94,0,0,0,.1-1c0-.35-.25-.29-.45-.31s-.42-.08-.44.24S142.28,230.38,142.23,230.89Z"/><g class="cls-32"><path d="M441.87,382.63c0,2.67-.08,5.34,0,8,0,1.31-.43,1.92-1.63,2.14a27.86,27.86,0,0,1-3.06.48c3.19-3.14,3.1-7.29,4-11.11l-.3-.14c-.16.37-.31.76-.5,1.11-.74,1.33-1.42,2.71-2.27,4a3.46,3.46,0,0,1-3.83,1.46,3.54,3.54,0,0,1-2.77-3c0-.15-.06-.3-.09-.42s-.14-.13-.21-.14a3.74,3.74,0,0,1-1.36-7.09c1.41-.82,2.93-1.47,4.4-2.18.3-.15.61-.25,1.18-.48-.61-.25-1-.38-1.35-.57-1.64-.87-3.34-1.66-4.9-2.67a3.63,3.63,0,0,1,1.33-6.48,1.13,1.13,0,0,0,1-1,3.36,3.36,0,0,1,2.66-2.71,3.23,3.23,0,0,1,3.67,1.26c1.09,1.73,1.93,3.62,2.87,5.44.16.32.26.68.51,1.35.26-.68.38-1.06.55-1.41.78-1.61,1.48-3.27,2.4-4.8a3.64,3.64,0,0,1,3.81-2,3.58,3.58,0,0,1,3.16,3,1.13,1.13,0,0,0,.74.69,3.66,3.66,0,0,1,3,3,3.4,3.4,0,0,1-1.67,3.73c-1.66,1-3.45,1.77-5.2,2.61a7.21,7.21,0,0,0-1.61.82,12.12,12.12,0,0,1,1.32.46c1.92.92,3.89,1.77,5.72,2.84a3.41,3.41,0,0,1,1.69,3.73,3.61,3.61,0,0,1-2.93,3,1.36,1.36,0,0,0-.82.88,3.56,3.56,0,0,1-2.83,2.83,3.22,3.22,0,0,1-3.55-1.32,46.59,46.59,0,0,1-2.47-4.36,7.36,7.36,0,0,1-.37-.92Z"/><path d="M447.39,361.55a4,4,0,0,1,.59.05,3.58,3.58,0,0,1,3.16,3,1.13,1.13,0,0,0,.74.69,3.66,3.66,0,0,1,3,3,3.4,3.4,0,0,1-1.67,3.73c-1.66,1-3.45,1.77-5.2,2.61a7.21,7.21,0,0,0-1.61.82,12.12,12.12,0,0,1,1.32.46c1.92.92,3.89,1.77,5.72,2.84a3.41,3.41,0,0,1,1.69,3.73,3.61,3.61,0,0,1-2.93,3,1.36,1.36,0,0,0-.82.88,3.56,3.56,0,0,1-2.83,2.83,3.85,3.85,0,0,1-.88.11,3.14,3.14,0,0,1-2.67-1.43,46.59,46.59,0,0,1-2.47-4.36,7.36,7.36,0,0,1-.37-.92l-.27,0c0,2.67-.08,5.34,0,8,0,1.31-.43,1.92-1.63,2.14a27.86,27.86,0,0,1-3.06.48c3.19-3.14,3.1-7.29,4-11.11l-.3-.14c-.16.37-.31.76-.5,1.11-.74,1.33-1.42,2.71-2.27,4a3.39,3.39,0,0,1-2.88,1.57,4.62,4.62,0,0,1-1-.11,3.54,3.54,0,0,1-2.77-3c0-.15-.06-.3-.09-.42s-.14-.13-.21-.14a3.74,3.74,0,0,1-1.36-7.09c1.41-.82,2.93-1.47,4.4-2.18.3-.15.61-.25,1.18-.48-.61-.25-1-.38-1.35-.57-1.64-.87-3.34-1.66-4.9-2.67a3.63,3.63,0,0,1,1.33-6.48,1.13,1.13,0,0,0,1-1,3.36,3.36,0,0,1,2.66-2.71,4.53,4.53,0,0,1,1-.13,3,3,0,0,1,2.65,1.39c1.09,1.73,1.93,3.62,2.87,5.44.16.32.26.68.51,1.35.26-.68.38-1.06.55-1.41.78-1.61,1.48-3.27,2.4-4.8a3.7,3.7,0,0,1,3.22-2m0-2a5.64,5.64,0,0,0-4.91,3c-.48.8-.89,1.62-1.29,2.44a32,32,0,0,0-1.7-3.07,5,5,0,0,0-4.3-2.3,6.29,6.29,0,0,0-1.47.18,5.25,5.25,0,0,0-4,3.84,5.25,5.25,0,0,0-3.81,4,5.32,5.32,0,0,0,2.24,5.93c.88.57,1.79,1.06,2.69,1.53-.65.32-1.3.65-1.94,1a5.61,5.61,0,0,0-3,6.21,72,72,0,0,0,7.93,8.06,6.12,6.12,0,0,0,1.39.16,5.41,5.41,0,0,0,1.85-.32,7.84,7.84,0,0,1-1.23,1.58,2,2,0,0,0,1.37,3.35h.15a24.82,24.82,0,0,0,2.73-.41l.54-.1a3.69,3.69,0,0,0,3.23-4.15c0-.32,0-.64,0-1a5.15,5.15,0,0,0,3.82,1.68,5.56,5.56,0,0,0,1.33-.16,5.48,5.48,0,0,0,4.17-3.87,5.62,5.62,0,0,0,1.26-10.18c-1.09-.63-2.22-1.19-3.33-1.71,1-.5,2.09-1,3.11-1.64a5.32,5.32,0,0,0,2.59-5.79,5.56,5.56,0,0,0-3.91-4.35,5.41,5.41,0,0,0-4.6-3.9,6.65,6.65,0,0,0-.88-.07Z"/></g><path class="cls-29" d="M440.87,381.63c0,2.67-.08,5.34,0,8,0,1.31-.43,1.92-1.63,2.14a27.86,27.86,0,0,1-3.06.48c3.19-3.14,3.1-7.29,4-11.11l-.3-.14c-.16.37-.31.76-.5,1.11-.74,1.33-1.42,2.71-2.27,4a3.46,3.46,0,0,1-3.83,1.46,3.54,3.54,0,0,1-2.77-3c0-.15-.06-.3-.09-.42s-.14-.13-.21-.14a3.74,3.74,0,0,1-1.36-7.09c1.41-.82,2.93-1.47,4.4-2.18.3-.15.61-.25,1.18-.48-.61-.25-1-.38-1.35-.57-1.64-.87-3.34-1.66-4.9-2.67a3.63,3.63,0,0,1,1.33-6.48,1.13,1.13,0,0,0,1-1,3.36,3.36,0,0,1,2.66-2.71,3.23,3.23,0,0,1,3.67,1.26c1.09,1.73,1.93,3.62,2.87,5.44.16.32.26.68.51,1.35.26-.68.38-1.06.55-1.41.78-1.61,1.48-3.27,2.4-4.8a3.64,3.64,0,0,1,3.81-2,3.58,3.58,0,0,1,3.16,3,1.13,1.13,0,0,0,.74.69,3.66,3.66,0,0,1,3,3,3.4,3.4,0,0,1-1.67,3.73c-1.66,1-3.45,1.77-5.2,2.61a7.21,7.21,0,0,0-1.61.82,12.12,12.12,0,0,1,1.32.46c1.92.92,3.89,1.77,5.72,2.84a3.41,3.41,0,0,1,1.69,3.73,3.61,3.61,0,0,1-2.93,3,1.36,1.36,0,0,0-.82.88,3.56,3.56,0,0,1-2.83,2.83,3.22,3.22,0,0,1-3.55-1.32,46.59,46.59,0,0,1-2.47-4.36,7.36,7.36,0,0,1-.37-.92Z"/><path class="cls-29" d="M446.39,360.55a4,4,0,0,1,.59.05,3.58,3.58,0,0,1,3.16,3,1.13,1.13,0,0,0,.74.69,3.66,3.66,0,0,1,3,3,3.4,3.4,0,0,1-1.67,3.73c-1.66,1-3.45,1.77-5.2,2.61a7.21,7.21,0,0,0-1.61.82,12.12,12.12,0,0,1,1.32.46c1.92.92,3.89,1.77,5.72,2.84a3.41,3.41,0,0,1,1.69,3.73,3.61,3.61,0,0,1-2.93,3,1.36,1.36,0,0,0-.82.88,3.56,3.56,0,0,1-2.83,2.83,3.85,3.85,0,0,1-.88.11,3.14,3.14,0,0,1-2.67-1.43,46.59,46.59,0,0,1-2.47-4.36,7.36,7.36,0,0,1-.37-.92l-.27,0c0,2.67-.08,5.34,0,8,0,1.31-.43,1.92-1.63,2.14a27.86,27.86,0,0,1-3.06.48c3.19-3.14,3.1-7.29,4-11.11l-.3-.14c-.16.37-.31.76-.5,1.11-.74,1.33-1.42,2.71-2.27,4a3.39,3.39,0,0,1-2.88,1.57,4.62,4.62,0,0,1-1-.11,3.54,3.54,0,0,1-2.77-3c0-.15-.06-.3-.09-.42s-.14-.13-.21-.14a3.74,3.74,0,0,1-1.36-7.09c1.41-.82,2.93-1.47,4.4-2.18.3-.15.61-.25,1.18-.48-.61-.25-1-.38-1.35-.57-1.64-.87-3.34-1.66-4.9-2.67a3.63,3.63,0,0,1,1.33-6.48,1.13,1.13,0,0,0,1-1,3.36,3.36,0,0,1,2.66-2.71,4.53,4.53,0,0,1,1-.13,3,3,0,0,1,2.65,1.39c1.09,1.73,1.93,3.62,2.87,5.44.16.32.26.68.51,1.35.26-.68.38-1.06.55-1.41.78-1.61,1.48-3.27,2.4-4.8a3.7,3.7,0,0,1,3.22-2m0-2a5.64,5.64,0,0,0-4.91,3c-.48.8-.89,1.62-1.29,2.44a32,32,0,0,0-1.7-3.07,5,5,0,0,0-4.3-2.3,6.29,6.29,0,0,0-1.47.18,5.25,5.25,0,0,0-4,3.84,5.25,5.25,0,0,0-3.81,4,5.32,5.32,0,0,0,2.24,5.93c.88.57,1.79,1.06,2.69,1.53-.65.32-1.3.65-1.94,1a5.61,5.61,0,0,0-3,6.21,72,72,0,0,0,7.93,8.06,6.12,6.12,0,0,0,1.39.16,5.41,5.41,0,0,0,1.85-.32,7.84,7.84,0,0,1-1.23,1.58,2,2,0,0,0,1.37,3.35h.15a24.82,24.82,0,0,0,2.73-.41l.54-.1a3.69,3.69,0,0,0,3.23-4.15c0-.32,0-.64,0-1a5.15,5.15,0,0,0,3.82,1.68,5.56,5.56,0,0,0,1.33-.16,5.48,5.48,0,0,0,4.17-3.87,5.62,5.62,0,0,0,1.26-10.18c-1.09-.63-2.22-1.19-3.33-1.71,1-.5,2.09-1,3.11-1.64a5.32,5.32,0,0,0,2.59-5.79,5.56,5.56,0,0,0-3.91-4.35,5.41,5.41,0,0,0-4.6-3.9,6.65,6.65,0,0,0-.88-.07Z"/><path class="cls-64" d="M440.87,381.63c0,2.67-.08,5.34,0,8,0,1.31-.43,1.92-1.63,2.14a27.86,27.86,0,0,1-3.06.48c3.19-3.14,3.1-7.29,4-11.11l-.3-.14c-.16.37-.31.76-.5,1.11-.74,1.33-1.42,2.71-2.27,4a3.46,3.46,0,0,1-3.83,1.46,3.54,3.54,0,0,1-2.77-3c0-.15-.06-.3-.09-.42s-.14-.13-.21-.14a3.74,3.74,0,0,1-1.36-7.09c1.41-.82,2.93-1.47,4.4-2.18.3-.15.61-.25,1.18-.48-.61-.25-1-.38-1.35-.57-1.64-.87-3.34-1.66-4.9-2.67a3.63,3.63,0,0,1,1.33-6.48,1.13,1.13,0,0,0,1-1,3.36,3.36,0,0,1,2.66-2.71,3.23,3.23,0,0,1,3.67,1.26c1.09,1.73,1.93,3.62,2.87,5.44.16.32.26.68.51,1.35.26-.68.38-1.06.55-1.41.78-1.61,1.48-3.27,2.4-4.8a3.64,3.64,0,0,1,3.81-2,3.58,3.58,0,0,1,3.16,3,1.13,1.13,0,0,0,.74.69,3.66,3.66,0,0,1,3,3,3.4,3.4,0,0,1-1.67,3.73c-1.66,1-3.45,1.77-5.2,2.61a7.21,7.21,0,0,0-1.61.82,12.12,12.12,0,0,1,1.32.46c1.92.92,3.89,1.77,5.72,2.84a3.41,3.41,0,0,1,1.69,3.73,3.61,3.61,0,0,1-2.93,3,1.36,1.36,0,0,0-.82.88,3.56,3.56,0,0,1-2.83,2.83,3.22,3.22,0,0,1-3.55-1.32,46.59,46.59,0,0,1-2.47-4.36,7.36,7.36,0,0,1-.37-.92Z"/><path class="cls-65" d="M429.42,365.71a4.85,4.85,0,0,1,3.2,1.09,5.1,5.1,0,0,1,.7-2.58l.8-1a4.73,4.73,0,0,1,2.56-1.37,3.26,3.26,0,0,0-3.51-1.06,3.36,3.36,0,0,0-2.66,2.71,1.13,1.13,0,0,1-1,1,3.45,3.45,0,0,0-2.38,1.74A5.12,5.12,0,0,1,429.42,365.71Z"/><path class="cls-65" d="M446.37,363.7a3.84,3.84,0,0,1,1.07,1.66,3.9,3.9,0,0,1,.44,2,6.51,6.51,0,0,1-.12,1.24,5.32,5.32,0,0,1,1.23-.14,4.7,4.7,0,0,1,4,1.95,3.37,3.37,0,0,0,.88-3.11,3.66,3.66,0,0,0-3-3,1.13,1.13,0,0,1-.74-.69,3.71,3.71,0,0,0-6.74-1.4,3.9,3.9,0,0,1,1.32.41A3.79,3.79,0,0,1,446.37,363.7Z"/><path class="cls-65" d="M450,382.87a4.66,4.66,0,0,1-4.36,2.57,5.63,5.63,0,0,1-1.19-.13,6.9,6.9,0,0,1-1.49-.14h0a18.39,18.39,0,0,0,1,1.7,3.22,3.22,0,0,0,3.55,1.32,3.56,3.56,0,0,0,2.83-2.83,1.36,1.36,0,0,1,.82-.88,3.61,3.61,0,0,0,2.93-3,.22.22,0,0,1,0-.08C453.81,381.43,451.37,382.8,450,382.87Z"/><path class="cls-65" d="M432,381.54a5.69,5.69,0,0,1-1.48.2,4.74,4.74,0,0,1-3.77-1.65h0a4,4,0,0,0,.08.9,3.68,3.68,0,0,0,3.38,3c.07,0,.12.08.21.14s.05.27.09.42a3.69,3.69,0,0,0,5.83,2.41C434.16,386.67,432.27,382.1,432,381.54Z"/><path class="cls-29" d="M431,370a.6.6,0,0,1-.34-.11l-1-.75a.59.59,0,0,1-.14-.82.58.58,0,0,1,.82-.14l1,.75a.59.59,0,0,1,.14.82A.61.61,0,0,1,431,370Z"/><path class="cls-29" d="M450.17,379.52a.58.58,0,0,1-.26-.06l-2.57-1.22a.59.59,0,0,1,.52-1.06l2.57,1.23a.57.57,0,0,1,.26.78A.58.58,0,0,1,450.17,379.52Z"/><g class="cls-32"><path d="M168.14,363.26l-15-.83a.6.6,0,0,0-.35.1l-12.52,8.64a.58.58,0,0,0-.21.65l5.66,15.93a.55.55,0,0,0,.34.34l15.3,5.39a.58.58,0,0,0,.62-.17l9.94-12a.56.56,0,0,0,.11-.47l-3.34-17.15A.56.56,0,0,0,168.14,363.26Z"/><path d="M153.08,362.43h0l15,.83a.56.56,0,0,1,.52.45L172,380.86a.56.56,0,0,1-.11.47l-9.94,12a.57.57,0,0,1-.44.2l-.18,0L146,388.09a.55.55,0,0,1-.34-.34L140,371.82a.58.58,0,0,1,.21-.65l12.52-8.64a.58.58,0,0,1,.32-.1m0-1.84a2.42,2.42,0,0,0-1.37.43l-12.51,8.63a2.41,2.41,0,0,0-.9,2.78L144,388.37a2.38,2.38,0,0,0,1.46,1.46l15.3,5.38a2.35,2.35,0,0,0,.79.14,2.4,2.4,0,0,0,1.85-.87l9.94-12a2.38,2.38,0,0,0,.51-2l-3.35-17.15a2.39,2.39,0,0,0-2.22-1.94l-15-.82Z"/></g><path class="cls-29" d="M167.14,362.26l-15-.83a.6.6,0,0,0-.35.1l-12.52,8.64a.58.58,0,0,0-.21.65l5.66,15.93a.55.55,0,0,0,.34.34l15.3,5.39a.58.58,0,0,0,.62-.17l9.94-12a.56.56,0,0,0,.11-.47l-3.34-17.15A.56.56,0,0,0,167.14,362.26Z"/><path class="cls-29" d="M152.08,361.43h0l15,.83a.56.56,0,0,1,.52.45L171,379.86a.56.56,0,0,1-.11.47l-9.94,12a.57.57,0,0,1-.44.2l-.18,0L145,387.09a.55.55,0,0,1-.34-.34L139,370.82a.58.58,0,0,1,.21-.65l12.52-8.64a.58.58,0,0,1,.32-.1m0-1.84a2.42,2.42,0,0,0-1.37.43l-12.51,8.63a2.41,2.41,0,0,0-.9,2.78L143,387.37a2.38,2.38,0,0,0,1.46,1.46l15.3,5.38a2.35,2.35,0,0,0,.79.14,2.4,2.4,0,0,0,1.85-.87l9.94-12a2.38,2.38,0,0,0,.51-2l-3.35-17.15a2.39,2.39,0,0,0-2.22-1.94l-15-.82Z"/><path class="cls-66" d="M167.14,362.26l-15-.83a.6.6,0,0,0-.35.1l-12.52,8.64a.58.58,0,0,0-.21.65l5.66,15.93a.55.55,0,0,0,.34.34l15.3,5.39a.58.58,0,0,0,.62-.17l9.94-12a.56.56,0,0,0,.11-.47l-3.34-17.15A.56.56,0,0,0,167.14,362.26Z"/><path class="cls-31" d="M155.21,373.1l-13.46-2.69a.56.56,0,0,1-.21-1l10.39-7.17a.59.59,0,0,1,.34-.1l12.52.69a.56.56,0,0,1,.36,1L155.71,373A.56.56,0,0,1,155.21,373.1Z"/><path class="cls-5" d="M158.7,391l-13-4.56a.59.59,0,0,1-.35-.34l-4.84-13.64a.56.56,0,0,1,.64-.74l13.75,2.74a.56.56,0,0,1,.43.41l4.06,15.46A.56.56,0,0,1,158.7,391Z"/><ellipse class="cls-67" cx="159.59" cy="375.18" rx="2.91" ry="1.65" transform="translate(-234.16 480.95) rotate(-81.99)"/><ellipse class="cls-67" cx="153.76" cy="367.24" rx="2.91" ry="1.65" transform="translate(-81.42 46) rotate(-13.49)"/><ellipse class="cls-67" cx="164.52" cy="377.53" rx="2.91" ry="1.38" transform="translate(-232.24 487.87) rotate(-81.99)"/><ellipse class="cls-67" cx="166.45" cy="369.62" rx="2.91" ry="1.38" transform="translate(-222.75 482.97) rotate(-81.99)"/><ellipse class="cls-67" cx="162.8" cy="385.55" rx="2.91" ry="1.38" transform="translate(-241.67 493.06) rotate(-81.99)"/><ellipse class="cls-67" cx="153.24" cy="384.74" rx="1.38" ry="2.91" transform="translate(-191.3 154.96) rotate(-34.58)"/><ellipse class="cls-67" cx="145.57" cy="377.63" rx="1.38" ry="2.91" transform="translate(-191.95 154.29) rotate(-35.43)"/><ellipse class="cls-67" cx="168.26" cy="378.85" rx="2.91" ry="1.38" transform="translate(-230.33 492.71) rotate(-81.99)"/><g class="cls-32"><polygon points="457 237.64 456.98 237.63 456.99 237.63 456.97 237.62 451.32 233.54 461.93 225.89 461.99 225.87 461.96 225.87 461.97 225.86 461.94 225.87 448.81 225.85 450.94 219.23 445.36 223.32 441.32 210.84 437.23 223.44 431.49 219.3 433.7 225.92 420.57 225.92 431.25 233.59 425.63 237.69 432.55 237.68 428.48 250.1 439.15 242.38 441.36 249.1 443.48 242.45 454.1 250.18 449.99 237.63 456.95 237.63 457 237.64"/><path d="M441.32,210.84l4,12.48,5.58-4.09-2.13,6.62,13.13,0H462l-.06,0-10.61,7.65,5.65,4.08h-7l4.11,12.55-10.62-7.73-2.12,6.65-2.21-6.72-10.67,7.73,4.07-12.43h-6.92l5.62-4.1-10.67-7.67h13.13l-2.22-6.62,5.74,4.14,4.09-12.6m0-2a2,2,0,0,0-1.9,1.39l-3.24,10-3.52-2.53a2,2,0,0,0-1.17-.38,2,2,0,0,0-1.89,2.64l1.33,4H420.58a2,2,0,0,0-1.17,3.62l8.43,6.07-3.39,2.46a2,2,0,0,0,1.18,3.62h4.16l-3.21,9.8a2,2,0,0,0,3.07,2.25l8.46-6.12,1.35,4.11a2,2,0,0,0,1.9,1.38h0a2,2,0,0,0,1.9-1.39l1.28-4,8.38,6.1a2,2,0,0,0,2.35,0,2,2,0,0,0,.73-2.24l-3.25-9.93H457a2,2,0,0,0,1.78-1.09,2,2,0,0,0-.25-2.2,1.77,1.77,0,0,0-.51-.43l-3.28-2.38,8.17-5.89a2,2,0,0,0-.44-3.72,1.7,1.7,0,0,0-.51-.07h-.18l-10.23,0,1.3-4a2,2,0,0,0-.74-2.23,2,2,0,0,0-1.17-.38,2,2,0,0,0-1.18.39l-3.35,2.45-3.19-9.84a2,2,0,0,0-1.9-1.39Z"/></g><polygon class="cls-29" points="456 236.64 455.98 236.63 455.99 236.63 455.97 236.62 450.32 232.54 460.93 224.89 460.99 224.87 460.96 224.87 460.97 224.86 460.94 224.87 447.81 224.85 449.94 218.23 444.36 222.32 440.32 209.84 436.23 222.44 430.49 218.3 432.7 224.92 419.57 224.92 430.25 232.59 424.63 236.69 431.55 236.68 427.48 249.1 438.15 241.38 440.36 248.1 442.48 241.45 453.1 249.18 448.99 236.63 455.95 236.63 456 236.64"/><path class="cls-29" d="M440.32,209.84l4,12.48,5.58-4.09-2.13,6.62,13.13,0H461l-.06,0-10.61,7.65,5.65,4.08h-7l4.11,12.55-10.62-7.73-2.12,6.65-2.21-6.72-10.67,7.73,4.07-12.43h-6.92l5.62-4.1-10.67-7.67h13.13l-2.22-6.62,5.74,4.14,4.09-12.6m0-2a2,2,0,0,0-1.9,1.39l-3.24,10-3.52-2.53a2,2,0,0,0-1.17-.38,2,2,0,0,0-1.89,2.64l1.33,4H419.58a2,2,0,0,0-1.17,3.62l8.43,6.07-3.39,2.46a2,2,0,0,0,1.18,3.62h4.16l-3.21,9.8a2,2,0,0,0,3.07,2.25l8.46-6.12,1.35,4.11a2,2,0,0,0,1.9,1.38h0a2,2,0,0,0,1.9-1.39l1.28-4,8.38,6.1a2,2,0,0,0,2.35,0,2,2,0,0,0,.73-2.24l-3.25-9.93H456a2,2,0,0,0,1.78-1.09,2,2,0,0,0-.25-2.2,1.77,1.77,0,0,0-.51-.43l-3.28-2.38,8.17-5.89a2,2,0,0,0-.44-3.72,1.7,1.7,0,0,0-.51-.07h-.18l-10.23,0,1.3-4a2,2,0,0,0-.74-2.23,2,2,0,0,0-1.17-.38,2,2,0,0,0-1.18.39l-3.35,2.45-3.19-9.84a2,2,0,0,0-1.9-1.39Z"/><polygon class="cls-68" points="440.33 231.55 440.27 239.87 453.1 249.2 440.33 231.55"/><polygon class="cls-69" points="440.33 231.55 448.16 234.12 453.1 249.2 440.33 231.55"/><polygon class="cls-68" points="440.33 231.55 445.18 224.89 440.32 209.87 440.33 231.55"/><polygon class="cls-69" points="440.33 231.55 435.42 224.98 440.32 209.87 440.33 231.55"/><polygon class="cls-68" points="440.33 231.55 432.39 234.11 427.48 249.13 440.33 231.55"/><polygon class="cls-69" points="440.33 231.55 440.27 239.87 427.48 249.13 440.33 231.55"/><polygon class="cls-68" points="440.33 231.55 435.43 224.94 419.57 224.94 440.33 231.55"/><polygon class="cls-69" points="440.33 231.55 432.39 234.16 419.57 224.94 440.33 231.55"/><polygon class="cls-68" points="440.33 231.55 448.16 234.12 460.97 224.88 440.33 231.55"/><polygon class="cls-69" points="440.33 231.55 445.1 224.87 460.99 224.89 440.33 231.55"/><polygon class="cls-68" points="440.33 231.6 436.61 236.69 440.35 248.12 440.33 231.6"/><polygon class="cls-69" points="440.33 231.6 444.01 236.65 440.35 248.12 440.33 231.6"/><polygon class="cls-68" points="440.33 231.6 446.27 229.65 449.94 218.25 440.33 231.6"/><polygon class="cls-69" points="440.33 231.6 440.22 225.38 449.94 218.25 440.33 231.6"/><polygon class="cls-68" points="440.33 231.6 434.31 229.65 424.62 236.71 440.33 231.6"/><polygon class="cls-69" points="440.33 231.6 436.61 236.69 424.62 236.71 440.33 231.6"/><polygon class="cls-68" points="440.33 231.6 440.24 225.36 430.49 218.32 440.33 231.6"/><polygon class="cls-69" points="440.33 231.6 434.29 229.69 430.49 218.32 440.33 231.6"/><polygon class="cls-68" points="440.33 231.6 444.01 236.65 455.99 236.65 440.33 231.6"/><polygon class="cls-69" points="440.33 231.6 446.23 229.6 456 236.66 440.33 231.6"/><polygon class="cls-68" points="440.33 231.55 440.27 239.87 453.1 249.2 440.33 231.55"/><polygon class="cls-69" points="440.33 231.55 448.16 234.12 453.1 249.2 440.33 231.55"/><polygon class="cls-68" points="440.33 231.55 445.18 224.89 440.32 209.87 440.33 231.55"/><polygon class="cls-69" points="440.33 231.55 435.42 224.98 440.32 209.87 440.33 231.55"/><polygon class="cls-68" points="440.33 231.55 432.39 234.11 427.48 249.13 440.33 231.55"/><polygon class="cls-69" points="440.33 231.55 440.27 239.87 427.48 249.13 440.33 231.55"/><polygon class="cls-68" points="440.33 231.55 435.43 224.94 419.57 224.94 440.33 231.55"/><polygon class="cls-69" points="440.33 231.55 432.39 234.16 419.57 224.94 440.33 231.55"/><polygon class="cls-68" points="440.33 231.55 448.16 234.12 460.97 224.88 440.33 231.55"/><polygon class="cls-69" points="440.33 231.55 445.1 224.87 460.99 224.89 440.33 231.55"/></g></g></svg>