<?xml version="1.0" encoding="UTF-8"?>
<svg id="Layer_1" data-name="Layer 1" xmlns="http://www.w3.org/2000/svg" version="1.1" viewBox="0 0 1022.2 705.7">
  <defs>
    <style>
      .cls-1, .cls-2 {
        isolation: isolate;
      }

      .cls-3 {
        stroke-width: 1.6px;
      }

      .cls-3, .cls-4, .cls-5 {
        fill: none;
        stroke-linecap: round;
        stroke-linejoin: round;
      }

      .cls-3, .cls-5 {
        stroke: #333;
      }

      .cls-4 {
        stroke: #606060;
        stroke-width: 1.6px;
      }

      .cls-5 {
        stroke-width: 1.5px;
      }

      .cls-6, .cls-2 {
        fill: #333;
        stroke-width: 0px;
      }

      .cls-7 {
        mix-blend-mode: overlay;
        opacity: .2;
      }

      .cls-2 {
        opacity: .1;
      }
    </style>
  </defs>
  <g class="cls-1">
    <g id="Layer_2" data-name="Layer 2">
      <g id="Layer_1-2" data-name="Layer 1-2">
        <g class="cls-7">
          <path class="cls-5" d="M1,638h974.9M1,568.3h974.9M1,495.4h974.9M1,426.9h974.9M1,354h974.9M1,285.4h974.9M1,212.5h974.9M1,143.6h974.9M1,70.6h974.9"/>
          <path class="cls-3" d="M47.9,9.4v689.7M125.7,9.4v689.7M207.2,9.4v689.7M288.1,9.4v689.7M365.9,9.4v689.7M447.4,9.4v689.7M523.9,9.4v689.7M605.4,9.4v689.7M681.9,9.4v689.7M763.3,9.4v689.7M840.4,9.4v689.7M921.8,9.4v689.7"/>
        </g>
        <rect class="cls-6" x="157.5" y="10" width="3.3" height="690.5"/>
        <rect class="cls-6" x="805.8" y="10" width="3.3" height="690.5"/>
        <rect class="cls-2" x="157.5" y="10" width="648.3" height="690.5"/>
        <path class="cls-4" d="M21.2,424.1v-100.3l9.8,80.7s2.5-79.5,3.7-80.7,8.6,70.9,8.6,70.9v-96.6l6.1,126,8.6-149.2v108.8l12.2-90.5,2.4,111.3,7.3-94.2v100.3l6.4-109.4,4.4,73.9v-65l7.7,103,3.3-119.6,4.4,93.1,6.6-71.1v81.6l12.7-89.8v106.4l5-71.6,4.4,36.4,6.1-95.9,8.3,105.8,8.8-57.3v98.1l9.4-115.2.6,60.1s8.8-36.9,8.8-29.2,1.6,40.2,1.6,40.2l1.1-54.6,8.3,88.7,10.5-86.5,5,65,12.7-71.6-2.8,105.3,12.1-145.5v168.6l13.2-129,2.2,87.6s7.2-88.7,8.3-84.3c1.1,4.4,5.5,87.6,5.5,87.6l5-36.9,8.8,20.4,5-79.9,4.4,95.3,11.6-77.1,3.9,78.3,7.7-90.9,11,111.3,4.4-104.2,8.3,96.4,12.1-119v120.7l19.8-113.5.4,105.3s14.4-235.3,14.4-233.1-4.4,159.3-4.4,159.3l14.3-201.1.5,88.7,5-108.6,6.1,114.1,6.1-58.4,5.5,100.9,5.5-67.8-2.2,120.1s13.8-101.4,13.8-99.8,3.3,83.2,3.3,83.2c0,0,1.6-82.1,2.2-76.6.5,5.5,6.1,119,6.1,119l3.9-62.3,2.2,89.3v-59l10.5,127.3s5.5-58,5.5-53.2,6.1,67.6,6.1,67.6l18.2-83.8v99.7l11-56.8-2.8,92,14.9-98.6,2.2,86.5,12.7-95.3-11.6,125.6,20.9-117.4,3.9,114.1,16-98.1,9.9,90.9,2.8-81.6,9.4,126.8,7.7-104.2,7.7,135.6,8.8-128.4,5.5,70.5,6.1-45.2s8.8,76,8.8,73.8,1.1-79.4,1.1-79.4c0,0,13.2,85.4,14.3,78.8,1.1-6.6,7.2-70,7.2-70l3.3,85.4,14.9-81.6,2.8,83.8,5-64.5,8.3,104.2s6.1-151.5,6.1-149.9,14.3,134.5,14.3,134.5l3.3-72.7v72.7s15.4-48.5,15.4-46.3v61.7l8.3-78.8,2.8,72.7,11-79.4,4.9,64.5,11.7-40.2v61.2l12.7-99.2,5,129,12.1-93.1s-6.1,89.8-3.3,86.5,10.5-103.6,10.5-100.8,9.9,107.5,9.9,104.7,7.2-93.1,7.2-93.1l5,53.5,11.6-93.7s-.5,95.3-.5,93.7,13.8-63.9,13.8-62.3v95.9l8.3-87.6v66.7l9.4-69.4s3.3,80.5,4.4,69.4,9.9-99.2,9.9-99.2c0,0,6.6,120.7,7.7,112.4,1.1-8.3,3.9-103.6,3.9-103.6,0,0,6.6,72.2,8.8,69.4,2.2-2.8,14.9-61.2,14.9-61.2l5,61.7,12.1-59s-5,72.7-5,68.9,19.3-122.9,19.3-122.9l12.1,126.2,13.8-108.6,5,111.3,8.8-110.2"/>
      </g>
    </g>
  </g>
</svg>