<?xml version="1.0" encoding="UTF-8"?>
<svg id="Layer_2" data-name="Layer 2" xmlns="http://www.w3.org/2000/svg" version="1.1" viewBox="0 0 308.8 170.5">
  <defs>
    <style>
      .cls-1 {
        fill: #fff;
        stroke: #606060;
        stroke-miterlimit: 10;
        stroke-width: .5px;
      }

      .cls-2 {
        fill: #999;
        stroke-width: 0px;
      }
    </style>
  </defs>
  <g id="Layer_1-2" data-name="Layer 1-2">
    <rect class="cls-1" x=".3" y=".3" width="308.2" height="28" rx="4.2" ry="4.2"/>
    <rect class="cls-1" x=".3" y="36.2" width="308.2" height="28" rx="4.2" ry="4.2"/>
  </g>
  <g>
    <path class="cls-2" d="M15.3,10.1v8.1h-1v-8.1h1Z"/>
    <path class="cls-2" d="M17.2,13.9c0-.6,0-1.1,0-1.6h.9v1h0c.3-.6,1-1.1,1.9-1.1s2.1.5,2.1,2.5v3.5h-1.1v-3.3c0-.9-.3-1.7-1.3-1.7s-1.2.5-1.4,1.1c0,.1,0,.3,0,.5v3.5h-1.1v-4.2Z"/>
    <path class="cls-2" d="M23.8,14.2c0-.7,0-1.3,0-1.9h.9v1h0c.4-.7,1.1-1.1,2.1-1.1,1.4,0,2.5,1.2,2.5,3s-1.3,3.1-2.6,3.1-1.4-.3-1.8-.9h0v3.2h-1v-6.3ZM24.9,15.8c0,.2,0,.3,0,.4.2.7.8,1.2,1.6,1.2,1.1,0,1.8-.9,1.8-2.2s-.6-2.2-1.7-2.2-1.4.5-1.6,1.3c0,.1,0,.3,0,.4v1Z"/>
    <path class="cls-2" d="M35.5,16.6c0,.6,0,1.1,0,1.6h-.9v-.9h0c-.3.5-.9,1.1-1.9,1.1s-2-.5-2-2.5v-3.4h1.1v3.2c0,1.1.3,1.8,1.3,1.8s1.2-.5,1.4-1c0-.2,0-.3,0-.5v-3.6h1.1v4.2Z"/>
    <path class="cls-2" d="M38.5,10.7v1.7h1.5v.8h-1.5v3.1c0,.7.2,1.1.8,1.1s.5,0,.6,0v.8c-.2,0-.5.1-.9.1s-.9-.2-1.1-.4c-.3-.3-.4-.8-.4-1.5v-3.2h-.9v-.8h.9v-1.4l1-.3Z"/>
    <path class="cls-2" d="M45,10.7c0,.4-.3.6-.7.6s-.6-.3-.6-.6.3-.7.7-.7.6.3.6.7ZM43.8,18.1v-5.8h1.1v5.8h-1.1Z"/>
    <path class="cls-2" d="M46.6,13.9c0-.6,0-1.1,0-1.6h.9v1h0c.3-.6,1-1.1,1.9-1.1s2.1.5,2.1,2.5v3.5h-1.1v-3.3c0-.9-.3-1.7-1.3-1.7s-1.2.5-1.4,1.1c0,.1,0,.3,0,.5v3.5h-1.1v-4.2Z"/>
    <path class="cls-2" d="M53.4,18.1v-5h-.8v-.8h.8v-.3c0-.8.2-1.6.7-2,.4-.4.9-.5,1.4-.5s.7,0,.9.2v.8c-.3,0-.5-.1-.8-.1-.9,0-1.1.8-1.1,1.7v.3h1.4v.8h-1.4v5h-1Z"/>
    <path class="cls-2" d="M61.8,15.2c0,2.1-1.5,3.1-2.9,3.1s-2.8-1.2-2.8-3,1.3-3.1,2.9-3.1,2.8,1.2,2.8,3ZM57.2,15.3c0,1.3.7,2.2,1.8,2.2s1.8-.9,1.8-2.3-.5-2.2-1.7-2.2-1.8,1.2-1.8,2.3Z"/>
    <path class="cls-2" d="M63.2,14.2c0-.7,0-1.3,0-1.8h.9v1.1h0c.3-.8.9-1.3,1.6-1.3s.2,0,.3,0v1c-.1,0-.2,0-.4,0-.7,0-1.3.6-1.4,1.4,0,.1,0,.3,0,.5v3.1h-1v-4Z"/>
    <path class="cls-2" d="M67.2,13.9c0-.6,0-1.1,0-1.6h.9v.9h0c.3-.6.9-1.1,1.8-1.1s1.4.5,1.6,1.2h0c.2-.3.4-.6.6-.8.3-.3.7-.4,1.3-.4s1.9.5,1.9,2.5v3.4h-1v-3.3c0-1.1-.4-1.8-1.3-1.8s-1.1.4-1.2,1c0,.1,0,.3,0,.5v3.6h-1v-3.5c0-.9-.4-1.6-1.2-1.6s-1.1.5-1.3,1.1c0,.2,0,.3,0,.5v3.5h-1v-4.2Z"/>
    <path class="cls-2" d="M80.4,18.1v-.7h-.1c-.3.5-.9.9-1.8.9-1.2,0-1.8-.8-1.8-1.7,0-1.4,1.2-2.2,3.5-2.2h0c0-.6-.1-1.5-1.3-1.5s-1.1.2-1.5.4l-.2-.7c.5-.3,1.2-.5,1.9-.5,1.8,0,2.2,1.2,2.2,2.4v2.2c0,.5,0,1,0,1.4h-1ZM80.2,15.2c-1.2,0-2.5.2-2.5,1.3s.5,1,1,1,1.2-.5,1.4-1c0-.1,0-.2,0-.3v-1Z"/>
    <path class="cls-2" d="M84.2,10.7v1.7h1.5v.8h-1.5v3.1c0,.7.2,1.1.8,1.1s.5,0,.6,0v.8c-.2,0-.5.1-.9.1s-.9-.2-1.1-.4c-.3-.3-.4-.8-.4-1.5v-3.2h-.9v-.8h.9v-1.4l1-.3Z"/>
    <path class="cls-2" d="M88,10.7c0,.4-.3.6-.7.6s-.6-.3-.6-.6.3-.7.7-.7.6.3.6.7ZM86.9,18.1v-5.8h1.1v5.8h-1.1Z"/>
    <path class="cls-2" d="M94.9,15.2c0,2.1-1.5,3.1-2.9,3.1s-2.8-1.2-2.8-3,1.3-3.1,2.9-3.1,2.8,1.2,2.8,3ZM90.3,15.3c0,1.3.7,2.2,1.8,2.2s1.8-.9,1.8-2.3-.5-2.2-1.7-2.2-1.8,1.2-1.8,2.3Z"/>
    <path class="cls-2" d="M96.3,13.9c0-.6,0-1.1,0-1.6h.9v1h0c.3-.6,1-1.1,1.9-1.1s2.1.5,2.1,2.5v3.5h-1.1v-3.3c0-.9-.3-1.7-1.3-1.7s-1.2.5-1.4,1.1c0,.1,0,.3,0,.5v3.5h-1.1v-4.2Z"/>
  </g>
  <g>
    <path class="cls-2" d="M15.3,45.3v8.1h-1v-8.1h1Z"/>
    <path class="cls-2" d="M17.2,49.1c0-.6,0-1.1,0-1.6h.9v1h0c.3-.6,1-1.1,1.9-1.1s2.1.5,2.1,2.5v3.5h-1.1v-3.3c0-.9-.3-1.7-1.3-1.7s-1.2.5-1.4,1.1c0,.1,0,.3,0,.5v3.5h-1.1v-4.2Z"/>
    <path class="cls-2" d="M23.8,49.5c0-.7,0-1.3,0-1.9h.9v1h0c.4-.7,1.1-1.1,2.1-1.1,1.4,0,2.5,1.2,2.5,3s-1.3,3.1-2.6,3.1-1.4-.3-1.8-.9h0v3.2h-1v-6.3ZM24.9,51c0,.2,0,.3,0,.4.2.7.8,1.2,1.6,1.2,1.1,0,1.8-.9,1.8-2.2s-.6-2.2-1.7-2.2-1.4.5-1.6,1.3c0,.1,0,.3,0,.4v1Z"/>
    <path class="cls-2" d="M35.5,51.8c0,.6,0,1.1,0,1.6h-.9v-.9h0c-.3.5-.9,1.1-1.9,1.1s-2-.5-2-2.5v-3.4h1.1v3.2c0,1.1.3,1.8,1.3,1.8s1.2-.5,1.4-1c0-.2,0-.3,0-.5v-3.6h1.1v4.2Z"/>
    <path class="cls-2" d="M38.5,45.9v1.7h1.5v.8h-1.5v3.1c0,.7.2,1.1.8,1.1s.5,0,.6,0v.8c-.2,0-.5.1-.9.1s-.9-.2-1.1-.4c-.3-.3-.4-.8-.4-1.5v-3.2h-.9v-.8h.9v-1.4l1-.3Z"/>
    <path class="cls-2" d="M45,45.9c0,.4-.3.6-.7.6s-.6-.3-.6-.6.3-.7.7-.7.6.3.6.7ZM43.8,53.4v-5.8h1.1v5.8h-1.1Z"/>
    <path class="cls-2" d="M46.6,49.1c0-.6,0-1.1,0-1.6h.9v1h0c.3-.6,1-1.1,1.9-1.1s2.1.5,2.1,2.5v3.5h-1.1v-3.3c0-.9-.3-1.7-1.3-1.7s-1.2.5-1.4,1.1c0,.1,0,.3,0,.5v3.5h-1.1v-4.2Z"/>
    <path class="cls-2" d="M53.4,53.4v-5h-.8v-.8h.8v-.3c0-.8.2-1.6.7-2,.4-.4.9-.5,1.4-.5s.7,0,.9.2v.8c-.3,0-.5-.1-.8-.1-.9,0-1.1.8-1.1,1.7v.3h1.4v.8h-1.4v5h-1Z"/>
    <path class="cls-2" d="M61.8,50.4c0,2.1-1.5,3.1-2.9,3.1s-2.8-1.2-2.8-3,1.3-3.1,2.9-3.1,2.8,1.2,2.8,3ZM57.2,50.5c0,1.3.7,2.2,1.8,2.2s1.8-.9,1.8-2.3-.5-2.2-1.7-2.2-1.8,1.2-1.8,2.3Z"/>
    <path class="cls-2" d="M63.2,49.4c0-.7,0-1.3,0-1.8h.9v1.1h0c.3-.8.9-1.3,1.6-1.3s.2,0,.3,0v1c-.1,0-.2,0-.4,0-.7,0-1.3.6-1.4,1.4,0,.1,0,.3,0,.5v3.1h-1v-4Z"/>
    <path class="cls-2" d="M67.2,49.1c0-.6,0-1.1,0-1.6h.9v.9h0c.3-.6.9-1.1,1.8-1.1s1.4.5,1.6,1.2h0c.2-.3.4-.6.6-.8.3-.3.7-.4,1.3-.4s1.9.5,1.9,2.5v3.4h-1v-3.3c0-1.1-.4-1.8-1.3-1.8s-1.1.4-1.2,1c0,.1,0,.3,0,.5v3.6h-1v-3.5c0-.9-.4-1.6-1.2-1.6s-1.1.5-1.3,1.1c0,.2,0,.3,0,.5v3.5h-1v-4.2Z"/>
    <path class="cls-2" d="M80.4,53.4v-.7h-.1c-.3.5-.9.9-1.8.9-1.2,0-1.8-.8-1.8-1.7,0-1.4,1.2-2.2,3.5-2.2h0c0-.6-.1-1.5-1.3-1.5s-1.1.2-1.5.4l-.2-.7c.5-.3,1.2-.5,1.9-.5,1.8,0,2.2,1.2,2.2,2.4v2.2c0,.5,0,1,0,1.4h-1ZM80.2,50.4c-1.2,0-2.5.2-2.5,1.3s.5,1,1,1,1.2-.5,1.4-1c0-.1,0-.2,0-.3v-1Z"/>
    <path class="cls-2" d="M84.2,45.9v1.7h1.5v.8h-1.5v3.1c0,.7.2,1.1.8,1.1s.5,0,.6,0v.8c-.2,0-.5.1-.9.1s-.9-.2-1.1-.4c-.3-.3-.4-.8-.4-1.5v-3.2h-.9v-.8h.9v-1.4l1-.3Z"/>
    <path class="cls-2" d="M88,45.9c0,.4-.3.6-.7.6s-.6-.3-.6-.6.3-.7.7-.7.6.3.6.7ZM86.9,53.4v-5.8h1.1v5.8h-1.1Z"/>
    <path class="cls-2" d="M94.9,50.4c0,2.1-1.5,3.1-2.9,3.1s-2.8-1.2-2.8-3,1.3-3.1,2.9-3.1,2.8,1.2,2.8,3ZM90.3,50.5c0,1.3.7,2.2,1.8,2.2s1.8-.9,1.8-2.3-.5-2.2-1.7-2.2-1.8,1.2-1.8,2.3Z"/>
    <path class="cls-2" d="M96.3,49.1c0-.6,0-1.1,0-1.6h.9v1h0c.3-.6,1-1.1,1.9-1.1s2.1.5,2.1,2.5v3.5h-1.1v-3.3c0-.9-.3-1.7-1.3-1.7s-1.2.5-1.4,1.1c0,.1,0,.3,0,.5v3.5h-1.1v-4.2Z"/>
  </g>
  <rect class="cls-1" x=".3" y="71.7" width="308.2" height="28" rx="4.2" ry="4.2"/>
  <g>
    <path class="cls-2" d="M15.3,80.8v8.1h-1v-8.1h1Z"/>
    <path class="cls-2" d="M17.2,84.6c0-.6,0-1.1,0-1.6h.9v1h0c.3-.6,1-1.1,1.9-1.1s2.1.5,2.1,2.5v3.5h-1.1v-3.3c0-.9-.3-1.7-1.3-1.7s-1.2.5-1.4,1.1c0,.1,0,.3,0,.5v3.5h-1.1v-4.2Z"/>
    <path class="cls-2" d="M23.8,85c0-.7,0-1.3,0-1.9h.9v1h0c.4-.7,1.1-1.1,2.1-1.1,1.4,0,2.5,1.2,2.5,3s-1.3,3.1-2.6,3.1-1.4-.3-1.8-.9h0v3.2h-1v-6.3ZM24.9,86.5c0,.2,0,.3,0,.4.2.7.8,1.2,1.6,1.2,1.1,0,1.8-.9,1.8-2.2s-.6-2.2-1.7-2.2-1.4.5-1.6,1.3c0,.1,0,.3,0,.4v1Z"/>
    <path class="cls-2" d="M35.5,87.3c0,.6,0,1.1,0,1.6h-.9v-.9h0c-.3.5-.9,1.1-1.9,1.1s-2-.5-2-2.5v-3.4h1.1v3.2c0,1.1.3,1.8,1.3,1.8s1.2-.5,1.4-1c0-.2,0-.3,0-.5v-3.6h1.1v4.2Z"/>
    <path class="cls-2" d="M38.5,81.4v1.7h1.5v.8h-1.5v3.1c0,.7.2,1.1.8,1.1s.5,0,.6,0v.8c-.2,0-.5.1-.9.1s-.9-.2-1.1-.4c-.3-.3-.4-.8-.4-1.5v-3.2h-.9v-.8h.9v-1.4l1-.3Z"/>
    <path class="cls-2" d="M45,81.4c0,.4-.3.6-.7.6s-.6-.3-.6-.6.3-.7.7-.7.6.3.6.7ZM43.8,88.9v-5.8h1.1v5.8h-1.1Z"/>
    <path class="cls-2" d="M46.6,84.6c0-.6,0-1.1,0-1.6h.9v1h0c.3-.6,1-1.1,1.9-1.1s2.1.5,2.1,2.5v3.5h-1.1v-3.3c0-.9-.3-1.7-1.3-1.7s-1.2.5-1.4,1.1c0,.1,0,.3,0,.5v3.5h-1.1v-4.2Z"/>
    <path class="cls-2" d="M53.4,88.9v-5h-.8v-.8h.8v-.3c0-.8.2-1.6.7-2,.4-.4.9-.5,1.4-.5s.7,0,.9.2v.8c-.3,0-.5-.1-.8-.1-.9,0-1.1.8-1.1,1.7v.3h1.4v.8h-1.4v5h-1Z"/>
    <path class="cls-2" d="M61.8,85.9c0,2.1-1.5,3.1-2.9,3.1s-2.8-1.2-2.8-3,1.3-3.1,2.9-3.1,2.8,1.2,2.8,3ZM57.2,86c0,1.3.7,2.2,1.8,2.2s1.8-.9,1.8-2.3-.5-2.2-1.7-2.2-1.8,1.2-1.8,2.3Z"/>
    <path class="cls-2" d="M63.2,84.9c0-.7,0-1.3,0-1.8h.9v1.1h0c.3-.8.9-1.3,1.6-1.3s.2,0,.3,0v1c-.1,0-.2,0-.4,0-.7,0-1.3.6-1.4,1.4,0,.1,0,.3,0,.5v3.1h-1v-4Z"/>
    <path class="cls-2" d="M67.2,84.6c0-.6,0-1.1,0-1.6h.9v.9h0c.3-.6.9-1.1,1.8-1.1s1.4.5,1.6,1.2h0c.2-.3.4-.6.6-.8.3-.3.7-.4,1.3-.4s1.9.5,1.9,2.5v3.4h-1v-3.3c0-1.1-.4-1.8-1.3-1.8s-1.1.4-1.2,1c0,.1,0,.3,0,.5v3.6h-1v-3.5c0-.9-.4-1.6-1.2-1.6s-1.1.5-1.3,1.1c0,.2,0,.3,0,.5v3.5h-1v-4.2Z"/>
    <path class="cls-2" d="M80.4,88.9v-.7h-.1c-.3.5-.9.9-1.8.9-1.2,0-1.8-.8-1.8-1.7,0-1.4,1.2-2.2,3.5-2.2h0c0-.6-.1-1.5-1.3-1.5s-1.1.2-1.5.4l-.2-.7c.5-.3,1.2-.5,1.9-.5,1.8,0,2.2,1.2,2.2,2.4v2.2c0,.5,0,1,0,1.4h-1ZM80.2,85.9c-1.2,0-2.5.2-2.5,1.3s.5,1,1,1,1.2-.5,1.4-1c0-.1,0-.2,0-.3v-1Z"/>
    <path class="cls-2" d="M84.2,81.4v1.7h1.5v.8h-1.5v3.1c0,.7.2,1.1.8,1.1s.5,0,.6,0v.8c-.2,0-.5.1-.9.1s-.9-.2-1.1-.4c-.3-.3-.4-.8-.4-1.5v-3.2h-.9v-.8h.9v-1.4l1-.3Z"/>
    <path class="cls-2" d="M88,81.4c0,.4-.3.6-.7.6s-.6-.3-.6-.6.3-.7.7-.7.6.3.6.7ZM86.9,88.9v-5.8h1.1v5.8h-1.1Z"/>
    <path class="cls-2" d="M94.9,85.9c0,2.1-1.5,3.1-2.9,3.1s-2.8-1.2-2.8-3,1.3-3.1,2.9-3.1,2.8,1.2,2.8,3ZM90.3,86c0,1.3.7,2.2,1.8,2.2s1.8-.9,1.8-2.3-.5-2.2-1.7-2.2-1.8,1.2-1.8,2.3Z"/>
    <path class="cls-2" d="M96.3,84.6c0-.6,0-1.1,0-1.6h.9v1h0c.3-.6,1-1.1,1.9-1.1s2.1.5,2.1,2.5v3.5h-1.1v-3.3c0-.9-.3-1.7-1.3-1.7s-1.2.5-1.4,1.1c0,.1,0,.3,0,.5v3.5h-1.1v-4.2Z"/>
  </g>
  <rect class="cls-1" x=".3" y="107.2" width="308.2" height="28" rx="4.2" ry="4.2"/>
  <g>
    <path class="cls-2" d="M15.3,116.3v8.1h-1v-8.1h1Z"/>
    <path class="cls-2" d="M17.2,120.2c0-.6,0-1.1,0-1.6h.9v1h0c.3-.6,1-1.1,1.9-1.1s2.1.5,2.1,2.5v3.5h-1.1v-3.3c0-.9-.3-1.7-1.3-1.7s-1.2.5-1.4,1.1c0,.1,0,.3,0,.5v3.5h-1.1v-4.2Z"/>
    <path class="cls-2" d="M23.8,120.5c0-.7,0-1.3,0-1.9h.9v1h0c.4-.7,1.1-1.1,2.1-1.1,1.4,0,2.5,1.2,2.5,3s-1.3,3.1-2.6,3.1-1.4-.3-1.8-.9h0v3.2h-1v-6.3ZM24.9,122c0,.2,0,.3,0,.4.2.7.8,1.2,1.6,1.2,1.1,0,1.8-.9,1.8-2.2s-.6-2.2-1.7-2.2-1.4.5-1.6,1.3c0,.1,0,.3,0,.4v1Z"/>
    <path class="cls-2" d="M35.5,122.8c0,.6,0,1.1,0,1.6h-.9v-.9h0c-.3.5-.9,1.1-1.9,1.1s-2-.5-2-2.5v-3.4h1.1v3.2c0,1.1.3,1.8,1.3,1.8s1.2-.5,1.4-1c0-.2,0-.3,0-.5v-3.6h1.1v4.2Z"/>
    <path class="cls-2" d="M38.5,116.9v1.7h1.5v.8h-1.5v3.1c0,.7.2,1.1.8,1.1s.5,0,.6,0v.8c-.2,0-.5.1-.9.1s-.9-.2-1.1-.4c-.3-.3-.4-.8-.4-1.5v-3.2h-.9v-.8h.9v-1.4l1-.3Z"/>
    <path class="cls-2" d="M45,117c0,.4-.3.6-.7.6s-.6-.3-.6-.6.3-.7.7-.7.6.3.6.7ZM43.8,124.4v-5.8h1.1v5.8h-1.1Z"/>
    <path class="cls-2" d="M46.6,120.2c0-.6,0-1.1,0-1.6h.9v1h0c.3-.6,1-1.1,1.9-1.1s2.1.5,2.1,2.5v3.5h-1.1v-3.3c0-.9-.3-1.7-1.3-1.7s-1.2.5-1.4,1.1c0,.1,0,.3,0,.5v3.5h-1.1v-4.2Z"/>
    <path class="cls-2" d="M53.4,124.4v-5h-.8v-.8h.8v-.3c0-.8.2-1.6.7-2,.4-.4.9-.5,1.4-.5s.7,0,.9.2v.8c-.3,0-.5-.1-.8-.1-.9,0-1.1.8-1.1,1.7v.3h1.4v.8h-1.4v5h-1Z"/>
    <path class="cls-2" d="M61.8,121.4c0,2.1-1.5,3.1-2.9,3.1s-2.8-1.2-2.8-3,1.3-3.1,2.9-3.1,2.8,1.2,2.8,3ZM57.2,121.5c0,1.3.7,2.2,1.8,2.2s1.8-.9,1.8-2.3-.5-2.2-1.7-2.2-1.8,1.2-1.8,2.3Z"/>
    <path class="cls-2" d="M63.2,120.4c0-.7,0-1.3,0-1.8h.9v1.1h0c.3-.8.9-1.3,1.6-1.3s.2,0,.3,0v1c-.1,0-.2,0-.4,0-.7,0-1.3.6-1.4,1.4,0,.1,0,.3,0,.5v3.1h-1v-4Z"/>
    <path class="cls-2" d="M67.2,120.2c0-.6,0-1.1,0-1.6h.9v.9h0c.3-.6.9-1.1,1.8-1.1s1.4.5,1.6,1.2h0c.2-.3.4-.6.6-.8.3-.3.7-.4,1.3-.4s1.9.5,1.9,2.5v3.4h-1v-3.3c0-1.1-.4-1.8-1.3-1.8s-1.1.4-1.2,1c0,.1,0,.3,0,.5v3.6h-1v-3.5c0-.9-.4-1.6-1.2-1.6s-1.1.5-1.3,1.1c0,.2,0,.3,0,.5v3.5h-1v-4.2Z"/>
    <path class="cls-2" d="M80.4,124.4v-.7h-.1c-.3.5-.9.9-1.8.9-1.2,0-1.8-.8-1.8-1.7,0-1.4,1.2-2.2,3.5-2.2h0c0-.6-.1-1.5-1.3-1.5s-1.1.2-1.5.4l-.2-.7c.5-.3,1.2-.5,1.9-.5,1.8,0,2.2,1.2,2.2,2.4v2.2c0,.5,0,1,0,1.4h-1ZM80.2,121.4c-1.2,0-2.5.2-2.5,1.3s.5,1,1,1,1.2-.5,1.4-1c0-.1,0-.2,0-.3v-1Z"/>
    <path class="cls-2" d="M84.2,116.9v1.7h1.5v.8h-1.5v3.1c0,.7.2,1.1.8,1.1s.5,0,.6,0v.8c-.2,0-.5.1-.9.1s-.9-.2-1.1-.4c-.3-.3-.4-.8-.4-1.5v-3.2h-.9v-.8h.9v-1.4l1-.3Z"/>
    <path class="cls-2" d="M88,117c0,.4-.3.6-.7.6s-.6-.3-.6-.6.3-.7.7-.7.6.3.6.7ZM86.9,124.4v-5.8h1.1v5.8h-1.1Z"/>
    <path class="cls-2" d="M94.9,121.4c0,2.1-1.5,3.1-2.9,3.1s-2.8-1.2-2.8-3,1.3-3.1,2.9-3.1,2.8,1.2,2.8,3ZM90.3,121.5c0,1.3.7,2.2,1.8,2.2s1.8-.9,1.8-2.3-.5-2.2-1.7-2.2-1.8,1.2-1.8,2.3Z"/>
    <path class="cls-2" d="M96.3,120.2c0-.6,0-1.1,0-1.6h.9v1h0c.3-.6,1-1.1,1.9-1.1s2.1.5,2.1,2.5v3.5h-1.1v-3.3c0-.9-.3-1.7-1.3-1.7s-1.2.5-1.4,1.1c0,.1,0,.3,0,.5v3.5h-1.1v-4.2Z"/>
  </g>
  <rect class="cls-1" x=".3" y="142.2" width="308.2" height="28" rx="4.2" ry="4.2"/>
  <g>
    <path class="cls-2" d="M15.3,151.3v8.1h-1v-8.1h1Z"/>
    <path class="cls-2" d="M17.2,155.1c0-.6,0-1.1,0-1.6h.9v1h0c.3-.6,1-1.1,1.9-1.1s2.1.5,2.1,2.5v3.5h-1.1v-3.3c0-.9-.3-1.7-1.3-1.7s-1.2.5-1.4,1.1c0,.1,0,.3,0,.5v3.5h-1.1v-4.2Z"/>
    <path class="cls-2" d="M23.8,155.5c0-.7,0-1.3,0-1.9h.9v1h0c.4-.7,1.1-1.1,2.1-1.1,1.4,0,2.5,1.2,2.5,3s-1.3,3.1-2.6,3.1-1.4-.3-1.8-.9h0v3.2h-1v-6.3ZM24.9,157c0,.2,0,.3,0,.4.2.7.8,1.2,1.6,1.2,1.1,0,1.8-.9,1.8-2.2s-.6-2.2-1.7-2.2-1.4.5-1.6,1.3c0,.1,0,.3,0,.4v1Z"/>
    <path class="cls-2" d="M35.5,157.8c0,.6,0,1.1,0,1.6h-.9v-.9h0c-.3.5-.9,1.1-1.9,1.1s-2-.5-2-2.5v-3.4h1.1v3.2c0,1.1.3,1.8,1.3,1.8s1.2-.5,1.4-1c0-.2,0-.3,0-.5v-3.6h1.1v4.2Z"/>
    <path class="cls-2" d="M38.5,151.9v1.7h1.5v.8h-1.5v3.1c0,.7.2,1.1.8,1.1s.5,0,.6,0v.8c-.2,0-.5.1-.9.1s-.9-.2-1.1-.4c-.3-.3-.4-.8-.4-1.5v-3.2h-.9v-.8h.9v-1.4l1-.3Z"/>
    <path class="cls-2" d="M45,151.9c0,.4-.3.6-.7.6s-.6-.3-.6-.6.3-.7.7-.7.6.3.6.7ZM43.8,159.4v-5.8h1.1v5.8h-1.1Z"/>
    <path class="cls-2" d="M46.6,155.1c0-.6,0-1.1,0-1.6h.9v1h0c.3-.6,1-1.1,1.9-1.1s2.1.5,2.1,2.5v3.5h-1.1v-3.3c0-.9-.3-1.7-1.3-1.7s-1.2.5-1.4,1.1c0,.1,0,.3,0,.5v3.5h-1.1v-4.2Z"/>
    <path class="cls-2" d="M53.4,159.4v-5h-.8v-.8h.8v-.3c0-.8.2-1.6.7-2,.4-.4.9-.5,1.4-.5s.7,0,.9.2v.8c-.3,0-.5-.1-.8-.1-.9,0-1.1.8-1.1,1.7v.3h1.4v.8h-1.4v5h-1Z"/>
    <path class="cls-2" d="M61.8,156.4c0,2.1-1.5,3.1-2.9,3.1s-2.8-1.2-2.8-3,1.3-3.1,2.9-3.1,2.8,1.2,2.8,3ZM57.2,156.5c0,1.3.7,2.2,1.8,2.2s1.8-.9,1.8-2.3-.5-2.2-1.7-2.2-1.8,1.2-1.8,2.3Z"/>
    <path class="cls-2" d="M63.2,155.4c0-.7,0-1.3,0-1.8h.9v1.1h0c.3-.8.9-1.3,1.6-1.3s.2,0,.3,0v1c-.1,0-.2,0-.4,0-.7,0-1.3.6-1.4,1.4,0,.1,0,.3,0,.5v3.1h-1v-4Z"/>
    <path class="cls-2" d="M67.2,155.1c0-.6,0-1.1,0-1.6h.9v.9h0c.3-.6.9-1.1,1.8-1.1s1.4.5,1.6,1.2h0c.2-.3.4-.6.6-.8.3-.3.7-.4,1.3-.4s1.9.5,1.9,2.5v3.4h-1v-3.3c0-1.1-.4-1.8-1.3-1.8s-1.1.4-1.2,1c0,.1,0,.3,0,.5v3.6h-1v-3.5c0-.9-.4-1.6-1.2-1.6s-1.1.5-1.3,1.1c0,.2,0,.3,0,.5v3.5h-1v-4.2Z"/>
    <path class="cls-2" d="M80.4,159.4v-.7h-.1c-.3.5-.9.9-1.8.9-1.2,0-1.8-.8-1.8-1.7,0-1.4,1.2-2.2,3.5-2.2h0c0-.6-.1-1.5-1.3-1.5s-1.1.2-1.5.4l-.2-.7c.5-.3,1.2-.5,1.9-.5,1.8,0,2.2,1.2,2.2,2.4v2.2c0,.5,0,1,0,1.4h-1ZM80.2,156.4c-1.2,0-2.5.2-2.5,1.3s.5,1,1,1,1.2-.5,1.4-1c0-.1,0-.2,0-.3v-1Z"/>
    <path class="cls-2" d="M84.2,151.9v1.7h1.5v.8h-1.5v3.1c0,.7.2,1.1.8,1.1s.5,0,.6,0v.8c-.2,0-.5.1-.9.1s-.9-.2-1.1-.4c-.3-.3-.4-.8-.4-1.5v-3.2h-.9v-.8h.9v-1.4l1-.3Z"/>
    <path class="cls-2" d="M88,151.9c0,.4-.3.6-.7.6s-.6-.3-.6-.6.3-.7.7-.7.6.3.6.7ZM86.9,159.4v-5.8h1.1v5.8h-1.1Z"/>
    <path class="cls-2" d="M94.9,156.4c0,2.1-1.5,3.1-2.9,3.1s-2.8-1.2-2.8-3,1.3-3.1,2.9-3.1,2.8,1.2,2.8,3ZM90.3,156.5c0,1.3.7,2.2,1.8,2.2s1.8-.9,1.8-2.3-.5-2.2-1.7-2.2-1.8,1.2-1.8,2.3Z"/>
    <path class="cls-2" d="M96.3,155.1c0-.6,0-1.1,0-1.6h.9v1h0c.3-.6,1-1.1,1.9-1.1s2.1.5,2.1,2.5v3.5h-1.1v-3.3c0-.9-.3-1.7-1.3-1.7s-1.2.5-1.4,1.1c0,.1,0,.3,0,.5v3.5h-1.1v-4.2Z"/>
  </g>
</svg>