<?xml version="1.0" encoding="UTF-8"?>
<svg id="Layer_2" data-name="Layer 2" xmlns="http://www.w3.org/2000/svg" version="1.1" viewBox="0 0 342.6 400.1">
  <defs>
    <style>
      .cls-1 {
        fill: #bbbdbf;
      }

      .cls-1, .cls-2 {
        stroke-width: 0px;
      }

      .cls-3 {
        fill: #f3f4f7;
        stroke: #bbbdbf;
        stroke-miterlimit: 10;
        stroke-width: 1.1px;
      }

      .cls-2 {
        fill: #757575;
      }
    </style>
  </defs>
  <g>
    <g>
      <path class="cls-2" d="M55.6,227.5c1,0,1.9.8,1.9,1.9v16.5c0,1-.8,1.9-1.9,1.9h-16.5c-1,0-1.9-.8-1.9-1.9v-16.5c0-1,.8-1.9,1.9-1.9h16.5M55.6,226.5h-16.5c-1.6,0-2.9,1.3-2.9,2.9v16.5c0,1.6,1.3,2.9,2.9,2.9h16.5c1.6,0,2.9-1.3,2.9-2.9v-16.5c0-1.6-1.3-2.9-2.9-2.9h0Z"/>
      <polygon class="cls-2" points="45.1 244 39.7 238.7 41.5 236.9 45.1 240.4 53.4 232.2 55.1 233.9 45.1 244"/>
      <path class="cls-2" d="M55.6,287.2c1,0,1.9.8,1.9,1.9v16.5c0,1-.8,1.9-1.9,1.9h-16.5c-1,0-1.9-.8-1.9-1.9v-16.5c0-1,.8-1.9,1.9-1.9h16.5M55.6,286.2h-16.5c-1.6,0-2.9,1.3-2.9,2.9v16.5c0,1.6,1.3,2.9,2.9,2.9h16.5c1.6,0,2.9-1.3,2.9-2.9v-16.5c0-1.6-1.3-2.9-2.9-2.9h0Z"/>
    </g>
    <g>
      <path class="cls-2" d="M141.6,227.5c1,0,1.9.8,1.9,1.9v16.5c0,1-.8,1.9-1.9,1.9h-16.5c-1,0-1.9-.8-1.9-1.9v-16.5c0-1,.8-1.9,1.9-1.9h16.5M141.6,226.5h-16.5c-1.6,0-2.9,1.3-2.9,2.9v16.5c0,1.6,1.3,2.9,2.9,2.9h16.5c1.6,0,2.9-1.3,2.9-2.9v-16.5c0-1.6-1.3-2.9-2.9-2.9h0Z"/>
      <polygon class="cls-2" points="131.1 244 125.8 238.7 127.6 236.9 131.1 240.4 139.4 232.2 141.2 233.9 131.1 244"/>
      <path class="cls-2" d="M141.6,287.2c1,0,1.9.8,1.9,1.9v16.5c0,1-.8,1.9-1.9,1.9h-16.5c-1,0-1.9-.8-1.9-1.9v-16.5c0-1,.8-1.9,1.9-1.9h16.5M141.6,286.2h-16.5c-1.6,0-2.9,1.3-2.9,2.9v16.5c0,1.6,1.3,2.9,2.9,2.9h16.5c1.6,0,2.9-1.3,2.9-2.9v-16.5c0-1.6-1.3-2.9-2.9-2.9h0Z"/>
    </g>
    <g>
      <path class="cls-2" d="M224.2,227.5c1,0,1.9.8,1.9,1.9v16.5c0,1-.8,1.9-1.9,1.9h-16.5c-1,0-1.9-.8-1.9-1.9v-16.5c0-1,.8-1.9,1.9-1.9h16.5M224.2,226.5h-16.5c-1.6,0-2.9,1.3-2.9,2.9v16.5c0,1.6,1.3,2.9,2.9,2.9h16.5c1.6,0,2.9-1.3,2.9-2.9v-16.5c0-1.6-1.3-2.9-2.9-2.9h0Z"/>
      <polygon class="cls-2" points="213.7 244 208.4 238.7 210.2 236.9 213.7 240.4 222 232.2 223.8 233.9 213.7 244"/>
      <path class="cls-2" d="M224.2,287.2c1,0,1.9.8,1.9,1.9v16.5c0,1-.8,1.9-1.9,1.9h-16.5c-1,0-1.9-.8-1.9-1.9v-16.5c0-1,.8-1.9,1.9-1.9h16.5M224.2,286.2h-16.5c-1.6,0-2.9,1.3-2.9,2.9v16.5c0,1.6,1.3,2.9,2.9,2.9h16.5c1.6,0,2.9-1.3,2.9-2.9v-16.5c0-1.6-1.3-2.9-2.9-2.9h0Z"/>
    </g>
    <g>
      <path class="cls-2" d="M308,227.5c1,0,1.9.8,1.9,1.9v16.5c0,1-.8,1.9-1.9,1.9h-16.5c-1,0-1.9-.8-1.9-1.9v-16.5c0-1,.8-1.9,1.9-1.9h16.5M308,226.5h-16.5c-1.6,0-2.9,1.3-2.9,2.9v16.5c0,1.6,1.3,2.9,2.9,2.9h16.5c1.6,0,2.9-1.3,2.9-2.9v-16.5c0-1.6-1.3-2.9-2.9-2.9h0Z"/>
      <polygon class="cls-2" points="297.5 244 292.2 238.7 294 236.9 297.5 240.4 305.8 232.2 307.6 233.9 297.5 244"/>
      <path class="cls-2" d="M308,287.2c1,0,1.9.8,1.9,1.9v16.5c0,1-.8,1.9-1.9,1.9h-16.5c-1,0-1.9-.8-1.9-1.9v-16.5c0-1,.8-1.9,1.9-1.9h16.5M308,286.2h-16.5c-1.6,0-2.9,1.3-2.9,2.9v16.5c0,1.6,1.3,2.9,2.9,2.9h16.5c1.6,0,2.9-1.3,2.9-2.9v-16.5c0-1.6-1.3-2.9-2.9-2.9h0Z"/>
    </g>
    <g>
      <path class="cls-2" d="M133.1,354c5.4,0,9.8,4.4,9.8,9.8s-4.4,9.8-9.8,9.8-9.8-4.4-9.8-9.8,4.4-9.8,9.8-9.8M133.1,352.7h0c-6.1,0-11.1,5-11.1,11.1h0c0,6.1,5,11.1,11.1,11.1h0c6.1,0,11.1-5,11.1-11.1h0c0-6.1-5-11.1-11.1-11.1h0Z"/>
      <path class="cls-2" d="M140.5,363.8h0c0-4.1-3.3-7.3-7.3-7.3h0c-4.1,0-7.3,3.3-7.3,7.3h0c0,4.1,3.3,7.3,7.3,7.3h0c4.1,0,7.3-3.3,7.3-7.3Z"/>
      <path class="cls-2" d="M47.3,354.2c5.4,0,9.8,4.4,9.8,9.8s-4.4,9.8-9.8,9.8-9.8-4.4-9.8-9.8,4.4-9.8,9.8-9.8M47.3,352.9h0c-6.1,0-11.1,5-11.1,11.1h0c0,6.1,5,11.1,11.1,11.1h0c6.1,0,11.1-5,11.1-11.1h0c0-6.1-5-11.1-11.1-11.1h0Z"/>
      <path class="cls-2" d="M299.9,354c5.4,0,9.8,4.4,9.8,9.8s-4.4,9.8-9.8,9.8-9.8-4.4-9.8-9.8,4.4-9.8,9.8-9.8M299.9,352.7h0c-6.1,0-11.1,5-11.1,11.1h0c0,6.1,5,11.1,11.1,11.1h0c6.1,0,11.1-5,11.1-11.1h0c0-6.1-5-11.1-11.1-11.1h0Z"/>
      <path class="cls-2" d="M307.2,363.8h0c0-4.1-3.3-7.3-7.3-7.3h0c-4.1,0-7.3,3.3-7.3,7.3h0c0,4.1,3.3,7.3,7.3,7.3h0c4.1,0,7.3-3.3,7.3-7.3Z"/>
      <path class="cls-2" d="M216.1,354c5.4,0,9.8,4.4,9.8,9.8s-4.4,9.8-9.8,9.8-9.8-4.4-9.8-9.8,4.4-9.8,9.8-9.8M216.1,352.7h0c-6.1,0-11.1,5-11.1,11.1h0c0,6.1,5,11.1,11.1,11.1h0c6.1,0,11.1-5,11.1-11.1h0c0-6.1-5-11.1-11.1-11.1h0Z"/>
    </g>
  </g>
  <g>
    <rect class="cls-1" x="50.9" y="165.7" width="248.3" height="3.8" rx="1.9" ry="1.9"/>
    <circle class="cls-3" cx="186.2" cy="167.6" r="9.2"/>
  </g>
  <g>
    <rect class="cls-1" x="50.9" y="103.2" width="248.3" height="3.8" rx="1.9" ry="1.9"/>
    <circle class="cls-3" cx="116.6" cy="105.1" r="9.2"/>
  </g>
  <g>
    <rect class="cls-1" x="50.9" y="41.6" width="248.3" height="3.8" rx="1.9" ry="1.9"/>
    <circle class="cls-3" cx="247.1" cy="43.5" r="9.2"/>
  </g>
</svg>