<?xml version="1.0" encoding="UTF-8"?><svg id="Layer_2" xmlns="http://www.w3.org/2000/svg" viewBox="0 0 465.69 53.55"><defs><style>.cls-1{fill:#231f20;stroke-width:0px;}.cls-2{fill:#f2f2f2;stroke:gray;stroke-miterlimit:10;stroke-width:.89px;}</style></defs><g id="Layer_1-2"><path class="cls-1" d="M139.11,7.81c-1.29-.37-2.24-.83-2.82-1.37s-.88-1.21-.88-2.01c0-.9.36-1.65,1.08-2.24.72-.59,1.66-.88,2.81-.88.79,0,1.49.15,2.1.46s1.09.72,1.43,1.26.51,1.12.51,1.75h-1.52c0-.69-.22-1.24-.66-1.64-.44-.4-1.06-.6-1.86-.6-.74,0-1.32.16-1.74.49s-.62.78-.62,1.37c0,.47.2.86.59,1.18.4.32,1.07.62,2.02.88s1.69.56,2.23.88c.54.32.93.7,1.19,1.13.26.43.39.93.39,1.52,0,.93-.36,1.67-1.08,2.23s-1.69.84-2.9.84c-.79,0-1.52-.15-2.2-.45-.68-.3-1.21-.71-1.58-1.24s-.55-1.12-.55-1.78h1.52c0,.69.25,1.24.77,1.64s1.19.6,2.05.6c.8,0,1.41-.16,1.83-.49.42-.32.64-.77.64-1.33s-.2-.99-.59-1.3c-.39-.31-1.1-.61-2.14-.91Z"/><path class="cls-1" d="M150.3,12.06c-.57.67-1.4,1-2.49,1-.91,0-1.6-.26-2.07-.79-.47-.53-.71-1.31-.72-2.34v-5.53h1.45v5.49c0,1.29.52,1.93,1.57,1.93,1.11,0,1.85-.41,2.21-1.24v-6.18h1.45v8.5h-1.38l-.03-.84Z"/><path class="cls-1" d="M161.12,8.75c0,1.3-.3,2.34-.9,3.13-.6.79-1.4,1.18-2.4,1.18-1.07,0-1.9-.38-2.49-1.14l-.07.98h-1.33V.84h1.45v4.5c.59-.73,1.4-1.09,2.43-1.09s1.84.39,2.43,1.17c.59.78.88,1.85.88,3.21v.12ZM159.66,8.58c0-.99-.19-1.75-.57-2.29-.38-.54-.93-.81-1.65-.81-.96,0-1.65.45-2.07,1.34v3.68c.45.89,1.14,1.33,2.08,1.33.7,0,1.24-.27,1.63-.81.39-.54.58-1.35.58-2.44Z"/><path class="cls-1" d="M167.89,10.65c0-.39-.15-.7-.44-.92-.3-.22-.81-.41-1.55-.56-.74-.16-1.32-.35-1.75-.57-.43-.22-.75-.48-.96-.79s-.31-.67-.31-1.08c0-.7.29-1.29.88-1.77.59-.48,1.34-.72,2.26-.72.96,0,1.75.25,2.34.75.6.5.9,1.13.9,1.91h-1.46c0-.4-.17-.74-.51-1.03s-.76-.43-1.28-.43-.94.12-1.24.35-.45.53-.45.9c0,.35.14.62.42.79.28.18.78.35,1.5.51s1.31.36,1.76.58c.45.23.78.5,1,.81.22.32.33.7.33,1.16,0,.76-.3,1.37-.91,1.83s-1.4.69-2.36.69c-.68,0-1.28-.12-1.81-.36-.52-.24-.93-.58-1.23-1.01-.3-.43-.44-.9-.44-1.4h1.45c.03.49.22.87.58,1.16s.84.43,1.44.43c.55,0,.99-.11,1.32-.33.33-.22.5-.52.5-.89Z"/><path class="cls-1" d="M174.65,11.88c.52,0,.97-.16,1.36-.47s.6-.71.64-1.18h1.37c-.03.49-.19.95-.5,1.39-.31.44-.72.79-1.24,1.05-.52.26-1.06.39-1.64.39-1.16,0-2.08-.39-2.76-1.16-.68-.77-1.03-1.83-1.03-3.17v-.24c0-.83.15-1.56.46-2.21.3-.64.74-1.14,1.31-1.5.57-.36,1.24-.53,2.01-.53.95,0,1.74.29,2.38.86.63.57.97,1.31,1.01,2.22h-1.37c-.04-.55-.25-1-.62-1.36s-.84-.53-1.39-.53c-.74,0-1.31.27-1.72.8-.41.53-.61,1.3-.61,2.3v.28c0,.98.2,1.73.6,2.26.4.53.98.79,1.73.79Z"/><path class="cls-1" d="M183.77,5.71c-.22-.04-.46-.06-.71-.06-.95,0-1.6.41-1.94,1.22v6.03h-1.45V4.41h1.41l.02.98c.48-.76,1.15-1.14,2.03-1.14.28,0,.5.04.64.11v1.35Z"/><path class="cls-1" d="M185.11,2.15c0-.24.07-.43.22-.6.14-.16.36-.24.64-.24s.5.08.64.24.22.36.22.6-.07.43-.22.59c-.15.16-.36.24-.64.24s-.5-.08-.64-.24c-.14-.16-.22-.35-.22-.59ZM186.68,12.91h-1.45V4.41h1.45v8.5Z"/><path class="cls-1" d="M196.2,8.75c0,1.3-.3,2.34-.9,3.13-.6.79-1.4,1.18-2.4,1.18-1.07,0-1.9-.38-2.49-1.14l-.07.98h-1.33V.84h1.45v4.5c.59-.73,1.4-1.09,2.43-1.09s1.84.39,2.43,1.17c.59.78.88,1.85.88,3.21v.12ZM194.75,8.58c0-.99-.19-1.75-.57-2.29-.38-.54-.93-.81-1.65-.81-.96,0-1.65.45-2.07,1.34v3.68c.45.89,1.14,1.33,2.08,1.33.7,0,1.24-.27,1.63-.81.39-.54.58-1.35.58-2.44Z"/><path class="cls-1" d="M201.56,13.06c-1.15,0-2.09-.38-2.81-1.13s-1.08-1.77-1.08-3.04v-.27c0-.84.16-1.6.48-2.26.32-.66.77-1.18,1.35-1.55.58-.38,1.21-.56,1.88-.56,1.11,0,1.96.36,2.58,1.09.61.73.92,1.77.92,3.13v.6h-5.76c.02.84.27,1.51.73,2.03s1.06.77,1.79.77c.51,0,.95-.1,1.3-.31.36-.21.67-.49.93-.83l.89.69c-.71,1.09-1.78,1.64-3.21,1.64ZM201.38,5.44c-.59,0-1.08.21-1.48.64-.4.43-.64,1.02-.74,1.79h4.26v-.11c-.04-.74-.24-1.31-.6-1.72-.36-.41-.84-.61-1.45-.61Z"/><path class="cls-1" d="M206.2,8.58c0-1.3.31-2.35.93-3.15.62-.79,1.43-1.19,2.43-1.19s1.78.34,2.36,1.02V.84h1.45v12.06h-1.33l-.07-.91c-.58.71-1.39,1.07-2.43,1.07s-1.79-.4-2.41-1.21c-.62-.81-.93-1.86-.93-3.16v-.11ZM207.65,8.75c0,.96.2,1.72.6,2.26.4.54.95.82,1.65.82.92,0,1.59-.41,2.02-1.24v-3.9c-.43-.8-1.1-1.2-2-1.2-.71,0-1.27.28-1.67.83-.4.55-.6,1.36-.6,2.44Z"/><path class="cls-1" d="M226.15,9.91h-4.79l-1.08,2.99h-1.56l4.37-11.44h1.32l4.38,11.44h-1.55l-1.09-2.99ZM221.82,8.68h3.89l-1.95-5.35-1.94,5.35Z"/><path class="cls-1" d="M229.76,8.58c0-1.32.31-2.38.92-3.16.61-.78,1.42-1.17,2.43-1.17s1.85.37,2.43,1.1l.07-.94h1.33v8.29c0,1.1-.33,1.97-.98,2.6s-1.53.95-2.63.95c-.61,0-1.21-.13-1.8-.39-.59-.26-1.03-.62-1.34-1.08l.75-.87c.62.77,1.38,1.16,2.29,1.16.71,0,1.26-.2,1.65-.6.4-.4.59-.96.59-1.68v-.73c-.58.67-1.37,1.01-2.38,1.01s-1.8-.4-2.42-1.2c-.62-.8-.92-1.89-.92-3.28ZM231.22,8.75c0,.96.2,1.71.59,2.26.39.55.94.82,1.65.82.92,0,1.59-.42,2.02-1.25v-3.88c-.44-.81-1.11-1.22-2-1.22-.71,0-1.26.28-1.66.83-.4.55-.6,1.36-.6,2.44Z"/><path class="cls-1" d="M242.65,13.06c-1.15,0-2.09-.38-2.81-1.13s-1.08-1.77-1.08-3.04v-.27c0-.84.16-1.6.48-2.26.32-.66.77-1.18,1.35-1.55.58-.38,1.21-.56,1.88-.56,1.11,0,1.96.36,2.58,1.09.61.73.92,1.77.92,3.13v.6h-5.76c.02.84.27,1.51.73,2.03s1.06.77,1.79.77c.51,0,.95-.1,1.3-.31.36-.21.67-.49.93-.83l.89.69c-.71,1.09-1.78,1.64-3.21,1.64ZM242.47,5.44c-.59,0-1.08.21-1.48.64-.4.43-.64,1.02-.74,1.79h4.26v-.11c-.04-.74-.24-1.31-.6-1.72-.36-.41-.84-.61-1.45-.61Z"/><path class="cls-1" d="M249.02,4.41l.05,1.07c.65-.82,1.5-1.22,2.54-1.22,1.8,0,2.7,1.01,2.72,3.04v5.62h-1.45v-5.62c0-.61-.15-1.07-.42-1.36-.27-.29-.7-.44-1.28-.44-.47,0-.88.13-1.24.38-.36.25-.63.58-.83.99v6.06h-1.45V4.41h1.38Z"/><path class="cls-1" d="M258.5,2.35v2.06h1.59v1.12h-1.59v5.28c0,.34.07.6.21.77.14.17.38.26.72.26.17,0,.4-.03.69-.09v1.17c-.38.1-.75.16-1.12.16-.65,0-1.14-.2-1.47-.59-.33-.39-.5-.95-.5-1.67v-5.27h-1.55v-1.12h1.55v-2.06h1.45Z"/><path class="cls-1" d="M272.3,9.91h-4.79l-1.08,2.99h-1.56l4.37-11.44h1.32l4.38,11.44h-1.55l-1.09-2.99ZM267.97,8.68h3.89l-1.95-5.35-1.94,5.35Z"/><path class="cls-1" d="M277.83,12.91h-1.45V.84h1.45v12.06Z"/><path class="cls-1" d="M283.68,13.06c-1.15,0-2.09-.38-2.81-1.13s-1.08-1.77-1.08-3.04v-.27c0-.84.16-1.6.48-2.26.32-.66.77-1.18,1.35-1.55.58-.38,1.21-.56,1.88-.56,1.11,0,1.96.36,2.58,1.09.61.73.92,1.77.92,3.13v.6h-5.76c.02.84.27,1.51.73,2.03s1.06.77,1.79.77c.51,0,.95-.1,1.3-.31.36-.21.67-.49.93-.83l.89.69c-.71,1.09-1.78,1.64-3.21,1.64ZM283.5,5.44c-.59,0-1.08.21-1.48.64-.4.43-.64,1.02-.74,1.79h4.26v-.11c-.04-.74-.24-1.31-.6-1.72-.36-.41-.84-.61-1.45-.61Z"/><path class="cls-1" d="M292.79,5.71c-.22-.04-.46-.06-.71-.06-.95,0-1.6.41-1.94,1.22v6.03h-1.45V4.41h1.41l.02.98c.48-.76,1.15-1.14,2.03-1.14.28,0,.5.04.64.11v1.35Z"/><path class="cls-1" d="M296.49,2.35v2.06h1.59v1.12h-1.59v5.28c0,.34.07.6.21.77.14.17.38.26.72.26.17,0,.4-.03.69-.09v1.17c-.38.1-.75.16-1.12.16-.65,0-1.14-.2-1.47-.59-.33-.39-.5-.95-.5-1.67v-5.27h-1.55v-1.12h1.55v-2.06h1.45Z"/><path class="cls-1" d="M304.72,10.65c0-.39-.15-.7-.44-.92-.3-.22-.81-.41-1.55-.56-.74-.16-1.32-.35-1.75-.57-.43-.22-.75-.48-.96-.79s-.31-.67-.31-1.08c0-.7.29-1.29.88-1.77.59-.48,1.34-.72,2.26-.72.96,0,1.75.25,2.34.75.6.5.9,1.13.9,1.91h-1.46c0-.4-.17-.74-.51-1.03s-.76-.43-1.28-.43-.94.12-1.24.35-.45.53-.45.9c0,.35.14.62.42.79.28.18.78.35,1.5.51s1.31.36,1.76.58c.45.23.78.5,1,.81.22.32.33.7.33,1.16,0,.76-.3,1.37-.91,1.83s-1.4.69-2.36.69c-.68,0-1.28-.12-1.81-.36-.52-.24-.93-.58-1.23-1.01-.3-.43-.44-.9-.44-1.4h1.45c.03.49.22.87.58,1.16s.84.43,1.44.43c.55,0,.99-.11,1.32-.33.33-.22.5-.52.5-.89Z"/><path class="cls-1" d="M311.99,8.26c0-1.18.16-2.32.47-3.41.32-1.09.79-2.08,1.42-2.97.63-.89,1.28-1.52,1.96-1.89l.3.96c-.76.59-1.39,1.48-1.88,2.69-.49,1.21-.76,2.55-.8,4.04v.67c0,2.02.36,3.78,1.1,5.26.44.89.97,1.59,1.59,2.09l-.3.89c-.7-.39-1.36-1.04-2-1.95-1.24-1.78-1.85-3.91-1.85-6.39Z"/><path class="cls-1" d="M324.57,8.03c0,1.7-.29,2.97-.87,3.79-.58.83-1.49,1.24-2.73,1.24s-2.12-.4-2.71-1.21c-.59-.81-.89-2.02-.91-3.62v-1.94c0-1.68.29-2.93.87-3.75.58-.82,1.49-1.22,2.73-1.22s2.14.39,2.72,1.18c.58.79.88,2,.89,3.65v1.88ZM323.11,6.04c0-1.23-.17-2.13-.52-2.69-.35-.56-.89-.84-1.64-.84s-1.29.28-1.63.84c-.34.56-.52,1.42-.53,2.58v2.33c0,1.24.18,2.15.54,2.74.36.59.9.88,1.63.88s1.25-.28,1.6-.83c.35-.55.53-1.43.55-2.62v-2.38Z"/><path class="cls-1" d="M329.93,8.34c0,1.17-.15,2.29-.46,3.36-.31,1.07-.78,2.06-1.41,2.97-.63.91-1.29,1.55-1.98,1.93l-.31-.89c.81-.62,1.45-1.58,1.94-2.88.49-1.3.74-2.75.75-4.33v-.25c0-1.1-.12-2.12-.35-3.07s-.55-1.79-.96-2.54-.87-1.33-1.39-1.75l.31-.89c.69.38,1.35,1.02,1.98,1.92s1.09,1.88,1.41,2.96c.31,1.08.47,2.23.47,3.46Z"/><path class="cls-1" d="M1.95,37.76l3.74,9.33,3.74-9.33h1.96v11.44h-1.51v-4.45l.14-4.81-3.75,9.26h-1.15l-3.75-9.24.15,4.78v4.45H0v-11.44h1.95Z"/><path class="cls-1" d="M16.6,47.07l1.98-6.37h1.56l-3.42,9.81c-.53,1.41-1.37,2.12-2.52,2.12l-.27-.02-.54-.1v-1.18l.39.03c.49,0,.88-.1,1.15-.3.28-.2.5-.56.68-1.09l.32-.86-3.03-8.4h1.59l2.12,6.37Z"/><path class="cls-1" d="M32.1,43.91h-4.96v4.05h5.76v1.23h-7.27v-11.44h7.19v1.23h-5.68v3.68h4.96v1.23Z"/><path class="cls-1" d="M37.15,47.22l2.11-6.53h1.48l-3.05,8.5h-1.11l-3.08-8.5h1.49l2.16,6.53Z"/><path class="cls-1" d="M45.67,49.35c-1.15,0-2.09-.38-2.81-1.13s-1.08-1.77-1.08-3.04v-.27c0-.84.16-1.6.48-2.26.32-.66.77-1.18,1.35-1.55.58-.38,1.21-.56,1.88-.56,1.11,0,1.96.36,2.58,1.09.61.73.92,1.77.92,3.13v.6h-5.76c.02.84.27,1.51.73,2.03s1.06.77,1.79.77c.51,0,.95-.1,1.3-.31.36-.21.67-.49.93-.83l.89.69c-.71,1.09-1.78,1.64-3.21,1.64ZM45.49,41.73c-.59,0-1.08.21-1.48.64-.4.43-.64,1.02-.74,1.79h4.26v-.11c-.04-.74-.24-1.31-.6-1.72-.36-.41-.84-.61-1.45-.61Z"/><path class="cls-1" d="M52.04,40.7l.05,1.07c.65-.82,1.5-1.22,2.54-1.22,1.8,0,2.7,1.01,2.72,3.04v5.62h-1.45v-5.62c0-.61-.15-1.07-.42-1.36-.27-.29-.7-.44-1.28-.44-.47,0-.88.13-1.24.38-.36.25-.63.58-.83.99v6.06h-1.45v-8.5h1.38Z"/><path class="cls-1" d="M61.51,38.64v2.06h1.59v1.12h-1.59v5.28c0,.34.07.6.21.77.14.17.38.26.72.26.17,0,.4-.03.69-.09v1.17c-.38.1-.75.16-1.12.16-.65,0-1.14-.2-1.47-.59-.33-.39-.5-.95-.5-1.67v-5.27h-1.55v-1.12h1.55v-2.06h1.45Z"/><path class="cls-1" d="M69.74,46.94c0-.39-.15-.7-.44-.92-.3-.22-.81-.41-1.55-.56-.74-.16-1.32-.35-1.75-.57-.43-.22-.75-.48-.96-.79s-.31-.67-.31-1.08c0-.7.29-1.29.88-1.77.59-.48,1.34-.72,2.26-.72.96,0,1.75.25,2.34.75.6.5.9,1.13.9,1.91h-1.46c0-.4-.17-.74-.51-1.03s-.76-.43-1.28-.43-.94.12-1.24.35-.45.53-.45.9c0,.35.14.62.42.79.28.18.78.35,1.5.51s1.31.36,1.76.58c.45.23.78.5,1,.81.22.32.33.7.33,1.16,0,.76-.3,1.37-.91,1.83s-1.4.69-2.36.69c-.68,0-1.28-.12-1.81-.36-.52-.24-.93-.58-1.23-1.01-.3-.43-.44-.9-.44-1.4h1.45c.03.49.22.87.58,1.16s.84.43,1.44.43c.55,0,.99-.11,1.32-.33.33-.22.5-.52.5-.89Z"/><path class="cls-1" d="M116.51,44.1c-1.29-.37-2.24-.83-2.82-1.37s-.88-1.21-.88-2.01c0-.9.36-1.65,1.08-2.24.72-.59,1.66-.88,2.81-.88.79,0,1.49.15,2.1.46s1.09.72,1.43,1.26.51,1.12.51,1.75h-1.52c0-.69-.22-1.24-.66-1.64-.44-.4-1.06-.6-1.86-.6-.74,0-1.32.16-1.74.49s-.62.78-.62,1.37c0,.47.2.86.59,1.18.4.32,1.07.62,2.02.88s1.69.56,2.23.88c.54.32.93.7,1.19,1.13.26.43.39.93.39,1.52,0,.93-.36,1.67-1.08,2.23s-1.69.84-2.9.84c-.79,0-1.52-.15-2.2-.45-.68-.3-1.21-.71-1.58-1.24s-.55-1.12-.55-1.78h1.52c0,.69.25,1.24.77,1.64s1.19.6,2.05.6c.8,0,1.41-.16,1.83-.49.42-.32.64-.77.64-1.33s-.2-.99-.59-1.3c-.39-.31-1.1-.61-2.14-.91Z"/><path class="cls-1" d="M125.98,49.35c-1.15,0-2.09-.38-2.81-1.13s-1.08-1.77-1.08-3.04v-.27c0-.84.16-1.6.48-2.26.32-.66.77-1.18,1.35-1.55.58-.38,1.21-.56,1.88-.56,1.11,0,1.96.36,2.58,1.09.61.73.92,1.77.92,3.13v.6h-5.76c.02.84.27,1.51.73,2.03s1.06.77,1.79.77c.51,0,.95-.1,1.3-.31.36-.21.67-.49.93-.83l.89.69c-.71,1.09-1.78,1.64-3.21,1.64ZM125.8,41.73c-.59,0-1.08.21-1.48.64-.4.43-.64,1.02-.74,1.79h4.26v-.11c-.04-.74-.24-1.31-.6-1.72-.36-.41-.84-.61-1.45-.61Z"/><path class="cls-1" d="M133.68,47.22l2.11-6.53h1.48l-3.05,8.5h-1.11l-3.08-8.5h1.49l2.16,6.53Z"/><path class="cls-1" d="M142.19,49.35c-1.15,0-2.09-.38-2.81-1.13s-1.08-1.77-1.08-3.04v-.27c0-.84.16-1.6.48-2.26.32-.66.77-1.18,1.35-1.55.58-.38,1.21-.56,1.88-.56,1.11,0,1.96.36,2.58,1.09.61.73.92,1.77.92,3.13v.6h-5.76c.02.84.27,1.51.73,2.03s1.06.77,1.79.77c.51,0,.95-.1,1.3-.31.36-.21.67-.49.93-.83l.89.69c-.71,1.09-1.78,1.64-3.21,1.64ZM142.01,41.73c-.59,0-1.08.21-1.48.64-.4.43-.64,1.02-.74,1.79h4.26v-.11c-.04-.74-.24-1.31-.6-1.72-.36-.41-.84-.61-1.45-.61Z"/><path class="cls-1" d="M151.3,42c-.22-.04-.46-.06-.71-.06-.95,0-1.6.41-1.94,1.22v6.03h-1.45v-8.5h1.41l.02.98c.48-.76,1.15-1.14,2.03-1.14.28,0,.5.04.64.11v1.35Z"/><path class="cls-1" d="M156.16,49.35c-1.15,0-2.09-.38-2.81-1.13s-1.08-1.77-1.08-3.04v-.27c0-.84.16-1.6.48-2.26.32-.66.77-1.18,1.35-1.55.58-.38,1.21-.56,1.88-.56,1.11,0,1.96.36,2.58,1.09.61.73.92,1.77.92,3.13v.6h-5.76c.02.84.27,1.51.73,2.03s1.06.77,1.79.77c.51,0,.95-.1,1.3-.31.36-.21.67-.49.93-.83l.89.69c-.71,1.09-1.78,1.64-3.21,1.64ZM155.98,41.73c-.59,0-1.08.21-1.48.64-.4.43-.64,1.02-.74,1.79h4.26v-.11c-.04-.74-.24-1.31-.6-1.72-.36-.41-.84-.61-1.45-.61Z"/><path class="cls-1" d="M171.68,46.2h-4.79l-1.08,2.99h-1.56l4.37-11.44h1.32l4.38,11.44h-1.55l-1.09-2.99ZM167.34,44.97h3.89l-1.95-5.35-1.94,5.35Z"/><path class="cls-1" d="M177.21,49.2h-1.45v-12.06h1.45v12.06Z"/><path class="cls-1" d="M183.06,49.35c-1.15,0-2.09-.38-2.81-1.13s-1.08-1.77-1.08-3.04v-.27c0-.84.16-1.6.48-2.26.32-.66.77-1.18,1.35-1.55.58-.38,1.21-.56,1.88-.56,1.11,0,1.96.36,2.58,1.09.61.73.92,1.77.92,3.13v.6h-5.76c.02.84.27,1.51.73,2.03s1.06.77,1.79.77c.51,0,.95-.1,1.3-.31.36-.21.67-.49.93-.83l.89.69c-.71,1.09-1.78,1.64-3.21,1.64ZM182.88,41.73c-.59,0-1.08.21-1.48.64-.4.43-.64,1.02-.74,1.79h4.26v-.11c-.04-.74-.24-1.31-.6-1.72-.36-.41-.84-.61-1.45-.61Z"/><path class="cls-1" d="M192.16,42c-.22-.04-.46-.06-.71-.06-.95,0-1.6.41-1.94,1.22v6.03h-1.45v-8.5h1.41l.02.98c.48-.76,1.15-1.14,2.03-1.14.28,0,.5.04.64.11v1.35Z"/><path class="cls-1" d="M195.86,38.64v2.06h1.59v1.12h-1.59v5.28c0,.34.07.6.21.77.14.17.38.26.72.26.17,0,.4-.03.69-.09v1.17c-.38.1-.75.16-1.12.16-.65,0-1.14-.2-1.47-.59-.33-.39-.5-.95-.5-1.67v-5.27h-1.55v-1.12h1.55v-2.06h1.45Z"/><path class="cls-1" d="M204.1,46.94c0-.39-.15-.7-.44-.92-.3-.22-.81-.41-1.55-.56-.74-.16-1.32-.35-1.75-.57-.43-.22-.75-.48-.96-.79s-.31-.67-.31-1.08c0-.7.29-1.29.88-1.77.59-.48,1.34-.72,2.26-.72.96,0,1.75.25,2.34.75.6.5.9,1.13.9,1.91h-1.46c0-.4-.17-.74-.51-1.03s-.76-.43-1.28-.43-.94.12-1.24.35-.45.53-.45.9c0,.35.14.62.42.79.28.18.78.35,1.5.51s1.31.36,1.76.58c.45.23.78.5,1,.81.22.32.33.7.33,1.16,0,.76-.3,1.37-.91,1.83s-1.4.69-2.36.69c-.68,0-1.28-.12-1.81-.36-.52-.24-.93-.58-1.23-1.01-.3-.43-.44-.9-.44-1.4h1.45c.03.49.22.87.58,1.16s.84.43,1.44.43c.55,0,.99-.11,1.32-.33.33-.22.5-.52.5-.89Z"/><path class="cls-1" d="M211.37,44.55c0-1.18.16-2.32.47-3.41.32-1.09.79-2.08,1.42-2.97.63-.89,1.28-1.52,1.96-1.89l.3.96c-.76.59-1.39,1.48-1.88,2.69-.49,1.21-.76,2.55-.8,4.04v.67c0,2.02.36,3.78,1.1,5.26.44.89.97,1.59,1.59,2.09l-.3.89c-.7-.39-1.36-1.04-2-1.95-1.24-1.78-1.85-3.91-1.85-6.39Z"/><path class="cls-1" d="M220.28,44.63c0,1.17-.15,2.29-.46,3.36-.31,1.07-.78,2.06-1.41,2.97-.63.91-1.29,1.55-1.98,1.93l-.31-.89c.81-.62,1.45-1.58,1.94-2.88.49-1.3.74-2.75.75-4.33v-.25c0-1.1-.12-2.12-.35-3.07s-.55-1.79-.96-2.54-.87-1.33-1.39-1.75l.31-.89c.69.38,1.35,1.02,1.98,1.92s1.09,1.88,1.41,2.96c.31,1.08.47,2.23.47,3.46Z"/><path class="cls-1" d="M271.01,47.7c-.39.55-.93.97-1.62,1.25-.69.27-1.5.41-2.42.41s-1.76-.22-2.48-.66c-.72-.44-1.28-1.06-1.68-1.87-.4-.81-.6-1.74-.61-2.8v-1c0-1.72.4-3.06,1.21-4.01.8-.95,1.93-1.42,3.39-1.42,1.19,0,2.16.3,2.88.92.73.61,1.17,1.47,1.33,2.6h-1.51c-.28-1.52-1.18-2.28-2.7-2.28-1.01,0-1.78.36-2.3,1.07-.52.71-.78,1.74-.79,3.09v.94c0,1.28.29,2.3.88,3.06.59.76,1.38,1.14,2.38,1.14.57,0,1.06-.06,1.48-.19.42-.13.78-.34,1.05-.63v-2.56h-2.65v-1.23h4.15v4.19Z"/><path class="cls-1" d="M272.91,44.87c0-.83.16-1.58.49-2.25.33-.67.78-1.18,1.37-1.54s1.25-.54,2-.54c1.16,0,2.09.4,2.81,1.2.71.8,1.07,1.87,1.07,3.2v.1c0,.83-.16,1.57-.47,2.23-.32.66-.77,1.17-1.36,1.54s-1.27.55-2.03.55c-1.15,0-2.08-.4-2.8-1.2-.71-.8-1.07-1.86-1.07-3.18v-.1ZM274.37,45.04c0,.94.22,1.7.66,2.27.44.57,1.02.86,1.76.86s1.33-.29,1.76-.87c.43-.58.65-1.39.65-2.43,0-.93-.22-1.69-.66-2.27-.44-.58-1.03-.87-1.76-.87s-1.3.29-1.74.86c-.44.57-.66,1.39-.66,2.45Z"/><path class="cls-1" d="M282.08,44.87c0-.83.16-1.58.49-2.25.33-.67.78-1.18,1.37-1.54s1.25-.54,2-.54c1.16,0,2.09.4,2.81,1.2.71.8,1.07,1.87,1.07,3.2v.1c0,.83-.16,1.57-.47,2.23-.32.66-.77,1.17-1.36,1.54s-1.27.55-2.03.55c-1.15,0-2.08-.4-2.8-1.2-.71-.8-1.07-1.86-1.07-3.18v-.1ZM283.55,45.04c0,.94.22,1.7.66,2.27.44.57,1.02.86,1.76.86s1.33-.29,1.76-.87c.43-.58.65-1.39.65-2.43,0-.93-.22-1.69-.66-2.27-.44-.58-1.03-.87-1.76-.87s-1.3.29-1.74.86c-.44.57-.66,1.39-.66,2.45Z"/><path class="cls-1" d="M291.29,44.88c0-1.3.31-2.35.93-3.15.62-.79,1.43-1.19,2.43-1.19s1.78.34,2.36,1.02v-4.43h1.45v12.06h-1.33l-.07-.91c-.58.71-1.39,1.07-2.43,1.07s-1.79-.4-2.41-1.21c-.62-.81-.93-1.86-.93-3.16v-.11ZM292.74,45.04c0,.96.2,1.72.6,2.26.4.54.95.82,1.65.82.92,0,1.59-.41,2.02-1.24v-3.9c-.43-.8-1.1-1.2-2-1.2-.71,0-1.27.28-1.67.83-.4.55-.6,1.36-.6,2.44Z"/><path class="cls-1" d="M304.64,44.55c0-1.18.16-2.32.47-3.41.32-1.09.79-2.08,1.42-2.97.63-.89,1.28-1.52,1.96-1.89l.3.96c-.76.59-1.39,1.48-1.88,2.69-.49,1.21-.76,2.55-.8,4.04v.67c0,2.02.36,3.78,1.1,5.26.44.89.97,1.59,1.59,2.09l-.3.89c-.7-.39-1.36-1.04-2-1.95-1.24-1.78-1.85-3.91-1.85-6.39Z"/><path class="cls-1" d="M313.55,44.63c0,1.17-.15,2.29-.46,3.36-.31,1.07-.78,2.06-1.41,2.97-.63.91-1.29,1.55-1.98,1.93l-.31-.89c.81-.62,1.45-1.58,1.94-2.88.49-1.3.74-2.75.75-4.33v-.25c0-1.1-.12-2.12-.35-3.07s-.55-1.79-.96-2.54-.87-1.33-1.39-1.75l.31-.89c.69.38,1.35,1.02,1.98,1.92s1.09,1.88,1.41,2.96c.31,1.08.47,2.23.47,3.46Z"/><path class="cls-1" d="M364.63,49.2h-1.52l-5.76-8.81v8.81h-1.52v-11.44h1.52l5.77,8.85v-8.85h1.5v11.44Z"/><path class="cls-1" d="M366.7,44.87c0-.83.16-1.58.49-2.25.33-.67.78-1.18,1.37-1.54s1.25-.54,2-.54c1.16,0,2.09.4,2.81,1.2.71.8,1.07,1.87,1.07,3.2v.1c0,.83-.16,1.57-.47,2.23-.32.66-.77,1.17-1.36,1.54s-1.27.55-2.03.55c-1.15,0-2.08-.4-2.8-1.2-.71-.8-1.07-1.86-1.07-3.18v-.1ZM368.16,45.04c0,.94.22,1.7.66,2.27.44.57,1.02.86,1.76.86s1.33-.29,1.76-.87c.43-.58.65-1.39.65-2.43,0-.93-.22-1.69-.66-2.27-.44-.58-1.03-.87-1.76-.87s-1.3.29-1.74.86c-.44.57-.66,1.39-.66,2.45Z"/><path class="cls-1" d="M378.23,38.64v2.06h1.59v1.12h-1.59v5.28c0,.34.07.6.21.77.14.17.38.26.72.26.17,0,.4-.03.69-.09v1.17c-.38.1-.75.16-1.12.16-.65,0-1.14-.2-1.47-.59-.33-.39-.5-.95-.5-1.67v-5.27h-1.55v-1.12h1.55v-2.06h1.45Z"/><path class="cls-1" d="M389.91,44.57h-2.69v4.63h-1.52v-11.44h3.79c1.29,0,2.28.29,2.97.88.69.59,1.04,1.44,1.04,2.56,0,.71-.19,1.33-.58,1.86-.38.53-.92.92-1.61,1.19l2.69,4.85v.09h-1.62l-2.48-4.63ZM387.23,43.34h2.32c.75,0,1.34-.19,1.79-.58.44-.39.66-.91.66-1.56,0-.71-.21-1.25-.63-1.63-.42-.38-1.03-.57-1.83-.57h-2.31v4.34Z"/><path class="cls-1" d="M400.64,48.36c-.57.67-1.4,1-2.49,1-.91,0-1.6-.26-2.07-.79-.47-.53-.71-1.31-.72-2.34v-5.53h1.45v5.49c0,1.29.52,1.93,1.57,1.93,1.11,0,1.85-.41,2.21-1.24v-6.18h1.45v8.5h-1.38l-.03-.84Z"/><path class="cls-1" d="M405.64,40.7l.05,1.07c.65-.82,1.5-1.22,2.54-1.22,1.8,0,2.7,1.01,2.72,3.04v5.62h-1.45v-5.62c0-.61-.15-1.07-.42-1.36-.27-.29-.7-.44-1.28-.44-.47,0-.88.13-1.24.38-.36.25-.63.58-.83.99v6.06h-1.45v-8.5h1.38Z"/><path class="cls-1" d="M414.51,40.7l.05,1.07c.65-.82,1.5-1.22,2.54-1.22,1.8,0,2.7,1.01,2.72,3.04v5.62h-1.45v-5.62c0-.61-.15-1.07-.42-1.36-.27-.29-.7-.44-1.28-.44-.47,0-.88.13-1.24.38-.36.25-.63.58-.83.99v6.06h-1.45v-8.5h1.38Z"/><path class="cls-1" d="M422.02,38.44c0-.24.07-.43.22-.6.14-.16.36-.24.64-.24s.5.08.64.24.22.36.22.6-.07.43-.22.59c-.15.16-.36.24-.64.24s-.5-.08-.64-.24c-.14-.16-.22-.35-.22-.59ZM423.59,49.2h-1.45v-8.5h1.45v8.5Z"/><path class="cls-1" d="M427.29,40.7l.05,1.07c.65-.82,1.5-1.22,2.54-1.22,1.8,0,2.7,1.01,2.72,3.04v5.62h-1.45v-5.62c0-.61-.15-1.07-.42-1.36-.27-.29-.7-.44-1.28-.44-.47,0-.88.13-1.24.38-.36.25-.63.58-.83.99v6.06h-1.45v-8.5h1.38Z"/><path class="cls-1" d="M434.45,44.88c0-1.32.31-2.38.92-3.16.61-.78,1.42-1.17,2.43-1.17s1.85.37,2.43,1.1l.07-.94h1.33v8.29c0,1.1-.33,1.97-.98,2.6s-1.53.95-2.63.95c-.61,0-1.21-.13-1.8-.39-.59-.26-1.03-.62-1.34-1.08l.75-.87c.62.77,1.38,1.16,2.29,1.16.71,0,1.26-.2,1.65-.6.4-.4.59-.96.59-1.68v-.73c-.58.67-1.37,1.01-2.38,1.01s-1.8-.4-2.42-1.2c-.62-.8-.92-1.89-.92-3.28ZM435.91,45.04c0,.96.2,1.71.59,2.26.39.55.94.82,1.65.82.92,0,1.59-.42,2.02-1.25v-3.88c-.44-.81-1.11-1.22-2-1.22-.71,0-1.26.28-1.66.83-.4.55-.6,1.36-.6,2.44Z"/><path class="cls-1" d="M447.75,44.55c0-1.18.16-2.32.47-3.41.32-1.09.79-2.08,1.42-2.97.63-.89,1.28-1.52,1.96-1.89l.3.96c-.76.59-1.39,1.48-1.88,2.69-.49,1.21-.76,2.55-.8,4.04v.67c0,2.02.36,3.78,1.1,5.26.44.89.97,1.59,1.59,2.09l-.3.89c-.7-.39-1.36-1.04-2-1.95-1.24-1.78-1.85-3.91-1.85-6.39Z"/><path class="cls-1" d="M460.64,49.2h-7.49v-1.04l3.96-4.4c.59-.67.99-1.21,1.21-1.62.22-.42.33-.85.33-1.29,0-.6-.18-1.09-.54-1.47-.36-.38-.84-.57-1.45-.57-.72,0-1.28.21-1.68.62s-.6.98-.6,1.72h-1.45c0-1.05.34-1.9,1.02-2.55.68-.65,1.58-.97,2.72-.97,1.06,0,1.9.28,2.52.84s.93,1.3.93,2.23c0,1.13-.72,2.47-2.15,4.02l-3.06,3.32h5.74v1.19Z"/><path class="cls-1" d="M465.69,44.63c0,1.17-.15,2.29-.46,3.36-.31,1.07-.78,2.06-1.41,2.97-.63.91-1.29,1.55-1.98,1.93l-.31-.89c.81-.62,1.45-1.58,1.94-2.88.49-1.3.74-2.75.75-4.33v-.25c0-1.1-.12-2.12-.35-3.07s-.55-1.79-.96-2.54-.87-1.33-1.39-1.75l.31-.89c.69.38,1.35,1.02,1.98,1.92s1.09,1.88,1.41,2.96c.31,1.08.47,2.23.47,3.46Z"/><circle class="cls-2" cx="91.57" cy="41.38" r="11.72"/><circle class="cls-2" cx="240.63" cy="41.38" r="11.72"/><circle class="cls-2" cx="337.22" cy="41.38" r="11.72"/></g></svg>