<?xml version="1.0" encoding="UTF-8"?>
<svg id="Layer_2" data-name="Layer 2" xmlns="http://www.w3.org/2000/svg" version="1.1" viewBox="0 0 270.5 406.6">
  <defs>
    <style>
      .cls-1 {
        stroke: #606060;
        stroke-width: .6px;
      }

      .cls-1, .cls-2 {
        fill: #fff;
        stroke-miterlimit: 10;
      }

      .cls-3, .cls-4 {
        isolation: isolate;
      }

      .cls-2 {
        stroke: gray;
        stroke-width: .6px;
      }

      .cls-4 {
        font-family: Roboto-Regular, Roboto;
        font-size: 22.3px;
      }

      .cls-4, .cls-5 {
        fill: #231f20;
      }

      .cls-6 {
        fill: #606060;
      }

      .cls-6, .cls-5 {
        stroke-width: 0px;
      }
    </style>
  </defs>
  <g id="Layer_1-2" data-name="Layer 1-2">
    <rect class="cls-1" x="17.6" y="71" width="237.4" height="37.4" rx="4.5" ry="4.5"/>
    <rect class="cls-1" x="17.6" y="119" width="237.4" height="37.4" rx="4.5" ry="4.5"/>
    <path class="cls-5" d="M111.8,94h-1.3l-5.1-7.8v7.8h-1.3v-10.2h1.3l5.1,7.9v-7.9h1.3v10.2h0Z"/>
    <path class="cls-5" d="M117.1,94.2c-1,0-1.9-.3-2.5-1-.6-.7-1-1.6-1-2.7v-.2c0-.8.1-1.4.4-2,.3-.6.7-1.1,1.2-1.4.5-.3,1.1-.5,1.7-.5,1,0,1.8.3,2.3,1s.8,1.6.8,2.8v.5h-5.1c0,.8.2,1.3.7,1.8.4.5.9.7,1.6.7s.8,0,1.2-.3c.3-.2.6-.4.8-.7l.8.6c-.6,1-1.6,1.5-2.8,1.5h0ZM116.9,87.4c-.5,0-1,.2-1.3.6s-.6.9-.7,1.6h3.8c0-.8-.2-1.3-.5-1.6-.3-.4-.8-.5-1.3-.5h0Z"/>
    <path class="cls-5" d="M128.2,92.2l1.4-5.8h1.3l-2.2,7.6h-1.1l-1.8-5.7-1.8,5.7h-1.1l-2.2-7.6h1.3l1.5,5.7,1.8-5.7h1l1.8,5.8h0Z"/>
    <path class="cls-5" d="M141.7,89.3h-4.4v3.6h5.1v1.1h-6.5v-10.2h6.4v1.1h-5.1v3.3h4.4v1.1h0Z"/>
    <path class="cls-5" d="M146.2,92.3l1.9-5.8h1.3l-2.7,7.6h-1l-2.7-7.6h1.3l1.9,5.8Z"/>
    <path class="cls-5" d="M153.8,94.2c-1,0-1.9-.3-2.5-1-.6-.7-1-1.6-1-2.7v-.2c0-.8.1-1.4.4-2,.3-.6.7-1.1,1.2-1.4.5-.3,1.1-.5,1.7-.5,1,0,1.8.3,2.3,1s.8,1.6.8,2.8v.5h-5.1c0,.8.2,1.3.6,1.8.4.5.9.7,1.6.7s.8,0,1.2-.3.6-.4.8-.7l.8.6c-.6,1-1.6,1.5-2.9,1.5h0ZM153.6,87.4c-.5,0-1,.2-1.3.6-.4.4-.6.9-.7,1.6h3.8c0-.8-.2-1.3-.5-1.6-.3-.4-.8-.5-1.3-.5h0Z"/>
    <path class="cls-5" d="M159.5,86.5v.9c.6-.7,1.4-1.1,2.3-1.1,1.6,0,2.4.9,2.4,2.7v5h-1.3v-5c0-.5-.1-.9-.4-1.2s-.6-.4-1.1-.4-.8.1-1.1.3-.6.5-.7.9v5.4h-1.3v-7.6h1.2,0Z"/>
    <path class="cls-5" d="M167.9,84.6v1.8h1.4v1h-1.4v4.7c0,.3,0,.5.2.7s.3.2.6.2.4,0,.6,0v1c-.3,0-.7.1-1,.1-.6,0-1-.2-1.3-.5-.3-.3-.4-.8-.4-1.5v-4.7h-1.4v-1h1.4v-1.8h1.3Z"/>
    <path class="cls-5" d="M95.1,142.8v-10.2h2.9c.9,0,1.7.2,2.3.6s1.2.9,1.6,1.7.6,1.6.6,2.5v.6c0,1-.2,1.8-.6,2.5s-.9,1.3-1.6,1.7c-.7.4-1.5.6-2.4.6h-2.8ZM96.4,133.8v8h1.4c1,0,1.8-.3,2.4-1s.9-1.6.9-2.8v-.6c0-1.2-.3-2.1-.8-2.7s-1.3-1-2.3-1h-1.6Z"/>
    <path class="cls-5" d="M108.9,142.8c0-.1-.1-.4-.2-.8-.6.6-1.3.9-2.2.9s-1.4-.2-1.8-.6-.7-1-.7-1.6.3-1.4.9-1.8c.6-.4,1.4-.6,2.5-.6h1.3v-.6c0-.4-.1-.8-.4-1.1-.3-.3-.7-.4-1.2-.4s-.8.1-1.2.4c-.3.2-.5.5-.5.8h-1.3c0-.4.1-.7.4-1.1.3-.4.6-.6,1.1-.8.5-.2,1-.3,1.5-.3.9,0,1.6.2,2,.6.5.4.8,1,.8,1.8v3.5c0,.7,0,1.2.3,1.7h0c0,.1-1.3.1-1.3.1h0ZM106.8,141.8c.4,0,.8-.1,1.2-.3.4-.2.6-.5.8-.8v-1.6h-1c-1.6,0-2.4.5-2.4,1.4s.1.7.4.9c.3.2.6.3,1,.3h0Z"/>
    <path class="cls-5" d="M113.8,133.4v1.8h1.4v1h-1.4v4.7c0,.3,0,.5.2.7.1.1.3.2.6.2s.3,0,.6,0v1c-.3,0-.7.1-1,.1-.6,0-1-.2-1.3-.5-.3-.4-.4-.8-.4-1.5v-4.7h-1.4v-1h1.4v-1.8h1.3Z"/>
    <path class="cls-5" d="M121.4,142.8c0-.1-.1-.4-.2-.8-.6.6-1.3.9-2.2.9s-1.4-.2-1.8-.6-.7-1-.7-1.6.3-1.4.9-1.8c.6-.4,1.4-.6,2.5-.6h1.3v-.6c0-.4-.1-.8-.4-1.1-.3-.3-.7-.4-1.2-.4s-.8.1-1.2.4c-.3.2-.5.5-.5.8h-1.3c0-.4.1-.7.4-1.1.3-.4.6-.6,1.1-.8.5-.2,1-.3,1.5-.3.9,0,1.6.2,2,.6.5.4.8,1,.8,1.8v3.5c0,.7,0,1.2.3,1.7h0c0,.1-1.3.1-1.3.1h0ZM119.2,141.8c.4,0,.8-.1,1.2-.3.4-.2.6-.5.8-.8v-1.6h-1c-1.6,0-2.4.5-2.4,1.4s.1.7.4.9c.3.2.6.3,1,.3h0Z"/>
    <path class="cls-5" d="M131.2,138.3c-1.1-.3-2-.7-2.5-1.2-.5-.5-.8-1.1-.8-1.8s.3-1.5,1-2c.6-.5,1.5-.8,2.5-.8s1.3.1,1.9.4c.6.3,1,.6,1.3,1.1.3.5.4,1,.4,1.6h-1.4c0-.6-.2-1.1-.6-1.4s-.9-.5-1.6-.5-1.2.1-1.6.4c-.4.3-.6.7-.6,1.2s.2.8.5,1.1c.4.3.9.6,1.8.8.8.2,1.5.5,2,.8.5.3.8.6,1.1,1s.4.8.4,1.4c0,.8-.3,1.5-1,2s-1.5.7-2.6.7-1.4-.1-2-.4c-.6-.3-1.1-.6-1.4-1.1s-.5-1-.5-1.6h1.3c0,.6.2,1.1.7,1.5s1.1.5,1.8.5,1.2-.1,1.6-.4.6-.7.6-1.2-.2-.9-.5-1.2c-.4-.3-1-.5-1.9-.8h0Z"/>
    <path class="cls-5" d="M136.1,139c0-.7.1-1.4.4-2s.7-1.1,1.2-1.4c.5-.3,1.1-.5,1.8-.5,1,0,1.9.4,2.5,1.1.6.7.9,1.7.9,2.8h0c0,.8-.1,1.5-.4,2.1s-.7,1-1.2,1.4c-.5.3-1.1.5-1.8.5-1,0-1.9-.4-2.5-1.1-.6-.7-.9-1.6-.9-2.8h0c0,0,0,0,0,0ZM137.4,139.1c0,.8.2,1.5.6,2,.4.5.9.8,1.6.8s1.2-.3,1.6-.8c.4-.5.6-1.2.6-2.2s-.2-1.5-.6-2-.9-.8-1.6-.8-1.1.2-1.5.8-.6,1.2-.6,2.2h0Z"/>
    <path class="cls-5" d="M149.3,142.1c-.5.6-1.2.9-2.2.9s-1.4-.2-1.8-.7-.6-1.2-.6-2.1v-4.9h1.3v4.9c0,1.1.5,1.7,1.4,1.7s1.6-.4,2-1.1v-5.5h1.3v7.6h-1.2v-.8s0,0,0,0Z"/>
    <path class="cls-5" d="M156.2,136.4c-.2,0-.4,0-.6,0-.9,0-1.4.4-1.7,1.1v5.4h-1.3v-7.6h1.3v.9c.4-.7,1-1,1.8-1s.4,0,.6.1v1.2h0Z"/>
    <path class="cls-5" d="M160.3,141.9c.5,0,.9-.1,1.2-.4.3-.3.5-.6.6-1.1h1.2c0,.4-.2.8-.4,1.2-.3.4-.6.7-1.1.9-.5.2-.9.4-1.5.4-1,0-1.9-.3-2.4-1-.6-.7-.9-1.6-.9-2.8v-.2c0-.7.1-1.4.4-2,.3-.6.7-1,1.2-1.3s1.1-.5,1.8-.5,1.6.2,2.1.8.9,1.2.9,2h-1.2c0-.5-.2-.9-.6-1.2-.3-.3-.7-.5-1.2-.5s-1.2.2-1.5.7-.5,1.2-.5,2.1v.2c0,.9.2,1.5.5,2s.9.7,1.5.7h0Z"/>
    <path class="cls-5" d="M167.9,143c-1,0-1.9-.3-2.5-1s-1-1.6-1-2.7v-.2c0-.8.1-1.4.4-2s.7-1.1,1.2-1.4,1.1-.5,1.7-.5c1,0,1.8.3,2.3,1s.8,1.6.8,2.8v.5h-5.1c0,.8.2,1.4.6,1.8.4.5.9.7,1.6.7s.8,0,1.2-.3.6-.4.8-.7l.8.6c-.6,1-1.6,1.5-2.9,1.5h0ZM167.7,136.2c-.5,0-1,.2-1.3.6-.4.4-.6.9-.7,1.6h3.8c0-.8-.2-1.3-.5-1.6-.3-.4-.8-.5-1.3-.5h0Z"/>
    <path class="cls-5" d="M176.7,140.8c0-.4-.1-.6-.4-.8s-.7-.4-1.4-.5c-.6-.1-1.2-.3-1.6-.5-.4-.2-.7-.4-.9-.7-.2-.3-.3-.6-.3-1,0-.6.3-1.1.8-1.6.5-.4,1.2-.6,2-.6s1.6.2,2.1.7.8,1,.8,1.7h-1.3c0-.4-.1-.7-.4-.9s-.7-.4-1.1-.4-.8.1-1.1.3-.4.5-.4.8.1.6.4.7.7.3,1.3.4c.6.1,1.2.3,1.6.5s.7.4.9.7.3.6.3,1c0,.7-.3,1.2-.8,1.6-.5.4-1.2.6-2.1.6s-1.1-.1-1.6-.3-.8-.5-1.1-.9c-.3-.4-.4-.8-.4-1.2h1.3c0,.4.2.8.5,1s.8.4,1.3.4.9-.1,1.2-.3c.3-.2.4-.5.4-.8h0Z"/>
    <rect class="cls-1" x="17.6" y="189.9" width="237.4" height="37.4" rx="4.5" ry="4.5"/>
    <path class="cls-5" d="M46.7,207.4h-4.3v4.5h-1.3v-10.2h6.3v1.1h-5v3.5h4.3v1.1h0Z"/>
    <path class="cls-5" d="M48.8,202.4c0-.2,0-.4.2-.5.1-.1.3-.2.6-.2s.4,0,.6.2c.1.1.2.3.2.5s0,.4-.2.5-.3.2-.6.2-.4,0-.6-.2-.2-.3-.2-.5ZM50.2,211.9h-1.3v-7.6h1.3v7.6Z"/>
    <path class="cls-5" d="M53.7,211.9h-1.3v-10.7h1.3v10.7Z"/>
    <path class="cls-5" d="M57.5,202.5v1.8h1.4v1h-1.4v4.7c0,.3,0,.5.2.7.1.1.3.2.6.2s.3,0,.6,0v1c-.3,0-.7.1-1,.1-.6,0-1-.2-1.3-.5-.3-.4-.4-.8-.4-1.5v-4.7h-1.4v-1h1.4v-1.8h1.3Z"/>
    <path class="cls-5" d="M63.5,212.1c-1,0-1.9-.3-2.5-1s-1-1.6-1-2.7v-.2c0-.8.1-1.4.4-2s.7-1.1,1.2-1.4c.5-.3,1.1-.5,1.7-.5,1,0,1.8.3,2.3,1,.5.6.8,1.6.8,2.8v.5h-5.1c0,.8.2,1.4.7,1.8.4.5,1,.7,1.6.7s.8,0,1.2-.3c.3-.2.6-.4.8-.7l.8.6c-.6,1-1.6,1.5-2.8,1.5h0ZM63.4,205.3c-.5,0-1,.2-1.3.6-.3.4-.6.9-.7,1.6h3.8c0-.8-.2-1.3-.5-1.6-.3-.4-.8-.5-1.3-.5h0Z"/>
    <path class="cls-5" d="M71.6,205.5c-.2,0-.4,0-.6,0-.8,0-1.4.4-1.7,1.1v5.4h-1.3v-7.6h1.3v.9c.4-.7,1-1,1.8-1s.4,0,.6.1v1.2Z"/>
    <path class="cls-5" d="M82.3,207.2h-4.4v3.6h5.1v1.1h-6.5v-10.2h6.4v1.1h-5.1v3.3h4.4v1.1h0Z"/>
    <path class="cls-5" d="M86.8,210.2l1.9-5.8h1.3l-2.7,7.6h-1l-2.7-7.6h1.3l1.9,5.8Z"/>
    <path class="cls-5" d="M94.4,212.1c-1,0-1.9-.3-2.5-1s-1-1.6-1-2.7v-.2c0-.8.1-1.4.4-2s.7-1.1,1.2-1.4c.5-.3,1.1-.5,1.7-.5,1,0,1.8.3,2.3,1s.8,1.6.8,2.8v.5h-5.1c0,.8.2,1.4.7,1.8.4.5.9.7,1.6.7s.8,0,1.2-.3c.3-.2.6-.4.8-.7l.8.6c-.6,1-1.6,1.5-2.8,1.5h0ZM94.2,205.3c-.5,0-1,.2-1.3.6s-.6.9-.7,1.6h3.8c0-.8-.2-1.3-.5-1.6-.3-.4-.8-.5-1.3-.5h0Z"/>
    <path class="cls-5" d="M100,204.4v.9c.6-.7,1.4-1.1,2.3-1.1,1.6,0,2.4.9,2.4,2.7v5h-1.3v-5c0-.5-.1-.9-.4-1.2s-.6-.4-1.1-.4-.8.1-1.1.3-.6.5-.7.9v5.4h-1.3v-7.6h1.2,0Z"/>
    <path class="cls-5" d="M108.4,202.5v1.8h1.4v1h-1.4v4.7c0,.3,0,.5.2.7.1.1.3.2.6.2s.3,0,.6,0v1c-.3,0-.7.1-1,.1-.6,0-1-.2-1.3-.5-.3-.4-.4-.8-.4-1.5v-4.7h-1.4v-1h1.4v-1.8h1.3Z"/>
    <path class="cls-5" d="M116.4,210.8h4.8v1.1h-6.2v-10.2h1.3v9.1Z"/>
    <path class="cls-5" d="M122.6,202.4c0-.2,0-.4.2-.5.1-.1.3-.2.6-.2s.4,0,.6.2c.1.1.2.3.2.5s0,.4-.2.5-.3.2-.6.2-.4,0-.6-.2-.2-.3-.2-.5ZM124,211.9h-1.3v-7.6h1.3v7.6Z"/>
    <path class="cls-5" d="M130.5,209.9c0-.4-.1-.6-.4-.8s-.7-.4-1.4-.5c-.6-.1-1.2-.3-1.6-.5-.4-.2-.7-.4-.8-.7s-.3-.6-.3-1c0-.6.3-1.1.8-1.6.5-.4,1.2-.6,2-.6s1.6.2,2.1.7.8,1,.8,1.7h-1.3c0-.4-.1-.7-.4-.9s-.7-.4-1.1-.4-.8.1-1.1.3-.4.5-.4.8.1.6.4.7.7.3,1.3.4c.6.1,1.2.3,1.6.5s.7.4.9.7.3.6.3,1c0,.7-.3,1.2-.8,1.6-.5.4-1.2.6-2.1.6s-1.1-.1-1.6-.3-.8-.5-1.1-.9c-.3-.4-.4-.8-.4-1.2h1.3c0,.4.2.8.5,1s.8.4,1.3.4.9-.1,1.2-.3c.3-.2.4-.5.4-.8h0Z"/>
    <path class="cls-5" d="M135.2,202.5v1.8h1.4v1h-1.4v4.7c0,.3,0,.5.2.7s.3.2.6.2.4,0,.6,0v1c-.3,0-.7.1-1,.1-.6,0-1-.2-1.3-.5-.3-.4-.4-.8-.4-1.5v-4.7h-1.4v-1h1.4v-1.8h1.3Z"/>
    <rect class="cls-2" x=".3" y="284" width="269.9" height="37.4"/>
    <path class="cls-5" d="M42.4,304.7v4h-1.3v-10.2h3.8c1.1,0,2,.3,2.6.9.6.6,1,1.3,1,2.2s-.3,1.8-.9,2.3-1.5.8-2.7.8h-2.4ZM42.4,303.6h2.4c.7,0,1.3-.2,1.7-.5s.6-.8.6-1.5-.2-1.1-.6-1.5c-.4-.4-.9-.5-1.6-.6h-2.5v4h0Z"/>
    <path class="cls-5" d="M54.6,307.9c-.5.6-1.2.9-2.2.9s-1.4-.2-1.8-.7c-.4-.5-.6-1.2-.6-2.1v-4.9h1.3v4.9c0,1.1.5,1.7,1.4,1.7s1.6-.4,2-1.1v-5.5h1.3v7.5h-1.2v-.8s0,0,0,0Z"/>
    <path class="cls-5" d="M64.2,305c0,1.1-.3,2.1-.8,2.8s-1.2,1-2.1,1-1.7-.3-2.2-1v.9h-1.2v-10.7h1.3v4c.5-.6,1.2-1,2.2-1s1.6.4,2.2,1,.8,1.6.8,2.9h0ZM62.9,304.8c0-.9-.2-1.6-.5-2s-.8-.7-1.5-.7-1.5.4-1.8,1.2v3.3c.4.8,1,1.2,1.8,1.2s1.1-.2,1.5-.7.5-1.2.5-2.2h0Z"/>
    <path class="cls-5" d="M67.2,308.6h-1.3v-10.7h1.3v10.7Z"/>
    <path class="cls-5" d="M69.3,299.1c0-.2,0-.4.2-.5.1-.1.3-.2.6-.2s.4,0,.6.2c.1.1.2.3.2.5s0,.4-.2.5c-.1.1-.3.2-.6.2s-.4,0-.6-.2-.2-.3-.2-.5ZM70.7,308.6h-1.3v-7.5h1.3v7.5Z"/>
    <path class="cls-5" d="M75.8,307.7c.5,0,.9-.1,1.2-.4.3-.3.5-.6.6-1h1.2c0,.4-.2.8-.4,1.2-.3.4-.6.7-1.1.9-.5.2-.9.4-1.5.4-1,0-1.8-.3-2.4-1-.6-.7-.9-1.6-.9-2.8v-.2c0-.7.1-1.4.4-2,.3-.6.7-1,1.2-1.3s1.1-.5,1.8-.5,1.6.2,2.1.8.9,1.2.9,2h-1.2c0-.5-.2-.9-.6-1.2-.3-.3-.7-.5-1.2-.5s-1.2.2-1.5.7-.5,1.2-.5,2v.2c0,.9.2,1.5.5,2s.9.7,1.5.7h0Z"/>
    <path class="cls-5" d="M46.8,256.2h-4.4v3.6h5.1v1.1h-6.5v-10.2h6.4v1.1h-5v3.3h4.4v1.1h0Z"/>
    <path class="cls-5" d="M51.3,259.2l1.9-5.8h1.3l-2.7,7.6h-1l-2.7-7.6h1.3s1.9,5.8,1.9,5.8Z"/>
    <path class="cls-5" d="M58.9,261.1c-1,0-1.9-.3-2.5-1s-1-1.6-1-2.7v-.2c0-.8.1-1.4.4-2s.7-1.1,1.2-1.4c.5-.3,1.1-.5,1.7-.5,1,0,1.8.3,2.3,1s.8,1.6.8,2.8v.5h-5.1c0,.8.2,1.4.7,1.8.4.5,1,.7,1.6.7s.8,0,1.2-.3.6-.4.8-.7l.8.6c-.6,1-1.6,1.5-2.8,1.5h0ZM58.7,254.3c-.5,0-1,.2-1.3.6-.3.4-.6.9-.7,1.6h3.8c0-.8-.2-1.3-.5-1.6-.3-.4-.8-.5-1.3-.5h0Z"/>
    <path class="cls-5" d="M64.6,253.4v.9c.6-.7,1.4-1.1,2.3-1.1,1.6,0,2.4.9,2.4,2.7v5h-1.3v-5c0-.5-.1-.9-.4-1.2s-.6-.4-1.1-.4-.8.1-1.1.3-.6.5-.7.9v5.4h-1.3v-7.6h1.2,0Z"/>
    <path class="cls-5" d="M73,251.6v1.8h1.4v1h-1.4v4.7c0,.3,0,.5.2.7.1.1.3.2.6.2s.3,0,.6,0v1c-.3,0-.7.1-1,.1-.6,0-1-.2-1.3-.5-.3-.4-.4-.8-.4-1.5v-4.7h-1.4v-1h1.4v-1.8h1.3Z"/>
    <path class="cls-5" d="M87.4,260.9h-1.3v-4.7h-5.1v4.7h-1.3v-10.2h1.3v4.4h5.1v-4.4h1.3v10.2Z"/>
    <path class="cls-5" d="M89.6,251.4c0-.2,0-.4.2-.5.1-.1.3-.2.6-.2s.4,0,.6.2c.1.1.2.3.2.5s0,.4-.2.5-.3.2-.6.2-.4,0-.6-.2-.2-.3-.2-.5ZM91,260.9h-1.3v-7.6h1.3v7.6Z"/>
    <path class="cls-5" d="M96.2,261.1c-1,0-1.9-.3-2.5-1s-1-1.6-1-2.7v-.2c0-.8.1-1.4.4-2s.7-1.1,1.2-1.4c.5-.3,1.1-.5,1.7-.5,1,0,1.8.3,2.3,1s.8,1.6.8,2.8v.5h-5.1c0,.8.2,1.4.7,1.8.4.5.9.7,1.6.7s.8,0,1.2-.3c.3-.2.6-.4.8-.7l.8.6c-.6,1-1.6,1.5-2.8,1.5h0ZM96.1,254.3c-.5,0-1,.2-1.3.6s-.6.9-.7,1.6h3.8c0-.8-.2-1.3-.5-1.6-.3-.4-.8-.5-1.3-.5h0Z"/>
    <path class="cls-5" d="M104.3,254.5c-.2,0-.4,0-.6,0-.8,0-1.4.4-1.7,1.1v5.4h-1.3v-7.6h1.3v.9c.4-.7,1-1,1.8-1s.4,0,.6.1v1.2Z"/>
    <path class="cls-5" d="M109.9,260.9c0-.1-.1-.4-.2-.8-.6.6-1.3.9-2.2.9s-1.4-.2-1.8-.6-.7-1-.7-1.6.3-1.4.9-1.8c.6-.4,1.4-.6,2.5-.6h1.3v-.6c0-.4-.1-.8-.4-1.1-.3-.3-.7-.4-1.2-.4s-.8.1-1.2.4c-.3.2-.5.5-.5.8h-1.3c0-.4.1-.7.4-1.1.3-.4.6-.6,1.1-.8.5-.2,1-.3,1.5-.3.9,0,1.6.2,2,.6.5.4.8,1,.8,1.8v3.5c0,.7,0,1.2.3,1.7h0c0,.1-1.3.1-1.3.1h0ZM107.8,260c.4,0,.8-.1,1.2-.3s.6-.5.8-.8v-1.5h-1c-1.6,0-2.4.5-2.4,1.4s.1.7.4,1c.3.2.6.3,1,.3h0Z"/>
    <path class="cls-5" d="M116.7,254.5c-.2,0-.4,0-.6,0-.8,0-1.4.4-1.7,1.1v5.4h-1.3v-7.6h1.3v.9c.4-.7,1-1,1.8-1s.4,0,.6.1v1.2Z"/>
    <path class="cls-5" d="M120.8,260c.5,0,.9-.1,1.2-.4.3-.3.5-.6.6-1h1.2c0,.4-.2.8-.4,1.2-.3.4-.6.7-1.1.9-.5.2-.9.4-1.5.4-1,0-1.8-.3-2.4-1-.6-.7-.9-1.6-.9-2.8v-.2c0-.7.1-1.4.4-2,.3-.6.7-1,1.2-1.3s1.1-.5,1.8-.5,1.6.2,2.1.8.9,1.2.9,2h-1.2c0-.5-.2-.9-.6-1.2-.3-.3-.7-.5-1.2-.5s-1.2.2-1.5.7-.5,1.2-.5,2.1v.2c0,.9.2,1.5.5,2s.9.7,1.5.7h0Z"/>
    <path class="cls-5" d="M126.5,254.3c.6-.7,1.3-1.1,2.2-1.1,1.6,0,2.4.9,2.4,2.7v5h-1.3v-5c0-.5-.1-.9-.4-1.2s-.6-.4-1.1-.4-.8.1-1.1.3-.6.5-.7.9v5.4h-1.3v-10.7h1.3v4.1h0Z"/>
    <path class="cls-5" d="M135.6,259l1.8-5.7h1.4l-3,8.7c-.5,1.3-1.2,1.9-2.2,1.9h-.2s-.5-.1-.5-.1v-1h.4c.4,0,.8,0,1-.2.2-.2.4-.5.6-1l.3-.8-2.7-7.5h1.4l1.9,5.7h0Z"/>
    <rect class="cls-2" x=".3" y="332.1" width="269.9" height="37.4"/>
    <path class="cls-5" d="M42.4,352.8v4h-1.3v-10.2h3.8c1.1,0,2,.3,2.6.9.6.6,1,1.3,1,2.2s-.3,1.8-.9,2.3-1.5.8-2.7.8h-2.4ZM42.4,351.7h2.4c.7,0,1.3-.2,1.7-.5s.6-.8.6-1.5-.2-1.1-.6-1.5c-.4-.4-.9-.5-1.6-.6h-2.5v4h0Z"/>
    <path class="cls-5" d="M53.6,350.4c-.2,0-.4,0-.6,0-.8,0-1.4.4-1.7,1.1v5.4h-1.3v-7.5h1.3v.9c.4-.7,1-1,1.8-1s.4,0,.6.1c0,0,0,1.2,0,1.2Z"/>
    <path class="cls-5" d="M54.8,347.2c0-.2,0-.4.2-.5.1-.1.3-.2.6-.2s.4,0,.6.2c.1.1.2.3.2.5s0,.4-.2.5c-.1.1-.3.2-.6.2s-.4,0-.6-.2-.2-.3-.2-.5ZM56.2,356.8h-1.3v-7.5h1.3v7.5Z"/>
    <path class="cls-5" d="M60.7,355l1.9-5.8h1.3l-2.7,7.5h-1l-2.7-7.5h1.3s1.9,5.8,1.9,5.8Z"/>
    <path class="cls-5" d="M69.7,356.8c0-.1-.1-.4-.2-.8-.6.6-1.3.9-2.2.9s-1.4-.2-1.8-.6-.7-1-.7-1.6.3-1.4.9-1.8c.6-.4,1.4-.6,2.5-.6h1.3v-.6c0-.5-.1-.8-.4-1.1-.3-.3-.7-.4-1.2-.4s-.8.1-1.2.4c-.3.2-.5.5-.5.8h-1.3c0-.4.1-.7.4-1.1.3-.4.6-.6,1.1-.8.5-.2,1-.3,1.5-.3.9,0,1.6.2,2,.6.5.4.8,1,.8,1.8v3.5c0,.7,0,1.2.3,1.7h0c0,.1-1.3.1-1.3.1h0ZM67.6,355.8c.4,0,.8-.1,1.2-.3s.6-.5.8-.8v-1.5h-1c-1.6,0-2.4.5-2.4,1.4s.1.7.4,1c.3.2.6.3,1,.3h0Z"/>
    <path class="cls-5" d="M74.6,347.4v1.8h1.4v1h-1.4v4.7c0,.3,0,.5.2.7.1.1.3.2.6.2s.3,0,.6,0v1c-.3,0-.7.1-1,.1-.6,0-1-.2-1.3-.5-.3-.4-.4-.8-.4-1.5v-4.7h-1.4v-1h1.4v-1.8h1.3Z"/>
    <path class="cls-5" d="M80.6,356.9c-1,0-1.9-.3-2.5-1s-1-1.6-1-2.7v-.2c0-.8.1-1.4.4-2s.7-1,1.2-1.4c.5-.3,1.1-.5,1.7-.5,1,0,1.8.3,2.3,1s.8,1.6.8,2.8v.5h-5.1c0,.8.2,1.4.7,1.8.4.5.9.7,1.6.7s.8,0,1.2-.3c.3-.2.6-.4.8-.7l.8.6c-.6,1-1.6,1.5-2.8,1.5h0ZM80.5,350.1c-.5,0-1,.2-1.3.6s-.6.9-.7,1.6h3.8c0-.8-.2-1.3-.5-1.6-.3-.4-.8-.5-1.3-.5h0Z"/>
    <g class="cls-3">
      <text class="cls-4" transform="translate(218 359.2)"><tspan x="0" y="0">+</tspan></text>
    </g>
    <path class="cls-5" d="M42.8,393.4l3.3,8.3,3.3-8.3h1.7v10.2h-1.3v-8.2c.1,0-3.2,8.2-3.2,8.2h-1l-3.3-8.2v4.2c.1,0,.1,4,.1,4h-1.3v-10.2h1.7Z"/>
    <path class="cls-5" d="M55.8,401.7l1.8-5.7h1.4l-3,8.7c-.5,1.3-1.2,1.9-2.2,1.9h-.2s-.5-.1-.5-.1v-1h.3c.4,0,.8,0,1-.2.2-.2.5-.5.6-1l.3-.8-2.7-7.5h1.4l1.9,5.7h0Z"/>
    <path class="cls-5" d="M69.6,398.9h-4.4v3.6h5.1v1.1h-6.5v-10.2h6.4v1.1h-5.1v3.3h4.4s0,1.1,0,1.1Z"/>
    <path class="cls-5" d="M74.1,401.8l1.9-5.8h1.3l-2.7,7.5h-1l-2.7-7.5h1.3l1.9,5.8Z"/>
    <path class="cls-5" d="M81.7,403.7c-1,0-1.9-.3-2.5-1s-1-1.6-1-2.7v-.2c0-.8.1-1.4.4-2s.7-1,1.2-1.4c.5-.3,1.1-.5,1.7-.5,1,0,1.8.3,2.3,1s.8,1.6.8,2.8v.5h-5.1c0,.8.2,1.4.7,1.8.4.5.9.7,1.6.7s.8,0,1.2-.3c.3-.2.6-.4.8-.7l.8.6c-.6,1-1.6,1.5-2.8,1.5h0ZM81.5,396.9c-.5,0-1,.2-1.3.6s-.6.9-.7,1.6h3.8c0-.8-.2-1.3-.5-1.6-.3-.4-.8-.5-1.3-.5h0Z"/>
    <path class="cls-5" d="M87.3,396v1c.6-.7,1.4-1.1,2.3-1.1,1.6,0,2.4.9,2.4,2.7v5h-1.3v-5c0-.5-.1-1-.4-1.2s-.6-.4-1.1-.4-.8.1-1.1.3-.6.5-.7.9v5.4h-1.3v-7.5h1.2,0Z"/>
    <path class="cls-5" d="M95.8,394.2v1.8h1.4v1h-1.4v4.7c0,.3,0,.5.2.7.1.1.3.2.6.2s.3,0,.6,0v1c-.3,0-.7.1-1,.1-.6,0-1-.2-1.3-.5-.3-.4-.4-.8-.4-1.5v-4.7h-1.4v-1h1.4v-1.8h1.3Z"/>
    <path class="cls-5" d="M103.1,401.6c0-.4-.1-.6-.4-.8s-.7-.4-1.4-.5c-.7-.1-1.2-.3-1.6-.5-.4-.2-.7-.4-.8-.7-.2-.3-.3-.6-.3-1,0-.6.3-1.1.8-1.6.5-.4,1.2-.6,2-.6s1.6.2,2.1.7.8,1,.8,1.7h-1.3c0-.4-.2-.7-.4-.9-.3-.3-.7-.4-1.1-.4s-.8.1-1.1.3-.4.5-.4.8.1.5.4.7.7.3,1.3.5c.6.1,1.2.3,1.6.5s.7.4.9.7.3.6.3,1c0,.7-.3,1.2-.8,1.6-.5.4-1.2.6-2.1.6s-1.1-.1-1.6-.3-.8-.5-1.1-.9c-.3-.4-.4-.8-.4-1.2h1.3c0,.4.2.8.5,1s.8.4,1.3.4.9-.1,1.2-.3c.3-.2.4-.5.4-.8h0Z"/>
  </g>
  <g>
    <g>
      <path class="cls-6" d="M22.3,6.1h9.7c2.6,0,4.7,1.9,4.7,4.2v10.3c0,2.3-2.1,4.2-4.7,4.2h-9.7c-2.6,0-4.7-1.9-4.7-4.2v-10.3c0-2.3,2.1-4.2,4.7-4.2ZM32.3,24.4c2.1,0,3.9-1.5,3.9-3.4v-11c0-1.9-1.7-3.4-3.9-3.4h-10.3c-2.1,0-3.9,1.5-3.9,3.4v11c0,1.9,1.7,3.4,3.9,3.4h10.3Z"/>
      <path class="cls-6" d="M32,25.2h-9.7c-2.8,0-5-2-5-4.5v-10.3c0-2.5,2.2-4.5,5-4.5h9.7c2.8,0,5,2,5,4.5v10.3c0,2.5-2.2,4.5-5,4.5ZM22,7c-2,0-3.6,1.4-3.6,3.1v11c0,1.7,1.6,3.1,3.6,3.1h10.3c2,0,3.6-1.4,3.6-3.1v-11c0-1.7-1.6-3.1-3.6-3.1h-10.3Z"/>
    </g>
    <path class="cls-6" d="M26.9,12.7l2.4,2.4c.2.2.2.6,0,.9l-2.4,2.4c-.4.4-1,.1-1-.4v-4.9c0-.5.7-.8,1-.4Z"/>
  </g>
</svg>