<?xml version="1.0" encoding="UTF-8"?>
<svg xmlns="http://www.w3.org/2000/svg" version="1.1" viewBox="0 0 1022.2 718.2">
  <defs>
    <style>
      .cls-1 {
        mix-blend-mode: overlay;
        opacity: .2;
      }

      .cls-2, .cls-3 {
        isolation: isolate;
      }

      .cls-4 {
        stroke: #333;
        stroke-linecap: round;
        stroke-linejoin: round;
        stroke-width: .7px;
      }

      .cls-4, .cls-5 {
        fill: none;
      }

      .cls-5 {
        stroke: #606060;
        stroke-miterlimit: 10;
        stroke-width: 2px;
      }

      .cls-6, .cls-3 {
        fill: #333;
        stroke-width: 0px;
      }

      .cls-3 {
        opacity: .1;
      }
    </style>
  </defs>
  <g class="cls-2">
    <g id="Layer_1" data-name="Layer 1">
      <g class="cls-1">
        <path class="cls-4" d="M1,147.7h974.9M1,133.3h974.9M1,118.3h974.9M1,104.2h974.9M1,89.2h974.9M1,75.1h974.9M1,60h974.9M1,45.8h974.9M1,30.8h974.9"/>
        <path class="cls-4" d="M47.9,18.2v142M125.7,18.2v142M207.2,18.2v142M288.1,18.2v142M365.9,18.2v142M447.4,18.2v142M523.9,18.2v142M605.4,18.2v142M681.9,18.2v142M763.3,18.2v142M840.4,18.2v142M921.8,18.2v142"/>
      </g>
      <rect class="cls-6" x="157.5" y="18.3" width="3.3" height="142.2"/>
      <rect class="cls-6" x="805.8" y="18.3" width="3.3" height="142.2"/>
      <rect class="cls-3" x="157.5" y="18.3" width="648.3" height="142.2"/>
      <path class="cls-5" d="M21.2,123.6l8.8,22.7,5-22.9,13.8,22.4,12.1-26s19.3,24.5,19.3,25.3-5-14.2-5-14.2l12.1,12.1,5-12.7s12.7,12,14.9,12.6c2.2.6,8.8-14.3,8.8-14.3,0,0,2.8,19.6,3.9,21.3,1.1,1.8,7.7-23.1,7.7-23.1,0,0,8.8,18.1,9.9,20.4,1.1,2.3,4.4-14.3,4.4-14.3l9.4,14.3v-13.7s8.3,18.1,8.3,18.1v-19.8c0-.4,13.8,12.5,13.8,12.8s-.5-19.3-.5-19.3l11.6,19.3,5-11s7.2,18.7,7.2,19.2,9.9-21.1,9.9-21.6,7.7,20.1,10.5,20.8-3.3-17.8-3.3-17.8l12.1,19.2,5-26.6,12.7,20.4v-12.6s11.7,8.3,11.7,8.3l4.9-13.3,11,16.3,2.8-15,8.3,16.2v-12.7c0-.5,15.4,9.5,15.4,9.5v-15s3.3,15,3.3,15c0,0,14.3-27.4,14.3-27.7s6.1,30.9,6.1,30.9l8.3-21.4,5,13.3,2.8-17.2,14.9,16.8,3.3-17.6s6.1,13,7.2,14.4c1.1,1.4,14.3-16.2,14.3-16.2,0,0,1.1,15.8,1.1,16.3s8.8-15.2,8.8-15.2l6.1,9.3,5.5-14.5,8.8,26.4,7.7-27.9,7.7,21.4,9.4-26.1,2.8,16.8,9.9-18.7,16,20.2,3.9-23.5,20.9,24.2-11.6-25.9,12.7,19.6,2.2-17.8,14.9,20.3-2.8-18.9,11,11.7v-20.5s18.2,17.2,18.2,17.2c0,0,6.1-13,6.1-13.9s5.5,11,5.5,11l10.5-26.2v12.1s2.2-18.4,2.2-18.4l3.9,12.8s5.5-23.4,6.1-24.5,2.2,15.8,2.2,15.8c0,0,3.3-16.7,3.3-17.1s13.8,20.5,13.8,20.5l-2.2-24.7,5.5,14,5.5-20.8,6.1,12,6.1-23.5,5,22.4.5-18.3,14.3,41.4s-4.4-32.3-4.4-32.8,14.4,48,14.4,48l.4-21.7,19.8,23.4v-24.9s12.1,24.5,12.1,24.5l8.3-19.9,4.4,21.4,11-22.9,7.7,18.7,3.9-16.1,11.6,15.9,4.4-19.6,5,16.5,8.8-4.2,5,7.6s4.4-17.2,5.5-18.1,8.3,17.4,8.3,17.4l2.2-18.1,13.2,26.6v-34.7s12.1,30,12.1,30l-2.8-21.7,12.7,14.8,5-13.4,10.5,17.8,8.3-18.3,1.1,11.2s1.6-6.7,1.6-8.3,8.8,6,8.8,6l.6-12.4,9.4,23.7v-20.2s8.8,11.8,8.8,11.8l8.3-21.8,6.1,19.8,4.4-7.5,5,14.8v-21.9s12.7,18.5,12.7,18.5v-16.8s6.6,14.6,6.6,14.6l4.4-19.2,3.3,24.6,7.7-21.2v13.4s4.4-15.2,4.4-15.2l6.4,22.5v-20.6s7.3,19.4,7.3,19.4l2.4-22.9,12.2,18.6v-22.4s8.6,30.7,8.6,30.7l6.1-25.9v19.9s7.4-14.8,8.6-14.6,3.7,16.6,3.7,16.6l9.8-16.6v20.6"/>
      <g class="cls-1">
        <path class="cls-4" d="M1,330.9h974.9M1,316.6h974.9M1,301.5h974.9M1,287.4h974.9M1,272.4h974.9M1,258.3h974.9M1,243.3h974.9M1,229.1h974.9M1,214.1h974.9"/>
        <path class="cls-4" d="M47.9,201.5v142M125.7,201.5v142M207.2,201.5v142M288.1,201.5v142M365.9,201.5v142M447.4,201.5v142M523.9,201.5v142M605.4,201.5v142M681.9,201.5v142M763.3,201.5v142M840.4,201.5v142M921.8,201.5v142"/>
      </g>
      <rect class="cls-6" x="157.5" y="201.6" width="3.3" height="142.2"/>
      <rect class="cls-6" x="805.8" y="201.6" width="3.3" height="142.2"/>
      <rect class="cls-3" x="157.5" y="201.6" width="648.3" height="142.2"/>
      <path class="cls-5" d="M21.2,286.9v-20.6l9.8,16.6s2.5-16.4,3.7-16.6,8.6,14.6,8.6,14.6v-19.9l6.1,25.9,8.6-30.7v22.4l12.2-18.6,2.4,22.9,7.3-19.4v20.6l6.4-22.5,4.4,15.2v-13.4l7.7,21.2,3.3-24.6,4.4,19.2,6.6-14.6v16.8l12.7-18.5v21.9l5-14.8,4.4,7.5,6.1-19.8,8.3,21.8,8.8-11.8v20.2l9.4-23.7.6,12.4s8.8-7.6,8.8-6,1.6,8.3,1.6,8.3l1.1-11.2,8.3,18.3,10.5-17.8,5,13.4,12.7-14.8-2.8,21.7,12.1-30v34.7l13.2-26.6,2.2,18s7.2-18.3,8.3-17.4,5.5,18,5.5,18l5-7.6,8.8,4.2,5-16.5,4.4,19.6,11.6-15.9,3.9,16.1,7.7-18.7,11,22.9,4.4-21.5,8.3,19.9,12.1-24.5v24.9l19.8-23.4.4,21.7s14.4-48.5,14.4-48-4.4,32.8-4.4,32.8l14.3-41.4.5,18.3,5-22.4,6.1,23.5,6.1-12,5.5,20.8,5.5-14-2.2,24.7s13.8-20.9,13.8-20.5,3.3,17.1,3.3,17.1c0,0,1.6-16.9,2.2-15.8s6.1,24.5,6.1,24.5l3.9-12.8,2.2,18.4v-12.1l10.5,26.2s5.5-12,5.5-11,6.1,13.9,6.1,13.9l18.2-17.2v20.5l11-11.7-2.8,19,14.9-20.3,2.2,17.8,12.7-19.6-11.6,25.9,20.9-24.2,3.9,23.5,16-20.2,9.9,18.7,2.8-16.8,9.4,26.1,7.7-21.5,7.7,27.9,8.8-26.4,5.5,14.5,6.1-9.3s8.8,15.7,8.8,15.2,1.1-16.3,1.1-16.3c0,0,13.2,17.6,14.3,16.2s7.2-14.4,7.2-14.4l3.3,17.6,14.9-16.8,2.8,17.2,5-13.3,8.3,21.5s6.1-31.2,6.1-30.9,14.3,27.7,14.3,27.7l3.3-15v15s15.4-10,15.4-9.5v12.7l8.3-16.2,2.8,15,11-16.3,4.9,13.3,11.7-8.3v12.6l12.7-20.4,5,26.6,12.1-19.2s-6.1,18.5-3.3,17.8,10.5-21.3,10.5-20.8,9.9,22.1,9.9,21.6,7.2-19.2,7.2-19.2l5,11,11.6-19.3s-.5,19.6-.5,19.3,13.8-13.2,13.8-12.8v19.8l8.3-18v13.7l9.4-14.3s3.3,16.6,4.4,14.3c1.1-2.3,9.9-20.4,9.9-20.4,0,0,6.6,24.9,7.7,23.1,1.1-1.7,3.9-21.3,3.9-21.3,0,0,6.6,14.9,8.8,14.3s14.9-12.6,14.9-12.6l5,12.7,12.1-12.1s-5,15-5,14.2,19.3-25.3,19.3-25.3l12.1,26,13.8-22.4,5,22.9,8.8-22.7"/>
      <g class="cls-1">
        <path class="cls-4" d="M1,512.8h974.9M1,498.5h974.9M1,483.5h974.9M1,469.4h974.9M1,454.3h974.9M1,440.2h974.9M1,425.2h974.9M1,411h974.9M1,396h974.9"/>
        <path class="cls-4" d="M47.9,383.4v142M125.7,383.4v142M207.2,383.4v142M288.1,383.4v142M365.9,383.4v142M447.4,383.4v142M523.9,383.4v142M605.4,383.4v142M681.9,383.4v142M763.3,383.4v142M840.4,383.4v142M921.8,383.4v142"/>
      </g>
      <rect class="cls-6" x="157.5" y="383.5" width="3.3" height="142.2"/>
      <rect class="cls-6" x="805.8" y="383.5" width="3.3" height="142.2"/>
      <rect class="cls-3" x="157.5" y="383.5" width="648.3" height="142.2"/>
      <path class="cls-5" d="M21.2,488.7l8.8,22.7,5-22.9,13.8,22.4,12.1-26s19.3,24.5,19.3,25.3-5-14.2-5-14.2l12.1,12.1,5-12.7s12.7,12,14.9,12.6,8.8-14.3,8.8-14.3c0,0,2.8,19.7,3.9,21.3s7.7-23.2,7.7-23.2c0,0,8.8,18.1,9.9,20.4s4.4-14.3,4.4-14.3l9.4,14.3v-13.7s8.3,18,8.3,18v-19.8c0-.4,13.8,12.5,13.8,12.8s-.5-19.3-.5-19.3l11.6,19.3,5-11s7.2,18.7,7.2,19.2,9.9-21.1,9.9-21.6,7.7,20.1,10.5,20.8-3.3-17.8-3.3-17.8l12.1,19.2,5-26.6,12.7,20.4v-12.6s11.7,8.3,11.7,8.3l4.9-13.3,11,16.3,2.8-15,8.3,16.2v-12.7c0-.5,15.4,9.5,15.4,9.5v-15s3.3,15,3.3,15c0,0,14.3-27.4,14.3-27.7s6.1,30.9,6.1,30.9l8.3-21.5,5,13.3,2.8-17.2,14.9,16.8,3.3-17.6s6.1,13,7.2,14.4,14.3-16.2,14.3-16.2c0,0,1.1,15.8,1.1,16.3s8.8-15.2,8.8-15.2l6.1,9.3,5.5-14.5,8.8,26.4,7.7-27.9,7.7,21.5,9.4-26.1,2.8,16.8,9.9-18.7,16,20.2,3.9-23.5,20.9,24.2-11.6-25.9,12.7,19.6,2.2-17.8,14.9,20.3-2.8-19,11,11.7v-20.5s18.2,17.2,18.2,17.2c0,0,6.1-12.9,6.1-13.9s5.5,11,5.5,11l10.5-26.2v12.1s2.2-18.4,2.2-18.4l3.9,12.8s5.5-23.4,6.1-24.5,2.2,15.8,2.2,15.8c0,0,3.3-16.7,3.3-17.1s13.8,20.5,13.8,20.5l-2.2-24.7,5.5,14,5.5-20.8,6.1,12,6.1-23.5,5,22.4.5-18.3,14.3,41.4s-4.4-32.3-4.4-32.8,14.4,48,14.4,48l.4-21.7,19.8,23.4v-24.8s12.1,24.5,12.1,24.5l8.3-19.9,4.4,21.5,11-22.9,7.7,18.7,3.9-16.1,11.6,15.9,4.4-19.6,5,16.5,8.8-4.2,5,7.6s4.4-17.1,5.5-18,8.3,17.4,8.3,17.4l2.2-18,13.2,26.6v-34.7s12.1,30,12.1,30l-2.8-21.7,12.7,14.8,5-13.4,10.5,17.8,8.3-18.3,1.1,11.2s1.6-6.7,1.6-8.3,8.8,6,8.8,6l.6-12.4,9.4,23.7v-20.2s8.8,11.8,8.8,11.8l8.3-21.8,6.1,19.8,4.4-7.5,5,14.8v-21.9s12.7,18.5,12.7,18.5v-16.8s6.6,14.6,6.6,14.6l4.4-19.2,3.3,24.6,7.7-21.2v13.4s4.4-15.2,4.4-15.2l6.4,22.5v-20.7s7.3,19.4,7.3,19.4l2.4-22.9,12.2,18.6v-22.4s8.6,30.7,8.6,30.7l6.1-25.9v19.9s7.4-14.8,8.6-14.6,3.7,16.6,3.7,16.6l9.8-16.6v20.7"/>
      <g class="cls-1">
        <path class="cls-4" d="M1,684.2h974.9M1,669.8h974.9M1,654.8h974.9M1,640.7h974.9M1,625.7h974.9M1,611.6h974.9M1,596.6h974.9M1,582.4h974.9M1,567.3h974.9"/>
        <path class="cls-4" d="M47.9,554.7v142M125.7,554.7v142M207.2,554.7v142M288.1,554.7v142M365.9,554.7v142M447.4,554.7v142M523.9,554.7v142M605.4,554.7v142M681.9,554.7v142M763.3,554.7v142M840.4,554.7v142M921.8,554.7v142"/>
      </g>
      <rect class="cls-6" x="157.5" y="554.8" width="3.3" height="142.2"/>
      <rect class="cls-6" x="805.8" y="554.8" width="3.3" height="142.2"/>
      <rect class="cls-3" x="157.5" y="554.8" width="648.3" height="142.2"/>
      <path class="cls-5" d="M21.2,640.1v-20.7l9.8,16.6s2.5-16.4,3.7-16.6,8.6,14.6,8.6,14.6v-19.9l6.1,25.9,8.6-30.7v22.4l12.2-18.6,2.4,22.9,7.3-19.4v20.7l6.4-22.5,4.4,15.2v-13.4l7.7,21.2,3.3-24.6,4.4,19.2,6.6-14.6v16.8l12.7-18.5v21.9l5-14.8,4.4,7.5,6.1-19.8,8.3,21.8,8.8-11.8v20.2l9.4-23.7.6,12.4s8.8-7.6,8.8-6,1.6,8.3,1.6,8.3l1.1-11.2,8.3,18.3,10.5-17.8,5,13.4,12.7-14.8-2.8,21.7,12.1-30v34.7l13.2-26.6,2.2,18s7.2-18.3,8.3-17.4,5.5,18,5.5,18l5-7.6,8.8,4.2,5-16.5,4.4,19.6,11.6-15.9,3.9,16.1,7.7-18.7,11,22.9,4.4-21.5,8.3,19.9,12.1-24.5v24.8l19.8-23.4.4,21.7s14.4-48.5,14.4-48-4.4,32.8-4.4,32.8l14.3-41.4.5,18.3,5-22.4,6.1,23.5,6.1-12,5.5,20.8,5.5-14-2.2,24.7s13.8-20.9,13.8-20.5,3.3,17.1,3.3,17.1c0,0,1.6-16.9,2.2-15.8s6.1,24.5,6.1,24.5l3.9-12.8,2.2,18.4v-12.1l10.5,26.2s5.5-12,5.5-11,6.1,13.9,6.1,13.9l18.2-17.2v20.5l11-11.7-2.8,19,14.9-20.3,2.2,17.8,12.7-19.6-11.6,25.9,20.9-24.2,3.9,23.5,16-20.2,9.9,18.7,2.8-16.8,9.4,26.1,7.7-21.5,7.7,27.9,8.8-26.4,5.5,14.5,6.1-9.3s8.8,15.7,8.8,15.2,1.1-16.3,1.1-16.3c0,0,13.2,17.6,14.3,16.2s7.2-14.4,7.2-14.4l3.3,17.6,14.9-16.8,2.8,17.2,5-13.3,8.3,21.5s6.1-31.2,6.1-30.9,14.3,27.7,14.3,27.7l3.3-15v15s15.4-10,15.4-9.5v12.7l8.3-16.2,2.8,15,11-16.3,4.9,13.3,11.7-8.3v12.6l12.7-20.4,5,26.6,12.1-19.2s-6.1,18.5-3.3,17.8,10.5-21.3,10.5-20.8,9.9,22.1,9.9,21.6,7.2-19.2,7.2-19.2l5,11,11.6-19.3s-.5,19.6-.5,19.3,13.8-13.2,13.8-12.8v19.8l8.3-18v13.7l9.4-14.3s3.3,16.6,4.4,14.3,9.9-20.4,9.9-20.4c0,0,6.6,24.8,7.7,23.2,1.1-1.7,3.9-21.3,3.9-21.3,0,0,6.6,14.9,8.8,14.3,2.2-.6,14.9-12.6,14.9-12.6l5,12.7,12.1-12.1s-5,15-5,14.2,19.3-25.3,19.3-25.3l12.1,26,13.8-22.4,5,22.9,8.8-22.7"/>
    </g>
  </g>
</svg>