<?xml version="1.0" encoding="UTF-8"?><svg id="Layer_2" xmlns="http://www.w3.org/2000/svg" viewBox="0 0 252.52 152.9"><defs><style>.cls-1{fill:#ccc;}.cls-1,.cls-2{stroke-width:0px;}.cls-2{fill:#231f20;}.cls-3{fill:none;stroke:#ccc;stroke-linecap:round;stroke-linejoin:round;stroke-width:2.68px;}</style></defs><g id="Layer_1-2"><path class="cls-1" d="M237.67,1.99c7.09,0,12.85,5.77,12.85,12.85v123.2c0,7.09-5.77,12.85-12.85,12.85H14.85c-7.09,0-12.85-5.77-12.85-12.85V14.85C1.99,7.76,7.76,1.99,14.85,1.99h222.82M237.67,0H14.85C6.65,0,0,6.65,0,14.85v123.2c0,8.2,6.65,14.85,14.85,14.85h222.82c8.2,0,14.85-6.65,14.85-14.85V14.85c0-8.2-6.65-14.85-14.85-14.85h0Z"/><path class="cls-1" d="M0,32.74V14.85C0,6.65,6.65,0,14.85,0h222.82C245.87,0,252.52,6.65,252.52,14.85v17.89H0Z"/><circle class="cls-1" cx="29.59" cy="69.96" r="17.96"/><line class="cls-3" x1="61.56" y1="44.78" x2="61.56" y2="134.72"/><path class="cls-1" d="M83.61,118.26c.3-3.72-.09-7.44-1.12-11.02l-2.24,1.3c2.61,2.94,3.3,6.98,4.41,10.63,1,3.28,2.57,6.62,5.35,8.77,2.67,2.07,6.16,2.45,9.2.96s5.18-4.48,6.71-7.39c1.9-3.61,3.18-7.6,4.44-11.46,1.42-4.38,2.64-8.82,3.64-13.31,2-8.95,3.17-18.09,3.48-27.25.08-2.26.1-4.52.07-6.79-.02-1.16-.38-3.49,1.41-3.26,1.29.17,2.54,1.23,3.29,2.23.89,1.19,1.09,2.67,1.45,4.07.69,2.74,1.62,6.05,4.4,7.35,1.56.73,3.3.62,4.88,0s3.12-1.74,4.85-2.06c2.28-.41,3.83,1.22,4.95,2.99,1.38,2.18,2.36,4.59,3.74,6.78s3.19,4.19,5.73,4.97c3.45,1.05,6.99-.69,9.39-3.12,2.78-2.81,3.95-6.5,5.02-10.21s2.06-7.73,5.25-10.09c2.32-1.71,5.97-2.75,8.11-.2,1.85,2.2,2.09,5.33,3.73,7.67.81,1.15,1.85,1.96,3.2,2.41.78.26,1.76-.45,1.7-1.29-.13-1.72,2.56-1.66,3.62-1.1,2.1,1.12,3.19,3.72,4.98,5.23,1.54,1.3,3.49,1.85,5.48,1.42,1.88-.4,3.28-1.79,3.33-3.75l-.66,1.16c.39-.17,1.5,1.72,1.67,1.96.71,1,1.48,1.99,2.61,2.53,2.44,1.14,4.93-.45,6.44-2.34,1.78-2.23,2.14-4.71,2.81-7.38.47-1.88,1.27-4.92,3.6-5.2,1.69-.2,1.71-2.89,0-2.68-2.66.32-4.3,2.08-5.3,4.47s-1.01,5.35-2.26,7.71c-.6,1.12-1.45,2.32-2.62,2.89s-2.04-.11-2.77-1.09c-1.43-1.9-2.77-4.36-5.52-3.17-.43.18-.65.73-.66,1.16-.04,1.69-2.91,1.3-3.84.73-2.04-1.25-3.11-3.75-4.96-5.25-1.55-1.26-3.55-1.74-5.5-1.19-1.79.5-3.25,1.96-3.1,3.92l1.7-1.29c-2.54-.85-3.13-4.62-4.1-6.75-1.27-2.78-3.49-4.83-6.66-4.95s-6.4,1.65-8.45,3.99c-2.59,2.95-3.53,6.95-4.61,10.63s-2.44,7.44-5.81,9.64c-2.69,1.75-5.63,1.5-7.8-.86-3.27-3.57-4.01-9.32-8.25-12.04-2.54-1.64-5.36-.9-7.89.35-1.39.69-3.07,1.74-4.67,1.12-1.24-.48-1.9-1.8-2.33-2.97-1.08-2.91-1.13-6.09-3.33-8.47-1.71-1.85-4.92-3.61-7.29-1.9-1.48,1.07-1.64,2.88-1.61,4.57.04,2.26.03,4.52-.03,6.79-.13,4.52-.47,9.04-1.02,13.53-1.12,9.09-3.13,18.09-5.95,26.8-1.28,3.94-2.55,8.05-4.59,11.68-1.5,2.67-3.77,5.78-7.02,6.3-3.53.57-6.12-2.25-7.6-5.1-1.74-3.35-2.21-7.2-3.64-10.67-.71-1.72-1.62-3.28-2.86-4.67-.9-1.02-2.6.06-2.24,1.3.97,3.37,1.31,6.81,1.02,10.31-.14,1.72,2.54,1.71,2.68,0h0Z"/><path class="cls-2" d="M30.54,12.64h-3.27v9.07h-1.33v-9.07h-3.26v-1.1h7.86v1.1Z"/><path class="cls-2" d="M31.86,12.15c0-.21.06-.39.19-.53.13-.14.32-.22.57-.22s.44.07.57.22c.13.14.2.32.2.53s-.07.38-.2.52c-.13.14-.32.21-.57.21s-.44-.07-.57-.21-.19-.31-.19-.52ZM33.25,21.71h-1.29v-7.55h1.29v7.55Z"/><path class="cls-2" d="M37.07,12.33v1.83h1.41v1h-1.41v4.69c0,.3.06.53.19.68.13.15.34.23.64.23.15,0,.35-.03.61-.08v1.04c-.34.09-.67.14-.99.14-.58,0-1.01-.17-1.31-.52-.29-.35-.44-.84-.44-1.49v-4.68h-1.38v-1h1.38v-1.83h1.29Z"/><path class="cls-2" d="M41.39,21.71h-1.29v-10.72h1.29v10.72Z"/><path class="cls-2" d="M46.6,21.85c-1.02,0-1.86-.34-2.5-1.01-.64-.67-.96-1.57-.96-2.7v-.24c0-.75.14-1.42.43-2.01.29-.59.69-1.05,1.2-1.38.51-.33,1.07-.5,1.67-.5.98,0,1.75.32,2.29.97.54.65.82,1.57.82,2.78v.54h-5.12c.02.75.24,1.35.65,1.8.42.46.95.69,1.59.69.46,0,.84-.09,1.16-.28.32-.19.59-.43.83-.74l.79.61c-.63.97-1.58,1.46-2.85,1.46ZM46.43,15.08c-.52,0-.96.19-1.31.57-.35.38-.57.91-.66,1.59h3.78v-.1c-.04-.66-.21-1.16-.53-1.53-.32-.36-.75-.54-1.29-.54Z"/><path class="cls-2" d="M54.23,17.87c0-.74.14-1.41.44-2s.7-1.05,1.21-1.37c.52-.32,1.11-.48,1.78-.48,1.03,0,1.86.36,2.5,1.07.63.71.95,1.66.95,2.84v.09c0,.74-.14,1.4-.42,1.98s-.68,1.04-1.21,1.37c-.52.33-1.12.49-1.8.49-1.02,0-1.85-.36-2.49-1.07-.63-.71-.95-1.65-.95-2.83v-.09ZM55.53,18.02c0,.84.19,1.51.58,2.02.39.51.91.76,1.56.76s1.18-.26,1.56-.77c.39-.51.58-1.23.58-2.16,0-.83-.2-1.5-.59-2.01-.39-.51-.92-.77-1.57-.77s-1.15.25-1.54.76c-.39.51-.59,1.23-.59,2.18Z"/><path class="cls-2" d="M63.37,21.71v-6.56h-1.19v-1h1.19v-.77c0-.81.22-1.44.65-1.88.43-.44,1.04-.66,1.84-.66.3,0,.59.04.89.12l-.07,1.04c-.22-.04-.45-.06-.7-.06-.42,0-.74.12-.97.37-.23.25-.34.6-.34,1.05v.8h1.61v1h-1.61v6.56h-1.29Z"/><path class="cls-2" d="M77.18,17.01h-4.41v3.6h5.12v1.1h-6.46v-10.17h6.39v1.1h-5.05v3.27h4.41v1.1Z"/><path class="cls-2" d="M81.67,19.96l1.87-5.8h1.32l-2.71,7.55h-.98l-2.74-7.55h1.32l1.92,5.8Z"/><path class="cls-2" d="M89.24,21.85c-1.02,0-1.86-.34-2.5-1.01-.64-.67-.96-1.57-.96-2.7v-.24c0-.75.14-1.42.43-2.01.29-.59.69-1.05,1.2-1.38.51-.33,1.07-.5,1.67-.5.98,0,1.75.32,2.29.97.54.65.82,1.57.82,2.78v.54h-5.12c.02.75.24,1.35.65,1.8.42.46.95.69,1.59.69.46,0,.84-.09,1.16-.28.32-.19.59-.43.83-.74l.79.61c-.63.97-1.58,1.46-2.85,1.46ZM89.08,15.08c-.52,0-.96.19-1.31.57-.35.38-.57.91-.66,1.59h3.78v-.1c-.04-.66-.21-1.16-.53-1.53-.32-.36-.75-.54-1.29-.54Z"/><path class="cls-2" d="M94.9,14.16l.04.95c.58-.73,1.33-1.09,2.26-1.09,1.6,0,2.4.9,2.42,2.7v4.99h-1.29v-5c0-.54-.13-.95-.37-1.21s-.62-.39-1.14-.39c-.42,0-.79.11-1.1.33s-.56.52-.74.88v5.38h-1.29v-7.55h1.22Z"/><path class="cls-2" d="M103.32,12.33v1.83h1.41v1h-1.41v4.69c0,.3.06.53.19.68.13.15.34.23.64.23.15,0,.35-.03.61-.08v1.04c-.34.09-.67.14-.99.14-.58,0-1.01-.17-1.31-.52-.29-.35-.44-.84-.44-1.49v-4.68h-1.38v-1h1.38v-1.83h1.29Z"/><path class="cls-2" d="M117.46,18.49c-.13,1.08-.52,1.91-1.19,2.49s-1.56.88-2.66.88c-1.2,0-2.16-.43-2.89-1.29-.72-.86-1.08-2.01-1.08-3.46v-.98c0-.95.17-1.78.51-2.49s.82-1.27,1.43-1.65c.62-.38,1.34-.58,2.15-.58,1.08,0,1.95.3,2.6.9.65.6,1.03,1.44,1.14,2.5h-1.35c-.12-.81-.37-1.4-.76-1.77-.39-.36-.93-.55-1.63-.55-.86,0-1.53.32-2.01.95s-.73,1.54-.73,2.7v.99c0,1.1.23,1.98.69,2.63.46.65,1.11.98,1.93.98.74,0,1.32-.17,1.71-.51.4-.34.66-.92.79-1.76h1.35Z"/><path class="cls-2" d="M123.75,21.71c-.08-.15-.14-.41-.18-.8-.6.62-1.32.94-2.15.94-.75,0-1.36-.21-1.83-.63s-.72-.96-.72-1.6c0-.79.3-1.4.9-1.83.6-.44,1.44-.65,2.52-.65h1.26v-.59c0-.45-.13-.81-.4-1.08-.27-.27-.67-.4-1.19-.4-.46,0-.85.12-1.16.35-.31.23-.47.51-.47.84h-1.3c0-.38.13-.74.4-1.09.27-.35.63-.63,1.09-.83.46-.21.96-.31,1.51-.31.87,0,1.55.22,2.04.65.49.44.75,1.03.77,1.8v3.48c0,.69.09,1.25.27,1.66v.11h-1.35ZM121.61,20.73c.4,0,.79-.1,1.15-.31.36-.21.63-.48.79-.82v-1.55h-1.01c-1.58,0-2.37.46-2.37,1.39,0,.41.13.72.41.95.27.23.62.34,1.04.34Z"/><path class="cls-2" d="M130.52,15.32c-.2-.03-.41-.05-.64-.05-.85,0-1.42.36-1.72,1.08v5.36h-1.29v-7.55h1.26l.02.87c.42-.67,1.02-1.01,1.8-1.01.25,0,.44.03.57.1v1.2Z"/><path class="cls-2" d="M131.39,17.87c0-1.16.27-2.09.82-2.8.55-.71,1.27-1.06,2.16-1.06s1.58.3,2.1.91v-3.94h1.29v10.72h-1.19l-.06-.81c-.52.63-1.24.95-2.16.95s-1.59-.36-2.14-1.08c-.55-.72-.83-1.65-.83-2.81v-.1ZM132.68,18.02c0,.86.18,1.53.53,2.01s.84.73,1.47.73c.82,0,1.42-.37,1.79-1.1v-3.47c-.39-.71-.98-1.07-1.78-1.07-.63,0-1.13.24-1.48.73-.35.49-.53,1.21-.53,2.17Z"/></g></svg>