<?xml version="1.0" encoding="UTF-8"?>
<svg id="Layer_1" data-name="Layer 1" xmlns="http://www.w3.org/2000/svg" version="1.1" viewBox="0 0 1022.2 718.2">
  <defs>
    <style>
      .cls-1 {
        stroke-width: .7px;
      }

      .cls-1, .cls-2, .cls-3 {
        fill: none;
      }

      .cls-1, .cls-3 {
        stroke: #333;
        stroke-linecap: round;
        stroke-linejoin: round;
      }

      .cls-4, .cls-5 {
        isolation: isolate;
      }

      .cls-2 {
        stroke: #606060;
        stroke-miterlimit: 10;
        stroke-width: 2px;
      }

      .cls-3 {
        stroke-width: .7px;
      }

      .cls-6, .cls-5 {
        fill: #333;
        stroke-width: 0px;
      }

      .cls-7 {
        mix-blend-mode: overlay;
        opacity: .2;
      }

      .cls-5 {
        opacity: .1;
      }
    </style>
  </defs>
  <g class="cls-4">
    <g id="Layer_2" data-name="Layer 2">
      <g id="Layer_1-2" data-name="Layer 1-2">
        <g class="cls-7">
          <path class="cls-3" d="M1,147.7h974.9M1,133.3h974.9M1,118.3h974.9M1,104.2h974.9M1,89.2h974.9M1,75.1h974.9M1,60h974.9M1,45.8h974.9M1,30.8h974.9"/>
          <path class="cls-1" d="M47.9,18.2v142M125.7,18.2v142M207.2,18.2v142M288.1,18.2v142M365.9,18.2v142M447.4,18.2v142M523.9,18.2v142M605.4,18.2v142M681.9,18.2v142M763.3,18.2v142M840.4,18.2v142M921.8,18.2v142"/>
        </g>
        <rect class="cls-6" x="157.5" y="18.3" width="3.3" height="142.2"/>
        <rect class="cls-6" x="805.8" y="18.3" width="3.3" height="142.2"/>
        <rect class="cls-5" x="157.5" y="18.3" width="648.3" height="142.2"/>
        <path class="cls-2" d="M21.2,103.6v-20.6l9.8,16.6s2.5-16.4,3.7-16.6,8.6,14.6,8.6,14.6v-19.9l6.1,25.9,8.6-30.7v22.4l12.2-18.6,2.4,22.9,7.3-19.4v20.6l6.4-22.5,4.4,15.2v-13.4l7.7,21.2,3.3-24.6,4.4,19.2,6.6-14.6v16.8l12.7-18.5v21.9l5-14.8,4.4,7.5,6.1-19.8,8.3,21.8,8.8-11.8v20.2l9.4-23.7.6,12.4s8.8-7.6,8.8-6,1.6,8.3,1.6,8.3l1.1-11.2,8.3,18.3,10.5-17.8,5,13.4,12.7-14.8-2.8,21.7,12.1-30v34.7l13.2-26.6,2.2,18.1s7.2-18.3,8.3-17.4c1.1.9,5.5,18.1,5.5,18.1l5-7.6,8.8,4.2,5-16.5,4.4,19.6,11.6-15.9,3.9,16.1,7.7-18.7,11,22.9,4.4-21.4,8.3,19.9,12.1-24.5v24.9l19.8-23.4.4,21.7s14.4-48.5,14.4-48-4.4,32.8-4.4,32.8l14.3-41.4.5,18.3,5-22.4,6.1,23.5,6.1-12,5.5,20.8,5.5-14-2.2,24.7s13.8-20.9,13.8-20.5,3.3,17.1,3.3,17.1c0,0,1.6-16.9,2.2-15.8s6.1,24.5,6.1,24.5l3.9-12.8,2.2,18.4v-12.1l10.5,26.2s5.5-11.9,5.5-11,6.1,13.9,6.1,13.9l18.2-17.2v20.5l11-11.7-2.8,18.9,14.9-20.3,2.2,17.8,12.7-19.6-11.6,25.9,20.9-24.2,3.9,23.5,16-20.2,9.9,18.7,2.8-16.8,9.4,26.1,7.7-21.4,7.7,27.9,8.8-26.4,5.5,14.5,6.1-9.3s8.8,15.7,8.8,15.2,1.1-16.3,1.1-16.3c0,0,13.2,17.6,14.3,16.2,1.1-1.4,7.2-14.4,7.2-14.4l3.3,17.6,14.9-16.8,2.8,17.2,5-13.3,8.3,21.4s6.1-31.2,6.1-30.9,14.3,27.7,14.3,27.7l3.3-15v15s15.4-10,15.4-9.5v12.7l8.3-16.2,2.8,15,11-16.3,4.9,13.3,11.7-8.3v12.6l12.7-20.4,5,26.6,12.1-19.2s-6.1,18.5-3.3,17.8,10.5-21.3,10.5-20.8,9.9,22.1,9.9,21.6,7.2-19.2,7.2-19.2l5,11,11.6-19.3s-.5,19.6-.5,19.3,13.8-13.2,13.8-12.8v19.8l8.3-18.1v13.7l9.4-14.3s3.3,16.6,4.4,14.3c1.1-2.3,9.9-20.4,9.9-20.4,0,0,6.6,24.9,7.7,23.1,1.1-1.7,3.9-21.3,3.9-21.3,0,0,6.6,14.9,8.8,14.3,2.2-.6,14.9-12.6,14.9-12.6l5,12.7,12.1-12.1s-5,15-5,14.2,19.3-25.3,19.3-25.3l12.1,26,13.8-22.4,5,22.9,8.8-22.7"/>
        <g class="cls-7">
          <path class="cls-3" d="M1,330.9h974.9M1,316.6h974.9M1,301.5h974.9M1,287.4h974.9M1,272.4h974.9M1,258.3h974.9M1,243.3h974.9M1,229.1h974.9M1,214.1h974.9"/>
          <path class="cls-1" d="M47.9,201.5v142M125.7,201.5v142M207.2,201.5v142M288.1,201.5v142M365.9,201.5v142M447.4,201.5v142M523.9,201.5v142M605.4,201.5v142M681.9,201.5v142M763.3,201.5v142M840.4,201.5v142M921.8,201.5v142"/>
        </g>
        <rect class="cls-6" x="157.5" y="201.6" width="3.3" height="142.2"/>
        <rect class="cls-6" x="805.8" y="201.6" width="3.3" height="142.2"/>
        <rect class="cls-5" x="157.5" y="201.6" width="648.3" height="142.2"/>
        <path class="cls-2" d="M21.2,286.9v-20.6l9.8,16.6s2.5-16.4,3.7-16.6,8.6,14.6,8.6,14.6v-19.9l6.1,25.9,8.6-30.7v22.4l12.2-18.6,2.4,22.9,7.3-19.4v20.6l6.4-22.5,4.4,15.2v-13.4l7.7,21.2,3.3-24.6,4.4,19.2,6.6-14.6v16.8l12.7-18.5v21.9l5-14.8,4.4,7.5,6.1-19.8,8.3,21.8,8.8-11.8v20.2l9.4-23.7.6,12.4s8.8-7.6,8.8-6,1.6,8.3,1.6,8.3l1.1-11.2,8.3,18.3,10.5-17.8,5,13.4,12.7-14.8-2.8,21.7,12.1-30v34.7l13.2-26.6,2.2,18s7.2-18.3,8.3-17.4c1.1.9,5.5,18,5.5,18l5-7.6,8.8,4.2,5-16.5,4.4,19.6,11.6-15.9,3.9,16.1,7.7-18.7,11,22.9,4.4-21.5,8.3,19.9,12.1-24.5v24.9l19.8-23.4.4,21.7s14.4-48.5,14.4-48-4.4,32.8-4.4,32.8l14.3-41.4.5,18.3,5-22.4,6.1,23.5,6.1-12,5.5,20.8,5.5-14-2.2,24.7s13.8-20.9,13.8-20.5,3.3,17.1,3.3,17.1c0,0,1.6-16.9,2.2-15.8s6.1,24.5,6.1,24.5l3.9-12.8,2.2,18.4v-12.1l10.5,26.2s5.5-12,5.5-11,6.1,13.9,6.1,13.9l18.2-17.2v20.5l11-11.7-2.8,19,14.9-20.3,2.2,17.8,12.7-19.6-11.6,25.9,20.9-24.2,3.9,23.5,16-20.2,9.9,18.7,2.8-16.8,9.4,26.1,7.7-21.5,7.7,27.9,8.8-26.4,5.5,14.5,6.1-9.3s8.8,15.7,8.8,15.2,1.1-16.3,1.1-16.3c0,0,13.2,17.6,14.3,16.2s7.2-14.4,7.2-14.4l3.3,17.6,14.9-16.8,2.8,17.2,5-13.3,8.3,21.5s6.1-31.2,6.1-30.9,14.3,27.7,14.3,27.7l3.3-15v15s15.4-10,15.4-9.5v12.7l8.3-16.2,2.8,15,11-16.3,4.9,13.3,11.7-8.3v12.6l12.7-20.4,5,26.6,12.1-19.2s-6.1,18.5-3.3,17.8c2.8-.7,10.5-21.3,10.5-20.8s9.9,22.1,9.9,21.6,7.2-19.2,7.2-19.2l5,11,11.6-19.3s-.5,19.6-.5,19.3,13.8-13.2,13.8-12.8v19.8l8.3-18v13.7l9.4-14.3s3.3,16.6,4.4,14.3c1.1-2.3,9.9-20.4,9.9-20.4,0,0,6.6,24.9,7.7,23.1,1.1-1.7,3.9-21.3,3.9-21.3,0,0,6.6,14.9,8.8,14.3s14.9-12.6,14.9-12.6l5,12.7,12.1-12.1s-5,15-5,14.2,19.3-25.3,19.3-25.3l12.1,26,13.8-22.4,5,22.9,8.8-22.7"/>
        <g class="cls-7">
          <path class="cls-3" d="M1,512.8h974.9M1,498.5h974.9M1,483.5h974.9M1,469.4h974.9M1,454.3h974.9M1,440.2h974.9M1,425.2h974.9M1,411h974.9M1,396h974.9"/>
          <path class="cls-1" d="M47.9,383.4v142M125.7,383.4v142M207.2,383.4v142M288.1,383.4v142M365.9,383.4v142M447.4,383.4v142M523.9,383.4v142M605.4,383.4v142M681.9,383.4v142M763.3,383.4v142M840.4,383.4v142M921.8,383.4v142"/>
        </g>
        <rect class="cls-6" x="157.5" y="383.5" width="3.3" height="142.2"/>
        <rect class="cls-6" x="805.8" y="383.5" width="3.3" height="142.2"/>
        <rect class="cls-5" x="157.5" y="383.5" width="648.3" height="142.2"/>
        <path class="cls-2" d="M21.2,468.8v-20.7l9.8,16.6s2.5-16.4,3.7-16.6,8.6,14.6,8.6,14.6v-19.9l6.1,25.9,8.6-30.7v22.4l12.2-18.6,2.4,22.9,7.3-19.4v20.7l6.4-22.5,4.4,15.2v-13.4l7.7,21.2,3.3-24.6,4.4,19.2,6.6-14.6v16.8l12.7-18.5v21.9l5-14.8,4.4,7.5,6.1-19.8,8.3,21.8,8.8-11.8v20.2l9.4-23.7.6,12.4s8.8-7.6,8.8-6,1.6,8.3,1.6,8.3l1.1-11.2,8.3,18.3,10.5-17.8,5,13.4,12.7-14.8-2.8,21.7,12.1-30v34.7l13.2-26.6,2.2,18s7.2-18.3,8.3-17.4,5.5,18,5.5,18l5-7.6,8.8,4.2,5-16.5,4.4,19.6,11.6-15.9,3.9,16.1,7.7-18.7,11,22.9,4.4-21.5,8.3,19.9,12.1-24.5v24.8l19.8-23.4.4,21.7s14.4-48.5,14.4-48-4.4,32.8-4.4,32.8l14.3-41.4.5,18.3,5-22.4,6.1,23.5,6.1-12,5.5,20.8,5.5-14-2.2,24.7s13.8-20.9,13.8-20.5,3.3,17.1,3.3,17.1c0,0,1.6-16.9,2.2-15.8.6,1.1,6.1,24.5,6.1,24.5l3.9-12.8,2.2,18.4v-12.1l10.5,26.2s5.5-12,5.5-11,6.1,13.9,6.1,13.9l18.2-17.2v20.5l11-11.7-2.8,19,14.9-20.3,2.2,17.8,12.7-19.6-11.6,25.9,20.9-24.2,3.9,23.5,16-20.2,9.9,18.7,2.8-16.8,9.4,26.1,7.7-21.5,7.7,27.9,8.8-26.4,5.5,14.5,6.1-9.3s8.8,15.7,8.8,15.2,1.1-16.3,1.1-16.3c0,0,13.2,17.6,14.3,16.2,1.1-1.4,7.2-14.4,7.2-14.4l3.3,17.6,14.9-16.8,2.8,17.2,5-13.3,8.3,21.5s6.1-31.2,6.1-30.9,14.3,27.7,14.3,27.7l3.3-15v15s15.4-10,15.4-9.5v12.7l8.3-16.2,2.8,15,11-16.3,4.9,13.3,11.7-8.3v12.6l12.7-20.4,5,26.6,12.1-19.2s-6.1,18.5-3.3,17.8c2.8-.7,10.5-21.3,10.5-20.8s9.9,22.1,9.9,21.6,7.2-19.2,7.2-19.2l5,11,11.6-19.3s-.5,19.6-.5,19.3,13.8-13.2,13.8-12.8v19.8l8.3-18v13.7l9.4-14.3s3.3,16.6,4.4,14.3,9.9-20.4,9.9-20.4c0,0,6.6,24.8,7.7,23.2s3.9-21.3,3.9-21.3c0,0,6.6,14.9,8.8,14.3s14.9-12.6,14.9-12.6l5,12.7,12.1-12.1s-5,15-5,14.2,19.3-25.3,19.3-25.3l12.1,26,13.8-22.4,5,22.9,8.8-22.7"/>
        <g class="cls-7">
          <path class="cls-3" d="M1,684.2h974.9M1,669.8h974.9M1,654.8h974.9M1,640.7h974.9M1,625.7h974.9M1,611.6h974.9M1,596.6h974.9M1,582.4h974.9M1,567.3h974.9"/>
          <path class="cls-1" d="M47.9,554.7v142M125.7,554.7v142M207.2,554.7v142M288.1,554.7v142M365.9,554.7v142M447.4,554.7v142M523.9,554.7v142M605.4,554.7v142M681.9,554.7v142M763.3,554.7v142M840.4,554.7v142M921.8,554.7v142"/>
        </g>
        <rect class="cls-6" x="157.5" y="554.8" width="3.3" height="142.2"/>
        <rect class="cls-6" x="805.8" y="554.8" width="3.3" height="142.2"/>
        <rect class="cls-5" x="157.5" y="554.8" width="648.3" height="142.2"/>
        <path class="cls-2" d="M21.2,640.1v-20.7l9.8,16.6s2.5-16.4,3.7-16.6,8.6,14.6,8.6,14.6v-19.9l6.1,25.9,8.6-30.7v22.4l12.2-18.6,2.4,22.9,7.3-19.4v20.7l6.4-22.5,4.4,15.2v-13.4l7.7,21.2,3.3-24.6,4.4,19.2,6.6-14.6v16.8l12.7-18.5v21.9l5-14.8,4.4,7.5,6.1-19.8,8.3,21.8,8.8-11.8v20.2l9.4-23.7.6,12.4s8.8-7.6,8.8-6,1.6,8.3,1.6,8.3l1.1-11.2,8.3,18.3,10.5-17.8,5,13.4,12.7-14.8-2.8,21.7,12.1-30v34.7l13.2-26.6,2.2,18s7.2-18.3,8.3-17.4,5.5,18,5.5,18l5-7.6,8.8,4.2,5-16.5,4.4,19.6,11.6-15.9,3.9,16.1,7.7-18.7,11,22.9,4.4-21.5,8.3,19.9,12.1-24.5v24.8l19.8-23.4.4,21.7s14.4-48.5,14.4-48-4.4,32.8-4.4,32.8l14.3-41.4.5,18.3,5-22.4,6.1,23.5,6.1-12,5.5,20.8,5.5-14-2.2,24.7s13.8-20.9,13.8-20.5,3.3,17.1,3.3,17.1c0,0,1.6-16.9,2.2-15.8s6.1,24.5,6.1,24.5l3.9-12.8,2.2,18.4v-12.1l10.5,26.2s5.5-12,5.5-11,6.1,13.9,6.1,13.9l18.2-17.2v20.5l11-11.7-2.8,19,14.9-20.3,2.2,17.8,12.7-19.6-11.6,25.9,20.9-24.2,3.9,23.5,16-20.2,9.9,18.7,2.8-16.8,9.4,26.1,7.7-21.5,7.7,27.9,8.8-26.4,5.5,14.5,6.1-9.3s8.8,15.7,8.8,15.2,1.1-16.3,1.1-16.3c0,0,13.2,17.6,14.3,16.2s7.2-14.4,7.2-14.4l3.3,17.6,14.9-16.8,2.8,17.2,5-13.3,8.3,21.5s6.1-31.2,6.1-30.9,14.3,27.7,14.3,27.7l3.3-15v15s15.4-10,15.4-9.5v12.7l8.3-16.2,2.8,15,11-16.3,4.9,13.3,11.7-8.3v12.6l12.7-20.4,5,26.6,12.1-19.2s-6.1,18.5-3.3,17.8c2.8-.7,10.5-21.3,10.5-20.8s9.9,22.1,9.9,21.6,7.2-19.2,7.2-19.2l5,11,11.6-19.3s-.5,19.6-.5,19.3,13.8-13.2,13.8-12.8v19.8l8.3-18v13.7l9.4-14.3s3.3,16.6,4.4,14.3,9.9-20.4,9.9-20.4c0,0,6.6,24.8,7.7,23.2,1.1-1.7,3.9-21.3,3.9-21.3,0,0,6.6,14.9,8.8,14.3,2.2-.6,14.9-12.6,14.9-12.6l5,12.7,12.1-12.1s-5,15-5,14.2,19.3-25.3,19.3-25.3l12.1,26,13.8-22.4,5,22.9,8.8-22.7"/>
      </g>
    </g>
  </g>
</svg>