<?xml version="1.0" encoding="UTF-8"?><svg id="Layer_2" xmlns="http://www.w3.org/2000/svg" viewBox="0 0 270.48 406.62"><defs><style>.cls-1{font-size:22.34px;}.cls-1,.cls-2{font-family:Roboto-Regular, Roboto;}.cls-1,.cls-2,.cls-3{fill:#231f20;}.cls-4{stroke:gray;stroke-width:.63px;}.cls-4,.cls-5{fill:#fff;stroke-miterlimit:10;}.cls-2{font-size:14.3px;}.cls-3{stroke-width:0px;}.cls-5{stroke:#606060;stroke-width:.59px;}</style></defs><g id="Layer_1-2"><rect class="cls-5" x="17.57" y="71.03" width="237.45" height="37.43" rx="4.47" ry="4.47"/><rect class="cls-5" x="17.57" y="119.02" width="237.45" height="37.43" rx="4.47" ry="4.47"/><path class="cls-3" d="M111.75,94.02h-1.35l-5.12-7.83v7.83h-1.35v-10.17h1.35l5.13,7.87v-7.87h1.33v10.17Z"/><path class="cls-3" d="M117.07,94.16c-1.02,0-1.86-.34-2.5-1.01-.64-.67-.96-1.57-.96-2.7v-.24c0-.75.14-1.42.43-2.01.29-.59.69-1.05,1.2-1.38.51-.33,1.07-.5,1.67-.5.98,0,1.75.32,2.29.97.54.65.82,1.57.82,2.78v.54h-5.12c.02.75.24,1.35.65,1.8.42.46.95.69,1.59.69.46,0,.84-.09,1.16-.28.32-.19.59-.43.83-.74l.79.61c-.63.97-1.58,1.46-2.85,1.46ZM116.91,87.38c-.52,0-.96.19-1.31.57-.35.38-.57.91-.66,1.59h3.78v-.1c-.04-.66-.21-1.16-.53-1.53-.32-.36-.75-.54-1.29-.54Z"/><path class="cls-3" d="M128.2,92.24l1.45-5.77h1.29l-2.2,7.55h-1.05l-1.84-5.72-1.79,5.72h-1.05l-2.19-7.55h1.29l1.49,5.66,1.76-5.66h1.04l1.79,5.77Z"/><path class="cls-3" d="M141.74,89.32h-4.41v3.6h5.12v1.1h-6.46v-10.17h6.39v1.1h-5.05v3.27h4.41v1.1Z"/><path class="cls-3" d="M146.23,92.27l1.87-5.8h1.32l-2.71,7.55h-.98l-2.74-7.55h1.32l1.92,5.8Z"/><path class="cls-3" d="M153.8,94.16c-1.02,0-1.86-.34-2.5-1.01-.64-.67-.96-1.57-.96-2.7v-.24c0-.75.14-1.42.43-2.01.29-.59.69-1.05,1.2-1.38.51-.33,1.07-.5,1.67-.5.98,0,1.75.32,2.29.97.54.65.82,1.57.82,2.78v.54h-5.12c.02.75.24,1.35.65,1.8.42.46.95.69,1.59.69.46,0,.84-.09,1.16-.28.32-.19.59-.43.83-.74l.79.61c-.63.97-1.58,1.46-2.85,1.46ZM153.64,87.38c-.52,0-.96.19-1.31.57-.35.38-.57.91-.66,1.59h3.78v-.1c-.04-.66-.21-1.16-.53-1.53-.32-.36-.75-.54-1.29-.54Z"/><path class="cls-3" d="M159.46,86.46l.04.95c.58-.73,1.33-1.09,2.26-1.09,1.6,0,2.4.9,2.42,2.7v4.99h-1.29v-5c0-.54-.13-.95-.37-1.21s-.62-.39-1.14-.39c-.42,0-.79.11-1.1.33s-.56.52-.74.88v5.38h-1.29v-7.55h1.22Z"/><path class="cls-3" d="M167.88,84.63v1.83h1.41v1h-1.41v4.69c0,.3.06.53.19.68.13.15.34.23.64.23.15,0,.35-.03.61-.08v1.04c-.34.09-.67.14-.99.14-.58,0-1.01-.17-1.31-.52-.29-.35-.44-.84-.44-1.49v-4.68h-1.38v-1h1.38v-1.83h1.29Z"/><path class="cls-3" d="M95.07,142.82v-10.17h2.87c.88,0,1.67.2,2.35.59.68.39,1.2.95,1.57,1.67s.56,1.55.56,2.49v.65c0,.96-.18,1.8-.55,2.52s-.9,1.28-1.58,1.66c-.69.39-1.49.58-2.4.59h-2.81ZM96.41,133.75v7.97h1.41c1.03,0,1.84-.32,2.41-.96s.86-1.56.86-2.75v-.59c0-1.16-.27-2.05-.81-2.69s-1.31-.96-2.31-.97h-1.56Z"/><path class="cls-3" d="M108.91,142.82c-.08-.15-.14-.41-.18-.8-.6.62-1.32.94-2.15.94-.75,0-1.36-.21-1.83-.63s-.72-.96-.72-1.6c0-.79.3-1.4.9-1.83.6-.44,1.44-.65,2.52-.65h1.26v-.59c0-.45-.13-.81-.4-1.08-.27-.27-.67-.4-1.19-.4-.46,0-.85.12-1.16.35-.31.23-.47.51-.47.84h-1.3c0-.38.13-.74.4-1.09.27-.35.63-.63,1.09-.83.46-.21.96-.31,1.51-.31.87,0,1.55.22,2.04.65.49.44.75,1.03.77,1.8v3.48c0,.69.09,1.25.27,1.66v.11h-1.35ZM106.77,141.83c.4,0,.79-.1,1.15-.31.36-.21.63-.48.79-.82v-1.55h-1.01c-1.58,0-2.37.46-2.37,1.39,0,.41.13.72.41.95.27.23.62.34,1.04.34Z"/><path class="cls-3" d="M113.77,133.43v1.83h1.41v1h-1.41v4.69c0,.3.06.53.19.68.13.15.34.23.64.23.15,0,.35-.03.61-.08v1.04c-.34.09-.67.14-.99.14-.58,0-1.01-.17-1.31-.52-.29-.35-.44-.84-.44-1.49v-4.68h-1.38v-1h1.38v-1.83h1.29Z"/><path class="cls-3" d="M121.36,142.82c-.08-.15-.14-.41-.18-.8-.6.62-1.32.94-2.15.94-.75,0-1.36-.21-1.83-.63s-.72-.96-.72-1.6c0-.79.3-1.4.9-1.83.6-.44,1.44-.65,2.52-.65h1.26v-.59c0-.45-.13-.81-.4-1.08-.27-.27-.67-.4-1.19-.4-.46,0-.85.12-1.16.35-.31.23-.47.51-.47.84h-1.3c0-.38.13-.74.4-1.09.27-.35.63-.63,1.09-.83.46-.21.96-.31,1.51-.31.87,0,1.55.22,2.04.65.49.44.75,1.03.77,1.8v3.48c0,.69.09,1.25.27,1.66v.11h-1.35ZM119.21,141.83c.4,0,.79-.1,1.15-.31.36-.21.63-.48.79-.82v-1.55h-1.01c-1.58,0-2.37.46-2.37,1.39,0,.41.13.72.41.95.27.23.62.34,1.04.34Z"/><path class="cls-3" d="M131.21,138.29c-1.15-.33-1.99-.74-2.51-1.22-.52-.48-.79-1.08-.79-1.78,0-.8.32-1.46.96-1.99.64-.52,1.47-.79,2.5-.79.7,0,1.32.13,1.87.4.55.27.97.64,1.27,1.12.3.47.45.99.45,1.56h-1.35c0-.62-.2-1.1-.59-1.45s-.94-.53-1.65-.53c-.66,0-1.18.15-1.55.44-.37.29-.55.7-.55,1.21,0,.42.18.77.53,1.05.35.29.95.55,1.79.79.84.24,1.51.5,1.98.79.48.29.83.62,1.06,1s.35.83.35,1.35c0,.82-.32,1.48-.96,1.98-.64.5-1.5.74-2.58.74-.7,0-1.35-.13-1.96-.4-.6-.27-1.07-.63-1.4-1.1s-.49-.99-.49-1.58h1.35c0,.61.23,1.1.68,1.46.45.36,1.06.53,1.82.53.71,0,1.25-.14,1.63-.43.38-.29.57-.68.57-1.18s-.17-.88-.52-1.16c-.35-.27-.98-.54-1.9-.81Z"/><path class="cls-3" d="M136.15,138.97c0-.74.14-1.41.44-2s.7-1.05,1.21-1.37c.52-.32,1.11-.48,1.78-.48,1.03,0,1.86.36,2.5,1.07.63.71.95,1.66.95,2.84v.09c0,.74-.14,1.4-.42,1.98s-.68,1.04-1.21,1.37c-.52.33-1.12.49-1.8.49-1.02,0-1.85-.36-2.49-1.07-.63-.71-.95-1.65-.95-2.83v-.09ZM137.45,139.12c0,.84.19,1.51.58,2.02.39.51.91.76,1.56.76s1.18-.26,1.56-.77c.39-.51.58-1.23.58-2.16,0-.83-.2-1.5-.59-2.01-.39-.51-.92-.77-1.57-.77s-1.15.25-1.54.76c-.39.51-.59,1.23-.59,2.18Z"/><path class="cls-3" d="M149.31,142.07c-.5.59-1.24.89-2.21.89-.8,0-1.42-.23-1.84-.7-.42-.47-.63-1.16-.64-2.08v-4.92h1.29v4.88c0,1.14.46,1.72,1.4,1.72.99,0,1.64-.37,1.97-1.1v-5.5h1.29v7.55h-1.23l-.03-.75Z"/><path class="cls-3" d="M156.18,136.42c-.2-.03-.41-.05-.64-.05-.85,0-1.42.36-1.72,1.08v5.36h-1.29v-7.55h1.26l.02.87c.42-.67,1.02-1.01,1.8-1.01.25,0,.44.03.57.1v1.2Z"/><path class="cls-3" d="M160.27,141.9c.46,0,.86-.14,1.21-.42.34-.28.54-.63.57-1.05h1.22c-.02.43-.17.84-.45,1.24-.27.39-.64.7-1.1.94-.46.23-.94.35-1.46.35-1.03,0-1.85-.34-2.45-1.03-.61-.69-.91-1.62-.91-2.82v-.22c0-.74.13-1.39.4-1.96.27-.57.66-1.02,1.16-1.33s1.1-.48,1.79-.48c.85,0,1.55.25,2.11.76.56.51.86,1.17.9,1.98h-1.22c-.04-.49-.22-.89-.56-1.2-.33-.31-.74-.47-1.23-.47-.66,0-1.17.24-1.53.71-.36.47-.54,1.16-.54,2.05v.24c0,.87.18,1.54.54,2.01.36.47.87.71,1.54.71Z"/><path class="cls-3" d="M167.85,142.96c-1.02,0-1.86-.34-2.5-1.01-.64-.67-.96-1.57-.96-2.7v-.24c0-.75.14-1.42.43-2.01.29-.59.69-1.05,1.2-1.38.51-.33,1.07-.5,1.67-.5.98,0,1.75.32,2.29.97.54.65.82,1.57.82,2.78v.54h-5.12c.02.75.24,1.35.65,1.8.42.46.95.69,1.59.69.46,0,.84-.09,1.16-.28.32-.19.59-.43.83-.74l.79.61c-.63.97-1.58,1.46-2.85,1.46ZM167.69,136.19c-.52,0-.96.19-1.31.57-.35.38-.57.91-.66,1.59h3.78v-.1c-.04-.66-.21-1.16-.53-1.53-.32-.36-.75-.54-1.29-.54Z"/><path class="cls-3" d="M176.69,140.81c0-.35-.13-.62-.39-.81-.26-.19-.72-.36-1.38-.5-.65-.14-1.17-.31-1.56-.5-.38-.2-.67-.43-.85-.7-.18-.27-.28-.59-.28-.96,0-.62.26-1.14.79-1.57.52-.43,1.19-.64,2.01-.64.86,0,1.55.22,2.08.66.53.44.8,1.01.8,1.7h-1.3c0-.35-.15-.66-.45-.92-.3-.26-.68-.38-1.13-.38s-.84.1-1.1.31-.4.47-.4.8c0,.31.12.55.37.71.25.16.69.31,1.34.45.64.14,1.17.32,1.57.52s.7.44.89.72c.19.28.29.62.29,1.03,0,.67-.27,1.22-.81,1.62-.54.41-1.24.61-2.1.61-.6,0-1.14-.11-1.61-.32s-.83-.51-1.09-.9c-.26-.38-.39-.8-.39-1.25h1.29c.02.43.2.78.52,1.03.32.25.75.38,1.28.38.49,0,.88-.1,1.18-.3.3-.2.44-.46.44-.79Z"/><rect class="cls-5" x="17.57" y="189.9" width="237.45" height="37.43" rx="4.47" ry="4.47"/><path class="cls-3" d="M46.7,207.42h-4.27v4.49h-1.34v-10.17h6.3v1.1h-4.96v3.48h4.27v1.1Z"/><path class="cls-3" d="M48.8,202.35c0-.21.06-.39.19-.53.13-.14.32-.22.57-.22s.44.07.57.22c.13.14.2.32.2.53s-.07.38-.2.52c-.13.14-.32.21-.57.21s-.44-.07-.57-.21-.19-.31-.19-.52ZM50.2,211.91h-1.29v-7.55h1.29v7.55Z"/><path class="cls-3" d="M53.67,211.91h-1.29v-10.72h1.29v10.72Z"/><path class="cls-3" d="M57.48,202.53v1.83h1.41v1h-1.41v4.69c0,.3.06.53.19.68.13.15.34.23.64.23.15,0,.35-.03.61-.08v1.04c-.34.09-.67.14-.99.14-.58,0-1.01-.17-1.31-.52-.29-.35-.44-.84-.44-1.49v-4.68h-1.38v-1h1.38v-1.83h1.29Z"/><path class="cls-3" d="M63.54,212.05c-1.02,0-1.86-.34-2.5-1.01-.64-.67-.96-1.57-.96-2.7v-.24c0-.75.14-1.42.43-2.01.29-.59.69-1.05,1.2-1.38.51-.33,1.07-.5,1.67-.5.98,0,1.75.32,2.29.97.54.65.82,1.57.82,2.78v.54h-5.12c.02.75.24,1.35.65,1.8.42.46.95.69,1.59.69.46,0,.84-.09,1.16-.28.32-.19.59-.43.83-.74l.79.61c-.63.97-1.58,1.46-2.85,1.46ZM63.38,205.28c-.52,0-.96.19-1.31.57-.35.38-.57.91-.66,1.59h3.78v-.1c-.04-.66-.21-1.16-.53-1.53-.32-.36-.75-.54-1.29-.54Z"/><path class="cls-3" d="M71.63,205.51c-.2-.03-.41-.05-.64-.05-.85,0-1.42.36-1.72,1.08v5.36h-1.29v-7.55h1.26l.02.87c.42-.67,1.02-1.01,1.8-1.01.25,0,.44.03.57.1v1.2Z"/><path class="cls-3" d="M82.3,207.21h-4.41v3.6h5.12v1.1h-6.46v-10.17h6.39v1.1h-5.05v3.27h4.41v1.1Z"/><path class="cls-3" d="M86.79,210.16l1.87-5.8h1.32l-2.71,7.55h-.98l-2.74-7.55h1.32l1.92,5.8Z"/><path class="cls-3" d="M94.36,212.05c-1.02,0-1.86-.34-2.5-1.01-.64-.67-.96-1.57-.96-2.7v-.24c0-.75.14-1.42.43-2.01.29-.59.69-1.05,1.2-1.38.51-.33,1.07-.5,1.67-.5.98,0,1.75.32,2.29.97.54.65.82,1.57.82,2.78v.54h-5.12c.02.75.24,1.35.65,1.8.42.46.95.69,1.59.69.46,0,.84-.09,1.16-.28.32-.19.59-.43.83-.74l.79.61c-.63.97-1.58,1.46-2.85,1.46ZM94.2,205.28c-.52,0-.96.19-1.31.57-.35.38-.57.91-.66,1.59h3.78v-.1c-.04-.66-.21-1.16-.53-1.53-.32-.36-.75-.54-1.29-.54Z"/><path class="cls-3" d="M100.02,204.36l.04.95c.58-.73,1.33-1.09,2.26-1.09,1.6,0,2.4.9,2.42,2.7v4.99h-1.29v-5c0-.54-.13-.95-.37-1.21s-.62-.39-1.14-.39c-.42,0-.79.11-1.1.33s-.56.52-.74.88v5.38h-1.29v-7.55h1.22Z"/><path class="cls-3" d="M108.44,202.53v1.83h1.41v1h-1.41v4.69c0,.3.06.53.19.68.13.15.34.23.64.23.15,0,.35-.03.61-.08v1.04c-.34.09-.67.14-.99.14-.58,0-1.01-.17-1.31-.52-.29-.35-.44-.84-.44-1.49v-4.68h-1.38v-1h1.38v-1.83h1.29Z"/><path class="cls-3" d="M116.45,210.81h4.82v1.1h-6.17v-10.17h1.35v9.07Z"/><path class="cls-3" d="M122.6,202.35c0-.21.06-.39.19-.53.13-.14.32-.22.57-.22s.44.07.57.22c.13.14.2.32.2.53s-.07.38-.2.52c-.13.14-.32.21-.57.21s-.44-.07-.57-.21-.19-.31-.19-.52ZM124,211.91h-1.29v-7.55h1.29v7.55Z"/><path class="cls-3" d="M130.47,209.91c0-.35-.13-.62-.39-.81-.26-.19-.72-.36-1.38-.5-.65-.14-1.17-.31-1.56-.5-.38-.2-.67-.43-.85-.7-.18-.27-.28-.59-.28-.96,0-.62.26-1.14.79-1.57.52-.43,1.19-.64,2.01-.64.86,0,1.55.22,2.08.66.53.44.8,1.01.8,1.7h-1.3c0-.35-.15-.66-.45-.92-.3-.26-.68-.38-1.13-.38s-.84.1-1.1.31-.4.47-.4.8c0,.31.12.55.37.71.25.16.69.31,1.34.45.64.14,1.17.32,1.57.52s.7.44.89.72c.19.28.29.62.29,1.03,0,.67-.27,1.22-.81,1.62-.54.41-1.24.61-2.1.61-.6,0-1.14-.11-1.61-.32s-.83-.51-1.09-.9c-.26-.38-.39-.8-.39-1.25h1.29c.02.43.2.78.52,1.03.32.25.75.38,1.28.38.49,0,.88-.1,1.18-.3.3-.2.44-.46.44-.79Z"/><path class="cls-3" d="M135.19,202.53v1.83h1.41v1h-1.41v4.69c0,.3.06.53.19.68.13.15.34.23.64.23.15,0,.35-.03.61-.08v1.04c-.34.09-.67.14-.99.14-.58,0-1.01-.17-1.31-.52-.29-.35-.44-.84-.44-1.49v-4.68h-1.38v-1h1.38v-1.83h1.29Z"/><rect class="cls-4" x=".31" y="283.95" width="269.85" height="37.43"/><path class="cls-3" d="M42.43,304.67v3.98h-1.34v-10.17h3.75c1.11,0,1.98.28,2.62.85.63.57.95,1.32.95,2.25,0,.99-.31,1.75-.93,2.28-.62.53-1.5.8-2.65.8h-2.39ZM42.43,303.57h2.41c.72,0,1.27-.17,1.65-.51.38-.34.57-.83.57-1.46s-.19-1.09-.57-1.46c-.38-.36-.91-.55-1.57-.57h-2.49v3.99Z"/><path class="cls-3" d="M54.57,307.9c-.5.59-1.24.89-2.21.89-.8,0-1.42-.23-1.84-.7-.42-.47-.63-1.16-.64-2.08v-4.92h1.29v4.88c0,1.14.46,1.72,1.4,1.72.99,0,1.64-.37,1.97-1.1v-5.5h1.29v7.55h-1.23l-.03-.75Z"/><path class="cls-3" d="M64.19,304.96c0,1.15-.27,2.08-.8,2.78-.53.7-1.24,1.05-2.14,1.05-.95,0-1.69-.34-2.21-1.01l-.06.87h-1.19v-10.72h1.29v4c.52-.65,1.24-.97,2.16-.97s1.64.35,2.16,1.04c.52.69.79,1.64.79,2.85v.11ZM62.9,304.81c0-.88-.17-1.56-.51-2.04s-.83-.72-1.47-.72c-.85,0-1.46.4-1.84,1.19v3.27c.4.79,1.01,1.19,1.85,1.19.62,0,1.1-.24,1.45-.72s.52-1.2.52-2.16Z"/><path class="cls-3" d="M67.22,308.65h-1.29v-10.72h1.29v10.72Z"/><path class="cls-3" d="M69.29,299.09c0-.21.06-.39.19-.53.13-.14.32-.22.57-.22s.44.07.57.22c.13.14.2.32.2.53s-.07.38-.2.52c-.13.14-.32.21-.57.21s-.44-.07-.57-.21-.19-.31-.19-.52ZM70.69,308.65h-1.29v-7.55h1.29v7.55Z"/><path class="cls-3" d="M75.78,307.73c.46,0,.86-.14,1.21-.42.34-.28.54-.63.57-1.05h1.22c-.02.43-.17.84-.45,1.24-.27.39-.64.7-1.1.94-.46.23-.94.35-1.46.35-1.03,0-1.85-.34-2.45-1.03-.61-.69-.91-1.62-.91-2.82v-.22c0-.74.13-1.39.4-1.96.27-.57.66-1.02,1.16-1.33s1.1-.48,1.79-.48c.85,0,1.55.25,2.11.76.56.51.86,1.17.9,1.98h-1.22c-.04-.49-.22-.89-.56-1.2-.33-.31-.74-.47-1.23-.47-.66,0-1.17.24-1.53.71-.36.47-.54,1.16-.54,2.05v.24c0,.87.18,1.54.54,2.01.36.47.87.71,1.54.71Z"/><path class="cls-3" d="M46.84,256.23h-4.41v3.6h5.12v1.1h-6.46v-10.17h6.39v1.1h-5.05v3.27h4.41v1.1Z"/><path class="cls-3" d="M51.33,259.18l1.87-5.8h1.32l-2.71,7.55h-.98l-2.74-7.55h1.32l1.92,5.8Z"/><path class="cls-3" d="M58.9,261.07c-1.02,0-1.86-.34-2.5-1.01-.64-.67-.96-1.57-.96-2.7v-.24c0-.75.14-1.42.43-2.01.29-.59.69-1.05,1.2-1.38.51-.33,1.07-.5,1.67-.5.98,0,1.75.32,2.29.97.54.65.82,1.57.82,2.78v.54h-5.12c.02.75.24,1.35.65,1.8.42.46.95.69,1.59.69.46,0,.84-.09,1.16-.28.32-.19.59-.43.83-.74l.79.61c-.63.97-1.58,1.46-2.85,1.46ZM58.73,254.3c-.52,0-.96.19-1.31.57-.35.38-.57.91-.66,1.59h3.78v-.1c-.04-.66-.21-1.16-.53-1.53-.32-.36-.75-.54-1.29-.54Z"/><path class="cls-3" d="M64.56,253.38l.04.95c.58-.73,1.33-1.09,2.26-1.09,1.6,0,2.4.9,2.42,2.7v4.99h-1.29v-5c0-.54-.13-.95-.37-1.21s-.62-.39-1.14-.39c-.42,0-.79.11-1.1.33s-.56.52-.74.88v5.38h-1.29v-7.55h1.22Z"/><path class="cls-3" d="M72.98,251.55v1.83h1.41v1h-1.41v4.69c0,.3.06.53.19.68.13.15.34.23.64.23.15,0,.35-.03.61-.08v1.04c-.34.09-.67.14-.99.14-.58,0-1.01-.17-1.31-.52-.29-.35-.44-.84-.44-1.49v-4.68h-1.38v-1h1.38v-1.83h1.29Z"/><path class="cls-3" d="M87.45,260.93h-1.35v-4.7h-5.12v4.7h-1.34v-10.17h1.34v4.37h5.12v-4.37h1.35v10.17Z"/><path class="cls-3" d="M89.64,251.37c0-.21.06-.39.19-.53.13-.14.32-.22.57-.22s.44.07.57.22c.13.14.2.32.2.53s-.07.38-.2.52c-.13.14-.32.21-.57.21s-.44-.07-.57-.21-.19-.31-.19-.52ZM91.03,260.93h-1.29v-7.55h1.29v7.55Z"/><path class="cls-3" d="M96.23,261.07c-1.02,0-1.86-.34-2.5-1.01-.64-.67-.96-1.57-.96-2.7v-.24c0-.75.14-1.42.43-2.01.29-.59.69-1.05,1.2-1.38.51-.33,1.07-.5,1.67-.5.98,0,1.75.32,2.29.97.54.65.82,1.57.82,2.78v.54h-5.12c.02.75.24,1.35.65,1.8.42.46.95.69,1.59.69.46,0,.84-.09,1.16-.28.32-.19.59-.43.83-.74l.79.61c-.63.97-1.58,1.46-2.85,1.46ZM96.07,254.3c-.52,0-.96.19-1.31.57-.35.38-.57.91-.66,1.59h3.78v-.1c-.04-.66-.21-1.16-.53-1.53-.32-.36-.75-.54-1.29-.54Z"/><path class="cls-3" d="M104.33,254.54c-.2-.03-.41-.05-.64-.05-.85,0-1.42.36-1.72,1.08v5.36h-1.29v-7.55h1.26l.02.87c.42-.67,1.02-1.01,1.8-1.01.25,0,.44.03.57.1v1.2Z"/><path class="cls-3" d="M109.9,260.93c-.08-.15-.14-.41-.18-.8-.6.62-1.32.94-2.15.94-.75,0-1.36-.21-1.83-.63s-.72-.96-.72-1.6c0-.79.3-1.4.9-1.83.6-.44,1.44-.65,2.52-.65h1.26v-.59c0-.45-.13-.81-.4-1.08-.27-.27-.67-.4-1.19-.4-.46,0-.85.12-1.16.35-.31.23-.47.51-.47.84h-1.3c0-.38.13-.74.4-1.09.27-.35.63-.63,1.09-.83.46-.21.96-.31,1.51-.31.87,0,1.55.22,2.04.65.49.44.75,1.03.77,1.8v3.48c0,.69.09,1.25.27,1.66v.11h-1.35ZM107.75,259.95c.4,0,.79-.1,1.15-.31.36-.21.63-.48.79-.82v-1.55h-1.01c-1.58,0-2.37.46-2.37,1.39,0,.41.13.72.41.95.27.23.62.34,1.04.34Z"/><path class="cls-3" d="M116.66,254.54c-.2-.03-.41-.05-.64-.05-.85,0-1.42.36-1.72,1.08v5.36h-1.29v-7.55h1.26l.02.87c.42-.67,1.02-1.01,1.8-1.01.25,0,.44.03.57.1v1.2Z"/><path class="cls-3" d="M120.75,260.02c.46,0,.86-.14,1.21-.42.34-.28.54-.63.57-1.05h1.22c-.02.43-.17.84-.45,1.24-.27.39-.64.7-1.1.94-.46.23-.94.35-1.46.35-1.03,0-1.85-.34-2.45-1.03-.61-.69-.91-1.62-.91-2.82v-.22c0-.74.13-1.39.4-1.96.27-.57.66-1.02,1.16-1.33s1.1-.48,1.79-.48c.85,0,1.55.25,2.11.76.56.51.86,1.17.9,1.98h-1.22c-.04-.49-.22-.89-.56-1.2-.33-.31-.74-.47-1.23-.47-.66,0-1.17.24-1.53.71-.36.47-.54,1.16-.54,2.05v.24c0,.87.18,1.54.54,2.01.36.47.87.71,1.54.71Z"/><path class="cls-3" d="M126.49,254.29c.57-.7,1.32-1.05,2.23-1.05,1.6,0,2.4.9,2.42,2.7v4.99h-1.29v-5c0-.54-.13-.95-.37-1.21s-.62-.39-1.14-.39c-.42,0-.79.11-1.1.33s-.56.52-.74.88v5.38h-1.29v-10.72h1.29v4.08Z"/><path class="cls-3" d="M135.55,259.04l1.76-5.66h1.38l-3.04,8.72c-.47,1.26-1.22,1.88-2.24,1.88l-.24-.02-.48-.09v-1.05l.35.03c.44,0,.78-.09,1.02-.27.25-.18.45-.5.6-.97l.29-.77-2.7-7.47h1.41l1.89,5.66Z"/><text class="cls-2" transform="translate(26.51 18.35) scale(1 1.5)"><tspan x="0" y="0">&gt;&gt;</tspan></text><rect class="cls-4" x=".31" y="332.07" width="269.85" height="37.43"/><path class="cls-3" d="M42.43,352.78v3.98h-1.34v-10.17h3.75c1.11,0,1.98.28,2.62.85.63.57.95,1.32.95,2.25,0,.99-.31,1.75-.93,2.28-.62.53-1.5.8-2.65.8h-2.39ZM42.43,351.69h2.41c.72,0,1.27-.17,1.65-.51.38-.34.57-.83.57-1.46s-.19-1.09-.57-1.46c-.38-.36-.91-.55-1.57-.57h-2.49v3.99Z"/><path class="cls-3" d="M53.56,350.37c-.2-.03-.41-.05-.64-.05-.85,0-1.42.36-1.72,1.08v5.36h-1.29v-7.55h1.26l.02.87c.42-.67,1.02-1.01,1.8-1.01.25,0,.44.03.57.1v1.2Z"/><path class="cls-3" d="M54.75,347.21c0-.21.06-.39.19-.53.13-.14.32-.22.57-.22s.44.07.57.22c.13.14.2.32.2.53s-.07.38-.2.52c-.13.14-.32.21-.57.21s-.44-.07-.57-.21-.19-.31-.19-.52ZM56.15,356.76h-1.29v-7.55h1.29v7.55Z"/><path class="cls-3" d="M60.71,355.01l1.87-5.8h1.32l-2.71,7.55h-.98l-2.74-7.55h1.32l1.92,5.8Z"/><path class="cls-3" d="M69.7,356.76c-.08-.15-.14-.41-.18-.8-.6.62-1.32.94-2.15.94-.75,0-1.36-.21-1.83-.63s-.72-.96-.72-1.6c0-.79.3-1.4.9-1.83.6-.44,1.44-.65,2.52-.65h1.26v-.59c0-.45-.13-.81-.4-1.08-.27-.27-.67-.4-1.19-.4-.46,0-.85.12-1.16.35-.31.23-.47.51-.47.84h-1.3c0-.38.13-.74.4-1.09.27-.35.63-.63,1.09-.83.46-.21.96-.31,1.51-.31.87,0,1.55.22,2.04.65.49.44.75,1.03.77,1.8v3.48c0,.69.09,1.25.27,1.66v.11h-1.35ZM67.56,355.78c.4,0,.79-.1,1.15-.31.36-.21.63-.48.79-.82v-1.55h-1.01c-1.58,0-2.37.46-2.37,1.39,0,.41.13.72.41.95.27.23.62.34,1.04.34Z"/><path class="cls-3" d="M74.57,347.38v1.83h1.41v1h-1.41v4.69c0,.3.06.53.19.68.13.15.34.23.64.23.15,0,.35-.03.61-.08v1.04c-.34.09-.67.14-.99.14-.58,0-1.01-.17-1.31-.52-.29-.35-.44-.84-.44-1.49v-4.68h-1.38v-1h1.38v-1.83h1.29Z"/><path class="cls-3" d="M80.62,356.9c-1.02,0-1.86-.34-2.5-1.01-.64-.67-.96-1.57-.96-2.7v-.24c0-.75.14-1.42.43-2.01.29-.59.69-1.05,1.2-1.38.51-.33,1.07-.5,1.67-.5.98,0,1.75.32,2.29.97.54.65.82,1.57.82,2.78v.54h-5.12c.02.75.24,1.35.65,1.8.42.46.95.69,1.59.69.46,0,.84-.09,1.16-.28.32-.19.59-.43.83-.74l.79.61c-.63.97-1.58,1.46-2.85,1.46ZM80.46,350.13c-.52,0-.96.19-1.31.57-.35.38-.57.91-.66,1.59h3.78v-.1c-.04-.66-.21-1.16-.53-1.53-.32-.36-.75-.54-1.29-.54Z"/><text class="cls-1" transform="translate(217.98 359.22)"><tspan x="0" y="0">+</tspan></text><path class="cls-3" d="M42.82,393.41l3.32,8.29,3.32-8.29h1.74v10.17h-1.34v-3.96l.13-4.27-3.34,8.23h-1.03l-3.33-8.21.13,4.25v3.96h-1.34v-10.17h1.73Z"/><path class="cls-3" d="M55.84,401.68l1.76-5.66h1.38l-3.04,8.72c-.47,1.26-1.22,1.88-2.24,1.88l-.24-.02-.48-.09v-1.05l.35.03c.44,0,.78-.09,1.02-.27.25-.18.45-.5.6-.97l.29-.77-2.7-7.47h1.41l1.89,5.66Z"/><path class="cls-3" d="M69.63,398.87h-4.41v3.6h5.12v1.1h-6.46v-10.17h6.39v1.1h-5.05v3.27h4.41v1.1Z"/><path class="cls-3" d="M74.12,401.82l1.87-5.8h1.32l-2.71,7.55h-.98l-2.74-7.55h1.32l1.92,5.8Z"/><path class="cls-3" d="M81.68,403.71c-1.02,0-1.86-.34-2.5-1.01-.64-.67-.96-1.57-.96-2.7v-.24c0-.75.14-1.42.43-2.01.29-.59.69-1.05,1.2-1.38.51-.33,1.07-.5,1.67-.5.98,0,1.75.32,2.29.97.54.65.82,1.57.82,2.78v.54h-5.12c.02.75.24,1.35.65,1.8.42.46.95.69,1.59.69.46,0,.84-.09,1.16-.28.32-.19.59-.43.83-.74l.79.61c-.63.97-1.58,1.46-2.85,1.46ZM81.52,396.94c-.52,0-.96.19-1.31.57-.35.38-.57.91-.66,1.59h3.78v-.1c-.04-.66-.21-1.16-.53-1.53-.32-.36-.75-.54-1.29-.54Z"/><path class="cls-3" d="M87.35,396.02l.04.95c.58-.73,1.33-1.09,2.26-1.09,1.6,0,2.4.9,2.42,2.7v4.99h-1.29v-5c0-.54-.13-.95-.37-1.21s-.62-.39-1.14-.39c-.42,0-.79.11-1.1.33s-.56.52-.74.88v5.38h-1.29v-7.55h1.22Z"/><path class="cls-3" d="M95.77,394.19v1.83h1.41v1h-1.41v4.69c0,.3.06.53.19.68.13.15.34.23.64.23.15,0,.35-.03.61-.08v1.04c-.34.09-.67.14-.99.14-.58,0-1.01-.17-1.31-.52-.29-.35-.44-.84-.44-1.49v-4.68h-1.38v-1h1.38v-1.83h1.29Z"/><path class="cls-3" d="M103.08,401.57c0-.35-.13-.62-.39-.81-.26-.19-.72-.36-1.38-.5-.65-.14-1.17-.31-1.56-.5-.38-.2-.67-.43-.85-.7-.18-.27-.28-.59-.28-.96,0-.62.26-1.14.79-1.57.52-.43,1.19-.64,2.01-.64.86,0,1.55.22,2.08.66.53.44.8,1.01.8,1.7h-1.3c0-.35-.15-.66-.45-.92-.3-.26-.68-.38-1.13-.38s-.84.1-1.1.31-.4.47-.4.8c0,.31.12.55.37.71.25.16.69.31,1.34.45.64.14,1.17.32,1.57.52s.7.44.89.72c.19.28.29.62.29,1.03,0,.67-.27,1.22-.81,1.62-.54.41-1.24.61-2.1.61-.6,0-1.14-.11-1.61-.32s-.83-.51-1.09-.9c-.26-.38-.39-.8-.39-1.25h1.29c.02.43.2.78.52,1.03.32.25.75.38,1.28.38.49,0,.88-.1,1.18-.3.3-.2.44-.46.44-.79Z"/></g></svg>