<?xml version="1.0" encoding="UTF-8"?>
<svg id="Layer_2" data-name="Layer 2" xmlns="http://www.w3.org/2000/svg" version="1.1" viewBox="0 0 270.5 406.6">
  <defs>
    <style>
      .cls-1 {
        stroke: #333;
        stroke-width: .5px;
      }

      .cls-1, .cls-2, .cls-3, .cls-4, .cls-5, .cls-6 {
        stroke-miterlimit: 10;
      }

      .cls-1, .cls-4, .cls-5 {
        fill: none;
      }

      .cls-2 {
        stroke-width: .5px;
      }

      .cls-2, .cls-3 {
        fill: #fff;
        stroke: #606060;
      }

      .cls-7, .cls-8 {
        stroke-width: 0px;
      }

      .cls-7, .cls-6 {
        fill: #666;
      }

      .cls-3 {
        stroke-width: .6px;
      }

      .cls-8 {
        fill: #333;
      }

      .cls-4, .cls-5, .cls-6 {
        stroke: #666;
      }

      .cls-4, .cls-6 {
        stroke-width: .6px;
      }
    </style>
  </defs>
  <rect class="cls-2" x="10.1" y="9.3" width="252.2" height="387.9" rx="4.1" ry="4.1"/>
  <rect class="cls-3" x="34.1" y="344.2" width="93.6" height="37.4" rx="4.5" ry="4.5"/>
  <rect class="cls-3" x="143.4" y="344.2" width="93.6" height="37.4" rx="4.5" ry="4.5"/>
  <g>
    <path class="cls-8" d="M118.1,52.4c0-.4-.1-.8-.5-1-.3-.2-.8-.5-1.6-.7s-1.4-.5-1.9-.7c-1.2-.7-1.9-1.6-1.9-2.7s.2-1.1.5-1.6c.3-.5.8-.8,1.4-1.1s1.3-.4,2.1-.4,1.5.1,2.1.4c.6.3,1.1.7,1.4,1.2.3.5.5,1.1.5,1.8h-2.3c0-.5-.2-.9-.5-1.2-.3-.3-.8-.4-1.3-.4s-1,.1-1.3.3c-.3.2-.5.5-.5.9s.2.7.5.9c.4.2.9.5,1.6.7,1.3.4,2.2.9,2.8,1.4.6.6.9,1.3.9,2.1s-.4,1.7-1.1,2.2-1.7.8-2.9.8-1.6-.2-2.3-.5c-.7-.3-1.2-.7-1.6-1.3-.4-.5-.5-1.2-.5-1.9h2.3c0,1.2.7,1.8,2.2,1.8s1-.1,1.3-.3c.3-.2.5-.5.5-.9Z"/>
    <path class="cls-8" d="M126.6,54.4c-.5.7-1.3,1-2.2,1s-1.5-.2-2-.8c-.5-.5-.7-1.2-.7-2.2v-5.3h2.2v5.3c0,.8.4,1.3,1.2,1.3s1.2-.3,1.5-.8v-5.8h2.2v8.1h-2v-.8Z"/>
    <path class="cls-8" d="M134.9,49.2c-.3,0-.6,0-.8,0-.8,0-1.4.3-1.6.8v5.3h-2.2v-8.1h2v1c.5-.7,1.1-1.1,1.9-1.1s.5,0,.7,0v2.1Z"/>
    <path class="cls-8" d="M139.1,52.6l1.5-5.5h2.3l-2.7,8.1h-2.1l-2.7-8.1h2.3l1.5,5.5Z"/>
    <path class="cls-8" d="M147.6,55.4c-1.2,0-2.2-.4-2.9-1.1-.7-.7-1.1-1.7-1.1-2.9v-.2c0-.8.2-1.5.5-2.2.3-.6.8-1.1,1.3-1.5s1.2-.5,2-.5c1.1,0,2,.4,2.6,1.1.6.7,1,1.7,1,3v.9h-5.2c0,.5.3,1,.6,1.3s.8.5,1.3.5c.8,0,1.5-.3,2-.9l1.1,1.2c-.3.5-.8.8-1.3,1.1s-1.2.4-1.8.4ZM147.3,48.7c-.4,0-.8.1-1,.4-.3.3-.4.7-.5,1.3h3v-.2c0-.5-.1-.9-.4-1.1-.3-.3-.6-.4-1.1-.4Z"/>
    <path class="cls-8" d="M155.2,52.2l1.5-5.1h2.3l-3.3,9.4-.2.4c-.5,1.1-1.3,1.6-2.4,1.6s-.6,0-1-.1v-1.6h.3c.4,0,.7,0,.9-.2.2-.1.4-.3.5-.6l.3-.7-2.8-8.1h2.3l1.5,5.1Z"/>
    <path class="cls-8" d="M43.3,75.2h-1.1v-3.7h-4v3.7h-1.1v-8h1.1v3.4h4v-3.4h1.1v8Z"/>
    <path class="cls-8" d="M44.7,72.2c0-.6.1-1.1.3-1.6s.5-.8,1-1.1.9-.4,1.4-.4c.8,0,1.5.3,2,.8.5.6.7,1.3.7,2.2h0c0,.6-.1,1.2-.3,1.6-.2.5-.5.8-.9,1.1-.4.3-.9.4-1.4.4-.8,0-1.5-.3-2-.8-.5-.6-.7-1.3-.7-2.2h0ZM45.8,72.4c0,.7.2,1.2.5,1.6.3.4.7.6,1.2.6s.9-.2,1.2-.6c.3-.4.5-1,.5-1.7s-.2-1.2-.5-1.6c-.3-.4-.7-.6-1.2-.6s-.9.2-1.2.6-.5,1-.5,1.7Z"/>
    <path class="cls-8" d="M56.7,73.9l1.1-4.5h1l-1.7,5.9h-.8l-1.4-4.5-1.4,4.5h-.8l-1.7-5.9h1l1.2,4.4,1.4-4.4h.8l1.4,4.5Z"/>
    <path class="cls-8" d="M62.6,67.7c0-.2,0-.3.2-.4s.2-.2.4-.2.3,0,.4.2c.1.1.2.3.2.4s0,.3-.2.4c-.1.1-.3.2-.4.2s-.3,0-.4-.2c-.1-.1-.2-.2-.2-.4ZM63.7,75.2h-1v-5.9h1v5.9Z"/>
    <path class="cls-8" d="M66.3,69.3v.7c.5-.6,1.1-.9,1.8-.9,1.3,0,1.9.7,1.9,2.1v3.9h-1v-3.9c0-.4-.1-.7-.3-.9-.2-.2-.5-.3-.9-.3s-.6,0-.9.3c-.2.2-.4.4-.6.7v4.2h-1v-5.9h1Z"/>
    <path class="cls-8" d="M72.9,67.9v1.4h1.1v.8h-1.1v3.7c0,.2,0,.4.1.5s.3.2.5.2.3,0,.5,0v.8c-.3,0-.5.1-.8.1-.5,0-.8-.1-1-.4-.2-.3-.3-.7-.3-1.2v-3.7h-1.1v-.8h1.1v-1.4h1Z"/>
    <path class="cls-8" d="M78.9,74.7c-.4.5-1,.7-1.7.7s-1.1-.2-1.4-.5c-.3-.4-.5-.9-.5-1.6v-3.9h1v3.8c0,.9.4,1.3,1.1,1.3s1.3-.3,1.5-.9v-4.3h1v5.9h-1v-.6Z"/>
    <path class="cls-8" d="M81.4,67.7c0-.2,0-.3.2-.4s.2-.2.4-.2.3,0,.4.2c.1.1.2.3.2.4s0,.3-.2.4c-.1.1-.3.2-.4.2s-.3,0-.4-.2c-.1-.1-.2-.2-.2-.4ZM82.5,75.2h-1v-5.9h1v5.9Z"/>
    <path class="cls-8" d="M85.5,67.9v1.4h1.1v.8h-1.1v3.7c0,.2,0,.4.1.5s.3.2.5.2.3,0,.5,0v.8c-.3,0-.5.1-.8.1-.5,0-.8-.1-1-.4-.2-.3-.3-.7-.3-1.2v-3.7h-1.1v-.8h1.1v-1.4h1Z"/>
    <path class="cls-8" d="M87.8,67.7c0-.2,0-.3.2-.4s.2-.2.4-.2.3,0,.4.2c.1.1.2.3.2.4s0,.3-.2.4c-.1.1-.3.2-.4.2s-.3,0-.4-.2c-.1-.1-.2-.2-.2-.4ZM88.9,75.2h-1v-5.9h1v5.9Z"/>
    <path class="cls-8" d="M92.4,73.9l1.5-4.6h1l-2.1,5.9h-.8l-2.1-5.9h1l1.5,4.6Z"/>
    <path class="cls-8" d="M98.4,75.4c-.8,0-1.5-.3-2-.8-.5-.5-.8-1.2-.8-2.1v-.2c0-.6.1-1.1.3-1.6s.5-.8.9-1.1c.4-.3.8-.4,1.3-.4.8,0,1.4.3,1.8.8.4.5.6,1.2.6,2.2v.4h-4c0,.6.2,1.1.5,1.4.3.4.7.5,1.2.5s.7,0,.9-.2c.2-.1.5-.3.7-.6l.6.5c-.5.8-1.2,1.1-2.2,1.1ZM98.3,70c-.4,0-.8.1-1,.4-.3.3-.4.7-.5,1.3h3c0-.6-.2-1-.4-1.3-.2-.3-.6-.4-1-.4Z"/>
    <path class="cls-8" d="M104.4,72.2c0-.9.2-1.6.6-2.2.4-.6,1-.8,1.7-.8s1.2.2,1.6.7v-3.1h1v8.4h-.9v-.6c-.5.5-1,.7-1.7.7s-1.2-.3-1.7-.8c-.4-.6-.6-1.3-.6-2.2h0ZM105.4,72.4c0,.7.1,1.2.4,1.6s.7.6,1.2.6,1.1-.3,1.4-.9v-2.7c-.3-.6-.8-.8-1.4-.8s-.9.2-1.2.6c-.3.4-.4,1-.4,1.7Z"/>
    <path class="cls-8" d="M111,67.7c0-.2,0-.3.2-.4s.2-.2.4-.2.3,0,.4.2c.1.1.2.3.2.4s0,.3-.2.4c-.1.1-.3.2-.4.2s-.3,0-.4-.2c-.1-.1-.2-.2-.2-.4ZM112.1,75.2h-1v-5.9h1v5.9Z"/>
    <path class="cls-8" d="M113.5,72.2c0-.9.2-1.6.6-2.2.4-.6,1-.8,1.7-.8s1.2.2,1.6.7v-3.1h1v8.4h-.9v-.6c-.5.5-1,.7-1.7.7s-1.2-.3-1.7-.8c-.4-.6-.6-1.3-.6-2.2h0ZM114.5,72.4c0,.7.1,1.2.4,1.6s.7.6,1.2.6,1.1-.3,1.4-.9v-2.7c-.3-.6-.8-.8-1.4-.8s-.9.2-1.2.6c-.3.4-.4,1-.4,1.7Z"/>
    <path class="cls-8" d="M124.7,73.8l1.4-4.4h1.1l-2.4,6.8c-.4,1-1,1.5-1.8,1.5h-.2s-.4,0-.4,0v-.8h.3c.3,0,.6,0,.8-.2.2-.1.3-.4.5-.8l.2-.6-2.1-5.9h1.1l1.5,4.4Z"/>
    <path class="cls-8" d="M127.8,72.2c0-.6.1-1.1.3-1.6s.5-.8,1-1.1.9-.4,1.4-.4c.8,0,1.5.3,2,.8.5.6.7,1.3.7,2.2h0c0,.6-.1,1.2-.3,1.6-.2.5-.5.8-.9,1.1-.4.3-.9.4-1.4.4-.8,0-1.5-.3-2-.8-.5-.6-.7-1.3-.7-2.2h0ZM128.9,72.4c0,.7.2,1.2.5,1.6.3.4.7.6,1.2.6s.9-.2,1.2-.6c.3-.4.5-1,.5-1.7s-.2-1.2-.5-1.6c-.3-.4-.7-.6-1.2-.6s-.9.2-1.2.6-.5,1-.5,1.7Z"/>
    <path class="cls-8" d="M138.2,74.7c-.4.5-1,.7-1.7.7s-1.1-.2-1.4-.5c-.3-.4-.5-.9-.5-1.6v-3.9h1v3.8c0,.9.4,1.3,1.1,1.3s1.3-.3,1.5-.9v-4.3h1v5.9h-1v-.6Z"/>
    <path class="cls-8" d="M144,75.2v-5.1h-.9v-.8h.9v-.6c0-.6.2-1.1.5-1.5s.8-.5,1.4-.5.5,0,.7,0v.8c-.2,0-.4,0-.6,0-.3,0-.6,0-.8.3-.2.2-.3.5-.3.8v.6h1.3v.8h-1.3v5.1h-1Z"/>
    <path class="cls-8" d="M147.4,67.7c0-.2,0-.3.2-.4s.2-.2.4-.2.3,0,.4.2c.1.1.2.3.2.4s0,.3-.2.4c-.1.1-.3.2-.4.2s-.3,0-.4-.2c-.1-.1-.2-.2-.2-.4ZM148.5,75.2h-1v-5.9h1v5.9Z"/>
    <path class="cls-8" d="M151.1,69.3v.7c.5-.6,1.1-.9,1.8-.9,1.3,0,1.9.7,1.9,2.1v3.9h-1v-3.9c0-.4-.1-.7-.3-.9-.2-.2-.5-.3-.9-.3s-.6,0-.9.3c-.2.2-.4.4-.6.7v4.2h-1v-5.9h1Z"/>
    <path class="cls-8" d="M156,72.2c0-.9.2-1.6.6-2.2.4-.6,1-.8,1.7-.8s1.2.2,1.6.7v-3.1h1v8.4h-.9v-.6c-.5.5-1,.7-1.7.7s-1.2-.3-1.7-.8c-.4-.6-.6-1.3-.6-2.2h0ZM157.1,72.4c0,.7.1,1.2.4,1.6s.7.6,1.2.6,1.1-.3,1.4-.9v-2.7c-.3-.6-.8-.8-1.4-.8s-.9.2-1.2.6c-.3.4-.4,1-.4,1.7Z"/>
    <path class="cls-8" d="M166.8,67.9v1.4h1.1v.8h-1.1v3.7c0,.2,0,.4.1.5s.3.2.5.2.3,0,.5,0v.8c-.3,0-.5.1-.8.1-.5,0-.8-.1-1-.4-.2-.3-.3-.7-.3-1.2v-3.7h-1.1v-.8h1.1v-1.4h1Z"/>
    <path class="cls-8" d="M170.1,70c.4-.6,1-.8,1.8-.8,1.3,0,1.9.7,1.9,2.1v3.9h-1v-3.9c0-.4-.1-.7-.3-.9-.2-.2-.5-.3-.9-.3s-.6,0-.9.3c-.2.2-.4.4-.6.7v4.2h-1v-8.4h1v3.2Z"/>
    <path class="cls-8" d="M177.7,75.4c-.8,0-1.5-.3-2-.8-.5-.5-.8-1.2-.8-2.1v-.2c0-.6.1-1.1.3-1.6s.5-.8.9-1.1c.4-.3.8-.4,1.3-.4.8,0,1.4.3,1.8.8.4.5.6,1.2.6,2.2v.4h-4c0,.6.2,1.1.5,1.4.3.4.7.5,1.2.5s.7,0,.9-.2c.2-.1.5-.3.7-.6l.6.5c-.5.8-1.2,1.1-2.2,1.1ZM177.6,70c-.4,0-.8.1-1,.4-.3.3-.4.7-.5,1.3h3c0-.6-.2-1-.4-1.3-.2-.3-.6-.4-1-.4Z"/>
    <path class="cls-8" d="M189.2,73.9l1.1-4.5h1l-1.7,5.9h-.8l-1.4-4.5-1.4,4.5h-.8l-1.7-5.9h1l1.2,4.4,1.4-4.4h.8l1.4,4.5Z"/>
    <path class="cls-8" d="M192.1,72.2c0-.6.1-1.1.3-1.6s.5-.8,1-1.1.9-.4,1.4-.4c.8,0,1.5.3,2,.8.5.6.7,1.3.7,2.2h0c0,.6-.1,1.2-.3,1.6-.2.5-.5.8-.9,1.1-.4.3-.9.4-1.4.4-.8,0-1.5-.3-2-.8-.5-.6-.7-1.3-.7-2.2h0ZM193.1,72.4c0,.7.2,1.2.5,1.6.3.4.7.6,1.2.6s.9-.2,1.2-.6c.3-.4.5-1,.5-1.7s-.2-1.2-.5-1.6c-.3-.4-.7-.6-1.2-.6s-.9.2-1.2.6-.5,1-.5,1.7Z"/>
    <path class="cls-8" d="M201.7,70.2c-.2,0-.3,0-.5,0-.7,0-1.1.3-1.4.8v4.2h-1v-5.9h1v.7c.3-.5.8-.8,1.4-.8s.3,0,.4,0v.9Z"/>
    <path class="cls-8" d="M204.2,72.5l-.6.7v2.1h-1v-8.4h1v5.1l.5-.7,1.8-2h1.2l-2.3,2.5,2.6,3.5h-1.2l-2.1-2.7Z"/>
    <path class="cls-8" d="M208.8,75.2v-5.1h-.9v-.8h.9v-.6c0-.6.2-1.1.5-1.5s.8-.5,1.4-.5.5,0,.7,0v.8c-.2,0-.4,0-.6,0-.3,0-.6,0-.8.3-.2.2-.3.5-.3.8v.6h1.3v.8h-1.3v5.1h-1Z"/>
    <path class="cls-8" d="M213.3,75.2h-1v-8.4h1v8.4Z"/>
    <path class="cls-8" d="M214.6,72.2c0-.6.1-1.1.3-1.6s.5-.8,1-1.1.9-.4,1.4-.4c.8,0,1.5.3,2,.8.5.6.7,1.3.7,2.2h0c0,.6-.1,1.2-.3,1.6-.2.5-.5.8-.9,1.1-.4.3-.9.4-1.4.4-.8,0-1.5-.3-2-.8-.5-.6-.7-1.3-.7-2.2h0ZM215.6,72.4c0,.7.2,1.2.5,1.6.3.4.7.6,1.2.6s.9-.2,1.2-.6c.3-.4.5-1,.5-1.7s-.2-1.2-.5-1.6c-.3-.4-.7-.6-1.2-.6s-.9.2-1.2.6-.5,1-.5,1.7Z"/>
    <path class="cls-8" d="M226.5,73.9l1.1-4.5h1l-1.7,5.9h-.8l-1.4-4.5-1.4,4.5h-.8l-1.7-5.9h1l1.2,4.4,1.4-4.4h.8l1.4,4.5Z"/>
    <path class="cls-8" d="M230.9,73c0-.4,0-.8.1-1,0-.3.3-.5.6-.8l.7-.7c.3-.3.5-.7.5-1.1s-.1-.7-.3-.9c-.2-.2-.5-.3-.9-.3s-.7,0-.9.3c-.2.2-.3.5-.3.8h-1c0-.6.2-1.1.6-1.4.4-.4,1-.5,1.6-.5s1.2.2,1.6.6c.4.4.6.9.6,1.5s-.3,1.3-.9,1.9l-.6.6c-.3.3-.4.7-.4,1.3h-1ZM230.9,74.7c0-.2,0-.3.2-.4.1-.1.2-.2.4-.2s.3,0,.4.2c.1.1.2.3.2.4s0,.3-.2.4c-.1.1-.3.2-.4.2s-.3,0-.4-.2-.2-.2-.2-.4Z"/>
  </g>
  <path class="cls-7" d="M245.5,25.5l2.5-3.8h3.1l-3.8,5.4,3.9,5.5h-3.1l-2.5-3.8-2.5,3.8h-3.1l3.9-5.5-3.8-5.4h3.1l2.5,3.8Z"/>
  <g>
    <path class="cls-8" d="M37.3,115.8l2-5.9h1l-2.6,7.1h-.8l-2.6-7.1h1l2,5.9Z"/>
    <path class="cls-8" d="M44.2,117.1c0-.1,0-.3-.1-.6-.4.4-.9.7-1.5.7s-.9-.1-1.3-.4-.5-.7-.5-1.1.2-1,.6-1.3,1-.5,1.8-.5h.9v-.4c0-.3,0-.6-.3-.8s-.5-.3-.8-.3-.6,0-.8.2-.3.4-.3.6h-.9c0-.3,0-.5.3-.8s.4-.4.8-.6.7-.2,1.1-.2c.6,0,1.1.2,1.4.5s.5.7.5,1.3v2.4c0,.5,0,.9.2,1.2h0c0,0-.9,0-.9,0ZM42.7,116.4c.3,0,.6,0,.8-.2s.4-.3.6-.6v-1.1h-.7c-1.1,0-1.7.3-1.7,1s0,.5.3.7.4.2.7.2Z"/>
    <path class="cls-8" d="M48.9,112.6c-.1,0-.3,0-.4,0-.6,0-1,.3-1.2.8v3.8h-.9v-5.3h.9v.6c.3-.5.7-.7,1.3-.7s.3,0,.4,0v.8Z"/>
    <path class="cls-8" d="M51.5,115.7l1.2-4h1l-2.1,6.1c-.3.9-.9,1.3-1.6,1.3h-.2s-.3,0-.3,0v-.7h.2c.3,0,.5,0,.7-.2s.3-.4.4-.7l.2-.5-1.9-5.2h1l1.3,4Z"/>
    <path class="cls-8" d="M57,110.4c0-.1,0-.3.1-.4,0-.1.2-.2.4-.2s.3,0,.4.2.1.2.1.4,0,.3-.1.4-.2.1-.4.1-.3,0-.4-.1c0,0-.1-.2-.1-.4ZM57.9,117.1h-.9v-5.3h.9v5.3Z"/>
    <path class="cls-8" d="M60.2,111.8v.7c.4-.5,1-.8,1.6-.8,1.1,0,1.7.6,1.7,1.9v3.5h-.9v-3.5c0-.4,0-.7-.3-.8-.2-.2-.4-.3-.8-.3s-.5,0-.8.2-.4.4-.5.6v3.8h-.9v-5.3h.9Z"/>
    <path class="cls-8" d="M66.1,110.5v1.3h1v.7h-1v3.3c0,.2,0,.4.1.5s.2.2.4.2.2,0,.4,0v.7c-.2,0-.5,0-.7,0-.4,0-.7-.1-.9-.4s-.3-.6-.3-1v-3.3h-1v-.7h1v-1.3h.9Z"/>
    <path class="cls-8" d="M71.4,116.5c-.4.4-.9.6-1.5.6s-1-.2-1.3-.5c-.3-.3-.4-.8-.4-1.5v-3.4h.9v3.4c0,.8.3,1.2,1,1.2s1.1-.3,1.4-.8v-3.8h.9v5.3h-.9v-.5Z"/>
    <path class="cls-8" d="M73.7,110.4c0-.1,0-.3.1-.4,0-.1.2-.2.4-.2s.3,0,.4.2.1.2.1.4,0,.3-.1.4-.2.1-.4.1-.3,0-.4-.1c0,0-.1-.2-.1-.4ZM74.7,117.1h-.9v-5.3h.9v5.3Z"/>
    <path class="cls-8" d="M77.3,110.5v1.3h1v.7h-1v3.3c0,.2,0,.4.1.5s.2.2.4.2.2,0,.4,0v.7c-.2,0-.5,0-.7,0-.4,0-.7-.1-.9-.4s-.3-.6-.3-1v-3.3h-1v-.7h1v-1.3h.9Z"/>
    <path class="cls-8" d="M79.4,110.4c0-.1,0-.3.1-.4,0-.1.2-.2.4-.2s.3,0,.4.2.1.2.1.4,0,.3-.1.4-.2.1-.4.1-.3,0-.4-.1c0,0-.1-.2-.1-.4ZM80.3,117.1h-.9v-5.3h.9v5.3Z"/>
    <path class="cls-8" d="M83.5,115.8l1.3-4.1h.9l-1.9,5.3h-.7l-1.9-5.3h.9l1.3,4.1Z"/>
    <path class="cls-8" d="M88.8,117.2c-.7,0-1.3-.2-1.7-.7s-.7-1.1-.7-1.9v-.2c0-.5.1-1,.3-1.4.2-.4.5-.7.8-1,.4-.2.8-.3,1.2-.3.7,0,1.2.2,1.6.7s.6,1.1.6,1.9v.4h-3.6c0,.5.2.9.5,1.3.3.3.7.5,1.1.5s.6,0,.8-.2.4-.3.6-.5l.6.4c-.4.7-1.1,1-2,1ZM88.7,112.4c-.4,0-.7.1-.9.4s-.4.6-.5,1.1h2.6c0-.5-.1-.9-.4-1.1s-.5-.4-.9-.4Z"/>
    <path class="cls-8" d="M35.9,156.1h-.9v-7.1h.9v7.1Z"/>
    <path class="cls-8" d="M38.4,150.8v.7c.4-.5,1-.8,1.6-.8,1.1,0,1.7.6,1.7,1.9v3.5h-.9v-3.5c0-.4,0-.7-.3-.8s-.4-.3-.8-.3-.6,0-.8.2-.4.4-.5.6v3.8h-.9v-5.3h.9Z"/>
    <path class="cls-8" d="M44.2,149.5v1.3h1v.7h-1v3.3c0,.2,0,.4.1.5s.2.2.4.2.2,0,.4,0v.7c-.2,0-.5,0-.7,0-.4,0-.7-.1-.9-.4s-.3-.6-.3-1v-3.3h-1v-.7h1v-1.3h.9Z"/>
    <path class="cls-8" d="M49.5,155.5c-.4.4-.9.6-1.5.6s-1-.2-1.3-.5-.4-.8-.4-1.5v-3.4h.9v3.4c0,.8.3,1.2,1,1.2s1.1-.3,1.4-.8v-3.8h.9v5.3h-.9v-.5Z"/>
    <path class="cls-8" d="M51.8,149.4c0-.1,0-.3.1-.4s.2-.2.4-.2.3,0,.4.2.1.2.1.4,0,.3-.1.4-.2.1-.4.1-.3,0-.4-.1-.1-.2-.1-.4ZM52.8,156.1h-.9v-5.3h.9v5.3Z"/>
    <path class="cls-8" d="M55.5,149.5v1.3h1v.7h-1v3.3c0,.2,0,.4.1.5s.2.2.4.2.2,0,.4,0v.7c-.2,0-.5,0-.7,0-.4,0-.7-.1-.9-.4s-.3-.6-.3-1v-3.3h-1v-.7h1v-1.3h.9Z"/>
    <path class="cls-8" d="M57.5,149.4c0-.1,0-.3.1-.4,0-.1.2-.2.4-.2s.3,0,.4.2.1.2.1.4,0,.3-.1.4-.2.1-.4.1-.3,0-.4-.1c0,0-.1-.2-.1-.4ZM58.5,156.1h-.9v-5.3h.9v5.3Z"/>
    <path class="cls-8" d="M61.7,154.8l1.3-4.1h.9l-1.9,5.3h-.7l-1.9-5.3h.9l1.3,4.1Z"/>
    <path class="cls-8" d="M67,156.2c-.7,0-1.3-.2-1.7-.7s-.7-1.1-.7-1.9v-.2c0-.5.1-1,.3-1.4.2-.4.5-.7.8-1,.4-.2.8-.3,1.2-.3.7,0,1.2.2,1.6.7s.6,1.1.6,1.9v.4h-3.6c0,.5.2.9.5,1.3.3.3.7.5,1.1.5s.6,0,.8-.2.4-.3.6-.5l.6.4c-.4.7-1.1,1-2,1ZM66.8,151.4c-.4,0-.7.1-.9.4s-.4.6-.5,1.1h2.6c0-.5-.1-.9-.4-1.1s-.5-.4-.9-.4Z"/>
    <path class="cls-8" d="M40.4,195.1h-.9l-3.6-5.5v5.5h-.9v-7.1h.9l3.6,5.5v-5.5h.9v7.1Z"/>
    <path class="cls-8" d="M44.1,195.2c-.7,0-1.3-.2-1.7-.7s-.7-1.1-.7-1.9v-.2c0-.5.1-1,.3-1.4s.5-.7.8-1,.7-.3,1.2-.3c.7,0,1.2.2,1.6.7s.6,1.1.6,1.9v.4h-3.6c0,.5.2.9.5,1.3s.7.5,1.1.5.6,0,.8-.2.4-.3.6-.5l.6.4c-.4.7-1.1,1-2,1ZM44,190.4c-.4,0-.7.1-.9.4s-.4.6-.5,1.1h2.6c0-.5-.1-.9-.4-1.1s-.5-.4-.9-.4Z"/>
    <path class="cls-8" d="M47.2,188.4c0-.1,0-.3.1-.4s.2-.2.4-.2.3,0,.4.2.1.2.1.4,0,.3-.1.4-.2.1-.4.1-.3,0-.4-.1-.1-.2-.1-.4ZM48.2,195.1h-.9v-5.3h.9v5.3Z"/>
    <path class="cls-8" d="M50.9,188.5v1.3h1v.7h-1v3.3c0,.2,0,.4.1.5s.2.2.4.2.2,0,.4,0v.7c-.2,0-.5,0-.7,0-.4,0-.7-.1-.9-.4s-.3-.6-.3-1v-3.3h-1v-.7h1v-1.3h.9Z"/>
    <path class="cls-8" d="M53.8,190.4c.4-.5.9-.7,1.6-.7,1.1,0,1.7.6,1.7,1.9v3.5h-.9v-3.5c0-.4,0-.7-.3-.8s-.4-.3-.8-.3-.6,0-.8.2-.4.4-.5.6v3.8h-.9v-7.5h.9v2.9Z"/>
    <path class="cls-8" d="M60.6,195.2c-.7,0-1.3-.2-1.7-.7s-.7-1.1-.7-1.9v-.2c0-.5.1-1,.3-1.4.2-.4.5-.7.8-1,.4-.2.8-.3,1.2-.3.7,0,1.2.2,1.6.7s.6,1.1.6,1.9v.4h-3.6c0,.5.2.9.5,1.3.3.3.7.5,1.1.5s.6,0,.8-.2.4-.3.6-.5l.6.4c-.4.7-1.1,1-2,1ZM60.5,190.4c-.4,0-.7.1-.9.4s-.4.6-.5,1.1h2.6c0-.5-.1-.9-.4-1.1s-.5-.4-.9-.4Z"/>
    <path class="cls-8" d="M66.3,190.6c-.1,0-.3,0-.4,0-.6,0-1,.3-1.2.8v3.8h-.9v-5.3h.9v.6c.3-.5.7-.7,1.3-.7s.3,0,.4,0v.8Z"/>
    <path class="cls-8" d="M70.7,195.1h-.9v-7.1h.9v7.1Z"/>
    <path class="cls-8" d="M73.1,189.8v.7c.4-.5,1-.8,1.6-.8,1.1,0,1.7.6,1.7,1.9v3.5h-.9v-3.5c0-.4,0-.7-.3-.8-.2-.2-.4-.3-.8-.3s-.5,0-.8.2-.4.4-.5.6v3.8h-.9v-5.3h.9Z"/>
    <path class="cls-8" d="M79,188.5v1.3h1v.7h-1v3.3c0,.2,0,.4.1.5s.2.2.4.2.2,0,.4,0v.7c-.2,0-.5,0-.7,0-.4,0-.7-.1-.9-.4s-.3-.6-.3-1v-3.3h-1v-.7h1v-1.3h.9Z"/>
    <path class="cls-8" d="M84.3,194.5c-.4.4-.9.6-1.5.6s-1-.2-1.3-.5c-.3-.3-.4-.8-.4-1.5v-3.4h.9v3.4c0,.8.3,1.2,1,1.2s1.1-.3,1.4-.8v-3.8h.9v5.3h-.9v-.5Z"/>
    <path class="cls-8" d="M86.6,188.4c0-.1,0-.3.1-.4,0-.1.2-.2.4-.2s.3,0,.4.2.1.2.1.4,0,.3-.1.4-.2.1-.4.1-.3,0-.4-.1c0,0-.1-.2-.1-.4ZM87.6,195.1h-.9v-5.3h.9v5.3Z"/>
    <path class="cls-8" d="M90.2,188.5v1.3h1v.7h-1v3.3c0,.2,0,.4.1.5s.2.2.4.2.2,0,.4,0v.7c-.2,0-.5,0-.7,0-.4,0-.7-.1-.9-.4s-.3-.6-.3-1v-3.3h-1v-.7h1v-1.3h.9Z"/>
    <path class="cls-8" d="M92.3,188.4c0-.1,0-.3.1-.4,0-.1.2-.2.4-.2s.3,0,.4.2.1.2.1.4,0,.3-.1.4-.2.1-.4.1-.3,0-.4-.1c0,0-.1-.2-.1-.4ZM93.3,195.1h-.9v-5.3h.9v5.3Z"/>
    <path class="cls-8" d="M96.4,193.8l1.3-4.1h.9l-1.9,5.3h-.7l-1.9-5.3h.9l1.3,4.1Z"/>
    <path class="cls-8" d="M101.7,195.2c-.7,0-1.3-.2-1.7-.7s-.7-1.1-.7-1.9v-.2c0-.5.1-1,.3-1.4.2-.4.5-.7.8-1,.4-.2.8-.3,1.2-.3.7,0,1.2.2,1.6.7s.6,1.1.6,1.9v.4h-3.6c0,.5.2.9.5,1.3.3.3.7.5,1.1.5s.6,0,.8-.2.4-.3.6-.5l.6.4c-.4.7-1.1,1-2,1ZM101.6,190.4c-.4,0-.7.1-.9.4s-.4.6-.5,1.1h2.6c0-.5-.1-.9-.4-1.1s-.5-.4-.9-.4Z"/>
    <path class="cls-8" d="M107.1,192.4c0-.5.1-1,.3-1.4.2-.4.5-.7.8-1,.4-.2.8-.3,1.2-.3.7,0,1.3.2,1.7.7.4.5.7,1.2.7,2h0c0,.6,0,1-.3,1.4-.2.4-.5.7-.8,1-.4.2-.8.3-1.3.3-.7,0-1.3-.2-1.7-.7-.4-.5-.7-1.2-.7-2h0ZM108,192.5c0,.6.1,1.1.4,1.4.3.4.6.5,1.1.5s.8-.2,1.1-.5.4-.9.4-1.5-.1-1-.4-1.4c-.3-.4-.6-.5-1.1-.5s-.8.2-1.1.5-.4.9-.4,1.5Z"/>
    <path class="cls-8" d="M115.6,190.6c-.1,0-.3,0-.4,0-.6,0-1,.3-1.2.8v3.8h-.9v-5.3h.9v.6c.3-.5.7-.7,1.3-.7s.3,0,.4,0v.8Z"/>
    <path class="cls-8" d="M118.7,192.4c0-.8.2-1.5.6-2s.9-.7,1.5-.7,1.1.2,1.5.6v-2.8h.9v7.5h-.8v-.6c-.4.4-.9.7-1.6.7s-1.1-.3-1.5-.8c-.4-.5-.6-1.2-.6-2h0ZM119.6,192.5c0,.6.1,1.1.4,1.4s.6.5,1,.5,1-.3,1.3-.8v-2.4c-.3-.5-.7-.7-1.2-.7s-.8.2-1,.5-.4.8-.4,1.5Z"/>
    <path class="cls-8" d="M124.5,188.4c0-.1,0-.3.1-.4,0-.1.2-.2.4-.2s.3,0,.4.2.1.2.1.4,0,.3-.1.4-.2.1-.4.1-.3,0-.4-.1c0,0-.1-.2-.1-.4ZM125.5,195.1h-.9v-5.3h.9v5.3Z"/>
    <path class="cls-8" d="M127.4,195.1v-4.6h-.8v-.7h.8v-.5c0-.6.2-1,.5-1.3s.7-.5,1.3-.5.4,0,.6,0v.7c-.2,0-.4,0-.5,0-.3,0-.5,0-.7.3s-.2.4-.2.7v.6h1.1v.7h-1.1v4.6h-.9Z"/>
    <path class="cls-8" d="M130.9,195.1v-4.6h-.8v-.7h.8v-.5c0-.6.2-1,.5-1.3s.7-.5,1.3-.5.4,0,.6,0v.7c-.2,0-.4,0-.5,0-.3,0-.5,0-.7.3s-.2.4-.2.7v.6h1.1v.7h-1.1v4.6h-.9Z"/>
    <path class="cls-8" d="M133.9,188.4c0-.1,0-.3.1-.4,0-.1.2-.2.4-.2s.3,0,.4.2.1.2.1.4,0,.3-.1.4-.2.1-.4.1-.3,0-.4-.1c0,0-.1-.2-.1-.4ZM134.9,195.1h-.9v-5.3h.9v5.3Z"/>
    <path class="cls-8" d="M138.4,194.4c.3,0,.6,0,.8-.3s.4-.4.4-.7h.9c0,.3-.1.6-.3.9s-.4.5-.8.7c-.3.2-.7.2-1,.2-.7,0-1.3-.2-1.7-.7-.4-.5-.6-1.1-.6-2v-.2c0-.5,0-1,.3-1.4s.5-.7.8-.9c.4-.2.8-.3,1.3-.3s1.1.2,1.5.5c.4.4.6.8.6,1.4h-.9c0-.3-.2-.6-.4-.8-.2-.2-.5-.3-.9-.3s-.8.2-1.1.5c-.3.3-.4.8-.4,1.4v.2c0,.6.1,1.1.4,1.4s.6.5,1.1.5Z"/>
    <path class="cls-8" d="M144.8,194.5c-.4.4-.9.6-1.5.6s-1-.2-1.3-.5c-.3-.3-.4-.8-.4-1.5v-3.4h.9v3.4c0,.8.3,1.2,1,1.2s1.1-.3,1.4-.8v-3.8h.9v5.3h-.9v-.5Z"/>
    <path class="cls-8" d="M148,195.1h-.9v-7.5h.9v7.5Z"/>
    <path class="cls-8" d="M150.7,188.5v1.3h1v.7h-1v3.3c0,.2,0,.4.1.5s.2.2.4.2.2,0,.4,0v.7c-.2,0-.5,0-.7,0-.4,0-.7-.1-.9-.4s-.3-.6-.3-1v-3.3h-1v-.7h1v-1.3h.9Z"/>
    <path class="cls-8" d="M40.4,234.1h-.9l-3.6-5.5v5.5h-.9v-7.1h.9l3.6,5.5v-5.5h.9v7.1Z"/>
    <path class="cls-8" d="M41.7,231.4c0-.5.1-1,.3-1.4.2-.4.5-.7.8-1s.8-.3,1.2-.3c.7,0,1.3.2,1.7.7s.7,1.2.7,2h0c0,.6,0,1-.3,1.4s-.5.7-.8,1c-.4.2-.8.3-1.3.3-.7,0-1.3-.2-1.7-.7s-.7-1.2-.7-2h0ZM42.6,231.5c0,.6.1,1.1.4,1.4.3.4.6.5,1.1.5s.8-.2,1.1-.5.4-.9.4-1.5-.1-1-.4-1.4-.6-.5-1.1-.5-.8.2-1.1.5c-.3.4-.4.9-.4,1.5Z"/>
    <path class="cls-8" d="M48.8,227.5v1.3h1v.7h-1v3.3c0,.2,0,.4.1.5s.2.2.4.2.2,0,.4,0v.7c-.2,0-.5,0-.7,0-.4,0-.7-.1-.9-.4s-.3-.6-.3-1v-3.3h-1v-.7h1v-1.3h.9Z"/>
    <path class="cls-8" d="M54.5,234.1h-.9v-7.1h.9v7.1Z"/>
    <path class="cls-8" d="M56.9,228.8v.7c.4-.5,1-.8,1.6-.8,1.1,0,1.7.6,1.7,1.9v3.5h-.9v-3.5c0-.4,0-.7-.3-.8-.2-.2-.4-.3-.8-.3s-.5,0-.8.2-.4.4-.5.6v3.8h-.9v-5.3h.9Z"/>
    <path class="cls-8" d="M62.8,227.5v1.3h1v.7h-1v3.3c0,.2,0,.4.1.5s.2.2.4.2.2,0,.4,0v.7c-.2,0-.5,0-.7,0-.4,0-.7-.1-.9-.4s-.3-.6-.3-1v-3.3h-1v-.7h1v-1.3h.9Z"/>
    <path class="cls-8" d="M68.1,233.5c-.4.4-.9.6-1.5.6s-1-.2-1.3-.5c-.3-.3-.4-.8-.4-1.5v-3.4h.9v3.4c0,.8.3,1.2,1,1.2s1.1-.3,1.4-.8v-3.8h.9v5.3h-.9v-.5Z"/>
    <path class="cls-8" d="M70.4,227.4c0-.1,0-.3.1-.4,0-.1.2-.2.4-.2s.3,0,.4.2c0,.1.1.2.1.4s0,.3-.1.4-.2.1-.4.1-.3,0-.4-.1c0,0-.1-.2-.1-.4ZM71.4,234.1h-.9v-5.3h.9v5.3Z"/>
    <path class="cls-8" d="M74,227.5v1.3h1v.7h-1v3.3c0,.2,0,.4.1.5s.2.2.4.2.2,0,.4,0v.7c-.2,0-.5,0-.7,0-.4,0-.7-.1-.9-.4s-.3-.6-.3-1v-3.3h-1v-.7h1v-1.3h.9Z"/>
    <path class="cls-8" d="M76.1,227.4c0-.1,0-.3.1-.4,0-.1.2-.2.4-.2s.3,0,.4.2c0,.1.1.2.1.4s0,.3-.1.4-.2.1-.4.1-.3,0-.4-.1c0,0-.1-.2-.1-.4ZM77,234.1h-.9v-5.3h.9v5.3Z"/>
    <path class="cls-8" d="M80.2,232.8l1.3-4.1h.9l-1.9,5.3h-.7l-1.9-5.3h.9l1.3,4.1Z"/>
    <path class="cls-8" d="M85.5,234.2c-.7,0-1.3-.2-1.7-.7s-.7-1.1-.7-1.9v-.2c0-.5.1-1,.3-1.4.2-.4.5-.7.8-1,.4-.2.8-.3,1.2-.3.7,0,1.2.2,1.6.7.4.5.6,1.1.6,1.9v.4h-3.6c0,.5.2.9.5,1.3.3.3.7.5,1.1.5s.6,0,.8-.2c.2-.1.4-.3.6-.5l.6.4c-.4.7-1.1,1-2,1ZM85.4,229.4c-.4,0-.7.1-.9.4s-.4.6-.5,1.1h2.6c0-.5-.1-.9-.4-1.1s-.5-.4-.9-.4Z"/>
    <path class="cls-8" d="M37.3,276.5l2-5.9h1l-2.6,7.1h-.8l-2.6-7.1h1l2,5.9Z"/>
    <path class="cls-8" d="M43.3,277.8c-.7,0-1.3-.2-1.7-.7s-.7-1.1-.7-1.9v-.2c0-.5.1-1,.3-1.4s.5-.7.8-1,.7-.3,1.2-.3c.7,0,1.2.2,1.6.7.4.5.6,1.1.6,1.9v.4h-3.6c0,.5.2.9.5,1.3s.7.5,1.1.5.6,0,.8-.2c.2-.1.4-.3.6-.5l.6.4c-.4.7-1.1,1-2,1ZM43.2,273.1c-.4,0-.7.1-.9.4s-.4.6-.5,1.1h2.6c0-.5-.1-.9-.4-1.1s-.5-.4-.9-.4Z"/>
    <path class="cls-8" d="M49,273.3c-.1,0-.3,0-.4,0-.6,0-1,.3-1.2.8v3.8h-.9v-5.3h.9v.6c.3-.5.7-.7,1.3-.7s.3,0,.4,0v.8Z"/>
    <path class="cls-8" d="M51.6,276.4l1.2-4h1l-2.1,6.1c-.3.9-.9,1.3-1.6,1.3h-.2s-.3,0-.3,0v-.7h.2c.3,0,.5,0,.7-.2.2-.1.3-.4.4-.7l.2-.5-1.9-5.2h1l1.3,4Z"/>
    <path class="cls-8" d="M62.6,277.7h-.9l-3.6-5.5v5.5h-.9v-7.1h.9l3.6,5.5v-5.5h.9v7.1Z"/>
    <path class="cls-8" d="M63.9,275c0-.5.1-1,.3-1.4.2-.4.5-.7.8-1,.4-.2.8-.3,1.2-.3.7,0,1.3.2,1.7.7.4.5.7,1.2.7,2h0c0,.6,0,1-.3,1.4-.2.4-.5.7-.8,1-.4.2-.8.3-1.3.3-.7,0-1.3-.2-1.7-.7-.4-.5-.7-1.2-.7-2h0ZM64.8,275.1c0,.6.1,1.1.4,1.4.3.4.6.5,1.1.5s.8-.2,1.1-.5.4-.9.4-1.5-.1-1-.4-1.4c-.3-.4-.6-.5-1.1-.5s-.8.2-1.1.5c-.3.4-.4.9-.4,1.5Z"/>
    <path class="cls-8" d="M71.1,271.2v1.3h1v.7h-1v3.3c0,.2,0,.4.1.5s.2.2.4.2.2,0,.4,0v.7c-.2,0-.5,0-.7,0-.4,0-.7-.1-.9-.4s-.3-.6-.3-1v-3.3h-1v-.7h1v-1.3h.9Z"/>
    <path class="cls-8" d="M76.8,277.7h-.9v-7.1h.9v7.1Z"/>
    <path class="cls-8" d="M79.2,272.4v.7c.4-.5,1-.8,1.6-.8,1.1,0,1.7.6,1.7,1.9v3.5h-.9v-3.5c0-.4,0-.7-.3-.8-.2-.2-.4-.3-.8-.3s-.5,0-.8.2-.4.4-.5.6v3.8h-.9v-5.3h.9Z"/>
    <path class="cls-8" d="M85.1,271.2v1.3h1v.7h-1v3.3c0,.2,0,.4.1.5s.2.2.4.2.2,0,.4,0v.7c-.2,0-.5,0-.7,0-.4,0-.7-.1-.9-.4s-.3-.6-.3-1v-3.3h-1v-.7h1v-1.3h.9Z"/>
    <path class="cls-8" d="M90.4,277.2c-.4.4-.9.6-1.5.6s-1-.2-1.3-.5c-.3-.3-.4-.8-.4-1.5v-3.4h.9v3.4c0,.8.3,1.2,1,1.2s1.1-.3,1.4-.8v-3.8h.9v5.3h-.9v-.5Z"/>
    <path class="cls-8" d="M92.6,271c0-.1,0-.3.1-.4,0-.1.2-.2.4-.2s.3,0,.4.2c0,.1.1.2.1.4s0,.3-.1.4-.2.1-.4.1-.3,0-.4-.1c0,0-.1-.2-.1-.4ZM93.6,277.7h-.9v-5.3h.9v5.3Z"/>
    <path class="cls-8" d="M96.3,271.2v1.3h1v.7h-1v3.3c0,.2,0,.4.1.5s.2.2.4.2.2,0,.4,0v.7c-.2,0-.5,0-.7,0-.4,0-.7-.1-.9-.4s-.3-.6-.3-1v-3.3h-1v-.7h1v-1.3h.9Z"/>
    <path class="cls-8" d="M98.3,271c0-.1,0-.3.1-.4,0-.1.2-.2.4-.2s.3,0,.4.2c0,.1.1.2.1.4s0,.3-.1.4-.2.1-.4.1-.3,0-.4-.1c0,0-.1-.2-.1-.4ZM99.3,277.7h-.9v-5.3h.9v5.3Z"/>
    <path class="cls-8" d="M102.5,276.5l1.3-4.1h.9l-1.9,5.3h-.7l-1.9-5.3h.9l1.3,4.1Z"/>
    <path class="cls-8" d="M107.8,277.8c-.7,0-1.3-.2-1.7-.7s-.7-1.1-.7-1.9v-.2c0-.5.1-1,.3-1.4.2-.4.5-.7.8-1,.4-.2.8-.3,1.2-.3.7,0,1.2.2,1.6.7.4.5.6,1.1.6,1.9v.4h-3.6c0,.5.2.9.5,1.3.3.3.7.5,1.1.5s.6,0,.8-.2c.2-.1.4-.3.6-.5l.6.4c-.4.7-1.1,1-2,1ZM107.7,273.1c-.4,0-.7.1-.9.4s-.4.6-.5,1.1h2.6c0-.5-.1-.9-.4-1.1s-.5-.4-.9-.4Z"/>
  </g>
  <g>
    <path class="cls-7" d="M174.8,364c-1-.3-1.7-.6-2.1-1s-.7-.9-.7-1.5.3-1.2.8-1.7,1.2-.7,2.1-.7,1.1.1,1.6.3.8.5,1.1.9.4.8.4,1.3h-1.1c0-.5-.2-.9-.5-1.2s-.8-.4-1.4-.4-1,.1-1.3.4c-.3.2-.5.6-.5,1s.1.6.4.9c.3.2.8.5,1.5.7.7.2,1.3.4,1.7.7s.7.5.9.8.3.7.3,1.1c0,.7-.3,1.2-.8,1.7s-1.3.6-2.2.6-1.1-.1-1.6-.3-.9-.5-1.2-.9-.4-.8-.4-1.3h1.1c0,.5.2.9.6,1.2s.9.4,1.5.4,1-.1,1.4-.4.5-.6.5-1-.1-.7-.4-1-.8-.5-1.6-.7Z"/>
    <path class="cls-7" d="M183.1,367.2c-.4.5-1,.7-1.9.7s-1.2-.2-1.5-.6-.5-1-.5-1.7v-4.1h1.1v4.1c0,1,.4,1.4,1.2,1.4s1.4-.3,1.7-.9v-4.6h1.1v6.3h-1v-.6Z"/>
    <path class="cls-7" d="M191.2,364.7c0,1-.2,1.7-.7,2.3s-1,.9-1.8.9-1.4-.3-1.9-.8v.7h-1v-9h1.1v3.4c.4-.5,1-.8,1.8-.8s1.4.3,1.8.9.7,1.4.7,2.4h0ZM190.1,364.6c0-.7-.1-1.3-.4-1.7s-.7-.6-1.2-.6-1.2.3-1.5,1v2.7c.3.7.8,1,1.6,1s.9-.2,1.2-.6.4-1,.4-1.8Z"/>
    <path class="cls-7" d="M193.6,361.5v.7c.5-.5,1.1-.8,1.9-.8s1.5.3,1.8,1c.2-.3.5-.6.8-.7s.7-.3,1.2-.3c1.4,0,2.1.7,2.1,2.2v4.2h-1.1v-4.2c0-.5-.1-.8-.3-1s-.6-.3-1-.3-.7.1-1,.4-.4.6-.5,1v4.2h-1.1v-4.2c0-.9-.5-1.4-1.4-1.4s-1.2.3-1.5.9v4.6h-1.1v-6.3h1Z"/>
    <path class="cls-7" d="M203.1,359.8c0-.2,0-.3.2-.4s.3-.2.5-.2.4,0,.5.2.2.3.2.4,0,.3-.2.4-.3.2-.5.2-.4,0-.5-.2-.2-.3-.2-.4ZM204.2,367.8h-1.1v-6.3h1.1v6.3Z"/>
    <path class="cls-7" d="M207.4,359.9v1.5h1.2v.8h-1.2v3.9c0,.3,0,.4.2.6s.3.2.5.2.3,0,.5,0v.9c-.3,0-.6.1-.8.1-.5,0-.8-.1-1.1-.4s-.4-.7-.4-1.2v-3.9h-1.2v-.8h1.2v-1.5h1.1Z"/>
  </g>
  <g>
    <path class="cls-7" d="M73.1,365.1c-.1.9-.4,1.6-1,2.1s-1.3.7-2.2.7-1.8-.4-2.4-1.1-.9-1.7-.9-2.9v-.8c0-.8.1-1.5.4-2.1s.7-1.1,1.2-1.4,1.1-.5,1.8-.5,1.6.3,2.2.8.9,1.2,1,2.1h-1.1c0-.7-.3-1.2-.6-1.5s-.8-.5-1.4-.5-1.3.3-1.7.8c-.4.5-.6,1.3-.6,2.3v.8c0,.9.2,1.7.6,2.2.4.5.9.8,1.6.8s1.1-.1,1.4-.4.6-.8.7-1.5h1.1Z"/>
    <path class="cls-7" d="M75.6,367.8h-1.1v-9h1.1v9Z"/>
    <path class="cls-7" d="M77.1,364.6c0-.6.1-1.2.4-1.7s.6-.9,1-1.1.9-.4,1.5-.4c.9,0,1.6.3,2.1.9s.8,1.4.8,2.4h0c0,.7-.1,1.2-.4,1.7s-.6.9-1,1.1-.9.4-1.5.4c-.9,0-1.6-.3-2.1-.9s-.8-1.4-.8-2.4h0ZM78.2,364.7c0,.7.2,1.3.5,1.7s.8.6,1.3.6,1-.2,1.3-.6.5-1,.5-1.8-.2-1.3-.5-1.7-.8-.6-1.3-.6-1,.2-1.3.6-.5,1-.5,1.8Z"/>
    <path class="cls-7" d="M87.9,366.1c0-.3-.1-.5-.3-.7s-.6-.3-1.2-.4-1-.3-1.3-.4-.6-.4-.7-.6-.2-.5-.2-.8c0-.5.2-1,.7-1.3s1-.5,1.7-.5,1.3.2,1.7.6.7.8.7,1.4h-1.1c0-.3-.1-.6-.4-.8s-.6-.3-1-.3-.7,0-.9.3-.3.4-.3.7.1.5.3.6.6.3,1.1.4,1,.3,1.3.4.6.4.7.6.2.5.2.9c0,.6-.2,1-.7,1.4s-1,.5-1.8.5-1,0-1.3-.3-.7-.4-.9-.8-.3-.7-.3-1h1.1c0,.4.2.7.4.9s.6.3,1.1.3.7,0,1-.2.4-.4.4-.7Z"/>
    <path class="cls-7" d="M93,367.9c-.9,0-1.6-.3-2.1-.8s-.8-1.3-.8-2.3v-.2c0-.6.1-1.2.4-1.7s.6-.9,1-1.2.9-.4,1.4-.4c.8,0,1.5.3,1.9.8s.7,1.3.7,2.3v.5h-4.3c0,.6.2,1.1.5,1.5s.8.6,1.3.6.7,0,1-.2.5-.4.7-.6l.7.5c-.5.8-1.3,1.2-2.4,1.2ZM92.9,362.2c-.4,0-.8.2-1.1.5s-.5.8-.6,1.3h3.2c0-.6-.2-1.1-.4-1.4s-.6-.5-1.1-.5Z"/>
  </g>
  <line class="cls-1" x1="34.1" y1="132.8" x2="236.9" y2="132.8"/>
  <line class="cls-1" x1="34.1" y1="172.4" x2="236.9" y2="172.4"/>
  <line class="cls-1" x1="34.1" y1="211.9" x2="236.9" y2="211.9"/>
  <line class="cls-1" x1="34.1" y1="251.4" x2="236.9" y2="251.4"/>
  <line class="cls-1" x1="34.1" y1="296.8" x2="236.9" y2="296.8"/>
  <circle class="cls-5" cx="226.9" cy="111.5" r="6.2"/>
  <circle class="cls-5" cx="226.9" cy="152.6" r="6.2"/>
  <circle class="cls-5" cx="226.9" cy="192.1" r="6.2"/>
  <circle class="cls-5" cx="226.9" cy="231.6" r="6.2"/>
  <circle class="cls-5" cx="226.9" cy="274.1" r="6.2"/>
  <circle class="cls-6" cx="117.6" cy="320.7" r="3.9"/>
  <circle class="cls-4" cx="151" cy="320.7" r="3.9"/>
  <circle class="cls-4" cx="134.9" cy="320.7" r="3.9"/>
</svg>