<?xml version="1.0" encoding="UTF-8"?><svg id="Layer_2" xmlns="http://www.w3.org/2000/svg" viewBox="0 0 17.57 130.29"><defs><style>.cls-1{fill:#fff;stroke-width:0px;}</style></defs><g id="Layer_1-2"><path class="cls-1" d="M7.38,122.73v5.79h4.74v-6.73h1.44v8.5H.18v-8.4h1.44v6.64h4.31v-5.79h1.44Z"/><path class="cls-1" d="M11.25,116.83l-7.63-2.46v-1.74l9.94,3.56v1.29l-9.94,3.6v-1.74l7.63-2.53Z"/><path class="cls-1" d="M13.74,106.87c0,1.35-.44,2.44-1.33,3.29-.88.84-2.07,1.27-3.55,1.27h-.31c-.99,0-1.87-.19-2.64-.56s-1.38-.9-1.82-1.58c-.44-.68-.66-1.41-.66-2.2,0-1.29.42-2.3,1.28-3.01.85-.72,2.07-1.08,3.66-1.08h.71v6.73c.98-.02,1.77-.31,2.37-.86.6-.55.9-1.24.9-2.09,0-.6-.12-1.11-.37-1.52-.25-.42-.57-.78-.97-1.09l.81-1.04c1.28.83,1.92,2.08,1.92,3.75ZM4.83,107.08c0,.69.25,1.26.75,1.73.5.47,1.2.75,2.1.86v-4.98h-.13c-.86.05-1.53.28-2.01.7s-.71.98-.71,1.69Z"/><path class="cls-1" d="M3.62,99.42l1.25-.06c-.96-.76-1.43-1.75-1.43-2.98,0-2.1,1.18-3.16,3.55-3.18h6.57v1.7h-6.58c-.72,0-1.25.17-1.59.49s-.51.82-.51,1.5c0,.55.15,1.03.44,1.45.29.42.68.74,1.16.97h7.08v1.7H3.62v-1.61Z"/><path class="cls-1" d="M1.21,88.35h2.41v-1.86h1.31v1.86h6.17c.4,0,.7-.08.9-.25s.3-.45.3-.84c0-.2-.04-.47-.11-.81h1.37c.12.45.18.88.18,1.3,0,.76-.23,1.33-.69,1.72s-1.11.58-1.96.58h-6.16v1.81h-1.31v-1.81H1.21v-1.7Z"/><path class="cls-1" d="M13.56,79.59H.18v-3.77c0-1.16.26-2.19.77-3.09.51-.89,1.25-1.58,2.2-2.07s2.04-.73,3.27-.74h.85c1.26,0,2.37.24,3.32.73.95.49,1.68,1.18,2.19,2.08.51.9.77,1.96.78,3.16v3.7ZM1.63,77.82h10.49v-1.86c0-1.36-.42-2.42-1.27-3.17-.85-.76-2.05-1.13-3.61-1.13h-.78c-1.52,0-2.7.36-3.54,1.07-.84.71-1.27,1.73-1.28,3.04v2.06Z"/><path class="cls-1" d="M.98,67.51c-.28,0-.51-.08-.7-.25-.19-.17-.29-.42-.29-.75s.1-.58.29-.75c.19-.17.42-.26.7-.26s.5.09.69.26c.18.17.28.42.28.75s-.09.58-.28.75c-.18.17-.41.25-.69.25ZM13.56,65.67v1.7H3.62v-1.7h9.94Z"/><path class="cls-1" d="M10.92,57.17c-.46,0-.82.17-1.07.52-.25.35-.47.95-.66,1.81s-.4,1.54-.66,2.05-.56.88-.92,1.12c-.35.24-.78.36-1.27.36-.81,0-1.5-.34-2.07-1.03-.56-.69-.84-1.57-.84-2.64,0-1.13.29-2.04.87-2.74s1.33-1.05,2.23-1.05v1.71c-.46,0-.87.2-1.2.59-.34.39-.5.89-.5,1.49s.13,1.1.4,1.45c.27.35.62.52,1.06.52.41,0,.72-.16.93-.49.21-.32.41-.91.6-1.76.19-.85.42-1.54.68-2.06.26-.53.58-.92.95-1.17.37-.25.82-.38,1.35-.38.89,0,1.6.36,2.13,1.07.54.71.8,1.63.8,2.76,0,.8-.14,1.5-.42,2.11-.28.61-.67,1.09-1.18,1.44-.5.35-1.05.52-1.64.52v-1.7c.57-.03,1.02-.26,1.36-.68.33-.42.5-.99.5-1.68,0-.64-.13-1.16-.39-1.55-.26-.39-.61-.58-1.04-.58Z"/><path class="cls-1" d="M12.35,49.27c0-.61-.18-1.14-.55-1.59s-.83-.7-1.38-.75v-1.61c.57.03,1.11.23,1.63.59.51.36.92.84,1.23,1.45.31.6.46,1.24.46,1.92,0,1.35-.45,2.43-1.35,3.23-.9.8-2.14,1.2-3.71,1.2h-.28c-.97,0-1.83-.18-2.58-.53-.75-.35-1.34-.86-1.75-1.53-.42-.67-.62-1.45-.62-2.36,0-1.11.33-2.04,1-2.78.67-.74,1.53-1.13,2.6-1.18v1.61c-.64.05-1.17.29-1.58.73-.41.44-.62.98-.62,1.62,0,.86.31,1.53.93,2.01.62.47,1.52.71,2.7.71h.32c1.14,0,2.03-.24,2.64-.71.62-.47.93-1.14.93-2.02Z"/><path class="cls-1" d="M8.5,43.86c-.97,0-1.85-.19-2.63-.57-.78-.38-1.38-.92-1.8-1.6-.42-.68-.63-1.46-.63-2.34,0-1.35.47-2.45,1.4-3.28.94-.84,2.18-1.25,3.74-1.25h.12c.97,0,1.84.19,2.6.56.77.37,1.37.9,1.8,1.59s.64,1.48.64,2.37c0,1.35-.47,2.44-1.41,3.27-.94.83-2.18,1.25-3.72,1.25h-.12ZM8.7,42.15c1.1,0,1.99-.26,2.65-.77.67-.51,1-1.2,1-2.05s-.34-1.55-1.01-2.06c-.68-.51-1.62-.76-2.84-.76-1.09,0-1.97.26-2.65.78-.68.52-1.01,1.21-1.01,2.06s.33,1.51,1,2.03,1.62.77,2.87.77Z"/><path class="cls-1" d="M11.25,29.54l-7.63-2.46v-1.74l9.94,3.56v1.29l-9.94,3.6v-1.74l7.63-2.53Z"/><path class="cls-1" d="M13.74,19.59c0,1.35-.44,2.44-1.33,3.29-.88.84-2.07,1.27-3.55,1.27h-.31c-.99,0-1.87-.19-2.64-.56s-1.38-.9-1.82-1.58c-.44-.68-.66-1.41-.66-2.2,0-1.29.42-2.3,1.28-3.01.85-.72,2.07-1.08,3.66-1.08h.71v6.73c.98-.02,1.77-.31,2.37-.86.6-.55.9-1.24.9-2.09,0-.6-.12-1.11-.37-1.52-.25-.42-.57-.78-.97-1.09l.81-1.04c1.28.83,1.92,2.08,1.92,3.75ZM4.83,19.8c0,.69.25,1.26.75,1.73.5.47,1.2.75,2.1.86v-4.98h-.13c-.86.05-1.53.28-2.01.7s-.71.98-.71,1.69Z"/><path class="cls-1" d="M5.14,8.95c-.04.26-.06.54-.06.84,0,1.11.47,1.87,1.42,2.27h7.05v1.7H3.62v-1.65l1.15-.03c-.89-.56-1.33-1.35-1.33-2.37,0-.33.04-.58.13-.75h1.58Z"/><path class="cls-1" d="M11.07,4.13L3.62,1.82V0l11.47,4c1.65.62,2.48,1.6,2.48,2.95l-.03.32-.12.63h-1.38l.04-.46c0-.58-.12-1.02-.35-1.35-.23-.32-.66-.59-1.28-.79l-1.01-.38-9.83,3.54v-1.86l7.45-2.48Z"/></g></svg>