<?xml version="1.0" encoding="UTF-8"?>
<svg id="Layer_2" data-name="Layer 2" xmlns="http://www.w3.org/2000/svg" version="1.1" viewBox="0 0 17.6 130.3">
  <defs>
    <style>
      .cls-1 {
        fill: #fff;
        stroke-width: 0px;
      }
    </style>
  </defs>
  <g id="Layer_1-2" data-name="Layer 1-2">
    <path class="cls-1" d="M9.7,121.9v5.7h4.7v-6.6h1.4v8.4H2.6v-8.3h1.4v6.5h4.2v-5.7h1.4Z"/>
    <path class="cls-1" d="M13.5,116.1l-7.5-2.4v-1.7l9.8,3.5v1.3l-9.8,3.5v-1.7l7.5-2.5h0Z"/>
    <path class="cls-1" d="M15.9,106.3c0,1.3-.4,2.4-1.3,3.2-.9.8-2,1.3-3.5,1.3h-.3c-1,0-1.8-.2-2.6-.6s-1.4-.9-1.8-1.6-.6-1.4-.6-2.2c0-1.3.4-2.3,1.3-3,.8-.7,2-1.1,3.6-1.1h.7v6.6c1,0,1.7-.3,2.3-.8.6-.5.9-1.2.9-2.1s-.1-1.1-.4-1.5c-.2-.4-.6-.8-1-1.1l.8-1c1.3.8,1.9,2,1.9,3.7h0ZM7.2,106.5c0,.7.2,1.2.7,1.7s1.2.7,2.1.8v-4.9h-.1c-.8,0-1.5.3-2,.7s-.7,1-.7,1.7Z"/>
    <path class="cls-1" d="M6,99h1.2c-.9-.8-1.4-1.8-1.4-3,0-2.1,1.2-3.1,3.5-3.1h6.5v1.7h-6.5c-.7,0-1.2.2-1.6.5s-.5.8-.5,1.5.1,1,.4,1.4.7.7,1.1,1h7v1.7H6v-1.6h0Z"/>
    <path class="cls-1" d="M3.6,88.1h2.4v-1.8h1.3v1.8h6.1c.4,0,.7,0,.9-.2s.3-.4.3-.8,0-.5-.1-.8h1.3c.1.4.2.9.2,1.3,0,.7-.2,1.3-.7,1.7s-1.1.6-1.9.6h-6.1v1.8h-1.3v-1.8h-2.4v-1.7h0Z"/>
    <path class="cls-1" d="M13.4,75.1l-10.9-3.8v-1.9l13.2,4.9v1.5l-13.2,4.9v-1.9s10.9-3.7,10.9-3.7Z"/>
    <path class="cls-1" d="M15.8,62.3c-.2,0-.5.2-1,.2.8.8,1.2,1.7,1.2,2.8s-.3,1.8-.8,2.4-1.2.9-2.1.9-1.8-.4-2.4-1.2-.8-1.9-.8-3.3v-1.6h-.8c-.6,0-1.1.2-1.4.5s-.5.9-.5,1.5.1,1.1.5,1.5c.3.4.7.6,1.1.6v1.7c-.5,0-1-.2-1.4-.5-.5-.3-.8-.8-1.1-1.4s-.4-1.3-.4-2c0-1.1.3-2,.8-2.6.6-.6,1.3-1,2.3-1h4.5c.9,0,1.6-.1,2.1-.3h.1v1.8h0ZM14.5,65.1c0-.5-.1-1-.4-1.5s-.6-.8-1.1-1h-2v1.3c0,2,.6,3.1,1.8,3.1s.9-.2,1.2-.5c.3-.4.4-.8.4-1.3h0Z"/>
    <path class="cls-1" d="M15.8,56.5v1.7H1.9v-1.7h13.9Z"/>
    <path class="cls-1" d="M3.4,53.8c-.3,0-.5,0-.7-.2s-.3-.4-.3-.7,0-.6.3-.7c.2-.2.4-.3.7-.3s.5,0,.7.3c.2.2.3.4.3.7s0,.6-.3.7c-.2.2-.4.2-.7.2ZM15.8,52v1.7H6v-1.7h9.8Z"/>
    <path class="cls-1" d="M10.8,49.7c-1.5,0-2.7-.4-3.6-1.1s-1.4-1.6-1.4-2.8.4-2,1.2-2.7H1.9v-1.7h13.9v1.5h-1.1c.8.7,1.2,1.7,1.2,2.9s-.5,2.1-1.4,2.8c-.9.7-2.1,1.1-3.6,1.1,0,0-.1,0-.1,0ZM11,48c1.1,0,2-.2,2.6-.7.6-.5.9-1.1.9-1.9s-.5-1.8-1.4-2.3h-4.5c-.9.5-1.4,1.3-1.4,2.3s.3,1.5.9,1.9,1.6.7,2.8.7h0Z"/>
    <path class="cls-1" d="M15.8,32.8c-.2,0-.5.2-1,.2.8.8,1.2,1.7,1.2,2.8s-.3,1.8-.8,2.4-1.2.9-2.1.9-1.8-.4-2.4-1.2-.8-1.9-.8-3.3v-1.6h-.8c-.6,0-1.1.2-1.4.5s-.5.9-.5,1.5.1,1.1.5,1.5.7.6,1.1.6v1.7c-.5,0-1-.2-1.4-.5-.5-.3-.8-.8-1.1-1.4s-.4-1.3-.4-2c0-1.1.3-2,.8-2.6.6-.6,1.3-1,2.3-1h4.5c.9,0,1.6-.1,2.1-.3h.1v1.8h0ZM14.5,35.6c0-.5-.1-1-.4-1.5s-.6-.8-1.1-1h-2v1.3c0,2,.6,3.1,1.8,3.1s.9-.2,1.2-.5c.3-.4.4-.8.4-1.3h0Z"/>
    <path class="cls-1" d="M3.6,26.5h2.4v-1.8h1.3v1.8h6.1c.4,0,.7,0,.9-.2s.3-.4.3-.8,0-.5-.1-.8h1.3c.1.4.2.9.2,1.3,0,.7-.2,1.3-.7,1.7s-1.1.6-1.9.6h-6.1v1.8h-1.3v-1.8h-2.4s0-1.7,0-1.7Z"/>
    <path class="cls-1" d="M3.4,22.7c-.3,0-.5,0-.7-.2s-.3-.4-.3-.7,0-.6.3-.7c.2-.2.4-.3.7-.3s.5,0,.7.3c.2.2.3.4.3.7s0,.6-.3.7c-.2.2-.4.2-.7.2ZM15.8,20.9v1.7H6v-1.7h9.8Z"/>
    <path class="cls-1" d="M10.8,18.7c-1,0-1.8-.2-2.6-.6-.8-.4-1.4-.9-1.8-1.6s-.6-1.4-.6-2.3c0-1.3.5-2.4,1.4-3.2.9-.8,2.1-1.2,3.7-1.2h.1c1,0,1.8.2,2.6.6.8.4,1.3.9,1.8,1.6s.6,1.5.6,2.3c0,1.3-.5,2.4-1.4,3.2s-2.1,1.2-3.7,1.2h-.1,0ZM11,17c1.1,0,2-.3,2.6-.8.7-.5,1-1.2,1-2s-.3-1.5-1-2c-.7-.5-1.6-.7-2.8-.7s-1.9.3-2.6.8-1,1.2-1,2,.3,1.5,1,2,1.6.8,2.8.8h0Z"/>
    <path class="cls-1" d="M6,6.1h1.2c-.9-.8-1.4-1.8-1.4-3,0-2.1,1.2-3.1,3.5-3.1h6.5v1.7h-6.5c-.7,0-1.2.2-1.6.5-.3.3-.5.8-.5,1.5s.1,1,.4,1.4.7.7,1.1,1h7v1.7H6v-1.6h0Z"/>
  </g>
</svg>