<?xml version="1.0" encoding="UTF-8"?><svg id="Layer_2" xmlns="http://www.w3.org/2000/svg" xmlns:xlink="http://www.w3.org/1999/xlink" viewBox="0 0 342.58 400.1"><defs><style>.cls-1{fill:#ccc;stroke-width:0px;}.cls-2{filter:url(#drop-shadow-4);}.cls-3{filter:url(#drop-shadow-3);}.cls-4{filter:url(#drop-shadow-1);}.cls-5{filter:url(#drop-shadow-2);}.cls-6{font-size:20.55px;}.cls-6,.cls-7{fill:#404041;font-family:Roboto-Regular, Roboto;}.cls-7{font-size:11.62px;}</style><filter id="drop-shadow-1" filterUnits="userSpaceOnUse"><feOffset dx="-1.79" dy="-1.79"/><feGaussianBlur result="blur" stdDeviation="1.79"/><feFlood flood-color="#fff" flood-opacity=".5"/><feComposite in2="blur" operator="in"/><feComposite in="SourceGraphic"/></filter><filter id="drop-shadow-2" filterUnits="userSpaceOnUse"><feOffset dx="-1.79" dy="-1.79"/><feGaussianBlur result="blur-2" stdDeviation="1.79"/><feFlood flood-color="#fff" flood-opacity=".5"/><feComposite in2="blur-2" operator="in"/><feComposite in="SourceGraphic"/></filter><filter id="drop-shadow-3" filterUnits="userSpaceOnUse"><feOffset dx="1.79" dy="1.79"/><feGaussianBlur result="blur-3" stdDeviation="1.79"/><feFlood flood-color="#231f20" flood-opacity=".14"/><feComposite in2="blur-3" operator="in"/><feComposite in="SourceGraphic"/></filter><filter id="drop-shadow-4" filterUnits="userSpaceOnUse"><feOffset dx="1.79" dy="1.79"/><feGaussianBlur result="blur-4" stdDeviation="1.79"/><feFlood flood-color="#231f20" flood-opacity=".14"/><feComposite in2="blur-4" operator="in"/><feComposite in="SourceGraphic"/></filter></defs><g id="Layer_1-2"><g class="cls-4"><rect class="cls-1" y="0" width="342.58" height="27.06" rx="4.47" ry="4.47"/><rect class="cls-1" y="33.94" width="342.58" height="27.06" rx="4.47" ry="4.47"/><rect class="cls-1" y="67.83" width="342.58" height="27.06" rx="4.47" ry="4.47"/><rect class="cls-1" y="101.77" width="342.58" height="27.06" rx="4.47" ry="4.47"/><rect class="cls-1" y="135.66" width="342.58" height="27.06" rx="4.47" ry="4.47"/><rect class="cls-1" y="169.6" width="342.58" height="27.06" rx="4.47" ry="4.47"/></g><g class="cls-5"><rect class="cls-1" y="203.05" width="342.58" height="27.06" rx="4.47" ry="4.47"/><rect class="cls-1" y="236.99" width="342.58" height="27.06" rx="4.47" ry="4.47"/><rect class="cls-1" y="270.88" width="342.58" height="27.06" rx="4.47" ry="4.47"/><rect class="cls-1" y="304.82" width="342.58" height="27.06" rx="4.47" ry="4.47"/><rect class="cls-1" y="338.7" width="342.58" height="27.06" rx="4.47" ry="4.47"/><rect class="cls-1" y="372.65" width="342.58" height="27.06" rx="4.47" ry="4.47"/></g><g class="cls-3"><rect class="cls-1" y="0" width="342.58" height="27.06" rx="4.47" ry="4.47"/><rect class="cls-1" y="33.94" width="342.58" height="27.06" rx="4.47" ry="4.47"/><rect class="cls-1" y="67.83" width="342.58" height="27.06" rx="4.47" ry="4.47"/><rect class="cls-1" y="101.77" width="342.58" height="27.06" rx="4.47" ry="4.47"/><rect class="cls-1" y="135.66" width="342.58" height="27.06" rx="4.47" ry="4.47"/><rect class="cls-1" y="169.6" width="342.58" height="27.06" rx="4.47" ry="4.47"/></g><g class="cls-2"><rect class="cls-1" y="203.05" width="342.58" height="27.06" rx="4.47" ry="4.47"/><rect class="cls-1" y="236.99" width="342.58" height="27.06" rx="4.47" ry="4.47"/><rect class="cls-1" y="270.88" width="342.58" height="27.06" rx="4.47" ry="4.47"/><rect class="cls-1" y="304.82" width="342.58" height="27.06" rx="4.47" ry="4.47"/><rect class="cls-1" y="338.7" width="342.58" height="27.06" rx="4.47" ry="4.47"/><rect class="cls-1" y="372.65" width="342.58" height="27.06" rx="4.47" ry="4.47"/></g><text class="cls-7" transform="translate(7.06 18.24)"><tspan x="0" y="0">ABC - 01010101010</tspan></text><text class="cls-6" transform="translate(319.69 22.56)"><tspan x="0" y="0">+</tspan></text><text class="cls-6" transform="translate(319.69 56.37)"><tspan x="0" y="0">+</tspan></text><text class="cls-6" transform="translate(319.69 90.39)"><tspan x="0" y="0">+</tspan></text><text class="cls-6" transform="translate(319.69 124.2)"><tspan x="0" y="0">+</tspan></text><text class="cls-6" transform="translate(319.69 158.22)"><tspan x="0" y="0">+</tspan></text><text class="cls-6" transform="translate(319.69 192.03)"><tspan x="0" y="0">+</tspan></text><text class="cls-6" transform="translate(319.69 226.05)"><tspan x="0" y="0">+</tspan></text><text class="cls-6" transform="translate(319.69 259.86)"><tspan x="0" y="0">+</tspan></text><text class="cls-6" transform="translate(319.69 292.89)"><tspan x="0" y="0">+</tspan></text><text class="cls-6" transform="translate(319.69 326.7)"><tspan x="0" y="0">+</tspan></text><text class="cls-6" transform="translate(319.69 360.72)"><tspan x="0" y="0">+</tspan></text><text class="cls-6" transform="translate(319.69 394.53)"><tspan x="0" y="0">+</tspan></text><rect class="cls-1" x="7.06" y="43.47" width="286.84" height="17.54"/><text class="cls-7" transform="translate(7.06 52.18)"><tspan x="0" y="0">EFG - 12121212121</tspan></text><rect class="cls-1" x="7.06" y="77.35" width="286.84" height="17.54"/><text class="cls-7" transform="translate(7.06 86.07)"><tspan x="0" y="0">HIJ - 232323232323</tspan></text><rect class="cls-1" x="7.06" y="111.3" width="286.84" height="17.54"/><text class="cls-7" transform="translate(7.06 120.01)"><tspan x="0" y="0">KLM - 34343434343</tspan></text><rect class="cls-1" x="7.06" y="145.18" width="291.14" height="17.54"/><text class="cls-7" transform="translate(7.06 153.9)"><tspan x="0" y="0">NOP - 4545454545</tspan></text><rect class="cls-1" x="7.06" y="179.13" width="286.84" height="17.54"/><text class="cls-7" transform="translate(7.06 187.84)"><tspan x="0" y="0">QRS - 5656565656</tspan></text><rect class="cls-1" x="7.06" y="211.01" width="286.84" height="17.54"/><text class="cls-7" transform="translate(7.06 219.73)"><tspan x="0" y="0">TUV - 6767676767</tspan></text><rect class="cls-1" x="7.06" y="244.96" width="286.84" height="17.54"/><text class="cls-7" transform="translate(7.06 253.67)"><tspan x="0" y="0">WXY - 787878787</tspan></text><rect class="cls-1" x="7.06" y="278.84" width="286.84" height="17.54"/><text class="cls-7" transform="translate(7.06 287.56)"><tspan x="0" y="0">ZZZ - 8989898989</tspan></text><rect class="cls-1" x="7.06" y="312.79" width="286.84" height="17.54"/><text class="cls-7" transform="translate(7.06 321.5)"><tspan x="0" y="0">ZBD - 1919191919</tspan></text><rect class="cls-1" x="7.06" y="346.67" width="291.14" height="17.54"/><text class="cls-7" transform="translate(7.06 355.38)"><tspan x="0" y="0">EGD - 2828282828</tspan></text><rect class="cls-1" x="7.06" y="380.62" width="286.84" height="17.54"/><text class="cls-7" transform="translate(7.06 389.33)"><tspan x="0" y="0">STR - 3737373737</tspan></text></g></svg>