<?xml version="1.0" encoding="utf-8"?>
<!-- Generator: Adobe Illustrator 25.2.0, SVG Export Plug-In . SVG Version: 6.00 Build 0)  -->
<svg version="1.1" id="Layer_1" xmlns="http://www.w3.org/2000/svg" xmlns:xlink="http://www.w3.org/1999/xlink" x="0px" y="0px"
	 viewBox="0 0 875.6 99.9" style="enable-background:new 0 0 875.6 99.9;" xml:space="preserve">
<style type="text/css">
	.st0{enable-background:new    ;}
	.st1{fill:#FE706A;}
	.st2{fill:#FFFFFF;}
	.st3{font-family:'Roboto-Light';}
	.st4{font-size:72px;}
	.st5{letter-spacing:-1;}
</style>
<g id="Layer_2_1_">
	<g id="Layer_1-2">
		<g class="st0">
			<path class="st1" d="M58.9,79.1h-3.6V18.4h3.6V79.1z"/>
		</g>
		<g class="st0">
			<path class="st2" d="M93.3,65.9h25.3v3.7H89V18.4h4.4V65.9z"/>
			<path class="st2" d="M140.7,70.3c-3.2,0-6.2-0.8-8.8-2.4s-4.6-3.8-6.1-6.7s-2.2-6-2.2-9.6v-1.5c0-3.7,0.7-6.9,2.1-9.9
				c1.4-2.9,3.4-5.2,5.9-6.9c2.5-1.7,5.3-2.5,8.2-2.5c4.6,0,8.3,1.6,11,4.7c2.7,3.2,4.1,7.5,4.1,12.9v2.4h-27.1v0.8
				c0,4.3,1.2,7.9,3.7,10.8s5.6,4.3,9.3,4.3c2.2,0,4.2-0.4,6-1.2s3.3-2.1,4.7-3.9l2.6,2C151,68.1,146.5,70.3,140.7,70.3z
				 M139.9,34.4c-3.2,0-5.8,1.2-8,3.5s-3.5,5.4-4,9.4h22.8v-0.5c-0.1-3.7-1.2-6.6-3.1-8.9C145.7,35.6,143.1,34.4,139.9,34.4z"/>
			<path class="st2" d="M169.7,21.8v9.7h7.9V35h-7.9v25.4c0,2.1,0.4,3.7,1.1,4.7c0.8,1,2,1.5,3.8,1.5c0.7,0,1.8-0.1,3.4-0.4l0.2,3.4
				c-1.1,0.4-2.6,0.6-4.5,0.6c-2.9,0-5-0.8-6.3-2.5s-2-4.1-2-7.4V35h-7v-3.4h7v-9.7H169.7z"/>
		</g>
		<g class="st0">
			<path class="st2" d="M185.5,31l-2.5-1.8c2.1-2.8,3.2-5.8,3.3-8.9v-4.6h4.1v3.6C190.4,24,188.7,28,185.5,31z"/>
		</g>
		<g class="st0">
			<path class="st2" d="M217.9,59.9c0-2.1-0.8-3.8-2.5-5s-4.2-2.3-7.6-3c-3.4-0.7-6-1.5-7.9-2.5c-1.9-0.9-3.2-2.1-4.1-3.4
				c-0.9-1.3-1.4-3-1.4-4.9c0-3,1.3-5.5,3.8-7.4c2.5-2,5.7-2.9,9.6-2.9c4.2,0,7.6,1,10.2,3.1c2.6,2.1,3.8,4.8,3.8,8.2h-4.2
				c0-2.2-0.9-4.1-2.8-5.6s-4.2-2.2-7-2.2c-2.8,0-5,0.6-6.7,1.8c-1.7,1.2-2.5,2.8-2.5,4.8c0,1.9,0.7,3.4,2.1,4.4
				c1.4,1,3.9,2,7.6,2.9c3.7,0.9,6.5,1.8,8.3,2.8s3.2,2.2,4.1,3.6s1.3,3.1,1.3,5c0,3.2-1.3,5.8-3.9,7.7s-6,2.9-10.1,2.9
				c-4.4,0-8-1.1-10.8-3.2c-2.8-2.1-4.1-4.9-4.1-8.1h4.2c0.2,2.5,1.2,4.4,3.1,5.7c1.9,1.4,4.4,2.1,7.6,2.1c2.9,0,5.3-0.6,7.1-1.9
				S217.9,61.9,217.9,59.9z"/>
		</g>
		<g class="st0">
			<path class="st1" d="M286.3,53.6c-0.6,5.4-2.5,9.5-5.8,12.4s-7.6,4.3-13.1,4.3c-3.8,0-7.2-0.9-10.1-2.8s-5.2-4.6-6.8-8.1
				c-1.6-3.5-2.4-7.5-2.4-11.9v-6.6c0-4.5,0.8-8.6,2.4-12.1c1.6-3.5,3.9-6.2,6.9-8.1c3-1.9,6.4-2.9,10.3-2.9c5.5,0,9.8,1.5,13,4.4
				s5,7,5.5,12.3H282c-1.1-8.7-5.8-13-14.2-13c-4.6,0-8.3,1.7-11.1,5.2c-2.8,3.5-4.1,8.3-4.1,14.4v6.3c0,5.9,1.3,10.6,4,14.1
				c2.7,3.5,6.3,5.3,10.9,5.3c4.5,0,7.9-1.1,10.2-3.3s3.7-5.4,4.3-9.8H286.3z"/>
			<path class="st1" d="M313.4,35.1c-0.9-0.2-1.8-0.2-2.8-0.2c-2.6,0-4.8,0.7-6.7,2.2c-1.8,1.5-3.1,3.6-3.9,6.4v26.1h-4.2v-38h4.1
				l0.1,6c2.2-4.5,5.8-6.8,10.7-6.8c1.2,0,2.1,0.2,2.8,0.5L313.4,35.1z"/>
			<path class="st1" d="M334.8,70.3c-3.2,0-6.2-0.8-8.8-2.4s-4.6-3.8-6.1-6.7s-2.2-6-2.2-9.6v-1.5c0-3.7,0.7-6.9,2.1-9.9
				c1.4-2.9,3.4-5.2,5.9-6.9c2.5-1.7,5.3-2.5,8.2-2.5c4.6,0,8.3,1.6,11,4.7c2.7,3.2,4.1,7.5,4.1,12.9v2.4h-27.1v0.8
				c0,4.3,1.2,7.9,3.7,10.8s5.6,4.3,9.3,4.3c2.2,0,4.2-0.4,6-1.2s3.3-2.1,4.7-3.9l2.6,2C345.2,68.1,340.7,70.3,334.8,70.3z
				 M334,34.4c-3.2,0-5.8,1.2-8,3.5s-3.5,5.4-4,9.4h22.8v-0.5c-0.1-3.7-1.2-6.6-3.1-8.9C339.8,35.6,337.2,34.4,334,34.4z"/>
			<path class="st1" d="M381.3,69.6c-0.4-1.2-0.7-3-0.8-5.3c-1.5,1.9-3.4,3.4-5.6,4.4s-4.7,1.6-7.3,1.6c-3.7,0-6.6-1-8.9-3.1
				s-3.4-4.6-3.4-7.7c0-3.7,1.5-6.6,4.6-8.8c3.1-2.2,7.4-3.2,12.9-3.2h7.6v-4.3c0-2.7-0.8-4.9-2.5-6.4c-1.7-1.6-4.1-2.3-7.3-2.3
				c-2.9,0-5.4,0.8-7.3,2.2c-1.9,1.5-2.9,3.3-2.9,5.4l-4.2,0c0-3,1.4-5.6,4.2-7.9s6.3-3.3,10.4-3.3c4.2,0,7.6,1.1,10,3.2
				c2.4,2.1,3.7,5.1,3.8,8.9v18c0,3.7,0.4,6.4,1.2,8.3v0.4H381.3z M368.1,66.6c2.8,0,5.3-0.7,7.5-2s3.8-3.2,4.8-5.4v-8.4h-7.5
				c-4.2,0-7.5,0.8-9.8,2.3s-3.6,3.5-3.6,6.1c0,2.1,0.8,3.9,2.4,5.3S365.5,66.6,368.1,66.6z"/>
			<path class="st1" d="M402.4,21.8v9.7h7.9V35h-7.9v25.4c0,2.1,0.4,3.7,1.1,4.7c0.8,1,2,1.5,3.8,1.5c0.7,0,1.8-0.1,3.4-0.4l0.2,3.4
				c-1.1,0.4-2.6,0.6-4.5,0.6c-2.9,0-5-0.8-6.3-2.5s-2-4.1-2-7.4V35h-7v-3.4h7v-9.7H402.4z"/>
			<path class="st1" d="M433.7,70.3c-3.2,0-6.2-0.8-8.8-2.4s-4.6-3.8-6.1-6.7s-2.2-6-2.2-9.6v-1.5c0-3.7,0.7-6.9,2.1-9.9
				c1.4-2.9,3.4-5.2,5.9-6.9c2.5-1.7,5.3-2.5,8.2-2.5c4.6,0,8.3,1.6,11,4.7c2.7,3.2,4.1,7.5,4.1,12.9v2.4h-27.1v0.8
				c0,4.3,1.2,7.9,3.7,10.8s5.6,4.3,9.3,4.3c2.2,0,4.2-0.4,6-1.2s3.3-2.1,4.7-3.9l2.6,2C444.1,68.1,439.6,70.3,433.7,70.3z
				 M432.9,34.4c-3.2,0-5.8,1.2-8,3.5s-3.5,5.4-4,9.4h22.8v-0.5c-0.1-3.7-1.2-6.6-3.1-8.9C438.7,35.6,436.1,34.4,432.9,34.4z"/>
		</g>
		<text transform="matrix(1 0 0 1 450.67 69.59)" class="st1 st3 st4 st5"> </text>
		<g class="st0">
			<path class="st2" d="M508,22.1h-17.5v47.5h-4.3V22.1h-17.5v-3.7H508V22.1z"/>
		</g>
		<g class="st0">
			<path class="st2" d="M509.5,50c0-3.7,0.7-6.9,2.1-9.9c1.4-2.9,3.4-5.2,6-6.8c2.6-1.6,5.5-2.4,8.8-2.4c5.1,0,9.2,1.8,12.3,5.3
				s4.7,8.3,4.7,14.1v0.9c0,3.7-0.7,7-2.1,9.9s-3.4,5.2-6,6.8s-5.5,2.4-8.8,2.4c-5,0-9.1-1.8-12.3-5.3c-3.2-3.6-4.7-8.3-4.7-14.1V50
				z M513.7,51.2c0,4.5,1.2,8.3,3.5,11.2s5.4,4.4,9.3,4.4c3.8,0,6.9-1.5,9.2-4.4s3.5-6.8,3.5-11.5V50c0-2.9-0.5-5.6-1.6-8
				c-1.1-2.4-2.6-4.3-4.5-5.6c-1.9-1.3-4.2-2-6.7-2c-3.8,0-6.8,1.5-9.2,4.4c-2.4,2.9-3.6,6.8-3.6,11.5V51.2z"/>
			<path class="st2" d="M555.9,31.6l0.1,6.2c1.4-2.3,3.2-4,5.3-5.2c2.1-1.1,4.5-1.7,7-1.7c6,0,9.8,2.5,11.4,7.4
				c1.4-2.4,3.2-4.2,5.4-5.5c2.3-1.3,4.8-1.9,7.5-1.9c8.2,0,12.3,4.5,12.5,13.4v25.4H601V44.5c0-3.4-0.8-5.9-2.2-7.6
				c-1.4-1.6-3.8-2.5-7-2.5c-3,0-5.6,1-7.7,2.9c-2.1,1.9-3.2,4.2-3.5,7v25.2h-4.2V44.2c0-3.3-0.8-5.7-2.3-7.3
				c-1.5-1.6-3.8-2.4-7-2.4c-2.6,0-4.9,0.8-6.8,2.3s-3.3,3.8-4.2,6.7v26.1h-4.2v-38H555.9z"/>
			<path class="st2" d="M613.6,50c0-3.7,0.7-6.9,2.1-9.9c1.4-2.9,3.4-5.2,6-6.8c2.6-1.6,5.5-2.4,8.8-2.4c5.1,0,9.2,1.8,12.3,5.3
				s4.7,8.3,4.7,14.1v0.9c0,3.7-0.7,7-2.1,9.9s-3.4,5.2-6,6.8s-5.5,2.4-8.8,2.4c-5,0-9.1-1.8-12.3-5.3s-4.7-8.3-4.7-14.1V50z
				 M617.8,51.2c0,4.5,1.2,8.3,3.5,11.2s5.4,4.4,9.3,4.4c3.8,0,6.9-1.5,9.2-4.4s3.5-6.8,3.5-11.5V50c0-2.9-0.5-5.6-1.6-8
				c-1.1-2.4-2.6-4.3-4.5-5.6c-1.9-1.3-4.2-2-6.7-2c-3.8,0-6.8,1.5-9.2,4.4c-2.4,2.9-3.6,6.8-3.6,11.5V51.2z"/>
			<path class="st2" d="M673.8,35.1c-0.9-0.2-1.8-0.2-2.8-0.2c-2.6,0-4.8,0.7-6.7,2.2c-1.8,1.5-3.1,3.6-3.9,6.4v26.1h-4.2v-38h4.1
				l0.1,6c2.2-4.5,5.8-6.8,10.7-6.8c1.2,0,2.1,0.2,2.8,0.5L673.8,35.1z"/>
		</g>
		<g class="st0">
			<path class="st2" d="M698,35.1c-0.9-0.2-1.8-0.2-2.8-0.2c-2.6,0-4.8,0.7-6.7,2.2c-1.8,1.5-3.1,3.6-3.9,6.4v26.1h-4.2v-38h4.1
				l0.1,6c2.2-4.5,5.8-6.8,10.7-6.8c1.2,0,2.1,0.2,2.8,0.5L698,35.1z"/>
		</g>
		<g class="st0">
			<path class="st2" d="M701.7,50c0-3.7,0.7-6.9,2.1-9.9c1.4-2.9,3.4-5.2,6-6.8c2.6-1.6,5.5-2.4,8.8-2.4c5.1,0,9.2,1.8,12.3,5.3
				s4.7,8.3,4.7,14.1v0.9c0,3.7-0.7,7-2.1,9.9s-3.4,5.2-6,6.8s-5.5,2.4-8.8,2.4c-5,0-9.1-1.8-12.3-5.3c-3.2-3.6-4.7-8.3-4.7-14.1V50
				z M705.9,51.2c0,4.5,1.2,8.3,3.5,11.2s5.4,4.4,9.3,4.4c3.8,0,6.9-1.5,9.2-4.4s3.5-6.8,3.5-11.5V50c0-2.9-0.5-5.6-1.6-8
				c-1.1-2.4-2.6-4.3-4.5-5.6c-1.9-1.3-4.2-2-6.7-2c-3.8,0-6.8,1.5-9.2,4.4c-2.4,2.9-3.6,6.8-3.6,11.5V51.2z"/>
			<path class="st2" d="M753.4,60.8l0.6,3.3l0.8-3.4l9.1-29.1h3.6l9,28.9l1,4l0.8-3.7l7.8-29.2h4.4l-11.1,38h-3.6l-9.8-30.2
				l-0.5-2.1l-0.5,2.1l-9.6,30.1h-3.6l-11-38h4.3L753.4,60.8z"/>
		</g>
		<g class="st0">
			<path class="st1" d="M820.4,79.1h-3.6V18.4h3.6V79.1z"/>
		</g>
	</g>
</g>
</svg>
