<?xml version="1.0" encoding="utf-8"?>
<!-- Generator: Adobe Illustrator 25.2.0, SVG Export Plug-In . SVG Version: 6.00 Build 0)  -->
<svg version="1.1" id="Layer_1" xmlns="http://www.w3.org/2000/svg" xmlns:xlink="http://www.w3.org/1999/xlink" x="0px" y="0px"
	 viewBox="0 0 450.9 99.9" style="enable-background:new 0 0 450.9 99.9;" xml:space="preserve">
<style type="text/css">
	.st0{fill:#FFFFFF;}
	.st1{fill:#FE706A;}
</style>
<g>
	<path class="st0" d="M65.9,68.3h-4.3L32.2,24.5v43.8h-4.4V17.1h4.4l29.5,43.8V17.1h4.3V68.3z"/>
	<path class="st0" d="M101.9,68.3c-0.4-1.2-0.7-3-0.8-5.3c-1.5,1.9-3.4,3.4-5.6,4.4S90.8,69,88.2,69c-3.7,0-6.6-1-8.9-3.1
		c-2.3-2-3.4-4.6-3.4-7.7c0-3.7,1.5-6.6,4.6-8.8c3.1-2.2,7.4-3.2,12.9-3.2h7.6v-4.3c0-2.7-0.8-4.9-2.5-6.4c-1.7-1.6-4.1-2.3-7.3-2.3
		c-2.9,0-5.4,0.8-7.3,2.2c-1.9,1.5-2.9,3.3-2.9,5.4l-4.2,0c0-3,1.4-5.6,4.2-7.9s6.3-3.3,10.4-3.3c4.2,0,7.6,1.1,10,3.2
		c2.4,2.1,3.7,5.1,3.8,8.9v18c0,3.7,0.4,6.4,1.2,8.3v0.4H101.9z M88.7,65.3c2.8,0,5.3-0.7,7.5-2s3.8-3.2,4.8-5.4v-8.4h-7.5
		c-4.2,0-7.5,0.8-9.8,2.3c-2.4,1.5-3.6,3.5-3.6,6.1c0,2.1,0.8,3.9,2.4,5.3S86.2,65.3,88.7,65.3z"/>
	<path class="st0" d="M127.8,62.5l11.6-32.2h4.3l-14.2,38h-3.4l-14.3-38h4.3L127.8,62.5z"/>
	<path class="st0" d="M150.4,19.3c0-0.8,0.3-1.5,0.8-2c0.5-0.5,1.2-0.8,2.1-0.8c0.9,0,1.6,0.3,2.1,0.8s0.8,1.2,0.8,2s-0.3,1.5-0.8,2
		c-0.5,0.5-1.2,0.8-2.1,0.8c-0.9,0-1.6-0.3-2.1-0.8C150.6,20.7,150.4,20.1,150.4,19.3z M155.3,68.3h-4.2v-38h4.2V68.3z"/>
	<path class="st0" d="M165.1,48.9c0-6,1.3-10.7,4-14.2s6.2-5.2,10.7-5.2c5.2,0,9.1,2.1,11.8,6.2l0.2-5.5h3.9v37.3
		c0,4.9-1.4,8.8-4.1,11.6s-6.5,4.3-11.1,4.3c-2.6,0-5.2-0.6-7.6-1.8c-2.4-1.2-4.3-2.8-5.7-4.7l2.4-2.5c3,3.7,6.5,5.5,10.6,5.5
		c3.5,0,6.3-1,8.2-3.1s3-5,3.1-8.6v-4.8c-2.7,3.8-6.6,5.6-11.8,5.6c-4.4,0-7.9-1.8-10.6-5.3s-4-8.3-4-14.2V48.9z M169.3,49.7
		c0,4.9,1,8.7,2.9,11.5c1.9,2.8,4.7,4.2,8.2,4.2c5.2,0,8.8-2.3,11-7V40.7c-1-2.4-2.4-4.3-4.3-5.6c-1.9-1.3-4.1-1.9-6.7-1.9
		c-3.5,0-6.3,1.4-8.3,4.2S169.3,44.2,169.3,49.7z"/>
	<path class="st0" d="M230.7,68.3c-0.4-1.2-0.7-3-0.8-5.3c-1.5,1.9-3.4,3.4-5.6,4.4c-2.3,1-4.7,1.6-7.3,1.6c-3.7,0-6.6-1-8.9-3.1
		c-2.3-2-3.4-4.6-3.4-7.7c0-3.7,1.5-6.6,4.6-8.8c3.1-2.2,7.4-3.2,12.9-3.2h7.6v-4.3c0-2.7-0.8-4.9-2.5-6.4c-1.7-1.6-4.1-2.3-7.3-2.3
		c-2.9,0-5.4,0.8-7.3,2.2c-1.9,1.5-2.9,3.3-2.9,5.4l-4.2,0c0-3,1.4-5.6,4.2-7.9s6.3-3.3,10.4-3.3c4.2,0,7.6,1.1,10,3.2
		c2.4,2.1,3.7,5.1,3.8,8.9v18c0,3.7,0.4,6.4,1.2,8.3v0.4H230.7z M217.5,65.3c2.8,0,5.3-0.7,7.5-2c2.2-1.4,3.8-3.2,4.8-5.4v-8.4h-7.5
		c-4.2,0-7.5,0.8-9.8,2.3c-2.4,1.5-3.6,3.5-3.6,6.1c0,2.1,0.8,3.9,2.4,5.3S214.9,65.3,217.5,65.3z"/>
	<path class="st0" d="M251.8,20.5v9.7h7.9v3.4h-7.9v25.4c0,2.1,0.4,3.7,1.1,4.7c0.8,1,2,1.5,3.8,1.5c0.7,0,1.8-0.1,3.4-0.4l0.2,3.4
		c-1.1,0.4-2.6,0.6-4.5,0.6c-2.9,0-5-0.8-6.3-2.5c-1.3-1.7-2-4.1-2-7.4V33.7h-7v-3.4h7v-9.7H251.8z"/>
	<path class="st0" d="M268.1,19.3c0-0.8,0.3-1.5,0.8-2c0.5-0.5,1.2-0.8,2.1-0.8c0.9,0,1.6,0.3,2.1,0.8s0.8,1.2,0.8,2s-0.3,1.5-0.8,2
		c-0.5,0.5-1.2,0.8-2.1,0.8c-0.9,0-1.6-0.3-2.1-0.8C268.4,20.7,268.1,20.1,268.1,19.3z M273.1,68.3h-4.2v-38h4.2V68.3z"/>
	<path class="st0" d="M282.2,48.7c0-3.7,0.7-6.9,2.1-9.9c1.4-2.9,3.4-5.2,6-6.8c2.6-1.6,5.5-2.4,8.8-2.4c5.1,0,9.2,1.8,12.3,5.3
		c3.1,3.6,4.7,8.3,4.7,14.1v0.9c0,3.7-0.7,7-2.1,9.9c-1.4,2.9-3.4,5.2-6,6.8c-2.6,1.6-5.5,2.4-8.8,2.4c-5,0-9.1-1.8-12.3-5.3
		c-3.2-3.6-4.7-8.3-4.7-14.1V48.7z M286.4,49.9c0,4.5,1.2,8.3,3.5,11.2s5.4,4.4,9.3,4.4c3.8,0,6.9-1.5,9.2-4.4s3.5-6.8,3.5-11.5
		v-0.8c0-2.9-0.5-5.6-1.6-8c-1.1-2.4-2.6-4.3-4.5-5.6c-1.9-1.3-4.2-2-6.7-2c-3.8,0-6.8,1.5-9.2,4.4c-2.4,2.9-3.6,6.8-3.6,11.5V49.9z
		"/>
	<path class="st0" d="M328.8,30.3l0.1,6.5c1.4-2.3,3.2-4.1,5.3-5.4c2.1-1.2,4.5-1.8,7.1-1.8c4.1,0,7.1,1.1,9.1,3.4
		c2,2.3,3,5.7,3,10.3v25h-4.2v-25c0-3.4-0.7-5.9-2.2-7.6c-1.4-1.7-3.7-2.5-6.8-2.5c-2.6,0-4.9,0.8-6.9,2.4s-3.5,3.8-4.4,6.6v26.1
		h-4.2v-38H328.8z"/>
	<path class="st1" d="M386.2,77.8h-3.6V17.1h3.6V77.8z"/>
	<path class="st1" d="M421.7,47.5l-25-16v-6.5L426.4,45v5.1l-29.7,20v-6.5L421.7,47.5z"/>
</g>
</svg>
